  0
SECTION
  2
BLOCKS
  0
ENDSEC
  0
SECTION
  2
ENTITIES
  0
LINE
  8
0
 10
209.375
 20
0
 11
418.75
 21
0
  0
LINE
  8
0
 10
418.75
 20
0
 11
418.75
 21
-25
  0
LINE
  8
0
 10
418.75
 20
-25
 11
628.125
 21
-25
  0
LINE
  8
0
 10
628.125
 20
-25
 11
628.125
 21
0
  0
LINE
  8
0
 10
628.125
 20
0
 11
837.5
 21
0
  0
LINE
  8
0
 10
837.5
 20
0
 11
837.5
 21
-25
  0
LINE
  8
0
 10
837.5
 20
-25
 11
1046.88
 21
-25
  0
LINE
  8
0
 10
1046.88
 20
-25
 11
1046.88
 21
0
  0
LINE
  8
0
 10
1046.88
 20
0
 11
1256.25
 21
0
  0
LINE
  8
0
 10
1256.25
 20
0
 11
1256.25
 21
-25
  0
LINE
  8
0
 10
1256.25
 20
-25
 11
1465.62
 21
-25
  0
LINE
  8
0
 10
1465.62
 20
-25
 11
1465.62
 21
0
  0
LINE
  8
0
 10
1465.62
 20
0
 11
1700
 21
0
  0
LINE
  8
0
 10
1700
 20
0
 11
1700
 21
25
  0
LINE
  8
0
 10
1700
 20
25
 11
1675
 21
25
  0
LINE
  8
0
 10
1675
 20
25
 11
1675
 21
50
  0
LINE
  8
0
 10
1675
 20
50
 11
1700
 21
50
  0
LINE
  8
0
 10
1700
 20
50
 11
1700
 21
75
  0
LINE
  8
0
 10
1700
 20
75
 11
1675
 21
75
  0
LINE
  8
0
 10
1675
 20
75
 11
1675
 21
100
  0
LINE
  8
0
 10
1675
 20
100
 11
1700
 21
100
  0
LINE
  8
0
 10
1700
 20
100
 11
1700
 21
125
  0
LINE
  8
0
 10
1700
 20
125
 11
1675
 21
125
  0
LINE
  8
0
 10
1675
 20
125
 11
1675
 21
150
  0
LINE
  8
0
 10
1675
 20
150
 11
1700
 21
150
  0
LINE
  8
0
 10
1700
 20
150
 11
1700
 21
175
  0
LINE
  8
0
 10
1700
 20
175
 11
1675
 21
175
  0
LINE
  8
0
 10
1675
 20
175
 11
1675
 21
200
  0
LINE
  8
0
 10
1675
 20
200
 11
1465.62
 21
200
  0
LINE
  8
0
 10
1465.62
 20
200
 11
1465.62
 21
225
  0
LINE
  8
0
 10
1465.62
 20
225
 11
1256.25
 21
225
  0
LINE
  8
0
 10
1256.25
 20
225
 11
1256.25
 21
200
  0
LINE
  8
0
 10
1256.25
 20
200
 11
1046.88
 21
200
  0
LINE
  8
0
 10
1046.88
 20
200
 11
1046.88
 21
225
  0
LINE
  8
0
 10
1046.88
 20
225
 11
837.5
 21
225
  0
LINE
  8
0
 10
837.5
 20
225
 11
837.5
 21
200
  0
LINE
  8
0
 10
837.5
 20
200
 11
628.125
 21
200
  0
LINE
  8
0
 10
628.125
 20
200
 11
628.125
 21
225
  0
LINE
  8
0
 10
628.125
 20
225
 11
418.75
 21
225
  0
LINE
  8
0
 10
418.75
 20
225
 11
418.75
 21
200
  0
LINE
  8
0
 10
418.75
 20
200
 11
209.375
 21
200
  0
LINE
  8
0
 10
209.375
 20
200
 11
209.375
 21
225
  0
LINE
  8
0
 10
209.375
 20
225
 11
0
 21
225
  0
LINE
  8
0
 10
0
 20
225
 11
0
 21
175
  0
LINE
  8
0
 10
0
 20
175
 11
-25
 21
175
  0
LINE
  8
0
 10
-25
 20
175
 11
-25
 21
150
  0
LINE
  8
0
 10
-25
 20
150
 11
0
 21
150
  0
LINE
  8
0
 10
0
 20
150
 11
0
 21
125
  0
LINE
  8
0
 10
0
 20
125
 11
-25
 21
125
  0
LINE
  8
0
 10
-25
 20
125
 11
-25
 21
100
  0
LINE
  8
0
 10
-25
 20
100
 11
0
 21
100
  0
LINE
  8
0
 10
0
 20
100
 11
0
 21
75
  0
LINE
  8
0
 10
0
 20
75
 11
-25
 21
75
  0
LINE
  8
0
 10
-25
 20
75
 11
-25
 21
50
  0
LINE
  8
0
 10
-25
 20
50
 11
0
 21
50
  0
LINE
  8
0
 10
0
 20
50
 11
0
 21
25
  0
LINE
  8
0
 10
0
 20
25
 11
-25
 21
25
  0
LINE
  8
0
 10
-25
 20
25
 11
-25
 21
0
  0
LINE
  8
0
 10
-25
 20
0
 11
0
 21
0
  0
LINE
  8
0
 10
0
 20
0
 11
0
 21
-25
  0
LINE
  8
0
 10
0
 20
-25
 11
209.375
 21
-25
  0
LINE
  8
0
 10
209.375
 20
-25
 11
209.375
 21
0
  0
ENDSEC
  0
SECTION
  2
OBJECTS
  0
DICTIONARY
  0
ENDSEC
  0
EOF
