  0
SECTION
  2
BLOCKS
  0
ENDSEC
  0
SECTION
  2
ENTITIES
  0
LINE
  8
0
 10
50
 20
3000
 11
75
 21
3000
  0
LINE
  8
0
 10
75
 20
3000
 11
75
 21
2975
  0
LINE
  8
0
 10
75
 20
2975
 11
100
 21
2975
  0
LINE
  8
0
 10
100
 20
2975
 11
100
 21
3000
  0
LINE
  8
0
 10
100
 20
3000
 11
125
 21
3000
  0
LINE
  8
0
 10
125
 20
3000
 11
125
 21
2975
  0
LINE
  8
0
 10
125
 20
2975
 11
150
 21
2975
  0
LINE
  8
0
 10
150
 20
2975
 11
150
 21
3000
  0
LINE
  8
0
 10
150
 20
3000
 11
175
 21
3000
  0
LINE
  8
0
 10
175
 20
3000
 11
175
 21
2975
  0
LINE
  8
0
 10
175
 20
2975
 11
200
 21
2975
  0
LINE
  8
0
 10
200
 20
2975
 11
200
 21
3106.25
  0
LINE
  8
0
 10
200
 20
3106.25
 11
225
 21
3106.25
  0
LINE
  8
0
 10
225
 20
3106.25
 11
225
 21
3212.5
  0
LINE
  8
0
 10
225
 20
3212.5
 11
200
 21
3212.5
  0
LINE
  8
0
 10
200
 20
3212.5
 11
200
 21
3318.75
  0
LINE
  8
0
 10
200
 20
3318.75
 11
225
 21
3318.75
  0
LINE
  8
0
 10
225
 20
3318.75
 11
225
 21
3425
  0
LINE
  8
0
 10
225
 20
3425
 11
200
 21
3425
  0
LINE
  8
0
 10
200
 20
3425
 11
200
 21
3531.25
  0
LINE
  8
0
 10
200
 20
3531.25
 11
225
 21
3531.25
  0
LINE
  8
0
 10
225
 20
3531.25
 11
225
 21
3637.5
  0
LINE
  8
0
 10
225
 20
3637.5
 11
200
 21
3637.5
  0
LINE
  8
0
 10
200
 20
3637.5
 11
200
 21
3743.75
  0
LINE
  8
0
 10
200
 20
3743.75
 11
225
 21
3743.75
  0
LINE
  8
0
 10
225
 20
3743.75
 11
225
 21
3875
  0
LINE
  8
0
 10
225
 20
3875
 11
175
 21
3875
  0
LINE
  8
0
 10
175
 20
3875
 11
175
 21
3850
  0
LINE
  8
0
 10
175
 20
3850
 11
150
 21
3850
  0
LINE
  8
0
 10
150
 20
3850
 11
150
 21
3875
  0
LINE
  8
0
 10
150
 20
3875
 11
125
 21
3875
  0
LINE
  8
0
 10
125
 20
3875
 11
125
 21
3850
  0
LINE
  8
0
 10
125
 20
3850
 11
100
 21
3850
  0
LINE
  8
0
 10
100
 20
3850
 11
100
 21
3875
  0
LINE
  8
0
 10
100
 20
3875
 11
75
 21
3875
  0
LINE
  8
0
 10
75
 20
3875
 11
75
 21
3850
  0
LINE
  8
0
 10
75
 20
3850
 11
50
 21
3850
  0
LINE
  8
0
 10
50
 20
3850
 11
50
 21
3875
  0
LINE
  8
0
 10
50
 20
3875
 11
25
 21
3875
  0
LINE
  8
0
 10
25
 20
3875
 11
25
 21
3850
  0
LINE
  8
0
 10
25
 20
3850
 11
-25
 21
3850
  0
LINE
  8
0
 10
-25
 20
3850
 11
-25
 21
3743.75
  0
LINE
  8
0
 10
-25
 20
3743.75
 11
0
 21
3743.75
  0
LINE
  8
0
 10
0
 20
3743.75
 11
0
 21
3637.5
  0
LINE
  8
0
 10
0
 20
3637.5
 11
-25
 21
3637.5
  0
LINE
  8
0
 10
-25
 20
3637.5
 11
-25
 21
3531.25
  0
LINE
  8
0
 10
-25
 20
3531.25
 11
0
 21
3531.25
  0
LINE
  8
0
 10
0
 20
3531.25
 11
0
 21
3425
  0
LINE
  8
0
 10
0
 20
3425
 11
-25
 21
3425
  0
LINE
  8
0
 10
-25
 20
3425
 11
-25
 21
3318.75
  0
LINE
  8
0
 10
-25
 20
3318.75
 11
0
 21
3318.75
  0
LINE
  8
0
 10
0
 20
3318.75
 11
0
 21
3212.5
  0
LINE
  8
0
 10
0
 20
3212.5
 11
-25
 21
3212.5
  0
LINE
  8
0
 10
-25
 20
3212.5
 11
-25
 21
3106.25
  0
LINE
  8
0
 10
-25
 20
3106.25
 11
0
 21
3106.25
  0
LINE
  8
0
 10
0
 20
3106.25
 11
0
 21
3000
  0
LINE
  8
0
 10
0
 20
3000
 11
25
 21
3000
  0
LINE
  8
0
 10
25
 20
3000
 11
25
 21
2975
  0
LINE
  8
0
 10
25
 20
2975
 11
50
 21
2975
  0
LINE
  8
0
 10
50
 20
2975
 11
50
 21
3000
  0
LINE
  8
0
 10
50
 20
2087.5
 11
75
 21
2087.5
  0
LINE
  8
0
 10
75
 20
2087.5
 11
75
 21
2062.5
  0
LINE
  8
0
 10
75
 20
2062.5
 11
100
 21
2062.5
  0
LINE
  8
0
 10
100
 20
2062.5
 11
100
 21
2087.5
  0
LINE
  8
0
 10
100
 20
2087.5
 11
125
 21
2087.5
  0
LINE
  8
0
 10
125
 20
2087.5
 11
125
 21
2062.5
  0
LINE
  8
0
 10
125
 20
2062.5
 11
150
 21
2062.5
  0
LINE
  8
0
 10
150
 20
2062.5
 11
150
 21
2087.5
  0
LINE
  8
0
 10
150
 20
2087.5
 11
175
 21
2087.5
  0
LINE
  8
0
 10
175
 20
2087.5
 11
175
 21
2062.5
  0
LINE
  8
0
 10
175
 20
2062.5
 11
200
 21
2062.5
  0
LINE
  8
0
 10
200
 20
2062.5
 11
200
 21
2193.75
  0
LINE
  8
0
 10
200
 20
2193.75
 11
225
 21
2193.75
  0
LINE
  8
0
 10
225
 20
2193.75
 11
225
 21
2300
  0
LINE
  8
0
 10
225
 20
2300
 11
200
 21
2300
  0
LINE
  8
0
 10
200
 20
2300
 11
200
 21
2406.25
  0
LINE
  8
0
 10
200
 20
2406.25
 11
225
 21
2406.25
  0
LINE
  8
0
 10
225
 20
2406.25
 11
225
 21
2512.5
  0
LINE
  8
0
 10
225
 20
2512.5
 11
200
 21
2512.5
  0
LINE
  8
0
 10
200
 20
2512.5
 11
200
 21
2618.75
  0
LINE
  8
0
 10
200
 20
2618.75
 11
225
 21
2618.75
  0
LINE
  8
0
 10
225
 20
2618.75
 11
225
 21
2725
  0
LINE
  8
0
 10
225
 20
2725
 11
200
 21
2725
  0
LINE
  8
0
 10
200
 20
2725
 11
200
 21
2831.25
  0
LINE
  8
0
 10
200
 20
2831.25
 11
225
 21
2831.25
  0
LINE
  8
0
 10
225
 20
2831.25
 11
225
 21
2937.5
  0
LINE
  8
0
 10
225
 20
2937.5
 11
200
 21
2937.5
  0
LINE
  8
0
 10
200
 20
2937.5
 11
200
 21
2962.5
  0
LINE
  8
0
 10
200
 20
2962.5
 11
175
 21
2962.5
  0
LINE
  8
0
 10
175
 20
2962.5
 11
175
 21
2937.5
  0
LINE
  8
0
 10
175
 20
2937.5
 11
150
 21
2937.5
  0
LINE
  8
0
 10
150
 20
2937.5
 11
150
 21
2962.5
  0
LINE
  8
0
 10
150
 20
2962.5
 11
125
 21
2962.5
  0
LINE
  8
0
 10
125
 20
2962.5
 11
125
 21
2937.5
  0
LINE
  8
0
 10
125
 20
2937.5
 11
100
 21
2937.5
  0
LINE
  8
0
 10
100
 20
2937.5
 11
100
 21
2962.5
  0
LINE
  8
0
 10
100
 20
2962.5
 11
75
 21
2962.5
  0
LINE
  8
0
 10
75
 20
2962.5
 11
75
 21
2937.5
  0
LINE
  8
0
 10
75
 20
2937.5
 11
50
 21
2937.5
  0
LINE
  8
0
 10
50
 20
2937.5
 11
50
 21
2962.5
  0
LINE
  8
0
 10
50
 20
2962.5
 11
25
 21
2962.5
  0
LINE
  8
0
 10
25
 20
2962.5
 11
25
 21
2937.5
  0
LINE
  8
0
 10
25
 20
2937.5
 11
-25
 21
2937.5
  0
LINE
  8
0
 10
-25
 20
2937.5
 11
-25
 21
2831.25
  0
LINE
  8
0
 10
-25
 20
2831.25
 11
0
 21
2831.25
  0
LINE
  8
0
 10
0
 20
2831.25
 11
0
 21
2725
  0
LINE
  8
0
 10
0
 20
2725
 11
-25
 21
2725
  0
LINE
  8
0
 10
-25
 20
2725
 11
-25
 21
2618.75
  0
LINE
  8
0
 10
-25
 20
2618.75
 11
0
 21
2618.75
  0
LINE
  8
0
 10
0
 20
2618.75
 11
0
 21
2512.5
  0
LINE
  8
0
 10
0
 20
2512.5
 11
-25
 21
2512.5
  0
LINE
  8
0
 10
-25
 20
2512.5
 11
-25
 21
2406.25
  0
LINE
  8
0
 10
-25
 20
2406.25
 11
0
 21
2406.25
  0
LINE
  8
0
 10
0
 20
2406.25
 11
0
 21
2300
  0
LINE
  8
0
 10
0
 20
2300
 11
-25
 21
2300
  0
LINE
  8
0
 10
-25
 20
2300
 11
-25
 21
2193.75
  0
LINE
  8
0
 10
-25
 20
2193.75
 11
0
 21
2193.75
  0
LINE
  8
0
 10
0
 20
2193.75
 11
0
 21
2087.5
  0
LINE
  8
0
 10
0
 20
2087.5
 11
25
 21
2087.5
  0
LINE
  8
0
 10
25
 20
2087.5
 11
25
 21
2062.5
  0
LINE
  8
0
 10
25
 20
2062.5
 11
50
 21
2062.5
  0
LINE
  8
0
 10
50
 20
2062.5
 11
50
 21
2087.5
  0
LINE
  8
0
 10
418.75
 20
1825
 11
628.125
 21
1825
  0
LINE
  8
0
 10
628.125
 20
1825
 11
628.125
 21
1800
  0
LINE
  8
0
 10
628.125
 20
1800
 11
837.5
 21
1800
  0
LINE
  8
0
 10
837.5
 20
1800
 11
837.5
 21
1825
  0
LINE
  8
0
 10
837.5
 20
1825
 11
1046.88
 21
1825
  0
LINE
  8
0
 10
1046.88
 20
1825
 11
1046.88
 21
1800
  0
LINE
  8
0
 10
1046.88
 20
1800
 11
1256.25
 21
1800
  0
LINE
  8
0
 10
1256.25
 20
1800
 11
1256.25
 21
1825
  0
LINE
  8
0
 10
1256.25
 20
1825
 11
1465.62
 21
1825
  0
LINE
  8
0
 10
1465.62
 20
1825
 11
1465.62
 21
1800
  0
LINE
  8
0
 10
1465.62
 20
1800
 11
1700
 21
1800
  0
LINE
  8
0
 10
1700
 20
1800
 11
1700
 21
1850
  0
LINE
  8
0
 10
1700
 20
1850
 11
1675
 21
1850
  0
LINE
  8
0
 10
1675
 20
1850
 11
1675
 21
1875
  0
LINE
  8
0
 10
1675
 20
1875
 11
1700
 21
1875
  0
LINE
  8
0
 10
1700
 20
1875
 11
1700
 21
1900
  0
LINE
  8
0
 10
1700
 20
1900
 11
1675
 21
1900
  0
LINE
  8
0
 10
1675
 20
1900
 11
1675
 21
1925
  0
LINE
  8
0
 10
1675
 20
1925
 11
1700
 21
1925
  0
LINE
  8
0
 10
1700
 20
1925
 11
1700
 21
1950
  0
LINE
  8
0
 10
1700
 20
1950
 11
1675
 21
1950
  0
LINE
  8
0
 10
1675
 20
1950
 11
1675
 21
1975
  0
LINE
  8
0
 10
1675
 20
1975
 11
1700
 21
1975
  0
LINE
  8
0
 10
1700
 20
1975
 11
1700
 21
2000
  0
LINE
  8
0
 10
1700
 20
2000
 11
1675
 21
2000
  0
LINE
  8
0
 10
1675
 20
2000
 11
1675
 21
2025
  0
LINE
  8
0
 10
1675
 20
2025
 11
1465.62
 21
2025
  0
LINE
  8
0
 10
1465.62
 20
2025
 11
1465.62
 21
2050
  0
LINE
  8
0
 10
1465.62
 20
2050
 11
1256.25
 21
2050
  0
LINE
  8
0
 10
1256.25
 20
2050
 11
1256.25
 21
2025
  0
LINE
  8
0
 10
1256.25
 20
2025
 11
1046.88
 21
2025
  0
LINE
  8
0
 10
1046.88
 20
2025
 11
1046.88
 21
2050
  0
LINE
  8
0
 10
1046.88
 20
2050
 11
837.5
 21
2050
  0
LINE
  8
0
 10
837.5
 20
2050
 11
837.5
 21
2025
  0
LINE
  8
0
 10
837.5
 20
2025
 11
628.125
 21
2025
  0
LINE
  8
0
 10
628.125
 20
2025
 11
628.125
 21
2050
  0
LINE
  8
0
 10
628.125
 20
2050
 11
418.75
 21
2050
  0
LINE
  8
0
 10
418.75
 20
2050
 11
418.75
 21
2025
  0
LINE
  8
0
 10
418.75
 20
2025
 11
209.375
 21
2025
  0
LINE
  8
0
 10
209.375
 20
2025
 11
209.375
 21
2050
  0
LINE
  8
0
 10
209.375
 20
2050
 11
-25
 21
2050
  0
LINE
  8
0
 10
-25
 20
2050
 11
-25
 21
2025
  0
LINE
  8
0
 10
-25
 20
2025
 11
0
 21
2025
  0
LINE
  8
0
 10
0
 20
2025
 11
0
 21
2000
  0
LINE
  8
0
 10
0
 20
2000
 11
-25
 21
2000
  0
LINE
  8
0
 10
-25
 20
2000
 11
-25
 21
1975
  0
LINE
  8
0
 10
-25
 20
1975
 11
0
 21
1975
  0
LINE
  8
0
 10
0
 20
1975
 11
0
 21
1950
  0
LINE
  8
0
 10
0
 20
1950
 11
-25
 21
1950
  0
LINE
  8
0
 10
-25
 20
1950
 11
-25
 21
1925
  0
LINE
  8
0
 10
-25
 20
1925
 11
0
 21
1925
  0
LINE
  8
0
 10
0
 20
1925
 11
0
 21
1900
  0
LINE
  8
0
 10
0
 20
1900
 11
-25
 21
1900
  0
LINE
  8
0
 10
-25
 20
1900
 11
-25
 21
1875
  0
LINE
  8
0
 10
-25
 20
1875
 11
0
 21
1875
  0
LINE
  8
0
 10
0
 20
1875
 11
0
 21
1850
  0
LINE
  8
0
 10
0
 20
1850
 11
-25
 21
1850
  0
LINE
  8
0
 10
-25
 20
1850
 11
-25
 21
1825
  0
LINE
  8
0
 10
-25
 20
1825
 11
209.375
 21
1825
  0
LINE
  8
0
 10
209.375
 20
1825
 11
209.375
 21
1800
  0
LINE
  8
0
 10
209.375
 20
1800
 11
418.75
 21
1800
  0
LINE
  8
0
 10
418.75
 20
1800
 11
418.75
 21
1825
  0
LINE
  8
0
 10
48.0401
 20
1981.35
 11
46.1017
 21
1981.66
  0
LINE
  8
0
 10
46.1017
 20
1981.66
 11
44.2059
 21
1982.17
  0
LINE
  8
0
 10
44.2059
 20
1982.17
 11
42.3737
 21
1982.87
  0
LINE
  8
0
 10
42.3737
 20
1982.87
 11
40.625
 21
1983.76
  0
LINE
  8
0
 10
40.625
 20
1983.76
 11
38.979
 21
1984.83
  0
LINE
  8
0
 10
38.979
 20
1984.83
 11
37.4538
 21
1986.07
  0
LINE
  8
0
 10
37.4538
 20
1986.07
 11
36.066
 21
1987.45
  0
LINE
  8
0
 10
36.066
 20
1987.45
 11
34.8309
 21
1988.98
  0
LINE
  8
0
 10
34.8309
 20
1988.98
 11
33.762
 21
1990.62
  0
LINE
  8
0
 10
33.762
 20
1990.62
 11
32.871
 21
1992.37
  0
LINE
  8
0
 10
32.871
 20
1992.37
 11
32.1677
 21
1994.21
  0
LINE
  8
0
 10
32.1677
 20
1994.21
 11
31.6597
 21
1996.1
  0
LINE
  8
0
 10
31.6597
 20
1996.1
 11
31.3527
 21
1998.04
  0
LINE
  8
0
 10
31.3527
 20
1998.04
 11
31.25
 21
2000
  0
LINE
  8
0
 10
31.25
 20
2000
 11
31.3527
 21
2001.96
  0
LINE
  8
0
 10
31.3527
 20
2001.96
 11
31.6597
 21
2003.9
  0
LINE
  8
0
 10
31.6597
 20
2003.9
 11
32.1677
 21
2005.79
  0
LINE
  8
0
 10
32.1677
 20
2005.79
 11
32.871
 21
2007.63
  0
LINE
  8
0
 10
32.871
 20
2007.63
 11
33.762
 21
2009.38
  0
LINE
  8
0
 10
33.762
 20
2009.38
 11
34.8309
 21
2011.02
  0
LINE
  8
0
 10
34.8309
 20
2011.02
 11
36.066
 21
2012.55
  0
LINE
  8
0
 10
36.066
 20
2012.55
 11
37.4538
 21
2013.93
  0
LINE
  8
0
 10
37.4538
 20
2013.93
 11
38.979
 21
2015.17
  0
LINE
  8
0
 10
38.979
 20
2015.17
 11
40.625
 21
2016.24
  0
LINE
  8
0
 10
40.625
 20
2016.24
 11
42.3737
 21
2017.13
  0
LINE
  8
0
 10
42.3737
 20
2017.13
 11
44.2059
 21
2017.83
  0
LINE
  8
0
 10
44.2059
 20
2017.83
 11
46.1017
 21
2018.34
  0
LINE
  8
0
 10
46.1017
 20
2018.34
 11
48.0401
 21
2018.65
  0
LINE
  8
0
 10
48.0401
 20
2018.65
 11
50
 21
2018.75
  0
LINE
  8
0
 10
50
 20
2018.75
 11
51.9599
 21
2018.65
  0
LINE
  8
0
 10
51.9599
 20
2018.65
 11
53.8983
 21
2018.34
  0
LINE
  8
0
 10
53.8983
 20
2018.34
 11
55.7941
 21
2017.83
  0
LINE
  8
0
 10
55.7941
 20
2017.83
 11
57.6263
 21
2017.13
  0
LINE
  8
0
 10
57.6263
 20
2017.13
 11
59.375
 21
2016.24
  0
LINE
  8
0
 10
59.375
 20
2016.24
 11
61.021
 21
2015.17
  0
LINE
  8
0
 10
61.021
 20
2015.17
 11
62.5462
 21
2013.93
  0
LINE
  8
0
 10
62.5462
 20
2013.93
 11
63.934
 21
2012.55
  0
LINE
  8
0
 10
63.934
 20
2012.55
 11
65.1691
 21
2011.02
  0
LINE
  8
0
 10
65.1691
 20
2011.02
 11
66.238
 21
2009.38
  0
LINE
  8
0
 10
66.238
 20
2009.38
 11
67.129
 21
2007.63
  0
LINE
  8
0
 10
67.129
 20
2007.63
 11
67.8323
 21
2005.79
  0
LINE
  8
0
 10
67.8323
 20
2005.79
 11
68.3403
 21
2003.9
  0
LINE
  8
0
 10
68.3403
 20
2003.9
 11
68.6473
 21
2001.96
  0
LINE
  8
0
 10
68.6473
 20
2001.96
 11
68.75
 21
2000
  0
LINE
  8
0
 10
68.75
 20
2000
 11
68.6473
 21
1998.04
  0
LINE
  8
0
 10
68.6473
 20
1998.04
 11
68.3403
 21
1996.1
  0
LINE
  8
0
 10
68.3403
 20
1996.1
 11
67.8323
 21
1994.21
  0
LINE
  8
0
 10
67.8323
 20
1994.21
 11
67.129
 21
1992.37
  0
LINE
  8
0
 10
67.129
 20
1992.37
 11
66.238
 21
1990.62
  0
LINE
  8
0
 10
66.238
 20
1990.62
 11
65.1691
 21
1988.98
  0
LINE
  8
0
 10
65.1691
 20
1988.98
 11
63.934
 21
1987.45
  0
LINE
  8
0
 10
63.934
 20
1987.45
 11
62.5462
 21
1986.07
  0
LINE
  8
0
 10
62.5462
 20
1986.07
 11
61.021
 21
1984.83
  0
LINE
  8
0
 10
61.021
 20
1984.83
 11
59.375
 21
1983.76
  0
LINE
  8
0
 10
59.375
 20
1983.76
 11
57.6263
 21
1982.87
  0
LINE
  8
0
 10
57.6263
 20
1982.87
 11
55.7941
 21
1982.17
  0
LINE
  8
0
 10
55.7941
 20
1982.17
 11
53.8983
 21
1981.66
  0
LINE
  8
0
 10
53.8983
 20
1981.66
 11
51.9599
 21
1981.35
  0
LINE
  8
0
 10
51.9599
 20
1981.35
 11
50
 21
1981.25
  0
LINE
  8
0
 10
50
 20
1981.25
 11
48.0401
 21
1981.35
  0
LINE
  8
0
 10
198.04
 20
1981.35
 11
196.102
 21
1981.66
  0
LINE
  8
0
 10
196.102
 20
1981.66
 11
194.206
 21
1982.17
  0
LINE
  8
0
 10
194.206
 20
1982.17
 11
192.374
 21
1982.87
  0
LINE
  8
0
 10
192.374
 20
1982.87
 11
190.625
 21
1983.76
  0
LINE
  8
0
 10
190.625
 20
1983.76
 11
188.979
 21
1984.83
  0
LINE
  8
0
 10
188.979
 20
1984.83
 11
187.454
 21
1986.07
  0
LINE
  8
0
 10
187.454
 20
1986.07
 11
186.066
 21
1987.45
  0
LINE
  8
0
 10
186.066
 20
1987.45
 11
184.831
 21
1988.98
  0
LINE
  8
0
 10
184.831
 20
1988.98
 11
183.762
 21
1990.62
  0
LINE
  8
0
 10
183.762
 20
1990.62
 11
182.871
 21
1992.37
  0
LINE
  8
0
 10
182.871
 20
1992.37
 11
182.168
 21
1994.21
  0
LINE
  8
0
 10
182.168
 20
1994.21
 11
181.66
 21
1996.1
  0
LINE
  8
0
 10
181.66
 20
1996.1
 11
181.353
 21
1998.04
  0
LINE
  8
0
 10
181.353
 20
1998.04
 11
181.25
 21
2000
  0
LINE
  8
0
 10
181.25
 20
2000
 11
181.353
 21
2001.96
  0
LINE
  8
0
 10
181.353
 20
2001.96
 11
181.66
 21
2003.9
  0
LINE
  8
0
 10
181.66
 20
2003.9
 11
182.168
 21
2005.79
  0
LINE
  8
0
 10
182.168
 20
2005.79
 11
182.871
 21
2007.63
  0
LINE
  8
0
 10
182.871
 20
2007.63
 11
183.762
 21
2009.38
  0
LINE
  8
0
 10
183.762
 20
2009.38
 11
184.831
 21
2011.02
  0
LINE
  8
0
 10
184.831
 20
2011.02
 11
186.066
 21
2012.55
  0
LINE
  8
0
 10
186.066
 20
2012.55
 11
187.454
 21
2013.93
  0
LINE
  8
0
 10
187.454
 20
2013.93
 11
188.979
 21
2015.17
  0
LINE
  8
0
 10
188.979
 20
2015.17
 11
190.625
 21
2016.24
  0
LINE
  8
0
 10
190.625
 20
2016.24
 11
192.374
 21
2017.13
  0
LINE
  8
0
 10
192.374
 20
2017.13
 11
194.206
 21
2017.83
  0
LINE
  8
0
 10
194.206
 20
2017.83
 11
196.102
 21
2018.34
  0
LINE
  8
0
 10
196.102
 20
2018.34
 11
198.04
 21
2018.65
  0
LINE
  8
0
 10
198.04
 20
2018.65
 11
200
 21
2018.75
  0
LINE
  8
0
 10
200
 20
2018.75
 11
201.96
 21
2018.65
  0
LINE
  8
0
 10
201.96
 20
2018.65
 11
203.898
 21
2018.34
  0
LINE
  8
0
 10
203.898
 20
2018.34
 11
205.794
 21
2017.83
  0
LINE
  8
0
 10
205.794
 20
2017.83
 11
207.626
 21
2017.13
  0
LINE
  8
0
 10
207.626
 20
2017.13
 11
209.375
 21
2016.24
  0
LINE
  8
0
 10
209.375
 20
2016.24
 11
211.021
 21
2015.17
  0
LINE
  8
0
 10
211.021
 20
2015.17
 11
212.546
 21
2013.93
  0
LINE
  8
0
 10
212.546
 20
2013.93
 11
213.934
 21
2012.55
  0
LINE
  8
0
 10
213.934
 20
2012.55
 11
215.169
 21
2011.02
  0
LINE
  8
0
 10
215.169
 20
2011.02
 11
216.238
 21
2009.38
  0
LINE
  8
0
 10
216.238
 20
2009.38
 11
217.129
 21
2007.63
  0
LINE
  8
0
 10
217.129
 20
2007.63
 11
217.832
 21
2005.79
  0
LINE
  8
0
 10
217.832
 20
2005.79
 11
218.34
 21
2003.9
  0
LINE
  8
0
 10
218.34
 20
2003.9
 11
218.647
 21
2001.96
  0
LINE
  8
0
 10
218.647
 20
2001.96
 11
218.75
 21
2000
  0
LINE
  8
0
 10
218.75
 20
2000
 11
218.647
 21
1998.04
  0
LINE
  8
0
 10
218.647
 20
1998.04
 11
218.34
 21
1996.1
  0
LINE
  8
0
 10
218.34
 20
1996.1
 11
217.832
 21
1994.21
  0
LINE
  8
0
 10
217.832
 20
1994.21
 11
217.129
 21
1992.37
  0
LINE
  8
0
 10
217.129
 20
1992.37
 11
216.238
 21
1990.62
  0
LINE
  8
0
 10
216.238
 20
1990.62
 11
215.169
 21
1988.98
  0
LINE
  8
0
 10
215.169
 20
1988.98
 11
213.934
 21
1987.45
  0
LINE
  8
0
 10
213.934
 20
1987.45
 11
212.546
 21
1986.07
  0
LINE
  8
0
 10
212.546
 20
1986.07
 11
211.021
 21
1984.83
  0
LINE
  8
0
 10
211.021
 20
1984.83
 11
209.375
 21
1983.76
  0
LINE
  8
0
 10
209.375
 20
1983.76
 11
207.626
 21
1982.87
  0
LINE
  8
0
 10
207.626
 20
1982.87
 11
205.794
 21
1982.17
  0
LINE
  8
0
 10
205.794
 20
1982.17
 11
203.898
 21
1981.66
  0
LINE
  8
0
 10
203.898
 20
1981.66
 11
201.96
 21
1981.35
  0
LINE
  8
0
 10
201.96
 20
1981.35
 11
200
 21
1981.25
  0
LINE
  8
0
 10
200
 20
1981.25
 11
198.04
 21
1981.35
  0
LINE
  8
0
 10
600
 20
1850
 11
600
 21
1950
  0
LINE
  8
0
 10
600
 20
1950
 11
987.5
 21
1950
  0
LINE
  8
0
 10
987.5
 20
1950
 11
987.5
 21
1850
  0
LINE
  8
0
 10
987.5
 20
1850
 11
600
 21
1850
  0
LINE
  8
0
 10
25
 20
1850
 11
25
 21
1950
  0
LINE
  8
0
 10
25
 20
1950
 11
225
 21
1950
  0
LINE
  8
0
 10
225
 20
1950
 11
225
 21
1850
  0
LINE
  8
0
 10
225
 20
1850
 11
25
 21
1850
  0
LINE
  8
0
 10
0
 20
912.5
 11
209.375
 21
912.5
  0
LINE
  8
0
 10
209.375
 20
912.5
 11
209.375
 21
887.5
  0
LINE
  8
0
 10
209.375
 20
887.5
 11
418.75
 21
887.5
  0
LINE
  8
0
 10
418.75
 20
887.5
 11
418.75
 21
912.5
  0
LINE
  8
0
 10
418.75
 20
912.5
 11
628.125
 21
912.5
  0
LINE
  8
0
 10
628.125
 20
912.5
 11
628.125
 21
887.5
  0
LINE
  8
0
 10
628.125
 20
887.5
 11
837.5
 21
887.5
  0
LINE
  8
0
 10
837.5
 20
887.5
 11
837.5
 21
912.5
  0
LINE
  8
0
 10
837.5
 20
912.5
 11
1046.88
 21
912.5
  0
LINE
  8
0
 10
1046.88
 20
912.5
 11
1046.88
 21
887.5
  0
LINE
  8
0
 10
1046.88
 20
887.5
 11
1256.25
 21
887.5
  0
LINE
  8
0
 10
1256.25
 20
887.5
 11
1256.25
 21
912.5
  0
LINE
  8
0
 10
1256.25
 20
912.5
 11
1465.62
 21
912.5
  0
LINE
  8
0
 10
1465.62
 20
912.5
 11
1465.62
 21
887.5
  0
LINE
  8
0
 10
1465.62
 20
887.5
 11
1700
 21
887.5
  0
LINE
  8
0
 10
1700
 20
887.5
 11
1700
 21
1018.75
  0
LINE
  8
0
 10
1700
 20
1018.75
 11
1675
 21
1018.75
  0
LINE
  8
0
 10
1675
 20
1018.75
 11
1675
 21
1125
  0
LINE
  8
0
 10
1675
 20
1125
 11
1700
 21
1125
  0
LINE
  8
0
 10
1700
 20
1125
 11
1700
 21
1231.25
  0
LINE
  8
0
 10
1700
 20
1231.25
 11
1675
 21
1231.25
  0
LINE
  8
0
 10
1675
 20
1231.25
 11
1675
 21
1337.5
  0
LINE
  8
0
 10
1675
 20
1337.5
 11
1700
 21
1337.5
  0
LINE
  8
0
 10
1700
 20
1337.5
 11
1700
 21
1443.75
  0
LINE
  8
0
 10
1700
 20
1443.75
 11
1675
 21
1443.75
  0
LINE
  8
0
 10
1675
 20
1443.75
 11
1675
 21
1550
  0
LINE
  8
0
 10
1675
 20
1550
 11
1700
 21
1550
  0
LINE
  8
0
 10
1700
 20
1550
 11
1700
 21
1656.25
  0
LINE
  8
0
 10
1700
 20
1656.25
 11
1675
 21
1656.25
  0
LINE
  8
0
 10
1675
 20
1656.25
 11
1675
 21
1787.5
  0
LINE
  8
0
 10
1675
 20
1787.5
 11
1465.62
 21
1787.5
  0
LINE
  8
0
 10
1465.62
 20
1787.5
 11
1465.62
 21
1762.5
  0
LINE
  8
0
 10
1465.62
 20
1762.5
 11
1256.25
 21
1762.5
  0
LINE
  8
0
 10
1256.25
 20
1762.5
 11
1256.25
 21
1787.5
  0
LINE
  8
0
 10
1256.25
 20
1787.5
 11
1046.88
 21
1787.5
  0
LINE
  8
0
 10
1046.88
 20
1787.5
 11
1046.88
 21
1762.5
  0
LINE
  8
0
 10
1046.88
 20
1762.5
 11
837.5
 21
1762.5
  0
LINE
  8
0
 10
837.5
 20
1762.5
 11
837.5
 21
1787.5
  0
LINE
  8
0
 10
837.5
 20
1787.5
 11
628.125
 21
1787.5
  0
LINE
  8
0
 10
628.125
 20
1787.5
 11
628.125
 21
1762.5
  0
LINE
  8
0
 10
628.125
 20
1762.5
 11
418.75
 21
1762.5
  0
LINE
  8
0
 10
418.75
 20
1762.5
 11
418.75
 21
1787.5
  0
LINE
  8
0
 10
418.75
 20
1787.5
 11
209.375
 21
1787.5
  0
LINE
  8
0
 10
209.375
 20
1787.5
 11
209.375
 21
1762.5
  0
LINE
  8
0
 10
209.375
 20
1762.5
 11
0
 21
1762.5
  0
LINE
  8
0
 10
0
 20
1762.5
 11
0
 21
1656.25
  0
LINE
  8
0
 10
0
 20
1656.25
 11
-25
 21
1656.25
  0
LINE
  8
0
 10
-25
 20
1656.25
 11
-25
 21
1550
  0
LINE
  8
0
 10
-25
 20
1550
 11
0
 21
1550
  0
LINE
  8
0
 10
0
 20
1550
 11
0
 21
1443.75
  0
LINE
  8
0
 10
0
 20
1443.75
 11
-25
 21
1443.75
  0
LINE
  8
0
 10
-25
 20
1443.75
 11
-25
 21
1337.5
  0
LINE
  8
0
 10
-25
 20
1337.5
 11
0
 21
1337.5
  0
LINE
  8
0
 10
0
 20
1337.5
 11
0
 21
1231.25
  0
LINE
  8
0
 10
0
 20
1231.25
 11
-25
 21
1231.25
  0
LINE
  8
0
 10
-25
 20
1231.25
 11
-25
 21
1125
  0
LINE
  8
0
 10
-25
 20
1125
 11
0
 21
1125
  0
LINE
  8
0
 10
0
 20
1125
 11
0
 21
1018.75
  0
LINE
  8
0
 10
0
 20
1018.75
 11
-25
 21
1018.75
  0
LINE
  8
0
 10
-25
 20
1018.75
 11
-25
 21
887.5
  0
LINE
  8
0
 10
-25
 20
887.5
 11
0
 21
887.5
  0
LINE
  8
0
 10
0
 20
887.5
 11
0
 21
912.5
  0
LINE
  8
0
 10
700
 20
1337.5
 11
700
 21
1737.5
  0
LINE
  8
0
 10
700
 20
1737.5
 11
900
 21
1737.5
  0
LINE
  8
0
 10
900
 20
1737.5
 11
900
 21
1337.5
  0
LINE
  8
0
 10
900
 20
1337.5
 11
700
 21
1337.5
  0
LINE
  8
0
 10
950
 20
1337.5
 11
950
 21
1737.5
  0
LINE
  8
0
 10
950
 20
1737.5
 11
1150
 21
1737.5
  0
LINE
  8
0
 10
1150
 20
1737.5
 11
1150
 21
1337.5
  0
LINE
  8
0
 10
1150
 20
1337.5
 11
950
 21
1337.5
  0
LINE
  8
0
 10
1225
 20
1337.5
 11
1225
 21
1737.5
  0
LINE
  8
0
 10
1225
 20
1737.5
 11
1425
 21
1737.5
  0
LINE
  8
0
 10
1425
 20
1737.5
 11
1425
 21
1337.5
  0
LINE
  8
0
 10
1425
 20
1337.5
 11
1225
 21
1337.5
  0
LINE
  8
0
 10
25
 20
1337.5
 11
25
 21
1737.5
  0
LINE
  8
0
 10
25
 20
1737.5
 11
225
 21
1737.5
  0
LINE
  8
0
 10
225
 20
1737.5
 11
225
 21
1337.5
  0
LINE
  8
0
 10
225
 20
1337.5
 11
25
 21
1337.5
  0
LINE
  8
0
 10
250
 20
1337.5
 11
250
 21
1737.5
  0
LINE
  8
0
 10
250
 20
1737.5
 11
450
 21
1737.5
  0
LINE
  8
0
 10
450
 20
1737.5
 11
450
 21
1337.5
  0
LINE
  8
0
 10
450
 20
1337.5
 11
250
 21
1337.5
  0
LINE
  8
0
 10
675
 20
1337.5
 11
475
 21
1337.5
  0
LINE
  8
0
 10
475
 20
1337.5
 11
475
 21
1737.5
  0
LINE
  8
0
 10
475
 20
1737.5
 11
675
 21
1737.5
  0
LINE
  8
0
 10
675
 20
1737.5
 11
675
 21
1337.5
  0
LINE
  8
0
 10
1440
 20
1337.5
 11
1440
 21
1737.5
  0
LINE
  8
0
 10
1440
 20
1737.5
 11
1640
 21
1737.5
  0
LINE
  8
0
 10
1640
 20
1737.5
 11
1640
 21
1337.5
  0
LINE
  8
0
 10
1640
 20
1337.5
 11
1440
 21
1337.5
  0
LINE
  8
0
 10
25
 20
937.5
 11
25
 21
1212.5
  0
LINE
  8
0
 10
25
 20
1212.5
 11
800
 21
1212.5
  0
LINE
  8
0
 10
800
 20
1212.5
 11
800
 21
937.5
  0
LINE
  8
0
 10
800
 20
937.5
 11
25
 21
937.5
  0
LINE
  8
0
 10
850
 20
937.5
 11
850
 21
1187.5
  0
LINE
  8
0
 10
850
 20
1187.5
 11
1100
 21
1187.5
  0
LINE
  8
0
 10
1100
 20
1187.5
 11
1100
 21
937.5
  0
LINE
  8
0
 10
1100
 20
937.5
 11
850
 21
937.5
  0
LINE
  8
0
 10
1150
 20
937.5
 11
1150
 21
1175
  0
LINE
  8
0
 10
1150
 20
1175
 11
1406.25
 21
1175
  0
LINE
  8
0
 10
1406.25
 20
1175
 11
1406.25
 21
937.5
  0
LINE
  8
0
 10
1406.25
 20
937.5
 11
1150
 21
937.5
  0
LINE
  8
0
 10
1548.69
 20
1150.07
 11
1547.4
 21
1150.27
  0
LINE
  8
0
 10
1547.4
 20
1150.27
 11
1546.14
 21
1150.61
  0
LINE
  8
0
 10
1546.14
 20
1150.61
 11
1544.92
 21
1151.08
  0
LINE
  8
0
 10
1544.92
 20
1151.08
 11
1543.75
 21
1151.67
  0
LINE
  8
0
 10
1543.75
 20
1151.67
 11
1542.65
 21
1152.39
  0
LINE
  8
0
 10
1542.65
 20
1152.39
 11
1541.64
 21
1153.21
  0
LINE
  8
0
 10
1541.64
 20
1153.21
 11
1540.71
 21
1154.14
  0
LINE
  8
0
 10
1540.71
 20
1154.14
 11
1539.89
 21
1155.15
  0
LINE
  8
0
 10
1539.89
 20
1155.15
 11
1539.17
 21
1156.25
  0
LINE
  8
0
 10
1539.17
 20
1156.25
 11
1538.58
 21
1157.42
  0
LINE
  8
0
 10
1538.58
 20
1157.42
 11
1538.11
 21
1158.64
  0
LINE
  8
0
 10
1538.11
 20
1158.64
 11
1537.77
 21
1159.9
  0
LINE
  8
0
 10
1537.77
 20
1159.9
 11
1537.57
 21
1161.19
  0
LINE
  8
0
 10
1537.57
 20
1161.19
 11
1537.5
 21
1162.5
  0
LINE
  8
0
 10
1537.5
 20
1162.5
 11
1537.57
 21
1163.81
  0
LINE
  8
0
 10
1537.57
 20
1163.81
 11
1537.77
 21
1165.1
  0
LINE
  8
0
 10
1537.77
 20
1165.1
 11
1538.11
 21
1166.36
  0
LINE
  8
0
 10
1538.11
 20
1166.36
 11
1538.58
 21
1167.58
  0
LINE
  8
0
 10
1538.58
 20
1167.58
 11
1539.17
 21
1168.75
  0
LINE
  8
0
 10
1539.17
 20
1168.75
 11
1539.89
 21
1169.85
  0
LINE
  8
0
 10
1539.89
 20
1169.85
 11
1540.71
 21
1170.86
  0
LINE
  8
0
 10
1540.71
 20
1170.86
 11
1541.64
 21
1171.79
  0
LINE
  8
0
 10
1541.64
 20
1171.79
 11
1542.65
 21
1172.61
  0
LINE
  8
0
 10
1542.65
 20
1172.61
 11
1543.75
 21
1173.33
  0
LINE
  8
0
 10
1543.75
 20
1173.33
 11
1544.92
 21
1173.92
  0
LINE
  8
0
 10
1544.92
 20
1173.92
 11
1546.14
 21
1174.39
  0
LINE
  8
0
 10
1546.14
 20
1174.39
 11
1547.4
 21
1174.73
  0
LINE
  8
0
 10
1547.4
 20
1174.73
 11
1548.69
 21
1174.93
  0
LINE
  8
0
 10
1548.69
 20
1174.93
 11
1550
 21
1175
  0
LINE
  8
0
 10
1550
 20
1175
 11
1551.31
 21
1174.93
  0
LINE
  8
0
 10
1551.31
 20
1174.93
 11
1552.6
 21
1174.73
  0
LINE
  8
0
 10
1552.6
 20
1174.73
 11
1553.86
 21
1174.39
  0
LINE
  8
0
 10
1553.86
 20
1174.39
 11
1555.08
 21
1173.92
  0
LINE
  8
0
 10
1555.08
 20
1173.92
 11
1556.25
 21
1173.33
  0
LINE
  8
0
 10
1556.25
 20
1173.33
 11
1557.35
 21
1172.61
  0
LINE
  8
0
 10
1557.35
 20
1172.61
 11
1558.36
 21
1171.79
  0
LINE
  8
0
 10
1558.36
 20
1171.79
 11
1559.29
 21
1170.86
  0
LINE
  8
0
 10
1559.29
 20
1170.86
 11
1560.11
 21
1169.85
  0
LINE
  8
0
 10
1560.11
 20
1169.85
 11
1560.83
 21
1168.75
  0
LINE
  8
0
 10
1560.83
 20
1168.75
 11
1561.42
 21
1167.58
  0
LINE
  8
0
 10
1561.42
 20
1167.58
 11
1561.89
 21
1166.36
  0
LINE
  8
0
 10
1561.89
 20
1166.36
 11
1562.23
 21
1165.1
  0
LINE
  8
0
 10
1562.23
 20
1165.1
 11
1562.43
 21
1163.81
  0
LINE
  8
0
 10
1562.43
 20
1163.81
 11
1562.5
 21
1162.5
  0
LINE
  8
0
 10
1562.5
 20
1162.5
 11
1562.43
 21
1161.19
  0
LINE
  8
0
 10
1562.43
 20
1161.19
 11
1562.23
 21
1159.9
  0
LINE
  8
0
 10
1562.23
 20
1159.9
 11
1561.89
 21
1158.64
  0
LINE
  8
0
 10
1561.89
 20
1158.64
 11
1561.42
 21
1157.42
  0
LINE
  8
0
 10
1561.42
 20
1157.42
 11
1560.83
 21
1156.25
  0
LINE
  8
0
 10
1560.83
 20
1156.25
 11
1560.11
 21
1155.15
  0
LINE
  8
0
 10
1560.11
 20
1155.15
 11
1559.29
 21
1154.14
  0
LINE
  8
0
 10
1559.29
 20
1154.14
 11
1558.36
 21
1153.21
  0
LINE
  8
0
 10
1558.36
 20
1153.21
 11
1557.35
 21
1152.39
  0
LINE
  8
0
 10
1557.35
 20
1152.39
 11
1556.25
 21
1151.67
  0
LINE
  8
0
 10
1556.25
 20
1151.67
 11
1555.08
 21
1151.08
  0
LINE
  8
0
 10
1555.08
 20
1151.08
 11
1553.86
 21
1150.61
  0
LINE
  8
0
 10
1553.86
 20
1150.61
 11
1552.6
 21
1150.27
  0
LINE
  8
0
 10
1552.6
 20
1150.27
 11
1551.31
 21
1150.07
  0
LINE
  8
0
 10
1551.31
 20
1150.07
 11
1550
 21
1150
  0
LINE
  8
0
 10
1550
 20
1150
 11
1548.69
 21
1150.07
  0
LINE
  8
0
 10
1548.69
 20
1050.07
 11
1547.4
 21
1050.27
  0
LINE
  8
0
 10
1547.4
 20
1050.27
 11
1546.14
 21
1050.61
  0
LINE
  8
0
 10
1546.14
 20
1050.61
 11
1544.92
 21
1051.08
  0
LINE
  8
0
 10
1544.92
 20
1051.08
 11
1543.75
 21
1051.67
  0
LINE
  8
0
 10
1543.75
 20
1051.67
 11
1542.65
 21
1052.39
  0
LINE
  8
0
 10
1542.65
 20
1052.39
 11
1541.64
 21
1053.21
  0
LINE
  8
0
 10
1541.64
 20
1053.21
 11
1540.71
 21
1054.14
  0
LINE
  8
0
 10
1540.71
 20
1054.14
 11
1539.89
 21
1055.15
  0
LINE
  8
0
 10
1539.89
 20
1055.15
 11
1539.17
 21
1056.25
  0
LINE
  8
0
 10
1539.17
 20
1056.25
 11
1538.58
 21
1057.42
  0
LINE
  8
0
 10
1538.58
 20
1057.42
 11
1538.11
 21
1058.64
  0
LINE
  8
0
 10
1538.11
 20
1058.64
 11
1537.77
 21
1059.9
  0
LINE
  8
0
 10
1537.77
 20
1059.9
 11
1537.57
 21
1061.19
  0
LINE
  8
0
 10
1537.57
 20
1061.19
 11
1537.5
 21
1062.5
  0
LINE
  8
0
 10
1537.5
 20
1062.5
 11
1537.57
 21
1063.81
  0
LINE
  8
0
 10
1537.57
 20
1063.81
 11
1537.77
 21
1065.1
  0
LINE
  8
0
 10
1537.77
 20
1065.1
 11
1538.11
 21
1066.36
  0
LINE
  8
0
 10
1538.11
 20
1066.36
 11
1538.58
 21
1067.58
  0
LINE
  8
0
 10
1538.58
 20
1067.58
 11
1539.17
 21
1068.75
  0
LINE
  8
0
 10
1539.17
 20
1068.75
 11
1539.89
 21
1069.85
  0
LINE
  8
0
 10
1539.89
 20
1069.85
 11
1540.71
 21
1070.86
  0
LINE
  8
0
 10
1540.71
 20
1070.86
 11
1541.64
 21
1071.79
  0
LINE
  8
0
 10
1541.64
 20
1071.79
 11
1542.65
 21
1072.61
  0
LINE
  8
0
 10
1542.65
 20
1072.61
 11
1543.75
 21
1073.33
  0
LINE
  8
0
 10
1543.75
 20
1073.33
 11
1544.92
 21
1073.92
  0
LINE
  8
0
 10
1544.92
 20
1073.92
 11
1546.14
 21
1074.39
  0
LINE
  8
0
 10
1546.14
 20
1074.39
 11
1547.4
 21
1074.73
  0
LINE
  8
0
 10
1547.4
 20
1074.73
 11
1548.69
 21
1074.93
  0
LINE
  8
0
 10
1548.69
 20
1074.93
 11
1550
 21
1075
  0
LINE
  8
0
 10
1550
 20
1075
 11
1551.31
 21
1074.93
  0
LINE
  8
0
 10
1551.31
 20
1074.93
 11
1552.6
 21
1074.73
  0
LINE
  8
0
 10
1552.6
 20
1074.73
 11
1553.86
 21
1074.39
  0
LINE
  8
0
 10
1553.86
 20
1074.39
 11
1555.08
 21
1073.92
  0
LINE
  8
0
 10
1555.08
 20
1073.92
 11
1556.25
 21
1073.33
  0
LINE
  8
0
 10
1556.25
 20
1073.33
 11
1557.35
 21
1072.61
  0
LINE
  8
0
 10
1557.35
 20
1072.61
 11
1558.36
 21
1071.79
  0
LINE
  8
0
 10
1558.36
 20
1071.79
 11
1559.29
 21
1070.86
  0
LINE
  8
0
 10
1559.29
 20
1070.86
 11
1560.11
 21
1069.85
  0
LINE
  8
0
 10
1560.11
 20
1069.85
 11
1560.83
 21
1068.75
  0
LINE
  8
0
 10
1560.83
 20
1068.75
 11
1561.42
 21
1067.58
  0
LINE
  8
0
 10
1561.42
 20
1067.58
 11
1561.89
 21
1066.36
  0
LINE
  8
0
 10
1561.89
 20
1066.36
 11
1562.23
 21
1065.1
  0
LINE
  8
0
 10
1562.23
 20
1065.1
 11
1562.43
 21
1063.81
  0
LINE
  8
0
 10
1562.43
 20
1063.81
 11
1562.5
 21
1062.5
  0
LINE
  8
0
 10
1562.5
 20
1062.5
 11
1562.43
 21
1061.19
  0
LINE
  8
0
 10
1562.43
 20
1061.19
 11
1562.23
 21
1059.9
  0
LINE
  8
0
 10
1562.23
 20
1059.9
 11
1561.89
 21
1058.64
  0
LINE
  8
0
 10
1561.89
 20
1058.64
 11
1561.42
 21
1057.42
  0
LINE
  8
0
 10
1561.42
 20
1057.42
 11
1560.83
 21
1056.25
  0
LINE
  8
0
 10
1560.83
 20
1056.25
 11
1560.11
 21
1055.15
  0
LINE
  8
0
 10
1560.11
 20
1055.15
 11
1559.29
 21
1054.14
  0
LINE
  8
0
 10
1559.29
 20
1054.14
 11
1558.36
 21
1053.21
  0
LINE
  8
0
 10
1558.36
 20
1053.21
 11
1557.35
 21
1052.39
  0
LINE
  8
0
 10
1557.35
 20
1052.39
 11
1556.25
 21
1051.67
  0
LINE
  8
0
 10
1556.25
 20
1051.67
 11
1555.08
 21
1051.08
  0
LINE
  8
0
 10
1555.08
 20
1051.08
 11
1553.86
 21
1050.61
  0
LINE
  8
0
 10
1553.86
 20
1050.61
 11
1552.6
 21
1050.27
  0
LINE
  8
0
 10
1552.6
 20
1050.27
 11
1551.31
 21
1050.07
  0
LINE
  8
0
 10
1551.31
 20
1050.07
 11
1550
 21
1050
  0
LINE
  8
0
 10
1550
 20
1050
 11
1548.69
 21
1050.07
  0
LINE
  8
0
 10
1548.69
 20
950.068
 11
1547.4
 21
950.273
  0
LINE
  8
0
 10
1547.4
 20
950.273
 11
1546.14
 21
950.612
  0
LINE
  8
0
 10
1546.14
 20
950.612
 11
1544.92
 21
951.081
  0
LINE
  8
0
 10
1544.92
 20
951.081
 11
1543.75
 21
951.675
  0
LINE
  8
0
 10
1543.75
 20
951.675
 11
1542.65
 21
952.387
  0
LINE
  8
0
 10
1542.65
 20
952.387
 11
1541.64
 21
953.211
  0
LINE
  8
0
 10
1541.64
 20
953.211
 11
1540.71
 21
954.136
  0
LINE
  8
0
 10
1540.71
 20
954.136
 11
1539.89
 21
955.153
  0
LINE
  8
0
 10
1539.89
 20
955.153
 11
1539.17
 21
956.25
  0
LINE
  8
0
 10
1539.17
 20
956.25
 11
1538.58
 21
957.416
  0
LINE
  8
0
 10
1538.58
 20
957.416
 11
1538.11
 21
958.637
  0
LINE
  8
0
 10
1538.11
 20
958.637
 11
1537.77
 21
959.901
  0
LINE
  8
0
 10
1537.77
 20
959.901
 11
1537.57
 21
961.193
  0
LINE
  8
0
 10
1537.57
 20
961.193
 11
1537.5
 21
962.5
  0
LINE
  8
0
 10
1537.5
 20
962.5
 11
1537.57
 21
963.807
  0
LINE
  8
0
 10
1537.57
 20
963.807
 11
1537.77
 21
965.099
  0
LINE
  8
0
 10
1537.77
 20
965.099
 11
1538.11
 21
966.363
  0
LINE
  8
0
 10
1538.11
 20
966.363
 11
1538.58
 21
967.584
  0
LINE
  8
0
 10
1538.58
 20
967.584
 11
1539.17
 21
968.75
  0
LINE
  8
0
 10
1539.17
 20
968.75
 11
1539.89
 21
969.847
  0
LINE
  8
0
 10
1539.89
 20
969.847
 11
1540.71
 21
970.864
  0
LINE
  8
0
 10
1540.71
 20
970.864
 11
1541.64
 21
971.789
  0
LINE
  8
0
 10
1541.64
 20
971.789
 11
1542.65
 21
972.613
  0
LINE
  8
0
 10
1542.65
 20
972.613
 11
1543.75
 21
973.325
  0
LINE
  8
0
 10
1543.75
 20
973.325
 11
1544.92
 21
973.919
  0
LINE
  8
0
 10
1544.92
 20
973.919
 11
1546.14
 21
974.388
  0
LINE
  8
0
 10
1546.14
 20
974.388
 11
1547.4
 21
974.727
  0
LINE
  8
0
 10
1547.4
 20
974.727
 11
1548.69
 21
974.932
  0
LINE
  8
0
 10
1548.69
 20
974.932
 11
1550
 21
975
  0
LINE
  8
0
 10
1550
 20
975
 11
1551.31
 21
974.932
  0
LINE
  8
0
 10
1551.31
 20
974.932
 11
1552.6
 21
974.727
  0
LINE
  8
0
 10
1552.6
 20
974.727
 11
1553.86
 21
974.388
  0
LINE
  8
0
 10
1553.86
 20
974.388
 11
1555.08
 21
973.919
  0
LINE
  8
0
 10
1555.08
 20
973.919
 11
1556.25
 21
973.325
  0
LINE
  8
0
 10
1556.25
 20
973.325
 11
1557.35
 21
972.613
  0
LINE
  8
0
 10
1557.35
 20
972.613
 11
1558.36
 21
971.789
  0
LINE
  8
0
 10
1558.36
 20
971.789
 11
1559.29
 21
970.864
  0
LINE
  8
0
 10
1559.29
 20
970.864
 11
1560.11
 21
969.847
  0
LINE
  8
0
 10
1560.11
 20
969.847
 11
1560.83
 21
968.75
  0
LINE
  8
0
 10
1560.83
 20
968.75
 11
1561.42
 21
967.584
  0
LINE
  8
0
 10
1561.42
 20
967.584
 11
1561.89
 21
966.363
  0
LINE
  8
0
 10
1561.89
 20
966.363
 11
1562.23
 21
965.099
  0
LINE
  8
0
 10
1562.23
 20
965.099
 11
1562.43
 21
963.807
  0
LINE
  8
0
 10
1562.43
 20
963.807
 11
1562.5
 21
962.5
  0
LINE
  8
0
 10
1562.5
 20
962.5
 11
1562.43
 21
961.193
  0
LINE
  8
0
 10
1562.43
 20
961.193
 11
1562.23
 21
959.901
  0
LINE
  8
0
 10
1562.23
 20
959.901
 11
1561.89
 21
958.637
  0
LINE
  8
0
 10
1561.89
 20
958.637
 11
1561.42
 21
957.416
  0
LINE
  8
0
 10
1561.42
 20
957.416
 11
1560.83
 21
956.25
  0
LINE
  8
0
 10
1560.83
 20
956.25
 11
1560.11
 21
955.153
  0
LINE
  8
0
 10
1560.11
 20
955.153
 11
1559.29
 21
954.136
  0
LINE
  8
0
 10
1559.29
 20
954.136
 11
1558.36
 21
953.211
  0
LINE
  8
0
 10
1558.36
 20
953.211
 11
1557.35
 21
952.387
  0
LINE
  8
0
 10
1557.35
 20
952.387
 11
1556.25
 21
951.675
  0
LINE
  8
0
 10
1556.25
 20
951.675
 11
1555.08
 21
951.081
  0
LINE
  8
0
 10
1555.08
 20
951.081
 11
1553.86
 21
950.612
  0
LINE
  8
0
 10
1553.86
 20
950.612
 11
1552.6
 21
950.273
  0
LINE
  8
0
 10
1552.6
 20
950.273
 11
1551.31
 21
950.068
  0
LINE
  8
0
 10
1551.31
 20
950.068
 11
1550
 21
950
  0
LINE
  8
0
 10
1550
 20
950
 11
1548.69
 21
950.068
  0
LINE
  8
0
 10
0
 20
0
 11
209.375
 21
0
  0
LINE
  8
0
 10
209.375
 20
0
 11
209.375
 21
-25
  0
LINE
  8
0
 10
209.375
 20
-25
 11
418.75
 21
-25
  0
LINE
  8
0
 10
418.75
 20
-25
 11
418.75
 21
0
  0
LINE
  8
0
 10
418.75
 20
0
 11
628.125
 21
0
  0
LINE
  8
0
 10
628.125
 20
0
 11
628.125
 21
-25
  0
LINE
  8
0
 10
628.125
 20
-25
 11
837.5
 21
-25
  0
LINE
  8
0
 10
837.5
 20
-25
 11
837.5
 21
0
  0
LINE
  8
0
 10
837.5
 20
0
 11
1046.88
 21
0
  0
LINE
  8
0
 10
1046.88
 20
0
 11
1046.88
 21
-25
  0
LINE
  8
0
 10
1046.88
 20
-25
 11
1256.25
 21
-25
  0
LINE
  8
0
 10
1256.25
 20
-25
 11
1256.25
 21
0
  0
LINE
  8
0
 10
1256.25
 20
0
 11
1465.62
 21
0
  0
LINE
  8
0
 10
1465.62
 20
0
 11
1465.62
 21
-25
  0
LINE
  8
0
 10
1465.62
 20
-25
 11
1700
 21
-25
  0
LINE
  8
0
 10
1700
 20
-25
 11
1700
 21
106.25
  0
LINE
  8
0
 10
1700
 20
106.25
 11
1675
 21
106.25
  0
LINE
  8
0
 10
1675
 20
106.25
 11
1675
 21
212.5
  0
LINE
  8
0
 10
1675
 20
212.5
 11
1700
 21
212.5
  0
LINE
  8
0
 10
1700
 20
212.5
 11
1700
 21
318.75
  0
LINE
  8
0
 10
1700
 20
318.75
 11
1675
 21
318.75
  0
LINE
  8
0
 10
1675
 20
318.75
 11
1675
 21
425
  0
LINE
  8
0
 10
1675
 20
425
 11
1700
 21
425
  0
LINE
  8
0
 10
1700
 20
425
 11
1700
 21
531.25
  0
LINE
  8
0
 10
1700
 20
531.25
 11
1675
 21
531.25
  0
LINE
  8
0
 10
1675
 20
531.25
 11
1675
 21
637.5
  0
LINE
  8
0
 10
1675
 20
637.5
 11
1700
 21
637.5
  0
LINE
  8
0
 10
1700
 20
637.5
 11
1700
 21
743.75
  0
LINE
  8
0
 10
1700
 20
743.75
 11
1675
 21
743.75
  0
LINE
  8
0
 10
1675
 20
743.75
 11
1675
 21
850
  0
LINE
  8
0
 10
1675
 20
850
 11
1465.62
 21
850
  0
LINE
  8
0
 10
1465.62
 20
850
 11
1465.62
 21
875
  0
LINE
  8
0
 10
1465.62
 20
875
 11
1256.25
 21
875
  0
LINE
  8
0
 10
1256.25
 20
875
 11
1256.25
 21
850
  0
LINE
  8
0
 10
1256.25
 20
850
 11
1046.88
 21
850
  0
LINE
  8
0
 10
1046.88
 20
850
 11
1046.88
 21
875
  0
LINE
  8
0
 10
1046.88
 20
875
 11
837.5
 21
875
  0
LINE
  8
0
 10
837.5
 20
875
 11
837.5
 21
850
  0
LINE
  8
0
 10
837.5
 20
850
 11
628.125
 21
850
  0
LINE
  8
0
 10
628.125
 20
850
 11
628.125
 21
875
  0
LINE
  8
0
 10
628.125
 20
875
 11
418.75
 21
875
  0
LINE
  8
0
 10
418.75
 20
875
 11
418.75
 21
850
  0
LINE
  8
0
 10
418.75
 20
850
 11
209.375
 21
850
  0
LINE
  8
0
 10
209.375
 20
850
 11
209.375
 21
875
  0
LINE
  8
0
 10
209.375
 20
875
 11
-25
 21
875
  0
LINE
  8
0
 10
-25
 20
875
 11
-25
 21
850
  0
LINE
  8
0
 10
-25
 20
850
 11
0
 21
850
  0
LINE
  8
0
 10
0
 20
850
 11
0
 21
743.75
  0
LINE
  8
0
 10
0
 20
743.75
 11
-25
 21
743.75
  0
LINE
  8
0
 10
-25
 20
743.75
 11
-25
 21
637.5
  0
LINE
  8
0
 10
-25
 20
637.5
 11
0
 21
637.5
  0
LINE
  8
0
 10
0
 20
637.5
 11
0
 21
531.25
  0
LINE
  8
0
 10
0
 20
531.25
 11
-25
 21
531.25
  0
LINE
  8
0
 10
-25
 20
531.25
 11
-25
 21
425
  0
LINE
  8
0
 10
-25
 20
425
 11
0
 21
425
  0
LINE
  8
0
 10
0
 20
425
 11
0
 21
318.75
  0
LINE
  8
0
 10
0
 20
318.75
 11
-25
 21
318.75
  0
LINE
  8
0
 10
-25
 20
318.75
 11
-25
 21
212.5
  0
LINE
  8
0
 10
-25
 20
212.5
 11
0
 21
212.5
  0
LINE
  8
0
 10
0
 20
212.5
 11
0
 21
106.25
  0
LINE
  8
0
 10
0
 20
106.25
 11
-25
 21
106.25
  0
LINE
  8
0
 10
-25
 20
106.25
 11
-25
 21
-25
  0
LINE
  8
0
 10
-25
 20
-25
 11
0
 21
-25
  0
LINE
  8
0
 10
0
 20
-25
 11
0
 21
0
  0
ENDSEC
  0
SECTION
  2
OBJECTS
  0
DICTIONARY
  0
ENDSEC
  0
EOF
