  0
SECTION
  2
BLOCKS
  0
ENDSEC
  0
SECTION
  2
ENTITIES
  0
LINE
  8
0
 10
0.5
 20
0
 11
0.75
 21
0
  0
LINE
  8
0
 10
0.75
 20
0
 11
0.75
 21
-0.125
  0
LINE
  8
0
 10
0.75
 20
-0.125
 11
1
 21
-0.125
  0
LINE
  8
0
 10
1
 20
-0.125
 11
1
 21
0
  0
LINE
  8
0
 10
1
 20
0
 11
1.25
 21
0
  0
LINE
  8
0
 10
1.25
 20
0
 11
1.25
 21
-0.125
  0
LINE
  8
0
 10
1.25
 20
-0.125
 11
1.5
 21
-0.125
  0
LINE
  8
0
 10
1.5
 20
-0.125
 11
1.5
 21
0
  0
LINE
  8
0
 10
1.5
 20
0
 11
1.75
 21
0
  0
LINE
  8
0
 10
1.75
 20
0
 11
1.75
 21
-0.125
  0
LINE
  8
0
 10
1.75
 20
-0.125
 11
2
 21
-0.125
  0
LINE
  8
0
 10
2
 20
-0.125
 11
2
 21
1.0625
  0
LINE
  8
0
 10
2
 20
1.0625
 11
2.125
 21
1.0625
  0
LINE
  8
0
 10
2.125
 20
1.0625
 11
2.125
 21
2.125
  0
LINE
  8
0
 10
2.125
 20
2.125
 11
2
 21
2.125
  0
LINE
  8
0
 10
2
 20
2.125
 11
2
 21
3.1875
  0
LINE
  8
0
 10
2
 20
3.1875
 11
2.125
 21
3.1875
  0
LINE
  8
0
 10
2.125
 20
3.1875
 11
2.125
 21
4.25
  0
LINE
  8
0
 10
2.125
 20
4.25
 11
2
 21
4.25
  0
LINE
  8
0
 10
2
 20
4.25
 11
2
 21
5.3125
  0
LINE
  8
0
 10
2
 20
5.3125
 11
2.125
 21
5.3125
  0
LINE
  8
0
 10
2.125
 20
5.3125
 11
2.125
 21
6.375
  0
LINE
  8
0
 10
2.125
 20
6.375
 11
2
 21
6.375
  0
LINE
  8
0
 10
2
 20
6.375
 11
2
 21
7.4375
  0
LINE
  8
0
 10
2
 20
7.4375
 11
2.125
 21
7.4375
  0
LINE
  8
0
 10
2.125
 20
7.4375
 11
2.125
 21
8.5
  0
LINE
  8
0
 10
2.125
 20
8.5
 11
2
 21
8.5
  0
LINE
  8
0
 10
2
 20
8.5
 11
2
 21
8.625
  0
LINE
  8
0
 10
2
 20
8.625
 11
1.75
 21
8.625
  0
LINE
  8
0
 10
1.75
 20
8.625
 11
1.75
 21
8.5
  0
LINE
  8
0
 10
1.75
 20
8.5
 11
1.5
 21
8.5
  0
LINE
  8
0
 10
1.5
 20
8.5
 11
1.5
 21
8.625
  0
LINE
  8
0
 10
1.5
 20
8.625
 11
1.25
 21
8.625
  0
LINE
  8
0
 10
1.25
 20
8.625
 11
1.25
 21
8.5
  0
LINE
  8
0
 10
1.25
 20
8.5
 11
1
 21
8.5
  0
LINE
  8
0
 10
1
 20
8.5
 11
1
 21
8.625
  0
LINE
  8
0
 10
1
 20
8.625
 11
0.75
 21
8.625
  0
LINE
  8
0
 10
0.75
 20
8.625
 11
0.75
 21
8.5
  0
LINE
  8
0
 10
0.75
 20
8.5
 11
0.5
 21
8.5
  0
LINE
  8
0
 10
0.5
 20
8.5
 11
0.5
 21
8.625
  0
LINE
  8
0
 10
0.5
 20
8.625
 11
0.25
 21
8.625
  0
LINE
  8
0
 10
0.25
 20
8.625
 11
0.25
 21
8.5
  0
LINE
  8
0
 10
0.25
 20
8.5
 11
-0.125
 21
8.5
  0
LINE
  8
0
 10
-0.125
 20
8.5
 11
-0.125
 21
7.4375
  0
LINE
  8
0
 10
-0.125
 20
7.4375
 11
0
 21
7.4375
  0
LINE
  8
0
 10
0
 20
7.4375
 11
0
 21
6.375
  0
LINE
  8
0
 10
0
 20
6.375
 11
-0.125
 21
6.375
  0
LINE
  8
0
 10
-0.125
 20
6.375
 11
-0.125
 21
5.3125
  0
LINE
  8
0
 10
-0.125
 20
5.3125
 11
0
 21
5.3125
  0
LINE
  8
0
 10
0
 20
5.3125
 11
0
 21
4.25
  0
LINE
  8
0
 10
0
 20
4.25
 11
-0.125
 21
4.25
  0
LINE
  8
0
 10
-0.125
 20
4.25
 11
-0.125
 21
3.1875
  0
LINE
  8
0
 10
-0.125
 20
3.1875
 11
0
 21
3.1875
  0
LINE
  8
0
 10
0
 20
3.1875
 11
0
 21
2.125
  0
LINE
  8
0
 10
0
 20
2.125
 11
-0.125
 21
2.125
  0
LINE
  8
0
 10
-0.125
 20
2.125
 11
-0.125
 21
1.0625
  0
LINE
  8
0
 10
-0.125
 20
1.0625
 11
0
 21
1.0625
  0
LINE
  8
0
 10
0
 20
1.0625
 11
0
 21
0
  0
LINE
  8
0
 10
0
 20
0
 11
0.25
 21
0
  0
LINE
  8
0
 10
0.25
 20
0
 11
0.25
 21
-0.125
  0
LINE
  8
0
 10
0.25
 20
-0.125
 11
0.5
 21
-0.125
  0
LINE
  8
0
 10
0.5
 20
-0.125
 11
0.5
 21
0
  0
ENDSEC
  0
SECTION
  2
OBJECTS
  0
DICTIONARY
  0
ENDSEC
  0
EOF
