  0
SECTION
  2
BLOCKS
  0
ENDSEC
  0
SECTION
  2
ENTITIES
  0
LINE
  8
0
 10
-0.0625
 20
8.75
 11
-0.1875
 21
8.75
  0
LINE
  8
0
 10
-0.1875
 20
8.75
 11
-0.1875
 21
8.625
  0
LINE
  8
0
 10
-0.1875
 20
8.625
 11
-0.0625
 21
8.625
  0
LINE
  8
0
 10
-0.0625
 20
8.625
 11
-0.0625
 21
8.75
  0
LINE
  8
0
 10
16.875
 20
-0.0625
 11
16.75
 21
-0.0625
  0
LINE
  8
0
 10
16.75
 20
-0.0625
 11
16.75
 21
0
  0
LINE
  8
0
 10
16.75
 20
0
 11
16.875
 21
0
  0
LINE
  8
0
 10
16.875
 20
0
 11
16.875
 21
1.0625
  0
LINE
  8
0
 10
16.875
 20
1.0625
 11
16.75
 21
1.0625
  0
LINE
  8
0
 10
16.75
 20
1.0625
 11
16.75
 21
2.125
  0
LINE
  8
0
 10
16.75
 20
2.125
 11
16.875
 21
2.125
  0
LINE
  8
0
 10
16.875
 20
2.125
 11
16.875
 21
3.1875
  0
LINE
  8
0
 10
16.875
 20
3.1875
 11
16.75
 21
3.1875
  0
LINE
  8
0
 10
16.75
 20
3.1875
 11
16.75
 21
4.25
  0
LINE
  8
0
 10
16.75
 20
4.25
 11
16.875
 21
4.25
  0
LINE
  8
0
 10
16.875
 20
4.25
 11
16.875
 21
5.3125
  0
LINE
  8
0
 10
16.875
 20
5.3125
 11
16.75
 21
5.3125
  0
LINE
  8
0
 10
16.75
 20
5.3125
 11
16.75
 21
6.375
  0
LINE
  8
0
 10
16.75
 20
6.375
 11
16.875
 21
6.375
  0
LINE
  8
0
 10
16.875
 20
6.375
 11
16.875
 21
7.4375
  0
LINE
  8
0
 10
16.875
 20
7.4375
 11
16.75
 21
7.4375
  0
LINE
  8
0
 10
16.75
 20
7.4375
 11
16.75
 21
8.5
  0
LINE
  8
0
 10
16.75
 20
8.5
 11
14.6562
 21
8.5
  0
LINE
  8
0
 10
14.6562
 20
8.5
 11
14.6562
 21
8.625
  0
LINE
  8
0
 10
14.6562
 20
8.625
 11
12.5625
 21
8.625
  0
LINE
  8
0
 10
12.5625
 20
8.625
 11
12.5625
 21
8.5
  0
LINE
  8
0
 10
12.5625
 20
8.5
 11
10.4688
 21
8.5
  0
LINE
  8
0
 10
10.4688
 20
8.5
 11
10.4688
 21
8.625
  0
LINE
  8
0
 10
10.4688
 20
8.625
 11
8.375
 21
8.625
  0
LINE
  8
0
 10
8.375
 20
8.625
 11
8.375
 21
8.5
  0
LINE
  8
0
 10
8.375
 20
8.5
 11
6.28125
 21
8.5
  0
LINE
  8
0
 10
6.28125
 20
8.5
 11
6.28125
 21
8.625
  0
LINE
  8
0
 10
6.28125
 20
8.625
 11
4.1875
 21
8.625
  0
LINE
  8
0
 10
4.1875
 20
8.625
 11
4.1875
 21
8.5
  0
LINE
  8
0
 10
4.1875
 20
8.5
 11
2.09375
 21
8.5
  0
LINE
  8
0
 10
2.09375
 20
8.5
 11
2.09375
 21
8.625
  0
LINE
  8
0
 10
2.09375
 20
8.625
 11
0
 21
8.625
  0
LINE
  8
0
 10
0
 20
8.625
 11
0
 21
7.4375
  0
LINE
  8
0
 10
0
 20
7.4375
 11
-0.125
 21
7.4375
  0
LINE
  8
0
 10
-0.125
 20
7.4375
 11
-0.125
 21
6.375
  0
LINE
  8
0
 10
-0.125
 20
6.375
 11
0
 21
6.375
  0
LINE
  8
0
 10
0
 20
6.375
 11
0
 21
5.3125
  0
LINE
  8
0
 10
0
 20
5.3125
 11
-0.125
 21
5.3125
  0
LINE
  8
0
 10
-0.125
 20
5.3125
 11
-0.125
 21
4.25
  0
LINE
  8
0
 10
-0.125
 20
4.25
 11
0
 21
4.25
  0
LINE
  8
0
 10
0
 20
4.25
 11
0
 21
3.1875
  0
LINE
  8
0
 10
0
 20
3.1875
 11
-0.125
 21
3.1875
  0
LINE
  8
0
 10
-0.125
 20
3.1875
 11
-0.125
 21
2.125
  0
LINE
  8
0
 10
-0.125
 20
2.125
 11
0
 21
2.125
  0
LINE
  8
0
 10
0
 20
2.125
 11
0
 21
1.0625
  0
LINE
  8
0
 10
0
 20
1.0625
 11
-0.125
 21
1.0625
  0
LINE
  8
0
 10
-0.125
 20
1.0625
 11
-0.125
 21
0
  0
LINE
  8
0
 10
-0.125
 20
0
 11
-0.1875
 21
0
  0
LINE
  8
0
 10
-0.1875
 20
0
 11
-0.1875
 21
-0.125
  0
LINE
  8
0
 10
-0.1875
 20
-0.125
 11
-0.0625
 21
-0.125
  0
LINE
  8
0
 10
-0.0625
 20
-0.125
 11
-0.0625
 21
0
  0
LINE
  8
0
 10
-0.0625
 20
0
 11
2.09375
 21
0
  0
LINE
  8
0
 10
2.09375
 20
0
 11
2.09375
 21
-0.125
  0
LINE
  8
0
 10
2.09375
 20
-0.125
 11
4.1875
 21
-0.125
  0
LINE
  8
0
 10
4.1875
 20
-0.125
 11
4.1875
 21
0
  0
LINE
  8
0
 10
4.1875
 20
0
 11
6.28125
 21
0
  0
LINE
  8
0
 10
6.28125
 20
0
 11
6.28125
 21
-0.125
  0
LINE
  8
0
 10
6.28125
 20
-0.125
 11
8.375
 21
-0.125
  0
LINE
  8
0
 10
8.375
 20
-0.125
 11
8.375
 21
0
  0
LINE
  8
0
 10
8.375
 20
0
 11
10.4688
 21
0
  0
LINE
  8
0
 10
10.4688
 20
0
 11
10.4688
 21
-0.125
  0
LINE
  8
0
 10
10.4688
 20
-0.125
 11
12.5625
 21
-0.125
  0
LINE
  8
0
 10
12.5625
 20
-0.125
 11
12.5625
 21
0
  0
LINE
  8
0
 10
12.5625
 20
0
 11
14.6562
 21
0
  0
LINE
  8
0
 10
14.6562
 20
0
 11
14.6562
 21
-0.125
  0
LINE
  8
0
 10
14.6562
 20
-0.125
 11
16.75
 21
-0.125
  0
LINE
  8
0
 10
16.75
 20
-0.125
 11
16.75
 21
-0.1875
  0
LINE
  8
0
 10
16.75
 20
-0.1875
 11
16.875
 21
-0.1875
  0
LINE
  8
0
 10
16.875
 20
-0.1875
 11
16.875
 21
-0.0625
  0
ENDSEC
  0
SECTION
  2
OBJECTS
  0
DICTIONARY
  0
ENDSEC
  0
EOF
