  0
SECTION
  2
BLOCKS
  0
ENDSEC
  0
SECTION
  2
ENTITIES
  0
LINE
  8
0
 10
-0.0625
 20
2.125
 11
-0.1875
 21
2.125
  0
LINE
  8
0
 10
-0.1875
 20
2.125
 11
-0.1875
 21
2
  0
LINE
  8
0
 10
-0.1875
 20
2
 11
-0.0625
 21
2
  0
LINE
  8
0
 10
-0.0625
 20
2
 11
-0.0625
 21
2.125
  0
LINE
  8
0
 10
4.1875
 20
0
 11
6.28125
 21
0
  0
LINE
  8
0
 10
6.28125
 20
0
 11
6.28125
 21
-0.125
  0
LINE
  8
0
 10
6.28125
 20
-0.125
 11
8.375
 21
-0.125
  0
LINE
  8
0
 10
8.375
 20
-0.125
 11
8.375
 21
0
  0
LINE
  8
0
 10
8.375
 20
0
 11
10.4688
 21
0
  0
LINE
  8
0
 10
10.4688
 20
0
 11
10.4688
 21
-0.125
  0
LINE
  8
0
 10
10.4688
 20
-0.125
 11
12.5625
 21
-0.125
  0
LINE
  8
0
 10
12.5625
 20
-0.125
 11
12.5625
 21
0
  0
LINE
  8
0
 10
12.5625
 20
0
 11
14.6562
 21
0
  0
LINE
  8
0
 10
14.6562
 20
0
 11
14.6562
 21
-0.125
  0
LINE
  8
0
 10
14.6562
 20
-0.125
 11
16.75
 21
-0.125
  0
LINE
  8
0
 10
16.75
 20
-0.125
 11
16.75
 21
0
  0
LINE
  8
0
 10
16.75
 20
0
 11
16.8125
 21
0
  0
LINE
  8
0
 10
16.8125
 20
0
 11
16.8125
 21
-0.125
  0
LINE
  8
0
 10
16.8125
 20
-0.125
 11
16.9375
 21
-0.125
  0
LINE
  8
0
 10
16.9375
 20
-0.125
 11
16.9375
 21
0
  0
LINE
  8
0
 10
16.9375
 20
0
 11
16.875
 21
0
  0
LINE
  8
0
 10
16.875
 20
0
 11
16.875
 21
0.25
  0
LINE
  8
0
 10
16.875
 20
0.25
 11
16.75
 21
0.25
  0
LINE
  8
0
 10
16.75
 20
0.25
 11
16.75
 21
0.5
  0
LINE
  8
0
 10
16.75
 20
0.5
 11
16.875
 21
0.5
  0
LINE
  8
0
 10
16.875
 20
0.5
 11
16.875
 21
0.75
  0
LINE
  8
0
 10
16.875
 20
0.75
 11
16.75
 21
0.75
  0
LINE
  8
0
 10
16.75
 20
0.75
 11
16.75
 21
1
  0
LINE
  8
0
 10
16.75
 20
1
 11
16.875
 21
1
  0
LINE
  8
0
 10
16.875
 20
1
 11
16.875
 21
1.25
  0
LINE
  8
0
 10
16.875
 20
1.25
 11
16.75
 21
1.25
  0
LINE
  8
0
 10
16.75
 20
1.25
 11
16.75
 21
1.5
  0
LINE
  8
0
 10
16.75
 20
1.5
 11
16.875
 21
1.5
  0
LINE
  8
0
 10
16.875
 20
1.5
 11
16.875
 21
1.75
  0
LINE
  8
0
 10
16.875
 20
1.75
 11
16.75
 21
1.75
  0
LINE
  8
0
 10
16.75
 20
1.75
 11
16.75
 21
2
  0
LINE
  8
0
 10
16.75
 20
2
 11
14.6562
 21
2
  0
LINE
  8
0
 10
14.6562
 20
2
 11
14.6562
 21
2.125
  0
LINE
  8
0
 10
14.6562
 20
2.125
 11
12.5625
 21
2.125
  0
LINE
  8
0
 10
12.5625
 20
2.125
 11
12.5625
 21
2
  0
LINE
  8
0
 10
12.5625
 20
2
 11
10.4688
 21
2
  0
LINE
  8
0
 10
10.4688
 20
2
 11
10.4688
 21
2.125
  0
LINE
  8
0
 10
10.4688
 20
2.125
 11
8.375
 21
2.125
  0
LINE
  8
0
 10
8.375
 20
2.125
 11
8.375
 21
2
  0
LINE
  8
0
 10
8.375
 20
2
 11
6.28125
 21
2
  0
LINE
  8
0
 10
6.28125
 20
2
 11
6.28125
 21
2.125
  0
LINE
  8
0
 10
6.28125
 20
2.125
 11
4.1875
 21
2.125
  0
LINE
  8
0
 10
4.1875
 20
2.125
 11
4.1875
 21
2
  0
LINE
  8
0
 10
4.1875
 20
2
 11
2.09375
 21
2
  0
LINE
  8
0
 10
2.09375
 20
2
 11
2.09375
 21
2.125
  0
LINE
  8
0
 10
2.09375
 20
2.125
 11
0
 21
2.125
  0
LINE
  8
0
 10
0
 20
2.125
 11
0
 21
1.75
  0
LINE
  8
0
 10
0
 20
1.75
 11
-0.125
 21
1.75
  0
LINE
  8
0
 10
-0.125
 20
1.75
 11
-0.125
 21
1.5
  0
LINE
  8
0
 10
-0.125
 20
1.5
 11
0
 21
1.5
  0
LINE
  8
0
 10
0
 20
1.5
 11
0
 21
1.25
  0
LINE
  8
0
 10
0
 20
1.25
 11
-0.125
 21
1.25
  0
LINE
  8
0
 10
-0.125
 20
1.25
 11
-0.125
 21
1
  0
LINE
  8
0
 10
-0.125
 20
1
 11
0
 21
1
  0
LINE
  8
0
 10
0
 20
1
 11
0
 21
0.75
  0
LINE
  8
0
 10
0
 20
0.75
 11
-0.125
 21
0.75
  0
LINE
  8
0
 10
-0.125
 20
0.75
 11
-0.125
 21
0.5
  0
LINE
  8
0
 10
-0.125
 20
0.5
 11
0
 21
0.5
  0
LINE
  8
0
 10
0
 20
0.5
 11
0
 21
0.25
  0
LINE
  8
0
 10
0
 20
0.25
 11
-0.125
 21
0.25
  0
LINE
  8
0
 10
-0.125
 20
0.25
 11
-0.125
 21
0
  0
LINE
  8
0
 10
-0.125
 20
0
 11
2.09375
 21
0
  0
LINE
  8
0
 10
2.09375
 20
0
 11
2.09375
 21
-0.125
  0
LINE
  8
0
 10
2.09375
 20
-0.125
 11
4.1875
 21
-0.125
  0
LINE
  8
0
 10
4.1875
 20
-0.125
 11
4.1875
 21
0
  0
LINE
  8
0
 10
0.480392
 20
1.56352
 11
0.461014
 21
1.56659
  0
LINE
  8
0
 10
0.461014
 20
1.56659
 11
0.442047
 21
1.57167
  0
LINE
  8
0
 10
0.442047
 20
1.57167
 11
0.423737
 21
1.5787
  0
LINE
  8
0
 10
0.423737
 20
1.5787
 11
0.40625
 21
1.58762
  0
LINE
  8
0
 10
0.40625
 20
1.58762
 11
0.389786
 21
1.5983
  0
LINE
  8
0
 10
0.389786
 20
1.5983
 11
0.374527
 21
1.61066
  0
LINE
  8
0
 10
0.374527
 20
1.61066
 11
0.360657
 21
1.62453
  0
LINE
  8
0
 10
0.360657
 20
1.62453
 11
0.348297
 21
1.63979
  0
LINE
  8
0
 10
0.348297
 20
1.63979
 11
0.337616
 21
1.65625
  0
LINE
  8
0
 10
0.337616
 20
1.65625
 11
0.328705
 21
1.67374
  0
LINE
  8
0
 10
0.328705
 20
1.67374
 11
0.321671
 21
1.69205
  0
LINE
  8
0
 10
0.321671
 20
1.69205
 11
0.316589
 21
1.71101
  0
LINE
  8
0
 10
0.316589
 20
1.71101
 11
0.313522
 21
1.73039
  0
LINE
  8
0
 10
0.313522
 20
1.73039
 11
0.3125
 21
1.75
  0
LINE
  8
0
 10
0.3125
 20
1.75
 11
0.313522
 21
1.76959
  0
LINE
  8
0
 10
0.313522
 20
1.76959
 11
0.316589
 21
1.78897
  0
LINE
  8
0
 10
0.316589
 20
1.78897
 11
0.321671
 21
1.80794
  0
LINE
  8
0
 10
0.321671
 20
1.80794
 11
0.328705
 21
1.82625
  0
LINE
  8
0
 10
0.328705
 20
1.82625
 11
0.337616
 21
1.84375
  0
LINE
  8
0
 10
0.337616
 20
1.84375
 11
0.348297
 21
1.8602
  0
LINE
  8
0
 10
0.348297
 20
1.8602
 11
0.360657
 21
1.87546
  0
LINE
  8
0
 10
0.360657
 20
1.87546
 11
0.374527
 21
1.88933
  0
LINE
  8
0
 10
0.374527
 20
1.88933
 11
0.389786
 21
1.90169
  0
LINE
  8
0
 10
0.389786
 20
1.90169
 11
0.40625
 21
1.91237
  0
LINE
  8
0
 10
0.40625
 20
1.91237
 11
0.423737
 21
1.92128
  0
LINE
  8
0
 10
0.423737
 20
1.92128
 11
0.442047
 21
1.92831
  0
LINE
  8
0
 10
0.442047
 20
1.92831
 11
0.461014
 21
1.9334
  0
LINE
  8
0
 10
0.461014
 20
1.9334
 11
0.480392
 21
1.93646
  0
LINE
  8
0
 10
0.480392
 20
1.93646
 11
0.5
 21
1.9375
  0
LINE
  8
0
 10
0.5
 20
1.9375
 11
0.519592
 21
1.93646
  0
LINE
  8
0
 10
0.519592
 20
1.93646
 11
0.538971
 21
1.9334
  0
LINE
  8
0
 10
0.538971
 20
1.9334
 11
0.557938
 21
1.92831
  0
LINE
  8
0
 10
0.557938
 20
1.92831
 11
0.576248
 21
1.92128
  0
LINE
  8
0
 10
0.576248
 20
1.92128
 11
0.59375
 21
1.91237
  0
LINE
  8
0
 10
0.59375
 20
1.91237
 11
0.610199
 21
1.90169
  0
LINE
  8
0
 10
0.610199
 20
1.90169
 11
0.625458
 21
1.88933
  0
LINE
  8
0
 10
0.625458
 20
1.88933
 11
0.639328
 21
1.87546
  0
LINE
  8
0
 10
0.639328
 20
1.87546
 11
0.651688
 21
1.8602
  0
LINE
  8
0
 10
0.651688
 20
1.8602
 11
0.662369
 21
1.84375
  0
LINE
  8
0
 10
0.662369
 20
1.84375
 11
0.67128
 21
1.82625
  0
LINE
  8
0
 10
0.67128
 20
1.82625
 11
0.678314
 21
1.80794
  0
LINE
  8
0
 10
0.678314
 20
1.80794
 11
0.683395
 21
1.78897
  0
LINE
  8
0
 10
0.683395
 20
1.78897
 11
0.686462
 21
1.76959
  0
LINE
  8
0
 10
0.686462
 20
1.76959
 11
0.6875
 21
1.75
  0
LINE
  8
0
 10
0.6875
 20
1.75
 11
0.686462
 21
1.73039
  0
LINE
  8
0
 10
0.686462
 20
1.73039
 11
0.683395
 21
1.71101
  0
LINE
  8
0
 10
0.683395
 20
1.71101
 11
0.678314
 21
1.69205
  0
LINE
  8
0
 10
0.678314
 20
1.69205
 11
0.67128
 21
1.67374
  0
LINE
  8
0
 10
0.67128
 20
1.67374
 11
0.662369
 21
1.65625
  0
LINE
  8
0
 10
0.662369
 20
1.65625
 11
0.651688
 21
1.63979
  0
LINE
  8
0
 10
0.651688
 20
1.63979
 11
0.639328
 21
1.62453
  0
LINE
  8
0
 10
0.639328
 20
1.62453
 11
0.625458
 21
1.61066
  0
LINE
  8
0
 10
0.625458
 20
1.61066
 11
0.610199
 21
1.5983
  0
LINE
  8
0
 10
0.610199
 20
1.5983
 11
0.59375
 21
1.58762
  0
LINE
  8
0
 10
0.59375
 20
1.58762
 11
0.576248
 21
1.5787
  0
LINE
  8
0
 10
0.576248
 20
1.5787
 11
0.557938
 21
1.57167
  0
LINE
  8
0
 10
0.557938
 20
1.57167
 11
0.538971
 21
1.56659
  0
LINE
  8
0
 10
0.538971
 20
1.56659
 11
0.519592
 21
1.56352
  0
LINE
  8
0
 10
0.519592
 20
1.56352
 11
0.5
 21
1.5625
  0
LINE
  8
0
 10
0.5
 20
1.5625
 11
0.480392
 21
1.56352
  0
LINE
  8
0
 10
1.98039
 20
1.56352
 11
1.96101
 21
1.56659
  0
LINE
  8
0
 10
1.96101
 20
1.56659
 11
1.94205
 21
1.57167
  0
LINE
  8
0
 10
1.94205
 20
1.57167
 11
1.92374
 21
1.5787
  0
LINE
  8
0
 10
1.92374
 20
1.5787
 11
1.90625
 21
1.58762
  0
LINE
  8
0
 10
1.90625
 20
1.58762
 11
1.88979
 21
1.5983
  0
LINE
  8
0
 10
1.88979
 20
1.5983
 11
1.87453
 21
1.61066
  0
LINE
  8
0
 10
1.87453
 20
1.61066
 11
1.86066
 21
1.62453
  0
LINE
  8
0
 10
1.86066
 20
1.62453
 11
1.8483
 21
1.63979
  0
LINE
  8
0
 10
1.8483
 20
1.63979
 11
1.83762
 21
1.65625
  0
LINE
  8
0
 10
1.83762
 20
1.65625
 11
1.8287
 21
1.67374
  0
LINE
  8
0
 10
1.8287
 20
1.67374
 11
1.82167
 21
1.69205
  0
LINE
  8
0
 10
1.82167
 20
1.69205
 11
1.81659
 21
1.71101
  0
LINE
  8
0
 10
1.81659
 20
1.71101
 11
1.81352
 21
1.73039
  0
LINE
  8
0
 10
1.81352
 20
1.73039
 11
1.8125
 21
1.75
  0
LINE
  8
0
 10
1.8125
 20
1.75
 11
1.81352
 21
1.76959
  0
LINE
  8
0
 10
1.81352
 20
1.76959
 11
1.81659
 21
1.78897
  0
LINE
  8
0
 10
1.81659
 20
1.78897
 11
1.82167
 21
1.80794
  0
LINE
  8
0
 10
1.82167
 20
1.80794
 11
1.8287
 21
1.82625
  0
LINE
  8
0
 10
1.8287
 20
1.82625
 11
1.83762
 21
1.84375
  0
LINE
  8
0
 10
1.83762
 20
1.84375
 11
1.8483
 21
1.8602
  0
LINE
  8
0
 10
1.8483
 20
1.8602
 11
1.86066
 21
1.87546
  0
LINE
  8
0
 10
1.86066
 20
1.87546
 11
1.87453
 21
1.88933
  0
LINE
  8
0
 10
1.87453
 20
1.88933
 11
1.88979
 21
1.90169
  0
LINE
  8
0
 10
1.88979
 20
1.90169
 11
1.90625
 21
1.91237
  0
LINE
  8
0
 10
1.90625
 20
1.91237
 11
1.92374
 21
1.92128
  0
LINE
  8
0
 10
1.92374
 20
1.92128
 11
1.94205
 21
1.92831
  0
LINE
  8
0
 10
1.94205
 20
1.92831
 11
1.96101
 21
1.9334
  0
LINE
  8
0
 10
1.96101
 20
1.9334
 11
1.98039
 21
1.93646
  0
LINE
  8
0
 10
1.98039
 20
1.93646
 11
2
 21
1.9375
  0
LINE
  8
0
 10
2
 20
1.9375
 11
2.01959
 21
1.93646
  0
LINE
  8
0
 10
2.01959
 20
1.93646
 11
2.03897
 21
1.9334
  0
LINE
  8
0
 10
2.03897
 20
1.9334
 11
2.05794
 21
1.92831
  0
LINE
  8
0
 10
2.05794
 20
1.92831
 11
2.07625
 21
1.92128
  0
LINE
  8
0
 10
2.07625
 20
1.92128
 11
2.09375
 21
1.91237
  0
LINE
  8
0
 10
2.09375
 20
1.91237
 11
2.1102
 21
1.90169
  0
LINE
  8
0
 10
2.1102
 20
1.90169
 11
2.12546
 21
1.88933
  0
LINE
  8
0
 10
2.12546
 20
1.88933
 11
2.13933
 21
1.87546
  0
LINE
  8
0
 10
2.13933
 20
1.87546
 11
2.15169
 21
1.8602
  0
LINE
  8
0
 10
2.15169
 20
1.8602
 11
2.16237
 21
1.84375
  0
LINE
  8
0
 10
2.16237
 20
1.84375
 11
2.17128
 21
1.82625
  0
LINE
  8
0
 10
2.17128
 20
1.82625
 11
2.17831
 21
1.80794
  0
LINE
  8
0
 10
2.17831
 20
1.80794
 11
2.1834
 21
1.78897
  0
LINE
  8
0
 10
2.1834
 20
1.78897
 11
2.18646
 21
1.76959
  0
LINE
  8
0
 10
2.18646
 20
1.76959
 11
2.1875
 21
1.75
  0
LINE
  8
0
 10
2.1875
 20
1.75
 11
2.18646
 21
1.73039
  0
LINE
  8
0
 10
2.18646
 20
1.73039
 11
2.1834
 21
1.71101
  0
LINE
  8
0
 10
2.1834
 20
1.71101
 11
2.17831
 21
1.69205
  0
LINE
  8
0
 10
2.17831
 20
1.69205
 11
2.17128
 21
1.67374
  0
LINE
  8
0
 10
2.17128
 20
1.67374
 11
2.16237
 21
1.65625
  0
LINE
  8
0
 10
2.16237
 20
1.65625
 11
2.15169
 21
1.63979
  0
LINE
  8
0
 10
2.15169
 20
1.63979
 11
2.13933
 21
1.62453
  0
LINE
  8
0
 10
2.13933
 20
1.62453
 11
2.12546
 21
1.61066
  0
LINE
  8
0
 10
2.12546
 20
1.61066
 11
2.1102
 21
1.5983
  0
LINE
  8
0
 10
2.1102
 20
1.5983
 11
2.09375
 21
1.58762
  0
LINE
  8
0
 10
2.09375
 20
1.58762
 11
2.07625
 21
1.5787
  0
LINE
  8
0
 10
2.07625
 20
1.5787
 11
2.05794
 21
1.57167
  0
LINE
  8
0
 10
2.05794
 20
1.57167
 11
2.03897
 21
1.56659
  0
LINE
  8
0
 10
2.03897
 20
1.56659
 11
2.01959
 21
1.56352
  0
LINE
  8
0
 10
2.01959
 20
1.56352
 11
2
 21
1.5625
  0
LINE
  8
0
 10
2
 20
1.5625
 11
1.98039
 21
1.56352
  0
LINE
  8
0
 10
6
 20
0.25
 11
6
 21
1.25
  0
LINE
  8
0
 10
6
 20
1.25
 11
9.875
 21
1.25
  0
LINE
  8
0
 10
9.875
 20
1.25
 11
9.875
 21
0.25
  0
LINE
  8
0
 10
9.875
 20
0.25
 11
6
 21
0.25
  0
LINE
  8
0
 10
0.25
 20
0.25
 11
0.25
 21
1.25
  0
LINE
  8
0
 10
0.25
 20
1.25
 11
2.25
 21
1.25
  0
LINE
  8
0
 10
2.25
 20
1.25
 11
2.25
 21
0.25
  0
LINE
  8
0
 10
2.25
 20
0.25
 11
0.25
 21
0.25
  0
ENDSEC
  0
SECTION
  2
OBJECTS
  0
DICTIONARY
  0
ENDSEC
  0
EOF
