  0
SECTION
  2
BLOCKS
  0
ENDSEC
  0
SECTION
  2
ENTITIES
  0
LINE
  8
0
 10
2.09375
 20
0
 11
4.1875
 21
0
  0
LINE
  8
0
 10
4.1875
 20
0
 11
4.1875
 21
-0.125
  0
LINE
  8
0
 10
4.1875
 20
-0.125
 11
6.28125
 21
-0.125
  0
LINE
  8
0
 10
6.28125
 20
-0.125
 11
6.28125
 21
0
  0
LINE
  8
0
 10
6.28125
 20
0
 11
8.375
 21
0
  0
LINE
  8
0
 10
8.375
 20
0
 11
8.375
 21
-0.125
  0
LINE
  8
0
 10
8.375
 20
-0.125
 11
10.4688
 21
-0.125
  0
LINE
  8
0
 10
10.4688
 20
-0.125
 11
10.4688
 21
0
  0
LINE
  8
0
 10
10.4688
 20
0
 11
12.5625
 21
0
  0
LINE
  8
0
 10
12.5625
 20
0
 11
12.5625
 21
-0.125
  0
LINE
  8
0
 10
12.5625
 20
-0.125
 11
14.6562
 21
-0.125
  0
LINE
  8
0
 10
14.6562
 20
-0.125
 11
14.6562
 21
0
  0
LINE
  8
0
 10
14.6562
 20
0
 11
16.875
 21
0
  0
LINE
  8
0
 10
16.875
 20
0
 11
16.875
 21
0.25
  0
LINE
  8
0
 10
16.875
 20
0.25
 11
16.75
 21
0.25
  0
LINE
  8
0
 10
16.75
 20
0.25
 11
16.75
 21
0.5
  0
LINE
  8
0
 10
16.75
 20
0.5
 11
16.875
 21
0.5
  0
LINE
  8
0
 10
16.875
 20
0.5
 11
16.875
 21
0.75
  0
LINE
  8
0
 10
16.875
 20
0.75
 11
16.75
 21
0.75
  0
LINE
  8
0
 10
16.75
 20
0.75
 11
16.75
 21
1
  0
LINE
  8
0
 10
16.75
 20
1
 11
16.875
 21
1
  0
LINE
  8
0
 10
16.875
 20
1
 11
16.875
 21
1.25
  0
LINE
  8
0
 10
16.875
 20
1.25
 11
16.75
 21
1.25
  0
LINE
  8
0
 10
16.75
 20
1.25
 11
16.75
 21
1.5
  0
LINE
  8
0
 10
16.75
 20
1.5
 11
16.875
 21
1.5
  0
LINE
  8
0
 10
16.875
 20
1.5
 11
16.875
 21
1.75
  0
LINE
  8
0
 10
16.875
 20
1.75
 11
16.75
 21
1.75
  0
LINE
  8
0
 10
16.75
 20
1.75
 11
16.75
 21
2
  0
LINE
  8
0
 10
16.75
 20
2
 11
14.6562
 21
2
  0
LINE
  8
0
 10
14.6562
 20
2
 11
14.6562
 21
2.125
  0
LINE
  8
0
 10
14.6562
 20
2.125
 11
12.5625
 21
2.125
  0
LINE
  8
0
 10
12.5625
 20
2.125
 11
12.5625
 21
2
  0
LINE
  8
0
 10
12.5625
 20
2
 11
10.4688
 21
2
  0
LINE
  8
0
 10
10.4688
 20
2
 11
10.4688
 21
2.125
  0
LINE
  8
0
 10
10.4688
 20
2.125
 11
8.375
 21
2.125
  0
LINE
  8
0
 10
8.375
 20
2.125
 11
8.375
 21
2
  0
LINE
  8
0
 10
8.375
 20
2
 11
6.28125
 21
2
  0
LINE
  8
0
 10
6.28125
 20
2
 11
6.28125
 21
2.125
  0
LINE
  8
0
 10
6.28125
 20
2.125
 11
4.1875
 21
2.125
  0
LINE
  8
0
 10
4.1875
 20
2.125
 11
4.1875
 21
2
  0
LINE
  8
0
 10
4.1875
 20
2
 11
2.09375
 21
2
  0
LINE
  8
0
 10
2.09375
 20
2
 11
2.09375
 21
2.125
  0
LINE
  8
0
 10
2.09375
 20
2.125
 11
0
 21
2.125
  0
LINE
  8
0
 10
0
 20
2.125
 11
0
 21
1.75
  0
LINE
  8
0
 10
0
 20
1.75
 11
-0.125
 21
1.75
  0
LINE
  8
0
 10
-0.125
 20
1.75
 11
-0.125
 21
1.5
  0
LINE
  8
0
 10
-0.125
 20
1.5
 11
0
 21
1.5
  0
LINE
  8
0
 10
0
 20
1.5
 11
0
 21
1.25
  0
LINE
  8
0
 10
0
 20
1.25
 11
-0.125
 21
1.25
  0
LINE
  8
0
 10
-0.125
 20
1.25
 11
-0.125
 21
1
  0
LINE
  8
0
 10
-0.125
 20
1
 11
0
 21
1
  0
LINE
  8
0
 10
0
 20
1
 11
0
 21
0.75
  0
LINE
  8
0
 10
0
 20
0.75
 11
-0.125
 21
0.75
  0
LINE
  8
0
 10
-0.125
 20
0.75
 11
-0.125
 21
0.5
  0
LINE
  8
0
 10
-0.125
 20
0.5
 11
0
 21
0.5
  0
LINE
  8
0
 10
0
 20
0.5
 11
0
 21
0.25
  0
LINE
  8
0
 10
0
 20
0.25
 11
-0.125
 21
0.25
  0
LINE
  8
0
 10
-0.125
 20
0.25
 11
-0.125
 21
0
  0
LINE
  8
0
 10
-0.125
 20
0
 11
0
 21
0
  0
LINE
  8
0
 10
0
 20
0
 11
0
 21
-0.125
  0
LINE
  8
0
 10
0
 20
-0.125
 11
2.09375
 21
-0.125
  0
LINE
  8
0
 10
2.09375
 20
-0.125
 11
2.09375
 21
0
  0
ENDSEC
  0
SECTION
  2
OBJECTS
  0
DICTIONARY
  0
ENDSEC
  0
EOF
