  0
SECTION
  2
BLOCKS
  0
ENDSEC
  0
SECTION
  2
ENTITIES
  0
LINE
  8
0
 10
16.875
 20
-0.0625
 11
16.75
 21
-0.0625
  0
LINE
  8
0
 10
16.75
 20
-0.0625
 11
16.75
 21
0
  0
LINE
  8
0
 10
16.75
 20
0
 11
16.875
 21
0
  0
LINE
  8
0
 10
16.875
 20
0
 11
16.875
 21
1.0625
  0
LINE
  8
0
 10
16.875
 20
1.0625
 11
16.75
 21
1.0625
  0
LINE
  8
0
 10
16.75
 20
1.0625
 11
16.75
 21
2.125
  0
LINE
  8
0
 10
16.75
 20
2.125
 11
16.875
 21
2.125
  0
LINE
  8
0
 10
16.875
 20
2.125
 11
16.875
 21
3.1875
  0
LINE
  8
0
 10
16.875
 20
3.1875
 11
16.75
 21
3.1875
  0
LINE
  8
0
 10
16.75
 20
3.1875
 11
16.75
 21
4.25
  0
LINE
  8
0
 10
16.75
 20
4.25
 11
16.875
 21
4.25
  0
LINE
  8
0
 10
16.875
 20
4.25
 11
16.875
 21
5.3125
  0
LINE
  8
0
 10
16.875
 20
5.3125
 11
16.75
 21
5.3125
  0
LINE
  8
0
 10
16.75
 20
5.3125
 11
16.75
 21
6.375
  0
LINE
  8
0
 10
16.75
 20
6.375
 11
16.875
 21
6.375
  0
LINE
  8
0
 10
16.875
 20
6.375
 11
16.875
 21
7.4375
  0
LINE
  8
0
 10
16.875
 20
7.4375
 11
16.75
 21
7.4375
  0
LINE
  8
0
 10
16.75
 20
7.4375
 11
16.75
 21
8.625
  0
LINE
  8
0
 10
16.75
 20
8.625
 11
14.6562
 21
8.625
  0
LINE
  8
0
 10
14.6562
 20
8.625
 11
14.6562
 21
8.5
  0
LINE
  8
0
 10
14.6562
 20
8.5
 11
12.5625
 21
8.5
  0
LINE
  8
0
 10
12.5625
 20
8.5
 11
12.5625
 21
8.625
  0
LINE
  8
0
 10
12.5625
 20
8.625
 11
10.4688
 21
8.625
  0
LINE
  8
0
 10
10.4688
 20
8.625
 11
10.4688
 21
8.5
  0
LINE
  8
0
 10
10.4688
 20
8.5
 11
8.375
 21
8.5
  0
LINE
  8
0
 10
8.375
 20
8.5
 11
8.375
 21
8.625
  0
LINE
  8
0
 10
8.375
 20
8.625
 11
6.28125
 21
8.625
  0
LINE
  8
0
 10
6.28125
 20
8.625
 11
6.28125
 21
8.5
  0
LINE
  8
0
 10
6.28125
 20
8.5
 11
4.1875
 21
8.5
  0
LINE
  8
0
 10
4.1875
 20
8.5
 11
4.1875
 21
8.625
  0
LINE
  8
0
 10
4.1875
 20
8.625
 11
2.09375
 21
8.625
  0
LINE
  8
0
 10
2.09375
 20
8.625
 11
2.09375
 21
8.5
  0
LINE
  8
0
 10
2.09375
 20
8.5
 11
0
 21
8.5
  0
LINE
  8
0
 10
0
 20
8.5
 11
0
 21
7.4375
  0
LINE
  8
0
 10
0
 20
7.4375
 11
-0.125
 21
7.4375
  0
LINE
  8
0
 10
-0.125
 20
7.4375
 11
-0.125
 21
6.375
  0
LINE
  8
0
 10
-0.125
 20
6.375
 11
0
 21
6.375
  0
LINE
  8
0
 10
0
 20
6.375
 11
0
 21
5.3125
  0
LINE
  8
0
 10
0
 20
5.3125
 11
-0.125
 21
5.3125
  0
LINE
  8
0
 10
-0.125
 20
5.3125
 11
-0.125
 21
4.25
  0
LINE
  8
0
 10
-0.125
 20
4.25
 11
0
 21
4.25
  0
LINE
  8
0
 10
0
 20
4.25
 11
0
 21
3.1875
  0
LINE
  8
0
 10
0
 20
3.1875
 11
-0.125
 21
3.1875
  0
LINE
  8
0
 10
-0.125
 20
3.1875
 11
-0.125
 21
2.125
  0
LINE
  8
0
 10
-0.125
 20
2.125
 11
0
 21
2.125
  0
LINE
  8
0
 10
0
 20
2.125
 11
0
 21
1.0625
  0
LINE
  8
0
 10
0
 20
1.0625
 11
-0.125
 21
1.0625
  0
LINE
  8
0
 10
-0.125
 20
1.0625
 11
-0.125
 21
0
  0
LINE
  8
0
 10
-0.125
 20
0
 11
-0.1875
 21
0
  0
LINE
  8
0
 10
-0.1875
 20
0
 11
-0.1875
 21
-0.125
  0
LINE
  8
0
 10
-0.1875
 20
-0.125
 11
-0.0625
 21
-0.125
  0
LINE
  8
0
 10
-0.0625
 20
-0.125
 11
-0.0625
 21
0
  0
LINE
  8
0
 10
-0.0625
 20
0
 11
2.09375
 21
0
  0
LINE
  8
0
 10
2.09375
 20
0
 11
2.09375
 21
-0.125
  0
LINE
  8
0
 10
2.09375
 20
-0.125
 11
4.1875
 21
-0.125
  0
LINE
  8
0
 10
4.1875
 20
-0.125
 11
4.1875
 21
0
  0
LINE
  8
0
 10
4.1875
 20
0
 11
6.28125
 21
0
  0
LINE
  8
0
 10
6.28125
 20
0
 11
6.28125
 21
-0.125
  0
LINE
  8
0
 10
6.28125
 20
-0.125
 11
8.375
 21
-0.125
  0
LINE
  8
0
 10
8.375
 20
-0.125
 11
8.375
 21
0
  0
LINE
  8
0
 10
8.375
 20
0
 11
10.4688
 21
0
  0
LINE
  8
0
 10
10.4688
 20
0
 11
10.4688
 21
-0.125
  0
LINE
  8
0
 10
10.4688
 20
-0.125
 11
12.5625
 21
-0.125
  0
LINE
  8
0
 10
12.5625
 20
-0.125
 11
12.5625
 21
0
  0
LINE
  8
0
 10
12.5625
 20
0
 11
14.6562
 21
0
  0
LINE
  8
0
 10
14.6562
 20
0
 11
14.6562
 21
-0.125
  0
LINE
  8
0
 10
14.6562
 20
-0.125
 11
16.75
 21
-0.125
  0
LINE
  8
0
 10
16.75
 20
-0.125
 11
16.75
 21
-0.1875
  0
LINE
  8
0
 10
16.75
 20
-0.1875
 11
16.875
 21
-0.1875
  0
LINE
  8
0
 10
16.875
 20
-0.1875
 11
16.875
 21
-0.0625
  0
LINE
  8
0
 10
12.25
 20
4.25
 11
12.25
 21
8.25
  0
LINE
  8
0
 10
12.25
 20
8.25
 11
14.25
 21
8.25
  0
LINE
  8
0
 10
14.25
 20
8.25
 11
14.25
 21
4.25
  0
LINE
  8
0
 10
14.25
 20
4.25
 11
12.25
 21
4.25
  0
LINE
  8
0
 10
14.4
 20
4.25
 11
14.4
 21
8.25
  0
LINE
  8
0
 10
14.4
 20
8.25
 11
16.4
 21
8.25
  0
LINE
  8
0
 10
16.4
 20
8.25
 11
16.4
 21
4.25
  0
LINE
  8
0
 10
16.4
 20
4.25
 11
14.4
 21
4.25
  0
LINE
  8
0
 10
0.25
 20
4.25
 11
0.25
 21
8.25
  0
LINE
  8
0
 10
0.25
 20
8.25
 11
2.25
 21
8.25
  0
LINE
  8
0
 10
2.25
 20
8.25
 11
2.25
 21
4.25
  0
LINE
  8
0
 10
2.25
 20
4.25
 11
0.25
 21
4.25
  0
LINE
  8
0
 10
9.5
 20
4.25
 11
9.5
 21
8.25
  0
LINE
  8
0
 10
9.5
 20
8.25
 11
11.5
 21
8.25
  0
LINE
  8
0
 10
11.5
 20
8.25
 11
11.5
 21
4.25
  0
LINE
  8
0
 10
11.5
 20
4.25
 11
9.5
 21
4.25
  0
LINE
  8
0
 10
7
 20
4.25
 11
7
 21
8.25
  0
LINE
  8
0
 10
7
 20
8.25
 11
9
 21
8.25
  0
LINE
  8
0
 10
9
 20
8.25
 11
9
 21
4.25
  0
LINE
  8
0
 10
9
 20
4.25
 11
7
 21
4.25
  0
LINE
  8
0
 10
4.75
 20
4.25
 11
4.75
 21
8.25
  0
LINE
  8
0
 10
4.75
 20
8.25
 11
6.75
 21
8.25
  0
LINE
  8
0
 10
6.75
 20
8.25
 11
6.75
 21
4.25
  0
LINE
  8
0
 10
6.75
 20
4.25
 11
4.75
 21
4.25
  0
LINE
  8
0
 10
2.5
 20
4.25
 11
2.5
 21
8.25
  0
LINE
  8
0
 10
2.5
 20
8.25
 11
4.5
 21
8.25
  0
LINE
  8
0
 10
4.5
 20
8.25
 11
4.5
 21
4.25
  0
LINE
  8
0
 10
4.5
 20
4.25
 11
2.5
 21
4.25
  0
LINE
  8
0
 10
0.25
 20
0.25
 11
0.25
 21
3
  0
LINE
  8
0
 10
0.25
 20
3
 11
8
 21
3
  0
LINE
  8
0
 10
8
 20
3
 11
8
 21
0.25
  0
LINE
  8
0
 10
8
 20
0.25
 11
0.25
 21
0.25
  0
LINE
  8
0
 10
8.5
 20
0.25
 11
8.5
 21
2.75
  0
LINE
  8
0
 10
8.5
 20
2.75
 11
11
 21
2.75
  0
LINE
  8
0
 10
11
 20
2.75
 11
11
 21
0.25
  0
LINE
  8
0
 10
11
 20
0.25
 11
8.5
 21
0.25
  0
LINE
  8
0
 10
11.5
 20
0.25
 11
11.5
 21
2.625
  0
LINE
  8
0
 10
11.5
 20
2.625
 11
14.0625
 21
2.625
  0
LINE
  8
0
 10
14.0625
 20
2.625
 11
14.0625
 21
0.25
  0
LINE
  8
0
 10
14.0625
 20
0.25
 11
11.5
 21
0.25
  0
LINE
  8
0
 10
15.4869
 20
2.37567
 11
15.474
 21
2.37773
  0
LINE
  8
0
 10
15.474
 20
2.37773
 11
15.4614
 21
2.3811
  0
LINE
  8
0
 10
15.4614
 20
2.3811
 11
15.4492
 21
2.3858
  0
LINE
  8
0
 10
15.4492
 20
2.3858
 11
15.4375
 21
2.39174
  0
LINE
  8
0
 10
15.4375
 20
2.39174
 11
15.4265
 21
2.39886
  0
LINE
  8
0
 10
15.4265
 20
2.39886
 11
15.4164
 21
2.4071
  0
LINE
  8
0
 10
15.4164
 20
2.4071
 11
15.4071
 21
2.41635
  0
LINE
  8
0
 10
15.4071
 20
2.41635
 11
15.3989
 21
2.42651
  0
LINE
  8
0
 10
15.3989
 20
2.42651
 11
15.3917
 21
2.4375
  0
LINE
  8
0
 10
15.3917
 20
2.4375
 11
15.3858
 21
2.44916
  0
LINE
  8
0
 10
15.3858
 20
2.44916
 11
15.3811
 21
2.46136
  0
LINE
  8
0
 10
15.3811
 20
2.46136
 11
15.3777
 21
2.474
  0
LINE
  8
0
 10
15.3777
 20
2.474
 11
15.3757
 21
2.48692
  0
LINE
  8
0
 10
15.3757
 20
2.48692
 11
15.375
 21
2.5
  0
LINE
  8
0
 10
15.375
 20
2.5
 11
15.3757
 21
2.51306
  0
LINE
  8
0
 10
15.3757
 20
2.51306
 11
15.3777
 21
2.52599
  0
LINE
  8
0
 10
15.3777
 20
2.52599
 11
15.3811
 21
2.53862
  0
LINE
  8
0
 10
15.3811
 20
2.53862
 11
15.3858
 21
2.55083
  0
LINE
  8
0
 10
15.3858
 20
2.55083
 11
15.3917
 21
2.5625
  0
LINE
  8
0
 10
15.3917
 20
2.5625
 11
15.3989
 21
2.57347
  0
LINE
  8
0
 10
15.3989
 20
2.57347
 11
15.4071
 21
2.58363
  0
LINE
  8
0
 10
15.4071
 20
2.58363
 11
15.4164
 21
2.59288
  0
LINE
  8
0
 10
15.4164
 20
2.59288
 11
15.4265
 21
2.60112
  0
LINE
  8
0
 10
15.4265
 20
2.60112
 11
15.4375
 21
2.60825
  0
LINE
  8
0
 10
15.4375
 20
2.60825
 11
15.4492
 21
2.61418
  0
LINE
  8
0
 10
15.4492
 20
2.61418
 11
15.4614
 21
2.61888
  0
LINE
  8
0
 10
15.4614
 20
2.61888
 11
15.474
 21
2.62225
  0
LINE
  8
0
 10
15.474
 20
2.62225
 11
15.4869
 21
2.62431
  0
LINE
  8
0
 10
15.4869
 20
2.62431
 11
15.5
 21
2.625
  0
LINE
  8
0
 10
15.5
 20
2.625
 11
15.5131
 21
2.62431
  0
LINE
  8
0
 10
15.5131
 20
2.62431
 11
15.526
 21
2.62225
  0
LINE
  8
0
 10
15.526
 20
2.62225
 11
15.5386
 21
2.61888
  0
LINE
  8
0
 10
15.5386
 20
2.61888
 11
15.5508
 21
2.61418
  0
LINE
  8
0
 10
15.5508
 20
2.61418
 11
15.5625
 21
2.60825
  0
LINE
  8
0
 10
15.5625
 20
2.60825
 11
15.5735
 21
2.60112
  0
LINE
  8
0
 10
15.5735
 20
2.60112
 11
15.5836
 21
2.59288
  0
LINE
  8
0
 10
15.5836
 20
2.59288
 11
15.5929
 21
2.58363
  0
LINE
  8
0
 10
15.5929
 20
2.58363
 11
15.6011
 21
2.57347
  0
LINE
  8
0
 10
15.6011
 20
2.57347
 11
15.6082
 21
2.5625
  0
LINE
  8
0
 10
15.6082
 20
2.5625
 11
15.6142
 21
2.55083
  0
LINE
  8
0
 10
15.6142
 20
2.55083
 11
15.6189
 21
2.53862
  0
LINE
  8
0
 10
15.6189
 20
2.53862
 11
15.6223
 21
2.52599
  0
LINE
  8
0
 10
15.6223
 20
2.52599
 11
15.6243
 21
2.51306
  0
LINE
  8
0
 10
15.6243
 20
2.51306
 11
15.625
 21
2.5
  0
LINE
  8
0
 10
15.625
 20
2.5
 11
15.6243
 21
2.48692
  0
LINE
  8
0
 10
15.6243
 20
2.48692
 11
15.6223
 21
2.474
  0
LINE
  8
0
 10
15.6223
 20
2.474
 11
15.6189
 21
2.46136
  0
LINE
  8
0
 10
15.6189
 20
2.46136
 11
15.6142
 21
2.44916
  0
LINE
  8
0
 10
15.6142
 20
2.44916
 11
15.6082
 21
2.4375
  0
LINE
  8
0
 10
15.6082
 20
2.4375
 11
15.6011
 21
2.42651
  0
LINE
  8
0
 10
15.6011
 20
2.42651
 11
15.5929
 21
2.41635
  0
LINE
  8
0
 10
15.5929
 20
2.41635
 11
15.5836
 21
2.4071
  0
LINE
  8
0
 10
15.5836
 20
2.4071
 11
15.5735
 21
2.39886
  0
LINE
  8
0
 10
15.5735
 20
2.39886
 11
15.5625
 21
2.39174
  0
LINE
  8
0
 10
15.5625
 20
2.39174
 11
15.5508
 21
2.3858
  0
LINE
  8
0
 10
15.5508
 20
2.3858
 11
15.5386
 21
2.3811
  0
LINE
  8
0
 10
15.5386
 20
2.3811
 11
15.526
 21
2.37773
  0
LINE
  8
0
 10
15.526
 20
2.37773
 11
15.5131
 21
2.37567
  0
LINE
  8
0
 10
15.5131
 20
2.37567
 11
15.5
 21
2.375
  0
LINE
  8
0
 10
15.5
 20
2.375
 11
15.4869
 21
2.37567
  0
LINE
  8
0
 10
15.4869
 20
1.37567
 11
15.474
 21
1.37773
  0
LINE
  8
0
 10
15.474
 20
1.37773
 11
15.4614
 21
1.3811
  0
LINE
  8
0
 10
15.4614
 20
1.3811
 11
15.4492
 21
1.3858
  0
LINE
  8
0
 10
15.4492
 20
1.3858
 11
15.4375
 21
1.39174
  0
LINE
  8
0
 10
15.4375
 20
1.39174
 11
15.4265
 21
1.39886
  0
LINE
  8
0
 10
15.4265
 20
1.39886
 11
15.4164
 21
1.4071
  0
LINE
  8
0
 10
15.4164
 20
1.4071
 11
15.4071
 21
1.41635
  0
LINE
  8
0
 10
15.4071
 20
1.41635
 11
15.3989
 21
1.42651
  0
LINE
  8
0
 10
15.3989
 20
1.42651
 11
15.3917
 21
1.4375
  0
LINE
  8
0
 10
15.3917
 20
1.4375
 11
15.3858
 21
1.44916
  0
LINE
  8
0
 10
15.3858
 20
1.44916
 11
15.3811
 21
1.46136
  0
LINE
  8
0
 10
15.3811
 20
1.46136
 11
15.3777
 21
1.474
  0
LINE
  8
0
 10
15.3777
 20
1.474
 11
15.3757
 21
1.48692
  0
LINE
  8
0
 10
15.3757
 20
1.48692
 11
15.375
 21
1.5
  0
LINE
  8
0
 10
15.375
 20
1.5
 11
15.3757
 21
1.51306
  0
LINE
  8
0
 10
15.3757
 20
1.51306
 11
15.3777
 21
1.52599
  0
LINE
  8
0
 10
15.3777
 20
1.52599
 11
15.3811
 21
1.53862
  0
LINE
  8
0
 10
15.3811
 20
1.53862
 11
15.3858
 21
1.55083
  0
LINE
  8
0
 10
15.3858
 20
1.55083
 11
15.3917
 21
1.5625
  0
LINE
  8
0
 10
15.3917
 20
1.5625
 11
15.3989
 21
1.57347
  0
LINE
  8
0
 10
15.3989
 20
1.57347
 11
15.4071
 21
1.58363
  0
LINE
  8
0
 10
15.4071
 20
1.58363
 11
15.4164
 21
1.59288
  0
LINE
  8
0
 10
15.4164
 20
1.59288
 11
15.4265
 21
1.60112
  0
LINE
  8
0
 10
15.4265
 20
1.60112
 11
15.4375
 21
1.60825
  0
LINE
  8
0
 10
15.4375
 20
1.60825
 11
15.4492
 21
1.61418
  0
LINE
  8
0
 10
15.4492
 20
1.61418
 11
15.4614
 21
1.61888
  0
LINE
  8
0
 10
15.4614
 20
1.61888
 11
15.474
 21
1.62225
  0
LINE
  8
0
 10
15.474
 20
1.62225
 11
15.4869
 21
1.62431
  0
LINE
  8
0
 10
15.4869
 20
1.62431
 11
15.5
 21
1.625
  0
LINE
  8
0
 10
15.5
 20
1.625
 11
15.5131
 21
1.62431
  0
LINE
  8
0
 10
15.5131
 20
1.62431
 11
15.526
 21
1.62225
  0
LINE
  8
0
 10
15.526
 20
1.62225
 11
15.5386
 21
1.61888
  0
LINE
  8
0
 10
15.5386
 20
1.61888
 11
15.5508
 21
1.61418
  0
LINE
  8
0
 10
15.5508
 20
1.61418
 11
15.5625
 21
1.60825
  0
LINE
  8
0
 10
15.5625
 20
1.60825
 11
15.5735
 21
1.60112
  0
LINE
  8
0
 10
15.5735
 20
1.60112
 11
15.5836
 21
1.59288
  0
LINE
  8
0
 10
15.5836
 20
1.59288
 11
15.5929
 21
1.58363
  0
LINE
  8
0
 10
15.5929
 20
1.58363
 11
15.6011
 21
1.57347
  0
LINE
  8
0
 10
15.6011
 20
1.57347
 11
15.6082
 21
1.5625
  0
LINE
  8
0
 10
15.6082
 20
1.5625
 11
15.6142
 21
1.55083
  0
LINE
  8
0
 10
15.6142
 20
1.55083
 11
15.6189
 21
1.53862
  0
LINE
  8
0
 10
15.6189
 20
1.53862
 11
15.6223
 21
1.52599
  0
LINE
  8
0
 10
15.6223
 20
1.52599
 11
15.6243
 21
1.51306
  0
LINE
  8
0
 10
15.6243
 20
1.51306
 11
15.625
 21
1.5
  0
LINE
  8
0
 10
15.625
 20
1.5
 11
15.6243
 21
1.48692
  0
LINE
  8
0
 10
15.6243
 20
1.48692
 11
15.6223
 21
1.474
  0
LINE
  8
0
 10
15.6223
 20
1.474
 11
15.6189
 21
1.46136
  0
LINE
  8
0
 10
15.6189
 20
1.46136
 11
15.6142
 21
1.44916
  0
LINE
  8
0
 10
15.6142
 20
1.44916
 11
15.6082
 21
1.4375
  0
LINE
  8
0
 10
15.6082
 20
1.4375
 11
15.6011
 21
1.42651
  0
LINE
  8
0
 10
15.6011
 20
1.42651
 11
15.5929
 21
1.41635
  0
LINE
  8
0
 10
15.5929
 20
1.41635
 11
15.5836
 21
1.4071
  0
LINE
  8
0
 10
15.5836
 20
1.4071
 11
15.5735
 21
1.39886
  0
LINE
  8
0
 10
15.5735
 20
1.39886
 11
15.5625
 21
1.39174
  0
LINE
  8
0
 10
15.5625
 20
1.39174
 11
15.5508
 21
1.3858
  0
LINE
  8
0
 10
15.5508
 20
1.3858
 11
15.5386
 21
1.3811
  0
LINE
  8
0
 10
15.5386
 20
1.3811
 11
15.526
 21
1.37773
  0
LINE
  8
0
 10
15.526
 20
1.37773
 11
15.5131
 21
1.37567
  0
LINE
  8
0
 10
15.5131
 20
1.37567
 11
15.5
 21
1.375
  0
LINE
  8
0
 10
15.5
 20
1.375
 11
15.4869
 21
1.37567
  0
LINE
  8
0
 10
15.4869
 20
0.375671
 11
15.474
 21
0.377731
  0
LINE
  8
0
 10
15.474
 20
0.377731
 11
15.4614
 21
0.381104
  0
LINE
  8
0
 10
15.4614
 20
0.381104
 11
15.4492
 21
0.385803
  0
LINE
  8
0
 10
15.4492
 20
0.385803
 11
15.4375
 21
0.391739
  0
LINE
  8
0
 10
15.4375
 20
0.391739
 11
15.4265
 21
0.398865
  0
LINE
  8
0
 10
15.4265
 20
0.398865
 11
15.4164
 21
0.407104
  0
LINE
  8
0
 10
15.4164
 20
0.407104
 11
15.4071
 21
0.416351
  0
LINE
  8
0
 10
15.4071
 20
0.416351
 11
15.3989
 21
0.426514
  0
LINE
  8
0
 10
15.3989
 20
0.426514
 11
15.3917
 21
0.4375
  0
LINE
  8
0
 10
15.3917
 20
0.4375
 11
15.3858
 21
0.449158
  0
LINE
  8
0
 10
15.3858
 20
0.449158
 11
15.3811
 21
0.461365
  0
LINE
  8
0
 10
15.3811
 20
0.461365
 11
15.3777
 21
0.473999
  0
LINE
  8
0
 10
15.3777
 20
0.473999
 11
15.3757
 21
0.486923
  0
LINE
  8
0
 10
15.3757
 20
0.486923
 11
15.375
 21
0.5
  0
LINE
  8
0
 10
15.375
 20
0.5
 11
15.3757
 21
0.513062
  0
LINE
  8
0
 10
15.3757
 20
0.513062
 11
15.3777
 21
0.525986
  0
LINE
  8
0
 10
15.3777
 20
0.525986
 11
15.3811
 21
0.53862
  0
LINE
  8
0
 10
15.3811
 20
0.53862
 11
15.3858
 21
0.550827
  0
LINE
  8
0
 10
15.3858
 20
0.550827
 11
15.3917
 21
0.5625
  0
LINE
  8
0
 10
15.3917
 20
0.5625
 11
15.3989
 21
0.573471
  0
LINE
  8
0
 10
15.3989
 20
0.573471
 11
15.4071
 21
0.583633
  0
LINE
  8
0
 10
15.4071
 20
0.583633
 11
15.4164
 21
0.59288
  0
LINE
  8
0
 10
15.4164
 20
0.59288
 11
15.4265
 21
0.60112
  0
LINE
  8
0
 10
15.4265
 20
0.60112
 11
15.4375
 21
0.608246
  0
LINE
  8
0
 10
15.4375
 20
0.608246
 11
15.4492
 21
0.614182
  0
LINE
  8
0
 10
15.4492
 20
0.614182
 11
15.4614
 21
0.618881
  0
LINE
  8
0
 10
15.4614
 20
0.618881
 11
15.474
 21
0.622253
  0
LINE
  8
0
 10
15.474
 20
0.622253
 11
15.4869
 21
0.624313
  0
LINE
  8
0
 10
15.4869
 20
0.624313
 11
15.5
 21
0.625
  0
LINE
  8
0
 10
15.5
 20
0.625
 11
15.5131
 21
0.624313
  0
LINE
  8
0
 10
15.5131
 20
0.624313
 11
15.526
 21
0.622253
  0
LINE
  8
0
 10
15.526
 20
0.622253
 11
15.5386
 21
0.618881
  0
LINE
  8
0
 10
15.5386
 20
0.618881
 11
15.5508
 21
0.614182
  0
LINE
  8
0
 10
15.5508
 20
0.614182
 11
15.5625
 21
0.608246
  0
LINE
  8
0
 10
15.5625
 20
0.608246
 11
15.5735
 21
0.60112
  0
LINE
  8
0
 10
15.5735
 20
0.60112
 11
15.5836
 21
0.59288
  0
LINE
  8
0
 10
15.5836
 20
0.59288
 11
15.5929
 21
0.583633
  0
LINE
  8
0
 10
15.5929
 20
0.583633
 11
15.6011
 21
0.573471
  0
LINE
  8
0
 10
15.6011
 20
0.573471
 11
15.6082
 21
0.5625
  0
LINE
  8
0
 10
15.6082
 20
0.5625
 11
15.6142
 21
0.550827
  0
LINE
  8
0
 10
15.6142
 20
0.550827
 11
15.6189
 21
0.53862
  0
LINE
  8
0
 10
15.6189
 20
0.53862
 11
15.6223
 21
0.525986
  0
LINE
  8
0
 10
15.6223
 20
0.525986
 11
15.6243
 21
0.513062
  0
LINE
  8
0
 10
15.6243
 20
0.513062
 11
15.625
 21
0.5
  0
LINE
  8
0
 10
15.625
 20
0.5
 11
15.6243
 21
0.486923
  0
LINE
  8
0
 10
15.6243
 20
0.486923
 11
15.6223
 21
0.473999
  0
LINE
  8
0
 10
15.6223
 20
0.473999
 11
15.6189
 21
0.461365
  0
LINE
  8
0
 10
15.6189
 20
0.461365
 11
15.6142
 21
0.449158
  0
LINE
  8
0
 10
15.6142
 20
0.449158
 11
15.6082
 21
0.4375
  0
LINE
  8
0
 10
15.6082
 20
0.4375
 11
15.6011
 21
0.426514
  0
LINE
  8
0
 10
15.6011
 20
0.426514
 11
15.5929
 21
0.416351
  0
LINE
  8
0
 10
15.5929
 20
0.416351
 11
15.5836
 21
0.407104
  0
LINE
  8
0
 10
15.5836
 20
0.407104
 11
15.5735
 21
0.398865
  0
LINE
  8
0
 10
15.5735
 20
0.398865
 11
15.5625
 21
0.391739
  0
LINE
  8
0
 10
15.5625
 20
0.391739
 11
15.5508
 21
0.385803
  0
LINE
  8
0
 10
15.5508
 20
0.385803
 11
15.5386
 21
0.381104
  0
LINE
  8
0
 10
15.5386
 20
0.381104
 11
15.526
 21
0.377731
  0
LINE
  8
0
 10
15.526
 20
0.377731
 11
15.5131
 21
0.375671
  0
LINE
  8
0
 10
15.5131
 20
0.375671
 11
15.5
 21
0.375
  0
LINE
  8
0
 10
15.5
 20
0.375
 11
15.4869
 21
0.375671
  0
ENDSEC
  0
SECTION
  2
OBJECTS
  0
DICTIONARY
  0
ENDSEC
  0
EOF
