  0
SECTION
  2
BLOCKS
  0
ENDSEC
  0
SECTION
  2
ENTITIES
  0
LINE
  8
0
 10
0.5
 20
54.5
 11
0.75
 21
54.5
  0
LINE
  8
0
 10
0.75
 20
54.5
 11
0.75
 21
54.375
  0
LINE
  8
0
 10
0.75
 20
54.375
 11
1
 21
54.375
  0
LINE
  8
0
 10
1
 20
54.375
 11
1
 21
54.5
  0
LINE
  8
0
 10
1
 20
54.5
 11
1.25
 21
54.5
  0
LINE
  8
0
 10
1.25
 20
54.5
 11
1.25
 21
54.375
  0
LINE
  8
0
 10
1.25
 20
54.375
 11
1.5
 21
54.375
  0
LINE
  8
0
 10
1.5
 20
54.375
 11
1.5
 21
54.5
  0
LINE
  8
0
 10
1.5
 20
54.5
 11
1.75
 21
54.5
  0
LINE
  8
0
 10
1.75
 20
54.5
 11
1.75
 21
54.375
  0
LINE
  8
0
 10
1.75
 20
54.375
 11
2
 21
54.375
  0
LINE
  8
0
 10
2
 20
54.375
 11
2
 21
55.5625
  0
LINE
  8
0
 10
2
 20
55.5625
 11
2.125
 21
55.5625
  0
LINE
  8
0
 10
2.125
 20
55.5625
 11
2.125
 21
56.625
  0
LINE
  8
0
 10
2.125
 20
56.625
 11
2
 21
56.625
  0
LINE
  8
0
 10
2
 20
56.625
 11
2
 21
57.6875
  0
LINE
  8
0
 10
2
 20
57.6875
 11
2.125
 21
57.6875
  0
LINE
  8
0
 10
2.125
 20
57.6875
 11
2.125
 21
58.75
  0
LINE
  8
0
 10
2.125
 20
58.75
 11
2
 21
58.75
  0
LINE
  8
0
 10
2
 20
58.75
 11
2
 21
59.8125
  0
LINE
  8
0
 10
2
 20
59.8125
 11
2.125
 21
59.8125
  0
LINE
  8
0
 10
2.125
 20
59.8125
 11
2.125
 21
60.875
  0
LINE
  8
0
 10
2.125
 20
60.875
 11
2
 21
60.875
  0
LINE
  8
0
 10
2
 20
60.875
 11
2
 21
61.9375
  0
LINE
  8
0
 10
2
 20
61.9375
 11
2.125
 21
61.9375
  0
LINE
  8
0
 10
2.125
 20
61.9375
 11
2.125
 21
63
  0
LINE
  8
0
 10
2.125
 20
63
 11
2.1875
 21
63
  0
LINE
  8
0
 10
2.1875
 20
63
 11
2.1875
 21
63.125
  0
LINE
  8
0
 10
2.1875
 20
63.125
 11
2.0625
 21
63.125
  0
LINE
  8
0
 10
2.0625
 20
63.125
 11
2.0625
 21
63
  0
LINE
  8
0
 10
2.0625
 20
63
 11
2
 21
63
  0
LINE
  8
0
 10
2
 20
63
 11
2
 21
63.125
  0
LINE
  8
0
 10
2
 20
63.125
 11
1.75
 21
63.125
  0
LINE
  8
0
 10
1.75
 20
63.125
 11
1.75
 21
63
  0
LINE
  8
0
 10
1.75
 20
63
 11
1.5
 21
63
  0
LINE
  8
0
 10
1.5
 20
63
 11
1.5
 21
63.125
  0
LINE
  8
0
 10
1.5
 20
63.125
 11
1.25
 21
63.125
  0
LINE
  8
0
 10
1.25
 20
63.125
 11
1.25
 21
63
  0
LINE
  8
0
 10
1.25
 20
63
 11
1
 21
63
  0
LINE
  8
0
 10
1
 20
63
 11
1
 21
63.125
  0
LINE
  8
0
 10
1
 20
63.125
 11
0.75
 21
63.125
  0
LINE
  8
0
 10
0.75
 20
63.125
 11
0.75
 21
63
  0
LINE
  8
0
 10
0.75
 20
63
 11
0.5
 21
63
  0
LINE
  8
0
 10
0.5
 20
63
 11
0.5
 21
63.125
  0
LINE
  8
0
 10
0.5
 20
63.125
 11
0.25
 21
63.125
  0
LINE
  8
0
 10
0.25
 20
63.125
 11
0.25
 21
63
  0
LINE
  8
0
 10
0.25
 20
63
 11
-0.125
 21
63
  0
LINE
  8
0
 10
-0.125
 20
63
 11
-0.125
 21
61.9375
  0
LINE
  8
0
 10
-0.125
 20
61.9375
 11
0
 21
61.9375
  0
LINE
  8
0
 10
0
 20
61.9375
 11
0
 21
60.875
  0
LINE
  8
0
 10
0
 20
60.875
 11
-0.125
 21
60.875
  0
LINE
  8
0
 10
-0.125
 20
60.875
 11
-0.125
 21
59.8125
  0
LINE
  8
0
 10
-0.125
 20
59.8125
 11
0
 21
59.8125
  0
LINE
  8
0
 10
0
 20
59.8125
 11
0
 21
58.75
  0
LINE
  8
0
 10
0
 20
58.75
 11
-0.125
 21
58.75
  0
LINE
  8
0
 10
-0.125
 20
58.75
 11
-0.125
 21
57.6875
  0
LINE
  8
0
 10
-0.125
 20
57.6875
 11
0
 21
57.6875
  0
LINE
  8
0
 10
0
 20
57.6875
 11
0
 21
56.625
  0
LINE
  8
0
 10
0
 20
56.625
 11
-0.125
 21
56.625
  0
LINE
  8
0
 10
-0.125
 20
56.625
 11
-0.125
 21
55.5625
  0
LINE
  8
0
 10
-0.125
 20
55.5625
 11
0
 21
55.5625
  0
LINE
  8
0
 10
0
 20
55.5625
 11
0
 21
54.5
  0
LINE
  8
0
 10
0
 20
54.5
 11
0.25
 21
54.5
  0
LINE
  8
0
 10
0.25
 20
54.5
 11
0.25
 21
54.375
  0
LINE
  8
0
 10
0.25
 20
54.375
 11
0.5
 21
54.375
  0
LINE
  8
0
 10
0.5
 20
54.375
 11
0.5
 21
54.5
  0
LINE
  8
0
 10
0.5
 20
41
 11
0.75
 21
41
  0
LINE
  8
0
 10
0.75
 20
41
 11
0.75
 21
40.875
  0
LINE
  8
0
 10
0.75
 20
40.875
 11
1
 21
40.875
  0
LINE
  8
0
 10
1
 20
40.875
 11
1
 21
41
  0
LINE
  8
0
 10
1
 20
41
 11
1.25
 21
41
  0
LINE
  8
0
 10
1.25
 20
41
 11
1.25
 21
40.875
  0
LINE
  8
0
 10
1.25
 20
40.875
 11
1.5
 21
40.875
  0
LINE
  8
0
 10
1.5
 20
40.875
 11
1.5
 21
41
  0
LINE
  8
0
 10
1.5
 20
41
 11
1.75
 21
41
  0
LINE
  8
0
 10
1.75
 20
41
 11
1.75
 21
40.875
  0
LINE
  8
0
 10
1.75
 20
40.875
 11
2
 21
40.875
  0
LINE
  8
0
 10
2
 20
40.875
 11
2
 21
42.0625
  0
LINE
  8
0
 10
2
 20
42.0625
 11
2.125
 21
42.0625
  0
LINE
  8
0
 10
2.125
 20
42.0625
 11
2.125
 21
43.125
  0
LINE
  8
0
 10
2.125
 20
43.125
 11
2
 21
43.125
  0
LINE
  8
0
 10
2
 20
43.125
 11
2
 21
44.1875
  0
LINE
  8
0
 10
2
 20
44.1875
 11
2.125
 21
44.1875
  0
LINE
  8
0
 10
2.125
 20
44.1875
 11
2.125
 21
45.25
  0
LINE
  8
0
 10
2.125
 20
45.25
 11
2
 21
45.25
  0
LINE
  8
0
 10
2
 20
45.25
 11
2
 21
46.3125
  0
LINE
  8
0
 10
2
 20
46.3125
 11
2.125
 21
46.3125
  0
LINE
  8
0
 10
2.125
 20
46.3125
 11
2.125
 21
47.375
  0
LINE
  8
0
 10
2.125
 20
47.375
 11
2
 21
47.375
  0
LINE
  8
0
 10
2
 20
47.375
 11
2
 21
48.4375
  0
LINE
  8
0
 10
2
 20
48.4375
 11
2.125
 21
48.4375
  0
LINE
  8
0
 10
2.125
 20
48.4375
 11
2.125
 21
49.5
  0
LINE
  8
0
 10
2.125
 20
49.5
 11
2
 21
49.5
  0
LINE
  8
0
 10
2
 20
49.5
 11
2
 21
49.625
  0
LINE
  8
0
 10
2
 20
49.625
 11
1.75
 21
49.625
  0
LINE
  8
0
 10
1.75
 20
49.625
 11
1.75
 21
49.5
  0
LINE
  8
0
 10
1.75
 20
49.5
 11
1.5
 21
49.5
  0
LINE
  8
0
 10
1.5
 20
49.5
 11
1.5
 21
49.625
  0
LINE
  8
0
 10
1.5
 20
49.625
 11
1.25
 21
49.625
  0
LINE
  8
0
 10
1.25
 20
49.625
 11
1.25
 21
49.5
  0
LINE
  8
0
 10
1.25
 20
49.5
 11
1
 21
49.5
  0
LINE
  8
0
 10
1
 20
49.5
 11
1
 21
49.625
  0
LINE
  8
0
 10
1
 20
49.625
 11
0.75
 21
49.625
  0
LINE
  8
0
 10
0.75
 20
49.625
 11
0.75
 21
49.5
  0
LINE
  8
0
 10
0.75
 20
49.5
 11
0.5
 21
49.5
  0
LINE
  8
0
 10
0.5
 20
49.5
 11
0.5
 21
49.625
  0
LINE
  8
0
 10
0.5
 20
49.625
 11
0.25
 21
49.625
  0
LINE
  8
0
 10
0.25
 20
49.625
 11
0.25
 21
49.5
  0
LINE
  8
0
 10
0.25
 20
49.5
 11
-0.125
 21
49.5
  0
LINE
  8
0
 10
-0.125
 20
49.5
 11
-0.125
 21
48.4375
  0
LINE
  8
0
 10
-0.125
 20
48.4375
 11
0
 21
48.4375
  0
LINE
  8
0
 10
0
 20
48.4375
 11
0
 21
47.375
  0
LINE
  8
0
 10
0
 20
47.375
 11
-0.125
 21
47.375
  0
LINE
  8
0
 10
-0.125
 20
47.375
 11
-0.125
 21
46.3125
  0
LINE
  8
0
 10
-0.125
 20
46.3125
 11
0
 21
46.3125
  0
LINE
  8
0
 10
0
 20
46.3125
 11
0
 21
45.25
  0
LINE
  8
0
 10
0
 20
45.25
 11
-0.125
 21
45.25
  0
LINE
  8
0
 10
-0.125
 20
45.25
 11
-0.125
 21
44.1875
  0
LINE
  8
0
 10
-0.125
 20
44.1875
 11
0
 21
44.1875
  0
LINE
  8
0
 10
0
 20
44.1875
 11
0
 21
43.125
  0
LINE
  8
0
 10
0
 20
43.125
 11
-0.125
 21
43.125
  0
LINE
  8
0
 10
-0.125
 20
43.125
 11
-0.125
 21
42.0625
  0
LINE
  8
0
 10
-0.125
 20
42.0625
 11
0
 21
42.0625
  0
LINE
  8
0
 10
0
 20
42.0625
 11
0
 21
41
  0
LINE
  8
0
 10
0
 20
41
 11
0.25
 21
41
  0
LINE
  8
0
 10
0.25
 20
41
 11
0.25
 21
40.875
  0
LINE
  8
0
 10
0.25
 20
40.875
 11
0.5
 21
40.875
  0
LINE
  8
0
 10
0.5
 20
40.875
 11
0.5
 21
41
  0
LINE
  8
0
 10
-0.0625
 20
36.125
 11
-0.1875
 21
36.125
  0
LINE
  8
0
 10
-0.1875
 20
36.125
 11
-0.1875
 21
36
  0
LINE
  8
0
 10
-0.1875
 20
36
 11
-0.0625
 21
36
  0
LINE
  8
0
 10
-0.0625
 20
36
 11
-0.0625
 21
36.125
  0
LINE
  8
0
 10
4.1875
 20
34
 11
6.28125
 21
34
  0
LINE
  8
0
 10
6.28125
 20
34
 11
6.28125
 21
33.875
  0
LINE
  8
0
 10
6.28125
 20
33.875
 11
8.375
 21
33.875
  0
LINE
  8
0
 10
8.375
 20
33.875
 11
8.375
 21
34
  0
LINE
  8
0
 10
8.375
 20
34
 11
10.4688
 21
34
  0
LINE
  8
0
 10
10.4688
 20
34
 11
10.4688
 21
33.875
  0
LINE
  8
0
 10
10.4688
 20
33.875
 11
12.5625
 21
33.875
  0
LINE
  8
0
 10
12.5625
 20
33.875
 11
12.5625
 21
34
  0
LINE
  8
0
 10
12.5625
 20
34
 11
14.6562
 21
34
  0
LINE
  8
0
 10
14.6562
 20
34
 11
14.6562
 21
33.875
  0
LINE
  8
0
 10
14.6562
 20
33.875
 11
16.75
 21
33.875
  0
LINE
  8
0
 10
16.75
 20
33.875
 11
16.75
 21
34
  0
LINE
  8
0
 10
16.75
 20
34
 11
16.8125
 21
34
  0
LINE
  8
0
 10
16.8125
 20
34
 11
16.8125
 21
33.875
  0
LINE
  8
0
 10
16.8125
 20
33.875
 11
16.9375
 21
33.875
  0
LINE
  8
0
 10
16.9375
 20
33.875
 11
16.9375
 21
34
  0
LINE
  8
0
 10
16.9375
 20
34
 11
16.875
 21
34
  0
LINE
  8
0
 10
16.875
 20
34
 11
16.875
 21
34.25
  0
LINE
  8
0
 10
16.875
 20
34.25
 11
16.75
 21
34.25
  0
LINE
  8
0
 10
16.75
 20
34.25
 11
16.75
 21
34.5
  0
LINE
  8
0
 10
16.75
 20
34.5
 11
16.875
 21
34.5
  0
LINE
  8
0
 10
16.875
 20
34.5
 11
16.875
 21
34.75
  0
LINE
  8
0
 10
16.875
 20
34.75
 11
16.75
 21
34.75
  0
LINE
  8
0
 10
16.75
 20
34.75
 11
16.75
 21
35
  0
LINE
  8
0
 10
16.75
 20
35
 11
16.875
 21
35
  0
LINE
  8
0
 10
16.875
 20
35
 11
16.875
 21
35.25
  0
LINE
  8
0
 10
16.875
 20
35.25
 11
16.75
 21
35.25
  0
LINE
  8
0
 10
16.75
 20
35.25
 11
16.75
 21
35.5
  0
LINE
  8
0
 10
16.75
 20
35.5
 11
16.875
 21
35.5
  0
LINE
  8
0
 10
16.875
 20
35.5
 11
16.875
 21
35.75
  0
LINE
  8
0
 10
16.875
 20
35.75
 11
16.75
 21
35.75
  0
LINE
  8
0
 10
16.75
 20
35.75
 11
16.75
 21
36
  0
LINE
  8
0
 10
16.75
 20
36
 11
14.6562
 21
36
  0
LINE
  8
0
 10
14.6562
 20
36
 11
14.6562
 21
36.125
  0
LINE
  8
0
 10
14.6562
 20
36.125
 11
12.5625
 21
36.125
  0
LINE
  8
0
 10
12.5625
 20
36.125
 11
12.5625
 21
36
  0
LINE
  8
0
 10
12.5625
 20
36
 11
10.4688
 21
36
  0
LINE
  8
0
 10
10.4688
 20
36
 11
10.4688
 21
36.125
  0
LINE
  8
0
 10
10.4688
 20
36.125
 11
8.375
 21
36.125
  0
LINE
  8
0
 10
8.375
 20
36.125
 11
8.375
 21
36
  0
LINE
  8
0
 10
8.375
 20
36
 11
6.28125
 21
36
  0
LINE
  8
0
 10
6.28125
 20
36
 11
6.28125
 21
36.125
  0
LINE
  8
0
 10
6.28125
 20
36.125
 11
4.1875
 21
36.125
  0
LINE
  8
0
 10
4.1875
 20
36.125
 11
4.1875
 21
36
  0
LINE
  8
0
 10
4.1875
 20
36
 11
2.09375
 21
36
  0
LINE
  8
0
 10
2.09375
 20
36
 11
2.09375
 21
36.125
  0
LINE
  8
0
 10
2.09375
 20
36.125
 11
0
 21
36.125
  0
LINE
  8
0
 10
0
 20
36.125
 11
0
 21
35.75
  0
LINE
  8
0
 10
0
 20
35.75
 11
-0.125
 21
35.75
  0
LINE
  8
0
 10
-0.125
 20
35.75
 11
-0.125
 21
35.5
  0
LINE
  8
0
 10
-0.125
 20
35.5
 11
0
 21
35.5
  0
LINE
  8
0
 10
0
 20
35.5
 11
0
 21
35.25
  0
LINE
  8
0
 10
0
 20
35.25
 11
-0.125
 21
35.25
  0
LINE
  8
0
 10
-0.125
 20
35.25
 11
-0.125
 21
35
  0
LINE
  8
0
 10
-0.125
 20
35
 11
0
 21
35
  0
LINE
  8
0
 10
0
 20
35
 11
0
 21
34.75
  0
LINE
  8
0
 10
0
 20
34.75
 11
-0.125
 21
34.75
  0
LINE
  8
0
 10
-0.125
 20
34.75
 11
-0.125
 21
34.5
  0
LINE
  8
0
 10
-0.125
 20
34.5
 11
0
 21
34.5
  0
LINE
  8
0
 10
0
 20
34.5
 11
0
 21
34.25
  0
LINE
  8
0
 10
0
 20
34.25
 11
-0.125
 21
34.25
  0
LINE
  8
0
 10
-0.125
 20
34.25
 11
-0.125
 21
34
  0
LINE
  8
0
 10
-0.125
 20
34
 11
2.09375
 21
34
  0
LINE
  8
0
 10
2.09375
 20
34
 11
2.09375
 21
33.875
  0
LINE
  8
0
 10
2.09375
 20
33.875
 11
4.1875
 21
33.875
  0
LINE
  8
0
 10
4.1875
 20
33.875
 11
4.1875
 21
34
  0
LINE
  8
0
 10
1.98039
 20
35.5635
 11
1.96101
 21
35.5666
  0
LINE
  8
0
 10
1.96101
 20
35.5666
 11
1.94205
 21
35.5717
  0
LINE
  8
0
 10
1.94205
 20
35.5717
 11
1.92374
 21
35.5787
  0
LINE
  8
0
 10
1.92374
 20
35.5787
 11
1.90625
 21
35.5876
  0
LINE
  8
0
 10
1.90625
 20
35.5876
 11
1.88979
 21
35.5983
  0
LINE
  8
0
 10
1.88979
 20
35.5983
 11
1.87453
 21
35.6107
  0
LINE
  8
0
 10
1.87453
 20
35.6107
 11
1.86066
 21
35.6245
  0
LINE
  8
0
 10
1.86066
 20
35.6245
 11
1.8483
 21
35.6398
  0
LINE
  8
0
 10
1.8483
 20
35.6398
 11
1.83762
 21
35.6562
  0
LINE
  8
0
 10
1.83762
 20
35.6562
 11
1.8287
 21
35.6737
  0
LINE
  8
0
 10
1.8287
 20
35.6737
 11
1.82167
 21
35.692
  0
LINE
  8
0
 10
1.82167
 20
35.692
 11
1.81659
 21
35.711
  0
LINE
  8
0
 10
1.81659
 20
35.711
 11
1.81352
 21
35.7304
  0
LINE
  8
0
 10
1.81352
 20
35.7304
 11
1.8125
 21
35.75
  0
LINE
  8
0
 10
1.8125
 20
35.75
 11
1.81352
 21
35.7696
  0
LINE
  8
0
 10
1.81352
 20
35.7696
 11
1.81659
 21
35.789
  0
LINE
  8
0
 10
1.81659
 20
35.789
 11
1.82167
 21
35.8079
  0
LINE
  8
0
 10
1.82167
 20
35.8079
 11
1.8287
 21
35.8263
  0
LINE
  8
0
 10
1.8287
 20
35.8263
 11
1.83762
 21
35.8438
  0
LINE
  8
0
 10
1.83762
 20
35.8438
 11
1.8483
 21
35.8602
  0
LINE
  8
0
 10
1.8483
 20
35.8602
 11
1.86066
 21
35.8755
  0
LINE
  8
0
 10
1.86066
 20
35.8755
 11
1.87453
 21
35.8893
  0
LINE
  8
0
 10
1.87453
 20
35.8893
 11
1.88979
 21
35.9017
  0
LINE
  8
0
 10
1.88979
 20
35.9017
 11
1.90625
 21
35.9124
  0
LINE
  8
0
 10
1.90625
 20
35.9124
 11
1.92374
 21
35.9213
  0
LINE
  8
0
 10
1.92374
 20
35.9213
 11
1.94205
 21
35.9283
  0
LINE
  8
0
 10
1.94205
 20
35.9283
 11
1.96101
 21
35.9334
  0
LINE
  8
0
 10
1.96101
 20
35.9334
 11
1.98039
 21
35.9365
  0
LINE
  8
0
 10
1.98039
 20
35.9365
 11
2
 21
35.9375
  0
LINE
  8
0
 10
2
 20
35.9375
 11
2.01959
 21
35.9365
  0
LINE
  8
0
 10
2.01959
 20
35.9365
 11
2.03897
 21
35.9334
  0
LINE
  8
0
 10
2.03897
 20
35.9334
 11
2.05794
 21
35.9283
  0
LINE
  8
0
 10
2.05794
 20
35.9283
 11
2.07625
 21
35.9213
  0
LINE
  8
0
 10
2.07625
 20
35.9213
 11
2.09375
 21
35.9124
  0
LINE
  8
0
 10
2.09375
 20
35.9124
 11
2.1102
 21
35.9017
  0
LINE
  8
0
 10
2.1102
 20
35.9017
 11
2.12546
 21
35.8893
  0
LINE
  8
0
 10
2.12546
 20
35.8893
 11
2.13933
 21
35.8755
  0
LINE
  8
0
 10
2.13933
 20
35.8755
 11
2.15169
 21
35.8602
  0
LINE
  8
0
 10
2.15169
 20
35.8602
 11
2.16237
 21
35.8438
  0
LINE
  8
0
 10
2.16237
 20
35.8438
 11
2.17128
 21
35.8263
  0
LINE
  8
0
 10
2.17128
 20
35.8263
 11
2.17831
 21
35.8079
  0
LINE
  8
0
 10
2.17831
 20
35.8079
 11
2.1834
 21
35.789
  0
LINE
  8
0
 10
2.1834
 20
35.789
 11
2.18646
 21
35.7696
  0
LINE
  8
0
 10
2.18646
 20
35.7696
 11
2.1875
 21
35.75
  0
LINE
  8
0
 10
2.1875
 20
35.75
 11
2.18646
 21
35.7304
  0
LINE
  8
0
 10
2.18646
 20
35.7304
 11
2.1834
 21
35.711
  0
LINE
  8
0
 10
2.1834
 20
35.711
 11
2.17831
 21
35.692
  0
LINE
  8
0
 10
2.17831
 20
35.692
 11
2.17128
 21
35.6737
  0
LINE
  8
0
 10
2.17128
 20
35.6737
 11
2.16237
 21
35.6562
  0
LINE
  8
0
 10
2.16237
 20
35.6562
 11
2.15169
 21
35.6398
  0
LINE
  8
0
 10
2.15169
 20
35.6398
 11
2.13933
 21
35.6245
  0
LINE
  8
0
 10
2.13933
 20
35.6245
 11
2.12546
 21
35.6107
  0
LINE
  8
0
 10
2.12546
 20
35.6107
 11
2.1102
 21
35.5983
  0
LINE
  8
0
 10
2.1102
 20
35.5983
 11
2.09375
 21
35.5876
  0
LINE
  8
0
 10
2.09375
 20
35.5876
 11
2.07625
 21
35.5787
  0
LINE
  8
0
 10
2.07625
 20
35.5787
 11
2.05794
 21
35.5717
  0
LINE
  8
0
 10
2.05794
 20
35.5717
 11
2.03897
 21
35.5666
  0
LINE
  8
0
 10
2.03897
 20
35.5666
 11
2.01959
 21
35.5635
  0
LINE
  8
0
 10
2.01959
 20
35.5635
 11
2
 21
35.5625
  0
LINE
  8
0
 10
2
 20
35.5625
 11
1.98039
 21
35.5635
  0
LINE
  8
0
 10
0.480392
 20
35.5635
 11
0.461014
 21
35.5666
  0
LINE
  8
0
 10
0.461014
 20
35.5666
 11
0.442047
 21
35.5717
  0
LINE
  8
0
 10
0.442047
 20
35.5717
 11
0.423737
 21
35.5787
  0
LINE
  8
0
 10
0.423737
 20
35.5787
 11
0.40625
 21
35.5876
  0
LINE
  8
0
 10
0.40625
 20
35.5876
 11
0.389786
 21
35.5983
  0
LINE
  8
0
 10
0.389786
 20
35.5983
 11
0.374527
 21
35.6107
  0
LINE
  8
0
 10
0.374527
 20
35.6107
 11
0.360657
 21
35.6245
  0
LINE
  8
0
 10
0.360657
 20
35.6245
 11
0.348297
 21
35.6398
  0
LINE
  8
0
 10
0.348297
 20
35.6398
 11
0.337616
 21
35.6562
  0
LINE
  8
0
 10
0.337616
 20
35.6562
 11
0.328705
 21
35.6737
  0
LINE
  8
0
 10
0.328705
 20
35.6737
 11
0.321671
 21
35.692
  0
LINE
  8
0
 10
0.321671
 20
35.692
 11
0.316589
 21
35.711
  0
LINE
  8
0
 10
0.316589
 20
35.711
 11
0.313522
 21
35.7304
  0
LINE
  8
0
 10
0.313522
 20
35.7304
 11
0.3125
 21
35.75
  0
LINE
  8
0
 10
0.3125
 20
35.75
 11
0.313522
 21
35.7696
  0
LINE
  8
0
 10
0.313522
 20
35.7696
 11
0.316589
 21
35.789
  0
LINE
  8
0
 10
0.316589
 20
35.789
 11
0.321671
 21
35.8079
  0
LINE
  8
0
 10
0.321671
 20
35.8079
 11
0.328705
 21
35.8263
  0
LINE
  8
0
 10
0.328705
 20
35.8263
 11
0.337616
 21
35.8438
  0
LINE
  8
0
 10
0.337616
 20
35.8438
 11
0.348297
 21
35.8602
  0
LINE
  8
0
 10
0.348297
 20
35.8602
 11
0.360657
 21
35.8755
  0
LINE
  8
0
 10
0.360657
 20
35.8755
 11
0.374527
 21
35.8893
  0
LINE
  8
0
 10
0.374527
 20
35.8893
 11
0.389786
 21
35.9017
  0
LINE
  8
0
 10
0.389786
 20
35.9017
 11
0.40625
 21
35.9124
  0
LINE
  8
0
 10
0.40625
 20
35.9124
 11
0.423737
 21
35.9213
  0
LINE
  8
0
 10
0.423737
 20
35.9213
 11
0.442047
 21
35.9283
  0
LINE
  8
0
 10
0.442047
 20
35.9283
 11
0.461014
 21
35.9334
  0
LINE
  8
0
 10
0.461014
 20
35.9334
 11
0.480392
 21
35.9365
  0
LINE
  8
0
 10
0.480392
 20
35.9365
 11
0.5
 21
35.9375
  0
LINE
  8
0
 10
0.5
 20
35.9375
 11
0.519592
 21
35.9365
  0
LINE
  8
0
 10
0.519592
 20
35.9365
 11
0.538971
 21
35.9334
  0
LINE
  8
0
 10
0.538971
 20
35.9334
 11
0.557938
 21
35.9283
  0
LINE
  8
0
 10
0.557938
 20
35.9283
 11
0.576248
 21
35.9213
  0
LINE
  8
0
 10
0.576248
 20
35.9213
 11
0.59375
 21
35.9124
  0
LINE
  8
0
 10
0.59375
 20
35.9124
 11
0.610199
 21
35.9017
  0
LINE
  8
0
 10
0.610199
 20
35.9017
 11
0.625458
 21
35.8893
  0
LINE
  8
0
 10
0.625458
 20
35.8893
 11
0.639328
 21
35.8755
  0
LINE
  8
0
 10
0.639328
 20
35.8755
 11
0.651688
 21
35.8602
  0
LINE
  8
0
 10
0.651688
 20
35.8602
 11
0.662369
 21
35.8438
  0
LINE
  8
0
 10
0.662369
 20
35.8438
 11
0.67128
 21
35.8263
  0
LINE
  8
0
 10
0.67128
 20
35.8263
 11
0.678314
 21
35.8079
  0
LINE
  8
0
 10
0.678314
 20
35.8079
 11
0.683395
 21
35.789
  0
LINE
  8
0
 10
0.683395
 20
35.789
 11
0.686462
 21
35.7696
  0
LINE
  8
0
 10
0.686462
 20
35.7696
 11
0.6875
 21
35.75
  0
LINE
  8
0
 10
0.6875
 20
35.75
 11
0.686462
 21
35.7304
  0
LINE
  8
0
 10
0.686462
 20
35.7304
 11
0.683395
 21
35.711
  0
LINE
  8
0
 10
0.683395
 20
35.711
 11
0.678314
 21
35.692
  0
LINE
  8
0
 10
0.678314
 20
35.692
 11
0.67128
 21
35.6737
  0
LINE
  8
0
 10
0.67128
 20
35.6737
 11
0.662369
 21
35.6562
  0
LINE
  8
0
 10
0.662369
 20
35.6562
 11
0.651688
 21
35.6398
  0
LINE
  8
0
 10
0.651688
 20
35.6398
 11
0.639328
 21
35.6245
  0
LINE
  8
0
 10
0.639328
 20
35.6245
 11
0.625458
 21
35.6107
  0
LINE
  8
0
 10
0.625458
 20
35.6107
 11
0.610199
 21
35.5983
  0
LINE
  8
0
 10
0.610199
 20
35.5983
 11
0.59375
 21
35.5876
  0
LINE
  8
0
 10
0.59375
 20
35.5876
 11
0.576248
 21
35.5787
  0
LINE
  8
0
 10
0.576248
 20
35.5787
 11
0.557938
 21
35.5717
  0
LINE
  8
0
 10
0.557938
 20
35.5717
 11
0.538971
 21
35.5666
  0
LINE
  8
0
 10
0.538971
 20
35.5666
 11
0.519592
 21
35.5635
  0
LINE
  8
0
 10
0.519592
 20
35.5635
 11
0.5
 21
35.5625
  0
LINE
  8
0
 10
0.5
 20
35.5625
 11
0.480392
 21
35.5635
  0
LINE
  8
0
 10
0.25
 20
34.25
 11
0.25
 21
35.25
  0
LINE
  8
0
 10
0.25
 20
35.25
 11
2.25
 21
35.25
  0
LINE
  8
0
 10
2.25
 20
35.25
 11
2.25
 21
34.25
  0
LINE
  8
0
 10
2.25
 20
34.25
 11
0.25
 21
34.25
  0
LINE
  8
0
 10
6
 20
34.25
 11
6
 21
35.25
  0
LINE
  8
0
 10
6
 20
35.25
 11
9.875
 21
35.25
  0
LINE
  8
0
 10
9.875
 20
35.25
 11
9.875
 21
34.25
  0
LINE
  8
0
 10
9.875
 20
34.25
 11
6
 21
34.25
  0
LINE
  8
0
 10
2.09375
 20
27
 11
4.1875
 21
27
  0
LINE
  8
0
 10
4.1875
 20
27
 11
4.1875
 21
26.875
  0
LINE
  8
0
 10
4.1875
 20
26.875
 11
6.28125
 21
26.875
  0
LINE
  8
0
 10
6.28125
 20
26.875
 11
6.28125
 21
27
  0
LINE
  8
0
 10
6.28125
 20
27
 11
8.375
 21
27
  0
LINE
  8
0
 10
8.375
 20
27
 11
8.375
 21
26.875
  0
LINE
  8
0
 10
8.375
 20
26.875
 11
10.4688
 21
26.875
  0
LINE
  8
0
 10
10.4688
 20
26.875
 11
10.4688
 21
27
  0
LINE
  8
0
 10
10.4688
 20
27
 11
12.5625
 21
27
  0
LINE
  8
0
 10
12.5625
 20
27
 11
12.5625
 21
26.875
  0
LINE
  8
0
 10
12.5625
 20
26.875
 11
14.6562
 21
26.875
  0
LINE
  8
0
 10
14.6562
 20
26.875
 11
14.6562
 21
27
  0
LINE
  8
0
 10
14.6562
 20
27
 11
16.875
 21
27
  0
LINE
  8
0
 10
16.875
 20
27
 11
16.875
 21
27.25
  0
LINE
  8
0
 10
16.875
 20
27.25
 11
16.75
 21
27.25
  0
LINE
  8
0
 10
16.75
 20
27.25
 11
16.75
 21
27.5
  0
LINE
  8
0
 10
16.75
 20
27.5
 11
16.875
 21
27.5
  0
LINE
  8
0
 10
16.875
 20
27.5
 11
16.875
 21
27.75
  0
LINE
  8
0
 10
16.875
 20
27.75
 11
16.75
 21
27.75
  0
LINE
  8
0
 10
16.75
 20
27.75
 11
16.75
 21
28
  0
LINE
  8
0
 10
16.75
 20
28
 11
16.875
 21
28
  0
LINE
  8
0
 10
16.875
 20
28
 11
16.875
 21
28.25
  0
LINE
  8
0
 10
16.875
 20
28.25
 11
16.75
 21
28.25
  0
LINE
  8
0
 10
16.75
 20
28.25
 11
16.75
 21
28.5
  0
LINE
  8
0
 10
16.75
 20
28.5
 11
16.875
 21
28.5
  0
LINE
  8
0
 10
16.875
 20
28.5
 11
16.875
 21
28.75
  0
LINE
  8
0
 10
16.875
 20
28.75
 11
16.75
 21
28.75
  0
LINE
  8
0
 10
16.75
 20
28.75
 11
16.75
 21
29
  0
LINE
  8
0
 10
16.75
 20
29
 11
14.6562
 21
29
  0
LINE
  8
0
 10
14.6562
 20
29
 11
14.6562
 21
29.125
  0
LINE
  8
0
 10
14.6562
 20
29.125
 11
12.5625
 21
29.125
  0
LINE
  8
0
 10
12.5625
 20
29.125
 11
12.5625
 21
29
  0
LINE
  8
0
 10
12.5625
 20
29
 11
10.4688
 21
29
  0
LINE
  8
0
 10
10.4688
 20
29
 11
10.4688
 21
29.125
  0
LINE
  8
0
 10
10.4688
 20
29.125
 11
8.375
 21
29.125
  0
LINE
  8
0
 10
8.375
 20
29.125
 11
8.375
 21
29
  0
LINE
  8
0
 10
8.375
 20
29
 11
6.28125
 21
29
  0
LINE
  8
0
 10
6.28125
 20
29
 11
6.28125
 21
29.125
  0
LINE
  8
0
 10
6.28125
 20
29.125
 11
4.1875
 21
29.125
  0
LINE
  8
0
 10
4.1875
 20
29.125
 11
4.1875
 21
29
  0
LINE
  8
0
 10
4.1875
 20
29
 11
2.09375
 21
29
  0
LINE
  8
0
 10
2.09375
 20
29
 11
2.09375
 21
29.125
  0
LINE
  8
0
 10
2.09375
 20
29.125
 11
0
 21
29.125
  0
LINE
  8
0
 10
0
 20
29.125
 11
0
 21
28.75
  0
LINE
  8
0
 10
0
 20
28.75
 11
-0.125
 21
28.75
  0
LINE
  8
0
 10
-0.125
 20
28.75
 11
-0.125
 21
28.5
  0
LINE
  8
0
 10
-0.125
 20
28.5
 11
0
 21
28.5
  0
LINE
  8
0
 10
0
 20
28.5
 11
0
 21
28.25
  0
LINE
  8
0
 10
0
 20
28.25
 11
-0.125
 21
28.25
  0
LINE
  8
0
 10
-0.125
 20
28.25
 11
-0.125
 21
28
  0
LINE
  8
0
 10
-0.125
 20
28
 11
0
 21
28
  0
LINE
  8
0
 10
0
 20
28
 11
0
 21
27.75
  0
LINE
  8
0
 10
0
 20
27.75
 11
-0.125
 21
27.75
  0
LINE
  8
0
 10
-0.125
 20
27.75
 11
-0.125
 21
27.5
  0
LINE
  8
0
 10
-0.125
 20
27.5
 11
0
 21
27.5
  0
LINE
  8
0
 10
0
 20
27.5
 11
0
 21
27.25
  0
LINE
  8
0
 10
0
 20
27.25
 11
-0.125
 21
27.25
  0
LINE
  8
0
 10
-0.125
 20
27.25
 11
-0.125
 21
27
  0
LINE
  8
0
 10
-0.125
 20
27
 11
0
 21
27
  0
LINE
  8
0
 10
0
 20
27
 11
0
 21
26.875
  0
LINE
  8
0
 10
0
 20
26.875
 11
2.09375
 21
26.875
  0
LINE
  8
0
 10
2.09375
 20
26.875
 11
2.09375
 21
27
  0
LINE
  8
0
 10
16.875
 20
13.4375
 11
16.75
 21
13.4375
  0
LINE
  8
0
 10
16.75
 20
13.4375
 11
16.75
 21
13.5
  0
LINE
  8
0
 10
16.75
 20
13.5
 11
16.875
 21
13.5
  0
LINE
  8
0
 10
16.875
 20
13.5
 11
16.875
 21
14.5625
  0
LINE
  8
0
 10
16.875
 20
14.5625
 11
16.75
 21
14.5625
  0
LINE
  8
0
 10
16.75
 20
14.5625
 11
16.75
 21
15.625
  0
LINE
  8
0
 10
16.75
 20
15.625
 11
16.875
 21
15.625
  0
LINE
  8
0
 10
16.875
 20
15.625
 11
16.875
 21
16.6875
  0
LINE
  8
0
 10
16.875
 20
16.6875
 11
16.75
 21
16.6875
  0
LINE
  8
0
 10
16.75
 20
16.6875
 11
16.75
 21
17.75
  0
LINE
  8
0
 10
16.75
 20
17.75
 11
16.875
 21
17.75
  0
LINE
  8
0
 10
16.875
 20
17.75
 11
16.875
 21
18.8125
  0
LINE
  8
0
 10
16.875
 20
18.8125
 11
16.75
 21
18.8125
  0
LINE
  8
0
 10
16.75
 20
18.8125
 11
16.75
 21
19.875
  0
LINE
  8
0
 10
16.75
 20
19.875
 11
16.875
 21
19.875
  0
LINE
  8
0
 10
16.875
 20
19.875
 11
16.875
 21
20.9375
  0
LINE
  8
0
 10
16.875
 20
20.9375
 11
16.75
 21
20.9375
  0
LINE
  8
0
 10
16.75
 20
20.9375
 11
16.75
 21
22.125
  0
LINE
  8
0
 10
16.75
 20
22.125
 11
14.6562
 21
22.125
  0
LINE
  8
0
 10
14.6562
 20
22.125
 11
14.6562
 21
22
  0
LINE
  8
0
 10
14.6562
 20
22
 11
12.5625
 21
22
  0
LINE
  8
0
 10
12.5625
 20
22
 11
12.5625
 21
22.125
  0
LINE
  8
0
 10
12.5625
 20
22.125
 11
10.4688
 21
22.125
  0
LINE
  8
0
 10
10.4688
 20
22.125
 11
10.4688
 21
22
  0
LINE
  8
0
 10
10.4688
 20
22
 11
8.375
 21
22
  0
LINE
  8
0
 10
8.375
 20
22
 11
8.375
 21
22.125
  0
LINE
  8
0
 10
8.375
 20
22.125
 11
6.28125
 21
22.125
  0
LINE
  8
0
 10
6.28125
 20
22.125
 11
6.28125
 21
22
  0
LINE
  8
0
 10
6.28125
 20
22
 11
4.1875
 21
22
  0
LINE
  8
0
 10
4.1875
 20
22
 11
4.1875
 21
22.125
  0
LINE
  8
0
 10
4.1875
 20
22.125
 11
2.09375
 21
22.125
  0
LINE
  8
0
 10
2.09375
 20
22.125
 11
2.09375
 21
22
  0
LINE
  8
0
 10
2.09375
 20
22
 11
0
 21
22
  0
LINE
  8
0
 10
0
 20
22
 11
0
 21
20.9375
  0
LINE
  8
0
 10
0
 20
20.9375
 11
-0.125
 21
20.9375
  0
LINE
  8
0
 10
-0.125
 20
20.9375
 11
-0.125
 21
19.875
  0
LINE
  8
0
 10
-0.125
 20
19.875
 11
0
 21
19.875
  0
LINE
  8
0
 10
0
 20
19.875
 11
0
 21
18.8125
  0
LINE
  8
0
 10
0
 20
18.8125
 11
-0.125
 21
18.8125
  0
LINE
  8
0
 10
-0.125
 20
18.8125
 11
-0.125
 21
17.75
  0
LINE
  8
0
 10
-0.125
 20
17.75
 11
0
 21
17.75
  0
LINE
  8
0
 10
0
 20
17.75
 11
0
 21
16.6875
  0
LINE
  8
0
 10
0
 20
16.6875
 11
-0.125
 21
16.6875
  0
LINE
  8
0
 10
-0.125
 20
16.6875
 11
-0.125
 21
15.625
  0
LINE
  8
0
 10
-0.125
 20
15.625
 11
0
 21
15.625
  0
LINE
  8
0
 10
0
 20
15.625
 11
0
 21
14.5625
  0
LINE
  8
0
 10
0
 20
14.5625
 11
-0.125
 21
14.5625
  0
LINE
  8
0
 10
-0.125
 20
14.5625
 11
-0.125
 21
13.5
  0
LINE
  8
0
 10
-0.125
 20
13.5
 11
-0.1875
 21
13.5
  0
LINE
  8
0
 10
-0.1875
 20
13.5
 11
-0.1875
 21
13.375
  0
LINE
  8
0
 10
-0.1875
 20
13.375
 11
-0.0625
 21
13.375
  0
LINE
  8
0
 10
-0.0625
 20
13.375
 11
-0.0625
 21
13.5
  0
LINE
  8
0
 10
-0.0625
 20
13.5
 11
2.09375
 21
13.5
  0
LINE
  8
0
 10
2.09375
 20
13.5
 11
2.09375
 21
13.375
  0
LINE
  8
0
 10
2.09375
 20
13.375
 11
4.1875
 21
13.375
  0
LINE
  8
0
 10
4.1875
 20
13.375
 11
4.1875
 21
13.5
  0
LINE
  8
0
 10
4.1875
 20
13.5
 11
6.28125
 21
13.5
  0
LINE
  8
0
 10
6.28125
 20
13.5
 11
6.28125
 21
13.375
  0
LINE
  8
0
 10
6.28125
 20
13.375
 11
8.375
 21
13.375
  0
LINE
  8
0
 10
8.375
 20
13.375
 11
8.375
 21
13.5
  0
LINE
  8
0
 10
8.375
 20
13.5
 11
10.4688
 21
13.5
  0
LINE
  8
0
 10
10.4688
 20
13.5
 11
10.4688
 21
13.375
  0
LINE
  8
0
 10
10.4688
 20
13.375
 11
12.5625
 21
13.375
  0
LINE
  8
0
 10
12.5625
 20
13.375
 11
12.5625
 21
13.5
  0
LINE
  8
0
 10
12.5625
 20
13.5
 11
14.6562
 21
13.5
  0
LINE
  8
0
 10
14.6562
 20
13.5
 11
14.6562
 21
13.375
  0
LINE
  8
0
 10
14.6562
 20
13.375
 11
16.75
 21
13.375
  0
LINE
  8
0
 10
16.75
 20
13.375
 11
16.75
 21
13.3125
  0
LINE
  8
0
 10
16.75
 20
13.3125
 11
16.875
 21
13.3125
  0
LINE
  8
0
 10
16.875
 20
13.3125
 11
16.875
 21
13.4375
  0
LINE
  8
0
 10
7
 20
17.75
 11
7
 21
21.75
  0
LINE
  8
0
 10
7
 20
21.75
 11
9
 21
21.75
  0
LINE
  8
0
 10
9
 20
21.75
 11
9
 21
17.75
  0
LINE
  8
0
 10
9
 20
17.75
 11
7
 21
17.75
  0
LINE
  8
0
 10
0.25
 20
17.75
 11
0.25
 21
21.75
  0
LINE
  8
0
 10
0.25
 20
21.75
 11
2.25
 21
21.75
  0
LINE
  8
0
 10
2.25
 20
21.75
 11
2.25
 21
17.75
  0
LINE
  8
0
 10
2.25
 20
17.75
 11
0.25
 21
17.75
  0
LINE
  8
0
 10
4.75
 20
17.75
 11
4.75
 21
21.75
  0
LINE
  8
0
 10
4.75
 20
21.75
 11
6.75
 21
21.75
  0
LINE
  8
0
 10
6.75
 20
21.75
 11
6.75
 21
17.75
  0
LINE
  8
0
 10
6.75
 20
17.75
 11
4.75
 21
17.75
  0
LINE
  8
0
 10
9.5
 20
17.75
 11
9.5
 21
21.75
  0
LINE
  8
0
 10
9.5
 20
21.75
 11
11.5
 21
21.75
  0
LINE
  8
0
 10
11.5
 20
21.75
 11
11.5
 21
17.75
  0
LINE
  8
0
 10
11.5
 20
17.75
 11
9.5
 21
17.75
  0
LINE
  8
0
 10
14.4
 20
17.75
 11
14.4
 21
21.75
  0
LINE
  8
0
 10
14.4
 20
21.75
 11
16.4
 21
21.75
  0
LINE
  8
0
 10
16.4
 20
21.75
 11
16.4
 21
17.75
  0
LINE
  8
0
 10
16.4
 20
17.75
 11
14.4
 21
17.75
  0
LINE
  8
0
 10
2.5
 20
17.75
 11
2.5
 21
21.75
  0
LINE
  8
0
 10
2.5
 20
21.75
 11
4.5
 21
21.75
  0
LINE
  8
0
 10
4.5
 20
21.75
 11
4.5
 21
17.75
  0
LINE
  8
0
 10
4.5
 20
17.75
 11
2.5
 21
17.75
  0
LINE
  8
0
 10
14.25
 20
17.75
 11
12.25
 21
17.75
  0
LINE
  8
0
 10
12.25
 20
17.75
 11
12.25
 21
21.75
  0
LINE
  8
0
 10
12.25
 20
21.75
 11
14.25
 21
21.75
  0
LINE
  8
0
 10
14.25
 20
21.75
 11
14.25
 21
17.75
  0
LINE
  8
0
 10
0.25
 20
13.75
 11
0.25
 21
16.5
  0
LINE
  8
0
 10
0.25
 20
16.5
 11
8
 21
16.5
  0
LINE
  8
0
 10
8
 20
16.5
 11
8
 21
13.75
  0
LINE
  8
0
 10
8
 20
13.75
 11
0.25
 21
13.75
  0
LINE
  8
0
 10
8.5
 20
13.75
 11
8.5
 21
16.25
  0
LINE
  8
0
 10
8.5
 20
16.25
 11
11
 21
16.25
  0
LINE
  8
0
 10
11
 20
16.25
 11
11
 21
13.75
  0
LINE
  8
0
 10
11
 20
13.75
 11
8.5
 21
13.75
  0
LINE
  8
0
 10
11.5
 20
13.75
 11
11.5
 21
16.125
  0
LINE
  8
0
 10
11.5
 20
16.125
 11
14.0625
 21
16.125
  0
LINE
  8
0
 10
14.0625
 20
16.125
 11
14.0625
 21
13.75
  0
LINE
  8
0
 10
14.0625
 20
13.75
 11
11.5
 21
13.75
  0
LINE
  8
0
 10
15.4869
 20
15.8757
 11
15.474
 21
15.8777
  0
LINE
  8
0
 10
15.474
 20
15.8777
 11
15.4614
 21
15.8811
  0
LINE
  8
0
 10
15.4614
 20
15.8811
 11
15.4492
 21
15.8858
  0
LINE
  8
0
 10
15.4492
 20
15.8858
 11
15.4375
 21
15.8917
  0
LINE
  8
0
 10
15.4375
 20
15.8917
 11
15.4265
 21
15.8989
  0
LINE
  8
0
 10
15.4265
 20
15.8989
 11
15.4164
 21
15.9071
  0
LINE
  8
0
 10
15.4164
 20
15.9071
 11
15.4071
 21
15.9164
  0
LINE
  8
0
 10
15.4071
 20
15.9164
 11
15.3989
 21
15.9265
  0
LINE
  8
0
 10
15.3989
 20
15.9265
 11
15.3917
 21
15.9375
  0
LINE
  8
0
 10
15.3917
 20
15.9375
 11
15.3858
 21
15.9492
  0
LINE
  8
0
 10
15.3858
 20
15.9492
 11
15.3811
 21
15.9614
  0
LINE
  8
0
 10
15.3811
 20
15.9614
 11
15.3777
 21
15.974
  0
LINE
  8
0
 10
15.3777
 20
15.974
 11
15.3757
 21
15.9869
  0
LINE
  8
0
 10
15.3757
 20
15.9869
 11
15.375
 21
16
  0
LINE
  8
0
 10
15.375
 20
16
 11
15.3757
 21
16.0131
  0
LINE
  8
0
 10
15.3757
 20
16.0131
 11
15.3777
 21
16.026
  0
LINE
  8
0
 10
15.3777
 20
16.026
 11
15.3811
 21
16.0386
  0
LINE
  8
0
 10
15.3811
 20
16.0386
 11
15.3858
 21
16.0508
  0
LINE
  8
0
 10
15.3858
 20
16.0508
 11
15.3917
 21
16.0625
  0
LINE
  8
0
 10
15.3917
 20
16.0625
 11
15.3989
 21
16.0735
  0
LINE
  8
0
 10
15.3989
 20
16.0735
 11
15.4071
 21
16.0836
  0
LINE
  8
0
 10
15.4071
 20
16.0836
 11
15.4164
 21
16.0929
  0
LINE
  8
0
 10
15.4164
 20
16.0929
 11
15.4265
 21
16.1011
  0
LINE
  8
0
 10
15.4265
 20
16.1011
 11
15.4375
 21
16.1082
  0
LINE
  8
0
 10
15.4375
 20
16.1082
 11
15.4492
 21
16.1142
  0
LINE
  8
0
 10
15.4492
 20
16.1142
 11
15.4614
 21
16.1189
  0
LINE
  8
0
 10
15.4614
 20
16.1189
 11
15.474
 21
16.1223
  0
LINE
  8
0
 10
15.474
 20
16.1223
 11
15.4869
 21
16.1243
  0
LINE
  8
0
 10
15.4869
 20
16.1243
 11
15.5
 21
16.125
  0
LINE
  8
0
 10
15.5
 20
16.125
 11
15.5131
 21
16.1243
  0
LINE
  8
0
 10
15.5131
 20
16.1243
 11
15.526
 21
16.1223
  0
LINE
  8
0
 10
15.526
 20
16.1223
 11
15.5386
 21
16.1189
  0
LINE
  8
0
 10
15.5386
 20
16.1189
 11
15.5508
 21
16.1142
  0
LINE
  8
0
 10
15.5508
 20
16.1142
 11
15.5625
 21
16.1082
  0
LINE
  8
0
 10
15.5625
 20
16.1082
 11
15.5735
 21
16.1011
  0
LINE
  8
0
 10
15.5735
 20
16.1011
 11
15.5836
 21
16.0929
  0
LINE
  8
0
 10
15.5836
 20
16.0929
 11
15.5929
 21
16.0836
  0
LINE
  8
0
 10
15.5929
 20
16.0836
 11
15.6011
 21
16.0735
  0
LINE
  8
0
 10
15.6011
 20
16.0735
 11
15.6082
 21
16.0625
  0
LINE
  8
0
 10
15.6082
 20
16.0625
 11
15.6142
 21
16.0508
  0
LINE
  8
0
 10
15.6142
 20
16.0508
 11
15.6189
 21
16.0386
  0
LINE
  8
0
 10
15.6189
 20
16.0386
 11
15.6223
 21
16.026
  0
LINE
  8
0
 10
15.6223
 20
16.026
 11
15.6243
 21
16.0131
  0
LINE
  8
0
 10
15.6243
 20
16.0131
 11
15.625
 21
16
  0
LINE
  8
0
 10
15.625
 20
16
 11
15.6243
 21
15.9869
  0
LINE
  8
0
 10
15.6243
 20
15.9869
 11
15.6223
 21
15.974
  0
LINE
  8
0
 10
15.6223
 20
15.974
 11
15.6189
 21
15.9614
  0
LINE
  8
0
 10
15.6189
 20
15.9614
 11
15.6142
 21
15.9492
  0
LINE
  8
0
 10
15.6142
 20
15.9492
 11
15.6082
 21
15.9375
  0
LINE
  8
0
 10
15.6082
 20
15.9375
 11
15.6011
 21
15.9265
  0
LINE
  8
0
 10
15.6011
 20
15.9265
 11
15.5929
 21
15.9164
  0
LINE
  8
0
 10
15.5929
 20
15.9164
 11
15.5836
 21
15.9071
  0
LINE
  8
0
 10
15.5836
 20
15.9071
 11
15.5735
 21
15.8989
  0
LINE
  8
0
 10
15.5735
 20
15.8989
 11
15.5625
 21
15.8917
  0
LINE
  8
0
 10
15.5625
 20
15.8917
 11
15.5508
 21
15.8858
  0
LINE
  8
0
 10
15.5508
 20
15.8858
 11
15.5386
 21
15.8811
  0
LINE
  8
0
 10
15.5386
 20
15.8811
 11
15.526
 21
15.8777
  0
LINE
  8
0
 10
15.526
 20
15.8777
 11
15.5131
 21
15.8757
  0
LINE
  8
0
 10
15.5131
 20
15.8757
 11
15.5
 21
15.875
  0
LINE
  8
0
 10
15.5
 20
15.875
 11
15.4869
 21
15.8757
  0
LINE
  8
0
 10
15.4869
 20
14.8757
 11
15.474
 21
14.8777
  0
LINE
  8
0
 10
15.474
 20
14.8777
 11
15.4614
 21
14.8811
  0
LINE
  8
0
 10
15.4614
 20
14.8811
 11
15.4492
 21
14.8858
  0
LINE
  8
0
 10
15.4492
 20
14.8858
 11
15.4375
 21
14.8917
  0
LINE
  8
0
 10
15.4375
 20
14.8917
 11
15.4265
 21
14.8989
  0
LINE
  8
0
 10
15.4265
 20
14.8989
 11
15.4164
 21
14.9071
  0
LINE
  8
0
 10
15.4164
 20
14.9071
 11
15.4071
 21
14.9164
  0
LINE
  8
0
 10
15.4071
 20
14.9164
 11
15.3989
 21
14.9265
  0
LINE
  8
0
 10
15.3989
 20
14.9265
 11
15.3917
 21
14.9375
  0
LINE
  8
0
 10
15.3917
 20
14.9375
 11
15.3858
 21
14.9492
  0
LINE
  8
0
 10
15.3858
 20
14.9492
 11
15.3811
 21
14.9614
  0
LINE
  8
0
 10
15.3811
 20
14.9614
 11
15.3777
 21
14.974
  0
LINE
  8
0
 10
15.3777
 20
14.974
 11
15.3757
 21
14.9869
  0
LINE
  8
0
 10
15.3757
 20
14.9869
 11
15.375
 21
15
  0
LINE
  8
0
 10
15.375
 20
15
 11
15.3757
 21
15.0131
  0
LINE
  8
0
 10
15.3757
 20
15.0131
 11
15.3777
 21
15.026
  0
LINE
  8
0
 10
15.3777
 20
15.026
 11
15.3811
 21
15.0386
  0
LINE
  8
0
 10
15.3811
 20
15.0386
 11
15.3858
 21
15.0508
  0
LINE
  8
0
 10
15.3858
 20
15.0508
 11
15.3917
 21
15.0625
  0
LINE
  8
0
 10
15.3917
 20
15.0625
 11
15.3989
 21
15.0735
  0
LINE
  8
0
 10
15.3989
 20
15.0735
 11
15.4071
 21
15.0836
  0
LINE
  8
0
 10
15.4071
 20
15.0836
 11
15.4164
 21
15.0929
  0
LINE
  8
0
 10
15.4164
 20
15.0929
 11
15.4265
 21
15.1011
  0
LINE
  8
0
 10
15.4265
 20
15.1011
 11
15.4375
 21
15.1082
  0
LINE
  8
0
 10
15.4375
 20
15.1082
 11
15.4492
 21
15.1142
  0
LINE
  8
0
 10
15.4492
 20
15.1142
 11
15.4614
 21
15.1189
  0
LINE
  8
0
 10
15.4614
 20
15.1189
 11
15.474
 21
15.1223
  0
LINE
  8
0
 10
15.474
 20
15.1223
 11
15.4869
 21
15.1243
  0
LINE
  8
0
 10
15.4869
 20
15.1243
 11
15.5
 21
15.125
  0
LINE
  8
0
 10
15.5
 20
15.125
 11
15.5131
 21
15.1243
  0
LINE
  8
0
 10
15.5131
 20
15.1243
 11
15.526
 21
15.1223
  0
LINE
  8
0
 10
15.526
 20
15.1223
 11
15.5386
 21
15.1189
  0
LINE
  8
0
 10
15.5386
 20
15.1189
 11
15.5508
 21
15.1142
  0
LINE
  8
0
 10
15.5508
 20
15.1142
 11
15.5625
 21
15.1082
  0
LINE
  8
0
 10
15.5625
 20
15.1082
 11
15.5735
 21
15.1011
  0
LINE
  8
0
 10
15.5735
 20
15.1011
 11
15.5836
 21
15.0929
  0
LINE
  8
0
 10
15.5836
 20
15.0929
 11
15.5929
 21
15.0836
  0
LINE
  8
0
 10
15.5929
 20
15.0836
 11
15.6011
 21
15.0735
  0
LINE
  8
0
 10
15.6011
 20
15.0735
 11
15.6082
 21
15.0625
  0
LINE
  8
0
 10
15.6082
 20
15.0625
 11
15.6142
 21
15.0508
  0
LINE
  8
0
 10
15.6142
 20
15.0508
 11
15.6189
 21
15.0386
  0
LINE
  8
0
 10
15.6189
 20
15.0386
 11
15.6223
 21
15.026
  0
LINE
  8
0
 10
15.6223
 20
15.026
 11
15.6243
 21
15.0131
  0
LINE
  8
0
 10
15.6243
 20
15.0131
 11
15.625
 21
15
  0
LINE
  8
0
 10
15.625
 20
15
 11
15.6243
 21
14.9869
  0
LINE
  8
0
 10
15.6243
 20
14.9869
 11
15.6223
 21
14.974
  0
LINE
  8
0
 10
15.6223
 20
14.974
 11
15.6189
 21
14.9614
  0
LINE
  8
0
 10
15.6189
 20
14.9614
 11
15.6142
 21
14.9492
  0
LINE
  8
0
 10
15.6142
 20
14.9492
 11
15.6082
 21
14.9375
  0
LINE
  8
0
 10
15.6082
 20
14.9375
 11
15.6011
 21
14.9265
  0
LINE
  8
0
 10
15.6011
 20
14.9265
 11
15.5929
 21
14.9164
  0
LINE
  8
0
 10
15.5929
 20
14.9164
 11
15.5836
 21
14.9071
  0
LINE
  8
0
 10
15.5836
 20
14.9071
 11
15.5735
 21
14.8989
  0
LINE
  8
0
 10
15.5735
 20
14.8989
 11
15.5625
 21
14.8917
  0
LINE
  8
0
 10
15.5625
 20
14.8917
 11
15.5508
 21
14.8858
  0
LINE
  8
0
 10
15.5508
 20
14.8858
 11
15.5386
 21
14.8811
  0
LINE
  8
0
 10
15.5386
 20
14.8811
 11
15.526
 21
14.8777
  0
LINE
  8
0
 10
15.526
 20
14.8777
 11
15.5131
 21
14.8757
  0
LINE
  8
0
 10
15.5131
 20
14.8757
 11
15.5
 21
14.875
  0
LINE
  8
0
 10
15.5
 20
14.875
 11
15.4869
 21
14.8757
  0
LINE
  8
0
 10
15.4869
 20
13.8757
 11
15.474
 21
13.8777
  0
LINE
  8
0
 10
15.474
 20
13.8777
 11
15.4614
 21
13.8811
  0
LINE
  8
0
 10
15.4614
 20
13.8811
 11
15.4492
 21
13.8858
  0
LINE
  8
0
 10
15.4492
 20
13.8858
 11
15.4375
 21
13.8917
  0
LINE
  8
0
 10
15.4375
 20
13.8917
 11
15.4265
 21
13.8989
  0
LINE
  8
0
 10
15.4265
 20
13.8989
 11
15.4164
 21
13.9071
  0
LINE
  8
0
 10
15.4164
 20
13.9071
 11
15.4071
 21
13.9164
  0
LINE
  8
0
 10
15.4071
 20
13.9164
 11
15.3989
 21
13.9265
  0
LINE
  8
0
 10
15.3989
 20
13.9265
 11
15.3917
 21
13.9375
  0
LINE
  8
0
 10
15.3917
 20
13.9375
 11
15.3858
 21
13.9492
  0
LINE
  8
0
 10
15.3858
 20
13.9492
 11
15.3811
 21
13.9614
  0
LINE
  8
0
 10
15.3811
 20
13.9614
 11
15.3777
 21
13.974
  0
LINE
  8
0
 10
15.3777
 20
13.974
 11
15.3757
 21
13.9869
  0
LINE
  8
0
 10
15.3757
 20
13.9869
 11
15.375
 21
14
  0
LINE
  8
0
 10
15.375
 20
14
 11
15.3757
 21
14.0131
  0
LINE
  8
0
 10
15.3757
 20
14.0131
 11
15.3777
 21
14.026
  0
LINE
  8
0
 10
15.3777
 20
14.026
 11
15.3811
 21
14.0386
  0
LINE
  8
0
 10
15.3811
 20
14.0386
 11
15.3858
 21
14.0508
  0
LINE
  8
0
 10
15.3858
 20
14.0508
 11
15.3917
 21
14.0625
  0
LINE
  8
0
 10
15.3917
 20
14.0625
 11
15.3989
 21
14.0735
  0
LINE
  8
0
 10
15.3989
 20
14.0735
 11
15.4071
 21
14.0836
  0
LINE
  8
0
 10
15.4071
 20
14.0836
 11
15.4164
 21
14.0929
  0
LINE
  8
0
 10
15.4164
 20
14.0929
 11
15.4265
 21
14.1011
  0
LINE
  8
0
 10
15.4265
 20
14.1011
 11
15.4375
 21
14.1082
  0
LINE
  8
0
 10
15.4375
 20
14.1082
 11
15.4492
 21
14.1142
  0
LINE
  8
0
 10
15.4492
 20
14.1142
 11
15.4614
 21
14.1189
  0
LINE
  8
0
 10
15.4614
 20
14.1189
 11
15.474
 21
14.1223
  0
LINE
  8
0
 10
15.474
 20
14.1223
 11
15.4869
 21
14.1243
  0
LINE
  8
0
 10
15.4869
 20
14.1243
 11
15.5
 21
14.125
  0
LINE
  8
0
 10
15.5
 20
14.125
 11
15.5131
 21
14.1243
  0
LINE
  8
0
 10
15.5131
 20
14.1243
 11
15.526
 21
14.1223
  0
LINE
  8
0
 10
15.526
 20
14.1223
 11
15.5386
 21
14.1189
  0
LINE
  8
0
 10
15.5386
 20
14.1189
 11
15.5508
 21
14.1142
  0
LINE
  8
0
 10
15.5508
 20
14.1142
 11
15.5625
 21
14.1082
  0
LINE
  8
0
 10
15.5625
 20
14.1082
 11
15.5735
 21
14.1011
  0
LINE
  8
0
 10
15.5735
 20
14.1011
 11
15.5836
 21
14.0929
  0
LINE
  8
0
 10
15.5836
 20
14.0929
 11
15.5929
 21
14.0836
  0
LINE
  8
0
 10
15.5929
 20
14.0836
 11
15.6011
 21
14.0735
  0
LINE
  8
0
 10
15.6011
 20
14.0735
 11
15.6082
 21
14.0625
  0
LINE
  8
0
 10
15.6082
 20
14.0625
 11
15.6142
 21
14.0508
  0
LINE
  8
0
 10
15.6142
 20
14.0508
 11
15.6189
 21
14.0386
  0
LINE
  8
0
 10
15.6189
 20
14.0386
 11
15.6223
 21
14.026
  0
LINE
  8
0
 10
15.6223
 20
14.026
 11
15.6243
 21
14.0131
  0
LINE
  8
0
 10
15.6243
 20
14.0131
 11
15.625
 21
14
  0
LINE
  8
0
 10
15.625
 20
14
 11
15.6243
 21
13.9869
  0
LINE
  8
0
 10
15.6243
 20
13.9869
 11
15.6223
 21
13.974
  0
LINE
  8
0
 10
15.6223
 20
13.974
 11
15.6189
 21
13.9614
  0
LINE
  8
0
 10
15.6189
 20
13.9614
 11
15.6142
 21
13.9492
  0
LINE
  8
0
 10
15.6142
 20
13.9492
 11
15.6082
 21
13.9375
  0
LINE
  8
0
 10
15.6082
 20
13.9375
 11
15.6011
 21
13.9265
  0
LINE
  8
0
 10
15.6011
 20
13.9265
 11
15.5929
 21
13.9164
  0
LINE
  8
0
 10
15.5929
 20
13.9164
 11
15.5836
 21
13.9071
  0
LINE
  8
0
 10
15.5836
 20
13.9071
 11
15.5735
 21
13.8989
  0
LINE
  8
0
 10
15.5735
 20
13.8989
 11
15.5625
 21
13.8917
  0
LINE
  8
0
 10
15.5625
 20
13.8917
 11
15.5508
 21
13.8858
  0
LINE
  8
0
 10
15.5508
 20
13.8858
 11
15.5386
 21
13.8811
  0
LINE
  8
0
 10
15.5386
 20
13.8811
 11
15.526
 21
13.8777
  0
LINE
  8
0
 10
15.526
 20
13.8777
 11
15.5131
 21
13.8757
  0
LINE
  8
0
 10
15.5131
 20
13.8757
 11
15.5
 21
13.875
  0
LINE
  8
0
 10
15.5
 20
13.875
 11
15.4869
 21
13.8757
  0
LINE
  8
0
 10
-0.0625
 20
8.75
 11
-0.1875
 21
8.75
  0
LINE
  8
0
 10
-0.1875
 20
8.75
 11
-0.1875
 21
8.625
  0
LINE
  8
0
 10
-0.1875
 20
8.625
 11
-0.0625
 21
8.625
  0
LINE
  8
0
 10
-0.0625
 20
8.625
 11
-0.0625
 21
8.75
  0
LINE
  8
0
 10
16.875
 20
-0.0625
 11
16.75
 21
-0.0625
  0
LINE
  8
0
 10
16.75
 20
-0.0625
 11
16.75
 21
0
  0
LINE
  8
0
 10
16.75
 20
0
 11
16.875
 21
0
  0
LINE
  8
0
 10
16.875
 20
0
 11
16.875
 21
1.0625
  0
LINE
  8
0
 10
16.875
 20
1.0625
 11
16.75
 21
1.0625
  0
LINE
  8
0
 10
16.75
 20
1.0625
 11
16.75
 21
2.125
  0
LINE
  8
0
 10
16.75
 20
2.125
 11
16.875
 21
2.125
  0
LINE
  8
0
 10
16.875
 20
2.125
 11
16.875
 21
3.1875
  0
LINE
  8
0
 10
16.875
 20
3.1875
 11
16.75
 21
3.1875
  0
LINE
  8
0
 10
16.75
 20
3.1875
 11
16.75
 21
4.25
  0
LINE
  8
0
 10
16.75
 20
4.25
 11
16.875
 21
4.25
  0
LINE
  8
0
 10
16.875
 20
4.25
 11
16.875
 21
5.3125
  0
LINE
  8
0
 10
16.875
 20
5.3125
 11
16.75
 21
5.3125
  0
LINE
  8
0
 10
16.75
 20
5.3125
 11
16.75
 21
6.375
  0
LINE
  8
0
 10
16.75
 20
6.375
 11
16.875
 21
6.375
  0
LINE
  8
0
 10
16.875
 20
6.375
 11
16.875
 21
7.4375
  0
LINE
  8
0
 10
16.875
 20
7.4375
 11
16.75
 21
7.4375
  0
LINE
  8
0
 10
16.75
 20
7.4375
 11
16.75
 21
8.5
  0
LINE
  8
0
 10
16.75
 20
8.5
 11
14.6562
 21
8.5
  0
LINE
  8
0
 10
14.6562
 20
8.5
 11
14.6562
 21
8.625
  0
LINE
  8
0
 10
14.6562
 20
8.625
 11
12.5625
 21
8.625
  0
LINE
  8
0
 10
12.5625
 20
8.625
 11
12.5625
 21
8.5
  0
LINE
  8
0
 10
12.5625
 20
8.5
 11
10.4688
 21
8.5
  0
LINE
  8
0
 10
10.4688
 20
8.5
 11
10.4688
 21
8.625
  0
LINE
  8
0
 10
10.4688
 20
8.625
 11
8.375
 21
8.625
  0
LINE
  8
0
 10
8.375
 20
8.625
 11
8.375
 21
8.5
  0
LINE
  8
0
 10
8.375
 20
8.5
 11
6.28125
 21
8.5
  0
LINE
  8
0
 10
6.28125
 20
8.5
 11
6.28125
 21
8.625
  0
LINE
  8
0
 10
6.28125
 20
8.625
 11
4.1875
 21
8.625
  0
LINE
  8
0
 10
4.1875
 20
8.625
 11
4.1875
 21
8.5
  0
LINE
  8
0
 10
4.1875
 20
8.5
 11
2.09375
 21
8.5
  0
LINE
  8
0
 10
2.09375
 20
8.5
 11
2.09375
 21
8.625
  0
LINE
  8
0
 10
2.09375
 20
8.625
 11
0
 21
8.625
  0
LINE
  8
0
 10
0
 20
8.625
 11
0
 21
7.4375
  0
LINE
  8
0
 10
0
 20
7.4375
 11
-0.125
 21
7.4375
  0
LINE
  8
0
 10
-0.125
 20
7.4375
 11
-0.125
 21
6.375
  0
LINE
  8
0
 10
-0.125
 20
6.375
 11
0
 21
6.375
  0
LINE
  8
0
 10
0
 20
6.375
 11
0
 21
5.3125
  0
LINE
  8
0
 10
0
 20
5.3125
 11
-0.125
 21
5.3125
  0
LINE
  8
0
 10
-0.125
 20
5.3125
 11
-0.125
 21
4.25
  0
LINE
  8
0
 10
-0.125
 20
4.25
 11
0
 21
4.25
  0
LINE
  8
0
 10
0
 20
4.25
 11
0
 21
3.1875
  0
LINE
  8
0
 10
0
 20
3.1875
 11
-0.125
 21
3.1875
  0
LINE
  8
0
 10
-0.125
 20
3.1875
 11
-0.125
 21
2.125
  0
LINE
  8
0
 10
-0.125
 20
2.125
 11
0
 21
2.125
  0
LINE
  8
0
 10
0
 20
2.125
 11
0
 21
1.0625
  0
LINE
  8
0
 10
0
 20
1.0625
 11
-0.125
 21
1.0625
  0
LINE
  8
0
 10
-0.125
 20
1.0625
 11
-0.125
 21
0
  0
LINE
  8
0
 10
-0.125
 20
0
 11
-0.1875
 21
0
  0
LINE
  8
0
 10
-0.1875
 20
0
 11
-0.1875
 21
-0.125
  0
LINE
  8
0
 10
-0.1875
 20
-0.125
 11
-0.0625
 21
-0.125
  0
LINE
  8
0
 10
-0.0625
 20
-0.125
 11
-0.0625
 21
0
  0
LINE
  8
0
 10
-0.0625
 20
0
 11
2.09375
 21
0
  0
LINE
  8
0
 10
2.09375
 20
0
 11
2.09375
 21
-0.125
  0
LINE
  8
0
 10
2.09375
 20
-0.125
 11
4.1875
 21
-0.125
  0
LINE
  8
0
 10
4.1875
 20
-0.125
 11
4.1875
 21
0
  0
LINE
  8
0
 10
4.1875
 20
0
 11
6.28125
 21
0
  0
LINE
  8
0
 10
6.28125
 20
0
 11
6.28125
 21
-0.125
  0
LINE
  8
0
 10
6.28125
 20
-0.125
 11
8.375
 21
-0.125
  0
LINE
  8
0
 10
8.375
 20
-0.125
 11
8.375
 21
0
  0
LINE
  8
0
 10
8.375
 20
0
 11
10.4688
 21
0
  0
LINE
  8
0
 10
10.4688
 20
0
 11
10.4688
 21
-0.125
  0
LINE
  8
0
 10
10.4688
 20
-0.125
 11
12.5625
 21
-0.125
  0
LINE
  8
0
 10
12.5625
 20
-0.125
 11
12.5625
 21
0
  0
LINE
  8
0
 10
12.5625
 20
0
 11
14.6562
 21
0
  0
LINE
  8
0
 10
14.6562
 20
0
 11
14.6562
 21
-0.125
  0
LINE
  8
0
 10
14.6562
 20
-0.125
 11
16.75
 21
-0.125
  0
LINE
  8
0
 10
16.75
 20
-0.125
 11
16.75
 21
-0.1875
  0
LINE
  8
0
 10
16.75
 20
-0.1875
 11
16.875
 21
-0.1875
  0
LINE
  8
0
 10
16.875
 20
-0.1875
 11
16.875
 21
-0.0625
  0
ENDSEC
  0
SECTION
  2
OBJECTS
  0
DICTIONARY
  0
ENDSEC
  0
EOF
