%TF.GenerationSoftware,KiCad,Pcbnew,(6.0.2)*%
%TF.CreationDate,2022-04-01T15:41:45-05:00*%
%TF.ProjectId,delayEffect,64656c61-7945-4666-9665-63742e6b6963,rev?*%
%TF.SameCoordinates,Original*%
%TF.FileFunction,Legend,Top*%
%TF.FilePolarity,Positive*%
%FSLAX46Y46*%
G04 Gerber Fmt 4.6, Leading zero omitted, Abs format (unit mm)*
G04 Created by KiCad (PCBNEW (6.0.2)) date 2022-04-01 15:41:45*
%MOMM*%
%LPD*%
G01*
G04 APERTURE LIST*
%ADD10C,0.150000*%
%ADD11C,0.120000*%
G04 APERTURE END LIST*
D10*
X110784285Y-100147380D02*
X110784285Y-99147380D01*
X111022380Y-99147380D01*
X111165238Y-99195000D01*
X111260476Y-99290238D01*
X111308095Y-99385476D01*
X111355714Y-99575952D01*
X111355714Y-99718809D01*
X111308095Y-99909285D01*
X111260476Y-100004523D01*
X111165238Y-100099761D01*
X111022380Y-100147380D01*
X110784285Y-100147380D01*
X112165238Y-100099761D02*
X112070000Y-100147380D01*
X111879523Y-100147380D01*
X111784285Y-100099761D01*
X111736666Y-100004523D01*
X111736666Y-99623571D01*
X111784285Y-99528333D01*
X111879523Y-99480714D01*
X112070000Y-99480714D01*
X112165238Y-99528333D01*
X112212857Y-99623571D01*
X112212857Y-99718809D01*
X111736666Y-99814047D01*
X112784285Y-100147380D02*
X112689047Y-100099761D01*
X112641428Y-100004523D01*
X112641428Y-99147380D01*
X113593809Y-100147380D02*
X113593809Y-99623571D01*
X113546190Y-99528333D01*
X113450952Y-99480714D01*
X113260476Y-99480714D01*
X113165238Y-99528333D01*
X113593809Y-100099761D02*
X113498571Y-100147380D01*
X113260476Y-100147380D01*
X113165238Y-100099761D01*
X113117619Y-100004523D01*
X113117619Y-99909285D01*
X113165238Y-99814047D01*
X113260476Y-99766428D01*
X113498571Y-99766428D01*
X113593809Y-99718809D01*
X113974761Y-99480714D02*
X114212857Y-100147380D01*
X114450952Y-99480714D02*
X114212857Y-100147380D01*
X114117619Y-100385476D01*
X114070000Y-100433095D01*
X113974761Y-100480714D01*
X115593809Y-100147380D02*
X115593809Y-99147380D01*
X115927142Y-99861666D01*
X116260476Y-99147380D01*
X116260476Y-100147380D01*
X116879523Y-100147380D02*
X116784285Y-100099761D01*
X116736666Y-100052142D01*
X116689047Y-99956904D01*
X116689047Y-99671190D01*
X116736666Y-99575952D01*
X116784285Y-99528333D01*
X116879523Y-99480714D01*
X117022380Y-99480714D01*
X117117619Y-99528333D01*
X117165238Y-99575952D01*
X117212857Y-99671190D01*
X117212857Y-99956904D01*
X117165238Y-100052142D01*
X117117619Y-100099761D01*
X117022380Y-100147380D01*
X116879523Y-100147380D01*
X118070000Y-100147380D02*
X118070000Y-99147380D01*
X118070000Y-100099761D02*
X117974761Y-100147380D01*
X117784285Y-100147380D01*
X117689047Y-100099761D01*
X117641428Y-100052142D01*
X117593809Y-99956904D01*
X117593809Y-99671190D01*
X117641428Y-99575952D01*
X117689047Y-99528333D01*
X117784285Y-99480714D01*
X117974761Y-99480714D01*
X118070000Y-99528333D01*
X118974761Y-99480714D02*
X118974761Y-100147380D01*
X118546190Y-99480714D02*
X118546190Y-100004523D01*
X118593809Y-100099761D01*
X118689047Y-100147380D01*
X118831904Y-100147380D01*
X118927142Y-100099761D01*
X118974761Y-100052142D01*
X119593809Y-100147380D02*
X119498571Y-100099761D01*
X119450952Y-100004523D01*
X119450952Y-99147380D01*
X120355714Y-100099761D02*
X120260476Y-100147380D01*
X120070000Y-100147380D01*
X119974761Y-100099761D01*
X119927142Y-100004523D01*
X119927142Y-99623571D01*
X119974761Y-99528333D01*
X120070000Y-99480714D01*
X120260476Y-99480714D01*
X120355714Y-99528333D01*
X120403333Y-99623571D01*
X120403333Y-99718809D01*
X119927142Y-99814047D01*
X137025000Y-97663095D02*
X137072619Y-97567857D01*
X137072619Y-97425000D01*
X137025000Y-97282142D01*
X136929761Y-97186904D01*
X136834523Y-97139285D01*
X136644047Y-97091666D01*
X136501190Y-97091666D01*
X136310714Y-97139285D01*
X136215476Y-97186904D01*
X136120238Y-97282142D01*
X136072619Y-97425000D01*
X136072619Y-97520238D01*
X136120238Y-97663095D01*
X136167857Y-97710714D01*
X136501190Y-97710714D01*
X136501190Y-97520238D01*
X136072619Y-98139285D02*
X137072619Y-98139285D01*
X136072619Y-98710714D01*
X137072619Y-98710714D01*
X136072619Y-99186904D02*
X137072619Y-99186904D01*
X137072619Y-99425000D01*
X137025000Y-99567857D01*
X136929761Y-99663095D01*
X136834523Y-99710714D01*
X136644047Y-99758333D01*
X136501190Y-99758333D01*
X136310714Y-99710714D01*
X136215476Y-99663095D01*
X136120238Y-99567857D01*
X136072619Y-99425000D01*
X136072619Y-99186904D01*
X134126219Y-97425000D02*
X134126219Y-97615476D01*
X134078600Y-97710714D01*
X133983361Y-97805952D01*
X133792885Y-97853571D01*
X133459552Y-97853571D01*
X133269076Y-97805952D01*
X133173838Y-97710714D01*
X133126219Y-97615476D01*
X133126219Y-97425000D01*
X133173838Y-97329761D01*
X133269076Y-97234523D01*
X133459552Y-97186904D01*
X133792885Y-97186904D01*
X133983361Y-97234523D01*
X134078600Y-97329761D01*
X134126219Y-97425000D01*
X134126219Y-98282142D02*
X133316695Y-98282142D01*
X133221457Y-98329761D01*
X133173838Y-98377380D01*
X133126219Y-98472619D01*
X133126219Y-98663095D01*
X133173838Y-98758333D01*
X133221457Y-98805952D01*
X133316695Y-98853571D01*
X134126219Y-98853571D01*
X134126219Y-99186904D02*
X134126219Y-99758333D01*
X133126219Y-99472619D02*
X134126219Y-99472619D01*
X130357619Y-97266190D02*
X131357619Y-97266190D01*
X130357619Y-97742380D02*
X131357619Y-97742380D01*
X130357619Y-98313809D01*
X131357619Y-98313809D01*
X128198571Y-97139285D02*
X128198571Y-97901190D01*
X127817619Y-97520238D02*
X128579523Y-97520238D01*
X128817619Y-98853571D02*
X128817619Y-98377380D01*
X128341428Y-98329761D01*
X128389047Y-98377380D01*
X128436666Y-98472619D01*
X128436666Y-98710714D01*
X128389047Y-98805952D01*
X128341428Y-98853571D01*
X128246190Y-98901190D01*
X128008095Y-98901190D01*
X127912857Y-98853571D01*
X127865238Y-98805952D01*
X127817619Y-98710714D01*
X127817619Y-98472619D01*
X127865238Y-98377380D01*
X127912857Y-98329761D01*
X128817619Y-99186904D02*
X127817619Y-99520238D01*
X128817619Y-99853571D01*
%TO.C,J1*%
X126027380Y-93678333D02*
X126741666Y-93678333D01*
X126884523Y-93725952D01*
X126979761Y-93821190D01*
X127027380Y-93964047D01*
X127027380Y-94059285D01*
X127027380Y-92678333D02*
X127027380Y-93249761D01*
X127027380Y-92964047D02*
X126027380Y-92964047D01*
X126170238Y-93059285D01*
X126265476Y-93154523D01*
X126313095Y-93249761D01*
%TO.C,C1*%
X118250433Y-68784742D02*
X118202814Y-68832361D01*
X118059957Y-68879980D01*
X117964719Y-68879980D01*
X117821861Y-68832361D01*
X117726623Y-68737123D01*
X117679004Y-68641885D01*
X117631385Y-68451409D01*
X117631385Y-68308552D01*
X117679004Y-68118076D01*
X117726623Y-68022838D01*
X117821861Y-67927600D01*
X117964719Y-67879980D01*
X118059957Y-67879980D01*
X118202814Y-67927600D01*
X118250433Y-67975219D01*
X119202814Y-68879980D02*
X118631385Y-68879980D01*
X118917100Y-68879980D02*
X118917100Y-67879980D01*
X118821861Y-68022838D01*
X118726623Y-68118076D01*
X118631385Y-68165695D01*
%TO.C,C2*%
X113590533Y-66406342D02*
X113542914Y-66453961D01*
X113400057Y-66501580D01*
X113304819Y-66501580D01*
X113161961Y-66453961D01*
X113066723Y-66358723D01*
X113019104Y-66263485D01*
X112971485Y-66073009D01*
X112971485Y-65930152D01*
X113019104Y-65739676D01*
X113066723Y-65644438D01*
X113161961Y-65549200D01*
X113304819Y-65501580D01*
X113400057Y-65501580D01*
X113542914Y-65549200D01*
X113590533Y-65596819D01*
X113971485Y-65596819D02*
X114019104Y-65549200D01*
X114114342Y-65501580D01*
X114352438Y-65501580D01*
X114447676Y-65549200D01*
X114495295Y-65596819D01*
X114542914Y-65692057D01*
X114542914Y-65787295D01*
X114495295Y-65930152D01*
X113923866Y-66501580D01*
X114542914Y-66501580D01*
%TO.C,C3*%
X113228333Y-78522142D02*
X113180714Y-78569761D01*
X113037857Y-78617380D01*
X112942619Y-78617380D01*
X112799761Y-78569761D01*
X112704523Y-78474523D01*
X112656904Y-78379285D01*
X112609285Y-78188809D01*
X112609285Y-78045952D01*
X112656904Y-77855476D01*
X112704523Y-77760238D01*
X112799761Y-77665000D01*
X112942619Y-77617380D01*
X113037857Y-77617380D01*
X113180714Y-77665000D01*
X113228333Y-77712619D01*
X113561666Y-77617380D02*
X114180714Y-77617380D01*
X113847380Y-77998333D01*
X113990238Y-77998333D01*
X114085476Y-78045952D01*
X114133095Y-78093571D01*
X114180714Y-78188809D01*
X114180714Y-78426904D01*
X114133095Y-78522142D01*
X114085476Y-78569761D01*
X113990238Y-78617380D01*
X113704523Y-78617380D01*
X113609285Y-78569761D01*
X113561666Y-78522142D01*
%TO.C,C4*%
X118199633Y-93752942D02*
X118152014Y-93800561D01*
X118009157Y-93848180D01*
X117913919Y-93848180D01*
X117771061Y-93800561D01*
X117675823Y-93705323D01*
X117628204Y-93610085D01*
X117580585Y-93419609D01*
X117580585Y-93276752D01*
X117628204Y-93086276D01*
X117675823Y-92991038D01*
X117771061Y-92895800D01*
X117913919Y-92848180D01*
X118009157Y-92848180D01*
X118152014Y-92895800D01*
X118199633Y-92943419D01*
X119056776Y-93181514D02*
X119056776Y-93848180D01*
X118818680Y-92800561D02*
X118580585Y-93514847D01*
X119199633Y-93514847D01*
%TO.C,C5*%
X118201332Y-75353541D02*
X118153713Y-75401160D01*
X118010856Y-75448779D01*
X117915618Y-75448779D01*
X117772760Y-75401160D01*
X117677522Y-75305922D01*
X117629903Y-75210684D01*
X117582284Y-75020208D01*
X117582284Y-74877351D01*
X117629903Y-74686875D01*
X117677522Y-74591637D01*
X117772760Y-74496399D01*
X117915618Y-74448779D01*
X118010856Y-74448779D01*
X118153713Y-74496399D01*
X118201332Y-74544018D01*
X119106094Y-74448779D02*
X118629903Y-74448779D01*
X118582284Y-74924970D01*
X118629903Y-74877351D01*
X118725141Y-74829732D01*
X118963237Y-74829732D01*
X119058475Y-74877351D01*
X119106094Y-74924970D01*
X119153713Y-75020208D01*
X119153713Y-75258303D01*
X119106094Y-75353541D01*
X119058475Y-75401160D01*
X118963237Y-75448779D01*
X118725141Y-75448779D01*
X118629903Y-75401160D01*
X118582284Y-75353541D01*
%TO.C,C6*%
X145705533Y-97791542D02*
X145657914Y-97839161D01*
X145515057Y-97886780D01*
X145419819Y-97886780D01*
X145276961Y-97839161D01*
X145181723Y-97743923D01*
X145134104Y-97648685D01*
X145086485Y-97458209D01*
X145086485Y-97315352D01*
X145134104Y-97124876D01*
X145181723Y-97029638D01*
X145276961Y-96934400D01*
X145419819Y-96886780D01*
X145515057Y-96886780D01*
X145657914Y-96934400D01*
X145705533Y-96982019D01*
X146562676Y-96886780D02*
X146372200Y-96886780D01*
X146276961Y-96934400D01*
X146229342Y-96982019D01*
X146134104Y-97124876D01*
X146086485Y-97315352D01*
X146086485Y-97696304D01*
X146134104Y-97791542D01*
X146181723Y-97839161D01*
X146276961Y-97886780D01*
X146467438Y-97886780D01*
X146562676Y-97839161D01*
X146610295Y-97791542D01*
X146657914Y-97696304D01*
X146657914Y-97458209D01*
X146610295Y-97362971D01*
X146562676Y-97315352D01*
X146467438Y-97267733D01*
X146276961Y-97267733D01*
X146181723Y-97315352D01*
X146134104Y-97362971D01*
X146086485Y-97458209D01*
%TO.C,C7*%
X145476933Y-93676742D02*
X145429314Y-93724361D01*
X145286457Y-93771980D01*
X145191219Y-93771980D01*
X145048361Y-93724361D01*
X144953123Y-93629123D01*
X144905504Y-93533885D01*
X144857885Y-93343409D01*
X144857885Y-93200552D01*
X144905504Y-93010076D01*
X144953123Y-92914838D01*
X145048361Y-92819600D01*
X145191219Y-92771980D01*
X145286457Y-92771980D01*
X145429314Y-92819600D01*
X145476933Y-92867219D01*
X145810266Y-92771980D02*
X146476933Y-92771980D01*
X146048361Y-93771980D01*
%TO.C,C8*%
X118250433Y-90222342D02*
X118202814Y-90269961D01*
X118059957Y-90317580D01*
X117964719Y-90317580D01*
X117821861Y-90269961D01*
X117726623Y-90174723D01*
X117679004Y-90079485D01*
X117631385Y-89889009D01*
X117631385Y-89746152D01*
X117679004Y-89555676D01*
X117726623Y-89460438D01*
X117821861Y-89365200D01*
X117964719Y-89317580D01*
X118059957Y-89317580D01*
X118202814Y-89365200D01*
X118250433Y-89412819D01*
X118821861Y-89746152D02*
X118726623Y-89698533D01*
X118679004Y-89650914D01*
X118631385Y-89555676D01*
X118631385Y-89508057D01*
X118679004Y-89412819D01*
X118726623Y-89365200D01*
X118821861Y-89317580D01*
X119012338Y-89317580D01*
X119107576Y-89365200D01*
X119155195Y-89412819D01*
X119202814Y-89508057D01*
X119202814Y-89555676D01*
X119155195Y-89650914D01*
X119107576Y-89698533D01*
X119012338Y-89746152D01*
X118821861Y-89746152D01*
X118726623Y-89793771D01*
X118679004Y-89841390D01*
X118631385Y-89936628D01*
X118631385Y-90127104D01*
X118679004Y-90222342D01*
X118726623Y-90269961D01*
X118821861Y-90317580D01*
X119012338Y-90317580D01*
X119107576Y-90269961D01*
X119155195Y-90222342D01*
X119202814Y-90127104D01*
X119202814Y-89936628D01*
X119155195Y-89841390D01*
X119107576Y-89793771D01*
X119012338Y-89746152D01*
%TO.C,C9*%
X145629333Y-63755542D02*
X145581714Y-63803161D01*
X145438857Y-63850780D01*
X145343619Y-63850780D01*
X145200761Y-63803161D01*
X145105523Y-63707923D01*
X145057904Y-63612685D01*
X145010285Y-63422209D01*
X145010285Y-63279352D01*
X145057904Y-63088876D01*
X145105523Y-62993638D01*
X145200761Y-62898400D01*
X145343619Y-62850780D01*
X145438857Y-62850780D01*
X145581714Y-62898400D01*
X145629333Y-62946019D01*
X146105523Y-63850780D02*
X146296000Y-63850780D01*
X146391238Y-63803161D01*
X146438857Y-63755542D01*
X146534095Y-63612685D01*
X146581714Y-63422209D01*
X146581714Y-63041257D01*
X146534095Y-62946019D01*
X146486476Y-62898400D01*
X146391238Y-62850780D01*
X146200761Y-62850780D01*
X146105523Y-62898400D01*
X146057904Y-62946019D01*
X146010285Y-63041257D01*
X146010285Y-63279352D01*
X146057904Y-63374590D01*
X146105523Y-63422209D01*
X146200761Y-63469828D01*
X146391238Y-63469828D01*
X146486476Y-63422209D01*
X146534095Y-63374590D01*
X146581714Y-63279352D01*
%TO.C,C10*%
X117369541Y-78575741D02*
X117321922Y-78623360D01*
X117179065Y-78670979D01*
X117083827Y-78670979D01*
X116940970Y-78623360D01*
X116845732Y-78528122D01*
X116798113Y-78432884D01*
X116750494Y-78242408D01*
X116750494Y-78099551D01*
X116798113Y-77909075D01*
X116845732Y-77813837D01*
X116940970Y-77718599D01*
X117083827Y-77670979D01*
X117179065Y-77670979D01*
X117321922Y-77718599D01*
X117369541Y-77766218D01*
X118321922Y-78670979D02*
X117750494Y-78670979D01*
X118036208Y-78670979D02*
X118036208Y-77670979D01*
X117940970Y-77813837D01*
X117845732Y-77909075D01*
X117750494Y-77956694D01*
X118940970Y-77670979D02*
X119036208Y-77670979D01*
X119131446Y-77718599D01*
X119179065Y-77766218D01*
X119226684Y-77861456D01*
X119274303Y-78051932D01*
X119274303Y-78290027D01*
X119226684Y-78480503D01*
X119179065Y-78575741D01*
X119131446Y-78623360D01*
X119036208Y-78670979D01*
X118940970Y-78670979D01*
X118845732Y-78623360D01*
X118798113Y-78575741D01*
X118750494Y-78480503D01*
X118702875Y-78290027D01*
X118702875Y-78051932D01*
X118750494Y-77861456D01*
X118798113Y-77766218D01*
X118845732Y-77718599D01*
X118940970Y-77670979D01*
%TO.C,C11*%
X117390942Y-82297542D02*
X117343323Y-82345161D01*
X117200466Y-82392780D01*
X117105228Y-82392780D01*
X116962371Y-82345161D01*
X116867133Y-82249923D01*
X116819514Y-82154685D01*
X116771895Y-81964209D01*
X116771895Y-81821352D01*
X116819514Y-81630876D01*
X116867133Y-81535638D01*
X116962371Y-81440400D01*
X117105228Y-81392780D01*
X117200466Y-81392780D01*
X117343323Y-81440400D01*
X117390942Y-81488019D01*
X118343323Y-82392780D02*
X117771895Y-82392780D01*
X118057609Y-82392780D02*
X118057609Y-81392780D01*
X117962371Y-81535638D01*
X117867133Y-81630876D01*
X117771895Y-81678495D01*
X119295704Y-82392780D02*
X118724276Y-82392780D01*
X119009990Y-82392780D02*
X119009990Y-81392780D01*
X118914752Y-81535638D01*
X118819514Y-81630876D01*
X118724276Y-81678495D01*
%TO.C,C12*%
X145511042Y-74169542D02*
X145463423Y-74217161D01*
X145320566Y-74264780D01*
X145225328Y-74264780D01*
X145082471Y-74217161D01*
X144987233Y-74121923D01*
X144939614Y-74026685D01*
X144891995Y-73836209D01*
X144891995Y-73693352D01*
X144939614Y-73502876D01*
X144987233Y-73407638D01*
X145082471Y-73312400D01*
X145225328Y-73264780D01*
X145320566Y-73264780D01*
X145463423Y-73312400D01*
X145511042Y-73360019D01*
X146463423Y-74264780D02*
X145891995Y-74264780D01*
X146177709Y-74264780D02*
X146177709Y-73264780D01*
X146082471Y-73407638D01*
X145987233Y-73502876D01*
X145891995Y-73550495D01*
X146844376Y-73360019D02*
X146891995Y-73312400D01*
X146987233Y-73264780D01*
X147225328Y-73264780D01*
X147320566Y-73312400D01*
X147368185Y-73360019D01*
X147415804Y-73455257D01*
X147415804Y-73550495D01*
X147368185Y-73693352D01*
X146796757Y-74264780D01*
X147415804Y-74264780D01*
%TO.C,C13*%
X145559542Y-67032142D02*
X145511923Y-67079761D01*
X145369066Y-67127380D01*
X145273828Y-67127380D01*
X145130971Y-67079761D01*
X145035733Y-66984523D01*
X144988114Y-66889285D01*
X144940495Y-66698809D01*
X144940495Y-66555952D01*
X144988114Y-66365476D01*
X145035733Y-66270238D01*
X145130971Y-66175000D01*
X145273828Y-66127380D01*
X145369066Y-66127380D01*
X145511923Y-66175000D01*
X145559542Y-66222619D01*
X146511923Y-67127380D02*
X145940495Y-67127380D01*
X146226209Y-67127380D02*
X146226209Y-66127380D01*
X146130971Y-66270238D01*
X146035733Y-66365476D01*
X145940495Y-66413095D01*
X146845257Y-66127380D02*
X147464304Y-66127380D01*
X147130971Y-66508333D01*
X147273828Y-66508333D01*
X147369066Y-66555952D01*
X147416685Y-66603571D01*
X147464304Y-66698809D01*
X147464304Y-66936904D01*
X147416685Y-67032142D01*
X147369066Y-67079761D01*
X147273828Y-67127380D01*
X146988114Y-67127380D01*
X146892876Y-67079761D01*
X146845257Y-67032142D01*
%TO.C,C14*%
X112752142Y-90587142D02*
X112704523Y-90634761D01*
X112561666Y-90682380D01*
X112466428Y-90682380D01*
X112323571Y-90634761D01*
X112228333Y-90539523D01*
X112180714Y-90444285D01*
X112133095Y-90253809D01*
X112133095Y-90110952D01*
X112180714Y-89920476D01*
X112228333Y-89825238D01*
X112323571Y-89730000D01*
X112466428Y-89682380D01*
X112561666Y-89682380D01*
X112704523Y-89730000D01*
X112752142Y-89777619D01*
X113704523Y-90682380D02*
X113133095Y-90682380D01*
X113418809Y-90682380D02*
X113418809Y-89682380D01*
X113323571Y-89825238D01*
X113228333Y-89920476D01*
X113133095Y-89968095D01*
X114561666Y-90015714D02*
X114561666Y-90682380D01*
X114323571Y-89634761D02*
X114085476Y-90349047D01*
X114704523Y-90349047D01*
%TO.C,R2*%
X145324533Y-89403180D02*
X144991200Y-88926990D01*
X144753104Y-89403180D02*
X144753104Y-88403180D01*
X145134057Y-88403180D01*
X145229295Y-88450800D01*
X145276914Y-88498419D01*
X145324533Y-88593657D01*
X145324533Y-88736514D01*
X145276914Y-88831752D01*
X145229295Y-88879371D01*
X145134057Y-88926990D01*
X144753104Y-88926990D01*
X145705485Y-88498419D02*
X145753104Y-88450800D01*
X145848342Y-88403180D01*
X146086438Y-88403180D01*
X146181676Y-88450800D01*
X146229295Y-88498419D01*
X146276914Y-88593657D01*
X146276914Y-88688895D01*
X146229295Y-88831752D01*
X145657866Y-89403180D01*
X146276914Y-89403180D01*
%TO.C,R3*%
X145430733Y-85389980D02*
X145097400Y-84913790D01*
X144859304Y-85389980D02*
X144859304Y-84389980D01*
X145240257Y-84389980D01*
X145335495Y-84437600D01*
X145383114Y-84485219D01*
X145430733Y-84580457D01*
X145430733Y-84723314D01*
X145383114Y-84818552D01*
X145335495Y-84866171D01*
X145240257Y-84913790D01*
X144859304Y-84913790D01*
X145764066Y-84389980D02*
X146383114Y-84389980D01*
X146049780Y-84770933D01*
X146192638Y-84770933D01*
X146287876Y-84818552D01*
X146335495Y-84866171D01*
X146383114Y-84961409D01*
X146383114Y-85199504D01*
X146335495Y-85294742D01*
X146287876Y-85342361D01*
X146192638Y-85389980D01*
X145906923Y-85389980D01*
X145811685Y-85342361D01*
X145764066Y-85294742D01*
%TO.C,R4*%
X145379933Y-81529180D02*
X145046600Y-81052990D01*
X144808504Y-81529180D02*
X144808504Y-80529180D01*
X145189457Y-80529180D01*
X145284695Y-80576800D01*
X145332314Y-80624419D01*
X145379933Y-80719657D01*
X145379933Y-80862514D01*
X145332314Y-80957752D01*
X145284695Y-81005371D01*
X145189457Y-81052990D01*
X144808504Y-81052990D01*
X146237076Y-80862514D02*
X146237076Y-81529180D01*
X145998980Y-80481561D02*
X145760885Y-81195847D01*
X146379933Y-81195847D01*
%TO.C,R5*%
X118144233Y-85999580D02*
X117810900Y-85523390D01*
X117572804Y-85999580D02*
X117572804Y-84999580D01*
X117953757Y-84999580D01*
X118048995Y-85047200D01*
X118096614Y-85094819D01*
X118144233Y-85190057D01*
X118144233Y-85332914D01*
X118096614Y-85428152D01*
X118048995Y-85475771D01*
X117953757Y-85523390D01*
X117572804Y-85523390D01*
X119048995Y-84999580D02*
X118572804Y-84999580D01*
X118525185Y-85475771D01*
X118572804Y-85428152D01*
X118668042Y-85380533D01*
X118906138Y-85380533D01*
X119001376Y-85428152D01*
X119048995Y-85475771D01*
X119096614Y-85571009D01*
X119096614Y-85809104D01*
X119048995Y-85904342D01*
X119001376Y-85951961D01*
X118906138Y-85999580D01*
X118668042Y-85999580D01*
X118572804Y-85951961D01*
X118525185Y-85904342D01*
%TO.C,R6*%
X145532333Y-77769980D02*
X145199000Y-77293790D01*
X144960904Y-77769980D02*
X144960904Y-76769980D01*
X145341857Y-76769980D01*
X145437095Y-76817600D01*
X145484714Y-76865219D01*
X145532333Y-76960457D01*
X145532333Y-77103314D01*
X145484714Y-77198552D01*
X145437095Y-77246171D01*
X145341857Y-77293790D01*
X144960904Y-77293790D01*
X146389476Y-76769980D02*
X146199000Y-76769980D01*
X146103761Y-76817600D01*
X146056142Y-76865219D01*
X145960904Y-77008076D01*
X145913285Y-77198552D01*
X145913285Y-77579504D01*
X145960904Y-77674742D01*
X146008523Y-77722361D01*
X146103761Y-77769980D01*
X146294238Y-77769980D01*
X146389476Y-77722361D01*
X146437095Y-77674742D01*
X146484714Y-77579504D01*
X146484714Y-77341409D01*
X146437095Y-77246171D01*
X146389476Y-77198552D01*
X146294238Y-77150933D01*
X146103761Y-77150933D01*
X146008523Y-77198552D01*
X145960904Y-77246171D01*
X145913285Y-77341409D01*
%TO.C,R7*%
X145608533Y-70988180D02*
X145275200Y-70511990D01*
X145037104Y-70988180D02*
X145037104Y-69988180D01*
X145418057Y-69988180D01*
X145513295Y-70035800D01*
X145560914Y-70083419D01*
X145608533Y-70178657D01*
X145608533Y-70321514D01*
X145560914Y-70416752D01*
X145513295Y-70464371D01*
X145418057Y-70511990D01*
X145037104Y-70511990D01*
X145941866Y-69988180D02*
X146608533Y-69988180D01*
X146179961Y-70988180D01*
%TO.C,R8*%
X118273533Y-97759780D02*
X117940200Y-97283590D01*
X117702104Y-97759780D02*
X117702104Y-96759780D01*
X118083057Y-96759780D01*
X118178295Y-96807400D01*
X118225914Y-96855019D01*
X118273533Y-96950257D01*
X118273533Y-97093114D01*
X118225914Y-97188352D01*
X118178295Y-97235971D01*
X118083057Y-97283590D01*
X117702104Y-97283590D01*
X118844961Y-97188352D02*
X118749723Y-97140733D01*
X118702104Y-97093114D01*
X118654485Y-96997876D01*
X118654485Y-96950257D01*
X118702104Y-96855019D01*
X118749723Y-96807400D01*
X118844961Y-96759780D01*
X119035438Y-96759780D01*
X119130676Y-96807400D01*
X119178295Y-96855019D01*
X119225914Y-96950257D01*
X119225914Y-96997876D01*
X119178295Y-97093114D01*
X119130676Y-97140733D01*
X119035438Y-97188352D01*
X118844961Y-97188352D01*
X118749723Y-97235971D01*
X118702104Y-97283590D01*
X118654485Y-97378828D01*
X118654485Y-97569304D01*
X118702104Y-97664542D01*
X118749723Y-97712161D01*
X118844961Y-97759780D01*
X119035438Y-97759780D01*
X119130676Y-97712161D01*
X119178295Y-97664542D01*
X119225914Y-97569304D01*
X119225914Y-97378828D01*
X119178295Y-97283590D01*
X119130676Y-97235971D01*
X119035438Y-97188352D01*
%TO.C,R9*%
X118296633Y-72181980D02*
X117963300Y-71705790D01*
X117725204Y-72181980D02*
X117725204Y-71181980D01*
X118106157Y-71181980D01*
X118201395Y-71229600D01*
X118249014Y-71277219D01*
X118296633Y-71372457D01*
X118296633Y-71515314D01*
X118249014Y-71610552D01*
X118201395Y-71658171D01*
X118106157Y-71705790D01*
X117725204Y-71705790D01*
X118772823Y-72181980D02*
X118963300Y-72181980D01*
X119058538Y-72134361D01*
X119106157Y-72086742D01*
X119201395Y-71943885D01*
X119249014Y-71753409D01*
X119249014Y-71372457D01*
X119201395Y-71277219D01*
X119153776Y-71229600D01*
X119058538Y-71181980D01*
X118868061Y-71181980D01*
X118772823Y-71229600D01*
X118725204Y-71277219D01*
X118677585Y-71372457D01*
X118677585Y-71610552D01*
X118725204Y-71705790D01*
X118772823Y-71753409D01*
X118868061Y-71801028D01*
X119058538Y-71801028D01*
X119153776Y-71753409D01*
X119201395Y-71705790D01*
X119249014Y-71610552D01*
%TO.C,U1*%
X132334296Y-62450581D02*
X132334296Y-63260105D01*
X132381915Y-63355343D01*
X132429534Y-63402962D01*
X132524772Y-63450581D01*
X132715248Y-63450581D01*
X132810486Y-63402962D01*
X132858105Y-63355343D01*
X132905724Y-63260105D01*
X132905724Y-62450581D01*
X133905724Y-63450581D02*
X133334296Y-63450581D01*
X133620010Y-63450581D02*
X133620010Y-62450581D01*
X133524772Y-62593439D01*
X133429534Y-62688677D01*
X133334296Y-62736296D01*
%TO.C,J2*%
X126539666Y-61936380D02*
X126539666Y-62650666D01*
X126492047Y-62793523D01*
X126396809Y-62888761D01*
X126253952Y-62936380D01*
X126158714Y-62936380D01*
X126968238Y-62031619D02*
X127015857Y-61984000D01*
X127111095Y-61936380D01*
X127349190Y-61936380D01*
X127444428Y-61984000D01*
X127492047Y-62031619D01*
X127539666Y-62126857D01*
X127539666Y-62222095D01*
X127492047Y-62364952D01*
X126920619Y-62936380D01*
X127539666Y-62936380D01*
D11*
%TO.C,J1*%
X127575000Y-95945000D02*
X127575000Y-94615000D01*
X128905000Y-95945000D02*
X127575000Y-95945000D01*
X127575000Y-93345000D02*
X127575000Y-90745000D01*
X130175000Y-93345000D02*
X127575000Y-93345000D01*
X130175000Y-95945000D02*
X130175000Y-93345000D01*
X127575000Y-90745000D02*
X137855000Y-90745000D01*
X130175000Y-95945000D02*
X137855000Y-95945000D01*
X137855000Y-95945000D02*
X137855000Y-90745000D01*
%TO.C,C1*%
X121441978Y-69188400D02*
X120924822Y-69188400D01*
X121441978Y-67768400D02*
X120924822Y-67768400D01*
%TO.C,C2*%
X116377200Y-69799200D02*
G75*
G03*
X116377200Y-69799200I-2620000J0D01*
G01*
X113757200Y-70839200D02*
X113757200Y-72379200D01*
X113757200Y-67219200D02*
X113757200Y-68759200D01*
X113797200Y-70839200D02*
X113797200Y-72379200D01*
X113797200Y-67219200D02*
X113797200Y-68759200D01*
X113837200Y-67220200D02*
X113837200Y-68759200D01*
X113837200Y-70839200D02*
X113837200Y-72378200D01*
X113877200Y-67221200D02*
X113877200Y-68759200D01*
X113877200Y-70839200D02*
X113877200Y-72377200D01*
X113917200Y-67223200D02*
X113917200Y-68759200D01*
X113917200Y-70839200D02*
X113917200Y-72375200D01*
X113957200Y-67226200D02*
X113957200Y-68759200D01*
X113957200Y-70839200D02*
X113957200Y-72372200D01*
X113997200Y-67230200D02*
X113997200Y-68759200D01*
X113997200Y-70839200D02*
X113997200Y-72368200D01*
X114037200Y-67234200D02*
X114037200Y-68759200D01*
X114037200Y-70839200D02*
X114037200Y-72364200D01*
X114077200Y-67238200D02*
X114077200Y-68759200D01*
X114077200Y-70839200D02*
X114077200Y-72360200D01*
X114117200Y-67243200D02*
X114117200Y-68759200D01*
X114117200Y-70839200D02*
X114117200Y-72355200D01*
X114157200Y-67249200D02*
X114157200Y-68759200D01*
X114157200Y-70839200D02*
X114157200Y-72349200D01*
X114197200Y-67256200D02*
X114197200Y-68759200D01*
X114197200Y-70839200D02*
X114197200Y-72342200D01*
X114237200Y-67263200D02*
X114237200Y-68759200D01*
X114237200Y-70839200D02*
X114237200Y-72335200D01*
X114277200Y-67271200D02*
X114277200Y-68759200D01*
X114277200Y-70839200D02*
X114277200Y-72327200D01*
X114317200Y-67279200D02*
X114317200Y-68759200D01*
X114317200Y-70839200D02*
X114317200Y-72319200D01*
X114357200Y-67288200D02*
X114357200Y-68759200D01*
X114357200Y-70839200D02*
X114357200Y-72310200D01*
X114397200Y-67298200D02*
X114397200Y-68759200D01*
X114397200Y-70839200D02*
X114397200Y-72300200D01*
X114437200Y-67308200D02*
X114437200Y-68759200D01*
X114437200Y-70839200D02*
X114437200Y-72290200D01*
X114478200Y-67319200D02*
X114478200Y-68759200D01*
X114478200Y-70839200D02*
X114478200Y-72279200D01*
X114518200Y-67331200D02*
X114518200Y-68759200D01*
X114518200Y-70839200D02*
X114518200Y-72267200D01*
X114558200Y-67344200D02*
X114558200Y-68759200D01*
X114558200Y-70839200D02*
X114558200Y-72254200D01*
X114598200Y-67357200D02*
X114598200Y-68759200D01*
X114598200Y-70839200D02*
X114598200Y-72241200D01*
X114638200Y-67371200D02*
X114638200Y-68759200D01*
X114638200Y-70839200D02*
X114638200Y-72227200D01*
X114678200Y-67385200D02*
X114678200Y-68759200D01*
X114678200Y-70839200D02*
X114678200Y-72213200D01*
X114718200Y-67401200D02*
X114718200Y-68759200D01*
X114718200Y-70839200D02*
X114718200Y-72197200D01*
X114758200Y-67417200D02*
X114758200Y-68759200D01*
X114758200Y-70839200D02*
X114758200Y-72181200D01*
X114798200Y-67434200D02*
X114798200Y-68759200D01*
X114798200Y-70839200D02*
X114798200Y-72164200D01*
X114838200Y-67451200D02*
X114838200Y-68759200D01*
X114838200Y-70839200D02*
X114838200Y-72147200D01*
X114878200Y-67470200D02*
X114878200Y-68759200D01*
X114878200Y-70839200D02*
X114878200Y-72128200D01*
X114918200Y-67489200D02*
X114918200Y-68759200D01*
X114918200Y-70839200D02*
X114918200Y-72109200D01*
X114958200Y-67509200D02*
X114958200Y-68759200D01*
X114958200Y-70839200D02*
X114958200Y-72089200D01*
X114998200Y-67531200D02*
X114998200Y-68759200D01*
X114998200Y-70839200D02*
X114998200Y-72067200D01*
X115038200Y-67552200D02*
X115038200Y-68759200D01*
X115038200Y-70839200D02*
X115038200Y-72046200D01*
X115078200Y-67575200D02*
X115078200Y-68759200D01*
X115078200Y-70839200D02*
X115078200Y-72023200D01*
X115118200Y-67599200D02*
X115118200Y-68759200D01*
X115118200Y-70839200D02*
X115118200Y-71999200D01*
X115158200Y-67624200D02*
X115158200Y-68759200D01*
X115158200Y-70839200D02*
X115158200Y-71974200D01*
X115198200Y-67650200D02*
X115198200Y-68759200D01*
X115198200Y-70839200D02*
X115198200Y-71948200D01*
X115238200Y-67677200D02*
X115238200Y-68759200D01*
X115238200Y-70839200D02*
X115238200Y-71921200D01*
X115278200Y-67704200D02*
X115278200Y-68759200D01*
X115278200Y-70839200D02*
X115278200Y-71894200D01*
X115318200Y-67734200D02*
X115318200Y-68759200D01*
X115318200Y-70839200D02*
X115318200Y-71864200D01*
X115358200Y-67764200D02*
X115358200Y-68759200D01*
X115358200Y-70839200D02*
X115358200Y-71834200D01*
X115398200Y-67795200D02*
X115398200Y-68759200D01*
X115398200Y-70839200D02*
X115398200Y-71803200D01*
X115438200Y-67828200D02*
X115438200Y-68759200D01*
X115438200Y-70839200D02*
X115438200Y-71770200D01*
X115478200Y-67862200D02*
X115478200Y-68759200D01*
X115478200Y-70839200D02*
X115478200Y-71736200D01*
X115518200Y-67898200D02*
X115518200Y-68759200D01*
X115518200Y-70839200D02*
X115518200Y-71700200D01*
X115558200Y-67935200D02*
X115558200Y-68759200D01*
X115558200Y-70839200D02*
X115558200Y-71663200D01*
X115598200Y-67973200D02*
X115598200Y-68759200D01*
X115598200Y-70839200D02*
X115598200Y-71625200D01*
X115638200Y-68014200D02*
X115638200Y-68759200D01*
X115638200Y-70839200D02*
X115638200Y-71584200D01*
X115678200Y-68056200D02*
X115678200Y-68759200D01*
X115678200Y-70839200D02*
X115678200Y-71542200D01*
X115718200Y-68100200D02*
X115718200Y-68759200D01*
X115718200Y-70839200D02*
X115718200Y-71498200D01*
X115758200Y-68146200D02*
X115758200Y-68759200D01*
X115758200Y-70839200D02*
X115758200Y-71452200D01*
X115798200Y-68194200D02*
X115798200Y-71404200D01*
X115838200Y-68245200D02*
X115838200Y-71353200D01*
X115878200Y-68299200D02*
X115878200Y-71299200D01*
X115918200Y-68356200D02*
X115918200Y-71242200D01*
X115958200Y-68416200D02*
X115958200Y-71182200D01*
X115998200Y-68480200D02*
X115998200Y-71118200D01*
X116038200Y-68548200D02*
X116038200Y-71050200D01*
X116078200Y-68621200D02*
X116078200Y-70977200D01*
X116118200Y-68701200D02*
X116118200Y-70897200D01*
X116158200Y-68788200D02*
X116158200Y-70810200D01*
X116198200Y-68884200D02*
X116198200Y-70714200D01*
X116238200Y-68994200D02*
X116238200Y-70604200D01*
X116278200Y-69122200D02*
X116278200Y-70476200D01*
X116318200Y-69281200D02*
X116318200Y-70317200D01*
X116358200Y-69515200D02*
X116358200Y-70083200D01*
X110952425Y-68324200D02*
X111452425Y-68324200D01*
X111202425Y-68074200D02*
X111202425Y-68574200D01*
%TO.C,C3*%
X110840225Y-80190000D02*
X110840225Y-80690000D01*
X110590225Y-80440000D02*
X111090225Y-80440000D01*
X115996000Y-81631000D02*
X115996000Y-82199000D01*
X115956000Y-81397000D02*
X115956000Y-82433000D01*
X115916000Y-81238000D02*
X115916000Y-82592000D01*
X115876000Y-81110000D02*
X115876000Y-82720000D01*
X115836000Y-81000000D02*
X115836000Y-82830000D01*
X115796000Y-80904000D02*
X115796000Y-82926000D01*
X115756000Y-80817000D02*
X115756000Y-83013000D01*
X115716000Y-80737000D02*
X115716000Y-83093000D01*
X115676000Y-80664000D02*
X115676000Y-83166000D01*
X115636000Y-80596000D02*
X115636000Y-83234000D01*
X115596000Y-80532000D02*
X115596000Y-83298000D01*
X115556000Y-80472000D02*
X115556000Y-83358000D01*
X115516000Y-80415000D02*
X115516000Y-83415000D01*
X115476000Y-80361000D02*
X115476000Y-83469000D01*
X115436000Y-80310000D02*
X115436000Y-83520000D01*
X115396000Y-82955000D02*
X115396000Y-83568000D01*
X115396000Y-80262000D02*
X115396000Y-80875000D01*
X115356000Y-82955000D02*
X115356000Y-83614000D01*
X115356000Y-80216000D02*
X115356000Y-80875000D01*
X115316000Y-82955000D02*
X115316000Y-83658000D01*
X115316000Y-80172000D02*
X115316000Y-80875000D01*
X115276000Y-82955000D02*
X115276000Y-83700000D01*
X115276000Y-80130000D02*
X115276000Y-80875000D01*
X115236000Y-82955000D02*
X115236000Y-83741000D01*
X115236000Y-80089000D02*
X115236000Y-80875000D01*
X115196000Y-82955000D02*
X115196000Y-83779000D01*
X115196000Y-80051000D02*
X115196000Y-80875000D01*
X115156000Y-82955000D02*
X115156000Y-83816000D01*
X115156000Y-80014000D02*
X115156000Y-80875000D01*
X115116000Y-82955000D02*
X115116000Y-83852000D01*
X115116000Y-79978000D02*
X115116000Y-80875000D01*
X115076000Y-82955000D02*
X115076000Y-83886000D01*
X115076000Y-79944000D02*
X115076000Y-80875000D01*
X115036000Y-82955000D02*
X115036000Y-83919000D01*
X115036000Y-79911000D02*
X115036000Y-80875000D01*
X114996000Y-82955000D02*
X114996000Y-83950000D01*
X114996000Y-79880000D02*
X114996000Y-80875000D01*
X114956000Y-82955000D02*
X114956000Y-83980000D01*
X114956000Y-79850000D02*
X114956000Y-80875000D01*
X114916000Y-82955000D02*
X114916000Y-84010000D01*
X114916000Y-79820000D02*
X114916000Y-80875000D01*
X114876000Y-82955000D02*
X114876000Y-84037000D01*
X114876000Y-79793000D02*
X114876000Y-80875000D01*
X114836000Y-82955000D02*
X114836000Y-84064000D01*
X114836000Y-79766000D02*
X114836000Y-80875000D01*
X114796000Y-82955000D02*
X114796000Y-84090000D01*
X114796000Y-79740000D02*
X114796000Y-80875000D01*
X114756000Y-82955000D02*
X114756000Y-84115000D01*
X114756000Y-79715000D02*
X114756000Y-80875000D01*
X114716000Y-82955000D02*
X114716000Y-84139000D01*
X114716000Y-79691000D02*
X114716000Y-80875000D01*
X114676000Y-82955000D02*
X114676000Y-84162000D01*
X114676000Y-79668000D02*
X114676000Y-80875000D01*
X114636000Y-82955000D02*
X114636000Y-84183000D01*
X114636000Y-79647000D02*
X114636000Y-80875000D01*
X114596000Y-82955000D02*
X114596000Y-84205000D01*
X114596000Y-79625000D02*
X114596000Y-80875000D01*
X114556000Y-82955000D02*
X114556000Y-84225000D01*
X114556000Y-79605000D02*
X114556000Y-80875000D01*
X114516000Y-82955000D02*
X114516000Y-84244000D01*
X114516000Y-79586000D02*
X114516000Y-80875000D01*
X114476000Y-82955000D02*
X114476000Y-84263000D01*
X114476000Y-79567000D02*
X114476000Y-80875000D01*
X114436000Y-82955000D02*
X114436000Y-84280000D01*
X114436000Y-79550000D02*
X114436000Y-80875000D01*
X114396000Y-82955000D02*
X114396000Y-84297000D01*
X114396000Y-79533000D02*
X114396000Y-80875000D01*
X114356000Y-82955000D02*
X114356000Y-84313000D01*
X114356000Y-79517000D02*
X114356000Y-80875000D01*
X114316000Y-82955000D02*
X114316000Y-84329000D01*
X114316000Y-79501000D02*
X114316000Y-80875000D01*
X114276000Y-82955000D02*
X114276000Y-84343000D01*
X114276000Y-79487000D02*
X114276000Y-80875000D01*
X114236000Y-82955000D02*
X114236000Y-84357000D01*
X114236000Y-79473000D02*
X114236000Y-80875000D01*
X114196000Y-82955000D02*
X114196000Y-84370000D01*
X114196000Y-79460000D02*
X114196000Y-80875000D01*
X114156000Y-82955000D02*
X114156000Y-84383000D01*
X114156000Y-79447000D02*
X114156000Y-80875000D01*
X114116000Y-82955000D02*
X114116000Y-84395000D01*
X114116000Y-79435000D02*
X114116000Y-80875000D01*
X114075000Y-82955000D02*
X114075000Y-84406000D01*
X114075000Y-79424000D02*
X114075000Y-80875000D01*
X114035000Y-82955000D02*
X114035000Y-84416000D01*
X114035000Y-79414000D02*
X114035000Y-80875000D01*
X113995000Y-82955000D02*
X113995000Y-84426000D01*
X113995000Y-79404000D02*
X113995000Y-80875000D01*
X113955000Y-82955000D02*
X113955000Y-84435000D01*
X113955000Y-79395000D02*
X113955000Y-80875000D01*
X113915000Y-82955000D02*
X113915000Y-84443000D01*
X113915000Y-79387000D02*
X113915000Y-80875000D01*
X113875000Y-82955000D02*
X113875000Y-84451000D01*
X113875000Y-79379000D02*
X113875000Y-80875000D01*
X113835000Y-82955000D02*
X113835000Y-84458000D01*
X113835000Y-79372000D02*
X113835000Y-80875000D01*
X113795000Y-82955000D02*
X113795000Y-84465000D01*
X113795000Y-79365000D02*
X113795000Y-80875000D01*
X113755000Y-82955000D02*
X113755000Y-84471000D01*
X113755000Y-79359000D02*
X113755000Y-80875000D01*
X113715000Y-82955000D02*
X113715000Y-84476000D01*
X113715000Y-79354000D02*
X113715000Y-80875000D01*
X113675000Y-82955000D02*
X113675000Y-84480000D01*
X113675000Y-79350000D02*
X113675000Y-80875000D01*
X113635000Y-82955000D02*
X113635000Y-84484000D01*
X113635000Y-79346000D02*
X113635000Y-80875000D01*
X113595000Y-82955000D02*
X113595000Y-84488000D01*
X113595000Y-79342000D02*
X113595000Y-80875000D01*
X113555000Y-82955000D02*
X113555000Y-84491000D01*
X113555000Y-79339000D02*
X113555000Y-80875000D01*
X113515000Y-82955000D02*
X113515000Y-84493000D01*
X113515000Y-79337000D02*
X113515000Y-80875000D01*
X113475000Y-82955000D02*
X113475000Y-84494000D01*
X113475000Y-79336000D02*
X113475000Y-80875000D01*
X113435000Y-79335000D02*
X113435000Y-80875000D01*
X113435000Y-82955000D02*
X113435000Y-84495000D01*
X113395000Y-79335000D02*
X113395000Y-80875000D01*
X113395000Y-82955000D02*
X113395000Y-84495000D01*
X116015000Y-81915000D02*
G75*
G03*
X116015000Y-81915000I-2620000J0D01*
G01*
%TO.C,C4*%
X120924822Y-92711200D02*
X121441978Y-92711200D01*
X120924822Y-94131200D02*
X121441978Y-94131200D01*
%TO.C,C5*%
X120924822Y-75563800D02*
X121441978Y-75563800D01*
X120924822Y-74143800D02*
X121441978Y-74143800D01*
%TO.C,C6*%
X143209778Y-98042800D02*
X142692622Y-98042800D01*
X143209778Y-96622800D02*
X142692622Y-96622800D01*
%TO.C,C7*%
X143108178Y-92609600D02*
X142591022Y-92609600D01*
X143108178Y-94029600D02*
X142591022Y-94029600D01*
%TO.C,C8*%
X121441978Y-90473600D02*
X120924822Y-90473600D01*
X121441978Y-89053600D02*
X120924822Y-89053600D01*
%TO.C,C9*%
X143339078Y-62586800D02*
X142821922Y-62586800D01*
X143339078Y-64006800D02*
X142821922Y-64006800D01*
%TO.C,C10*%
X120924822Y-77471200D02*
X121441978Y-77471200D01*
X120924822Y-78891200D02*
X121441978Y-78891200D01*
%TO.C,C11*%
X120924822Y-82548800D02*
X121441978Y-82548800D01*
X120924822Y-81128800D02*
X121441978Y-81128800D01*
%TO.C,C12*%
X142694922Y-74471600D02*
X143212078Y-74471600D01*
X142694922Y-73051600D02*
X143212078Y-73051600D01*
%TO.C,C13*%
X142821922Y-65914200D02*
X143339078Y-65914200D01*
X142821922Y-67334200D02*
X143339078Y-67334200D01*
%TO.C,C14*%
X116015000Y-93980000D02*
G75*
G03*
X116015000Y-93980000I-2620000J0D01*
G01*
X113395000Y-95020000D02*
X113395000Y-96560000D01*
X113395000Y-91400000D02*
X113395000Y-92940000D01*
X113435000Y-95020000D02*
X113435000Y-96560000D01*
X113435000Y-91400000D02*
X113435000Y-92940000D01*
X113475000Y-91401000D02*
X113475000Y-92940000D01*
X113475000Y-95020000D02*
X113475000Y-96559000D01*
X113515000Y-91402000D02*
X113515000Y-92940000D01*
X113515000Y-95020000D02*
X113515000Y-96558000D01*
X113555000Y-91404000D02*
X113555000Y-92940000D01*
X113555000Y-95020000D02*
X113555000Y-96556000D01*
X113595000Y-91407000D02*
X113595000Y-92940000D01*
X113595000Y-95020000D02*
X113595000Y-96553000D01*
X113635000Y-91411000D02*
X113635000Y-92940000D01*
X113635000Y-95020000D02*
X113635000Y-96549000D01*
X113675000Y-91415000D02*
X113675000Y-92940000D01*
X113675000Y-95020000D02*
X113675000Y-96545000D01*
X113715000Y-91419000D02*
X113715000Y-92940000D01*
X113715000Y-95020000D02*
X113715000Y-96541000D01*
X113755000Y-91424000D02*
X113755000Y-92940000D01*
X113755000Y-95020000D02*
X113755000Y-96536000D01*
X113795000Y-91430000D02*
X113795000Y-92940000D01*
X113795000Y-95020000D02*
X113795000Y-96530000D01*
X113835000Y-91437000D02*
X113835000Y-92940000D01*
X113835000Y-95020000D02*
X113835000Y-96523000D01*
X113875000Y-91444000D02*
X113875000Y-92940000D01*
X113875000Y-95020000D02*
X113875000Y-96516000D01*
X113915000Y-91452000D02*
X113915000Y-92940000D01*
X113915000Y-95020000D02*
X113915000Y-96508000D01*
X113955000Y-91460000D02*
X113955000Y-92940000D01*
X113955000Y-95020000D02*
X113955000Y-96500000D01*
X113995000Y-91469000D02*
X113995000Y-92940000D01*
X113995000Y-95020000D02*
X113995000Y-96491000D01*
X114035000Y-91479000D02*
X114035000Y-92940000D01*
X114035000Y-95020000D02*
X114035000Y-96481000D01*
X114075000Y-91489000D02*
X114075000Y-92940000D01*
X114075000Y-95020000D02*
X114075000Y-96471000D01*
X114116000Y-91500000D02*
X114116000Y-92940000D01*
X114116000Y-95020000D02*
X114116000Y-96460000D01*
X114156000Y-91512000D02*
X114156000Y-92940000D01*
X114156000Y-95020000D02*
X114156000Y-96448000D01*
X114196000Y-91525000D02*
X114196000Y-92940000D01*
X114196000Y-95020000D02*
X114196000Y-96435000D01*
X114236000Y-91538000D02*
X114236000Y-92940000D01*
X114236000Y-95020000D02*
X114236000Y-96422000D01*
X114276000Y-91552000D02*
X114276000Y-92940000D01*
X114276000Y-95020000D02*
X114276000Y-96408000D01*
X114316000Y-91566000D02*
X114316000Y-92940000D01*
X114316000Y-95020000D02*
X114316000Y-96394000D01*
X114356000Y-91582000D02*
X114356000Y-92940000D01*
X114356000Y-95020000D02*
X114356000Y-96378000D01*
X114396000Y-91598000D02*
X114396000Y-92940000D01*
X114396000Y-95020000D02*
X114396000Y-96362000D01*
X114436000Y-91615000D02*
X114436000Y-92940000D01*
X114436000Y-95020000D02*
X114436000Y-96345000D01*
X114476000Y-91632000D02*
X114476000Y-92940000D01*
X114476000Y-95020000D02*
X114476000Y-96328000D01*
X114516000Y-91651000D02*
X114516000Y-92940000D01*
X114516000Y-95020000D02*
X114516000Y-96309000D01*
X114556000Y-91670000D02*
X114556000Y-92940000D01*
X114556000Y-95020000D02*
X114556000Y-96290000D01*
X114596000Y-91690000D02*
X114596000Y-92940000D01*
X114596000Y-95020000D02*
X114596000Y-96270000D01*
X114636000Y-91712000D02*
X114636000Y-92940000D01*
X114636000Y-95020000D02*
X114636000Y-96248000D01*
X114676000Y-91733000D02*
X114676000Y-92940000D01*
X114676000Y-95020000D02*
X114676000Y-96227000D01*
X114716000Y-91756000D02*
X114716000Y-92940000D01*
X114716000Y-95020000D02*
X114716000Y-96204000D01*
X114756000Y-91780000D02*
X114756000Y-92940000D01*
X114756000Y-95020000D02*
X114756000Y-96180000D01*
X114796000Y-91805000D02*
X114796000Y-92940000D01*
X114796000Y-95020000D02*
X114796000Y-96155000D01*
X114836000Y-91831000D02*
X114836000Y-92940000D01*
X114836000Y-95020000D02*
X114836000Y-96129000D01*
X114876000Y-91858000D02*
X114876000Y-92940000D01*
X114876000Y-95020000D02*
X114876000Y-96102000D01*
X114916000Y-91885000D02*
X114916000Y-92940000D01*
X114916000Y-95020000D02*
X114916000Y-96075000D01*
X114956000Y-91915000D02*
X114956000Y-92940000D01*
X114956000Y-95020000D02*
X114956000Y-96045000D01*
X114996000Y-91945000D02*
X114996000Y-92940000D01*
X114996000Y-95020000D02*
X114996000Y-96015000D01*
X115036000Y-91976000D02*
X115036000Y-92940000D01*
X115036000Y-95020000D02*
X115036000Y-95984000D01*
X115076000Y-92009000D02*
X115076000Y-92940000D01*
X115076000Y-95020000D02*
X115076000Y-95951000D01*
X115116000Y-92043000D02*
X115116000Y-92940000D01*
X115116000Y-95020000D02*
X115116000Y-95917000D01*
X115156000Y-92079000D02*
X115156000Y-92940000D01*
X115156000Y-95020000D02*
X115156000Y-95881000D01*
X115196000Y-92116000D02*
X115196000Y-92940000D01*
X115196000Y-95020000D02*
X115196000Y-95844000D01*
X115236000Y-92154000D02*
X115236000Y-92940000D01*
X115236000Y-95020000D02*
X115236000Y-95806000D01*
X115276000Y-92195000D02*
X115276000Y-92940000D01*
X115276000Y-95020000D02*
X115276000Y-95765000D01*
X115316000Y-92237000D02*
X115316000Y-92940000D01*
X115316000Y-95020000D02*
X115316000Y-95723000D01*
X115356000Y-92281000D02*
X115356000Y-92940000D01*
X115356000Y-95020000D02*
X115356000Y-95679000D01*
X115396000Y-92327000D02*
X115396000Y-92940000D01*
X115396000Y-95020000D02*
X115396000Y-95633000D01*
X115436000Y-92375000D02*
X115436000Y-95585000D01*
X115476000Y-92426000D02*
X115476000Y-95534000D01*
X115516000Y-92480000D02*
X115516000Y-95480000D01*
X115556000Y-92537000D02*
X115556000Y-95423000D01*
X115596000Y-92597000D02*
X115596000Y-95363000D01*
X115636000Y-92661000D02*
X115636000Y-95299000D01*
X115676000Y-92729000D02*
X115676000Y-95231000D01*
X115716000Y-92802000D02*
X115716000Y-95158000D01*
X115756000Y-92882000D02*
X115756000Y-95078000D01*
X115796000Y-92969000D02*
X115796000Y-94991000D01*
X115836000Y-93065000D02*
X115836000Y-94895000D01*
X115876000Y-93175000D02*
X115876000Y-94785000D01*
X115916000Y-93303000D02*
X115916000Y-94657000D01*
X115956000Y-93462000D02*
X115956000Y-94498000D01*
X115996000Y-93696000D02*
X115996000Y-94264000D01*
X110590225Y-92505000D02*
X111090225Y-92505000D01*
X110840225Y-92255000D02*
X110840225Y-92755000D01*
%TO.C,R2*%
X143085078Y-88240800D02*
X142567922Y-88240800D01*
X143085078Y-89660800D02*
X142567922Y-89660800D01*
%TO.C,R3*%
X143186678Y-85596800D02*
X142669522Y-85596800D01*
X143186678Y-84176800D02*
X142669522Y-84176800D01*
%TO.C,R4*%
X143135878Y-80265200D02*
X142618722Y-80265200D01*
X143135878Y-81685200D02*
X142618722Y-81685200D01*
%TO.C,R5*%
X120924822Y-84735600D02*
X121441978Y-84735600D01*
X120924822Y-86155600D02*
X121441978Y-86155600D01*
%TO.C,R6*%
X143186678Y-77976800D02*
X142669522Y-77976800D01*
X143186678Y-76556800D02*
X142669522Y-76556800D01*
%TO.C,R7*%
X143262878Y-71093400D02*
X142745722Y-71093400D01*
X143262878Y-69673400D02*
X142745722Y-69673400D01*
%TO.C,R8*%
X120924822Y-97992000D02*
X121441978Y-97992000D01*
X120924822Y-96572000D02*
X121441978Y-96572000D01*
%TO.C,R9*%
X120924822Y-70918000D02*
X121441978Y-70918000D01*
X120924822Y-72338000D02*
X121441978Y-72338000D01*
%TO.C,U1*%
X138236201Y-63938201D02*
X127956201Y-63938201D01*
X138236201Y-84498201D02*
X138236201Y-63938201D01*
X127956201Y-84498201D02*
X138236201Y-84498201D01*
X127956201Y-63938201D02*
X127956201Y-84498201D01*
X135746201Y-63998201D02*
X134096201Y-63998201D01*
X135746201Y-84438201D02*
X135746201Y-63998201D01*
X130446201Y-84438201D02*
X135746201Y-84438201D01*
X130446201Y-63998201D02*
X130446201Y-84438201D01*
X132096201Y-63998201D02*
X130446201Y-63998201D01*
X132096201Y-63998201D02*
G75*
G03*
X134096201Y-63998201I1000000J0D01*
G01*
%TO.C,J2*%
X125409000Y-62449400D02*
X125409000Y-63779400D01*
X124079000Y-62449400D02*
X125409000Y-62449400D01*
X122809000Y-62449400D02*
X122809000Y-65109400D01*
X122809000Y-65109400D02*
X117669000Y-65109400D01*
X122809000Y-62449400D02*
X117669000Y-62449400D01*
X117669000Y-62449400D02*
X117669000Y-65109400D01*
%TD*%
M02*
