M48
; DRILL file {KiCad (6.0.2)} date Fri Apr  1 15:42:22 2022
; FORMAT={-:-/ absolute / inch / decimal}
; #@! TF.CreationDate,2022-04-01T15:42:22-05:00
; #@! TF.GenerationSoftware,Kicad,Pcbnew,(6.0.2)
; #@! TF.FileFunction,MixedPlating,1,2
FMAT,2
INCH
; #@! TA.AperFunction,Plated,PTH,ViaDrill
T1C0.0157
; #@! TA.AperFunction,Plated,PTH,ComponentDrill
T2C0.0315
; #@! TA.AperFunction,Plated,PTH,ComponentDrill
T3C0.0394
%
G90
G05
T1
X4.687Y-3.114
X4.696Y-3.264
X4.698Y-3.613
X4.7482Y-3.0225
X4.758Y-3.462
X4.854Y-2.695
X4.86Y-3.231
X4.875Y-3.424
X4.889Y-2.803
X4.902Y-3.024
X4.904Y-3.307
X4.949Y-2.724
X4.953Y-3.463
X5.005Y-2.661
X5.156Y-3.448
X5.464Y-3.572
X5.469Y-3.332
X5.496Y-3.124
X5.508Y-3.593
X5.5346Y-3.352
X5.54Y-3.773
X5.55Y-2.727
X5.583Y-3.264
X5.6178Y-2.837
X5.628Y-3.757
X5.646Y-3.11
T2
X4.425Y-3.225
X4.425Y-3.7
X4.4393Y-2.748
X4.5037Y-3.225
X4.5037Y-3.7
X4.518Y-2.748
X5.09Y-2.572
X5.09Y-2.672
X5.09Y-2.772
X5.09Y-2.872
X5.09Y-2.972
X5.09Y-3.072
X5.09Y-3.172
X5.09Y-3.272
X5.39Y-2.572
X5.39Y-2.672
X5.39Y-2.772
X5.39Y-2.872
X5.39Y-2.972
X5.39Y-3.072
X5.39Y-3.172
X5.39Y-3.272
T3
X4.685Y-2.511
X4.785Y-2.511
X4.885Y-2.511
X5.075Y-3.625
X5.075Y-3.725
X5.175Y-3.625
X5.175Y-3.725
X5.275Y-3.625
X5.275Y-3.725
X5.375Y-3.625
X5.375Y-3.725
T0
M30
