G04 #@! TF.GenerationSoftware,KiCad,Pcbnew,(5.1.6)-1*
G04 #@! TF.CreationDate,2022-01-24T22:45:59-06:00*
G04 #@! TF.ProjectId,bassDrum,62617373-4472-4756-9d2e-6b696361645f,rev?*
G04 #@! TF.SameCoordinates,Original*
G04 #@! TF.FileFunction,Soldermask,Bot*
G04 #@! TF.FilePolarity,Negative*
%FSLAX46Y46*%
G04 Gerber Fmt 4.6, Leading zero omitted, Abs format (unit mm)*
G04 Created by KiCad (PCBNEW (5.1.6)-1) date 2022-01-24 22:45:59*
%MOMM*%
%LPD*%
G01*
G04 APERTURE LIST*
%ADD10R,1.800000X1.800000*%
%ADD11O,1.800000X1.800000*%
%ADD12R,1.600000X1.150000*%
%ADD13O,1.600000X1.150000*%
%ADD14R,1.700000X1.700000*%
%ADD15O,1.700000X1.700000*%
%ADD16R,2.300000X2.300000*%
%ADD17O,2.300000X2.300000*%
G04 APERTURE END LIST*
D10*
X88849200Y-84785200D03*
D11*
X91389200Y-84785200D03*
X88849200Y-87325200D03*
X91389200Y-87325200D03*
X88849200Y-89865200D03*
X91389200Y-89865200D03*
X88849200Y-92405200D03*
X91389200Y-92405200D03*
X88849200Y-94945200D03*
X91389200Y-94945200D03*
X88849200Y-97485200D03*
X91389200Y-97485200D03*
X88849200Y-100025200D03*
X91389200Y-100025200D03*
X88849200Y-102565200D03*
X91389200Y-102565200D03*
X88849200Y-105105200D03*
X91389200Y-105105200D03*
X88849200Y-107645200D03*
X91389200Y-107645200D03*
X88849200Y-110185200D03*
X91389200Y-110185200D03*
X88849200Y-112725200D03*
X91389200Y-112725200D03*
D10*
X96367600Y-84683600D03*
D11*
X96367600Y-87223600D03*
X96367600Y-89763600D03*
X101168200Y-89712800D03*
X101168200Y-87172800D03*
D10*
X101168200Y-84632800D03*
D12*
X109524800Y-113817400D03*
D13*
X109524800Y-116357400D03*
X109524800Y-115087400D03*
X115951000Y-115036600D03*
X115951000Y-116306600D03*
D12*
X115951000Y-113766600D03*
D14*
X113157000Y-88417400D03*
D15*
X105537000Y-85877400D03*
X113157000Y-85877400D03*
X105537000Y-88417400D03*
D16*
X117652800Y-90779600D03*
D17*
X117652800Y-83159600D03*
D10*
X117779800Y-94538800D03*
D11*
X117779800Y-97078800D03*
M02*
