G04 #@! TF.GenerationSoftware,KiCad,Pcbnew,(5.1.6)-1*
G04 #@! TF.CreationDate,2022-01-24T22:45:59-06:00*
G04 #@! TF.ProjectId,bassDrum,62617373-4472-4756-9d2e-6b696361645f,rev?*
G04 #@! TF.SameCoordinates,Original*
G04 #@! TF.FileFunction,Soldermask,Top*
G04 #@! TF.FilePolarity,Negative*
%FSLAX46Y46*%
G04 Gerber Fmt 4.6, Leading zero omitted, Abs format (unit mm)*
G04 Created by KiCad (PCBNEW (5.1.6)-1) date 2022-01-24 22:45:59*
%MOMM*%
%LPD*%
G01*
G04 APERTURE LIST*
%ADD10R,1.800000X1.800000*%
%ADD11O,1.800000X1.800000*%
%ADD12R,1.600000X1.150000*%
%ADD13O,1.600000X1.150000*%
%ADD14R,1.700000X1.700000*%
%ADD15O,1.700000X1.700000*%
%ADD16R,1.500000X0.400000*%
%ADD17R,2.300000X2.300000*%
%ADD18O,2.300000X2.300000*%
G04 APERTURE END LIST*
G36*
G01*
X107846600Y-110615650D02*
X107846600Y-109653150D01*
G75*
G02*
X108115350Y-109384400I268750J0D01*
G01*
X108652850Y-109384400D01*
G75*
G02*
X108921600Y-109653150I0J-268750D01*
G01*
X108921600Y-110615650D01*
G75*
G02*
X108652850Y-110884400I-268750J0D01*
G01*
X108115350Y-110884400D01*
G75*
G02*
X107846600Y-110615650I0J268750D01*
G01*
G37*
G36*
G01*
X109721600Y-110615650D02*
X109721600Y-109653150D01*
G75*
G02*
X109990350Y-109384400I268750J0D01*
G01*
X110527850Y-109384400D01*
G75*
G02*
X110796600Y-109653150I0J-268750D01*
G01*
X110796600Y-110615650D01*
G75*
G02*
X110527850Y-110884400I-268750J0D01*
G01*
X109990350Y-110884400D01*
G75*
G02*
X109721600Y-110615650I0J268750D01*
G01*
G37*
G36*
G01*
X115921500Y-110437850D02*
X115921500Y-109475350D01*
G75*
G02*
X116190250Y-109206600I268750J0D01*
G01*
X116727750Y-109206600D01*
G75*
G02*
X116996500Y-109475350I0J-268750D01*
G01*
X116996500Y-110437850D01*
G75*
G02*
X116727750Y-110706600I-268750J0D01*
G01*
X116190250Y-110706600D01*
G75*
G02*
X115921500Y-110437850I0J268750D01*
G01*
G37*
G36*
G01*
X114046500Y-110437850D02*
X114046500Y-109475350D01*
G75*
G02*
X114315250Y-109206600I268750J0D01*
G01*
X114852750Y-109206600D01*
G75*
G02*
X115121500Y-109475350I0J-268750D01*
G01*
X115121500Y-110437850D01*
G75*
G02*
X114852750Y-110706600I-268750J0D01*
G01*
X114315250Y-110706600D01*
G75*
G02*
X114046500Y-110437850I0J268750D01*
G01*
G37*
G36*
G01*
X97555000Y-98576050D02*
X97555000Y-97613550D01*
G75*
G02*
X97823750Y-97344800I268750J0D01*
G01*
X98361250Y-97344800D01*
G75*
G02*
X98630000Y-97613550I0J-268750D01*
G01*
X98630000Y-98576050D01*
G75*
G02*
X98361250Y-98844800I-268750J0D01*
G01*
X97823750Y-98844800D01*
G75*
G02*
X97555000Y-98576050I0J268750D01*
G01*
G37*
G36*
G01*
X95680000Y-98576050D02*
X95680000Y-97613550D01*
G75*
G02*
X95948750Y-97344800I268750J0D01*
G01*
X96486250Y-97344800D01*
G75*
G02*
X96755000Y-97613550I0J-268750D01*
G01*
X96755000Y-98576050D01*
G75*
G02*
X96486250Y-98844800I-268750J0D01*
G01*
X95948750Y-98844800D01*
G75*
G02*
X95680000Y-98576050I0J268750D01*
G01*
G37*
G36*
G01*
X95677700Y-96417050D02*
X95677700Y-95454550D01*
G75*
G02*
X95946450Y-95185800I268750J0D01*
G01*
X96483950Y-95185800D01*
G75*
G02*
X96752700Y-95454550I0J-268750D01*
G01*
X96752700Y-96417050D01*
G75*
G02*
X96483950Y-96685800I-268750J0D01*
G01*
X95946450Y-96685800D01*
G75*
G02*
X95677700Y-96417050I0J268750D01*
G01*
G37*
G36*
G01*
X97552700Y-96417050D02*
X97552700Y-95454550D01*
G75*
G02*
X97821450Y-95185800I268750J0D01*
G01*
X98358950Y-95185800D01*
G75*
G02*
X98627700Y-95454550I0J-268750D01*
G01*
X98627700Y-96417050D01*
G75*
G02*
X98358950Y-96685800I-268750J0D01*
G01*
X97821450Y-96685800D01*
G75*
G02*
X97552700Y-96417050I0J268750D01*
G01*
G37*
G36*
G01*
X99513100Y-96518650D02*
X99513100Y-95556150D01*
G75*
G02*
X99781850Y-95287400I268750J0D01*
G01*
X100319350Y-95287400D01*
G75*
G02*
X100588100Y-95556150I0J-268750D01*
G01*
X100588100Y-96518650D01*
G75*
G02*
X100319350Y-96787400I-268750J0D01*
G01*
X99781850Y-96787400D01*
G75*
G02*
X99513100Y-96518650I0J268750D01*
G01*
G37*
G36*
G01*
X101388100Y-96518650D02*
X101388100Y-95556150D01*
G75*
G02*
X101656850Y-95287400I268750J0D01*
G01*
X102194350Y-95287400D01*
G75*
G02*
X102463100Y-95556150I0J-268750D01*
G01*
X102463100Y-96518650D01*
G75*
G02*
X102194350Y-96787400I-268750J0D01*
G01*
X101656850Y-96787400D01*
G75*
G02*
X101388100Y-96518650I0J268750D01*
G01*
G37*
G36*
G01*
X115144600Y-107367150D02*
X115144600Y-108329650D01*
G75*
G02*
X114875850Y-108598400I-268750J0D01*
G01*
X114338350Y-108598400D01*
G75*
G02*
X114069600Y-108329650I0J268750D01*
G01*
X114069600Y-107367150D01*
G75*
G02*
X114338350Y-107098400I268750J0D01*
G01*
X114875850Y-107098400D01*
G75*
G02*
X115144600Y-107367150I0J-268750D01*
G01*
G37*
G36*
G01*
X117019600Y-107367150D02*
X117019600Y-108329650D01*
G75*
G02*
X116750850Y-108598400I-268750J0D01*
G01*
X116213350Y-108598400D01*
G75*
G02*
X115944600Y-108329650I0J268750D01*
G01*
X115944600Y-107367150D01*
G75*
G02*
X116213350Y-107098400I268750J0D01*
G01*
X116750850Y-107098400D01*
G75*
G02*
X117019600Y-107367150I0J-268750D01*
G01*
G37*
D10*
X88849200Y-84785200D03*
D11*
X91389200Y-84785200D03*
X88849200Y-87325200D03*
X91389200Y-87325200D03*
X88849200Y-89865200D03*
X91389200Y-89865200D03*
X88849200Y-92405200D03*
X91389200Y-92405200D03*
X88849200Y-94945200D03*
X91389200Y-94945200D03*
X88849200Y-97485200D03*
X91389200Y-97485200D03*
X88849200Y-100025200D03*
X91389200Y-100025200D03*
X88849200Y-102565200D03*
X91389200Y-102565200D03*
X88849200Y-105105200D03*
X91389200Y-105105200D03*
X88849200Y-107645200D03*
X91389200Y-107645200D03*
X88849200Y-110185200D03*
X91389200Y-110185200D03*
X88849200Y-112725200D03*
X91389200Y-112725200D03*
D10*
X96367600Y-84683600D03*
D11*
X96367600Y-87223600D03*
X96367600Y-89763600D03*
X101168200Y-89712800D03*
X101168200Y-87172800D03*
D10*
X101168200Y-84632800D03*
D12*
X109524800Y-113817400D03*
D13*
X109524800Y-116357400D03*
X109524800Y-115087400D03*
X115951000Y-115036600D03*
X115951000Y-116306600D03*
D12*
X115951000Y-113766600D03*
G36*
G01*
X95556150Y-112596400D02*
X96518650Y-112596400D01*
G75*
G02*
X96787400Y-112865150I0J-268750D01*
G01*
X96787400Y-113402650D01*
G75*
G02*
X96518650Y-113671400I-268750J0D01*
G01*
X95556150Y-113671400D01*
G75*
G02*
X95287400Y-113402650I0J268750D01*
G01*
X95287400Y-112865150D01*
G75*
G02*
X95556150Y-112596400I268750J0D01*
G01*
G37*
G36*
G01*
X95556150Y-114471400D02*
X96518650Y-114471400D01*
G75*
G02*
X96787400Y-114740150I0J-268750D01*
G01*
X96787400Y-115277650D01*
G75*
G02*
X96518650Y-115546400I-268750J0D01*
G01*
X95556150Y-115546400D01*
G75*
G02*
X95287400Y-115277650I0J268750D01*
G01*
X95287400Y-114740150D01*
G75*
G02*
X95556150Y-114471400I268750J0D01*
G01*
G37*
G36*
G01*
X97867550Y-114496800D02*
X98830050Y-114496800D01*
G75*
G02*
X99098800Y-114765550I0J-268750D01*
G01*
X99098800Y-115303050D01*
G75*
G02*
X98830050Y-115571800I-268750J0D01*
G01*
X97867550Y-115571800D01*
G75*
G02*
X97598800Y-115303050I0J268750D01*
G01*
X97598800Y-114765550D01*
G75*
G02*
X97867550Y-114496800I268750J0D01*
G01*
G37*
G36*
G01*
X97867550Y-112621800D02*
X98830050Y-112621800D01*
G75*
G02*
X99098800Y-112890550I0J-268750D01*
G01*
X99098800Y-113428050D01*
G75*
G02*
X98830050Y-113696800I-268750J0D01*
G01*
X97867550Y-113696800D01*
G75*
G02*
X97598800Y-113428050I0J268750D01*
G01*
X97598800Y-112890550D01*
G75*
G02*
X97867550Y-112621800I268750J0D01*
G01*
G37*
G36*
G01*
X100102750Y-112647200D02*
X101065250Y-112647200D01*
G75*
G02*
X101334000Y-112915950I0J-268750D01*
G01*
X101334000Y-113453450D01*
G75*
G02*
X101065250Y-113722200I-268750J0D01*
G01*
X100102750Y-113722200D01*
G75*
G02*
X99834000Y-113453450I0J268750D01*
G01*
X99834000Y-112915950D01*
G75*
G02*
X100102750Y-112647200I268750J0D01*
G01*
G37*
G36*
G01*
X100102750Y-114522200D02*
X101065250Y-114522200D01*
G75*
G02*
X101334000Y-114790950I0J-268750D01*
G01*
X101334000Y-115328450D01*
G75*
G02*
X101065250Y-115597200I-268750J0D01*
G01*
X100102750Y-115597200D01*
G75*
G02*
X99834000Y-115328450I0J268750D01*
G01*
X99834000Y-114790950D01*
G75*
G02*
X100102750Y-114522200I268750J0D01*
G01*
G37*
G36*
G01*
X107872000Y-108482050D02*
X107872000Y-107519550D01*
G75*
G02*
X108140750Y-107250800I268750J0D01*
G01*
X108678250Y-107250800D01*
G75*
G02*
X108947000Y-107519550I0J-268750D01*
G01*
X108947000Y-108482050D01*
G75*
G02*
X108678250Y-108750800I-268750J0D01*
G01*
X108140750Y-108750800D01*
G75*
G02*
X107872000Y-108482050I0J268750D01*
G01*
G37*
G36*
G01*
X109747000Y-108482050D02*
X109747000Y-107519550D01*
G75*
G02*
X110015750Y-107250800I268750J0D01*
G01*
X110553250Y-107250800D01*
G75*
G02*
X110822000Y-107519550I0J-268750D01*
G01*
X110822000Y-108482050D01*
G75*
G02*
X110553250Y-108750800I-268750J0D01*
G01*
X110015750Y-108750800D01*
G75*
G02*
X109747000Y-108482050I0J268750D01*
G01*
G37*
G36*
G01*
X115891500Y-102055850D02*
X115891500Y-101093350D01*
G75*
G02*
X116160250Y-100824600I268750J0D01*
G01*
X116697750Y-100824600D01*
G75*
G02*
X116966500Y-101093350I0J-268750D01*
G01*
X116966500Y-102055850D01*
G75*
G02*
X116697750Y-102324600I-268750J0D01*
G01*
X116160250Y-102324600D01*
G75*
G02*
X115891500Y-102055850I0J268750D01*
G01*
G37*
G36*
G01*
X114016500Y-102055850D02*
X114016500Y-101093350D01*
G75*
G02*
X114285250Y-100824600I268750J0D01*
G01*
X114822750Y-100824600D01*
G75*
G02*
X115091500Y-101093350I0J-268750D01*
G01*
X115091500Y-102055850D01*
G75*
G02*
X114822750Y-102324600I-268750J0D01*
G01*
X114285250Y-102324600D01*
G75*
G02*
X114016500Y-102055850I0J268750D01*
G01*
G37*
G36*
G01*
X97580400Y-100608050D02*
X97580400Y-99645550D01*
G75*
G02*
X97849150Y-99376800I268750J0D01*
G01*
X98386650Y-99376800D01*
G75*
G02*
X98655400Y-99645550I0J-268750D01*
G01*
X98655400Y-100608050D01*
G75*
G02*
X98386650Y-100876800I-268750J0D01*
G01*
X97849150Y-100876800D01*
G75*
G02*
X97580400Y-100608050I0J268750D01*
G01*
G37*
G36*
G01*
X95705400Y-100608050D02*
X95705400Y-99645550D01*
G75*
G02*
X95974150Y-99376800I268750J0D01*
G01*
X96511650Y-99376800D01*
G75*
G02*
X96780400Y-99645550I0J-268750D01*
G01*
X96780400Y-100608050D01*
G75*
G02*
X96511650Y-100876800I-268750J0D01*
G01*
X95974150Y-100876800D01*
G75*
G02*
X95705400Y-100608050I0J268750D01*
G01*
G37*
G36*
G01*
X101314200Y-100633450D02*
X101314200Y-99670950D01*
G75*
G02*
X101582950Y-99402200I268750J0D01*
G01*
X102120450Y-99402200D01*
G75*
G02*
X102389200Y-99670950I0J-268750D01*
G01*
X102389200Y-100633450D01*
G75*
G02*
X102120450Y-100902200I-268750J0D01*
G01*
X101582950Y-100902200D01*
G75*
G02*
X101314200Y-100633450I0J268750D01*
G01*
G37*
G36*
G01*
X99439200Y-100633450D02*
X99439200Y-99670950D01*
G75*
G02*
X99707950Y-99402200I268750J0D01*
G01*
X100245450Y-99402200D01*
G75*
G02*
X100514200Y-99670950I0J-268750D01*
G01*
X100514200Y-100633450D01*
G75*
G02*
X100245450Y-100902200I-268750J0D01*
G01*
X99707950Y-100902200D01*
G75*
G02*
X99439200Y-100633450I0J268750D01*
G01*
G37*
G36*
G01*
X101339600Y-98550650D02*
X101339600Y-97588150D01*
G75*
G02*
X101608350Y-97319400I268750J0D01*
G01*
X102145850Y-97319400D01*
G75*
G02*
X102414600Y-97588150I0J-268750D01*
G01*
X102414600Y-98550650D01*
G75*
G02*
X102145850Y-98819400I-268750J0D01*
G01*
X101608350Y-98819400D01*
G75*
G02*
X101339600Y-98550650I0J268750D01*
G01*
G37*
G36*
G01*
X99464600Y-98550650D02*
X99464600Y-97588150D01*
G75*
G02*
X99733350Y-97319400I268750J0D01*
G01*
X100270850Y-97319400D01*
G75*
G02*
X100539600Y-97588150I0J-268750D01*
G01*
X100539600Y-98550650D01*
G75*
G02*
X100270850Y-98819400I-268750J0D01*
G01*
X99733350Y-98819400D01*
G75*
G02*
X99464600Y-98550650I0J268750D01*
G01*
G37*
G36*
G01*
X95705400Y-94334250D02*
X95705400Y-93371750D01*
G75*
G02*
X95974150Y-93103000I268750J0D01*
G01*
X96511650Y-93103000D01*
G75*
G02*
X96780400Y-93371750I0J-268750D01*
G01*
X96780400Y-94334250D01*
G75*
G02*
X96511650Y-94603000I-268750J0D01*
G01*
X95974150Y-94603000D01*
G75*
G02*
X95705400Y-94334250I0J268750D01*
G01*
G37*
G36*
G01*
X97580400Y-94334250D02*
X97580400Y-93371750D01*
G75*
G02*
X97849150Y-93103000I268750J0D01*
G01*
X98386650Y-93103000D01*
G75*
G02*
X98655400Y-93371750I0J-268750D01*
G01*
X98655400Y-94334250D01*
G75*
G02*
X98386650Y-94603000I-268750J0D01*
G01*
X97849150Y-94603000D01*
G75*
G02*
X97580400Y-94334250I0J268750D01*
G01*
G37*
G36*
G01*
X99513100Y-94334250D02*
X99513100Y-93371750D01*
G75*
G02*
X99781850Y-93103000I268750J0D01*
G01*
X100319350Y-93103000D01*
G75*
G02*
X100588100Y-93371750I0J-268750D01*
G01*
X100588100Y-94334250D01*
G75*
G02*
X100319350Y-94603000I-268750J0D01*
G01*
X99781850Y-94603000D01*
G75*
G02*
X99513100Y-94334250I0J268750D01*
G01*
G37*
G36*
G01*
X101388100Y-94334250D02*
X101388100Y-93371750D01*
G75*
G02*
X101656850Y-93103000I268750J0D01*
G01*
X102194350Y-93103000D01*
G75*
G02*
X102463100Y-93371750I0J-268750D01*
G01*
X102463100Y-94334250D01*
G75*
G02*
X102194350Y-94603000I-268750J0D01*
G01*
X101656850Y-94603000D01*
G75*
G02*
X101388100Y-94334250I0J268750D01*
G01*
G37*
G36*
G01*
X108896200Y-103226950D02*
X108896200Y-104189450D01*
G75*
G02*
X108627450Y-104458200I-268750J0D01*
G01*
X108089950Y-104458200D01*
G75*
G02*
X107821200Y-104189450I0J268750D01*
G01*
X107821200Y-103226950D01*
G75*
G02*
X108089950Y-102958200I268750J0D01*
G01*
X108627450Y-102958200D01*
G75*
G02*
X108896200Y-103226950I0J-268750D01*
G01*
G37*
G36*
G01*
X110771200Y-103226950D02*
X110771200Y-104189450D01*
G75*
G02*
X110502450Y-104458200I-268750J0D01*
G01*
X109964950Y-104458200D01*
G75*
G02*
X109696200Y-104189450I0J268750D01*
G01*
X109696200Y-103226950D01*
G75*
G02*
X109964950Y-102958200I268750J0D01*
G01*
X110502450Y-102958200D01*
G75*
G02*
X110771200Y-103226950I0J-268750D01*
G01*
G37*
G36*
G01*
X103503650Y-115546400D02*
X102541150Y-115546400D01*
G75*
G02*
X102272400Y-115277650I0J268750D01*
G01*
X102272400Y-114740150D01*
G75*
G02*
X102541150Y-114471400I268750J0D01*
G01*
X103503650Y-114471400D01*
G75*
G02*
X103772400Y-114740150I0J-268750D01*
G01*
X103772400Y-115277650D01*
G75*
G02*
X103503650Y-115546400I-268750J0D01*
G01*
G37*
G36*
G01*
X103503650Y-113671400D02*
X102541150Y-113671400D01*
G75*
G02*
X102272400Y-113402650I0J268750D01*
G01*
X102272400Y-112865150D01*
G75*
G02*
X102541150Y-112596400I268750J0D01*
G01*
X103503650Y-112596400D01*
G75*
G02*
X103772400Y-112865150I0J-268750D01*
G01*
X103772400Y-113402650D01*
G75*
G02*
X103503650Y-113671400I-268750J0D01*
G01*
G37*
G36*
G01*
X115121500Y-103226950D02*
X115121500Y-104189450D01*
G75*
G02*
X114852750Y-104458200I-268750J0D01*
G01*
X114315250Y-104458200D01*
G75*
G02*
X114046500Y-104189450I0J268750D01*
G01*
X114046500Y-103226950D01*
G75*
G02*
X114315250Y-102958200I268750J0D01*
G01*
X114852750Y-102958200D01*
G75*
G02*
X115121500Y-103226950I0J-268750D01*
G01*
G37*
G36*
G01*
X116996500Y-103226950D02*
X116996500Y-104189450D01*
G75*
G02*
X116727750Y-104458200I-268750J0D01*
G01*
X116190250Y-104458200D01*
G75*
G02*
X115921500Y-104189450I0J268750D01*
G01*
X115921500Y-103226950D01*
G75*
G02*
X116190250Y-102958200I268750J0D01*
G01*
X116727750Y-102958200D01*
G75*
G02*
X116996500Y-103226950I0J-268750D01*
G01*
G37*
G36*
G01*
X107821200Y-106348450D02*
X107821200Y-105385950D01*
G75*
G02*
X108089950Y-105117200I268750J0D01*
G01*
X108627450Y-105117200D01*
G75*
G02*
X108896200Y-105385950I0J-268750D01*
G01*
X108896200Y-106348450D01*
G75*
G02*
X108627450Y-106617200I-268750J0D01*
G01*
X108089950Y-106617200D01*
G75*
G02*
X107821200Y-106348450I0J268750D01*
G01*
G37*
G36*
G01*
X109696200Y-106348450D02*
X109696200Y-105385950D01*
G75*
G02*
X109964950Y-105117200I268750J0D01*
G01*
X110502450Y-105117200D01*
G75*
G02*
X110771200Y-105385950I0J-268750D01*
G01*
X110771200Y-106348450D01*
G75*
G02*
X110502450Y-106617200I-268750J0D01*
G01*
X109964950Y-106617200D01*
G75*
G02*
X109696200Y-106348450I0J268750D01*
G01*
G37*
D14*
X113157000Y-88417400D03*
D15*
X105537000Y-85877400D03*
X113157000Y-85877400D03*
X105537000Y-88417400D03*
D16*
X112385200Y-96656400D03*
X112385200Y-96156400D03*
X112385200Y-95656400D03*
X112385200Y-95156400D03*
X112385200Y-94656400D03*
X107985200Y-94656400D03*
X107985200Y-95156400D03*
X107985200Y-95656400D03*
X107985200Y-96156400D03*
X107985200Y-96656400D03*
G36*
G01*
X109673100Y-101979650D02*
X109673100Y-101017150D01*
G75*
G02*
X109941850Y-100748400I268750J0D01*
G01*
X110479350Y-100748400D01*
G75*
G02*
X110748100Y-101017150I0J-268750D01*
G01*
X110748100Y-101979650D01*
G75*
G02*
X110479350Y-102248400I-268750J0D01*
G01*
X109941850Y-102248400D01*
G75*
G02*
X109673100Y-101979650I0J268750D01*
G01*
G37*
G36*
G01*
X107798100Y-101979650D02*
X107798100Y-101017150D01*
G75*
G02*
X108066850Y-100748400I268750J0D01*
G01*
X108604350Y-100748400D01*
G75*
G02*
X108873100Y-101017150I0J-268750D01*
G01*
X108873100Y-101979650D01*
G75*
G02*
X108604350Y-102248400I-268750J0D01*
G01*
X108066850Y-102248400D01*
G75*
G02*
X107798100Y-101979650I0J268750D01*
G01*
G37*
G36*
G01*
X114069600Y-106297650D02*
X114069600Y-105335150D01*
G75*
G02*
X114338350Y-105066400I268750J0D01*
G01*
X114875850Y-105066400D01*
G75*
G02*
X115144600Y-105335150I0J-268750D01*
G01*
X115144600Y-106297650D01*
G75*
G02*
X114875850Y-106566400I-268750J0D01*
G01*
X114338350Y-106566400D01*
G75*
G02*
X114069600Y-106297650I0J268750D01*
G01*
G37*
G36*
G01*
X115944600Y-106297650D02*
X115944600Y-105335150D01*
G75*
G02*
X116213350Y-105066400I268750J0D01*
G01*
X116750850Y-105066400D01*
G75*
G02*
X117019600Y-105335150I0J-268750D01*
G01*
X117019600Y-106297650D01*
G75*
G02*
X116750850Y-106566400I-268750J0D01*
G01*
X116213350Y-106566400D01*
G75*
G02*
X115944600Y-106297650I0J268750D01*
G01*
G37*
D17*
X117652800Y-90779600D03*
D18*
X117652800Y-83159600D03*
D10*
X117779800Y-94538800D03*
D11*
X117779800Y-97078800D03*
G36*
G01*
X94890200Y-105585000D02*
X94890200Y-105235000D01*
G75*
G02*
X95065200Y-105060000I175000J0D01*
G01*
X96715200Y-105060000D01*
G75*
G02*
X96890200Y-105235000I0J-175000D01*
G01*
X96890200Y-105585000D01*
G75*
G02*
X96715200Y-105760000I-175000J0D01*
G01*
X95065200Y-105760000D01*
G75*
G02*
X94890200Y-105585000I0J175000D01*
G01*
G37*
G36*
G01*
X94890200Y-106855000D02*
X94890200Y-106505000D01*
G75*
G02*
X95065200Y-106330000I175000J0D01*
G01*
X96715200Y-106330000D01*
G75*
G02*
X96890200Y-106505000I0J-175000D01*
G01*
X96890200Y-106855000D01*
G75*
G02*
X96715200Y-107030000I-175000J0D01*
G01*
X95065200Y-107030000D01*
G75*
G02*
X94890200Y-106855000I0J175000D01*
G01*
G37*
G36*
G01*
X94890200Y-108125000D02*
X94890200Y-107775000D01*
G75*
G02*
X95065200Y-107600000I175000J0D01*
G01*
X96715200Y-107600000D01*
G75*
G02*
X96890200Y-107775000I0J-175000D01*
G01*
X96890200Y-108125000D01*
G75*
G02*
X96715200Y-108300000I-175000J0D01*
G01*
X95065200Y-108300000D01*
G75*
G02*
X94890200Y-108125000I0J175000D01*
G01*
G37*
G36*
G01*
X94890200Y-109395000D02*
X94890200Y-109045000D01*
G75*
G02*
X95065200Y-108870000I175000J0D01*
G01*
X96715200Y-108870000D01*
G75*
G02*
X96890200Y-109045000I0J-175000D01*
G01*
X96890200Y-109395000D01*
G75*
G02*
X96715200Y-109570000I-175000J0D01*
G01*
X95065200Y-109570000D01*
G75*
G02*
X94890200Y-109395000I0J175000D01*
G01*
G37*
G36*
G01*
X101890200Y-109395000D02*
X101890200Y-109045000D01*
G75*
G02*
X102065200Y-108870000I175000J0D01*
G01*
X103715200Y-108870000D01*
G75*
G02*
X103890200Y-109045000I0J-175000D01*
G01*
X103890200Y-109395000D01*
G75*
G02*
X103715200Y-109570000I-175000J0D01*
G01*
X102065200Y-109570000D01*
G75*
G02*
X101890200Y-109395000I0J175000D01*
G01*
G37*
G36*
G01*
X101890200Y-108125000D02*
X101890200Y-107775000D01*
G75*
G02*
X102065200Y-107600000I175000J0D01*
G01*
X103715200Y-107600000D01*
G75*
G02*
X103890200Y-107775000I0J-175000D01*
G01*
X103890200Y-108125000D01*
G75*
G02*
X103715200Y-108300000I-175000J0D01*
G01*
X102065200Y-108300000D01*
G75*
G02*
X101890200Y-108125000I0J175000D01*
G01*
G37*
G36*
G01*
X101890200Y-106855000D02*
X101890200Y-106505000D01*
G75*
G02*
X102065200Y-106330000I175000J0D01*
G01*
X103715200Y-106330000D01*
G75*
G02*
X103890200Y-106505000I0J-175000D01*
G01*
X103890200Y-106855000D01*
G75*
G02*
X103715200Y-107030000I-175000J0D01*
G01*
X102065200Y-107030000D01*
G75*
G02*
X101890200Y-106855000I0J175000D01*
G01*
G37*
G36*
G01*
X101890200Y-105585000D02*
X101890200Y-105235000D01*
G75*
G02*
X102065200Y-105060000I175000J0D01*
G01*
X103715200Y-105060000D01*
G75*
G02*
X103890200Y-105235000I0J-175000D01*
G01*
X103890200Y-105585000D01*
G75*
G02*
X103715200Y-105760000I-175000J0D01*
G01*
X102065200Y-105760000D01*
G75*
G02*
X101890200Y-105585000I0J175000D01*
G01*
G37*
M02*
