G04 #@! TF.GenerationSoftware,KiCad,Pcbnew,(5.1.6)-1*
G04 #@! TF.CreationDate,2022-01-24T22:45:59-06:00*
G04 #@! TF.ProjectId,bassDrum,62617373-4472-4756-9d2e-6b696361645f,rev?*
G04 #@! TF.SameCoordinates,Original*
G04 #@! TF.FileFunction,Copper,L1,Top*
G04 #@! TF.FilePolarity,Positive*
%FSLAX46Y46*%
G04 Gerber Fmt 4.6, Leading zero omitted, Abs format (unit mm)*
G04 Created by KiCad (PCBNEW (5.1.6)-1) date 2022-01-24 22:45:59*
%MOMM*%
%LPD*%
G01*
G04 APERTURE LIST*
G04 #@! TA.AperFunction,ComponentPad*
%ADD10R,1.700000X1.700000*%
G04 #@! TD*
G04 #@! TA.AperFunction,ComponentPad*
%ADD11O,1.700000X1.700000*%
G04 #@! TD*
G04 #@! TA.AperFunction,ComponentPad*
%ADD12R,1.500000X1.050000*%
G04 #@! TD*
G04 #@! TA.AperFunction,ComponentPad*
%ADD13O,1.500000X1.050000*%
G04 #@! TD*
G04 #@! TA.AperFunction,ComponentPad*
%ADD14R,1.600000X1.600000*%
G04 #@! TD*
G04 #@! TA.AperFunction,ComponentPad*
%ADD15O,1.600000X1.600000*%
G04 #@! TD*
G04 #@! TA.AperFunction,SMDPad,CuDef*
%ADD16R,1.400000X0.300000*%
G04 #@! TD*
G04 #@! TA.AperFunction,ComponentPad*
%ADD17R,2.200000X2.200000*%
G04 #@! TD*
G04 #@! TA.AperFunction,ComponentPad*
%ADD18O,2.200000X2.200000*%
G04 #@! TD*
G04 #@! TA.AperFunction,ViaPad*
%ADD19C,0.800000*%
G04 #@! TD*
G04 #@! TA.AperFunction,Conductor*
%ADD20C,0.152400*%
G04 #@! TD*
G04 #@! TA.AperFunction,Conductor*
%ADD21C,0.304800*%
G04 #@! TD*
G04 #@! TA.AperFunction,Conductor*
%ADD22C,0.254000*%
G04 #@! TD*
G04 APERTURE END LIST*
G04 #@! TA.AperFunction,SMDPad,CuDef*
G36*
G01*
X107896600Y-110590650D02*
X107896600Y-109678150D01*
G75*
G02*
X108140350Y-109434400I243750J0D01*
G01*
X108627850Y-109434400D01*
G75*
G02*
X108871600Y-109678150I0J-243750D01*
G01*
X108871600Y-110590650D01*
G75*
G02*
X108627850Y-110834400I-243750J0D01*
G01*
X108140350Y-110834400D01*
G75*
G02*
X107896600Y-110590650I0J243750D01*
G01*
G37*
G04 #@! TD.AperFunction*
G04 #@! TA.AperFunction,SMDPad,CuDef*
G36*
G01*
X109771600Y-110590650D02*
X109771600Y-109678150D01*
G75*
G02*
X110015350Y-109434400I243750J0D01*
G01*
X110502850Y-109434400D01*
G75*
G02*
X110746600Y-109678150I0J-243750D01*
G01*
X110746600Y-110590650D01*
G75*
G02*
X110502850Y-110834400I-243750J0D01*
G01*
X110015350Y-110834400D01*
G75*
G02*
X109771600Y-110590650I0J243750D01*
G01*
G37*
G04 #@! TD.AperFunction*
G04 #@! TA.AperFunction,SMDPad,CuDef*
G36*
G01*
X115971500Y-110412850D02*
X115971500Y-109500350D01*
G75*
G02*
X116215250Y-109256600I243750J0D01*
G01*
X116702750Y-109256600D01*
G75*
G02*
X116946500Y-109500350I0J-243750D01*
G01*
X116946500Y-110412850D01*
G75*
G02*
X116702750Y-110656600I-243750J0D01*
G01*
X116215250Y-110656600D01*
G75*
G02*
X115971500Y-110412850I0J243750D01*
G01*
G37*
G04 #@! TD.AperFunction*
G04 #@! TA.AperFunction,SMDPad,CuDef*
G36*
G01*
X114096500Y-110412850D02*
X114096500Y-109500350D01*
G75*
G02*
X114340250Y-109256600I243750J0D01*
G01*
X114827750Y-109256600D01*
G75*
G02*
X115071500Y-109500350I0J-243750D01*
G01*
X115071500Y-110412850D01*
G75*
G02*
X114827750Y-110656600I-243750J0D01*
G01*
X114340250Y-110656600D01*
G75*
G02*
X114096500Y-110412850I0J243750D01*
G01*
G37*
G04 #@! TD.AperFunction*
G04 #@! TA.AperFunction,SMDPad,CuDef*
G36*
G01*
X97605000Y-98551050D02*
X97605000Y-97638550D01*
G75*
G02*
X97848750Y-97394800I243750J0D01*
G01*
X98336250Y-97394800D01*
G75*
G02*
X98580000Y-97638550I0J-243750D01*
G01*
X98580000Y-98551050D01*
G75*
G02*
X98336250Y-98794800I-243750J0D01*
G01*
X97848750Y-98794800D01*
G75*
G02*
X97605000Y-98551050I0J243750D01*
G01*
G37*
G04 #@! TD.AperFunction*
G04 #@! TA.AperFunction,SMDPad,CuDef*
G36*
G01*
X95730000Y-98551050D02*
X95730000Y-97638550D01*
G75*
G02*
X95973750Y-97394800I243750J0D01*
G01*
X96461250Y-97394800D01*
G75*
G02*
X96705000Y-97638550I0J-243750D01*
G01*
X96705000Y-98551050D01*
G75*
G02*
X96461250Y-98794800I-243750J0D01*
G01*
X95973750Y-98794800D01*
G75*
G02*
X95730000Y-98551050I0J243750D01*
G01*
G37*
G04 #@! TD.AperFunction*
G04 #@! TA.AperFunction,SMDPad,CuDef*
G36*
G01*
X95727700Y-96392050D02*
X95727700Y-95479550D01*
G75*
G02*
X95971450Y-95235800I243750J0D01*
G01*
X96458950Y-95235800D01*
G75*
G02*
X96702700Y-95479550I0J-243750D01*
G01*
X96702700Y-96392050D01*
G75*
G02*
X96458950Y-96635800I-243750J0D01*
G01*
X95971450Y-96635800D01*
G75*
G02*
X95727700Y-96392050I0J243750D01*
G01*
G37*
G04 #@! TD.AperFunction*
G04 #@! TA.AperFunction,SMDPad,CuDef*
G36*
G01*
X97602700Y-96392050D02*
X97602700Y-95479550D01*
G75*
G02*
X97846450Y-95235800I243750J0D01*
G01*
X98333950Y-95235800D01*
G75*
G02*
X98577700Y-95479550I0J-243750D01*
G01*
X98577700Y-96392050D01*
G75*
G02*
X98333950Y-96635800I-243750J0D01*
G01*
X97846450Y-96635800D01*
G75*
G02*
X97602700Y-96392050I0J243750D01*
G01*
G37*
G04 #@! TD.AperFunction*
G04 #@! TA.AperFunction,SMDPad,CuDef*
G36*
G01*
X99563100Y-96493650D02*
X99563100Y-95581150D01*
G75*
G02*
X99806850Y-95337400I243750J0D01*
G01*
X100294350Y-95337400D01*
G75*
G02*
X100538100Y-95581150I0J-243750D01*
G01*
X100538100Y-96493650D01*
G75*
G02*
X100294350Y-96737400I-243750J0D01*
G01*
X99806850Y-96737400D01*
G75*
G02*
X99563100Y-96493650I0J243750D01*
G01*
G37*
G04 #@! TD.AperFunction*
G04 #@! TA.AperFunction,SMDPad,CuDef*
G36*
G01*
X101438100Y-96493650D02*
X101438100Y-95581150D01*
G75*
G02*
X101681850Y-95337400I243750J0D01*
G01*
X102169350Y-95337400D01*
G75*
G02*
X102413100Y-95581150I0J-243750D01*
G01*
X102413100Y-96493650D01*
G75*
G02*
X102169350Y-96737400I-243750J0D01*
G01*
X101681850Y-96737400D01*
G75*
G02*
X101438100Y-96493650I0J243750D01*
G01*
G37*
G04 #@! TD.AperFunction*
G04 #@! TA.AperFunction,SMDPad,CuDef*
G36*
G01*
X115094600Y-107392150D02*
X115094600Y-108304650D01*
G75*
G02*
X114850850Y-108548400I-243750J0D01*
G01*
X114363350Y-108548400D01*
G75*
G02*
X114119600Y-108304650I0J243750D01*
G01*
X114119600Y-107392150D01*
G75*
G02*
X114363350Y-107148400I243750J0D01*
G01*
X114850850Y-107148400D01*
G75*
G02*
X115094600Y-107392150I0J-243750D01*
G01*
G37*
G04 #@! TD.AperFunction*
G04 #@! TA.AperFunction,SMDPad,CuDef*
G36*
G01*
X116969600Y-107392150D02*
X116969600Y-108304650D01*
G75*
G02*
X116725850Y-108548400I-243750J0D01*
G01*
X116238350Y-108548400D01*
G75*
G02*
X115994600Y-108304650I0J243750D01*
G01*
X115994600Y-107392150D01*
G75*
G02*
X116238350Y-107148400I243750J0D01*
G01*
X116725850Y-107148400D01*
G75*
G02*
X116969600Y-107392150I0J-243750D01*
G01*
G37*
G04 #@! TD.AperFunction*
D10*
X88849200Y-84785200D03*
D11*
X91389200Y-84785200D03*
X88849200Y-87325200D03*
X91389200Y-87325200D03*
X88849200Y-89865200D03*
X91389200Y-89865200D03*
X88849200Y-92405200D03*
X91389200Y-92405200D03*
X88849200Y-94945200D03*
X91389200Y-94945200D03*
X88849200Y-97485200D03*
X91389200Y-97485200D03*
X88849200Y-100025200D03*
X91389200Y-100025200D03*
X88849200Y-102565200D03*
X91389200Y-102565200D03*
X88849200Y-105105200D03*
X91389200Y-105105200D03*
X88849200Y-107645200D03*
X91389200Y-107645200D03*
X88849200Y-110185200D03*
X91389200Y-110185200D03*
X88849200Y-112725200D03*
X91389200Y-112725200D03*
D10*
X96367600Y-84683600D03*
D11*
X96367600Y-87223600D03*
X96367600Y-89763600D03*
X101168200Y-89712800D03*
X101168200Y-87172800D03*
D10*
X101168200Y-84632800D03*
D12*
X109524800Y-113817400D03*
D13*
X109524800Y-116357400D03*
X109524800Y-115087400D03*
X115951000Y-115036600D03*
X115951000Y-116306600D03*
D12*
X115951000Y-113766600D03*
G04 #@! TA.AperFunction,SMDPad,CuDef*
G36*
G01*
X95581150Y-112646400D02*
X96493650Y-112646400D01*
G75*
G02*
X96737400Y-112890150I0J-243750D01*
G01*
X96737400Y-113377650D01*
G75*
G02*
X96493650Y-113621400I-243750J0D01*
G01*
X95581150Y-113621400D01*
G75*
G02*
X95337400Y-113377650I0J243750D01*
G01*
X95337400Y-112890150D01*
G75*
G02*
X95581150Y-112646400I243750J0D01*
G01*
G37*
G04 #@! TD.AperFunction*
G04 #@! TA.AperFunction,SMDPad,CuDef*
G36*
G01*
X95581150Y-114521400D02*
X96493650Y-114521400D01*
G75*
G02*
X96737400Y-114765150I0J-243750D01*
G01*
X96737400Y-115252650D01*
G75*
G02*
X96493650Y-115496400I-243750J0D01*
G01*
X95581150Y-115496400D01*
G75*
G02*
X95337400Y-115252650I0J243750D01*
G01*
X95337400Y-114765150D01*
G75*
G02*
X95581150Y-114521400I243750J0D01*
G01*
G37*
G04 #@! TD.AperFunction*
G04 #@! TA.AperFunction,SMDPad,CuDef*
G36*
G01*
X97892550Y-114546800D02*
X98805050Y-114546800D01*
G75*
G02*
X99048800Y-114790550I0J-243750D01*
G01*
X99048800Y-115278050D01*
G75*
G02*
X98805050Y-115521800I-243750J0D01*
G01*
X97892550Y-115521800D01*
G75*
G02*
X97648800Y-115278050I0J243750D01*
G01*
X97648800Y-114790550D01*
G75*
G02*
X97892550Y-114546800I243750J0D01*
G01*
G37*
G04 #@! TD.AperFunction*
G04 #@! TA.AperFunction,SMDPad,CuDef*
G36*
G01*
X97892550Y-112671800D02*
X98805050Y-112671800D01*
G75*
G02*
X99048800Y-112915550I0J-243750D01*
G01*
X99048800Y-113403050D01*
G75*
G02*
X98805050Y-113646800I-243750J0D01*
G01*
X97892550Y-113646800D01*
G75*
G02*
X97648800Y-113403050I0J243750D01*
G01*
X97648800Y-112915550D01*
G75*
G02*
X97892550Y-112671800I243750J0D01*
G01*
G37*
G04 #@! TD.AperFunction*
G04 #@! TA.AperFunction,SMDPad,CuDef*
G36*
G01*
X100127750Y-112697200D02*
X101040250Y-112697200D01*
G75*
G02*
X101284000Y-112940950I0J-243750D01*
G01*
X101284000Y-113428450D01*
G75*
G02*
X101040250Y-113672200I-243750J0D01*
G01*
X100127750Y-113672200D01*
G75*
G02*
X99884000Y-113428450I0J243750D01*
G01*
X99884000Y-112940950D01*
G75*
G02*
X100127750Y-112697200I243750J0D01*
G01*
G37*
G04 #@! TD.AperFunction*
G04 #@! TA.AperFunction,SMDPad,CuDef*
G36*
G01*
X100127750Y-114572200D02*
X101040250Y-114572200D01*
G75*
G02*
X101284000Y-114815950I0J-243750D01*
G01*
X101284000Y-115303450D01*
G75*
G02*
X101040250Y-115547200I-243750J0D01*
G01*
X100127750Y-115547200D01*
G75*
G02*
X99884000Y-115303450I0J243750D01*
G01*
X99884000Y-114815950D01*
G75*
G02*
X100127750Y-114572200I243750J0D01*
G01*
G37*
G04 #@! TD.AperFunction*
G04 #@! TA.AperFunction,SMDPad,CuDef*
G36*
G01*
X107922000Y-108457050D02*
X107922000Y-107544550D01*
G75*
G02*
X108165750Y-107300800I243750J0D01*
G01*
X108653250Y-107300800D01*
G75*
G02*
X108897000Y-107544550I0J-243750D01*
G01*
X108897000Y-108457050D01*
G75*
G02*
X108653250Y-108700800I-243750J0D01*
G01*
X108165750Y-108700800D01*
G75*
G02*
X107922000Y-108457050I0J243750D01*
G01*
G37*
G04 #@! TD.AperFunction*
G04 #@! TA.AperFunction,SMDPad,CuDef*
G36*
G01*
X109797000Y-108457050D02*
X109797000Y-107544550D01*
G75*
G02*
X110040750Y-107300800I243750J0D01*
G01*
X110528250Y-107300800D01*
G75*
G02*
X110772000Y-107544550I0J-243750D01*
G01*
X110772000Y-108457050D01*
G75*
G02*
X110528250Y-108700800I-243750J0D01*
G01*
X110040750Y-108700800D01*
G75*
G02*
X109797000Y-108457050I0J243750D01*
G01*
G37*
G04 #@! TD.AperFunction*
G04 #@! TA.AperFunction,SMDPad,CuDef*
G36*
G01*
X115941500Y-102030850D02*
X115941500Y-101118350D01*
G75*
G02*
X116185250Y-100874600I243750J0D01*
G01*
X116672750Y-100874600D01*
G75*
G02*
X116916500Y-101118350I0J-243750D01*
G01*
X116916500Y-102030850D01*
G75*
G02*
X116672750Y-102274600I-243750J0D01*
G01*
X116185250Y-102274600D01*
G75*
G02*
X115941500Y-102030850I0J243750D01*
G01*
G37*
G04 #@! TD.AperFunction*
G04 #@! TA.AperFunction,SMDPad,CuDef*
G36*
G01*
X114066500Y-102030850D02*
X114066500Y-101118350D01*
G75*
G02*
X114310250Y-100874600I243750J0D01*
G01*
X114797750Y-100874600D01*
G75*
G02*
X115041500Y-101118350I0J-243750D01*
G01*
X115041500Y-102030850D01*
G75*
G02*
X114797750Y-102274600I-243750J0D01*
G01*
X114310250Y-102274600D01*
G75*
G02*
X114066500Y-102030850I0J243750D01*
G01*
G37*
G04 #@! TD.AperFunction*
G04 #@! TA.AperFunction,SMDPad,CuDef*
G36*
G01*
X97630400Y-100583050D02*
X97630400Y-99670550D01*
G75*
G02*
X97874150Y-99426800I243750J0D01*
G01*
X98361650Y-99426800D01*
G75*
G02*
X98605400Y-99670550I0J-243750D01*
G01*
X98605400Y-100583050D01*
G75*
G02*
X98361650Y-100826800I-243750J0D01*
G01*
X97874150Y-100826800D01*
G75*
G02*
X97630400Y-100583050I0J243750D01*
G01*
G37*
G04 #@! TD.AperFunction*
G04 #@! TA.AperFunction,SMDPad,CuDef*
G36*
G01*
X95755400Y-100583050D02*
X95755400Y-99670550D01*
G75*
G02*
X95999150Y-99426800I243750J0D01*
G01*
X96486650Y-99426800D01*
G75*
G02*
X96730400Y-99670550I0J-243750D01*
G01*
X96730400Y-100583050D01*
G75*
G02*
X96486650Y-100826800I-243750J0D01*
G01*
X95999150Y-100826800D01*
G75*
G02*
X95755400Y-100583050I0J243750D01*
G01*
G37*
G04 #@! TD.AperFunction*
G04 #@! TA.AperFunction,SMDPad,CuDef*
G36*
G01*
X101364200Y-100608450D02*
X101364200Y-99695950D01*
G75*
G02*
X101607950Y-99452200I243750J0D01*
G01*
X102095450Y-99452200D01*
G75*
G02*
X102339200Y-99695950I0J-243750D01*
G01*
X102339200Y-100608450D01*
G75*
G02*
X102095450Y-100852200I-243750J0D01*
G01*
X101607950Y-100852200D01*
G75*
G02*
X101364200Y-100608450I0J243750D01*
G01*
G37*
G04 #@! TD.AperFunction*
G04 #@! TA.AperFunction,SMDPad,CuDef*
G36*
G01*
X99489200Y-100608450D02*
X99489200Y-99695950D01*
G75*
G02*
X99732950Y-99452200I243750J0D01*
G01*
X100220450Y-99452200D01*
G75*
G02*
X100464200Y-99695950I0J-243750D01*
G01*
X100464200Y-100608450D01*
G75*
G02*
X100220450Y-100852200I-243750J0D01*
G01*
X99732950Y-100852200D01*
G75*
G02*
X99489200Y-100608450I0J243750D01*
G01*
G37*
G04 #@! TD.AperFunction*
G04 #@! TA.AperFunction,SMDPad,CuDef*
G36*
G01*
X101389600Y-98525650D02*
X101389600Y-97613150D01*
G75*
G02*
X101633350Y-97369400I243750J0D01*
G01*
X102120850Y-97369400D01*
G75*
G02*
X102364600Y-97613150I0J-243750D01*
G01*
X102364600Y-98525650D01*
G75*
G02*
X102120850Y-98769400I-243750J0D01*
G01*
X101633350Y-98769400D01*
G75*
G02*
X101389600Y-98525650I0J243750D01*
G01*
G37*
G04 #@! TD.AperFunction*
G04 #@! TA.AperFunction,SMDPad,CuDef*
G36*
G01*
X99514600Y-98525650D02*
X99514600Y-97613150D01*
G75*
G02*
X99758350Y-97369400I243750J0D01*
G01*
X100245850Y-97369400D01*
G75*
G02*
X100489600Y-97613150I0J-243750D01*
G01*
X100489600Y-98525650D01*
G75*
G02*
X100245850Y-98769400I-243750J0D01*
G01*
X99758350Y-98769400D01*
G75*
G02*
X99514600Y-98525650I0J243750D01*
G01*
G37*
G04 #@! TD.AperFunction*
G04 #@! TA.AperFunction,SMDPad,CuDef*
G36*
G01*
X95755400Y-94309250D02*
X95755400Y-93396750D01*
G75*
G02*
X95999150Y-93153000I243750J0D01*
G01*
X96486650Y-93153000D01*
G75*
G02*
X96730400Y-93396750I0J-243750D01*
G01*
X96730400Y-94309250D01*
G75*
G02*
X96486650Y-94553000I-243750J0D01*
G01*
X95999150Y-94553000D01*
G75*
G02*
X95755400Y-94309250I0J243750D01*
G01*
G37*
G04 #@! TD.AperFunction*
G04 #@! TA.AperFunction,SMDPad,CuDef*
G36*
G01*
X97630400Y-94309250D02*
X97630400Y-93396750D01*
G75*
G02*
X97874150Y-93153000I243750J0D01*
G01*
X98361650Y-93153000D01*
G75*
G02*
X98605400Y-93396750I0J-243750D01*
G01*
X98605400Y-94309250D01*
G75*
G02*
X98361650Y-94553000I-243750J0D01*
G01*
X97874150Y-94553000D01*
G75*
G02*
X97630400Y-94309250I0J243750D01*
G01*
G37*
G04 #@! TD.AperFunction*
G04 #@! TA.AperFunction,SMDPad,CuDef*
G36*
G01*
X99563100Y-94309250D02*
X99563100Y-93396750D01*
G75*
G02*
X99806850Y-93153000I243750J0D01*
G01*
X100294350Y-93153000D01*
G75*
G02*
X100538100Y-93396750I0J-243750D01*
G01*
X100538100Y-94309250D01*
G75*
G02*
X100294350Y-94553000I-243750J0D01*
G01*
X99806850Y-94553000D01*
G75*
G02*
X99563100Y-94309250I0J243750D01*
G01*
G37*
G04 #@! TD.AperFunction*
G04 #@! TA.AperFunction,SMDPad,CuDef*
G36*
G01*
X101438100Y-94309250D02*
X101438100Y-93396750D01*
G75*
G02*
X101681850Y-93153000I243750J0D01*
G01*
X102169350Y-93153000D01*
G75*
G02*
X102413100Y-93396750I0J-243750D01*
G01*
X102413100Y-94309250D01*
G75*
G02*
X102169350Y-94553000I-243750J0D01*
G01*
X101681850Y-94553000D01*
G75*
G02*
X101438100Y-94309250I0J243750D01*
G01*
G37*
G04 #@! TD.AperFunction*
G04 #@! TA.AperFunction,SMDPad,CuDef*
G36*
G01*
X108846200Y-103251950D02*
X108846200Y-104164450D01*
G75*
G02*
X108602450Y-104408200I-243750J0D01*
G01*
X108114950Y-104408200D01*
G75*
G02*
X107871200Y-104164450I0J243750D01*
G01*
X107871200Y-103251950D01*
G75*
G02*
X108114950Y-103008200I243750J0D01*
G01*
X108602450Y-103008200D01*
G75*
G02*
X108846200Y-103251950I0J-243750D01*
G01*
G37*
G04 #@! TD.AperFunction*
G04 #@! TA.AperFunction,SMDPad,CuDef*
G36*
G01*
X110721200Y-103251950D02*
X110721200Y-104164450D01*
G75*
G02*
X110477450Y-104408200I-243750J0D01*
G01*
X109989950Y-104408200D01*
G75*
G02*
X109746200Y-104164450I0J243750D01*
G01*
X109746200Y-103251950D01*
G75*
G02*
X109989950Y-103008200I243750J0D01*
G01*
X110477450Y-103008200D01*
G75*
G02*
X110721200Y-103251950I0J-243750D01*
G01*
G37*
G04 #@! TD.AperFunction*
G04 #@! TA.AperFunction,SMDPad,CuDef*
G36*
G01*
X103478650Y-115496400D02*
X102566150Y-115496400D01*
G75*
G02*
X102322400Y-115252650I0J243750D01*
G01*
X102322400Y-114765150D01*
G75*
G02*
X102566150Y-114521400I243750J0D01*
G01*
X103478650Y-114521400D01*
G75*
G02*
X103722400Y-114765150I0J-243750D01*
G01*
X103722400Y-115252650D01*
G75*
G02*
X103478650Y-115496400I-243750J0D01*
G01*
G37*
G04 #@! TD.AperFunction*
G04 #@! TA.AperFunction,SMDPad,CuDef*
G36*
G01*
X103478650Y-113621400D02*
X102566150Y-113621400D01*
G75*
G02*
X102322400Y-113377650I0J243750D01*
G01*
X102322400Y-112890150D01*
G75*
G02*
X102566150Y-112646400I243750J0D01*
G01*
X103478650Y-112646400D01*
G75*
G02*
X103722400Y-112890150I0J-243750D01*
G01*
X103722400Y-113377650D01*
G75*
G02*
X103478650Y-113621400I-243750J0D01*
G01*
G37*
G04 #@! TD.AperFunction*
G04 #@! TA.AperFunction,SMDPad,CuDef*
G36*
G01*
X115071500Y-103251950D02*
X115071500Y-104164450D01*
G75*
G02*
X114827750Y-104408200I-243750J0D01*
G01*
X114340250Y-104408200D01*
G75*
G02*
X114096500Y-104164450I0J243750D01*
G01*
X114096500Y-103251950D01*
G75*
G02*
X114340250Y-103008200I243750J0D01*
G01*
X114827750Y-103008200D01*
G75*
G02*
X115071500Y-103251950I0J-243750D01*
G01*
G37*
G04 #@! TD.AperFunction*
G04 #@! TA.AperFunction,SMDPad,CuDef*
G36*
G01*
X116946500Y-103251950D02*
X116946500Y-104164450D01*
G75*
G02*
X116702750Y-104408200I-243750J0D01*
G01*
X116215250Y-104408200D01*
G75*
G02*
X115971500Y-104164450I0J243750D01*
G01*
X115971500Y-103251950D01*
G75*
G02*
X116215250Y-103008200I243750J0D01*
G01*
X116702750Y-103008200D01*
G75*
G02*
X116946500Y-103251950I0J-243750D01*
G01*
G37*
G04 #@! TD.AperFunction*
G04 #@! TA.AperFunction,SMDPad,CuDef*
G36*
G01*
X107871200Y-106323450D02*
X107871200Y-105410950D01*
G75*
G02*
X108114950Y-105167200I243750J0D01*
G01*
X108602450Y-105167200D01*
G75*
G02*
X108846200Y-105410950I0J-243750D01*
G01*
X108846200Y-106323450D01*
G75*
G02*
X108602450Y-106567200I-243750J0D01*
G01*
X108114950Y-106567200D01*
G75*
G02*
X107871200Y-106323450I0J243750D01*
G01*
G37*
G04 #@! TD.AperFunction*
G04 #@! TA.AperFunction,SMDPad,CuDef*
G36*
G01*
X109746200Y-106323450D02*
X109746200Y-105410950D01*
G75*
G02*
X109989950Y-105167200I243750J0D01*
G01*
X110477450Y-105167200D01*
G75*
G02*
X110721200Y-105410950I0J-243750D01*
G01*
X110721200Y-106323450D01*
G75*
G02*
X110477450Y-106567200I-243750J0D01*
G01*
X109989950Y-106567200D01*
G75*
G02*
X109746200Y-106323450I0J243750D01*
G01*
G37*
G04 #@! TD.AperFunction*
D14*
X113157000Y-88417400D03*
D15*
X105537000Y-85877400D03*
X113157000Y-85877400D03*
X105537000Y-88417400D03*
D16*
X112385200Y-96656400D03*
X112385200Y-96156400D03*
X112385200Y-95656400D03*
X112385200Y-95156400D03*
X112385200Y-94656400D03*
X107985200Y-94656400D03*
X107985200Y-95156400D03*
X107985200Y-95656400D03*
X107985200Y-96156400D03*
X107985200Y-96656400D03*
G04 #@! TA.AperFunction,SMDPad,CuDef*
G36*
G01*
X109723100Y-101954650D02*
X109723100Y-101042150D01*
G75*
G02*
X109966850Y-100798400I243750J0D01*
G01*
X110454350Y-100798400D01*
G75*
G02*
X110698100Y-101042150I0J-243750D01*
G01*
X110698100Y-101954650D01*
G75*
G02*
X110454350Y-102198400I-243750J0D01*
G01*
X109966850Y-102198400D01*
G75*
G02*
X109723100Y-101954650I0J243750D01*
G01*
G37*
G04 #@! TD.AperFunction*
G04 #@! TA.AperFunction,SMDPad,CuDef*
G36*
G01*
X107848100Y-101954650D02*
X107848100Y-101042150D01*
G75*
G02*
X108091850Y-100798400I243750J0D01*
G01*
X108579350Y-100798400D01*
G75*
G02*
X108823100Y-101042150I0J-243750D01*
G01*
X108823100Y-101954650D01*
G75*
G02*
X108579350Y-102198400I-243750J0D01*
G01*
X108091850Y-102198400D01*
G75*
G02*
X107848100Y-101954650I0J243750D01*
G01*
G37*
G04 #@! TD.AperFunction*
G04 #@! TA.AperFunction,SMDPad,CuDef*
G36*
G01*
X114119600Y-106272650D02*
X114119600Y-105360150D01*
G75*
G02*
X114363350Y-105116400I243750J0D01*
G01*
X114850850Y-105116400D01*
G75*
G02*
X115094600Y-105360150I0J-243750D01*
G01*
X115094600Y-106272650D01*
G75*
G02*
X114850850Y-106516400I-243750J0D01*
G01*
X114363350Y-106516400D01*
G75*
G02*
X114119600Y-106272650I0J243750D01*
G01*
G37*
G04 #@! TD.AperFunction*
G04 #@! TA.AperFunction,SMDPad,CuDef*
G36*
G01*
X115994600Y-106272650D02*
X115994600Y-105360150D01*
G75*
G02*
X116238350Y-105116400I243750J0D01*
G01*
X116725850Y-105116400D01*
G75*
G02*
X116969600Y-105360150I0J-243750D01*
G01*
X116969600Y-106272650D01*
G75*
G02*
X116725850Y-106516400I-243750J0D01*
G01*
X116238350Y-106516400D01*
G75*
G02*
X115994600Y-106272650I0J243750D01*
G01*
G37*
G04 #@! TD.AperFunction*
D17*
X117652800Y-90779600D03*
D18*
X117652800Y-83159600D03*
D10*
X117779800Y-94538800D03*
D11*
X117779800Y-97078800D03*
G04 #@! TA.AperFunction,SMDPad,CuDef*
G36*
G01*
X94940200Y-105560000D02*
X94940200Y-105260000D01*
G75*
G02*
X95090200Y-105110000I150000J0D01*
G01*
X96690200Y-105110000D01*
G75*
G02*
X96840200Y-105260000I0J-150000D01*
G01*
X96840200Y-105560000D01*
G75*
G02*
X96690200Y-105710000I-150000J0D01*
G01*
X95090200Y-105710000D01*
G75*
G02*
X94940200Y-105560000I0J150000D01*
G01*
G37*
G04 #@! TD.AperFunction*
G04 #@! TA.AperFunction,SMDPad,CuDef*
G36*
G01*
X94940200Y-106830000D02*
X94940200Y-106530000D01*
G75*
G02*
X95090200Y-106380000I150000J0D01*
G01*
X96690200Y-106380000D01*
G75*
G02*
X96840200Y-106530000I0J-150000D01*
G01*
X96840200Y-106830000D01*
G75*
G02*
X96690200Y-106980000I-150000J0D01*
G01*
X95090200Y-106980000D01*
G75*
G02*
X94940200Y-106830000I0J150000D01*
G01*
G37*
G04 #@! TD.AperFunction*
G04 #@! TA.AperFunction,SMDPad,CuDef*
G36*
G01*
X94940200Y-108100000D02*
X94940200Y-107800000D01*
G75*
G02*
X95090200Y-107650000I150000J0D01*
G01*
X96690200Y-107650000D01*
G75*
G02*
X96840200Y-107800000I0J-150000D01*
G01*
X96840200Y-108100000D01*
G75*
G02*
X96690200Y-108250000I-150000J0D01*
G01*
X95090200Y-108250000D01*
G75*
G02*
X94940200Y-108100000I0J150000D01*
G01*
G37*
G04 #@! TD.AperFunction*
G04 #@! TA.AperFunction,SMDPad,CuDef*
G36*
G01*
X94940200Y-109370000D02*
X94940200Y-109070000D01*
G75*
G02*
X95090200Y-108920000I150000J0D01*
G01*
X96690200Y-108920000D01*
G75*
G02*
X96840200Y-109070000I0J-150000D01*
G01*
X96840200Y-109370000D01*
G75*
G02*
X96690200Y-109520000I-150000J0D01*
G01*
X95090200Y-109520000D01*
G75*
G02*
X94940200Y-109370000I0J150000D01*
G01*
G37*
G04 #@! TD.AperFunction*
G04 #@! TA.AperFunction,SMDPad,CuDef*
G36*
G01*
X101940200Y-109370000D02*
X101940200Y-109070000D01*
G75*
G02*
X102090200Y-108920000I150000J0D01*
G01*
X103690200Y-108920000D01*
G75*
G02*
X103840200Y-109070000I0J-150000D01*
G01*
X103840200Y-109370000D01*
G75*
G02*
X103690200Y-109520000I-150000J0D01*
G01*
X102090200Y-109520000D01*
G75*
G02*
X101940200Y-109370000I0J150000D01*
G01*
G37*
G04 #@! TD.AperFunction*
G04 #@! TA.AperFunction,SMDPad,CuDef*
G36*
G01*
X101940200Y-108100000D02*
X101940200Y-107800000D01*
G75*
G02*
X102090200Y-107650000I150000J0D01*
G01*
X103690200Y-107650000D01*
G75*
G02*
X103840200Y-107800000I0J-150000D01*
G01*
X103840200Y-108100000D01*
G75*
G02*
X103690200Y-108250000I-150000J0D01*
G01*
X102090200Y-108250000D01*
G75*
G02*
X101940200Y-108100000I0J150000D01*
G01*
G37*
G04 #@! TD.AperFunction*
G04 #@! TA.AperFunction,SMDPad,CuDef*
G36*
G01*
X101940200Y-106830000D02*
X101940200Y-106530000D01*
G75*
G02*
X102090200Y-106380000I150000J0D01*
G01*
X103690200Y-106380000D01*
G75*
G02*
X103840200Y-106530000I0J-150000D01*
G01*
X103840200Y-106830000D01*
G75*
G02*
X103690200Y-106980000I-150000J0D01*
G01*
X102090200Y-106980000D01*
G75*
G02*
X101940200Y-106830000I0J150000D01*
G01*
G37*
G04 #@! TD.AperFunction*
G04 #@! TA.AperFunction,SMDPad,CuDef*
G36*
G01*
X101940200Y-105560000D02*
X101940200Y-105260000D01*
G75*
G02*
X102090200Y-105110000I150000J0D01*
G01*
X103690200Y-105110000D01*
G75*
G02*
X103840200Y-105260000I0J-150000D01*
G01*
X103840200Y-105560000D01*
G75*
G02*
X103690200Y-105710000I-150000J0D01*
G01*
X102090200Y-105710000D01*
G75*
G02*
X101940200Y-105560000I0J150000D01*
G01*
G37*
G04 #@! TD.AperFunction*
D19*
X106680000Y-112064800D03*
X106654600Y-110236000D03*
X105435400Y-105511600D03*
X111235570Y-100266499D03*
X114122200Y-97764600D03*
X113423700Y-100266500D03*
X113309400Y-103339900D03*
X117424200Y-111760000D03*
X98399600Y-108229400D03*
X94465700Y-103860600D03*
X94606754Y-99119046D03*
X94843600Y-97129600D03*
X103130868Y-96755468D03*
X106730800Y-103378000D03*
X104546400Y-103886000D03*
X102887846Y-102710046D03*
X101320600Y-101863600D03*
X100050600Y-101863600D03*
X100736400Y-103216000D03*
X98856800Y-104292400D03*
X97688400Y-105308400D03*
X113030000Y-106934000D03*
X111633000Y-103835200D03*
X100965000Y-105359200D03*
X103327200Y-104114600D03*
X110236000Y-100126800D03*
X100609400Y-111912400D03*
X93789500Y-109308900D03*
X101701600Y-110985300D03*
X117729000Y-106857800D03*
X95008877Y-102577723D03*
X97159454Y-101671746D03*
X99898200Y-104902000D03*
X101981000Y-103708200D03*
X109011800Y-98983800D03*
X113029199Y-97444000D03*
X111150400Y-98914099D03*
X111099600Y-96139000D03*
X112496600Y-94005400D03*
X107924600Y-91694000D03*
X111531400Y-110185200D03*
X106578400Y-108331000D03*
X98628200Y-100995546D03*
X105862429Y-94980200D03*
X104977914Y-94513686D03*
X103361222Y-94809578D03*
X105867200Y-96332600D03*
X117805200Y-102565200D03*
X107120401Y-106096802D03*
X112166400Y-100822200D03*
X113792738Y-98847200D03*
X112166400Y-98120200D03*
X110423400Y-96968411D03*
X105410000Y-114782600D03*
X118465600Y-108864400D03*
D20*
X106680000Y-113145000D02*
X106680000Y-112064800D01*
X109524800Y-115087400D02*
X108622400Y-115087400D01*
X108622400Y-115087400D02*
X106680000Y-113145000D01*
X108282500Y-110236000D02*
X108384100Y-110134400D01*
X106654600Y-110236000D02*
X108282500Y-110236000D01*
X98323400Y-115008900D02*
X98348800Y-115034300D01*
X96037400Y-115008900D02*
X98323400Y-115008900D01*
X102383390Y-113897610D02*
X105927390Y-113897610D01*
X105927390Y-113897610D02*
X106680000Y-113145000D01*
X101985010Y-114295990D02*
X102383390Y-113897610D01*
X99087110Y-114295990D02*
X101985010Y-114295990D01*
X98348800Y-115034300D02*
X99087110Y-114295990D01*
X109173210Y-109345290D02*
X109173210Y-107329174D01*
X108384100Y-110134400D02*
X109173210Y-109345290D01*
X109173210Y-107329174D02*
X108868626Y-107024590D01*
X108868626Y-107024590D02*
X106948390Y-107024590D01*
X106948390Y-107024590D02*
X105435400Y-105511600D01*
X111235570Y-100266499D02*
X113331069Y-98171000D01*
X113331069Y-98171000D02*
X114122200Y-98171000D01*
X114122200Y-98171000D02*
X114122200Y-97764600D01*
D21*
X88849200Y-92405200D02*
X91389200Y-92405200D01*
X92591601Y-91202799D02*
X92591601Y-88459599D01*
X92591601Y-88459599D02*
X96367600Y-84683600D01*
X91389200Y-92405200D02*
X92591601Y-91202799D01*
X101117400Y-84683600D02*
X101168200Y-84632800D01*
X96367600Y-84683600D02*
X101117400Y-84683600D01*
D20*
X115857400Y-95156400D02*
X112385200Y-95156400D01*
X117779800Y-97078800D02*
X115857400Y-95156400D01*
X116276599Y-94737201D02*
X115857400Y-95156400D01*
X117652800Y-83159600D02*
X116276599Y-84535801D01*
X116276599Y-84535801D02*
X116276599Y-94737201D01*
D21*
X110259100Y-108026200D02*
X110284500Y-108000800D01*
X110259100Y-110134400D02*
X110259100Y-108026200D01*
X110284500Y-105918000D02*
X110233700Y-105867200D01*
X110284500Y-108000800D02*
X110284500Y-105918000D01*
D20*
X103022400Y-109352200D02*
X102890200Y-109220000D01*
X103022400Y-113133900D02*
X103022400Y-109352200D01*
D21*
X88849200Y-100025200D02*
X91389200Y-100025200D01*
D20*
X102607446Y-109220000D02*
X102890200Y-109220000D01*
X93412646Y-100025200D02*
X102607446Y-109220000D01*
X91389200Y-100025200D02*
X93412646Y-100025200D01*
X109282890Y-111110610D02*
X110259100Y-110134400D01*
X104780810Y-111110610D02*
X109282890Y-111110610D01*
X102890200Y-109220000D02*
X104780810Y-111110610D01*
D21*
X114556300Y-105867200D02*
X114607100Y-105816400D01*
X110233700Y-105867200D02*
X114556300Y-105867200D01*
X114607100Y-103731300D02*
X114584000Y-103708200D01*
X114607100Y-105816400D02*
X114607100Y-103731300D01*
X117779800Y-97078800D02*
X114592100Y-100266500D01*
X114592100Y-100266500D02*
X113423700Y-100266500D01*
X114215700Y-103339900D02*
X114584000Y-103708200D01*
X113309400Y-103339900D02*
X114215700Y-103339900D01*
X106553000Y-101498400D02*
X108335600Y-101498400D01*
X109181290Y-104814790D02*
X106592790Y-104814790D01*
X110233700Y-105867200D02*
X109181290Y-104814790D01*
X104927400Y-103124000D02*
X106553000Y-101498400D01*
X106592790Y-104814790D02*
X104927400Y-103149400D01*
X104927400Y-103149400D02*
X104927400Y-103124000D01*
D20*
X110830744Y-95156400D02*
X112385200Y-95156400D01*
X110830744Y-95158018D02*
X110830744Y-95156400D01*
X108335600Y-101498400D02*
X107645200Y-101498400D01*
X105740200Y-99593400D02*
X107086400Y-98247200D01*
X107086400Y-98247200D02*
X107741562Y-98247200D01*
X107645200Y-101498400D02*
X105740200Y-99593400D01*
X107741562Y-98247200D02*
X110830744Y-95158018D01*
D21*
X87646799Y-93607601D02*
X88849200Y-92405200D01*
X87646799Y-98822799D02*
X87646799Y-93607601D01*
X88849200Y-100025200D02*
X87646799Y-98822799D01*
D20*
X116459000Y-109956600D02*
X116459000Y-110794800D01*
X116459000Y-110794800D02*
X117424200Y-111760000D01*
X96169600Y-108229400D02*
X95890200Y-107950000D01*
X98399600Y-108229400D02*
X96169600Y-108229400D01*
X116977201Y-112349801D02*
X114584000Y-109956600D01*
X116977201Y-116182799D02*
X116977201Y-112349801D01*
X116853400Y-116306600D02*
X116977201Y-116182799D01*
X115951000Y-116306600D02*
X116853400Y-116306600D01*
X115370810Y-102632790D02*
X115370810Y-109169790D01*
X115370810Y-109169790D02*
X114584000Y-109956600D01*
X116429000Y-101574600D02*
X115370810Y-102632790D01*
X98092500Y-97813100D02*
X98092500Y-98094800D01*
X96215200Y-95935800D02*
X98092500Y-97813100D01*
X96242900Y-99944400D02*
X96242900Y-100126800D01*
X98092500Y-98094800D02*
X96242900Y-99944400D01*
X101851700Y-98094800D02*
X101877100Y-98069400D01*
X101851700Y-100152200D02*
X101851700Y-98094800D01*
X94465700Y-106205500D02*
X94465700Y-103860600D01*
X95890200Y-106680000D02*
X94940200Y-106680000D01*
X94940200Y-106680000D02*
X94465700Y-106205500D01*
X95631000Y-98094800D02*
X96217500Y-98094800D01*
X94606754Y-99119046D02*
X95631000Y-98094800D01*
X96217500Y-98094800D02*
X95252300Y-97129600D01*
X95252300Y-97129600D02*
X94843600Y-97129600D01*
X101877100Y-98009236D02*
X101877100Y-98069400D01*
X103130868Y-96755468D02*
X101877100Y-98009236D01*
X98090200Y-95700300D02*
X98090200Y-95935800D01*
X96242900Y-93853000D02*
X98090200Y-95700300D01*
X98856210Y-96701810D02*
X98856210Y-99031710D01*
X98856210Y-99031710D02*
X99976700Y-100152200D01*
X98090200Y-95935800D02*
X98856210Y-96701810D01*
X108358700Y-103708200D02*
X107061000Y-103708200D01*
X107061000Y-103708200D02*
X106730800Y-103378000D01*
X104546400Y-103886000D02*
X103370446Y-102710046D01*
X103370446Y-102710046D02*
X102887846Y-102710046D01*
X99976700Y-100519700D02*
X99976700Y-100152200D01*
X101320600Y-101863600D02*
X99976700Y-100519700D01*
X99976700Y-100152200D02*
X99976700Y-101789700D01*
X99976700Y-101789700D02*
X100050600Y-101863600D01*
X100736400Y-103216000D02*
X99933200Y-103216000D01*
X99933200Y-103216000D02*
X98856800Y-104292400D01*
X95991800Y-105308400D02*
X95890200Y-105410000D01*
X97688400Y-105308400D02*
X95991800Y-105308400D01*
X100050600Y-95785700D02*
X100050600Y-96037400D01*
X98117900Y-93853000D02*
X100050600Y-95785700D01*
X100050600Y-98020900D02*
X100002100Y-98069400D01*
X100050600Y-96037400D02*
X100050600Y-98020900D01*
X101925600Y-95728000D02*
X101925600Y-96037400D01*
X100050600Y-93853000D02*
X101925600Y-95728000D01*
X114607100Y-107848400D02*
X113944400Y-107848400D01*
X113944400Y-107848400D02*
X113030000Y-106934000D01*
X110360700Y-103835200D02*
X110233700Y-103708200D01*
X111633000Y-103835200D02*
X110360700Y-103835200D01*
X102839400Y-105359200D02*
X102890200Y-105410000D01*
X100965000Y-105359200D02*
X102839400Y-105359200D01*
X102890200Y-105410000D02*
X102890200Y-104551600D01*
X102890200Y-104551600D02*
X103327200Y-104114600D01*
X110236000Y-101473000D02*
X110210600Y-101498400D01*
X100609400Y-113159300D02*
X100584000Y-113184700D01*
X100609400Y-111912400D02*
X100609400Y-113159300D01*
X98374200Y-113184700D02*
X98348800Y-113159300D01*
X100584000Y-113184700D02*
X98374200Y-113184700D01*
D21*
X110286800Y-101574600D02*
X110210600Y-101498400D01*
X114554000Y-101574600D02*
X110286800Y-101574600D01*
X110210600Y-100152200D02*
X110236000Y-100126800D01*
X110210600Y-101498400D02*
X110210600Y-100152200D01*
D20*
X95801300Y-109308900D02*
X95890200Y-109220000D01*
X93789500Y-109308900D02*
X95801300Y-109308900D01*
X95890200Y-109220000D02*
X99936300Y-109220000D01*
X99936300Y-109220000D02*
X101701600Y-110985300D01*
X116687600Y-105816400D02*
X116482100Y-105816400D01*
X117729000Y-106857800D02*
X116687600Y-105816400D01*
X91389200Y-102565200D02*
X94996354Y-102565200D01*
X94996354Y-102565200D02*
X95008877Y-102577723D01*
X108832362Y-96656400D02*
X107985200Y-96656400D01*
X113157000Y-92331762D02*
X108832362Y-96656400D01*
X113157000Y-88417400D02*
X113157000Y-92331762D01*
X113157000Y-88417400D02*
X113157000Y-85877400D01*
X97159454Y-101671746D02*
X98471346Y-101671746D01*
X98471346Y-101671746D02*
X99339400Y-102539800D01*
X102101800Y-102539800D02*
X107985200Y-96656400D01*
X99339400Y-102539800D02*
X102101800Y-102539800D01*
X99898200Y-104902000D02*
X100463885Y-104902000D01*
X101657685Y-103708200D02*
X101981000Y-103708200D01*
X100463885Y-104902000D02*
X101657685Y-103708200D01*
X109011800Y-98983800D02*
X109956600Y-98983800D01*
X113429198Y-95853236D02*
X113232362Y-95656400D01*
X113429198Y-97044001D02*
X113429198Y-95853236D01*
X113232362Y-95656400D02*
X112385200Y-95656400D01*
X113029199Y-97444000D02*
X113429198Y-97044001D01*
X109956600Y-98983800D02*
X111080699Y-98983800D01*
X111080699Y-98983800D02*
X111150400Y-98914099D01*
X112385200Y-96156400D02*
X111117000Y-96156400D01*
X111117000Y-96156400D02*
X111099600Y-96139000D01*
X88849200Y-112725200D02*
X91389200Y-112725200D01*
X95628700Y-112725200D02*
X96037400Y-113133900D01*
X91389200Y-112725200D02*
X95628700Y-112725200D01*
X96731536Y-87223600D02*
X96367600Y-87223600D01*
X105164336Y-95656400D02*
X96731536Y-87223600D01*
X107985200Y-95656400D02*
X105164336Y-95656400D01*
X112385200Y-94656400D02*
X112385200Y-94116800D01*
X112385200Y-94116800D02*
X112496600Y-94005400D01*
X105689400Y-91694000D02*
X101168200Y-87172800D01*
X107924600Y-91694000D02*
X105689400Y-91694000D01*
X115900200Y-113817400D02*
X115951000Y-113766600D01*
X109524800Y-113817400D02*
X115900200Y-113817400D01*
X109524800Y-113817400D02*
X111531400Y-111810800D01*
X111531400Y-111810800D02*
X111531400Y-110185200D01*
X108079300Y-108331000D02*
X108409500Y-108000800D01*
X106578400Y-108331000D02*
X108079300Y-108331000D01*
X115862918Y-115036600D02*
X115951000Y-115036600D01*
X114542118Y-116357400D02*
X115862918Y-115036600D01*
X109524800Y-116357400D02*
X114542118Y-116357400D01*
X101881700Y-116357400D02*
X109524800Y-116357400D01*
X100584000Y-115059700D02*
X101881700Y-116357400D01*
X98117900Y-100126800D02*
X98117900Y-100485246D01*
X98117900Y-100485246D02*
X98628200Y-100995546D01*
X106038629Y-95156400D02*
X107985200Y-95156400D01*
X105862429Y-94980200D02*
X106038629Y-95156400D01*
X105120628Y-94656400D02*
X104977914Y-94513686D01*
X102404644Y-93853000D02*
X101925600Y-93853000D01*
X103361222Y-94809578D02*
X102404644Y-93853000D01*
X107985200Y-94656400D02*
X107985200Y-94142200D01*
X107985200Y-94142200D02*
X107645200Y-93802200D01*
X105689400Y-93802200D02*
X104977914Y-94513686D01*
X107645200Y-93802200D02*
X105689400Y-93802200D01*
X108961401Y-96027361D02*
X108961401Y-89301801D01*
X108832362Y-96156400D02*
X108961401Y-96027361D01*
X108961401Y-89301801D02*
X105537000Y-85877400D01*
X107985200Y-96156400D02*
X108832362Y-96156400D01*
X107985200Y-96156400D02*
X106043400Y-96156400D01*
X106043400Y-96156400D02*
X105867200Y-96332600D01*
X116662200Y-103708200D02*
X116459000Y-103708200D01*
X117805200Y-102565200D02*
X116662200Y-103708200D01*
X108358700Y-105867200D02*
X107350003Y-105867200D01*
X107350003Y-105867200D02*
X107120401Y-106096802D01*
X112166400Y-100822200D02*
X112166400Y-100473538D01*
X112166400Y-100473538D02*
X113792738Y-98847200D01*
X112166400Y-96875200D02*
X112385200Y-96656400D01*
X112166400Y-98120200D02*
X112166400Y-97256600D01*
X112166400Y-97256600D02*
X112166400Y-97002600D01*
X112132211Y-96968411D02*
X112166400Y-97002600D01*
X110423400Y-96968411D02*
X112132211Y-96968411D01*
X112166400Y-97002600D02*
X112166400Y-96875200D01*
X103022400Y-115008900D02*
X105183700Y-115008900D01*
X105183700Y-115008900D02*
X105410000Y-114782600D01*
X117449600Y-107848400D02*
X116482100Y-107848400D01*
X118465600Y-108864400D02*
X117449600Y-107848400D01*
X118906001Y-95665001D02*
X117779800Y-94538800D01*
X118906001Y-106681577D02*
X118906001Y-95665001D01*
X117739178Y-107848400D02*
X118906001Y-106681577D01*
X117449600Y-107848400D02*
X117739178Y-107848400D01*
D22*
G36*
X116243792Y-82147209D02*
G01*
X116073358Y-82441546D01*
X115963621Y-82763477D01*
X116081200Y-83032600D01*
X117525800Y-83032600D01*
X117525800Y-83012600D01*
X117779800Y-83012600D01*
X117779800Y-83032600D01*
X119224400Y-83032600D01*
X119341979Y-82763477D01*
X119232242Y-82441546D01*
X119061808Y-82147209D01*
X118879625Y-81940000D01*
X119990000Y-81940000D01*
X119990001Y-118085000D01*
X87020000Y-118085000D01*
X87020000Y-102418940D01*
X87364200Y-102418940D01*
X87364200Y-102711460D01*
X87421268Y-102998358D01*
X87533210Y-103268611D01*
X87695725Y-103511832D01*
X87902568Y-103718675D01*
X88076960Y-103835200D01*
X87902568Y-103951725D01*
X87695725Y-104158568D01*
X87533210Y-104401789D01*
X87421268Y-104672042D01*
X87364200Y-104958940D01*
X87364200Y-105251460D01*
X87421268Y-105538358D01*
X87533210Y-105808611D01*
X87695725Y-106051832D01*
X87902568Y-106258675D01*
X88076960Y-106375200D01*
X87902568Y-106491725D01*
X87695725Y-106698568D01*
X87533210Y-106941789D01*
X87421268Y-107212042D01*
X87364200Y-107498940D01*
X87364200Y-107791460D01*
X87421268Y-108078358D01*
X87533210Y-108348611D01*
X87695725Y-108591832D01*
X87902568Y-108798675D01*
X88076960Y-108915200D01*
X87902568Y-109031725D01*
X87695725Y-109238568D01*
X87533210Y-109481789D01*
X87421268Y-109752042D01*
X87364200Y-110038940D01*
X87364200Y-110331460D01*
X87421268Y-110618358D01*
X87533210Y-110888611D01*
X87695725Y-111131832D01*
X87902568Y-111338675D01*
X88076960Y-111455200D01*
X87902568Y-111571725D01*
X87695725Y-111778568D01*
X87533210Y-112021789D01*
X87421268Y-112292042D01*
X87364200Y-112578940D01*
X87364200Y-112871460D01*
X87421268Y-113158358D01*
X87533210Y-113428611D01*
X87695725Y-113671832D01*
X87902568Y-113878675D01*
X88145789Y-114041190D01*
X88416042Y-114153132D01*
X88702940Y-114210200D01*
X88995460Y-114210200D01*
X89282358Y-114153132D01*
X89552611Y-114041190D01*
X89795832Y-113878675D01*
X90002675Y-113671832D01*
X90119200Y-113497440D01*
X90235725Y-113671832D01*
X90442568Y-113878675D01*
X90685789Y-114041190D01*
X90956042Y-114153132D01*
X91242940Y-114210200D01*
X91535460Y-114210200D01*
X91822358Y-114153132D01*
X92092611Y-114041190D01*
X92335832Y-113878675D01*
X92542675Y-113671832D01*
X92699986Y-113436400D01*
X94705114Y-113436400D01*
X94716272Y-113549685D01*
X94766453Y-113715109D01*
X94847942Y-113867564D01*
X94957608Y-114001192D01*
X95043156Y-114071400D01*
X94957608Y-114141608D01*
X94847942Y-114275236D01*
X94766453Y-114427691D01*
X94716272Y-114593115D01*
X94699328Y-114765150D01*
X94699328Y-115252650D01*
X94716272Y-115424685D01*
X94766453Y-115590109D01*
X94847942Y-115742564D01*
X94957608Y-115876192D01*
X95091236Y-115985858D01*
X95243691Y-116067347D01*
X95409115Y-116117528D01*
X95581150Y-116134472D01*
X96493650Y-116134472D01*
X96665685Y-116117528D01*
X96831109Y-116067347D01*
X96983564Y-115985858D01*
X97117192Y-115876192D01*
X97182677Y-115796398D01*
X97269008Y-115901592D01*
X97402636Y-116011258D01*
X97555091Y-116092747D01*
X97720515Y-116142928D01*
X97892550Y-116159872D01*
X98805050Y-116159872D01*
X98977085Y-116142928D01*
X99142509Y-116092747D01*
X99294964Y-116011258D01*
X99428592Y-115901592D01*
X99455977Y-115868223D01*
X99504208Y-115926992D01*
X99637836Y-116036658D01*
X99790291Y-116118147D01*
X99955715Y-116168328D01*
X100127750Y-116185272D01*
X100703785Y-116185272D01*
X101354103Y-116835591D01*
X101376373Y-116862727D01*
X101484667Y-116951602D01*
X101608219Y-117017642D01*
X101742280Y-117058309D01*
X101846764Y-117068600D01*
X101846771Y-117068600D01*
X101881700Y-117072040D01*
X101916628Y-117068600D01*
X108382841Y-117068600D01*
X108475588Y-117181612D01*
X108652221Y-117326571D01*
X108853740Y-117434285D01*
X109072400Y-117500615D01*
X109242821Y-117517400D01*
X109806779Y-117517400D01*
X109977200Y-117500615D01*
X110195860Y-117434285D01*
X110397379Y-117326571D01*
X110574012Y-117181612D01*
X110666759Y-117068600D01*
X114507192Y-117068600D01*
X114542118Y-117072040D01*
X114577044Y-117068600D01*
X114577054Y-117068600D01*
X114681538Y-117058309D01*
X114810245Y-117019266D01*
X114901788Y-117130812D01*
X115078421Y-117275771D01*
X115279940Y-117383485D01*
X115498600Y-117449815D01*
X115669021Y-117466600D01*
X116232979Y-117466600D01*
X116403400Y-117449815D01*
X116622060Y-117383485D01*
X116823579Y-117275771D01*
X117000212Y-117130812D01*
X117140951Y-116959322D01*
X117250433Y-116900802D01*
X117358727Y-116811927D01*
X117381002Y-116784785D01*
X117455391Y-116710396D01*
X117482527Y-116688126D01*
X117571403Y-116579832D01*
X117637443Y-116456280D01*
X117678110Y-116322219D01*
X117688401Y-116217735D01*
X117688401Y-116217726D01*
X117691841Y-116182800D01*
X117688401Y-116147874D01*
X117688401Y-112762724D01*
X117726098Y-112755226D01*
X117914456Y-112677205D01*
X118083974Y-112563937D01*
X118228137Y-112419774D01*
X118341405Y-112250256D01*
X118419426Y-112061898D01*
X118459200Y-111861939D01*
X118459200Y-111658061D01*
X118419426Y-111458102D01*
X118341405Y-111269744D01*
X118228137Y-111100226D01*
X118083974Y-110956063D01*
X117914456Y-110842795D01*
X117726098Y-110764774D01*
X117526139Y-110725000D01*
X117525124Y-110725000D01*
X117567628Y-110584885D01*
X117584572Y-110412850D01*
X117584572Y-109500350D01*
X117573996Y-109392971D01*
X117661663Y-109524174D01*
X117805826Y-109668337D01*
X117975344Y-109781605D01*
X118163702Y-109859626D01*
X118363661Y-109899400D01*
X118567539Y-109899400D01*
X118767498Y-109859626D01*
X118955856Y-109781605D01*
X119125374Y-109668337D01*
X119269537Y-109524174D01*
X119382805Y-109354656D01*
X119460826Y-109166298D01*
X119500600Y-108966339D01*
X119500600Y-108762461D01*
X119460826Y-108562502D01*
X119382805Y-108374144D01*
X119269537Y-108204626D01*
X119125374Y-108060463D01*
X118955856Y-107947195D01*
X118767498Y-107869174D01*
X118731376Y-107861989D01*
X119384196Y-107209170D01*
X119411327Y-107186904D01*
X119433594Y-107159772D01*
X119433598Y-107159768D01*
X119500203Y-107078610D01*
X119513017Y-107054636D01*
X119566243Y-106955058D01*
X119606910Y-106820997D01*
X119617201Y-106716513D01*
X119617201Y-106716506D01*
X119620641Y-106681577D01*
X119617201Y-106646649D01*
X119617201Y-95699929D01*
X119620641Y-95665001D01*
X119617201Y-95630072D01*
X119617201Y-95630065D01*
X119606910Y-95525581D01*
X119585865Y-95456204D01*
X119566243Y-95391519D01*
X119500203Y-95267968D01*
X119433599Y-95186810D01*
X119433594Y-95186805D01*
X119411328Y-95159674D01*
X119384197Y-95137408D01*
X119267872Y-95021083D01*
X119267872Y-93688800D01*
X119255612Y-93564318D01*
X119219302Y-93444620D01*
X119160337Y-93334306D01*
X119080985Y-93237615D01*
X118984294Y-93158263D01*
X118873980Y-93099298D01*
X118754282Y-93062988D01*
X118629800Y-93050728D01*
X116929800Y-93050728D01*
X116805318Y-93062988D01*
X116685620Y-93099298D01*
X116575306Y-93158263D01*
X116478615Y-93237615D01*
X116399263Y-93334306D01*
X116340298Y-93444620D01*
X116303988Y-93564318D01*
X116291728Y-93688800D01*
X116291728Y-95388800D01*
X116303988Y-95513282D01*
X116340298Y-95632980D01*
X116399263Y-95743294D01*
X116478615Y-95839985D01*
X116575306Y-95919337D01*
X116685620Y-95978302D01*
X116766266Y-96002766D01*
X116682212Y-96078531D01*
X116508159Y-96311880D01*
X116382975Y-96574701D01*
X116338324Y-96721910D01*
X116459645Y-96951800D01*
X117652800Y-96951800D01*
X117652800Y-96931800D01*
X117906800Y-96931800D01*
X117906800Y-96951800D01*
X117926800Y-96951800D01*
X117926800Y-97205800D01*
X117906800Y-97205800D01*
X117906800Y-98399614D01*
X118136691Y-98520281D01*
X118194802Y-98499667D01*
X118194801Y-101606302D01*
X118107098Y-101569974D01*
X117907139Y-101530200D01*
X117703261Y-101530200D01*
X117554572Y-101559776D01*
X117554572Y-101118350D01*
X117537628Y-100946315D01*
X117487447Y-100780891D01*
X117405958Y-100628436D01*
X117296292Y-100494808D01*
X117162664Y-100385142D01*
X117010209Y-100303653D01*
X116844785Y-100253472D01*
X116672750Y-100236528D01*
X116185250Y-100236528D01*
X116013215Y-100253472D01*
X115847791Y-100303653D01*
X115695336Y-100385142D01*
X115561708Y-100494808D01*
X115491500Y-100580356D01*
X115421292Y-100494808D01*
X115287664Y-100385142D01*
X115135209Y-100303653D01*
X114969785Y-100253472D01*
X114797750Y-100236528D01*
X114310250Y-100236528D01*
X114138215Y-100253472D01*
X113972791Y-100303653D01*
X113820336Y-100385142D01*
X113686708Y-100494808D01*
X113577042Y-100628436D01*
X113495553Y-100780891D01*
X113493639Y-100787200D01*
X113201400Y-100787200D01*
X113201400Y-100720261D01*
X113161626Y-100520302D01*
X113151023Y-100494703D01*
X113763526Y-99882200D01*
X113894677Y-99882200D01*
X114094636Y-99842426D01*
X114282994Y-99764405D01*
X114452512Y-99651137D01*
X114596675Y-99506974D01*
X114709943Y-99337456D01*
X114787964Y-99149098D01*
X114827738Y-98949139D01*
X114827738Y-98745261D01*
X114790825Y-98559686D01*
X114926137Y-98424374D01*
X115039405Y-98254856D01*
X115117426Y-98066498D01*
X115157200Y-97866539D01*
X115157200Y-97662661D01*
X115117426Y-97462702D01*
X115106238Y-97435690D01*
X116338324Y-97435690D01*
X116382975Y-97582899D01*
X116508159Y-97845720D01*
X116682212Y-98079069D01*
X116898445Y-98273978D01*
X117148548Y-98422957D01*
X117422909Y-98520281D01*
X117652800Y-98399614D01*
X117652800Y-97205800D01*
X116459645Y-97205800D01*
X116338324Y-97435690D01*
X115106238Y-97435690D01*
X115039405Y-97274344D01*
X114926137Y-97104826D01*
X114781974Y-96960663D01*
X114612456Y-96847395D01*
X114424098Y-96769374D01*
X114224139Y-96729600D01*
X114140398Y-96729600D01*
X114140398Y-95888161D01*
X114143838Y-95853235D01*
X114140398Y-95818309D01*
X114140398Y-95818300D01*
X114130107Y-95713816D01*
X114089440Y-95579755D01*
X114023400Y-95456203D01*
X113934525Y-95347909D01*
X113907383Y-95325634D01*
X113759964Y-95178215D01*
X113737689Y-95151073D01*
X113720200Y-95136720D01*
X113720200Y-95029398D01*
X113681127Y-95029398D01*
X113687953Y-95006897D01*
X113720200Y-94974650D01*
X113713098Y-94909702D01*
X113723272Y-94806400D01*
X113723272Y-94506400D01*
X113711012Y-94381918D01*
X113674702Y-94262220D01*
X113615737Y-94151906D01*
X113536385Y-94055215D01*
X113531600Y-94051288D01*
X113531600Y-93903461D01*
X113491826Y-93703502D01*
X113413805Y-93515144D01*
X113300537Y-93345626D01*
X113224731Y-93269820D01*
X113635196Y-92859355D01*
X113662327Y-92837089D01*
X113684593Y-92809958D01*
X113684598Y-92809953D01*
X113751202Y-92728795D01*
X113817242Y-92605244D01*
X113857909Y-92471182D01*
X113858114Y-92469102D01*
X113868200Y-92366698D01*
X113868200Y-92366691D01*
X113871640Y-92331762D01*
X113868200Y-92296834D01*
X113868200Y-89855472D01*
X113957000Y-89855472D01*
X114081482Y-89843212D01*
X114201180Y-89806902D01*
X114311494Y-89747937D01*
X114394763Y-89679600D01*
X115914728Y-89679600D01*
X115914728Y-91879600D01*
X115926988Y-92004082D01*
X115963298Y-92123780D01*
X116022263Y-92234094D01*
X116101615Y-92330785D01*
X116198306Y-92410137D01*
X116308620Y-92469102D01*
X116428318Y-92505412D01*
X116552800Y-92517672D01*
X118752800Y-92517672D01*
X118877282Y-92505412D01*
X118996980Y-92469102D01*
X119107294Y-92410137D01*
X119203985Y-92330785D01*
X119283337Y-92234094D01*
X119342302Y-92123780D01*
X119378612Y-92004082D01*
X119390872Y-91879600D01*
X119390872Y-89679600D01*
X119378612Y-89555118D01*
X119342302Y-89435420D01*
X119283337Y-89325106D01*
X119203985Y-89228415D01*
X119107294Y-89149063D01*
X118996980Y-89090098D01*
X118877282Y-89053788D01*
X118752800Y-89041528D01*
X116552800Y-89041528D01*
X116428318Y-89053788D01*
X116308620Y-89090098D01*
X116198306Y-89149063D01*
X116101615Y-89228415D01*
X116022263Y-89325106D01*
X115963298Y-89435420D01*
X115926988Y-89555118D01*
X115914728Y-89679600D01*
X114394763Y-89679600D01*
X114408185Y-89668585D01*
X114487537Y-89571894D01*
X114546502Y-89461580D01*
X114582812Y-89341882D01*
X114595072Y-89217400D01*
X114595072Y-87617400D01*
X114582812Y-87492918D01*
X114546502Y-87373220D01*
X114487537Y-87262906D01*
X114408185Y-87166215D01*
X114311494Y-87086863D01*
X114201180Y-87027898D01*
X114081482Y-86991588D01*
X114073039Y-86990757D01*
X114271637Y-86792159D01*
X114428680Y-86557127D01*
X114536853Y-86295974D01*
X114592000Y-86018735D01*
X114592000Y-85736065D01*
X114536853Y-85458826D01*
X114428680Y-85197673D01*
X114271637Y-84962641D01*
X114071759Y-84762763D01*
X113836727Y-84605720D01*
X113575574Y-84497547D01*
X113298335Y-84442400D01*
X113015665Y-84442400D01*
X112738426Y-84497547D01*
X112477273Y-84605720D01*
X112242241Y-84762763D01*
X112042363Y-84962641D01*
X111885320Y-85197673D01*
X111777147Y-85458826D01*
X111722000Y-85736065D01*
X111722000Y-86018735D01*
X111777147Y-86295974D01*
X111885320Y-86557127D01*
X112042363Y-86792159D01*
X112240961Y-86990757D01*
X112232518Y-86991588D01*
X112112820Y-87027898D01*
X112002506Y-87086863D01*
X111905815Y-87166215D01*
X111826463Y-87262906D01*
X111767498Y-87373220D01*
X111731188Y-87492918D01*
X111718928Y-87617400D01*
X111718928Y-89217400D01*
X111731188Y-89341882D01*
X111767498Y-89461580D01*
X111826463Y-89571894D01*
X111905815Y-89668585D01*
X112002506Y-89747937D01*
X112112820Y-89806902D01*
X112232518Y-89843212D01*
X112357000Y-89855472D01*
X112445800Y-89855472D01*
X112445801Y-92037172D01*
X109672601Y-94810373D01*
X109672601Y-89336726D01*
X109676041Y-89301800D01*
X109672601Y-89266874D01*
X109672601Y-89266865D01*
X109662310Y-89162381D01*
X109621643Y-89028320D01*
X109555603Y-88904768D01*
X109488998Y-88823609D01*
X109488994Y-88823605D01*
X109466728Y-88796474D01*
X109439597Y-88774208D01*
X106924238Y-86258850D01*
X106972000Y-86018735D01*
X106972000Y-85736065D01*
X106916853Y-85458826D01*
X106808680Y-85197673D01*
X106651637Y-84962641D01*
X106451759Y-84762763D01*
X106216727Y-84605720D01*
X105955574Y-84497547D01*
X105678335Y-84442400D01*
X105395665Y-84442400D01*
X105118426Y-84497547D01*
X104857273Y-84605720D01*
X104622241Y-84762763D01*
X104422363Y-84962641D01*
X104265320Y-85197673D01*
X104157147Y-85458826D01*
X104102000Y-85736065D01*
X104102000Y-86018735D01*
X104157147Y-86295974D01*
X104265320Y-86557127D01*
X104422363Y-86792159D01*
X104622241Y-86992037D01*
X104854759Y-87147400D01*
X104622241Y-87302763D01*
X104422363Y-87502641D01*
X104265320Y-87737673D01*
X104157147Y-87998826D01*
X104102000Y-88276065D01*
X104102000Y-88558735D01*
X104157147Y-88835974D01*
X104265320Y-89097127D01*
X104422363Y-89332159D01*
X104622241Y-89532037D01*
X104857273Y-89689080D01*
X105118426Y-89797253D01*
X105395665Y-89852400D01*
X105678335Y-89852400D01*
X105955574Y-89797253D01*
X106216727Y-89689080D01*
X106451759Y-89532037D01*
X106651637Y-89332159D01*
X106808680Y-89097127D01*
X106916853Y-88835974D01*
X106972000Y-88558735D01*
X106972000Y-88318188D01*
X108250202Y-89596391D01*
X108250202Y-90708593D01*
X108226498Y-90698774D01*
X108026539Y-90659000D01*
X107822661Y-90659000D01*
X107622702Y-90698774D01*
X107434344Y-90776795D01*
X107264826Y-90890063D01*
X107172089Y-90982800D01*
X105983989Y-90982800D01*
X102597959Y-87596772D01*
X102653200Y-87319060D01*
X102653200Y-87026540D01*
X102596132Y-86739642D01*
X102484190Y-86469389D01*
X102321675Y-86226168D01*
X102189820Y-86094313D01*
X102262380Y-86072302D01*
X102372694Y-86013337D01*
X102469385Y-85933985D01*
X102548737Y-85837294D01*
X102607702Y-85726980D01*
X102644012Y-85607282D01*
X102656272Y-85482800D01*
X102653200Y-84918550D01*
X102494450Y-84759800D01*
X101295200Y-84759800D01*
X101295200Y-84779800D01*
X101041200Y-84779800D01*
X101041200Y-84759800D01*
X99841950Y-84759800D01*
X99683200Y-84918550D01*
X99680128Y-85482800D01*
X99692388Y-85607282D01*
X99728698Y-85726980D01*
X99787663Y-85837294D01*
X99867015Y-85933985D01*
X99963706Y-86013337D01*
X100074020Y-86072302D01*
X100146580Y-86094313D01*
X100014725Y-86226168D01*
X99852210Y-86469389D01*
X99740268Y-86739642D01*
X99683200Y-87026540D01*
X99683200Y-87319060D01*
X99740268Y-87605958D01*
X99852210Y-87876211D01*
X100014725Y-88119432D01*
X100221568Y-88326275D01*
X100395960Y-88442800D01*
X100221568Y-88559325D01*
X100014725Y-88766168D01*
X99852210Y-89009389D01*
X99755820Y-89242096D01*
X97852600Y-87338877D01*
X97852600Y-87077340D01*
X97795532Y-86790442D01*
X97683590Y-86520189D01*
X97521075Y-86276968D01*
X97389220Y-86145113D01*
X97461780Y-86123102D01*
X97572094Y-86064137D01*
X97668785Y-85984785D01*
X97748137Y-85888094D01*
X97807102Y-85777780D01*
X97843412Y-85658082D01*
X97855672Y-85533600D01*
X97852600Y-84969350D01*
X97693850Y-84810600D01*
X96494600Y-84810600D01*
X96494600Y-84830600D01*
X96240600Y-84830600D01*
X96240600Y-84810600D01*
X95041350Y-84810600D01*
X94882600Y-84969350D01*
X94879528Y-85533600D01*
X94891788Y-85658082D01*
X94928098Y-85777780D01*
X94987063Y-85888094D01*
X95066415Y-85984785D01*
X95163106Y-86064137D01*
X95273420Y-86123102D01*
X95345980Y-86145113D01*
X95214125Y-86276968D01*
X95051610Y-86520189D01*
X94939668Y-86790442D01*
X94882600Y-87077340D01*
X94882600Y-87369860D01*
X94939668Y-87656758D01*
X95051610Y-87927011D01*
X95214125Y-88170232D01*
X95420968Y-88377075D01*
X95595360Y-88493600D01*
X95420968Y-88610125D01*
X95214125Y-88816968D01*
X95051610Y-89060189D01*
X94939668Y-89330442D01*
X94882600Y-89617340D01*
X94882600Y-89909860D01*
X94939668Y-90196758D01*
X95051610Y-90467011D01*
X95214125Y-90710232D01*
X95420968Y-90917075D01*
X95664189Y-91079590D01*
X95934442Y-91191532D01*
X96221340Y-91248600D01*
X96513860Y-91248600D01*
X96800758Y-91191532D01*
X97071011Y-91079590D01*
X97314232Y-90917075D01*
X97521075Y-90710232D01*
X97683590Y-90467011D01*
X97795532Y-90196758D01*
X97852600Y-89909860D01*
X97852600Y-89617340D01*
X97795532Y-89330442D01*
X97769328Y-89267179D01*
X101177521Y-92675372D01*
X101058308Y-92773208D01*
X100988100Y-92858756D01*
X100917892Y-92773208D01*
X100784264Y-92663542D01*
X100631809Y-92582053D01*
X100466385Y-92531872D01*
X100294350Y-92514928D01*
X99806850Y-92514928D01*
X99634815Y-92531872D01*
X99469391Y-92582053D01*
X99316936Y-92663542D01*
X99183308Y-92773208D01*
X99084250Y-92893910D01*
X98985192Y-92773208D01*
X98851564Y-92663542D01*
X98699109Y-92582053D01*
X98533685Y-92531872D01*
X98361650Y-92514928D01*
X97874150Y-92514928D01*
X97702115Y-92531872D01*
X97536691Y-92582053D01*
X97384236Y-92663542D01*
X97250608Y-92773208D01*
X97180400Y-92858756D01*
X97110192Y-92773208D01*
X96976564Y-92663542D01*
X96824109Y-92582053D01*
X96658685Y-92531872D01*
X96486650Y-92514928D01*
X95999150Y-92514928D01*
X95827115Y-92531872D01*
X95661691Y-92582053D01*
X95509236Y-92663542D01*
X95375608Y-92773208D01*
X95265942Y-92906836D01*
X95184453Y-93059291D01*
X95134272Y-93224715D01*
X95117328Y-93396750D01*
X95117328Y-94309250D01*
X95134272Y-94481285D01*
X95184453Y-94646709D01*
X95265942Y-94799164D01*
X95330250Y-94877524D01*
X95238242Y-94989636D01*
X95156753Y-95142091D01*
X95106572Y-95307515D01*
X95089628Y-95479550D01*
X95089628Y-96123261D01*
X94945539Y-96094600D01*
X94741661Y-96094600D01*
X94541702Y-96134374D01*
X94353344Y-96212395D01*
X94183826Y-96325663D01*
X94039663Y-96469826D01*
X93926395Y-96639344D01*
X93848374Y-96827702D01*
X93808600Y-97027661D01*
X93808600Y-97231539D01*
X93848374Y-97431498D01*
X93926395Y-97619856D01*
X94039663Y-97789374D01*
X94183826Y-97933537D01*
X94353344Y-98046805D01*
X94463224Y-98092319D01*
X94304856Y-98123820D01*
X94116498Y-98201841D01*
X93946980Y-98315109D01*
X93802817Y-98459272D01*
X93689549Y-98628790D01*
X93611528Y-98817148D01*
X93571754Y-99017107D01*
X93571754Y-99220985D01*
X93611528Y-99420944D01*
X93689549Y-99609302D01*
X93802817Y-99778820D01*
X93946980Y-99922983D01*
X94116498Y-100036251D01*
X94304856Y-100114272D01*
X94504815Y-100154046D01*
X94708693Y-100154046D01*
X94908652Y-100114272D01*
X95097010Y-100036251D01*
X95117328Y-100022675D01*
X95117328Y-100583050D01*
X95134272Y-100755085D01*
X95184453Y-100920509D01*
X95265942Y-101072964D01*
X95375608Y-101206592D01*
X95509236Y-101316258D01*
X95661691Y-101397747D01*
X95827115Y-101447928D01*
X95999150Y-101464872D01*
X96145327Y-101464872D01*
X96124454Y-101569807D01*
X96124454Y-101773685D01*
X96164228Y-101973644D01*
X96242249Y-102162002D01*
X96355517Y-102331520D01*
X96499680Y-102475683D01*
X96669198Y-102588951D01*
X96857556Y-102666972D01*
X97057515Y-102706746D01*
X97261393Y-102706746D01*
X97461352Y-102666972D01*
X97649710Y-102588951D01*
X97819228Y-102475683D01*
X97911965Y-102382946D01*
X98176758Y-102382946D01*
X98811807Y-103017996D01*
X98834073Y-103045127D01*
X98861204Y-103067393D01*
X98861209Y-103067398D01*
X98942367Y-103134002D01*
X98986057Y-103157355D01*
X98886012Y-103257400D01*
X98754861Y-103257400D01*
X98554902Y-103297174D01*
X98366544Y-103375195D01*
X98197026Y-103488463D01*
X98052863Y-103632626D01*
X97939595Y-103802144D01*
X97861574Y-103990502D01*
X97821800Y-104190461D01*
X97821800Y-104279658D01*
X97790339Y-104273400D01*
X97586461Y-104273400D01*
X97386502Y-104313174D01*
X97198144Y-104391195D01*
X97028626Y-104504463D01*
X96997902Y-104535187D01*
X96991782Y-104531916D01*
X96843945Y-104487071D01*
X96690200Y-104471928D01*
X95302007Y-104471928D01*
X95382905Y-104350856D01*
X95460926Y-104162498D01*
X95500700Y-103962539D01*
X95500700Y-103758661D01*
X95460926Y-103558702D01*
X95443974Y-103517776D01*
X95499133Y-103494928D01*
X95668651Y-103381660D01*
X95812814Y-103237497D01*
X95926082Y-103067979D01*
X96004103Y-102879621D01*
X96043877Y-102679662D01*
X96043877Y-102475784D01*
X96004103Y-102275825D01*
X95926082Y-102087467D01*
X95812814Y-101917949D01*
X95668651Y-101773786D01*
X95499133Y-101660518D01*
X95310775Y-101582497D01*
X95110816Y-101542723D01*
X94906938Y-101542723D01*
X94706979Y-101582497D01*
X94518621Y-101660518D01*
X94349103Y-101773786D01*
X94268889Y-101854000D01*
X92699986Y-101854000D01*
X92542675Y-101618568D01*
X92335832Y-101411725D01*
X92153666Y-101290005D01*
X92270555Y-101220378D01*
X92486788Y-101025469D01*
X92660841Y-100792120D01*
X92786025Y-100529299D01*
X92830676Y-100382090D01*
X92709355Y-100152200D01*
X91516200Y-100152200D01*
X91516200Y-100172200D01*
X91262200Y-100172200D01*
X91262200Y-100152200D01*
X88976200Y-100152200D01*
X88976200Y-100172200D01*
X88722200Y-100172200D01*
X88722200Y-100152200D01*
X87529045Y-100152200D01*
X87407724Y-100382090D01*
X87452375Y-100529299D01*
X87577559Y-100792120D01*
X87751612Y-101025469D01*
X87967845Y-101220378D01*
X88084734Y-101290005D01*
X87902568Y-101411725D01*
X87695725Y-101618568D01*
X87533210Y-101861789D01*
X87421268Y-102132042D01*
X87364200Y-102418940D01*
X87020000Y-102418940D01*
X87020000Y-94798940D01*
X87364200Y-94798940D01*
X87364200Y-95091460D01*
X87421268Y-95378358D01*
X87533210Y-95648611D01*
X87695725Y-95891832D01*
X87902568Y-96098675D01*
X88076960Y-96215200D01*
X87902568Y-96331725D01*
X87695725Y-96538568D01*
X87533210Y-96781789D01*
X87421268Y-97052042D01*
X87364200Y-97338940D01*
X87364200Y-97631460D01*
X87421268Y-97918358D01*
X87533210Y-98188611D01*
X87695725Y-98431832D01*
X87902568Y-98638675D01*
X88084734Y-98760395D01*
X87967845Y-98830022D01*
X87751612Y-99024931D01*
X87577559Y-99258280D01*
X87452375Y-99521101D01*
X87407724Y-99668310D01*
X87529045Y-99898200D01*
X88722200Y-99898200D01*
X88722200Y-99878200D01*
X88976200Y-99878200D01*
X88976200Y-99898200D01*
X91262200Y-99898200D01*
X91262200Y-99878200D01*
X91516200Y-99878200D01*
X91516200Y-99898200D01*
X92709355Y-99898200D01*
X92830676Y-99668310D01*
X92786025Y-99521101D01*
X92660841Y-99258280D01*
X92486788Y-99024931D01*
X92270555Y-98830022D01*
X92153666Y-98760395D01*
X92335832Y-98638675D01*
X92542675Y-98431832D01*
X92705190Y-98188611D01*
X92817132Y-97918358D01*
X92874200Y-97631460D01*
X92874200Y-97338940D01*
X92817132Y-97052042D01*
X92705190Y-96781789D01*
X92542675Y-96538568D01*
X92335832Y-96331725D01*
X92161440Y-96215200D01*
X92335832Y-96098675D01*
X92542675Y-95891832D01*
X92705190Y-95648611D01*
X92817132Y-95378358D01*
X92874200Y-95091460D01*
X92874200Y-94798940D01*
X92817132Y-94512042D01*
X92705190Y-94241789D01*
X92542675Y-93998568D01*
X92335832Y-93791725D01*
X92153666Y-93670005D01*
X92270555Y-93600378D01*
X92486788Y-93405469D01*
X92660841Y-93172120D01*
X92786025Y-92909299D01*
X92830676Y-92762090D01*
X92709355Y-92532200D01*
X91516200Y-92532200D01*
X91516200Y-92552200D01*
X91262200Y-92552200D01*
X91262200Y-92532200D01*
X88976200Y-92532200D01*
X88976200Y-92552200D01*
X88722200Y-92552200D01*
X88722200Y-92532200D01*
X87529045Y-92532200D01*
X87407724Y-92762090D01*
X87452375Y-92909299D01*
X87577559Y-93172120D01*
X87751612Y-93405469D01*
X87967845Y-93600378D01*
X88084734Y-93670005D01*
X87902568Y-93791725D01*
X87695725Y-93998568D01*
X87533210Y-94241789D01*
X87421268Y-94512042D01*
X87364200Y-94798940D01*
X87020000Y-94798940D01*
X87020000Y-83935200D01*
X87361128Y-83935200D01*
X87361128Y-85635200D01*
X87373388Y-85759682D01*
X87409698Y-85879380D01*
X87468663Y-85989694D01*
X87548015Y-86086385D01*
X87644706Y-86165737D01*
X87755020Y-86224702D01*
X87827580Y-86246713D01*
X87695725Y-86378568D01*
X87533210Y-86621789D01*
X87421268Y-86892042D01*
X87364200Y-87178940D01*
X87364200Y-87471460D01*
X87421268Y-87758358D01*
X87533210Y-88028611D01*
X87695725Y-88271832D01*
X87902568Y-88478675D01*
X88076960Y-88595200D01*
X87902568Y-88711725D01*
X87695725Y-88918568D01*
X87533210Y-89161789D01*
X87421268Y-89432042D01*
X87364200Y-89718940D01*
X87364200Y-90011460D01*
X87421268Y-90298358D01*
X87533210Y-90568611D01*
X87695725Y-90811832D01*
X87902568Y-91018675D01*
X88084734Y-91140395D01*
X87967845Y-91210022D01*
X87751612Y-91404931D01*
X87577559Y-91638280D01*
X87452375Y-91901101D01*
X87407724Y-92048310D01*
X87529045Y-92278200D01*
X88722200Y-92278200D01*
X88722200Y-92258200D01*
X88976200Y-92258200D01*
X88976200Y-92278200D01*
X91262200Y-92278200D01*
X91262200Y-92258200D01*
X91516200Y-92258200D01*
X91516200Y-92278200D01*
X92709355Y-92278200D01*
X92830676Y-92048310D01*
X92786025Y-91901101D01*
X92660841Y-91638280D01*
X92486788Y-91404931D01*
X92270555Y-91210022D01*
X92153666Y-91140395D01*
X92335832Y-91018675D01*
X92542675Y-90811832D01*
X92705190Y-90568611D01*
X92817132Y-90298358D01*
X92874200Y-90011460D01*
X92874200Y-89718940D01*
X92817132Y-89432042D01*
X92705190Y-89161789D01*
X92542675Y-88918568D01*
X92335832Y-88711725D01*
X92161440Y-88595200D01*
X92335832Y-88478675D01*
X92542675Y-88271832D01*
X92705190Y-88028611D01*
X92817132Y-87758358D01*
X92874200Y-87471460D01*
X92874200Y-87178940D01*
X92817132Y-86892042D01*
X92705190Y-86621789D01*
X92542675Y-86378568D01*
X92335832Y-86171725D01*
X92161440Y-86055200D01*
X92335832Y-85938675D01*
X92542675Y-85731832D01*
X92705190Y-85488611D01*
X92817132Y-85218358D01*
X92874200Y-84931460D01*
X92874200Y-84638940D01*
X92817132Y-84352042D01*
X92705190Y-84081789D01*
X92542675Y-83838568D01*
X92537707Y-83833600D01*
X94879528Y-83833600D01*
X94882600Y-84397850D01*
X95041350Y-84556600D01*
X96240600Y-84556600D01*
X96240600Y-83357350D01*
X96494600Y-83357350D01*
X96494600Y-84556600D01*
X97693850Y-84556600D01*
X97852600Y-84397850D01*
X97855672Y-83833600D01*
X97850669Y-83782800D01*
X99680128Y-83782800D01*
X99683200Y-84347050D01*
X99841950Y-84505800D01*
X101041200Y-84505800D01*
X101041200Y-83306550D01*
X101295200Y-83306550D01*
X101295200Y-84505800D01*
X102494450Y-84505800D01*
X102653200Y-84347050D01*
X102656272Y-83782800D01*
X102644012Y-83658318D01*
X102612891Y-83555723D01*
X115963621Y-83555723D01*
X116073358Y-83877654D01*
X116243792Y-84171991D01*
X116468373Y-84427422D01*
X116738471Y-84634131D01*
X117043706Y-84784175D01*
X117256678Y-84848775D01*
X117525800Y-84730725D01*
X117525800Y-83286600D01*
X117779800Y-83286600D01*
X117779800Y-84730725D01*
X118048922Y-84848775D01*
X118261894Y-84784175D01*
X118567129Y-84634131D01*
X118837227Y-84427422D01*
X119061808Y-84171991D01*
X119232242Y-83877654D01*
X119341979Y-83555723D01*
X119224400Y-83286600D01*
X117779800Y-83286600D01*
X117525800Y-83286600D01*
X116081200Y-83286600D01*
X115963621Y-83555723D01*
X102612891Y-83555723D01*
X102607702Y-83538620D01*
X102548737Y-83428306D01*
X102469385Y-83331615D01*
X102372694Y-83252263D01*
X102262380Y-83193298D01*
X102142682Y-83156988D01*
X102018200Y-83144728D01*
X101453950Y-83147800D01*
X101295200Y-83306550D01*
X101041200Y-83306550D01*
X100882450Y-83147800D01*
X100318200Y-83144728D01*
X100193718Y-83156988D01*
X100074020Y-83193298D01*
X99963706Y-83252263D01*
X99867015Y-83331615D01*
X99787663Y-83428306D01*
X99728698Y-83538620D01*
X99692388Y-83658318D01*
X99680128Y-83782800D01*
X97850669Y-83782800D01*
X97843412Y-83709118D01*
X97807102Y-83589420D01*
X97748137Y-83479106D01*
X97668785Y-83382415D01*
X97572094Y-83303063D01*
X97461780Y-83244098D01*
X97342082Y-83207788D01*
X97217600Y-83195528D01*
X96653350Y-83198600D01*
X96494600Y-83357350D01*
X96240600Y-83357350D01*
X96081850Y-83198600D01*
X95517600Y-83195528D01*
X95393118Y-83207788D01*
X95273420Y-83244098D01*
X95163106Y-83303063D01*
X95066415Y-83382415D01*
X94987063Y-83479106D01*
X94928098Y-83589420D01*
X94891788Y-83709118D01*
X94879528Y-83833600D01*
X92537707Y-83833600D01*
X92335832Y-83631725D01*
X92092611Y-83469210D01*
X91822358Y-83357268D01*
X91535460Y-83300200D01*
X91242940Y-83300200D01*
X90956042Y-83357268D01*
X90685789Y-83469210D01*
X90442568Y-83631725D01*
X90310713Y-83763580D01*
X90288702Y-83691020D01*
X90229737Y-83580706D01*
X90150385Y-83484015D01*
X90053694Y-83404663D01*
X89943380Y-83345698D01*
X89823682Y-83309388D01*
X89699200Y-83297128D01*
X87999200Y-83297128D01*
X87874718Y-83309388D01*
X87755020Y-83345698D01*
X87644706Y-83404663D01*
X87548015Y-83484015D01*
X87468663Y-83580706D01*
X87409698Y-83691020D01*
X87373388Y-83810718D01*
X87361128Y-83935200D01*
X87020000Y-83935200D01*
X87020000Y-81940000D01*
X116425975Y-81940000D01*
X116243792Y-82147209D01*
G37*
X116243792Y-82147209D02*
X116073358Y-82441546D01*
X115963621Y-82763477D01*
X116081200Y-83032600D01*
X117525800Y-83032600D01*
X117525800Y-83012600D01*
X117779800Y-83012600D01*
X117779800Y-83032600D01*
X119224400Y-83032600D01*
X119341979Y-82763477D01*
X119232242Y-82441546D01*
X119061808Y-82147209D01*
X118879625Y-81940000D01*
X119990000Y-81940000D01*
X119990001Y-118085000D01*
X87020000Y-118085000D01*
X87020000Y-102418940D01*
X87364200Y-102418940D01*
X87364200Y-102711460D01*
X87421268Y-102998358D01*
X87533210Y-103268611D01*
X87695725Y-103511832D01*
X87902568Y-103718675D01*
X88076960Y-103835200D01*
X87902568Y-103951725D01*
X87695725Y-104158568D01*
X87533210Y-104401789D01*
X87421268Y-104672042D01*
X87364200Y-104958940D01*
X87364200Y-105251460D01*
X87421268Y-105538358D01*
X87533210Y-105808611D01*
X87695725Y-106051832D01*
X87902568Y-106258675D01*
X88076960Y-106375200D01*
X87902568Y-106491725D01*
X87695725Y-106698568D01*
X87533210Y-106941789D01*
X87421268Y-107212042D01*
X87364200Y-107498940D01*
X87364200Y-107791460D01*
X87421268Y-108078358D01*
X87533210Y-108348611D01*
X87695725Y-108591832D01*
X87902568Y-108798675D01*
X88076960Y-108915200D01*
X87902568Y-109031725D01*
X87695725Y-109238568D01*
X87533210Y-109481789D01*
X87421268Y-109752042D01*
X87364200Y-110038940D01*
X87364200Y-110331460D01*
X87421268Y-110618358D01*
X87533210Y-110888611D01*
X87695725Y-111131832D01*
X87902568Y-111338675D01*
X88076960Y-111455200D01*
X87902568Y-111571725D01*
X87695725Y-111778568D01*
X87533210Y-112021789D01*
X87421268Y-112292042D01*
X87364200Y-112578940D01*
X87364200Y-112871460D01*
X87421268Y-113158358D01*
X87533210Y-113428611D01*
X87695725Y-113671832D01*
X87902568Y-113878675D01*
X88145789Y-114041190D01*
X88416042Y-114153132D01*
X88702940Y-114210200D01*
X88995460Y-114210200D01*
X89282358Y-114153132D01*
X89552611Y-114041190D01*
X89795832Y-113878675D01*
X90002675Y-113671832D01*
X90119200Y-113497440D01*
X90235725Y-113671832D01*
X90442568Y-113878675D01*
X90685789Y-114041190D01*
X90956042Y-114153132D01*
X91242940Y-114210200D01*
X91535460Y-114210200D01*
X91822358Y-114153132D01*
X92092611Y-114041190D01*
X92335832Y-113878675D01*
X92542675Y-113671832D01*
X92699986Y-113436400D01*
X94705114Y-113436400D01*
X94716272Y-113549685D01*
X94766453Y-113715109D01*
X94847942Y-113867564D01*
X94957608Y-114001192D01*
X95043156Y-114071400D01*
X94957608Y-114141608D01*
X94847942Y-114275236D01*
X94766453Y-114427691D01*
X94716272Y-114593115D01*
X94699328Y-114765150D01*
X94699328Y-115252650D01*
X94716272Y-115424685D01*
X94766453Y-115590109D01*
X94847942Y-115742564D01*
X94957608Y-115876192D01*
X95091236Y-115985858D01*
X95243691Y-116067347D01*
X95409115Y-116117528D01*
X95581150Y-116134472D01*
X96493650Y-116134472D01*
X96665685Y-116117528D01*
X96831109Y-116067347D01*
X96983564Y-115985858D01*
X97117192Y-115876192D01*
X97182677Y-115796398D01*
X97269008Y-115901592D01*
X97402636Y-116011258D01*
X97555091Y-116092747D01*
X97720515Y-116142928D01*
X97892550Y-116159872D01*
X98805050Y-116159872D01*
X98977085Y-116142928D01*
X99142509Y-116092747D01*
X99294964Y-116011258D01*
X99428592Y-115901592D01*
X99455977Y-115868223D01*
X99504208Y-115926992D01*
X99637836Y-116036658D01*
X99790291Y-116118147D01*
X99955715Y-116168328D01*
X100127750Y-116185272D01*
X100703785Y-116185272D01*
X101354103Y-116835591D01*
X101376373Y-116862727D01*
X101484667Y-116951602D01*
X101608219Y-117017642D01*
X101742280Y-117058309D01*
X101846764Y-117068600D01*
X101846771Y-117068600D01*
X101881700Y-117072040D01*
X101916628Y-117068600D01*
X108382841Y-117068600D01*
X108475588Y-117181612D01*
X108652221Y-117326571D01*
X108853740Y-117434285D01*
X109072400Y-117500615D01*
X109242821Y-117517400D01*
X109806779Y-117517400D01*
X109977200Y-117500615D01*
X110195860Y-117434285D01*
X110397379Y-117326571D01*
X110574012Y-117181612D01*
X110666759Y-117068600D01*
X114507192Y-117068600D01*
X114542118Y-117072040D01*
X114577044Y-117068600D01*
X114577054Y-117068600D01*
X114681538Y-117058309D01*
X114810245Y-117019266D01*
X114901788Y-117130812D01*
X115078421Y-117275771D01*
X115279940Y-117383485D01*
X115498600Y-117449815D01*
X115669021Y-117466600D01*
X116232979Y-117466600D01*
X116403400Y-117449815D01*
X116622060Y-117383485D01*
X116823579Y-117275771D01*
X117000212Y-117130812D01*
X117140951Y-116959322D01*
X117250433Y-116900802D01*
X117358727Y-116811927D01*
X117381002Y-116784785D01*
X117455391Y-116710396D01*
X117482527Y-116688126D01*
X117571403Y-116579832D01*
X117637443Y-116456280D01*
X117678110Y-116322219D01*
X117688401Y-116217735D01*
X117688401Y-116217726D01*
X117691841Y-116182800D01*
X117688401Y-116147874D01*
X117688401Y-112762724D01*
X117726098Y-112755226D01*
X117914456Y-112677205D01*
X118083974Y-112563937D01*
X118228137Y-112419774D01*
X118341405Y-112250256D01*
X118419426Y-112061898D01*
X118459200Y-111861939D01*
X118459200Y-111658061D01*
X118419426Y-111458102D01*
X118341405Y-111269744D01*
X118228137Y-111100226D01*
X118083974Y-110956063D01*
X117914456Y-110842795D01*
X117726098Y-110764774D01*
X117526139Y-110725000D01*
X117525124Y-110725000D01*
X117567628Y-110584885D01*
X117584572Y-110412850D01*
X117584572Y-109500350D01*
X117573996Y-109392971D01*
X117661663Y-109524174D01*
X117805826Y-109668337D01*
X117975344Y-109781605D01*
X118163702Y-109859626D01*
X118363661Y-109899400D01*
X118567539Y-109899400D01*
X118767498Y-109859626D01*
X118955856Y-109781605D01*
X119125374Y-109668337D01*
X119269537Y-109524174D01*
X119382805Y-109354656D01*
X119460826Y-109166298D01*
X119500600Y-108966339D01*
X119500600Y-108762461D01*
X119460826Y-108562502D01*
X119382805Y-108374144D01*
X119269537Y-108204626D01*
X119125374Y-108060463D01*
X118955856Y-107947195D01*
X118767498Y-107869174D01*
X118731376Y-107861989D01*
X119384196Y-107209170D01*
X119411327Y-107186904D01*
X119433594Y-107159772D01*
X119433598Y-107159768D01*
X119500203Y-107078610D01*
X119513017Y-107054636D01*
X119566243Y-106955058D01*
X119606910Y-106820997D01*
X119617201Y-106716513D01*
X119617201Y-106716506D01*
X119620641Y-106681577D01*
X119617201Y-106646649D01*
X119617201Y-95699929D01*
X119620641Y-95665001D01*
X119617201Y-95630072D01*
X119617201Y-95630065D01*
X119606910Y-95525581D01*
X119585865Y-95456204D01*
X119566243Y-95391519D01*
X119500203Y-95267968D01*
X119433599Y-95186810D01*
X119433594Y-95186805D01*
X119411328Y-95159674D01*
X119384197Y-95137408D01*
X119267872Y-95021083D01*
X119267872Y-93688800D01*
X119255612Y-93564318D01*
X119219302Y-93444620D01*
X119160337Y-93334306D01*
X119080985Y-93237615D01*
X118984294Y-93158263D01*
X118873980Y-93099298D01*
X118754282Y-93062988D01*
X118629800Y-93050728D01*
X116929800Y-93050728D01*
X116805318Y-93062988D01*
X116685620Y-93099298D01*
X116575306Y-93158263D01*
X116478615Y-93237615D01*
X116399263Y-93334306D01*
X116340298Y-93444620D01*
X116303988Y-93564318D01*
X116291728Y-93688800D01*
X116291728Y-95388800D01*
X116303988Y-95513282D01*
X116340298Y-95632980D01*
X116399263Y-95743294D01*
X116478615Y-95839985D01*
X116575306Y-95919337D01*
X116685620Y-95978302D01*
X116766266Y-96002766D01*
X116682212Y-96078531D01*
X116508159Y-96311880D01*
X116382975Y-96574701D01*
X116338324Y-96721910D01*
X116459645Y-96951800D01*
X117652800Y-96951800D01*
X117652800Y-96931800D01*
X117906800Y-96931800D01*
X117906800Y-96951800D01*
X117926800Y-96951800D01*
X117926800Y-97205800D01*
X117906800Y-97205800D01*
X117906800Y-98399614D01*
X118136691Y-98520281D01*
X118194802Y-98499667D01*
X118194801Y-101606302D01*
X118107098Y-101569974D01*
X117907139Y-101530200D01*
X117703261Y-101530200D01*
X117554572Y-101559776D01*
X117554572Y-101118350D01*
X117537628Y-100946315D01*
X117487447Y-100780891D01*
X117405958Y-100628436D01*
X117296292Y-100494808D01*
X117162664Y-100385142D01*
X117010209Y-100303653D01*
X116844785Y-100253472D01*
X116672750Y-100236528D01*
X116185250Y-100236528D01*
X116013215Y-100253472D01*
X115847791Y-100303653D01*
X115695336Y-100385142D01*
X115561708Y-100494808D01*
X115491500Y-100580356D01*
X115421292Y-100494808D01*
X115287664Y-100385142D01*
X115135209Y-100303653D01*
X114969785Y-100253472D01*
X114797750Y-100236528D01*
X114310250Y-100236528D01*
X114138215Y-100253472D01*
X113972791Y-100303653D01*
X113820336Y-100385142D01*
X113686708Y-100494808D01*
X113577042Y-100628436D01*
X113495553Y-100780891D01*
X113493639Y-100787200D01*
X113201400Y-100787200D01*
X113201400Y-100720261D01*
X113161626Y-100520302D01*
X113151023Y-100494703D01*
X113763526Y-99882200D01*
X113894677Y-99882200D01*
X114094636Y-99842426D01*
X114282994Y-99764405D01*
X114452512Y-99651137D01*
X114596675Y-99506974D01*
X114709943Y-99337456D01*
X114787964Y-99149098D01*
X114827738Y-98949139D01*
X114827738Y-98745261D01*
X114790825Y-98559686D01*
X114926137Y-98424374D01*
X115039405Y-98254856D01*
X115117426Y-98066498D01*
X115157200Y-97866539D01*
X115157200Y-97662661D01*
X115117426Y-97462702D01*
X115106238Y-97435690D01*
X116338324Y-97435690D01*
X116382975Y-97582899D01*
X116508159Y-97845720D01*
X116682212Y-98079069D01*
X116898445Y-98273978D01*
X117148548Y-98422957D01*
X117422909Y-98520281D01*
X117652800Y-98399614D01*
X117652800Y-97205800D01*
X116459645Y-97205800D01*
X116338324Y-97435690D01*
X115106238Y-97435690D01*
X115039405Y-97274344D01*
X114926137Y-97104826D01*
X114781974Y-96960663D01*
X114612456Y-96847395D01*
X114424098Y-96769374D01*
X114224139Y-96729600D01*
X114140398Y-96729600D01*
X114140398Y-95888161D01*
X114143838Y-95853235D01*
X114140398Y-95818309D01*
X114140398Y-95818300D01*
X114130107Y-95713816D01*
X114089440Y-95579755D01*
X114023400Y-95456203D01*
X113934525Y-95347909D01*
X113907383Y-95325634D01*
X113759964Y-95178215D01*
X113737689Y-95151073D01*
X113720200Y-95136720D01*
X113720200Y-95029398D01*
X113681127Y-95029398D01*
X113687953Y-95006897D01*
X113720200Y-94974650D01*
X113713098Y-94909702D01*
X113723272Y-94806400D01*
X113723272Y-94506400D01*
X113711012Y-94381918D01*
X113674702Y-94262220D01*
X113615737Y-94151906D01*
X113536385Y-94055215D01*
X113531600Y-94051288D01*
X113531600Y-93903461D01*
X113491826Y-93703502D01*
X113413805Y-93515144D01*
X113300537Y-93345626D01*
X113224731Y-93269820D01*
X113635196Y-92859355D01*
X113662327Y-92837089D01*
X113684593Y-92809958D01*
X113684598Y-92809953D01*
X113751202Y-92728795D01*
X113817242Y-92605244D01*
X113857909Y-92471182D01*
X113858114Y-92469102D01*
X113868200Y-92366698D01*
X113868200Y-92366691D01*
X113871640Y-92331762D01*
X113868200Y-92296834D01*
X113868200Y-89855472D01*
X113957000Y-89855472D01*
X114081482Y-89843212D01*
X114201180Y-89806902D01*
X114311494Y-89747937D01*
X114394763Y-89679600D01*
X115914728Y-89679600D01*
X115914728Y-91879600D01*
X115926988Y-92004082D01*
X115963298Y-92123780D01*
X116022263Y-92234094D01*
X116101615Y-92330785D01*
X116198306Y-92410137D01*
X116308620Y-92469102D01*
X116428318Y-92505412D01*
X116552800Y-92517672D01*
X118752800Y-92517672D01*
X118877282Y-92505412D01*
X118996980Y-92469102D01*
X119107294Y-92410137D01*
X119203985Y-92330785D01*
X119283337Y-92234094D01*
X119342302Y-92123780D01*
X119378612Y-92004082D01*
X119390872Y-91879600D01*
X119390872Y-89679600D01*
X119378612Y-89555118D01*
X119342302Y-89435420D01*
X119283337Y-89325106D01*
X119203985Y-89228415D01*
X119107294Y-89149063D01*
X118996980Y-89090098D01*
X118877282Y-89053788D01*
X118752800Y-89041528D01*
X116552800Y-89041528D01*
X116428318Y-89053788D01*
X116308620Y-89090098D01*
X116198306Y-89149063D01*
X116101615Y-89228415D01*
X116022263Y-89325106D01*
X115963298Y-89435420D01*
X115926988Y-89555118D01*
X115914728Y-89679600D01*
X114394763Y-89679600D01*
X114408185Y-89668585D01*
X114487537Y-89571894D01*
X114546502Y-89461580D01*
X114582812Y-89341882D01*
X114595072Y-89217400D01*
X114595072Y-87617400D01*
X114582812Y-87492918D01*
X114546502Y-87373220D01*
X114487537Y-87262906D01*
X114408185Y-87166215D01*
X114311494Y-87086863D01*
X114201180Y-87027898D01*
X114081482Y-86991588D01*
X114073039Y-86990757D01*
X114271637Y-86792159D01*
X114428680Y-86557127D01*
X114536853Y-86295974D01*
X114592000Y-86018735D01*
X114592000Y-85736065D01*
X114536853Y-85458826D01*
X114428680Y-85197673D01*
X114271637Y-84962641D01*
X114071759Y-84762763D01*
X113836727Y-84605720D01*
X113575574Y-84497547D01*
X113298335Y-84442400D01*
X113015665Y-84442400D01*
X112738426Y-84497547D01*
X112477273Y-84605720D01*
X112242241Y-84762763D01*
X112042363Y-84962641D01*
X111885320Y-85197673D01*
X111777147Y-85458826D01*
X111722000Y-85736065D01*
X111722000Y-86018735D01*
X111777147Y-86295974D01*
X111885320Y-86557127D01*
X112042363Y-86792159D01*
X112240961Y-86990757D01*
X112232518Y-86991588D01*
X112112820Y-87027898D01*
X112002506Y-87086863D01*
X111905815Y-87166215D01*
X111826463Y-87262906D01*
X111767498Y-87373220D01*
X111731188Y-87492918D01*
X111718928Y-87617400D01*
X111718928Y-89217400D01*
X111731188Y-89341882D01*
X111767498Y-89461580D01*
X111826463Y-89571894D01*
X111905815Y-89668585D01*
X112002506Y-89747937D01*
X112112820Y-89806902D01*
X112232518Y-89843212D01*
X112357000Y-89855472D01*
X112445800Y-89855472D01*
X112445801Y-92037172D01*
X109672601Y-94810373D01*
X109672601Y-89336726D01*
X109676041Y-89301800D01*
X109672601Y-89266874D01*
X109672601Y-89266865D01*
X109662310Y-89162381D01*
X109621643Y-89028320D01*
X109555603Y-88904768D01*
X109488998Y-88823609D01*
X109488994Y-88823605D01*
X109466728Y-88796474D01*
X109439597Y-88774208D01*
X106924238Y-86258850D01*
X106972000Y-86018735D01*
X106972000Y-85736065D01*
X106916853Y-85458826D01*
X106808680Y-85197673D01*
X106651637Y-84962641D01*
X106451759Y-84762763D01*
X106216727Y-84605720D01*
X105955574Y-84497547D01*
X105678335Y-84442400D01*
X105395665Y-84442400D01*
X105118426Y-84497547D01*
X104857273Y-84605720D01*
X104622241Y-84762763D01*
X104422363Y-84962641D01*
X104265320Y-85197673D01*
X104157147Y-85458826D01*
X104102000Y-85736065D01*
X104102000Y-86018735D01*
X104157147Y-86295974D01*
X104265320Y-86557127D01*
X104422363Y-86792159D01*
X104622241Y-86992037D01*
X104854759Y-87147400D01*
X104622241Y-87302763D01*
X104422363Y-87502641D01*
X104265320Y-87737673D01*
X104157147Y-87998826D01*
X104102000Y-88276065D01*
X104102000Y-88558735D01*
X104157147Y-88835974D01*
X104265320Y-89097127D01*
X104422363Y-89332159D01*
X104622241Y-89532037D01*
X104857273Y-89689080D01*
X105118426Y-89797253D01*
X105395665Y-89852400D01*
X105678335Y-89852400D01*
X105955574Y-89797253D01*
X106216727Y-89689080D01*
X106451759Y-89532037D01*
X106651637Y-89332159D01*
X106808680Y-89097127D01*
X106916853Y-88835974D01*
X106972000Y-88558735D01*
X106972000Y-88318188D01*
X108250202Y-89596391D01*
X108250202Y-90708593D01*
X108226498Y-90698774D01*
X108026539Y-90659000D01*
X107822661Y-90659000D01*
X107622702Y-90698774D01*
X107434344Y-90776795D01*
X107264826Y-90890063D01*
X107172089Y-90982800D01*
X105983989Y-90982800D01*
X102597959Y-87596772D01*
X102653200Y-87319060D01*
X102653200Y-87026540D01*
X102596132Y-86739642D01*
X102484190Y-86469389D01*
X102321675Y-86226168D01*
X102189820Y-86094313D01*
X102262380Y-86072302D01*
X102372694Y-86013337D01*
X102469385Y-85933985D01*
X102548737Y-85837294D01*
X102607702Y-85726980D01*
X102644012Y-85607282D01*
X102656272Y-85482800D01*
X102653200Y-84918550D01*
X102494450Y-84759800D01*
X101295200Y-84759800D01*
X101295200Y-84779800D01*
X101041200Y-84779800D01*
X101041200Y-84759800D01*
X99841950Y-84759800D01*
X99683200Y-84918550D01*
X99680128Y-85482800D01*
X99692388Y-85607282D01*
X99728698Y-85726980D01*
X99787663Y-85837294D01*
X99867015Y-85933985D01*
X99963706Y-86013337D01*
X100074020Y-86072302D01*
X100146580Y-86094313D01*
X100014725Y-86226168D01*
X99852210Y-86469389D01*
X99740268Y-86739642D01*
X99683200Y-87026540D01*
X99683200Y-87319060D01*
X99740268Y-87605958D01*
X99852210Y-87876211D01*
X100014725Y-88119432D01*
X100221568Y-88326275D01*
X100395960Y-88442800D01*
X100221568Y-88559325D01*
X100014725Y-88766168D01*
X99852210Y-89009389D01*
X99755820Y-89242096D01*
X97852600Y-87338877D01*
X97852600Y-87077340D01*
X97795532Y-86790442D01*
X97683590Y-86520189D01*
X97521075Y-86276968D01*
X97389220Y-86145113D01*
X97461780Y-86123102D01*
X97572094Y-86064137D01*
X97668785Y-85984785D01*
X97748137Y-85888094D01*
X97807102Y-85777780D01*
X97843412Y-85658082D01*
X97855672Y-85533600D01*
X97852600Y-84969350D01*
X97693850Y-84810600D01*
X96494600Y-84810600D01*
X96494600Y-84830600D01*
X96240600Y-84830600D01*
X96240600Y-84810600D01*
X95041350Y-84810600D01*
X94882600Y-84969350D01*
X94879528Y-85533600D01*
X94891788Y-85658082D01*
X94928098Y-85777780D01*
X94987063Y-85888094D01*
X95066415Y-85984785D01*
X95163106Y-86064137D01*
X95273420Y-86123102D01*
X95345980Y-86145113D01*
X95214125Y-86276968D01*
X95051610Y-86520189D01*
X94939668Y-86790442D01*
X94882600Y-87077340D01*
X94882600Y-87369860D01*
X94939668Y-87656758D01*
X95051610Y-87927011D01*
X95214125Y-88170232D01*
X95420968Y-88377075D01*
X95595360Y-88493600D01*
X95420968Y-88610125D01*
X95214125Y-88816968D01*
X95051610Y-89060189D01*
X94939668Y-89330442D01*
X94882600Y-89617340D01*
X94882600Y-89909860D01*
X94939668Y-90196758D01*
X95051610Y-90467011D01*
X95214125Y-90710232D01*
X95420968Y-90917075D01*
X95664189Y-91079590D01*
X95934442Y-91191532D01*
X96221340Y-91248600D01*
X96513860Y-91248600D01*
X96800758Y-91191532D01*
X97071011Y-91079590D01*
X97314232Y-90917075D01*
X97521075Y-90710232D01*
X97683590Y-90467011D01*
X97795532Y-90196758D01*
X97852600Y-89909860D01*
X97852600Y-89617340D01*
X97795532Y-89330442D01*
X97769328Y-89267179D01*
X101177521Y-92675372D01*
X101058308Y-92773208D01*
X100988100Y-92858756D01*
X100917892Y-92773208D01*
X100784264Y-92663542D01*
X100631809Y-92582053D01*
X100466385Y-92531872D01*
X100294350Y-92514928D01*
X99806850Y-92514928D01*
X99634815Y-92531872D01*
X99469391Y-92582053D01*
X99316936Y-92663542D01*
X99183308Y-92773208D01*
X99084250Y-92893910D01*
X98985192Y-92773208D01*
X98851564Y-92663542D01*
X98699109Y-92582053D01*
X98533685Y-92531872D01*
X98361650Y-92514928D01*
X97874150Y-92514928D01*
X97702115Y-92531872D01*
X97536691Y-92582053D01*
X97384236Y-92663542D01*
X97250608Y-92773208D01*
X97180400Y-92858756D01*
X97110192Y-92773208D01*
X96976564Y-92663542D01*
X96824109Y-92582053D01*
X96658685Y-92531872D01*
X96486650Y-92514928D01*
X95999150Y-92514928D01*
X95827115Y-92531872D01*
X95661691Y-92582053D01*
X95509236Y-92663542D01*
X95375608Y-92773208D01*
X95265942Y-92906836D01*
X95184453Y-93059291D01*
X95134272Y-93224715D01*
X95117328Y-93396750D01*
X95117328Y-94309250D01*
X95134272Y-94481285D01*
X95184453Y-94646709D01*
X95265942Y-94799164D01*
X95330250Y-94877524D01*
X95238242Y-94989636D01*
X95156753Y-95142091D01*
X95106572Y-95307515D01*
X95089628Y-95479550D01*
X95089628Y-96123261D01*
X94945539Y-96094600D01*
X94741661Y-96094600D01*
X94541702Y-96134374D01*
X94353344Y-96212395D01*
X94183826Y-96325663D01*
X94039663Y-96469826D01*
X93926395Y-96639344D01*
X93848374Y-96827702D01*
X93808600Y-97027661D01*
X93808600Y-97231539D01*
X93848374Y-97431498D01*
X93926395Y-97619856D01*
X94039663Y-97789374D01*
X94183826Y-97933537D01*
X94353344Y-98046805D01*
X94463224Y-98092319D01*
X94304856Y-98123820D01*
X94116498Y-98201841D01*
X93946980Y-98315109D01*
X93802817Y-98459272D01*
X93689549Y-98628790D01*
X93611528Y-98817148D01*
X93571754Y-99017107D01*
X93571754Y-99220985D01*
X93611528Y-99420944D01*
X93689549Y-99609302D01*
X93802817Y-99778820D01*
X93946980Y-99922983D01*
X94116498Y-100036251D01*
X94304856Y-100114272D01*
X94504815Y-100154046D01*
X94708693Y-100154046D01*
X94908652Y-100114272D01*
X95097010Y-100036251D01*
X95117328Y-100022675D01*
X95117328Y-100583050D01*
X95134272Y-100755085D01*
X95184453Y-100920509D01*
X95265942Y-101072964D01*
X95375608Y-101206592D01*
X95509236Y-101316258D01*
X95661691Y-101397747D01*
X95827115Y-101447928D01*
X95999150Y-101464872D01*
X96145327Y-101464872D01*
X96124454Y-101569807D01*
X96124454Y-101773685D01*
X96164228Y-101973644D01*
X96242249Y-102162002D01*
X96355517Y-102331520D01*
X96499680Y-102475683D01*
X96669198Y-102588951D01*
X96857556Y-102666972D01*
X97057515Y-102706746D01*
X97261393Y-102706746D01*
X97461352Y-102666972D01*
X97649710Y-102588951D01*
X97819228Y-102475683D01*
X97911965Y-102382946D01*
X98176758Y-102382946D01*
X98811807Y-103017996D01*
X98834073Y-103045127D01*
X98861204Y-103067393D01*
X98861209Y-103067398D01*
X98942367Y-103134002D01*
X98986057Y-103157355D01*
X98886012Y-103257400D01*
X98754861Y-103257400D01*
X98554902Y-103297174D01*
X98366544Y-103375195D01*
X98197026Y-103488463D01*
X98052863Y-103632626D01*
X97939595Y-103802144D01*
X97861574Y-103990502D01*
X97821800Y-104190461D01*
X97821800Y-104279658D01*
X97790339Y-104273400D01*
X97586461Y-104273400D01*
X97386502Y-104313174D01*
X97198144Y-104391195D01*
X97028626Y-104504463D01*
X96997902Y-104535187D01*
X96991782Y-104531916D01*
X96843945Y-104487071D01*
X96690200Y-104471928D01*
X95302007Y-104471928D01*
X95382905Y-104350856D01*
X95460926Y-104162498D01*
X95500700Y-103962539D01*
X95500700Y-103758661D01*
X95460926Y-103558702D01*
X95443974Y-103517776D01*
X95499133Y-103494928D01*
X95668651Y-103381660D01*
X95812814Y-103237497D01*
X95926082Y-103067979D01*
X96004103Y-102879621D01*
X96043877Y-102679662D01*
X96043877Y-102475784D01*
X96004103Y-102275825D01*
X95926082Y-102087467D01*
X95812814Y-101917949D01*
X95668651Y-101773786D01*
X95499133Y-101660518D01*
X95310775Y-101582497D01*
X95110816Y-101542723D01*
X94906938Y-101542723D01*
X94706979Y-101582497D01*
X94518621Y-101660518D01*
X94349103Y-101773786D01*
X94268889Y-101854000D01*
X92699986Y-101854000D01*
X92542675Y-101618568D01*
X92335832Y-101411725D01*
X92153666Y-101290005D01*
X92270555Y-101220378D01*
X92486788Y-101025469D01*
X92660841Y-100792120D01*
X92786025Y-100529299D01*
X92830676Y-100382090D01*
X92709355Y-100152200D01*
X91516200Y-100152200D01*
X91516200Y-100172200D01*
X91262200Y-100172200D01*
X91262200Y-100152200D01*
X88976200Y-100152200D01*
X88976200Y-100172200D01*
X88722200Y-100172200D01*
X88722200Y-100152200D01*
X87529045Y-100152200D01*
X87407724Y-100382090D01*
X87452375Y-100529299D01*
X87577559Y-100792120D01*
X87751612Y-101025469D01*
X87967845Y-101220378D01*
X88084734Y-101290005D01*
X87902568Y-101411725D01*
X87695725Y-101618568D01*
X87533210Y-101861789D01*
X87421268Y-102132042D01*
X87364200Y-102418940D01*
X87020000Y-102418940D01*
X87020000Y-94798940D01*
X87364200Y-94798940D01*
X87364200Y-95091460D01*
X87421268Y-95378358D01*
X87533210Y-95648611D01*
X87695725Y-95891832D01*
X87902568Y-96098675D01*
X88076960Y-96215200D01*
X87902568Y-96331725D01*
X87695725Y-96538568D01*
X87533210Y-96781789D01*
X87421268Y-97052042D01*
X87364200Y-97338940D01*
X87364200Y-97631460D01*
X87421268Y-97918358D01*
X87533210Y-98188611D01*
X87695725Y-98431832D01*
X87902568Y-98638675D01*
X88084734Y-98760395D01*
X87967845Y-98830022D01*
X87751612Y-99024931D01*
X87577559Y-99258280D01*
X87452375Y-99521101D01*
X87407724Y-99668310D01*
X87529045Y-99898200D01*
X88722200Y-99898200D01*
X88722200Y-99878200D01*
X88976200Y-99878200D01*
X88976200Y-99898200D01*
X91262200Y-99898200D01*
X91262200Y-99878200D01*
X91516200Y-99878200D01*
X91516200Y-99898200D01*
X92709355Y-99898200D01*
X92830676Y-99668310D01*
X92786025Y-99521101D01*
X92660841Y-99258280D01*
X92486788Y-99024931D01*
X92270555Y-98830022D01*
X92153666Y-98760395D01*
X92335832Y-98638675D01*
X92542675Y-98431832D01*
X92705190Y-98188611D01*
X92817132Y-97918358D01*
X92874200Y-97631460D01*
X92874200Y-97338940D01*
X92817132Y-97052042D01*
X92705190Y-96781789D01*
X92542675Y-96538568D01*
X92335832Y-96331725D01*
X92161440Y-96215200D01*
X92335832Y-96098675D01*
X92542675Y-95891832D01*
X92705190Y-95648611D01*
X92817132Y-95378358D01*
X92874200Y-95091460D01*
X92874200Y-94798940D01*
X92817132Y-94512042D01*
X92705190Y-94241789D01*
X92542675Y-93998568D01*
X92335832Y-93791725D01*
X92153666Y-93670005D01*
X92270555Y-93600378D01*
X92486788Y-93405469D01*
X92660841Y-93172120D01*
X92786025Y-92909299D01*
X92830676Y-92762090D01*
X92709355Y-92532200D01*
X91516200Y-92532200D01*
X91516200Y-92552200D01*
X91262200Y-92552200D01*
X91262200Y-92532200D01*
X88976200Y-92532200D01*
X88976200Y-92552200D01*
X88722200Y-92552200D01*
X88722200Y-92532200D01*
X87529045Y-92532200D01*
X87407724Y-92762090D01*
X87452375Y-92909299D01*
X87577559Y-93172120D01*
X87751612Y-93405469D01*
X87967845Y-93600378D01*
X88084734Y-93670005D01*
X87902568Y-93791725D01*
X87695725Y-93998568D01*
X87533210Y-94241789D01*
X87421268Y-94512042D01*
X87364200Y-94798940D01*
X87020000Y-94798940D01*
X87020000Y-83935200D01*
X87361128Y-83935200D01*
X87361128Y-85635200D01*
X87373388Y-85759682D01*
X87409698Y-85879380D01*
X87468663Y-85989694D01*
X87548015Y-86086385D01*
X87644706Y-86165737D01*
X87755020Y-86224702D01*
X87827580Y-86246713D01*
X87695725Y-86378568D01*
X87533210Y-86621789D01*
X87421268Y-86892042D01*
X87364200Y-87178940D01*
X87364200Y-87471460D01*
X87421268Y-87758358D01*
X87533210Y-88028611D01*
X87695725Y-88271832D01*
X87902568Y-88478675D01*
X88076960Y-88595200D01*
X87902568Y-88711725D01*
X87695725Y-88918568D01*
X87533210Y-89161789D01*
X87421268Y-89432042D01*
X87364200Y-89718940D01*
X87364200Y-90011460D01*
X87421268Y-90298358D01*
X87533210Y-90568611D01*
X87695725Y-90811832D01*
X87902568Y-91018675D01*
X88084734Y-91140395D01*
X87967845Y-91210022D01*
X87751612Y-91404931D01*
X87577559Y-91638280D01*
X87452375Y-91901101D01*
X87407724Y-92048310D01*
X87529045Y-92278200D01*
X88722200Y-92278200D01*
X88722200Y-92258200D01*
X88976200Y-92258200D01*
X88976200Y-92278200D01*
X91262200Y-92278200D01*
X91262200Y-92258200D01*
X91516200Y-92258200D01*
X91516200Y-92278200D01*
X92709355Y-92278200D01*
X92830676Y-92048310D01*
X92786025Y-91901101D01*
X92660841Y-91638280D01*
X92486788Y-91404931D01*
X92270555Y-91210022D01*
X92153666Y-91140395D01*
X92335832Y-91018675D01*
X92542675Y-90811832D01*
X92705190Y-90568611D01*
X92817132Y-90298358D01*
X92874200Y-90011460D01*
X92874200Y-89718940D01*
X92817132Y-89432042D01*
X92705190Y-89161789D01*
X92542675Y-88918568D01*
X92335832Y-88711725D01*
X92161440Y-88595200D01*
X92335832Y-88478675D01*
X92542675Y-88271832D01*
X92705190Y-88028611D01*
X92817132Y-87758358D01*
X92874200Y-87471460D01*
X92874200Y-87178940D01*
X92817132Y-86892042D01*
X92705190Y-86621789D01*
X92542675Y-86378568D01*
X92335832Y-86171725D01*
X92161440Y-86055200D01*
X92335832Y-85938675D01*
X92542675Y-85731832D01*
X92705190Y-85488611D01*
X92817132Y-85218358D01*
X92874200Y-84931460D01*
X92874200Y-84638940D01*
X92817132Y-84352042D01*
X92705190Y-84081789D01*
X92542675Y-83838568D01*
X92537707Y-83833600D01*
X94879528Y-83833600D01*
X94882600Y-84397850D01*
X95041350Y-84556600D01*
X96240600Y-84556600D01*
X96240600Y-83357350D01*
X96494600Y-83357350D01*
X96494600Y-84556600D01*
X97693850Y-84556600D01*
X97852600Y-84397850D01*
X97855672Y-83833600D01*
X97850669Y-83782800D01*
X99680128Y-83782800D01*
X99683200Y-84347050D01*
X99841950Y-84505800D01*
X101041200Y-84505800D01*
X101041200Y-83306550D01*
X101295200Y-83306550D01*
X101295200Y-84505800D01*
X102494450Y-84505800D01*
X102653200Y-84347050D01*
X102656272Y-83782800D01*
X102644012Y-83658318D01*
X102612891Y-83555723D01*
X115963621Y-83555723D01*
X116073358Y-83877654D01*
X116243792Y-84171991D01*
X116468373Y-84427422D01*
X116738471Y-84634131D01*
X117043706Y-84784175D01*
X117256678Y-84848775D01*
X117525800Y-84730725D01*
X117525800Y-83286600D01*
X117779800Y-83286600D01*
X117779800Y-84730725D01*
X118048922Y-84848775D01*
X118261894Y-84784175D01*
X118567129Y-84634131D01*
X118837227Y-84427422D01*
X119061808Y-84171991D01*
X119232242Y-83877654D01*
X119341979Y-83555723D01*
X119224400Y-83286600D01*
X117779800Y-83286600D01*
X117525800Y-83286600D01*
X116081200Y-83286600D01*
X115963621Y-83555723D01*
X102612891Y-83555723D01*
X102607702Y-83538620D01*
X102548737Y-83428306D01*
X102469385Y-83331615D01*
X102372694Y-83252263D01*
X102262380Y-83193298D01*
X102142682Y-83156988D01*
X102018200Y-83144728D01*
X101453950Y-83147800D01*
X101295200Y-83306550D01*
X101041200Y-83306550D01*
X100882450Y-83147800D01*
X100318200Y-83144728D01*
X100193718Y-83156988D01*
X100074020Y-83193298D01*
X99963706Y-83252263D01*
X99867015Y-83331615D01*
X99787663Y-83428306D01*
X99728698Y-83538620D01*
X99692388Y-83658318D01*
X99680128Y-83782800D01*
X97850669Y-83782800D01*
X97843412Y-83709118D01*
X97807102Y-83589420D01*
X97748137Y-83479106D01*
X97668785Y-83382415D01*
X97572094Y-83303063D01*
X97461780Y-83244098D01*
X97342082Y-83207788D01*
X97217600Y-83195528D01*
X96653350Y-83198600D01*
X96494600Y-83357350D01*
X96240600Y-83357350D01*
X96081850Y-83198600D01*
X95517600Y-83195528D01*
X95393118Y-83207788D01*
X95273420Y-83244098D01*
X95163106Y-83303063D01*
X95066415Y-83382415D01*
X94987063Y-83479106D01*
X94928098Y-83589420D01*
X94891788Y-83709118D01*
X94879528Y-83833600D01*
X92537707Y-83833600D01*
X92335832Y-83631725D01*
X92092611Y-83469210D01*
X91822358Y-83357268D01*
X91535460Y-83300200D01*
X91242940Y-83300200D01*
X90956042Y-83357268D01*
X90685789Y-83469210D01*
X90442568Y-83631725D01*
X90310713Y-83763580D01*
X90288702Y-83691020D01*
X90229737Y-83580706D01*
X90150385Y-83484015D01*
X90053694Y-83404663D01*
X89943380Y-83345698D01*
X89823682Y-83309388D01*
X89699200Y-83297128D01*
X87999200Y-83297128D01*
X87874718Y-83309388D01*
X87755020Y-83345698D01*
X87644706Y-83404663D01*
X87548015Y-83484015D01*
X87468663Y-83580706D01*
X87409698Y-83691020D01*
X87373388Y-83810718D01*
X87361128Y-83935200D01*
X87020000Y-83935200D01*
X87020000Y-81940000D01*
X116425975Y-81940000D01*
X116243792Y-82147209D01*
G36*
X113495553Y-102368309D02*
G01*
X113577042Y-102520764D01*
X113626054Y-102580485D01*
X113565963Y-102653706D01*
X113506998Y-102764020D01*
X113470688Y-102883718D01*
X113458428Y-103008200D01*
X113461500Y-103422450D01*
X113620250Y-103581200D01*
X114457000Y-103581200D01*
X114457000Y-103561200D01*
X114659610Y-103561200D01*
X114659611Y-105963400D01*
X114480100Y-105963400D01*
X114480100Y-105943400D01*
X113643350Y-105943400D01*
X113550048Y-106036702D01*
X113520256Y-106016795D01*
X113331898Y-105938774D01*
X113131939Y-105899000D01*
X112928061Y-105899000D01*
X112728102Y-105938774D01*
X112539744Y-106016795D01*
X112370226Y-106130063D01*
X112226063Y-106274226D01*
X112112795Y-106443744D01*
X112034774Y-106632102D01*
X111995000Y-106832061D01*
X111995000Y-107035939D01*
X112034774Y-107235898D01*
X112112795Y-107424256D01*
X112226063Y-107593774D01*
X112370226Y-107737937D01*
X112539744Y-107851205D01*
X112728102Y-107929226D01*
X112928061Y-107969000D01*
X113059212Y-107969000D01*
X113416803Y-108326590D01*
X113439073Y-108353727D01*
X113490520Y-108395949D01*
X113498472Y-108476685D01*
X113548653Y-108642109D01*
X113630142Y-108794564D01*
X113707173Y-108888426D01*
X113607042Y-109010436D01*
X113525553Y-109162891D01*
X113475372Y-109328315D01*
X113458428Y-109500350D01*
X113458428Y-110412850D01*
X113475372Y-110584885D01*
X113525553Y-110750309D01*
X113607042Y-110902764D01*
X113716708Y-111036392D01*
X113850336Y-111146058D01*
X114002791Y-111227547D01*
X114168215Y-111277728D01*
X114340250Y-111294672D01*
X114827750Y-111294672D01*
X114908346Y-111286734D01*
X116225139Y-112603528D01*
X115201000Y-112603528D01*
X115076518Y-112615788D01*
X114956820Y-112652098D01*
X114846506Y-112711063D01*
X114749815Y-112790415D01*
X114670463Y-112887106D01*
X114611498Y-112997420D01*
X114578500Y-113106200D01*
X111241788Y-113106200D01*
X112009595Y-112338393D01*
X112036726Y-112316127D01*
X112058993Y-112288995D01*
X112058997Y-112288991D01*
X112125602Y-112207833D01*
X112191641Y-112084282D01*
X112191642Y-112084281D01*
X112232309Y-111950220D01*
X112242600Y-111845736D01*
X112242600Y-111845729D01*
X112246040Y-111810800D01*
X112242600Y-111775872D01*
X112242600Y-110937711D01*
X112335337Y-110844974D01*
X112448605Y-110675456D01*
X112526626Y-110487098D01*
X112566400Y-110287139D01*
X112566400Y-110083261D01*
X112526626Y-109883302D01*
X112448605Y-109694944D01*
X112335337Y-109525426D01*
X112191174Y-109381263D01*
X112021656Y-109267995D01*
X111833298Y-109189974D01*
X111633339Y-109150200D01*
X111429461Y-109150200D01*
X111325738Y-109170832D01*
X111279189Y-109083744D01*
X111302537Y-109055294D01*
X111361502Y-108944980D01*
X111397812Y-108825282D01*
X111410072Y-108700800D01*
X111407000Y-108286550D01*
X111248250Y-108127800D01*
X110411500Y-108127800D01*
X110411500Y-108932750D01*
X110386100Y-108958150D01*
X110386100Y-110007400D01*
X110406100Y-110007400D01*
X110406100Y-110261400D01*
X110386100Y-110261400D01*
X110386100Y-111310650D01*
X110544850Y-111469400D01*
X110746600Y-111472472D01*
X110820200Y-111465223D01*
X110820200Y-111516212D01*
X109682085Y-112654328D01*
X108774800Y-112654328D01*
X108650318Y-112666588D01*
X108530620Y-112702898D01*
X108420306Y-112761863D01*
X108323615Y-112841215D01*
X108244263Y-112937906D01*
X108185298Y-113048220D01*
X108148988Y-113167918D01*
X108136728Y-113292400D01*
X108136728Y-113595940D01*
X107391200Y-112850413D01*
X107391200Y-112817311D01*
X107483937Y-112724574D01*
X107597205Y-112555056D01*
X107675226Y-112366698D01*
X107715000Y-112166739D01*
X107715000Y-111962861D01*
X107675226Y-111762902D01*
X107597205Y-111574544D01*
X107483937Y-111405026D01*
X107339774Y-111260863D01*
X107170256Y-111147595D01*
X107159759Y-111143247D01*
X107314374Y-111039937D01*
X107360677Y-110993634D01*
X107407142Y-111080564D01*
X107516808Y-111214192D01*
X107650436Y-111323858D01*
X107802891Y-111405347D01*
X107968315Y-111455528D01*
X108140350Y-111472472D01*
X108627850Y-111472472D01*
X108799885Y-111455528D01*
X108965309Y-111405347D01*
X109117764Y-111323858D01*
X109251392Y-111214192D01*
X109256608Y-111207836D01*
X109320415Y-111285585D01*
X109417106Y-111364937D01*
X109527420Y-111423902D01*
X109647118Y-111460212D01*
X109771600Y-111472472D01*
X109973350Y-111469400D01*
X110132100Y-111310650D01*
X110132100Y-110261400D01*
X110112100Y-110261400D01*
X110112100Y-110007400D01*
X110132100Y-110007400D01*
X110132100Y-109202450D01*
X110157500Y-109177050D01*
X110157500Y-108127800D01*
X110137500Y-108127800D01*
X110137500Y-107873800D01*
X110157500Y-107873800D01*
X110157500Y-106824550D01*
X110106700Y-106773750D01*
X110106700Y-105994200D01*
X110360700Y-105994200D01*
X110360700Y-107043450D01*
X110411500Y-107094250D01*
X110411500Y-107873800D01*
X111248250Y-107873800D01*
X111407000Y-107715050D01*
X111410072Y-107300800D01*
X111397812Y-107176318D01*
X111361502Y-107056620D01*
X111302537Y-106946306D01*
X111263807Y-106899113D01*
X111310702Y-106811380D01*
X111347012Y-106691682D01*
X111359272Y-106567200D01*
X111356200Y-106152950D01*
X111197450Y-105994200D01*
X110360700Y-105994200D01*
X110106700Y-105994200D01*
X110086700Y-105994200D01*
X110086700Y-105740200D01*
X110106700Y-105740200D01*
X110106700Y-105720200D01*
X110360700Y-105720200D01*
X110360700Y-105740200D01*
X111197450Y-105740200D01*
X111356200Y-105581450D01*
X111359272Y-105167200D01*
X111347012Y-105042718D01*
X111310702Y-104923020D01*
X111251737Y-104812706D01*
X111232895Y-104789747D01*
X111331102Y-104830426D01*
X111531061Y-104870200D01*
X111734939Y-104870200D01*
X111934898Y-104830426D01*
X112123256Y-104752405D01*
X112292774Y-104639137D01*
X112436937Y-104494974D01*
X112494917Y-104408200D01*
X113458428Y-104408200D01*
X113470688Y-104532682D01*
X113506998Y-104652380D01*
X113565963Y-104762694D01*
X113579697Y-104779429D01*
X113530098Y-104872220D01*
X113493788Y-104991918D01*
X113481528Y-105116400D01*
X113484600Y-105530650D01*
X113643350Y-105689400D01*
X114480100Y-105689400D01*
X114480100Y-104640150D01*
X114457000Y-104617050D01*
X114457000Y-103835200D01*
X113620250Y-103835200D01*
X113461500Y-103993950D01*
X113458428Y-104408200D01*
X112494917Y-104408200D01*
X112550205Y-104325456D01*
X112628226Y-104137098D01*
X112668000Y-103937139D01*
X112668000Y-103733261D01*
X112628226Y-103533302D01*
X112550205Y-103344944D01*
X112436937Y-103175426D01*
X112292774Y-103031263D01*
X112123256Y-102917995D01*
X111934898Y-102839974D01*
X111734939Y-102800200D01*
X111531061Y-102800200D01*
X111331102Y-102839974D01*
X111266598Y-102866693D01*
X111210658Y-102762036D01*
X111100992Y-102628408D01*
X111058848Y-102593821D01*
X111077892Y-102578192D01*
X111187558Y-102444564D01*
X111231689Y-102362000D01*
X113493639Y-102362000D01*
X113495553Y-102368309D01*
G37*
X113495553Y-102368309D02*
X113577042Y-102520764D01*
X113626054Y-102580485D01*
X113565963Y-102653706D01*
X113506998Y-102764020D01*
X113470688Y-102883718D01*
X113458428Y-103008200D01*
X113461500Y-103422450D01*
X113620250Y-103581200D01*
X114457000Y-103581200D01*
X114457000Y-103561200D01*
X114659610Y-103561200D01*
X114659611Y-105963400D01*
X114480100Y-105963400D01*
X114480100Y-105943400D01*
X113643350Y-105943400D01*
X113550048Y-106036702D01*
X113520256Y-106016795D01*
X113331898Y-105938774D01*
X113131939Y-105899000D01*
X112928061Y-105899000D01*
X112728102Y-105938774D01*
X112539744Y-106016795D01*
X112370226Y-106130063D01*
X112226063Y-106274226D01*
X112112795Y-106443744D01*
X112034774Y-106632102D01*
X111995000Y-106832061D01*
X111995000Y-107035939D01*
X112034774Y-107235898D01*
X112112795Y-107424256D01*
X112226063Y-107593774D01*
X112370226Y-107737937D01*
X112539744Y-107851205D01*
X112728102Y-107929226D01*
X112928061Y-107969000D01*
X113059212Y-107969000D01*
X113416803Y-108326590D01*
X113439073Y-108353727D01*
X113490520Y-108395949D01*
X113498472Y-108476685D01*
X113548653Y-108642109D01*
X113630142Y-108794564D01*
X113707173Y-108888426D01*
X113607042Y-109010436D01*
X113525553Y-109162891D01*
X113475372Y-109328315D01*
X113458428Y-109500350D01*
X113458428Y-110412850D01*
X113475372Y-110584885D01*
X113525553Y-110750309D01*
X113607042Y-110902764D01*
X113716708Y-111036392D01*
X113850336Y-111146058D01*
X114002791Y-111227547D01*
X114168215Y-111277728D01*
X114340250Y-111294672D01*
X114827750Y-111294672D01*
X114908346Y-111286734D01*
X116225139Y-112603528D01*
X115201000Y-112603528D01*
X115076518Y-112615788D01*
X114956820Y-112652098D01*
X114846506Y-112711063D01*
X114749815Y-112790415D01*
X114670463Y-112887106D01*
X114611498Y-112997420D01*
X114578500Y-113106200D01*
X111241788Y-113106200D01*
X112009595Y-112338393D01*
X112036726Y-112316127D01*
X112058993Y-112288995D01*
X112058997Y-112288991D01*
X112125602Y-112207833D01*
X112191641Y-112084282D01*
X112191642Y-112084281D01*
X112232309Y-111950220D01*
X112242600Y-111845736D01*
X112242600Y-111845729D01*
X112246040Y-111810800D01*
X112242600Y-111775872D01*
X112242600Y-110937711D01*
X112335337Y-110844974D01*
X112448605Y-110675456D01*
X112526626Y-110487098D01*
X112566400Y-110287139D01*
X112566400Y-110083261D01*
X112526626Y-109883302D01*
X112448605Y-109694944D01*
X112335337Y-109525426D01*
X112191174Y-109381263D01*
X112021656Y-109267995D01*
X111833298Y-109189974D01*
X111633339Y-109150200D01*
X111429461Y-109150200D01*
X111325738Y-109170832D01*
X111279189Y-109083744D01*
X111302537Y-109055294D01*
X111361502Y-108944980D01*
X111397812Y-108825282D01*
X111410072Y-108700800D01*
X111407000Y-108286550D01*
X111248250Y-108127800D01*
X110411500Y-108127800D01*
X110411500Y-108932750D01*
X110386100Y-108958150D01*
X110386100Y-110007400D01*
X110406100Y-110007400D01*
X110406100Y-110261400D01*
X110386100Y-110261400D01*
X110386100Y-111310650D01*
X110544850Y-111469400D01*
X110746600Y-111472472D01*
X110820200Y-111465223D01*
X110820200Y-111516212D01*
X109682085Y-112654328D01*
X108774800Y-112654328D01*
X108650318Y-112666588D01*
X108530620Y-112702898D01*
X108420306Y-112761863D01*
X108323615Y-112841215D01*
X108244263Y-112937906D01*
X108185298Y-113048220D01*
X108148988Y-113167918D01*
X108136728Y-113292400D01*
X108136728Y-113595940D01*
X107391200Y-112850413D01*
X107391200Y-112817311D01*
X107483937Y-112724574D01*
X107597205Y-112555056D01*
X107675226Y-112366698D01*
X107715000Y-112166739D01*
X107715000Y-111962861D01*
X107675226Y-111762902D01*
X107597205Y-111574544D01*
X107483937Y-111405026D01*
X107339774Y-111260863D01*
X107170256Y-111147595D01*
X107159759Y-111143247D01*
X107314374Y-111039937D01*
X107360677Y-110993634D01*
X107407142Y-111080564D01*
X107516808Y-111214192D01*
X107650436Y-111323858D01*
X107802891Y-111405347D01*
X107968315Y-111455528D01*
X108140350Y-111472472D01*
X108627850Y-111472472D01*
X108799885Y-111455528D01*
X108965309Y-111405347D01*
X109117764Y-111323858D01*
X109251392Y-111214192D01*
X109256608Y-111207836D01*
X109320415Y-111285585D01*
X109417106Y-111364937D01*
X109527420Y-111423902D01*
X109647118Y-111460212D01*
X109771600Y-111472472D01*
X109973350Y-111469400D01*
X110132100Y-111310650D01*
X110132100Y-110261400D01*
X110112100Y-110261400D01*
X110112100Y-110007400D01*
X110132100Y-110007400D01*
X110132100Y-109202450D01*
X110157500Y-109177050D01*
X110157500Y-108127800D01*
X110137500Y-108127800D01*
X110137500Y-107873800D01*
X110157500Y-107873800D01*
X110157500Y-106824550D01*
X110106700Y-106773750D01*
X110106700Y-105994200D01*
X110360700Y-105994200D01*
X110360700Y-107043450D01*
X110411500Y-107094250D01*
X110411500Y-107873800D01*
X111248250Y-107873800D01*
X111407000Y-107715050D01*
X111410072Y-107300800D01*
X111397812Y-107176318D01*
X111361502Y-107056620D01*
X111302537Y-106946306D01*
X111263807Y-106899113D01*
X111310702Y-106811380D01*
X111347012Y-106691682D01*
X111359272Y-106567200D01*
X111356200Y-106152950D01*
X111197450Y-105994200D01*
X110360700Y-105994200D01*
X110106700Y-105994200D01*
X110086700Y-105994200D01*
X110086700Y-105740200D01*
X110106700Y-105740200D01*
X110106700Y-105720200D01*
X110360700Y-105720200D01*
X110360700Y-105740200D01*
X111197450Y-105740200D01*
X111356200Y-105581450D01*
X111359272Y-105167200D01*
X111347012Y-105042718D01*
X111310702Y-104923020D01*
X111251737Y-104812706D01*
X111232895Y-104789747D01*
X111331102Y-104830426D01*
X111531061Y-104870200D01*
X111734939Y-104870200D01*
X111934898Y-104830426D01*
X112123256Y-104752405D01*
X112292774Y-104639137D01*
X112436937Y-104494974D01*
X112494917Y-104408200D01*
X113458428Y-104408200D01*
X113470688Y-104532682D01*
X113506998Y-104652380D01*
X113565963Y-104762694D01*
X113579697Y-104779429D01*
X113530098Y-104872220D01*
X113493788Y-104991918D01*
X113481528Y-105116400D01*
X113484600Y-105530650D01*
X113643350Y-105689400D01*
X114480100Y-105689400D01*
X114480100Y-104640150D01*
X114457000Y-104617050D01*
X114457000Y-103835200D01*
X113620250Y-103835200D01*
X113461500Y-103993950D01*
X113458428Y-104408200D01*
X112494917Y-104408200D01*
X112550205Y-104325456D01*
X112628226Y-104137098D01*
X112668000Y-103937139D01*
X112668000Y-103733261D01*
X112628226Y-103533302D01*
X112550205Y-103344944D01*
X112436937Y-103175426D01*
X112292774Y-103031263D01*
X112123256Y-102917995D01*
X111934898Y-102839974D01*
X111734939Y-102800200D01*
X111531061Y-102800200D01*
X111331102Y-102839974D01*
X111266598Y-102866693D01*
X111210658Y-102762036D01*
X111100992Y-102628408D01*
X111058848Y-102593821D01*
X111077892Y-102578192D01*
X111187558Y-102444564D01*
X111231689Y-102362000D01*
X113493639Y-102362000D01*
X113495553Y-102368309D01*
G36*
X98754861Y-105327400D02*
G01*
X98954131Y-105327400D01*
X98980995Y-105392256D01*
X99094263Y-105561774D01*
X99238426Y-105705937D01*
X99407944Y-105819205D01*
X99596302Y-105897226D01*
X99796261Y-105937000D01*
X100000139Y-105937000D01*
X100093837Y-105918363D01*
X100161063Y-106018974D01*
X100305226Y-106163137D01*
X100474744Y-106276405D01*
X100663102Y-106354426D01*
X100863061Y-106394200D01*
X101066939Y-106394200D01*
X101266898Y-106354426D01*
X101332083Y-106327425D01*
X101317271Y-106376255D01*
X101302128Y-106530000D01*
X101302128Y-106830000D01*
X101317271Y-106983745D01*
X101362116Y-107131582D01*
X101434942Y-107267829D01*
X101473654Y-107315000D01*
X101434942Y-107362171D01*
X101362116Y-107498418D01*
X101317271Y-107646255D01*
X101302128Y-107800000D01*
X101302128Y-108100000D01*
X101317271Y-108253745D01*
X101362116Y-108401582D01*
X101433930Y-108535936D01*
X101409663Y-108565506D01*
X101350698Y-108675820D01*
X101314388Y-108795518D01*
X101302128Y-108920000D01*
X101305200Y-108934250D01*
X101463950Y-109093000D01*
X102763200Y-109093000D01*
X102763200Y-109073000D01*
X103017200Y-109073000D01*
X103017200Y-109093000D01*
X104316450Y-109093000D01*
X104475200Y-108934250D01*
X104478272Y-108920000D01*
X104466012Y-108795518D01*
X104429702Y-108675820D01*
X104370737Y-108565506D01*
X104346470Y-108535936D01*
X104418284Y-108401582D01*
X104463129Y-108253745D01*
X104478272Y-108100000D01*
X104478272Y-107800000D01*
X104463129Y-107646255D01*
X104418284Y-107498418D01*
X104345458Y-107362171D01*
X104306746Y-107315000D01*
X104345458Y-107267829D01*
X104418284Y-107131582D01*
X104463129Y-106983745D01*
X104478272Y-106830000D01*
X104478272Y-106530000D01*
X104463129Y-106376255D01*
X104418284Y-106228418D01*
X104345458Y-106092171D01*
X104306746Y-106045000D01*
X104345458Y-105997829D01*
X104418284Y-105861582D01*
X104437281Y-105798955D01*
X104440174Y-105813498D01*
X104518195Y-106001856D01*
X104631463Y-106171374D01*
X104775626Y-106315537D01*
X104945144Y-106428805D01*
X105133502Y-106506826D01*
X105333461Y-106546600D01*
X105464613Y-106546600D01*
X106260439Y-107342427D01*
X106088144Y-107413795D01*
X105918626Y-107527063D01*
X105774463Y-107671226D01*
X105661195Y-107840744D01*
X105583174Y-108029102D01*
X105543400Y-108229061D01*
X105543400Y-108432939D01*
X105583174Y-108632898D01*
X105661195Y-108821256D01*
X105774463Y-108990774D01*
X105918626Y-109134937D01*
X106088144Y-109248205D01*
X106211453Y-109299282D01*
X106164344Y-109318795D01*
X105994826Y-109432063D01*
X105850663Y-109576226D01*
X105737395Y-109745744D01*
X105659374Y-109934102D01*
X105619600Y-110134061D01*
X105619600Y-110337939D01*
X105659374Y-110537898D01*
X105737395Y-110726256D01*
X105850663Y-110895774D01*
X105994826Y-111039937D01*
X106164344Y-111153205D01*
X106174841Y-111157553D01*
X106020226Y-111260863D01*
X105876063Y-111405026D01*
X105762795Y-111574544D01*
X105684774Y-111762902D01*
X105645000Y-111962861D01*
X105645000Y-112166739D01*
X105684774Y-112366698D01*
X105762795Y-112555056D01*
X105876063Y-112724574D01*
X105968800Y-112817311D01*
X105968800Y-112850411D01*
X105632802Y-113186410D01*
X102875400Y-113186410D01*
X102875400Y-113006900D01*
X102895400Y-113006900D01*
X102895400Y-112170150D01*
X103149400Y-112170150D01*
X103149400Y-113006900D01*
X104198650Y-113006900D01*
X104357400Y-112848150D01*
X104360472Y-112646400D01*
X104348212Y-112521918D01*
X104311902Y-112402220D01*
X104252937Y-112291906D01*
X104173585Y-112195215D01*
X104076894Y-112115863D01*
X103966580Y-112056898D01*
X103846882Y-112020588D01*
X103722400Y-112008328D01*
X103308150Y-112011400D01*
X103149400Y-112170150D01*
X102895400Y-112170150D01*
X102736650Y-112011400D01*
X102322400Y-112008328D01*
X102197918Y-112020588D01*
X102078220Y-112056898D01*
X101967906Y-112115863D01*
X101871215Y-112195215D01*
X101791863Y-112291906D01*
X101733094Y-112401853D01*
X101663792Y-112317408D01*
X101587762Y-112255011D01*
X101604626Y-112214298D01*
X101643214Y-112020300D01*
X101803539Y-112020300D01*
X102003498Y-111980526D01*
X102191856Y-111902505D01*
X102361374Y-111789237D01*
X102505537Y-111645074D01*
X102618805Y-111475556D01*
X102696826Y-111287198D01*
X102736600Y-111087239D01*
X102736600Y-110883361D01*
X102696826Y-110683402D01*
X102618805Y-110495044D01*
X102505537Y-110325526D01*
X102361374Y-110181363D01*
X102323861Y-110156298D01*
X102604450Y-110155000D01*
X102763200Y-109996250D01*
X102763200Y-109347000D01*
X103017200Y-109347000D01*
X103017200Y-109996250D01*
X103175950Y-110155000D01*
X103840200Y-110158072D01*
X103964682Y-110145812D01*
X104084380Y-110109502D01*
X104194694Y-110050537D01*
X104291385Y-109971185D01*
X104370737Y-109874494D01*
X104429702Y-109764180D01*
X104466012Y-109644482D01*
X104478272Y-109520000D01*
X104475200Y-109505750D01*
X104316450Y-109347000D01*
X103017200Y-109347000D01*
X102763200Y-109347000D01*
X101463950Y-109347000D01*
X101305200Y-109505750D01*
X101302128Y-109520000D01*
X101308687Y-109586599D01*
X100463902Y-108741815D01*
X100441627Y-108714673D01*
X100333333Y-108625798D01*
X100209781Y-108559758D01*
X100075720Y-108519091D01*
X99971236Y-108508800D01*
X99971226Y-108508800D01*
X99936300Y-108505360D01*
X99901374Y-108508800D01*
X99399301Y-108508800D01*
X99434600Y-108331339D01*
X99434600Y-108127461D01*
X99394826Y-107927502D01*
X99316805Y-107739144D01*
X99203537Y-107569626D01*
X99059374Y-107425463D01*
X98889856Y-107312195D01*
X98701498Y-107234174D01*
X98501539Y-107194400D01*
X98297661Y-107194400D01*
X98097702Y-107234174D01*
X97909344Y-107312195D01*
X97739826Y-107425463D01*
X97647089Y-107518200D01*
X97424285Y-107518200D01*
X97418284Y-107498418D01*
X97345458Y-107362171D01*
X97306746Y-107315000D01*
X97345458Y-107267829D01*
X97418284Y-107131582D01*
X97463129Y-106983745D01*
X97478272Y-106830000D01*
X97478272Y-106530000D01*
X97463129Y-106376255D01*
X97444603Y-106315183D01*
X97586461Y-106343400D01*
X97790339Y-106343400D01*
X97990298Y-106303626D01*
X98178656Y-106225605D01*
X98348174Y-106112337D01*
X98492337Y-105968174D01*
X98605605Y-105798656D01*
X98683626Y-105610298D01*
X98723400Y-105410339D01*
X98723400Y-105321142D01*
X98754861Y-105327400D01*
G37*
X98754861Y-105327400D02*
X98954131Y-105327400D01*
X98980995Y-105392256D01*
X99094263Y-105561774D01*
X99238426Y-105705937D01*
X99407944Y-105819205D01*
X99596302Y-105897226D01*
X99796261Y-105937000D01*
X100000139Y-105937000D01*
X100093837Y-105918363D01*
X100161063Y-106018974D01*
X100305226Y-106163137D01*
X100474744Y-106276405D01*
X100663102Y-106354426D01*
X100863061Y-106394200D01*
X101066939Y-106394200D01*
X101266898Y-106354426D01*
X101332083Y-106327425D01*
X101317271Y-106376255D01*
X101302128Y-106530000D01*
X101302128Y-106830000D01*
X101317271Y-106983745D01*
X101362116Y-107131582D01*
X101434942Y-107267829D01*
X101473654Y-107315000D01*
X101434942Y-107362171D01*
X101362116Y-107498418D01*
X101317271Y-107646255D01*
X101302128Y-107800000D01*
X101302128Y-108100000D01*
X101317271Y-108253745D01*
X101362116Y-108401582D01*
X101433930Y-108535936D01*
X101409663Y-108565506D01*
X101350698Y-108675820D01*
X101314388Y-108795518D01*
X101302128Y-108920000D01*
X101305200Y-108934250D01*
X101463950Y-109093000D01*
X102763200Y-109093000D01*
X102763200Y-109073000D01*
X103017200Y-109073000D01*
X103017200Y-109093000D01*
X104316450Y-109093000D01*
X104475200Y-108934250D01*
X104478272Y-108920000D01*
X104466012Y-108795518D01*
X104429702Y-108675820D01*
X104370737Y-108565506D01*
X104346470Y-108535936D01*
X104418284Y-108401582D01*
X104463129Y-108253745D01*
X104478272Y-108100000D01*
X104478272Y-107800000D01*
X104463129Y-107646255D01*
X104418284Y-107498418D01*
X104345458Y-107362171D01*
X104306746Y-107315000D01*
X104345458Y-107267829D01*
X104418284Y-107131582D01*
X104463129Y-106983745D01*
X104478272Y-106830000D01*
X104478272Y-106530000D01*
X104463129Y-106376255D01*
X104418284Y-106228418D01*
X104345458Y-106092171D01*
X104306746Y-106045000D01*
X104345458Y-105997829D01*
X104418284Y-105861582D01*
X104437281Y-105798955D01*
X104440174Y-105813498D01*
X104518195Y-106001856D01*
X104631463Y-106171374D01*
X104775626Y-106315537D01*
X104945144Y-106428805D01*
X105133502Y-106506826D01*
X105333461Y-106546600D01*
X105464613Y-106546600D01*
X106260439Y-107342427D01*
X106088144Y-107413795D01*
X105918626Y-107527063D01*
X105774463Y-107671226D01*
X105661195Y-107840744D01*
X105583174Y-108029102D01*
X105543400Y-108229061D01*
X105543400Y-108432939D01*
X105583174Y-108632898D01*
X105661195Y-108821256D01*
X105774463Y-108990774D01*
X105918626Y-109134937D01*
X106088144Y-109248205D01*
X106211453Y-109299282D01*
X106164344Y-109318795D01*
X105994826Y-109432063D01*
X105850663Y-109576226D01*
X105737395Y-109745744D01*
X105659374Y-109934102D01*
X105619600Y-110134061D01*
X105619600Y-110337939D01*
X105659374Y-110537898D01*
X105737395Y-110726256D01*
X105850663Y-110895774D01*
X105994826Y-111039937D01*
X106164344Y-111153205D01*
X106174841Y-111157553D01*
X106020226Y-111260863D01*
X105876063Y-111405026D01*
X105762795Y-111574544D01*
X105684774Y-111762902D01*
X105645000Y-111962861D01*
X105645000Y-112166739D01*
X105684774Y-112366698D01*
X105762795Y-112555056D01*
X105876063Y-112724574D01*
X105968800Y-112817311D01*
X105968800Y-112850411D01*
X105632802Y-113186410D01*
X102875400Y-113186410D01*
X102875400Y-113006900D01*
X102895400Y-113006900D01*
X102895400Y-112170150D01*
X103149400Y-112170150D01*
X103149400Y-113006900D01*
X104198650Y-113006900D01*
X104357400Y-112848150D01*
X104360472Y-112646400D01*
X104348212Y-112521918D01*
X104311902Y-112402220D01*
X104252937Y-112291906D01*
X104173585Y-112195215D01*
X104076894Y-112115863D01*
X103966580Y-112056898D01*
X103846882Y-112020588D01*
X103722400Y-112008328D01*
X103308150Y-112011400D01*
X103149400Y-112170150D01*
X102895400Y-112170150D01*
X102736650Y-112011400D01*
X102322400Y-112008328D01*
X102197918Y-112020588D01*
X102078220Y-112056898D01*
X101967906Y-112115863D01*
X101871215Y-112195215D01*
X101791863Y-112291906D01*
X101733094Y-112401853D01*
X101663792Y-112317408D01*
X101587762Y-112255011D01*
X101604626Y-112214298D01*
X101643214Y-112020300D01*
X101803539Y-112020300D01*
X102003498Y-111980526D01*
X102191856Y-111902505D01*
X102361374Y-111789237D01*
X102505537Y-111645074D01*
X102618805Y-111475556D01*
X102696826Y-111287198D01*
X102736600Y-111087239D01*
X102736600Y-110883361D01*
X102696826Y-110683402D01*
X102618805Y-110495044D01*
X102505537Y-110325526D01*
X102361374Y-110181363D01*
X102323861Y-110156298D01*
X102604450Y-110155000D01*
X102763200Y-109996250D01*
X102763200Y-109347000D01*
X103017200Y-109347000D01*
X103017200Y-109996250D01*
X103175950Y-110155000D01*
X103840200Y-110158072D01*
X103964682Y-110145812D01*
X104084380Y-110109502D01*
X104194694Y-110050537D01*
X104291385Y-109971185D01*
X104370737Y-109874494D01*
X104429702Y-109764180D01*
X104466012Y-109644482D01*
X104478272Y-109520000D01*
X104475200Y-109505750D01*
X104316450Y-109347000D01*
X103017200Y-109347000D01*
X102763200Y-109347000D01*
X101463950Y-109347000D01*
X101305200Y-109505750D01*
X101302128Y-109520000D01*
X101308687Y-109586599D01*
X100463902Y-108741815D01*
X100441627Y-108714673D01*
X100333333Y-108625798D01*
X100209781Y-108559758D01*
X100075720Y-108519091D01*
X99971236Y-108508800D01*
X99971226Y-108508800D01*
X99936300Y-108505360D01*
X99901374Y-108508800D01*
X99399301Y-108508800D01*
X99434600Y-108331339D01*
X99434600Y-108127461D01*
X99394826Y-107927502D01*
X99316805Y-107739144D01*
X99203537Y-107569626D01*
X99059374Y-107425463D01*
X98889856Y-107312195D01*
X98701498Y-107234174D01*
X98501539Y-107194400D01*
X98297661Y-107194400D01*
X98097702Y-107234174D01*
X97909344Y-107312195D01*
X97739826Y-107425463D01*
X97647089Y-107518200D01*
X97424285Y-107518200D01*
X97418284Y-107498418D01*
X97345458Y-107362171D01*
X97306746Y-107315000D01*
X97345458Y-107267829D01*
X97418284Y-107131582D01*
X97463129Y-106983745D01*
X97478272Y-106830000D01*
X97478272Y-106530000D01*
X97463129Y-106376255D01*
X97444603Y-106315183D01*
X97586461Y-106343400D01*
X97790339Y-106343400D01*
X97990298Y-106303626D01*
X98178656Y-106225605D01*
X98348174Y-106112337D01*
X98492337Y-105968174D01*
X98605605Y-105798656D01*
X98683626Y-105610298D01*
X98723400Y-105410339D01*
X98723400Y-105321142D01*
X98754861Y-105327400D01*
G36*
X109428174Y-97270309D02*
G01*
X109506195Y-97458667D01*
X109619463Y-97628185D01*
X109763626Y-97772348D01*
X109933144Y-97885616D01*
X110121502Y-97963637D01*
X110321461Y-98003411D01*
X110525339Y-98003411D01*
X110725298Y-97963637D01*
X110913656Y-97885616D01*
X111083174Y-97772348D01*
X111175911Y-97679611D01*
X111228622Y-97679611D01*
X111171174Y-97818302D01*
X111159081Y-97879099D01*
X111048461Y-97879099D01*
X110848502Y-97918873D01*
X110660144Y-97996894D01*
X110490626Y-98110162D01*
X110346463Y-98254325D01*
X110334252Y-98272600D01*
X109764311Y-98272600D01*
X109671574Y-98179863D01*
X109502056Y-98066595D01*
X109313698Y-97988574D01*
X109113739Y-97948800D01*
X108909861Y-97948800D01*
X108709902Y-97988574D01*
X108521544Y-98066595D01*
X108352026Y-98179863D01*
X108207863Y-98324026D01*
X108094595Y-98493544D01*
X108016574Y-98681902D01*
X107976800Y-98881861D01*
X107976800Y-99085739D01*
X108016574Y-99285698D01*
X108094595Y-99474056D01*
X108207863Y-99643574D01*
X108352026Y-99787737D01*
X108521544Y-99901005D01*
X108709902Y-99979026D01*
X108909861Y-100018800D01*
X109113739Y-100018800D01*
X109205850Y-100000478D01*
X109201000Y-100024861D01*
X109201000Y-100228739D01*
X109214867Y-100298452D01*
X109177594Y-100267863D01*
X109067280Y-100208898D01*
X108947582Y-100172588D01*
X108823100Y-100160328D01*
X108621350Y-100163400D01*
X108462600Y-100322150D01*
X108462600Y-101371400D01*
X108482600Y-101371400D01*
X108482600Y-101625400D01*
X108462600Y-101625400D01*
X108462600Y-101645400D01*
X108208600Y-101645400D01*
X108208600Y-101625400D01*
X107371850Y-101625400D01*
X107213100Y-101784150D01*
X107210028Y-102198400D01*
X107222288Y-102322882D01*
X107258598Y-102442580D01*
X107294601Y-102509936D01*
X107221056Y-102460795D01*
X107032698Y-102382774D01*
X106832739Y-102343000D01*
X106628861Y-102343000D01*
X106428902Y-102382774D01*
X106240544Y-102460795D01*
X106071026Y-102574063D01*
X105926863Y-102718226D01*
X105813595Y-102887744D01*
X105735574Y-103076102D01*
X105695800Y-103276061D01*
X105695800Y-103479939D01*
X105735574Y-103679898D01*
X105813595Y-103868256D01*
X105926863Y-104037774D01*
X106071026Y-104181937D01*
X106240544Y-104295205D01*
X106428902Y-104373226D01*
X106628861Y-104413000D01*
X106832739Y-104413000D01*
X106894143Y-104400786D01*
X106921580Y-104409109D01*
X107026064Y-104419400D01*
X107026073Y-104419400D01*
X107060999Y-104422840D01*
X107095925Y-104419400D01*
X107275224Y-104419400D01*
X107300253Y-104501909D01*
X107381742Y-104654364D01*
X107491168Y-104787700D01*
X107381742Y-104921036D01*
X107300253Y-105073491D01*
X107299163Y-105077083D01*
X107222340Y-105061802D01*
X107018462Y-105061802D01*
X106818503Y-105101576D01*
X106630145Y-105179597D01*
X106460627Y-105292865D01*
X106449401Y-105304091D01*
X106430626Y-105209702D01*
X106352605Y-105021344D01*
X106239337Y-104851826D01*
X106095174Y-104707663D01*
X105925656Y-104594395D01*
X105737298Y-104516374D01*
X105537339Y-104476600D01*
X105396557Y-104476600D01*
X105463605Y-104376256D01*
X105541626Y-104187898D01*
X105581400Y-103987939D01*
X105581400Y-103784061D01*
X105541626Y-103584102D01*
X105463605Y-103395744D01*
X105350337Y-103226226D01*
X105206174Y-103082063D01*
X105036656Y-102968795D01*
X104848298Y-102890774D01*
X104648339Y-102851000D01*
X104517188Y-102851000D01*
X103898048Y-102231861D01*
X103875773Y-102204719D01*
X103767479Y-102115844D01*
X103717884Y-102089335D01*
X103691783Y-102050272D01*
X103644449Y-102002938D01*
X104848987Y-100798400D01*
X107210028Y-100798400D01*
X107213100Y-101212650D01*
X107371850Y-101371400D01*
X108208600Y-101371400D01*
X108208600Y-100322150D01*
X108049850Y-100163400D01*
X107848100Y-100160328D01*
X107723618Y-100172588D01*
X107603920Y-100208898D01*
X107493606Y-100267863D01*
X107396915Y-100347215D01*
X107317563Y-100443906D01*
X107258598Y-100554220D01*
X107222288Y-100673918D01*
X107210028Y-100798400D01*
X104848987Y-100798400D01*
X108202916Y-97444472D01*
X108685200Y-97444472D01*
X108809682Y-97432212D01*
X108929380Y-97395902D01*
X109039694Y-97336937D01*
X109040136Y-97336574D01*
X109105843Y-97316642D01*
X109229395Y-97250602D01*
X109337689Y-97161727D01*
X109359964Y-97134585D01*
X109394339Y-97100210D01*
X109428174Y-97270309D01*
G37*
X109428174Y-97270309D02*
X109506195Y-97458667D01*
X109619463Y-97628185D01*
X109763626Y-97772348D01*
X109933144Y-97885616D01*
X110121502Y-97963637D01*
X110321461Y-98003411D01*
X110525339Y-98003411D01*
X110725298Y-97963637D01*
X110913656Y-97885616D01*
X111083174Y-97772348D01*
X111175911Y-97679611D01*
X111228622Y-97679611D01*
X111171174Y-97818302D01*
X111159081Y-97879099D01*
X111048461Y-97879099D01*
X110848502Y-97918873D01*
X110660144Y-97996894D01*
X110490626Y-98110162D01*
X110346463Y-98254325D01*
X110334252Y-98272600D01*
X109764311Y-98272600D01*
X109671574Y-98179863D01*
X109502056Y-98066595D01*
X109313698Y-97988574D01*
X109113739Y-97948800D01*
X108909861Y-97948800D01*
X108709902Y-97988574D01*
X108521544Y-98066595D01*
X108352026Y-98179863D01*
X108207863Y-98324026D01*
X108094595Y-98493544D01*
X108016574Y-98681902D01*
X107976800Y-98881861D01*
X107976800Y-99085739D01*
X108016574Y-99285698D01*
X108094595Y-99474056D01*
X108207863Y-99643574D01*
X108352026Y-99787737D01*
X108521544Y-99901005D01*
X108709902Y-99979026D01*
X108909861Y-100018800D01*
X109113739Y-100018800D01*
X109205850Y-100000478D01*
X109201000Y-100024861D01*
X109201000Y-100228739D01*
X109214867Y-100298452D01*
X109177594Y-100267863D01*
X109067280Y-100208898D01*
X108947582Y-100172588D01*
X108823100Y-100160328D01*
X108621350Y-100163400D01*
X108462600Y-100322150D01*
X108462600Y-101371400D01*
X108482600Y-101371400D01*
X108482600Y-101625400D01*
X108462600Y-101625400D01*
X108462600Y-101645400D01*
X108208600Y-101645400D01*
X108208600Y-101625400D01*
X107371850Y-101625400D01*
X107213100Y-101784150D01*
X107210028Y-102198400D01*
X107222288Y-102322882D01*
X107258598Y-102442580D01*
X107294601Y-102509936D01*
X107221056Y-102460795D01*
X107032698Y-102382774D01*
X106832739Y-102343000D01*
X106628861Y-102343000D01*
X106428902Y-102382774D01*
X106240544Y-102460795D01*
X106071026Y-102574063D01*
X105926863Y-102718226D01*
X105813595Y-102887744D01*
X105735574Y-103076102D01*
X105695800Y-103276061D01*
X105695800Y-103479939D01*
X105735574Y-103679898D01*
X105813595Y-103868256D01*
X105926863Y-104037774D01*
X106071026Y-104181937D01*
X106240544Y-104295205D01*
X106428902Y-104373226D01*
X106628861Y-104413000D01*
X106832739Y-104413000D01*
X106894143Y-104400786D01*
X106921580Y-104409109D01*
X107026064Y-104419400D01*
X107026073Y-104419400D01*
X107060999Y-104422840D01*
X107095925Y-104419400D01*
X107275224Y-104419400D01*
X107300253Y-104501909D01*
X107381742Y-104654364D01*
X107491168Y-104787700D01*
X107381742Y-104921036D01*
X107300253Y-105073491D01*
X107299163Y-105077083D01*
X107222340Y-105061802D01*
X107018462Y-105061802D01*
X106818503Y-105101576D01*
X106630145Y-105179597D01*
X106460627Y-105292865D01*
X106449401Y-105304091D01*
X106430626Y-105209702D01*
X106352605Y-105021344D01*
X106239337Y-104851826D01*
X106095174Y-104707663D01*
X105925656Y-104594395D01*
X105737298Y-104516374D01*
X105537339Y-104476600D01*
X105396557Y-104476600D01*
X105463605Y-104376256D01*
X105541626Y-104187898D01*
X105581400Y-103987939D01*
X105581400Y-103784061D01*
X105541626Y-103584102D01*
X105463605Y-103395744D01*
X105350337Y-103226226D01*
X105206174Y-103082063D01*
X105036656Y-102968795D01*
X104848298Y-102890774D01*
X104648339Y-102851000D01*
X104517188Y-102851000D01*
X103898048Y-102231861D01*
X103875773Y-102204719D01*
X103767479Y-102115844D01*
X103717884Y-102089335D01*
X103691783Y-102050272D01*
X103644449Y-102002938D01*
X104848987Y-100798400D01*
X107210028Y-100798400D01*
X107213100Y-101212650D01*
X107371850Y-101371400D01*
X108208600Y-101371400D01*
X108208600Y-100322150D01*
X108049850Y-100163400D01*
X107848100Y-100160328D01*
X107723618Y-100172588D01*
X107603920Y-100208898D01*
X107493606Y-100267863D01*
X107396915Y-100347215D01*
X107317563Y-100443906D01*
X107258598Y-100554220D01*
X107222288Y-100673918D01*
X107210028Y-100798400D01*
X104848987Y-100798400D01*
X108202916Y-97444472D01*
X108685200Y-97444472D01*
X108809682Y-97432212D01*
X108929380Y-97395902D01*
X109039694Y-97336937D01*
X109040136Y-97336574D01*
X109105843Y-97316642D01*
X109229395Y-97250602D01*
X109337689Y-97161727D01*
X109359964Y-97134585D01*
X109394339Y-97100210D01*
X109428174Y-97270309D01*
G36*
X109302378Y-104709972D02*
G01*
X109295015Y-104716015D01*
X109231208Y-104793764D01*
X109226232Y-104787700D01*
X109296200Y-104702444D01*
X109302378Y-104709972D01*
G37*
X109302378Y-104709972D02*
X109295015Y-104716015D01*
X109231208Y-104793764D01*
X109226232Y-104787700D01*
X109296200Y-104702444D01*
X109302378Y-104709972D01*
M02*
