G04 #@! TF.GenerationSoftware,KiCad,Pcbnew,(5.1.6)-1*
G04 #@! TF.CreationDate,2022-01-24T22:45:59-06:00*
G04 #@! TF.ProjectId,bassDrum,62617373-4472-4756-9d2e-6b696361645f,rev?*
G04 #@! TF.SameCoordinates,Original*
G04 #@! TF.FileFunction,Legend,Top*
G04 #@! TF.FilePolarity,Positive*
%FSLAX46Y46*%
G04 Gerber Fmt 4.6, Leading zero omitted, Abs format (unit mm)*
G04 Created by KiCad (PCBNEW (5.1.6)-1) date 2022-01-24 22:45:59*
%MOMM*%
%LPD*%
G01*
G04 APERTURE LIST*
%ADD10C,0.120000*%
%ADD11C,0.150000*%
%ADD12R,1.800000X1.800000*%
%ADD13O,1.800000X1.800000*%
%ADD14R,1.600000X1.150000*%
%ADD15O,1.600000X1.150000*%
%ADD16R,1.700000X1.700000*%
%ADD17O,1.700000X1.700000*%
%ADD18R,1.500000X0.400000*%
%ADD19R,2.300000X2.300000*%
%ADD20O,2.300000X2.300000*%
G04 APERTURE END LIST*
D10*
X109063022Y-109424400D02*
X109580178Y-109424400D01*
X109063022Y-110844400D02*
X109580178Y-110844400D01*
X115262922Y-110666600D02*
X115780078Y-110666600D01*
X115262922Y-109246600D02*
X115780078Y-109246600D01*
X96896422Y-98804800D02*
X97413578Y-98804800D01*
X96896422Y-97384800D02*
X97413578Y-97384800D01*
X96894122Y-95225800D02*
X97411278Y-95225800D01*
X96894122Y-96645800D02*
X97411278Y-96645800D01*
X100729522Y-95327400D02*
X101246678Y-95327400D01*
X100729522Y-96747400D02*
X101246678Y-96747400D01*
X115803178Y-107138400D02*
X115286022Y-107138400D01*
X115803178Y-108558400D02*
X115286022Y-108558400D01*
X87519200Y-114055200D02*
X92719200Y-114055200D01*
X87519200Y-86055200D02*
X87519200Y-114055200D01*
X92719200Y-83455200D02*
X92719200Y-114055200D01*
X87519200Y-86055200D02*
X90119200Y-86055200D01*
X90119200Y-86055200D02*
X90119200Y-83455200D01*
X90119200Y-83455200D02*
X92719200Y-83455200D01*
X87519200Y-84785200D02*
X87519200Y-83455200D01*
X87519200Y-83455200D02*
X88849200Y-83455200D01*
X95037600Y-91093600D02*
X97697600Y-91093600D01*
X95037600Y-85953600D02*
X95037600Y-91093600D01*
X97697600Y-85953600D02*
X97697600Y-91093600D01*
X95037600Y-85953600D02*
X97697600Y-85953600D01*
X95037600Y-84683600D02*
X95037600Y-83353600D01*
X95037600Y-83353600D02*
X96367600Y-83353600D01*
X99838200Y-83302800D02*
X101168200Y-83302800D01*
X99838200Y-84632800D02*
X99838200Y-83302800D01*
X99838200Y-85902800D02*
X102498200Y-85902800D01*
X102498200Y-85902800D02*
X102498200Y-91042800D01*
X99838200Y-85902800D02*
X99838200Y-91042800D01*
X99838200Y-91042800D02*
X102498200Y-91042800D01*
X107674800Y-113287400D02*
X107674800Y-116887400D01*
X107686322Y-116925878D02*
G75*
G03*
X112124800Y-115087400I1838478J1838478D01*
G01*
X107686322Y-113248922D02*
G75*
G02*
X112124800Y-115087400I1838478J-1838478D01*
G01*
X114101000Y-113236600D02*
X114101000Y-116836600D01*
X114112522Y-113198122D02*
G75*
G02*
X118551000Y-115036600I1838478J-1838478D01*
G01*
X114112522Y-116875078D02*
G75*
G03*
X118551000Y-115036600I1838478J1838478D01*
G01*
X96747400Y-113812822D02*
X96747400Y-114329978D01*
X95327400Y-113812822D02*
X95327400Y-114329978D01*
X97638800Y-113838222D02*
X97638800Y-114355378D01*
X99058800Y-113838222D02*
X99058800Y-114355378D01*
X101294000Y-113863622D02*
X101294000Y-114380778D01*
X99874000Y-113863622D02*
X99874000Y-114380778D01*
X109088422Y-107290800D02*
X109605578Y-107290800D01*
X109088422Y-108710800D02*
X109605578Y-108710800D01*
X115232922Y-102284600D02*
X115750078Y-102284600D01*
X115232922Y-100864600D02*
X115750078Y-100864600D01*
X96921822Y-100836800D02*
X97438978Y-100836800D01*
X96921822Y-99416800D02*
X97438978Y-99416800D01*
X100655622Y-100862200D02*
X101172778Y-100862200D01*
X100655622Y-99442200D02*
X101172778Y-99442200D01*
X100681022Y-98779400D02*
X101198178Y-98779400D01*
X100681022Y-97359400D02*
X101198178Y-97359400D01*
X96921822Y-93143000D02*
X97438978Y-93143000D01*
X96921822Y-94563000D02*
X97438978Y-94563000D01*
X100729522Y-93143000D02*
X101246678Y-93143000D01*
X100729522Y-94563000D02*
X101246678Y-94563000D01*
X109554778Y-102998200D02*
X109037622Y-102998200D01*
X109554778Y-104418200D02*
X109037622Y-104418200D01*
X102312400Y-114329978D02*
X102312400Y-113812822D01*
X103732400Y-114329978D02*
X103732400Y-113812822D01*
X115780078Y-102998200D02*
X115262922Y-102998200D01*
X115780078Y-104418200D02*
X115262922Y-104418200D01*
X109037622Y-105157200D02*
X109554778Y-105157200D01*
X109037622Y-106577200D02*
X109554778Y-106577200D01*
X112757000Y-90527400D02*
X105936000Y-90527400D01*
X112757000Y-83767400D02*
X105936000Y-83767400D01*
X112757000Y-90527400D02*
X112757000Y-89457400D01*
X112757000Y-87377400D02*
X112757000Y-86866400D01*
X112757000Y-84887400D02*
X112757000Y-83767400D01*
X105936000Y-84887400D02*
X105936000Y-83767400D01*
X105936000Y-90527400D02*
X105936000Y-89407400D01*
X105936000Y-87427400D02*
X105936000Y-86866400D01*
X112997000Y-90767400D02*
X111614000Y-90767400D01*
X112997000Y-90767400D02*
X112997000Y-89457400D01*
X111157000Y-89052400D02*
X111157000Y-87782400D01*
X111157000Y-87782400D02*
X107537000Y-87782400D01*
X107537000Y-87782400D02*
X107537000Y-89052400D01*
X107537000Y-89052400D02*
X111157000Y-89052400D01*
X111157000Y-88932400D02*
X109950333Y-88932400D01*
X111157000Y-88812400D02*
X109950333Y-88812400D01*
X111157000Y-88692400D02*
X109950333Y-88692400D01*
X111157000Y-88572400D02*
X109950333Y-88572400D01*
X111157000Y-88452400D02*
X109950333Y-88452400D01*
X111157000Y-88332400D02*
X109950333Y-88332400D01*
X111157000Y-88212400D02*
X109950333Y-88212400D01*
X111157000Y-88092400D02*
X109950333Y-88092400D01*
X111157000Y-87972400D02*
X109950333Y-87972400D01*
X111157000Y-87852400D02*
X109950333Y-87852400D01*
X109950333Y-89052400D02*
X109950333Y-87782400D01*
X111157000Y-86512400D02*
X111157000Y-85242400D01*
X111157000Y-85242400D02*
X107537000Y-85242400D01*
X107537000Y-85242400D02*
X107537000Y-86512400D01*
X107537000Y-86512400D02*
X111157000Y-86512400D01*
X111157000Y-86392400D02*
X109950333Y-86392400D01*
X111157000Y-86272400D02*
X109950333Y-86272400D01*
X111157000Y-86152400D02*
X109950333Y-86152400D01*
X111157000Y-86032400D02*
X109950333Y-86032400D01*
X111157000Y-85912400D02*
X109950333Y-85912400D01*
X111157000Y-85792400D02*
X109950333Y-85792400D01*
X111157000Y-85672400D02*
X109950333Y-85672400D01*
X111157000Y-85552400D02*
X109950333Y-85552400D01*
X111157000Y-85432400D02*
X109950333Y-85432400D01*
X111157000Y-85312400D02*
X109950333Y-85312400D01*
X109950333Y-86512400D02*
X109950333Y-85242400D01*
D11*
X111860200Y-97331400D02*
X111860200Y-97106400D01*
X108510200Y-97331400D02*
X108510200Y-97031400D01*
X108510200Y-93981400D02*
X108510200Y-94281400D01*
X111860200Y-93981400D02*
X111860200Y-94281400D01*
X111860200Y-97331400D02*
X108510200Y-97331400D01*
X111860200Y-93981400D02*
X108510200Y-93981400D01*
X111860200Y-97106400D02*
X113085200Y-97106400D01*
D10*
X109014522Y-100788400D02*
X109531678Y-100788400D01*
X109014522Y-102208400D02*
X109531678Y-102208400D01*
X115286022Y-106526400D02*
X115803178Y-106526400D01*
X115286022Y-105106400D02*
X115803178Y-105106400D01*
X116182800Y-88909600D02*
X119122800Y-88909600D01*
X116182800Y-88669600D02*
X119122800Y-88669600D01*
X116182800Y-88789600D02*
X119122800Y-88789600D01*
X119122800Y-84249600D02*
X118992800Y-84249600D01*
X119122800Y-89689600D02*
X119122800Y-84249600D01*
X118992800Y-89689600D02*
X119122800Y-89689600D01*
X116182800Y-84249600D02*
X116312800Y-84249600D01*
X116182800Y-89689600D02*
X116182800Y-84249600D01*
X116312800Y-89689600D02*
X116182800Y-89689600D01*
X116449800Y-93208800D02*
X117779800Y-93208800D01*
X116449800Y-94538800D02*
X116449800Y-93208800D01*
X116449800Y-95808800D02*
X119109800Y-95808800D01*
X119109800Y-95808800D02*
X119109800Y-98408800D01*
X116449800Y-95808800D02*
X116449800Y-98408800D01*
X116449800Y-98408800D02*
X119109800Y-98408800D01*
X96630200Y-104850000D02*
X94940200Y-104850000D01*
X96630200Y-104105000D02*
X96630200Y-104850000D01*
X99390200Y-104105000D02*
X96630200Y-104105000D01*
X102150200Y-104105000D02*
X102150200Y-104850000D01*
X99390200Y-104105000D02*
X102150200Y-104105000D01*
X96630200Y-110525000D02*
X96630200Y-109780000D01*
X99390200Y-110525000D02*
X96630200Y-110525000D01*
X102150200Y-110525000D02*
X102150200Y-109780000D01*
X99390200Y-110525000D02*
X102150200Y-110525000D01*
D11*
X106462533Y-110491542D02*
X106414914Y-110539161D01*
X106272057Y-110586780D01*
X106176819Y-110586780D01*
X106033961Y-110539161D01*
X105938723Y-110443923D01*
X105891104Y-110348685D01*
X105843485Y-110158209D01*
X105843485Y-110015352D01*
X105891104Y-109824876D01*
X105938723Y-109729638D01*
X106033961Y-109634400D01*
X106176819Y-109586780D01*
X106272057Y-109586780D01*
X106414914Y-109634400D01*
X106462533Y-109682019D01*
X107414914Y-110586780D02*
X106843485Y-110586780D01*
X107129200Y-110586780D02*
X107129200Y-109586780D01*
X107033961Y-109729638D01*
X106938723Y-109824876D01*
X106843485Y-109872495D01*
X118171933Y-110313742D02*
X118124314Y-110361361D01*
X117981457Y-110408980D01*
X117886219Y-110408980D01*
X117743361Y-110361361D01*
X117648123Y-110266123D01*
X117600504Y-110170885D01*
X117552885Y-109980409D01*
X117552885Y-109837552D01*
X117600504Y-109647076D01*
X117648123Y-109551838D01*
X117743361Y-109456600D01*
X117886219Y-109408980D01*
X117981457Y-109408980D01*
X118124314Y-109456600D01*
X118171933Y-109504219D01*
X118552885Y-109504219D02*
X118600504Y-109456600D01*
X118695742Y-109408980D01*
X118933838Y-109408980D01*
X119029076Y-109456600D01*
X119076695Y-109504219D01*
X119124314Y-109599457D01*
X119124314Y-109694695D01*
X119076695Y-109837552D01*
X118505266Y-110408980D01*
X119124314Y-110408980D01*
X94222033Y-98451942D02*
X94174414Y-98499561D01*
X94031557Y-98547180D01*
X93936319Y-98547180D01*
X93793461Y-98499561D01*
X93698223Y-98404323D01*
X93650604Y-98309085D01*
X93602985Y-98118609D01*
X93602985Y-97975752D01*
X93650604Y-97785276D01*
X93698223Y-97690038D01*
X93793461Y-97594800D01*
X93936319Y-97547180D01*
X94031557Y-97547180D01*
X94174414Y-97594800D01*
X94222033Y-97642419D01*
X94555366Y-97547180D02*
X95174414Y-97547180D01*
X94841080Y-97928133D01*
X94983938Y-97928133D01*
X95079176Y-97975752D01*
X95126795Y-98023371D01*
X95174414Y-98118609D01*
X95174414Y-98356704D01*
X95126795Y-98451942D01*
X95079176Y-98499561D01*
X94983938Y-98547180D01*
X94698223Y-98547180D01*
X94602985Y-98499561D01*
X94555366Y-98451942D01*
X94143533Y-96292942D02*
X94095914Y-96340561D01*
X93953057Y-96388180D01*
X93857819Y-96388180D01*
X93714961Y-96340561D01*
X93619723Y-96245323D01*
X93572104Y-96150085D01*
X93524485Y-95959609D01*
X93524485Y-95816752D01*
X93572104Y-95626276D01*
X93619723Y-95531038D01*
X93714961Y-95435800D01*
X93857819Y-95388180D01*
X93953057Y-95388180D01*
X94095914Y-95435800D01*
X94143533Y-95483419D01*
X95000676Y-95721514D02*
X95000676Y-96388180D01*
X94762580Y-95340561D02*
X94524485Y-96054847D01*
X95143533Y-96054847D01*
X103617733Y-96394542D02*
X103570114Y-96442161D01*
X103427257Y-96489780D01*
X103332019Y-96489780D01*
X103189161Y-96442161D01*
X103093923Y-96346923D01*
X103046304Y-96251685D01*
X102998685Y-96061209D01*
X102998685Y-95918352D01*
X103046304Y-95727876D01*
X103093923Y-95632638D01*
X103189161Y-95537400D01*
X103332019Y-95489780D01*
X103427257Y-95489780D01*
X103570114Y-95537400D01*
X103617733Y-95585019D01*
X104522495Y-95489780D02*
X104046304Y-95489780D01*
X103998685Y-95965971D01*
X104046304Y-95918352D01*
X104141542Y-95870733D01*
X104379638Y-95870733D01*
X104474876Y-95918352D01*
X104522495Y-95965971D01*
X104570114Y-96061209D01*
X104570114Y-96299304D01*
X104522495Y-96394542D01*
X104474876Y-96442161D01*
X104379638Y-96489780D01*
X104141542Y-96489780D01*
X104046304Y-96442161D01*
X103998685Y-96394542D01*
X118083033Y-108230942D02*
X118035414Y-108278561D01*
X117892557Y-108326180D01*
X117797319Y-108326180D01*
X117654461Y-108278561D01*
X117559223Y-108183323D01*
X117511604Y-108088085D01*
X117463985Y-107897609D01*
X117463985Y-107754752D01*
X117511604Y-107564276D01*
X117559223Y-107469038D01*
X117654461Y-107373800D01*
X117797319Y-107326180D01*
X117892557Y-107326180D01*
X118035414Y-107373800D01*
X118083033Y-107421419D01*
X118940176Y-107326180D02*
X118749700Y-107326180D01*
X118654461Y-107373800D01*
X118606842Y-107421419D01*
X118511604Y-107564276D01*
X118463985Y-107754752D01*
X118463985Y-108135704D01*
X118511604Y-108230942D01*
X118559223Y-108278561D01*
X118654461Y-108326180D01*
X118844938Y-108326180D01*
X118940176Y-108278561D01*
X118987795Y-108230942D01*
X119035414Y-108135704D01*
X119035414Y-107897609D01*
X118987795Y-107802371D01*
X118940176Y-107754752D01*
X118844938Y-107707133D01*
X118654461Y-107707133D01*
X118559223Y-107754752D01*
X118511604Y-107802371D01*
X118463985Y-107897609D01*
X89785866Y-81907580D02*
X89785866Y-82621866D01*
X89738247Y-82764723D01*
X89643009Y-82859961D01*
X89500152Y-82907580D01*
X89404914Y-82907580D01*
X90785866Y-82907580D02*
X90214438Y-82907580D01*
X90500152Y-82907580D02*
X90500152Y-81907580D01*
X90404914Y-82050438D01*
X90309676Y-82145676D01*
X90214438Y-82193295D01*
X96034266Y-81805980D02*
X96034266Y-82520266D01*
X95986647Y-82663123D01*
X95891409Y-82758361D01*
X95748552Y-82805980D01*
X95653314Y-82805980D01*
X96462838Y-81901219D02*
X96510457Y-81853600D01*
X96605695Y-81805980D01*
X96843790Y-81805980D01*
X96939028Y-81853600D01*
X96986647Y-81901219D01*
X97034266Y-81996457D01*
X97034266Y-82091695D01*
X96986647Y-82234552D01*
X96415219Y-82805980D01*
X97034266Y-82805980D01*
X100834866Y-81755180D02*
X100834866Y-82469466D01*
X100787247Y-82612323D01*
X100692009Y-82707561D01*
X100549152Y-82755180D01*
X100453914Y-82755180D01*
X101215819Y-81755180D02*
X101834866Y-81755180D01*
X101501533Y-82136133D01*
X101644390Y-82136133D01*
X101739628Y-82183752D01*
X101787247Y-82231371D01*
X101834866Y-82326609D01*
X101834866Y-82564704D01*
X101787247Y-82659942D01*
X101739628Y-82707561D01*
X101644390Y-82755180D01*
X101358676Y-82755180D01*
X101263438Y-82707561D01*
X101215819Y-82659942D01*
X113632419Y-115182638D02*
X113584800Y-115277876D01*
X113489561Y-115373114D01*
X113346704Y-115515971D01*
X113299085Y-115611209D01*
X113299085Y-115706447D01*
X113537180Y-115658828D02*
X113489561Y-115754066D01*
X113394323Y-115849304D01*
X113203847Y-115896923D01*
X112870514Y-115896923D01*
X112680038Y-115849304D01*
X112584800Y-115754066D01*
X112537180Y-115658828D01*
X112537180Y-115468352D01*
X112584800Y-115373114D01*
X112680038Y-115277876D01*
X112870514Y-115230257D01*
X113203847Y-115230257D01*
X113394323Y-115277876D01*
X113489561Y-115373114D01*
X113537180Y-115468352D01*
X113537180Y-115658828D01*
X113537180Y-114277876D02*
X113537180Y-114849304D01*
X113537180Y-114563590D02*
X112537180Y-114563590D01*
X112680038Y-114658828D01*
X112775276Y-114754066D01*
X112822895Y-114849304D01*
X120058619Y-115131838D02*
X120011000Y-115227076D01*
X119915761Y-115322314D01*
X119772904Y-115465171D01*
X119725285Y-115560409D01*
X119725285Y-115655647D01*
X119963380Y-115608028D02*
X119915761Y-115703266D01*
X119820523Y-115798504D01*
X119630047Y-115846123D01*
X119296714Y-115846123D01*
X119106238Y-115798504D01*
X119011000Y-115703266D01*
X118963380Y-115608028D01*
X118963380Y-115417552D01*
X119011000Y-115322314D01*
X119106238Y-115227076D01*
X119296714Y-115179457D01*
X119630047Y-115179457D01*
X119820523Y-115227076D01*
X119915761Y-115322314D01*
X119963380Y-115417552D01*
X119963380Y-115608028D01*
X119058619Y-114798504D02*
X119011000Y-114750885D01*
X118963380Y-114655647D01*
X118963380Y-114417552D01*
X119011000Y-114322314D01*
X119058619Y-114274695D01*
X119153857Y-114227076D01*
X119249095Y-114227076D01*
X119391952Y-114274695D01*
X119963380Y-114846123D01*
X119963380Y-114227076D01*
X95972333Y-116860580D02*
X95639000Y-116384390D01*
X95400904Y-116860580D02*
X95400904Y-115860580D01*
X95781857Y-115860580D01*
X95877095Y-115908200D01*
X95924714Y-115955819D01*
X95972333Y-116051057D01*
X95972333Y-116193914D01*
X95924714Y-116289152D01*
X95877095Y-116336771D01*
X95781857Y-116384390D01*
X95400904Y-116384390D01*
X96924714Y-116860580D02*
X96353285Y-116860580D01*
X96639000Y-116860580D02*
X96639000Y-115860580D01*
X96543761Y-116003438D01*
X96448523Y-116098676D01*
X96353285Y-116146295D01*
X98182133Y-116936780D02*
X97848800Y-116460590D01*
X97610704Y-116936780D02*
X97610704Y-115936780D01*
X97991657Y-115936780D01*
X98086895Y-115984400D01*
X98134514Y-116032019D01*
X98182133Y-116127257D01*
X98182133Y-116270114D01*
X98134514Y-116365352D01*
X98086895Y-116412971D01*
X97991657Y-116460590D01*
X97610704Y-116460590D01*
X98563085Y-116032019D02*
X98610704Y-115984400D01*
X98705942Y-115936780D01*
X98944038Y-115936780D01*
X99039276Y-115984400D01*
X99086895Y-116032019D01*
X99134514Y-116127257D01*
X99134514Y-116222495D01*
X99086895Y-116365352D01*
X98515466Y-116936780D01*
X99134514Y-116936780D01*
X100468133Y-116936780D02*
X100134800Y-116460590D01*
X99896704Y-116936780D02*
X99896704Y-115936780D01*
X100277657Y-115936780D01*
X100372895Y-115984400D01*
X100420514Y-116032019D01*
X100468133Y-116127257D01*
X100468133Y-116270114D01*
X100420514Y-116365352D01*
X100372895Y-116412971D01*
X100277657Y-116460590D01*
X99896704Y-116460590D01*
X100801466Y-115936780D02*
X101420514Y-115936780D01*
X101087180Y-116317733D01*
X101230038Y-116317733D01*
X101325276Y-116365352D01*
X101372895Y-116412971D01*
X101420514Y-116508209D01*
X101420514Y-116746304D01*
X101372895Y-116841542D01*
X101325276Y-116889161D01*
X101230038Y-116936780D01*
X100944323Y-116936780D01*
X100849085Y-116889161D01*
X100801466Y-116841542D01*
X106386333Y-108453180D02*
X106053000Y-107976990D01*
X105814904Y-108453180D02*
X105814904Y-107453180D01*
X106195857Y-107453180D01*
X106291095Y-107500800D01*
X106338714Y-107548419D01*
X106386333Y-107643657D01*
X106386333Y-107786514D01*
X106338714Y-107881752D01*
X106291095Y-107929371D01*
X106195857Y-107976990D01*
X105814904Y-107976990D01*
X107243476Y-107786514D02*
X107243476Y-108453180D01*
X107005380Y-107405561D02*
X106767285Y-108119847D01*
X107386333Y-108119847D01*
X118095733Y-102026980D02*
X117762400Y-101550790D01*
X117524304Y-102026980D02*
X117524304Y-101026980D01*
X117905257Y-101026980D01*
X118000495Y-101074600D01*
X118048114Y-101122219D01*
X118095733Y-101217457D01*
X118095733Y-101360314D01*
X118048114Y-101455552D01*
X118000495Y-101503171D01*
X117905257Y-101550790D01*
X117524304Y-101550790D01*
X119000495Y-101026980D02*
X118524304Y-101026980D01*
X118476685Y-101503171D01*
X118524304Y-101455552D01*
X118619542Y-101407933D01*
X118857638Y-101407933D01*
X118952876Y-101455552D01*
X119000495Y-101503171D01*
X119048114Y-101598409D01*
X119048114Y-101836504D01*
X119000495Y-101931742D01*
X118952876Y-101979361D01*
X118857638Y-102026980D01*
X118619542Y-102026980D01*
X118524304Y-101979361D01*
X118476685Y-101931742D01*
X94321333Y-100579180D02*
X93988000Y-100102990D01*
X93749904Y-100579180D02*
X93749904Y-99579180D01*
X94130857Y-99579180D01*
X94226095Y-99626800D01*
X94273714Y-99674419D01*
X94321333Y-99769657D01*
X94321333Y-99912514D01*
X94273714Y-100007752D01*
X94226095Y-100055371D01*
X94130857Y-100102990D01*
X93749904Y-100102990D01*
X95178476Y-99579180D02*
X94988000Y-99579180D01*
X94892761Y-99626800D01*
X94845142Y-99674419D01*
X94749904Y-99817276D01*
X94702285Y-100007752D01*
X94702285Y-100388704D01*
X94749904Y-100483942D01*
X94797523Y-100531561D01*
X94892761Y-100579180D01*
X95083238Y-100579180D01*
X95178476Y-100531561D01*
X95226095Y-100483942D01*
X95273714Y-100388704D01*
X95273714Y-100150609D01*
X95226095Y-100055371D01*
X95178476Y-100007752D01*
X95083238Y-99960133D01*
X94892761Y-99960133D01*
X94797523Y-100007752D01*
X94749904Y-100055371D01*
X94702285Y-100150609D01*
X103488433Y-100604580D02*
X103155100Y-100128390D01*
X102917004Y-100604580D02*
X102917004Y-99604580D01*
X103297957Y-99604580D01*
X103393195Y-99652200D01*
X103440814Y-99699819D01*
X103488433Y-99795057D01*
X103488433Y-99937914D01*
X103440814Y-100033152D01*
X103393195Y-100080771D01*
X103297957Y-100128390D01*
X102917004Y-100128390D01*
X103821766Y-99604580D02*
X104488433Y-99604580D01*
X104059861Y-100604580D01*
X103693933Y-98521780D02*
X103360600Y-98045590D01*
X103122504Y-98521780D02*
X103122504Y-97521780D01*
X103503457Y-97521780D01*
X103598695Y-97569400D01*
X103646314Y-97617019D01*
X103693933Y-97712257D01*
X103693933Y-97855114D01*
X103646314Y-97950352D01*
X103598695Y-97997971D01*
X103503457Y-98045590D01*
X103122504Y-98045590D01*
X104265361Y-97950352D02*
X104170123Y-97902733D01*
X104122504Y-97855114D01*
X104074885Y-97759876D01*
X104074885Y-97712257D01*
X104122504Y-97617019D01*
X104170123Y-97569400D01*
X104265361Y-97521780D01*
X104455838Y-97521780D01*
X104551076Y-97569400D01*
X104598695Y-97617019D01*
X104646314Y-97712257D01*
X104646314Y-97759876D01*
X104598695Y-97855114D01*
X104551076Y-97902733D01*
X104455838Y-97950352D01*
X104265361Y-97950352D01*
X104170123Y-97997971D01*
X104122504Y-98045590D01*
X104074885Y-98140828D01*
X104074885Y-98331304D01*
X104122504Y-98426542D01*
X104170123Y-98474161D01*
X104265361Y-98521780D01*
X104455838Y-98521780D01*
X104551076Y-98474161D01*
X104598695Y-98426542D01*
X104646314Y-98331304D01*
X104646314Y-98140828D01*
X104598695Y-98045590D01*
X104551076Y-97997971D01*
X104455838Y-97950352D01*
X94270533Y-94305380D02*
X93937200Y-93829190D01*
X93699104Y-94305380D02*
X93699104Y-93305380D01*
X94080057Y-93305380D01*
X94175295Y-93353000D01*
X94222914Y-93400619D01*
X94270533Y-93495857D01*
X94270533Y-93638714D01*
X94222914Y-93733952D01*
X94175295Y-93781571D01*
X94080057Y-93829190D01*
X93699104Y-93829190D01*
X94746723Y-94305380D02*
X94937200Y-94305380D01*
X95032438Y-94257761D01*
X95080057Y-94210142D01*
X95175295Y-94067285D01*
X95222914Y-93876809D01*
X95222914Y-93495857D01*
X95175295Y-93400619D01*
X95127676Y-93353000D01*
X95032438Y-93305380D01*
X94841961Y-93305380D01*
X94746723Y-93353000D01*
X94699104Y-93400619D01*
X94651485Y-93495857D01*
X94651485Y-93733952D01*
X94699104Y-93829190D01*
X94746723Y-93876809D01*
X94841961Y-93924428D01*
X95032438Y-93924428D01*
X95127676Y-93876809D01*
X95175295Y-93829190D01*
X95222914Y-93733952D01*
X103547942Y-94330780D02*
X103214609Y-93854590D01*
X102976514Y-94330780D02*
X102976514Y-93330780D01*
X103357466Y-93330780D01*
X103452704Y-93378400D01*
X103500323Y-93426019D01*
X103547942Y-93521257D01*
X103547942Y-93664114D01*
X103500323Y-93759352D01*
X103452704Y-93806971D01*
X103357466Y-93854590D01*
X102976514Y-93854590D01*
X104500323Y-94330780D02*
X103928895Y-94330780D01*
X104214609Y-94330780D02*
X104214609Y-93330780D01*
X104119371Y-93473638D01*
X104024133Y-93568876D01*
X103928895Y-93616495D01*
X105119371Y-93330780D02*
X105214609Y-93330780D01*
X105309847Y-93378400D01*
X105357466Y-93426019D01*
X105405085Y-93521257D01*
X105452704Y-93711733D01*
X105452704Y-93949828D01*
X105405085Y-94140304D01*
X105357466Y-94235542D01*
X105309847Y-94283161D01*
X105214609Y-94330780D01*
X105119371Y-94330780D01*
X105024133Y-94283161D01*
X104976514Y-94235542D01*
X104928895Y-94140304D01*
X104881276Y-93949828D01*
X104881276Y-93711733D01*
X104928895Y-93521257D01*
X104976514Y-93426019D01*
X105024133Y-93378400D01*
X105119371Y-93330780D01*
X105579942Y-104185980D02*
X105246609Y-103709790D01*
X105008514Y-104185980D02*
X105008514Y-103185980D01*
X105389466Y-103185980D01*
X105484704Y-103233600D01*
X105532323Y-103281219D01*
X105579942Y-103376457D01*
X105579942Y-103519314D01*
X105532323Y-103614552D01*
X105484704Y-103662171D01*
X105389466Y-103709790D01*
X105008514Y-103709790D01*
X106532323Y-104185980D02*
X105960895Y-104185980D01*
X106246609Y-104185980D02*
X106246609Y-103185980D01*
X106151371Y-103328838D01*
X106056133Y-103424076D01*
X105960895Y-103471695D01*
X107484704Y-104185980D02*
X106913276Y-104185980D01*
X107198990Y-104185980D02*
X107198990Y-103185980D01*
X107103752Y-103328838D01*
X107008514Y-103424076D01*
X106913276Y-103471695D01*
X102684342Y-116936780D02*
X102351009Y-116460590D01*
X102112914Y-116936780D02*
X102112914Y-115936780D01*
X102493866Y-115936780D01*
X102589104Y-115984400D01*
X102636723Y-116032019D01*
X102684342Y-116127257D01*
X102684342Y-116270114D01*
X102636723Y-116365352D01*
X102589104Y-116412971D01*
X102493866Y-116460590D01*
X102112914Y-116460590D01*
X103636723Y-116936780D02*
X103065295Y-116936780D01*
X103351009Y-116936780D02*
X103351009Y-115936780D01*
X103255771Y-116079638D01*
X103160533Y-116174876D01*
X103065295Y-116222495D01*
X104017676Y-116032019D02*
X104065295Y-115984400D01*
X104160533Y-115936780D01*
X104398628Y-115936780D01*
X104493866Y-115984400D01*
X104541485Y-116032019D01*
X104589104Y-116127257D01*
X104589104Y-116222495D01*
X104541485Y-116365352D01*
X103970057Y-116936780D01*
X104589104Y-116936780D01*
X118000542Y-104198680D02*
X117667209Y-103722490D01*
X117429114Y-104198680D02*
X117429114Y-103198680D01*
X117810066Y-103198680D01*
X117905304Y-103246300D01*
X117952923Y-103293919D01*
X118000542Y-103389157D01*
X118000542Y-103532014D01*
X117952923Y-103627252D01*
X117905304Y-103674871D01*
X117810066Y-103722490D01*
X117429114Y-103722490D01*
X118952923Y-104198680D02*
X118381495Y-104198680D01*
X118667209Y-104198680D02*
X118667209Y-103198680D01*
X118571971Y-103341538D01*
X118476733Y-103436776D01*
X118381495Y-103484395D01*
X119286257Y-103198680D02*
X119905304Y-103198680D01*
X119571971Y-103579633D01*
X119714828Y-103579633D01*
X119810066Y-103627252D01*
X119857685Y-103674871D01*
X119905304Y-103770109D01*
X119905304Y-104008204D01*
X119857685Y-104103442D01*
X119810066Y-104151061D01*
X119714828Y-104198680D01*
X119429114Y-104198680D01*
X119333876Y-104151061D01*
X119286257Y-104103442D01*
X105275142Y-106294180D02*
X104941809Y-105817990D01*
X104703714Y-106294180D02*
X104703714Y-105294180D01*
X105084666Y-105294180D01*
X105179904Y-105341800D01*
X105227523Y-105389419D01*
X105275142Y-105484657D01*
X105275142Y-105627514D01*
X105227523Y-105722752D01*
X105179904Y-105770371D01*
X105084666Y-105817990D01*
X104703714Y-105817990D01*
X106227523Y-106294180D02*
X105656095Y-106294180D01*
X105941809Y-106294180D02*
X105941809Y-105294180D01*
X105846571Y-105437038D01*
X105751333Y-105532276D01*
X105656095Y-105579895D01*
X107084666Y-105627514D02*
X107084666Y-106294180D01*
X106846571Y-105246561D02*
X106608476Y-105960847D01*
X107227523Y-105960847D01*
X107734266Y-83005561D02*
X107877123Y-83053180D01*
X108115219Y-83053180D01*
X108210457Y-83005561D01*
X108258076Y-82957942D01*
X108305695Y-82862704D01*
X108305695Y-82767466D01*
X108258076Y-82672228D01*
X108210457Y-82624609D01*
X108115219Y-82576990D01*
X107924742Y-82529371D01*
X107829504Y-82481752D01*
X107781885Y-82434133D01*
X107734266Y-82338895D01*
X107734266Y-82243657D01*
X107781885Y-82148419D01*
X107829504Y-82100800D01*
X107924742Y-82053180D01*
X108162838Y-82053180D01*
X108305695Y-82100800D01*
X108639028Y-82053180D02*
X108877123Y-83053180D01*
X109067600Y-82338895D01*
X109258076Y-83053180D01*
X109496171Y-82053180D01*
X110400933Y-83053180D02*
X109829504Y-83053180D01*
X110115219Y-83053180D02*
X110115219Y-82053180D01*
X110019980Y-82196038D01*
X109924742Y-82291276D01*
X109829504Y-82338895D01*
X109423295Y-92314780D02*
X109423295Y-93124304D01*
X109470914Y-93219542D01*
X109518533Y-93267161D01*
X109613771Y-93314780D01*
X109804247Y-93314780D01*
X109899485Y-93267161D01*
X109947104Y-93219542D01*
X109994723Y-93124304D01*
X109994723Y-92314780D01*
X110423295Y-92410019D02*
X110470914Y-92362400D01*
X110566152Y-92314780D01*
X110804247Y-92314780D01*
X110899485Y-92362400D01*
X110947104Y-92410019D01*
X110994723Y-92505257D01*
X110994723Y-92600495D01*
X110947104Y-92743352D01*
X110375676Y-93314780D01*
X110994723Y-93314780D01*
X106383632Y-101845741D02*
X106336013Y-101893360D01*
X106193156Y-101940979D01*
X106097918Y-101940979D01*
X105955060Y-101893360D01*
X105859822Y-101798122D01*
X105812203Y-101702884D01*
X105764584Y-101512408D01*
X105764584Y-101369551D01*
X105812203Y-101179075D01*
X105859822Y-101083837D01*
X105955060Y-100988599D01*
X106097918Y-100940979D01*
X106193156Y-100940979D01*
X106336013Y-100988599D01*
X106383632Y-101036218D01*
X106716965Y-100940979D02*
X107383632Y-100940979D01*
X106955060Y-101940979D01*
X118044933Y-106224342D02*
X117997314Y-106271961D01*
X117854457Y-106319580D01*
X117759219Y-106319580D01*
X117616361Y-106271961D01*
X117521123Y-106176723D01*
X117473504Y-106081485D01*
X117425885Y-105891009D01*
X117425885Y-105748152D01*
X117473504Y-105557676D01*
X117521123Y-105462438D01*
X117616361Y-105367200D01*
X117759219Y-105319580D01*
X117854457Y-105319580D01*
X117997314Y-105367200D01*
X118044933Y-105414819D01*
X118616361Y-105748152D02*
X118521123Y-105700533D01*
X118473504Y-105652914D01*
X118425885Y-105557676D01*
X118425885Y-105510057D01*
X118473504Y-105414819D01*
X118521123Y-105367200D01*
X118616361Y-105319580D01*
X118806838Y-105319580D01*
X118902076Y-105367200D01*
X118949695Y-105414819D01*
X118997314Y-105510057D01*
X118997314Y-105557676D01*
X118949695Y-105652914D01*
X118902076Y-105700533D01*
X118806838Y-105748152D01*
X118616361Y-105748152D01*
X118521123Y-105795771D01*
X118473504Y-105843390D01*
X118425885Y-105938628D01*
X118425885Y-106129104D01*
X118473504Y-106224342D01*
X118521123Y-106271961D01*
X118616361Y-106319580D01*
X118806838Y-106319580D01*
X118902076Y-106271961D01*
X118949695Y-106224342D01*
X118997314Y-106129104D01*
X118997314Y-105938628D01*
X118949695Y-105843390D01*
X118902076Y-105795771D01*
X118806838Y-105748152D01*
X115635180Y-87707695D02*
X114635180Y-87707695D01*
X114635180Y-87469600D01*
X114682800Y-87326742D01*
X114778038Y-87231504D01*
X114873276Y-87183885D01*
X115063752Y-87136266D01*
X115206609Y-87136266D01*
X115397085Y-87183885D01*
X115492323Y-87231504D01*
X115587561Y-87326742D01*
X115635180Y-87469600D01*
X115635180Y-87707695D01*
X115635180Y-86183885D02*
X115635180Y-86755314D01*
X115635180Y-86469600D02*
X114635180Y-86469600D01*
X114778038Y-86564838D01*
X114873276Y-86660076D01*
X114920895Y-86755314D01*
X116005180Y-91041504D02*
X115005180Y-91041504D01*
X116005180Y-90470076D02*
X115433752Y-90898647D01*
X115005180Y-90470076D02*
X115576609Y-91041504D01*
X114627066Y-95108780D02*
X114627066Y-95823066D01*
X114579447Y-95965923D01*
X114484209Y-96061161D01*
X114341352Y-96108780D01*
X114246114Y-96108780D01*
X115531828Y-95442114D02*
X115531828Y-96108780D01*
X115293733Y-95061161D02*
X115055638Y-95775447D01*
X115674685Y-95775447D01*
X98628295Y-102717380D02*
X98628295Y-103526904D01*
X98675914Y-103622142D01*
X98723533Y-103669761D01*
X98818771Y-103717380D01*
X99009247Y-103717380D01*
X99104485Y-103669761D01*
X99152104Y-103622142D01*
X99199723Y-103526904D01*
X99199723Y-102717380D01*
X100199723Y-103717380D02*
X99628295Y-103717380D01*
X99914009Y-103717380D02*
X99914009Y-102717380D01*
X99818771Y-102860238D01*
X99723533Y-102955476D01*
X99628295Y-103003095D01*
%LPC*%
G36*
G01*
X107846600Y-110615650D02*
X107846600Y-109653150D01*
G75*
G02*
X108115350Y-109384400I268750J0D01*
G01*
X108652850Y-109384400D01*
G75*
G02*
X108921600Y-109653150I0J-268750D01*
G01*
X108921600Y-110615650D01*
G75*
G02*
X108652850Y-110884400I-268750J0D01*
G01*
X108115350Y-110884400D01*
G75*
G02*
X107846600Y-110615650I0J268750D01*
G01*
G37*
G36*
G01*
X109721600Y-110615650D02*
X109721600Y-109653150D01*
G75*
G02*
X109990350Y-109384400I268750J0D01*
G01*
X110527850Y-109384400D01*
G75*
G02*
X110796600Y-109653150I0J-268750D01*
G01*
X110796600Y-110615650D01*
G75*
G02*
X110527850Y-110884400I-268750J0D01*
G01*
X109990350Y-110884400D01*
G75*
G02*
X109721600Y-110615650I0J268750D01*
G01*
G37*
G36*
G01*
X115921500Y-110437850D02*
X115921500Y-109475350D01*
G75*
G02*
X116190250Y-109206600I268750J0D01*
G01*
X116727750Y-109206600D01*
G75*
G02*
X116996500Y-109475350I0J-268750D01*
G01*
X116996500Y-110437850D01*
G75*
G02*
X116727750Y-110706600I-268750J0D01*
G01*
X116190250Y-110706600D01*
G75*
G02*
X115921500Y-110437850I0J268750D01*
G01*
G37*
G36*
G01*
X114046500Y-110437850D02*
X114046500Y-109475350D01*
G75*
G02*
X114315250Y-109206600I268750J0D01*
G01*
X114852750Y-109206600D01*
G75*
G02*
X115121500Y-109475350I0J-268750D01*
G01*
X115121500Y-110437850D01*
G75*
G02*
X114852750Y-110706600I-268750J0D01*
G01*
X114315250Y-110706600D01*
G75*
G02*
X114046500Y-110437850I0J268750D01*
G01*
G37*
G36*
G01*
X97555000Y-98576050D02*
X97555000Y-97613550D01*
G75*
G02*
X97823750Y-97344800I268750J0D01*
G01*
X98361250Y-97344800D01*
G75*
G02*
X98630000Y-97613550I0J-268750D01*
G01*
X98630000Y-98576050D01*
G75*
G02*
X98361250Y-98844800I-268750J0D01*
G01*
X97823750Y-98844800D01*
G75*
G02*
X97555000Y-98576050I0J268750D01*
G01*
G37*
G36*
G01*
X95680000Y-98576050D02*
X95680000Y-97613550D01*
G75*
G02*
X95948750Y-97344800I268750J0D01*
G01*
X96486250Y-97344800D01*
G75*
G02*
X96755000Y-97613550I0J-268750D01*
G01*
X96755000Y-98576050D01*
G75*
G02*
X96486250Y-98844800I-268750J0D01*
G01*
X95948750Y-98844800D01*
G75*
G02*
X95680000Y-98576050I0J268750D01*
G01*
G37*
G36*
G01*
X95677700Y-96417050D02*
X95677700Y-95454550D01*
G75*
G02*
X95946450Y-95185800I268750J0D01*
G01*
X96483950Y-95185800D01*
G75*
G02*
X96752700Y-95454550I0J-268750D01*
G01*
X96752700Y-96417050D01*
G75*
G02*
X96483950Y-96685800I-268750J0D01*
G01*
X95946450Y-96685800D01*
G75*
G02*
X95677700Y-96417050I0J268750D01*
G01*
G37*
G36*
G01*
X97552700Y-96417050D02*
X97552700Y-95454550D01*
G75*
G02*
X97821450Y-95185800I268750J0D01*
G01*
X98358950Y-95185800D01*
G75*
G02*
X98627700Y-95454550I0J-268750D01*
G01*
X98627700Y-96417050D01*
G75*
G02*
X98358950Y-96685800I-268750J0D01*
G01*
X97821450Y-96685800D01*
G75*
G02*
X97552700Y-96417050I0J268750D01*
G01*
G37*
G36*
G01*
X99513100Y-96518650D02*
X99513100Y-95556150D01*
G75*
G02*
X99781850Y-95287400I268750J0D01*
G01*
X100319350Y-95287400D01*
G75*
G02*
X100588100Y-95556150I0J-268750D01*
G01*
X100588100Y-96518650D01*
G75*
G02*
X100319350Y-96787400I-268750J0D01*
G01*
X99781850Y-96787400D01*
G75*
G02*
X99513100Y-96518650I0J268750D01*
G01*
G37*
G36*
G01*
X101388100Y-96518650D02*
X101388100Y-95556150D01*
G75*
G02*
X101656850Y-95287400I268750J0D01*
G01*
X102194350Y-95287400D01*
G75*
G02*
X102463100Y-95556150I0J-268750D01*
G01*
X102463100Y-96518650D01*
G75*
G02*
X102194350Y-96787400I-268750J0D01*
G01*
X101656850Y-96787400D01*
G75*
G02*
X101388100Y-96518650I0J268750D01*
G01*
G37*
G36*
G01*
X115144600Y-107367150D02*
X115144600Y-108329650D01*
G75*
G02*
X114875850Y-108598400I-268750J0D01*
G01*
X114338350Y-108598400D01*
G75*
G02*
X114069600Y-108329650I0J268750D01*
G01*
X114069600Y-107367150D01*
G75*
G02*
X114338350Y-107098400I268750J0D01*
G01*
X114875850Y-107098400D01*
G75*
G02*
X115144600Y-107367150I0J-268750D01*
G01*
G37*
G36*
G01*
X117019600Y-107367150D02*
X117019600Y-108329650D01*
G75*
G02*
X116750850Y-108598400I-268750J0D01*
G01*
X116213350Y-108598400D01*
G75*
G02*
X115944600Y-108329650I0J268750D01*
G01*
X115944600Y-107367150D01*
G75*
G02*
X116213350Y-107098400I268750J0D01*
G01*
X116750850Y-107098400D01*
G75*
G02*
X117019600Y-107367150I0J-268750D01*
G01*
G37*
D12*
X88849200Y-84785200D03*
D13*
X91389200Y-84785200D03*
X88849200Y-87325200D03*
X91389200Y-87325200D03*
X88849200Y-89865200D03*
X91389200Y-89865200D03*
X88849200Y-92405200D03*
X91389200Y-92405200D03*
X88849200Y-94945200D03*
X91389200Y-94945200D03*
X88849200Y-97485200D03*
X91389200Y-97485200D03*
X88849200Y-100025200D03*
X91389200Y-100025200D03*
X88849200Y-102565200D03*
X91389200Y-102565200D03*
X88849200Y-105105200D03*
X91389200Y-105105200D03*
X88849200Y-107645200D03*
X91389200Y-107645200D03*
X88849200Y-110185200D03*
X91389200Y-110185200D03*
X88849200Y-112725200D03*
X91389200Y-112725200D03*
D12*
X96367600Y-84683600D03*
D13*
X96367600Y-87223600D03*
X96367600Y-89763600D03*
X101168200Y-89712800D03*
X101168200Y-87172800D03*
D12*
X101168200Y-84632800D03*
D14*
X109524800Y-113817400D03*
D15*
X109524800Y-116357400D03*
X109524800Y-115087400D03*
X115951000Y-115036600D03*
X115951000Y-116306600D03*
D14*
X115951000Y-113766600D03*
G36*
G01*
X95556150Y-112596400D02*
X96518650Y-112596400D01*
G75*
G02*
X96787400Y-112865150I0J-268750D01*
G01*
X96787400Y-113402650D01*
G75*
G02*
X96518650Y-113671400I-268750J0D01*
G01*
X95556150Y-113671400D01*
G75*
G02*
X95287400Y-113402650I0J268750D01*
G01*
X95287400Y-112865150D01*
G75*
G02*
X95556150Y-112596400I268750J0D01*
G01*
G37*
G36*
G01*
X95556150Y-114471400D02*
X96518650Y-114471400D01*
G75*
G02*
X96787400Y-114740150I0J-268750D01*
G01*
X96787400Y-115277650D01*
G75*
G02*
X96518650Y-115546400I-268750J0D01*
G01*
X95556150Y-115546400D01*
G75*
G02*
X95287400Y-115277650I0J268750D01*
G01*
X95287400Y-114740150D01*
G75*
G02*
X95556150Y-114471400I268750J0D01*
G01*
G37*
G36*
G01*
X97867550Y-114496800D02*
X98830050Y-114496800D01*
G75*
G02*
X99098800Y-114765550I0J-268750D01*
G01*
X99098800Y-115303050D01*
G75*
G02*
X98830050Y-115571800I-268750J0D01*
G01*
X97867550Y-115571800D01*
G75*
G02*
X97598800Y-115303050I0J268750D01*
G01*
X97598800Y-114765550D01*
G75*
G02*
X97867550Y-114496800I268750J0D01*
G01*
G37*
G36*
G01*
X97867550Y-112621800D02*
X98830050Y-112621800D01*
G75*
G02*
X99098800Y-112890550I0J-268750D01*
G01*
X99098800Y-113428050D01*
G75*
G02*
X98830050Y-113696800I-268750J0D01*
G01*
X97867550Y-113696800D01*
G75*
G02*
X97598800Y-113428050I0J268750D01*
G01*
X97598800Y-112890550D01*
G75*
G02*
X97867550Y-112621800I268750J0D01*
G01*
G37*
G36*
G01*
X100102750Y-112647200D02*
X101065250Y-112647200D01*
G75*
G02*
X101334000Y-112915950I0J-268750D01*
G01*
X101334000Y-113453450D01*
G75*
G02*
X101065250Y-113722200I-268750J0D01*
G01*
X100102750Y-113722200D01*
G75*
G02*
X99834000Y-113453450I0J268750D01*
G01*
X99834000Y-112915950D01*
G75*
G02*
X100102750Y-112647200I268750J0D01*
G01*
G37*
G36*
G01*
X100102750Y-114522200D02*
X101065250Y-114522200D01*
G75*
G02*
X101334000Y-114790950I0J-268750D01*
G01*
X101334000Y-115328450D01*
G75*
G02*
X101065250Y-115597200I-268750J0D01*
G01*
X100102750Y-115597200D01*
G75*
G02*
X99834000Y-115328450I0J268750D01*
G01*
X99834000Y-114790950D01*
G75*
G02*
X100102750Y-114522200I268750J0D01*
G01*
G37*
G36*
G01*
X107872000Y-108482050D02*
X107872000Y-107519550D01*
G75*
G02*
X108140750Y-107250800I268750J0D01*
G01*
X108678250Y-107250800D01*
G75*
G02*
X108947000Y-107519550I0J-268750D01*
G01*
X108947000Y-108482050D01*
G75*
G02*
X108678250Y-108750800I-268750J0D01*
G01*
X108140750Y-108750800D01*
G75*
G02*
X107872000Y-108482050I0J268750D01*
G01*
G37*
G36*
G01*
X109747000Y-108482050D02*
X109747000Y-107519550D01*
G75*
G02*
X110015750Y-107250800I268750J0D01*
G01*
X110553250Y-107250800D01*
G75*
G02*
X110822000Y-107519550I0J-268750D01*
G01*
X110822000Y-108482050D01*
G75*
G02*
X110553250Y-108750800I-268750J0D01*
G01*
X110015750Y-108750800D01*
G75*
G02*
X109747000Y-108482050I0J268750D01*
G01*
G37*
G36*
G01*
X115891500Y-102055850D02*
X115891500Y-101093350D01*
G75*
G02*
X116160250Y-100824600I268750J0D01*
G01*
X116697750Y-100824600D01*
G75*
G02*
X116966500Y-101093350I0J-268750D01*
G01*
X116966500Y-102055850D01*
G75*
G02*
X116697750Y-102324600I-268750J0D01*
G01*
X116160250Y-102324600D01*
G75*
G02*
X115891500Y-102055850I0J268750D01*
G01*
G37*
G36*
G01*
X114016500Y-102055850D02*
X114016500Y-101093350D01*
G75*
G02*
X114285250Y-100824600I268750J0D01*
G01*
X114822750Y-100824600D01*
G75*
G02*
X115091500Y-101093350I0J-268750D01*
G01*
X115091500Y-102055850D01*
G75*
G02*
X114822750Y-102324600I-268750J0D01*
G01*
X114285250Y-102324600D01*
G75*
G02*
X114016500Y-102055850I0J268750D01*
G01*
G37*
G36*
G01*
X97580400Y-100608050D02*
X97580400Y-99645550D01*
G75*
G02*
X97849150Y-99376800I268750J0D01*
G01*
X98386650Y-99376800D01*
G75*
G02*
X98655400Y-99645550I0J-268750D01*
G01*
X98655400Y-100608050D01*
G75*
G02*
X98386650Y-100876800I-268750J0D01*
G01*
X97849150Y-100876800D01*
G75*
G02*
X97580400Y-100608050I0J268750D01*
G01*
G37*
G36*
G01*
X95705400Y-100608050D02*
X95705400Y-99645550D01*
G75*
G02*
X95974150Y-99376800I268750J0D01*
G01*
X96511650Y-99376800D01*
G75*
G02*
X96780400Y-99645550I0J-268750D01*
G01*
X96780400Y-100608050D01*
G75*
G02*
X96511650Y-100876800I-268750J0D01*
G01*
X95974150Y-100876800D01*
G75*
G02*
X95705400Y-100608050I0J268750D01*
G01*
G37*
G36*
G01*
X101314200Y-100633450D02*
X101314200Y-99670950D01*
G75*
G02*
X101582950Y-99402200I268750J0D01*
G01*
X102120450Y-99402200D01*
G75*
G02*
X102389200Y-99670950I0J-268750D01*
G01*
X102389200Y-100633450D01*
G75*
G02*
X102120450Y-100902200I-268750J0D01*
G01*
X101582950Y-100902200D01*
G75*
G02*
X101314200Y-100633450I0J268750D01*
G01*
G37*
G36*
G01*
X99439200Y-100633450D02*
X99439200Y-99670950D01*
G75*
G02*
X99707950Y-99402200I268750J0D01*
G01*
X100245450Y-99402200D01*
G75*
G02*
X100514200Y-99670950I0J-268750D01*
G01*
X100514200Y-100633450D01*
G75*
G02*
X100245450Y-100902200I-268750J0D01*
G01*
X99707950Y-100902200D01*
G75*
G02*
X99439200Y-100633450I0J268750D01*
G01*
G37*
G36*
G01*
X101339600Y-98550650D02*
X101339600Y-97588150D01*
G75*
G02*
X101608350Y-97319400I268750J0D01*
G01*
X102145850Y-97319400D01*
G75*
G02*
X102414600Y-97588150I0J-268750D01*
G01*
X102414600Y-98550650D01*
G75*
G02*
X102145850Y-98819400I-268750J0D01*
G01*
X101608350Y-98819400D01*
G75*
G02*
X101339600Y-98550650I0J268750D01*
G01*
G37*
G36*
G01*
X99464600Y-98550650D02*
X99464600Y-97588150D01*
G75*
G02*
X99733350Y-97319400I268750J0D01*
G01*
X100270850Y-97319400D01*
G75*
G02*
X100539600Y-97588150I0J-268750D01*
G01*
X100539600Y-98550650D01*
G75*
G02*
X100270850Y-98819400I-268750J0D01*
G01*
X99733350Y-98819400D01*
G75*
G02*
X99464600Y-98550650I0J268750D01*
G01*
G37*
G36*
G01*
X95705400Y-94334250D02*
X95705400Y-93371750D01*
G75*
G02*
X95974150Y-93103000I268750J0D01*
G01*
X96511650Y-93103000D01*
G75*
G02*
X96780400Y-93371750I0J-268750D01*
G01*
X96780400Y-94334250D01*
G75*
G02*
X96511650Y-94603000I-268750J0D01*
G01*
X95974150Y-94603000D01*
G75*
G02*
X95705400Y-94334250I0J268750D01*
G01*
G37*
G36*
G01*
X97580400Y-94334250D02*
X97580400Y-93371750D01*
G75*
G02*
X97849150Y-93103000I268750J0D01*
G01*
X98386650Y-93103000D01*
G75*
G02*
X98655400Y-93371750I0J-268750D01*
G01*
X98655400Y-94334250D01*
G75*
G02*
X98386650Y-94603000I-268750J0D01*
G01*
X97849150Y-94603000D01*
G75*
G02*
X97580400Y-94334250I0J268750D01*
G01*
G37*
G36*
G01*
X99513100Y-94334250D02*
X99513100Y-93371750D01*
G75*
G02*
X99781850Y-93103000I268750J0D01*
G01*
X100319350Y-93103000D01*
G75*
G02*
X100588100Y-93371750I0J-268750D01*
G01*
X100588100Y-94334250D01*
G75*
G02*
X100319350Y-94603000I-268750J0D01*
G01*
X99781850Y-94603000D01*
G75*
G02*
X99513100Y-94334250I0J268750D01*
G01*
G37*
G36*
G01*
X101388100Y-94334250D02*
X101388100Y-93371750D01*
G75*
G02*
X101656850Y-93103000I268750J0D01*
G01*
X102194350Y-93103000D01*
G75*
G02*
X102463100Y-93371750I0J-268750D01*
G01*
X102463100Y-94334250D01*
G75*
G02*
X102194350Y-94603000I-268750J0D01*
G01*
X101656850Y-94603000D01*
G75*
G02*
X101388100Y-94334250I0J268750D01*
G01*
G37*
G36*
G01*
X108896200Y-103226950D02*
X108896200Y-104189450D01*
G75*
G02*
X108627450Y-104458200I-268750J0D01*
G01*
X108089950Y-104458200D01*
G75*
G02*
X107821200Y-104189450I0J268750D01*
G01*
X107821200Y-103226950D01*
G75*
G02*
X108089950Y-102958200I268750J0D01*
G01*
X108627450Y-102958200D01*
G75*
G02*
X108896200Y-103226950I0J-268750D01*
G01*
G37*
G36*
G01*
X110771200Y-103226950D02*
X110771200Y-104189450D01*
G75*
G02*
X110502450Y-104458200I-268750J0D01*
G01*
X109964950Y-104458200D01*
G75*
G02*
X109696200Y-104189450I0J268750D01*
G01*
X109696200Y-103226950D01*
G75*
G02*
X109964950Y-102958200I268750J0D01*
G01*
X110502450Y-102958200D01*
G75*
G02*
X110771200Y-103226950I0J-268750D01*
G01*
G37*
G36*
G01*
X103503650Y-115546400D02*
X102541150Y-115546400D01*
G75*
G02*
X102272400Y-115277650I0J268750D01*
G01*
X102272400Y-114740150D01*
G75*
G02*
X102541150Y-114471400I268750J0D01*
G01*
X103503650Y-114471400D01*
G75*
G02*
X103772400Y-114740150I0J-268750D01*
G01*
X103772400Y-115277650D01*
G75*
G02*
X103503650Y-115546400I-268750J0D01*
G01*
G37*
G36*
G01*
X103503650Y-113671400D02*
X102541150Y-113671400D01*
G75*
G02*
X102272400Y-113402650I0J268750D01*
G01*
X102272400Y-112865150D01*
G75*
G02*
X102541150Y-112596400I268750J0D01*
G01*
X103503650Y-112596400D01*
G75*
G02*
X103772400Y-112865150I0J-268750D01*
G01*
X103772400Y-113402650D01*
G75*
G02*
X103503650Y-113671400I-268750J0D01*
G01*
G37*
G36*
G01*
X115121500Y-103226950D02*
X115121500Y-104189450D01*
G75*
G02*
X114852750Y-104458200I-268750J0D01*
G01*
X114315250Y-104458200D01*
G75*
G02*
X114046500Y-104189450I0J268750D01*
G01*
X114046500Y-103226950D01*
G75*
G02*
X114315250Y-102958200I268750J0D01*
G01*
X114852750Y-102958200D01*
G75*
G02*
X115121500Y-103226950I0J-268750D01*
G01*
G37*
G36*
G01*
X116996500Y-103226950D02*
X116996500Y-104189450D01*
G75*
G02*
X116727750Y-104458200I-268750J0D01*
G01*
X116190250Y-104458200D01*
G75*
G02*
X115921500Y-104189450I0J268750D01*
G01*
X115921500Y-103226950D01*
G75*
G02*
X116190250Y-102958200I268750J0D01*
G01*
X116727750Y-102958200D01*
G75*
G02*
X116996500Y-103226950I0J-268750D01*
G01*
G37*
G36*
G01*
X107821200Y-106348450D02*
X107821200Y-105385950D01*
G75*
G02*
X108089950Y-105117200I268750J0D01*
G01*
X108627450Y-105117200D01*
G75*
G02*
X108896200Y-105385950I0J-268750D01*
G01*
X108896200Y-106348450D01*
G75*
G02*
X108627450Y-106617200I-268750J0D01*
G01*
X108089950Y-106617200D01*
G75*
G02*
X107821200Y-106348450I0J268750D01*
G01*
G37*
G36*
G01*
X109696200Y-106348450D02*
X109696200Y-105385950D01*
G75*
G02*
X109964950Y-105117200I268750J0D01*
G01*
X110502450Y-105117200D01*
G75*
G02*
X110771200Y-105385950I0J-268750D01*
G01*
X110771200Y-106348450D01*
G75*
G02*
X110502450Y-106617200I-268750J0D01*
G01*
X109964950Y-106617200D01*
G75*
G02*
X109696200Y-106348450I0J268750D01*
G01*
G37*
D16*
X113157000Y-88417400D03*
D17*
X105537000Y-85877400D03*
X113157000Y-85877400D03*
X105537000Y-88417400D03*
D18*
X112385200Y-96656400D03*
X112385200Y-96156400D03*
X112385200Y-95656400D03*
X112385200Y-95156400D03*
X112385200Y-94656400D03*
X107985200Y-94656400D03*
X107985200Y-95156400D03*
X107985200Y-95656400D03*
X107985200Y-96156400D03*
X107985200Y-96656400D03*
G36*
G01*
X109673100Y-101979650D02*
X109673100Y-101017150D01*
G75*
G02*
X109941850Y-100748400I268750J0D01*
G01*
X110479350Y-100748400D01*
G75*
G02*
X110748100Y-101017150I0J-268750D01*
G01*
X110748100Y-101979650D01*
G75*
G02*
X110479350Y-102248400I-268750J0D01*
G01*
X109941850Y-102248400D01*
G75*
G02*
X109673100Y-101979650I0J268750D01*
G01*
G37*
G36*
G01*
X107798100Y-101979650D02*
X107798100Y-101017150D01*
G75*
G02*
X108066850Y-100748400I268750J0D01*
G01*
X108604350Y-100748400D01*
G75*
G02*
X108873100Y-101017150I0J-268750D01*
G01*
X108873100Y-101979650D01*
G75*
G02*
X108604350Y-102248400I-268750J0D01*
G01*
X108066850Y-102248400D01*
G75*
G02*
X107798100Y-101979650I0J268750D01*
G01*
G37*
G36*
G01*
X114069600Y-106297650D02*
X114069600Y-105335150D01*
G75*
G02*
X114338350Y-105066400I268750J0D01*
G01*
X114875850Y-105066400D01*
G75*
G02*
X115144600Y-105335150I0J-268750D01*
G01*
X115144600Y-106297650D01*
G75*
G02*
X114875850Y-106566400I-268750J0D01*
G01*
X114338350Y-106566400D01*
G75*
G02*
X114069600Y-106297650I0J268750D01*
G01*
G37*
G36*
G01*
X115944600Y-106297650D02*
X115944600Y-105335150D01*
G75*
G02*
X116213350Y-105066400I268750J0D01*
G01*
X116750850Y-105066400D01*
G75*
G02*
X117019600Y-105335150I0J-268750D01*
G01*
X117019600Y-106297650D01*
G75*
G02*
X116750850Y-106566400I-268750J0D01*
G01*
X116213350Y-106566400D01*
G75*
G02*
X115944600Y-106297650I0J268750D01*
G01*
G37*
D19*
X117652800Y-90779600D03*
D20*
X117652800Y-83159600D03*
D12*
X117779800Y-94538800D03*
D13*
X117779800Y-97078800D03*
G36*
G01*
X94890200Y-105585000D02*
X94890200Y-105235000D01*
G75*
G02*
X95065200Y-105060000I175000J0D01*
G01*
X96715200Y-105060000D01*
G75*
G02*
X96890200Y-105235000I0J-175000D01*
G01*
X96890200Y-105585000D01*
G75*
G02*
X96715200Y-105760000I-175000J0D01*
G01*
X95065200Y-105760000D01*
G75*
G02*
X94890200Y-105585000I0J175000D01*
G01*
G37*
G36*
G01*
X94890200Y-106855000D02*
X94890200Y-106505000D01*
G75*
G02*
X95065200Y-106330000I175000J0D01*
G01*
X96715200Y-106330000D01*
G75*
G02*
X96890200Y-106505000I0J-175000D01*
G01*
X96890200Y-106855000D01*
G75*
G02*
X96715200Y-107030000I-175000J0D01*
G01*
X95065200Y-107030000D01*
G75*
G02*
X94890200Y-106855000I0J175000D01*
G01*
G37*
G36*
G01*
X94890200Y-108125000D02*
X94890200Y-107775000D01*
G75*
G02*
X95065200Y-107600000I175000J0D01*
G01*
X96715200Y-107600000D01*
G75*
G02*
X96890200Y-107775000I0J-175000D01*
G01*
X96890200Y-108125000D01*
G75*
G02*
X96715200Y-108300000I-175000J0D01*
G01*
X95065200Y-108300000D01*
G75*
G02*
X94890200Y-108125000I0J175000D01*
G01*
G37*
G36*
G01*
X94890200Y-109395000D02*
X94890200Y-109045000D01*
G75*
G02*
X95065200Y-108870000I175000J0D01*
G01*
X96715200Y-108870000D01*
G75*
G02*
X96890200Y-109045000I0J-175000D01*
G01*
X96890200Y-109395000D01*
G75*
G02*
X96715200Y-109570000I-175000J0D01*
G01*
X95065200Y-109570000D01*
G75*
G02*
X94890200Y-109395000I0J175000D01*
G01*
G37*
G36*
G01*
X101890200Y-109395000D02*
X101890200Y-109045000D01*
G75*
G02*
X102065200Y-108870000I175000J0D01*
G01*
X103715200Y-108870000D01*
G75*
G02*
X103890200Y-109045000I0J-175000D01*
G01*
X103890200Y-109395000D01*
G75*
G02*
X103715200Y-109570000I-175000J0D01*
G01*
X102065200Y-109570000D01*
G75*
G02*
X101890200Y-109395000I0J175000D01*
G01*
G37*
G36*
G01*
X101890200Y-108125000D02*
X101890200Y-107775000D01*
G75*
G02*
X102065200Y-107600000I175000J0D01*
G01*
X103715200Y-107600000D01*
G75*
G02*
X103890200Y-107775000I0J-175000D01*
G01*
X103890200Y-108125000D01*
G75*
G02*
X103715200Y-108300000I-175000J0D01*
G01*
X102065200Y-108300000D01*
G75*
G02*
X101890200Y-108125000I0J175000D01*
G01*
G37*
G36*
G01*
X101890200Y-106855000D02*
X101890200Y-106505000D01*
G75*
G02*
X102065200Y-106330000I175000J0D01*
G01*
X103715200Y-106330000D01*
G75*
G02*
X103890200Y-106505000I0J-175000D01*
G01*
X103890200Y-106855000D01*
G75*
G02*
X103715200Y-107030000I-175000J0D01*
G01*
X102065200Y-107030000D01*
G75*
G02*
X101890200Y-106855000I0J175000D01*
G01*
G37*
G36*
G01*
X101890200Y-105585000D02*
X101890200Y-105235000D01*
G75*
G02*
X102065200Y-105060000I175000J0D01*
G01*
X103715200Y-105060000D01*
G75*
G02*
X103890200Y-105235000I0J-175000D01*
G01*
X103890200Y-105585000D01*
G75*
G02*
X103715200Y-105760000I-175000J0D01*
G01*
X102065200Y-105760000D01*
G75*
G02*
X101890200Y-105585000I0J175000D01*
G01*
G37*
M02*
