M48
; DRILL file {KiCad (5.1.6)-1} date 01/24/22 22:47:19
; FORMAT={-:-/ absolute / metric / decimal}
; #@! TF.CreationDate,2022-01-24T22:47:19-06:00
; #@! TF.GenerationSoftware,Kicad,Pcbnew,(5.1.6)-1
; #@! TF.FileFunction,Plated,1,2,PTH
FMAT,2
METRIC
T1C0.400
T2C0.750
T3C0.800
T4C1.000
T5C1.100
%
G90
G05
T1
X93.789Y-109.309
X94.466Y-103.861
X94.607Y-99.119
X94.844Y-97.13
X95.009Y-102.578
X97.159Y-101.672
X97.688Y-105.308
X98.4Y-108.229
X98.628Y-100.996
X98.857Y-104.292
X99.898Y-104.902
X100.051Y-101.864
X100.609Y-111.912
X100.736Y-103.216
X100.965Y-105.359
X101.321Y-101.864
X101.702Y-110.985
X101.981Y-103.708
X102.888Y-102.71
X103.131Y-96.755
X103.327Y-104.115
X103.361Y-94.81
X104.546Y-103.886
X104.978Y-94.514
X105.41Y-114.783
X105.435Y-105.512
X105.862Y-94.98
X105.867Y-96.333
X106.578Y-108.331
X106.655Y-110.236
X106.68Y-112.065
X106.731Y-103.378
X107.12Y-106.097
X107.925Y-91.694
X109.012Y-98.984
X110.236Y-100.127
X110.423Y-96.968
X111.1Y-96.139
X111.15Y-98.914
X111.236Y-100.266
X111.531Y-110.185
X111.633Y-103.835
X112.166Y-98.12
X112.166Y-100.822
X112.497Y-94.005
X113.029Y-97.444
X113.03Y-106.934
X113.309Y-103.34
X113.424Y-100.266
X113.793Y-98.847
X114.122Y-97.765
X117.424Y-111.76
X117.729Y-106.858
X117.805Y-102.565
X118.466Y-108.864
T2
X109.525Y-113.817
X109.525Y-115.087
X109.525Y-116.357
X115.951Y-113.767
X115.951Y-115.037
X115.951Y-116.307
T3
X105.537Y-85.877
X105.537Y-88.417
X113.157Y-85.877
X113.157Y-88.417
T4
X96.368Y-84.684
X96.368Y-87.224
X96.368Y-89.764
X88.849Y-84.785
X88.849Y-87.325
X88.849Y-89.865
X88.849Y-92.405
X88.849Y-94.945
X88.849Y-97.485
X88.849Y-100.025
X88.849Y-102.565
X88.849Y-105.105
X88.849Y-107.645
X88.849Y-110.185
X88.849Y-112.725
X91.389Y-84.785
X91.389Y-87.325
X91.389Y-89.865
X91.389Y-92.405
X91.389Y-94.945
X91.389Y-97.485
X91.389Y-100.025
X91.389Y-102.565
X91.389Y-105.105
X91.389Y-107.645
X91.389Y-110.185
X91.389Y-112.725
X101.168Y-84.633
X101.168Y-87.173
X101.168Y-89.713
X117.78Y-94.539
X117.78Y-97.079
T5
X117.653Y-83.16
X117.653Y-90.78
T0
M30
