%TF.GenerationSoftware,KiCad,Pcbnew,(6.0.2)*%
%TF.CreationDate,2022-04-01T15:43:34-05:00*%
%TF.ProjectId,GreenRinger,47726565-6e52-4696-9e67-65722e6b6963,rev?*%
%TF.SameCoordinates,Original*%
%TF.FileFunction,Copper,L1,Top*%
%TF.FilePolarity,Positive*%
%FSLAX46Y46*%
G04 Gerber Fmt 4.6, Leading zero omitted, Abs format (unit mm)*
G04 Created by KiCad (PCBNEW (6.0.2)) date 2022-04-01 15:43:34*
%MOMM*%
%LPD*%
G01*
G04 APERTURE LIST*
%TA.AperFunction,ComponentPad*%
%ADD10C,1.600000*%
%TD*%
%TA.AperFunction,ComponentPad*%
%ADD11C,1.400000*%
%TD*%
%TA.AperFunction,ComponentPad*%
%ADD12O,1.400000X1.400000*%
%TD*%
%TA.AperFunction,ComponentPad*%
%ADD13R,1.800000X1.800000*%
%TD*%
%TA.AperFunction,ComponentPad*%
%ADD14C,1.800000*%
%TD*%
%TA.AperFunction,ComponentPad*%
%ADD15R,1.930000X1.830000*%
%TD*%
%TA.AperFunction,ComponentPad*%
%ADD16C,2.130000*%
%TD*%
%TA.AperFunction,ComponentPad*%
%ADD17R,1.200000X1.200000*%
%TD*%
%TA.AperFunction,ComponentPad*%
%ADD18C,1.200000*%
%TD*%
%TA.AperFunction,ComponentPad*%
%ADD19R,1.050000X1.500000*%
%TD*%
%TA.AperFunction,ComponentPad*%
%ADD20O,1.050000X1.500000*%
%TD*%
%TA.AperFunction,ComponentPad*%
%ADD21R,1.600000X1.600000*%
%TD*%
%TA.AperFunction,ComponentPad*%
%ADD22O,1.600000X1.600000*%
%TD*%
%TA.AperFunction,ComponentPad*%
%ADD23R,2.200000X2.200000*%
%TD*%
%TA.AperFunction,ComponentPad*%
%ADD24O,2.200000X2.200000*%
%TD*%
%TA.AperFunction,ComponentPad*%
%ADD25C,2.340000*%
%TD*%
%TA.AperFunction,ComponentPad*%
%ADD26R,0.850000X0.850000*%
%TD*%
%TA.AperFunction,ComponentPad*%
%ADD27O,0.850000X0.850000*%
%TD*%
%TA.AperFunction,ViaPad*%
%ADD28C,0.800000*%
%TD*%
%TA.AperFunction,Conductor*%
%ADD29C,0.250000*%
%TD*%
G04 APERTURE END LIST*
D10*
%TO.P,C5,1*%
%TO.N,Net-(D2-Pad2)*%
X78867000Y-116663000D03*
%TO.P,C5,2*%
%TO.N,Net-(Q2-Pad1)*%
X78867000Y-114163000D03*
%TD*%
D11*
%TO.P,R4,1*%
%TO.N,Net-(Q1-Pad2)*%
X78359000Y-90648000D03*
D12*
%TO.P,R4,2*%
%TO.N,+9V*%
X78359000Y-95728000D03*
%TD*%
D11*
%TO.P,R9,1*%
%TO.N,Net-(C6-Pad1)*%
X86106000Y-129002000D03*
D12*
%TO.P,R9,2*%
%TO.N,GND*%
X86106000Y-134082000D03*
%TD*%
D11*
%TO.P,R8,1*%
%TO.N,Net-(Q2-Pad1)*%
X78232000Y-129002000D03*
D12*
%TO.P,R8,2*%
%TO.N,+9V*%
X78232000Y-134082000D03*
%TD*%
D13*
%TO.P,D4,1,K*%
%TO.N,GND*%
X82677000Y-66899000D03*
D14*
%TO.P,D4,2,A*%
%TO.N,Net-(D4-Pad2)*%
X80137000Y-66899000D03*
%TD*%
D11*
%TO.P,R2,1*%
%TO.N,Net-(Q1-Pad1)*%
X78359000Y-102967000D03*
D12*
%TO.P,R2,2*%
%TO.N,+9V*%
X78359000Y-97887000D03*
%TD*%
D15*
%TO.P,J2,S*%
%TO.N,GND*%
X82169000Y-138908000D03*
D16*
%TO.P,J2,T*%
%TO.N,Net-(J2-PadT)*%
X82169000Y-150308000D03*
%TO.P,J2,TN*%
%TO.N,unconnected-(J2-PadTN)*%
X82169000Y-142008000D03*
%TD*%
D17*
%TO.P,C1,1*%
%TO.N,+9V*%
X81534000Y-70113401D03*
D18*
%TO.P,C1,2*%
%TO.N,GND*%
X81534000Y-71613401D03*
%TD*%
D19*
%TO.P,Q2,1,E*%
%TO.N,Net-(Q2-Pad1)*%
X82804000Y-96596000D03*
D20*
%TO.P,Q2,2,B*%
%TO.N,Net-(Q1-Pad2)*%
X84074000Y-96596000D03*
%TO.P,Q2,3,C*%
%TO.N,Net-(Q2-Pad3)*%
X85344000Y-96596000D03*
%TD*%
D10*
%TO.P,C6,1*%
%TO.N,Net-(C6-Pad1)*%
X85471000Y-116790000D03*
%TO.P,C6,2*%
%TO.N,Net-(D1-Pad2)*%
X85471000Y-114290000D03*
%TD*%
%TO.P,C3,1*%
%TO.N,Net-(C3-Pad1)*%
X79883000Y-76424000D03*
%TO.P,C3,2*%
%TO.N,GND*%
X82383000Y-76424000D03*
%TD*%
%TO.P,C2,1*%
%TO.N,Net-(C2-Pad1)*%
X78379000Y-86838000D03*
%TO.P,C2,2*%
%TO.N,Net-(Q1-Pad1)*%
X80879000Y-86838000D03*
%TD*%
D11*
%TO.P,R5,1*%
%TO.N,GND*%
X85852000Y-83917000D03*
D12*
%TO.P,R5,2*%
%TO.N,Net-(Q1-Pad3)*%
X80772000Y-83917000D03*
%TD*%
D21*
%TO.P,D1,1,K*%
%TO.N,Net-(Q3-Pad1)*%
X85852000Y-126843000D03*
D22*
%TO.P,D1,2,A*%
%TO.N,Net-(D1-Pad2)*%
X85852000Y-119223000D03*
%TD*%
D11*
%TO.P,R7,1*%
%TO.N,GND*%
X80899000Y-105126000D03*
D12*
%TO.P,R7,2*%
%TO.N,Net-(R10-Pad1)*%
X85979000Y-105126000D03*
%TD*%
D11*
%TO.P,R13,1*%
%TO.N,+9V*%
X78105000Y-64135000D03*
D12*
%TO.P,R13,2*%
%TO.N,Net-(D4-Pad2)*%
X83185000Y-64135000D03*
%TD*%
D19*
%TO.P,Q1,1,B*%
%TO.N,Net-(Q1-Pad1)*%
X85344000Y-90669000D03*
D20*
%TO.P,Q1,2,C*%
%TO.N,Net-(Q1-Pad2)*%
X84074000Y-90669000D03*
%TO.P,Q1,3,E*%
%TO.N,Net-(Q1-Pad3)*%
X82804000Y-90669000D03*
%TD*%
D11*
%TO.P,R6,1*%
%TO.N,+9V*%
X78232000Y-107285000D03*
D12*
%TO.P,R6,2*%
%TO.N,Net-(R10-Pad1)*%
X83312000Y-107285000D03*
%TD*%
D11*
%TO.P,R10,1*%
%TO.N,Net-(R10-Pad1)*%
X83312000Y-111857000D03*
D12*
%TO.P,R10,2*%
%TO.N,Net-(D2-Pad2)*%
X78232000Y-111857000D03*
%TD*%
D11*
%TO.P,R12,1*%
%TO.N,Net-(Q3-Pad3)*%
X78232000Y-136241000D03*
D12*
%TO.P,R12,2*%
%TO.N,GND*%
X83312000Y-136241000D03*
%TD*%
D15*
%TO.P,J1,S*%
%TO.N,Net-(C3-Pad1)*%
X82169000Y-61406000D03*
D16*
%TO.P,J1,T*%
%TO.N,Net-(C2-Pad1)*%
X82169000Y-50006000D03*
%TO.P,J1,TN*%
%TO.N,unconnected-(J1-PadTN)*%
X82169000Y-58306000D03*
%TD*%
D11*
%TO.P,R14,1*%
%TO.N,Net-(C7-Pad2)*%
X82042000Y-126716000D03*
D12*
%TO.P,R14,2*%
%TO.N,GND*%
X82042000Y-121636000D03*
%TD*%
D11*
%TO.P,R11,1*%
%TO.N,Net-(D1-Pad2)*%
X85979000Y-109571000D03*
D12*
%TO.P,R11,2*%
%TO.N,Net-(R10-Pad1)*%
X80899000Y-109571000D03*
%TD*%
D11*
%TO.P,R1,1*%
%TO.N,GND*%
X85852000Y-79345000D03*
D12*
%TO.P,R1,2*%
%TO.N,Net-(C3-Pad1)*%
X80772000Y-79345000D03*
%TD*%
D10*
%TO.P,C7,1*%
%TO.N,Net-(Q3-Pad3)*%
X82169000Y-115560000D03*
%TO.P,C7,2*%
%TO.N,Net-(C7-Pad2)*%
X82169000Y-118060000D03*
%TD*%
D23*
%TO.P,D3,1,K*%
%TO.N,+9V*%
X85598000Y-66645000D03*
D24*
%TO.P,D3,2,A*%
%TO.N,GND*%
X85598000Y-76805000D03*
%TD*%
D25*
%TO.P,RV1,1,1*%
%TO.N,Net-(Q1-Pad1)*%
X84644000Y-162734000D03*
%TO.P,RV1,2,2*%
%TO.N,Net-(J2-PadT)*%
X82144000Y-152734000D03*
%TO.P,RV1,3,3*%
%TO.N,Net-(C7-Pad2)*%
X79644000Y-162734000D03*
%TD*%
D21*
%TO.P,D2,1,K*%
%TO.N,Net-(Q3-Pad1)*%
X78486000Y-126589000D03*
D22*
%TO.P,D2,2,A*%
%TO.N,Net-(D2-Pad2)*%
X78486000Y-118969000D03*
%TD*%
D11*
%TO.P,R3,1*%
%TO.N,GND*%
X85852000Y-81631000D03*
D12*
%TO.P,R3,2*%
%TO.N,Net-(Q1-Pad1)*%
X80772000Y-81631000D03*
%TD*%
D19*
%TO.P,Q3,1,B*%
%TO.N,Net-(Q3-Pad1)*%
X80899000Y-132918000D03*
D20*
%TO.P,Q3,2,C*%
%TO.N,+9V*%
X82169000Y-132918000D03*
%TO.P,Q3,3,E*%
%TO.N,Net-(Q3-Pad3)*%
X83439000Y-132918000D03*
%TD*%
D26*
%TO.P,J3,1,Pin_1*%
%TO.N,+9V*%
X85979000Y-63097000D03*
D27*
%TO.P,J3,2,Pin_2*%
%TO.N,GND*%
X85979000Y-64097000D03*
%TD*%
D10*
%TO.P,C4,1*%
%TO.N,Net-(Q2-Pad3)*%
X85344000Y-100320000D03*
%TO.P,C4,2*%
%TO.N,Net-(D1-Pad2)*%
X85344000Y-102820000D03*
%TD*%
D28*
%TO.N,+9V*%
X81352000Y-103039000D03*
X80391499Y-101316000D03*
X81788000Y-130526000D03*
%TO.N,Net-(Q1-Pad1)*%
X85725000Y-124841000D03*
X83439000Y-127889000D03*
X80137000Y-128143000D03*
X85979000Y-122174000D03*
%TO.N,Net-(Q3-Pad3)*%
X83564020Y-130272000D03*
X83946501Y-122017000D03*
%TO.N,Net-(Q3-Pad1)*%
X83312000Y-129129000D03*
%TD*%
D29*
%TO.N,+9V*%
X78232000Y-134082000D02*
X81659022Y-134082000D01*
X78359000Y-97887000D02*
X78359000Y-95728000D01*
X81659022Y-134082000D02*
X82169000Y-133572022D01*
X81788000Y-131415000D02*
X81788000Y-130526000D01*
X82169000Y-133572022D02*
X82169000Y-132918000D01*
X82169000Y-131796000D02*
X81788000Y-131415000D01*
X80391499Y-102078499D02*
X81352000Y-103039000D01*
X80391499Y-101316000D02*
X80391499Y-102078499D01*
X82169000Y-132918000D02*
X82169000Y-131796000D01*
%TO.N,GND*%
X85852000Y-81631000D02*
X85852000Y-79345000D01*
X85852000Y-83917000D02*
X86552000Y-84617000D01*
X85852000Y-79345000D02*
X85852000Y-77440000D01*
X82677000Y-66899000D02*
X82677000Y-66716978D01*
X81534000Y-71613401D02*
X82382528Y-71613401D01*
X86552000Y-103401489D02*
X85843489Y-104110000D01*
X85852000Y-77440000D02*
X85217000Y-76805000D01*
X85852000Y-83917000D02*
X85852000Y-81631000D01*
X82677000Y-71318929D02*
X82677000Y-66899000D01*
X82764000Y-72843401D02*
X81534000Y-71613401D01*
X85843489Y-104110000D02*
X81915000Y-104110000D01*
X85217000Y-76805000D02*
X82764000Y-76805000D01*
X82764000Y-76424000D02*
X82764000Y-72843401D01*
X86552000Y-84617000D02*
X86552000Y-103401489D01*
X82764000Y-76805000D02*
X82383000Y-76424000D01*
X81915000Y-104110000D02*
X80899000Y-105126000D01*
X82677000Y-66716978D02*
X85296978Y-64097000D01*
X85296978Y-64097000D02*
X85979000Y-64097000D01*
X82382528Y-71613401D02*
X82677000Y-71318929D01*
%TO.N,Net-(C2-Pad1)*%
X80113511Y-52061489D02*
X79129511Y-52061489D01*
X78379000Y-86838000D02*
X78379000Y-85969000D01*
X78232000Y-65883000D02*
X78232000Y-85822000D01*
X79129511Y-64985489D02*
X78232000Y-65883000D01*
X78379000Y-85969000D02*
X78232000Y-85822000D01*
X82169000Y-50006000D02*
X80113511Y-52061489D01*
X79129511Y-52061489D02*
X79129511Y-64985489D01*
%TO.N,Net-(Q1-Pad1)*%
X80879000Y-86838000D02*
X82010370Y-86838000D01*
X81796511Y-85920489D02*
X80879000Y-86838000D01*
X80772000Y-81631000D02*
X81796511Y-82655511D01*
X85344000Y-90171630D02*
X85344000Y-90669000D01*
X83185000Y-128143000D02*
X80137000Y-128143000D01*
X82010370Y-86838000D02*
X85344000Y-90171630D01*
X83439000Y-127889000D02*
X83185000Y-128143000D01*
X81796511Y-82655511D02*
X81796511Y-85920489D01*
X85979000Y-124587000D02*
X85725000Y-124841000D01*
X85979000Y-122174000D02*
X85979000Y-124587000D01*
%TO.N,Net-(C3-Pad1)*%
X78912489Y-66345511D02*
X82169000Y-63089000D01*
X79883000Y-76424000D02*
X79883000Y-78456000D01*
X82169000Y-63089000D02*
X82169000Y-61406000D01*
X79883000Y-78456000D02*
X80772000Y-79345000D01*
X78912489Y-75453489D02*
X78912489Y-66345511D01*
X79883000Y-76424000D02*
X78912489Y-75453489D01*
%TO.N,Net-(D1-Pad2)*%
X86614000Y-118461000D02*
X86614000Y-115413000D01*
X86614000Y-115413000D02*
X86594000Y-115413000D01*
X85471000Y-114290000D02*
X85471000Y-110079000D01*
X86594000Y-115413000D02*
X85471000Y-114290000D01*
X85471000Y-110079000D02*
X85979000Y-109571000D01*
X85852000Y-119223000D02*
X86614000Y-118461000D01*
%TO.N,Net-(D2-Pad2)*%
X77532000Y-115328000D02*
X78867000Y-116663000D01*
X78486000Y-117044000D02*
X78867000Y-116663000D01*
X78232000Y-111857000D02*
X77532000Y-112557000D01*
X78486000Y-118969000D02*
X78486000Y-117044000D01*
X77532000Y-112557000D02*
X77532000Y-115328000D01*
%TO.N,Net-(Q2-Pad1)*%
X79666999Y-99733001D02*
X82804000Y-96596000D01*
X79666999Y-113363001D02*
X79666999Y-99733001D01*
X78867000Y-114163000D02*
X79666999Y-113363001D01*
%TO.N,Net-(C6-Pad1)*%
X84671001Y-128556950D02*
X84671001Y-117589999D01*
X85116051Y-129002000D02*
X84671001Y-128556950D01*
X86106000Y-129002000D02*
X85116051Y-129002000D01*
X84671001Y-117589999D02*
X85471000Y-116790000D01*
%TO.N,Net-(Q3-Pad3)*%
X78232000Y-136241000D02*
X80722000Y-136241000D01*
X83947000Y-117338000D02*
X82169000Y-115560000D01*
X83439000Y-130397020D02*
X83564020Y-130272000D01*
X80722000Y-136241000D02*
X83439000Y-133524000D01*
X83439000Y-132918000D02*
X83439000Y-130397020D01*
X83946501Y-122017000D02*
X83947000Y-122016501D01*
X83439000Y-133524000D02*
X83439000Y-132918000D01*
X83947000Y-122016501D02*
X83947000Y-117338000D01*
%TO.N,Net-(C7-Pad2)*%
X84221481Y-128895481D02*
X84288520Y-128962520D01*
X83066511Y-118957511D02*
X82169000Y-118060000D01*
X83066511Y-125691489D02*
X83066511Y-118957511D01*
X82042000Y-126716000D02*
X83066511Y-125691489D01*
X84367529Y-134419551D02*
X84590511Y-134419551D01*
X84590511Y-134419551D02*
X84590511Y-148267489D01*
X84094481Y-126716000D02*
X84221481Y-126843000D01*
X84590511Y-148267489D02*
X80967511Y-148267489D01*
X84288520Y-128962520D02*
X84288520Y-134340542D01*
X79644000Y-149591000D02*
X79644000Y-163496000D01*
X84221481Y-126843000D02*
X84221481Y-128895481D01*
X84288520Y-134340542D02*
X84367529Y-134419551D01*
X82042000Y-126716000D02*
X84094481Y-126716000D01*
X80967511Y-148267489D02*
X79644000Y-149591000D01*
%TO.N,Net-(Q3-Pad1)*%
X80899000Y-129256000D02*
X81026000Y-129129000D01*
X80899000Y-132918000D02*
X80899000Y-129256000D01*
X78486000Y-126589000D02*
X78486000Y-127732000D01*
X78486000Y-127732000D02*
X79883000Y-129129000D01*
X83312000Y-129129000D02*
X81026000Y-129129000D01*
X79883000Y-129129000D02*
X81026000Y-129129000D01*
%TO.N,Net-(D4-Pad2)*%
X83185000Y-64135000D02*
X82296000Y-65024000D01*
X81788000Y-65024000D02*
X81788000Y-65248000D01*
X82296000Y-65024000D02*
X81788000Y-65024000D01*
X81788000Y-65248000D02*
X80137000Y-66899000D01*
X80137000Y-66264000D02*
X80137000Y-66899000D01*
%TO.N,Net-(Q1-Pad2)*%
X84074000Y-96596000D02*
X84074000Y-93823000D01*
X84074000Y-93823000D02*
X80899000Y-90648000D01*
X84074000Y-96596000D02*
X84074000Y-90669000D01*
X80899000Y-90648000D02*
X78359000Y-90648000D01*
%TO.N,Net-(Q1-Pad3)*%
X79754489Y-84934511D02*
X79754489Y-87619489D01*
X79754489Y-87619489D02*
X82804000Y-90669000D01*
X80772000Y-83917000D02*
X79754489Y-84934511D01*
%TO.N,Net-(R10-Pad1)*%
X85471000Y-105126000D02*
X85979000Y-105126000D01*
X83312000Y-111857000D02*
X81026000Y-109571000D01*
X83185000Y-107285000D02*
X83312000Y-107285000D01*
X83312000Y-107285000D02*
X85471000Y-105126000D01*
X80899000Y-109571000D02*
X83185000Y-107285000D01*
X81026000Y-109571000D02*
X80899000Y-109571000D01*
%TO.N,Net-(J2-PadT)*%
X82169000Y-153471000D02*
X82144000Y-153496000D01*
%TD*%
M02*
