M48
; DRILL file {KiCad (6.0.2)} date Fri Apr  1 15:43:52 2022
; FORMAT={-:-/ absolute / inch / decimal}
; #@! TF.CreationDate,2022-04-01T15:43:52-05:00
; #@! TF.GenerationSoftware,Kicad,Pcbnew,(6.0.2)
; #@! TF.FileFunction,MixedPlating,1,2
FMAT,2
INCH
; #@! TA.AperFunction,Plated,PTH,ViaDrill
T1C0.0157
; #@! TA.AperFunction,Plated,PTH,ComponentDrill
T2C0.0197
; #@! TA.AperFunction,Plated,PTH,ComponentDrill
T3C0.0236
; #@! TA.AperFunction,Plated,PTH,ComponentDrill
T4C0.0276
; #@! TA.AperFunction,Plated,PTH,ComponentDrill
T5C0.0295
; #@! TA.AperFunction,Plated,PTH,ComponentDrill
T6C0.0315
; #@! TA.AperFunction,Plated,PTH,ComponentDrill
T7C0.0354
; #@! TA.AperFunction,Plated,PTH,ComponentDrill
T8C0.0433
; #@! TA.AperFunction,Plated,PTH,ComponentDrill
T9C0.0480
; #@! TA.AperFunction,Plated,PTH,ComponentDrill
T10C0.0512
; #@! TA.AperFunction,Plated,PTH,ComponentDrill
T11C0.0559
; #@! TA.AperFunction,Plated,PTH,ComponentDrill
T12C0.0563
%
G90
G05
T1
X3.155Y-5.045
X3.165Y-3.9888
X3.2028Y-4.0567
X3.22Y-5.1388
X3.28Y-5.0838
X3.285Y-5.035
X3.2899Y-5.1288
X3.305Y-4.8038
X3.375Y-4.915
X3.385Y-4.81
T2
X3.385Y-2.4841
X3.385Y-2.5235
T3
X3.21Y-2.7604
X3.21Y-2.8194
T4
X3.075Y-2.525
X3.08Y-4.2238
X3.08Y-4.4038
X3.08Y-5.0788
X3.08Y-5.2788
X3.08Y-5.3638
X3.085Y-3.5688
X3.085Y-3.7688
X3.085Y-3.8538
X3.085Y-4.0538
X3.18Y-3.1238
X3.18Y-3.2138
X3.18Y-3.3038
X3.185Y-4.1388
X3.185Y-4.3138
X3.23Y-4.7888
X3.23Y-4.9888
X3.275Y-2.525
X3.28Y-4.2238
X3.28Y-4.4038
X3.28Y-5.3638
X3.38Y-3.1238
X3.38Y-3.2138
X3.38Y-3.3038
X3.385Y-4.1388
X3.385Y-4.3138
X3.39Y-5.0788
X3.39Y-5.2788
T5
X3.185Y-5.233
X3.235Y-5.233
X3.26Y-3.5696
X3.26Y-3.803
X3.285Y-5.233
X3.31Y-3.5696
X3.31Y-3.803
X3.36Y-3.5696
X3.36Y-3.803
T6
X3.0858Y-3.4188
X3.09Y-4.6838
X3.09Y-4.9838
X3.105Y-4.4946
X3.105Y-4.593
X3.145Y-3.0088
X3.1842Y-3.4188
X3.235Y-4.5496
X3.235Y-4.648
X3.2434Y-3.0088
X3.36Y-3.9496
X3.36Y-4.048
X3.365Y-4.4996
X3.365Y-4.598
X3.38Y-4.6938
X3.38Y-4.9938
T7
X3.155Y-2.6338
X3.255Y-2.6338
T8
X3.37Y-2.6238
X3.37Y-3.0238
T9
X3.235Y-2.4176
X3.235Y-5.4688
T10
X3.1356Y-6.4069
X3.234Y-6.0131
X3.3324Y-6.4069
T11
X3.235Y-2.2955
X3.235Y-5.5909
T12
X3.235Y-1.9687
X3.235Y-5.9176
T0
M30
