%TF.GenerationSoftware,KiCad,Pcbnew,(6.0.2)*%
%TF.CreationDate,2022-04-01T15:43:34-05:00*%
%TF.ProjectId,GreenRinger,47726565-6e52-4696-9e67-65722e6b6963,rev?*%
%TF.SameCoordinates,Original*%
%TF.FileFunction,Copper,L2,Bot*%
%TF.FilePolarity,Positive*%
%FSLAX46Y46*%
G04 Gerber Fmt 4.6, Leading zero omitted, Abs format (unit mm)*
G04 Created by KiCad (PCBNEW (6.0.2)) date 2022-04-01 15:43:34*
%MOMM*%
%LPD*%
G01*
G04 APERTURE LIST*
%TA.AperFunction,ComponentPad*%
%ADD10C,1.600000*%
%TD*%
%TA.AperFunction,ComponentPad*%
%ADD11C,1.400000*%
%TD*%
%TA.AperFunction,ComponentPad*%
%ADD12O,1.400000X1.400000*%
%TD*%
%TA.AperFunction,ComponentPad*%
%ADD13R,1.800000X1.800000*%
%TD*%
%TA.AperFunction,ComponentPad*%
%ADD14C,1.800000*%
%TD*%
%TA.AperFunction,ComponentPad*%
%ADD15R,1.930000X1.830000*%
%TD*%
%TA.AperFunction,ComponentPad*%
%ADD16C,2.130000*%
%TD*%
%TA.AperFunction,ComponentPad*%
%ADD17R,1.200000X1.200000*%
%TD*%
%TA.AperFunction,ComponentPad*%
%ADD18C,1.200000*%
%TD*%
%TA.AperFunction,ComponentPad*%
%ADD19R,1.050000X1.500000*%
%TD*%
%TA.AperFunction,ComponentPad*%
%ADD20O,1.050000X1.500000*%
%TD*%
%TA.AperFunction,ComponentPad*%
%ADD21R,1.600000X1.600000*%
%TD*%
%TA.AperFunction,ComponentPad*%
%ADD22O,1.600000X1.600000*%
%TD*%
%TA.AperFunction,ComponentPad*%
%ADD23R,2.200000X2.200000*%
%TD*%
%TA.AperFunction,ComponentPad*%
%ADD24O,2.200000X2.200000*%
%TD*%
%TA.AperFunction,ComponentPad*%
%ADD25C,2.340000*%
%TD*%
%TA.AperFunction,ComponentPad*%
%ADD26R,0.850000X0.850000*%
%TD*%
%TA.AperFunction,ComponentPad*%
%ADD27O,0.850000X0.850000*%
%TD*%
%TA.AperFunction,ViaPad*%
%ADD28C,0.800000*%
%TD*%
%TA.AperFunction,Conductor*%
%ADD29C,0.250000*%
%TD*%
G04 APERTURE END LIST*
D10*
%TO.P,C5,1*%
%TO.N,Net-(D2-Pad2)*%
X78867000Y-116663000D03*
%TO.P,C5,2*%
%TO.N,Net-(Q2-Pad1)*%
X78867000Y-114163000D03*
%TD*%
D11*
%TO.P,R4,1*%
%TO.N,Net-(Q1-Pad2)*%
X78359000Y-90648000D03*
D12*
%TO.P,R4,2*%
%TO.N,+9V*%
X78359000Y-95728000D03*
%TD*%
D11*
%TO.P,R9,1*%
%TO.N,Net-(C6-Pad1)*%
X86106000Y-129002000D03*
D12*
%TO.P,R9,2*%
%TO.N,GND*%
X86106000Y-134082000D03*
%TD*%
D11*
%TO.P,R8,1*%
%TO.N,Net-(Q2-Pad1)*%
X78232000Y-129002000D03*
D12*
%TO.P,R8,2*%
%TO.N,+9V*%
X78232000Y-134082000D03*
%TD*%
D13*
%TO.P,D4,1,K*%
%TO.N,GND*%
X82677000Y-66899000D03*
D14*
%TO.P,D4,2,A*%
%TO.N,Net-(D4-Pad2)*%
X80137000Y-66899000D03*
%TD*%
D11*
%TO.P,R2,1*%
%TO.N,Net-(Q1-Pad1)*%
X78359000Y-102967000D03*
D12*
%TO.P,R2,2*%
%TO.N,+9V*%
X78359000Y-97887000D03*
%TD*%
D15*
%TO.P,J2,S*%
%TO.N,GND*%
X82169000Y-138908000D03*
D16*
%TO.P,J2,T*%
%TO.N,Net-(J2-PadT)*%
X82169000Y-150308000D03*
%TO.P,J2,TN*%
%TO.N,unconnected-(J2-PadTN)*%
X82169000Y-142008000D03*
%TD*%
D17*
%TO.P,C1,1*%
%TO.N,+9V*%
X81534000Y-70113401D03*
D18*
%TO.P,C1,2*%
%TO.N,GND*%
X81534000Y-71613401D03*
%TD*%
D19*
%TO.P,Q2,1,E*%
%TO.N,Net-(Q2-Pad1)*%
X82804000Y-96596000D03*
D20*
%TO.P,Q2,2,B*%
%TO.N,Net-(Q1-Pad2)*%
X84074000Y-96596000D03*
%TO.P,Q2,3,C*%
%TO.N,Net-(Q2-Pad3)*%
X85344000Y-96596000D03*
%TD*%
D10*
%TO.P,C6,1*%
%TO.N,Net-(C6-Pad1)*%
X85471000Y-116790000D03*
%TO.P,C6,2*%
%TO.N,Net-(D1-Pad2)*%
X85471000Y-114290000D03*
%TD*%
%TO.P,C3,1*%
%TO.N,Net-(C3-Pad1)*%
X79883000Y-76424000D03*
%TO.P,C3,2*%
%TO.N,GND*%
X82383000Y-76424000D03*
%TD*%
%TO.P,C2,1*%
%TO.N,Net-(C2-Pad1)*%
X78379000Y-86838000D03*
%TO.P,C2,2*%
%TO.N,Net-(Q1-Pad1)*%
X80879000Y-86838000D03*
%TD*%
D11*
%TO.P,R5,1*%
%TO.N,GND*%
X85852000Y-83917000D03*
D12*
%TO.P,R5,2*%
%TO.N,Net-(Q1-Pad3)*%
X80772000Y-83917000D03*
%TD*%
D21*
%TO.P,D1,1,K*%
%TO.N,Net-(Q3-Pad1)*%
X85852000Y-126843000D03*
D22*
%TO.P,D1,2,A*%
%TO.N,Net-(D1-Pad2)*%
X85852000Y-119223000D03*
%TD*%
D11*
%TO.P,R7,1*%
%TO.N,GND*%
X80899000Y-105126000D03*
D12*
%TO.P,R7,2*%
%TO.N,Net-(R10-Pad1)*%
X85979000Y-105126000D03*
%TD*%
D11*
%TO.P,R13,1*%
%TO.N,+9V*%
X78105000Y-64135000D03*
D12*
%TO.P,R13,2*%
%TO.N,Net-(D4-Pad2)*%
X83185000Y-64135000D03*
%TD*%
D19*
%TO.P,Q1,1,B*%
%TO.N,Net-(Q1-Pad1)*%
X85344000Y-90669000D03*
D20*
%TO.P,Q1,2,C*%
%TO.N,Net-(Q1-Pad2)*%
X84074000Y-90669000D03*
%TO.P,Q1,3,E*%
%TO.N,Net-(Q1-Pad3)*%
X82804000Y-90669000D03*
%TD*%
D11*
%TO.P,R6,1*%
%TO.N,+9V*%
X78232000Y-107285000D03*
D12*
%TO.P,R6,2*%
%TO.N,Net-(R10-Pad1)*%
X83312000Y-107285000D03*
%TD*%
D11*
%TO.P,R10,1*%
%TO.N,Net-(R10-Pad1)*%
X83312000Y-111857000D03*
D12*
%TO.P,R10,2*%
%TO.N,Net-(D2-Pad2)*%
X78232000Y-111857000D03*
%TD*%
D11*
%TO.P,R12,1*%
%TO.N,Net-(Q3-Pad3)*%
X78232000Y-136241000D03*
D12*
%TO.P,R12,2*%
%TO.N,GND*%
X83312000Y-136241000D03*
%TD*%
D15*
%TO.P,J1,S*%
%TO.N,Net-(C3-Pad1)*%
X82169000Y-61406000D03*
D16*
%TO.P,J1,T*%
%TO.N,Net-(C2-Pad1)*%
X82169000Y-50006000D03*
%TO.P,J1,TN*%
%TO.N,unconnected-(J1-PadTN)*%
X82169000Y-58306000D03*
%TD*%
D11*
%TO.P,R14,1*%
%TO.N,Net-(C7-Pad2)*%
X82042000Y-126716000D03*
D12*
%TO.P,R14,2*%
%TO.N,GND*%
X82042000Y-121636000D03*
%TD*%
D11*
%TO.P,R11,1*%
%TO.N,Net-(D1-Pad2)*%
X85979000Y-109571000D03*
D12*
%TO.P,R11,2*%
%TO.N,Net-(R10-Pad1)*%
X80899000Y-109571000D03*
%TD*%
D11*
%TO.P,R1,1*%
%TO.N,GND*%
X85852000Y-79345000D03*
D12*
%TO.P,R1,2*%
%TO.N,Net-(C3-Pad1)*%
X80772000Y-79345000D03*
%TD*%
D10*
%TO.P,C7,1*%
%TO.N,Net-(Q3-Pad3)*%
X82169000Y-115560000D03*
%TO.P,C7,2*%
%TO.N,Net-(C7-Pad2)*%
X82169000Y-118060000D03*
%TD*%
D23*
%TO.P,D3,1,K*%
%TO.N,+9V*%
X85598000Y-66645000D03*
D24*
%TO.P,D3,2,A*%
%TO.N,GND*%
X85598000Y-76805000D03*
%TD*%
D25*
%TO.P,RV1,1,1*%
%TO.N,Net-(Q1-Pad1)*%
X84644000Y-162734000D03*
%TO.P,RV1,2,2*%
%TO.N,Net-(J2-PadT)*%
X82144000Y-152734000D03*
%TO.P,RV1,3,3*%
%TO.N,Net-(C7-Pad2)*%
X79644000Y-162734000D03*
%TD*%
D21*
%TO.P,D2,1,K*%
%TO.N,Net-(Q3-Pad1)*%
X78486000Y-126589000D03*
D22*
%TO.P,D2,2,A*%
%TO.N,Net-(D2-Pad2)*%
X78486000Y-118969000D03*
%TD*%
D11*
%TO.P,R3,1*%
%TO.N,GND*%
X85852000Y-81631000D03*
D12*
%TO.P,R3,2*%
%TO.N,Net-(Q1-Pad1)*%
X80772000Y-81631000D03*
%TD*%
D19*
%TO.P,Q3,1,B*%
%TO.N,Net-(Q3-Pad1)*%
X80899000Y-132918000D03*
D20*
%TO.P,Q3,2,C*%
%TO.N,+9V*%
X82169000Y-132918000D03*
%TO.P,Q3,3,E*%
%TO.N,Net-(Q3-Pad3)*%
X83439000Y-132918000D03*
%TD*%
D26*
%TO.P,J3,1,Pin_1*%
%TO.N,+9V*%
X85979000Y-63097000D03*
D27*
%TO.P,J3,2,Pin_2*%
%TO.N,GND*%
X85979000Y-64097000D03*
%TD*%
D10*
%TO.P,C4,1*%
%TO.N,Net-(Q2-Pad3)*%
X85344000Y-100320000D03*
%TO.P,C4,2*%
%TO.N,Net-(D1-Pad2)*%
X85344000Y-102820000D03*
%TD*%
D28*
%TO.N,+9V*%
X81352000Y-103039000D03*
X80391499Y-101316000D03*
X81788000Y-130526000D03*
%TO.N,Net-(Q1-Pad1)*%
X85725000Y-124841000D03*
X83439000Y-127889000D03*
X80137000Y-128143000D03*
X85979000Y-122174000D03*
%TO.N,Net-(Q3-Pad3)*%
X83564020Y-130272000D03*
X83946501Y-122017000D03*
%TO.N,Net-(Q3-Pad1)*%
X83312000Y-129129000D03*
%TD*%
D29*
%TO.N,+9V*%
X81352000Y-103039000D02*
X78232000Y-106159000D01*
X81026000Y-76871300D02*
X81026000Y-72412858D01*
X80018511Y-77878789D02*
X81026000Y-76871300D01*
X81026000Y-72412858D02*
X80609489Y-71996347D01*
X85598000Y-66645000D02*
X82129599Y-70113401D01*
X84709000Y-63851000D02*
X84709000Y-65756000D01*
X85979000Y-63097000D02*
X85463000Y-63097000D01*
X82129599Y-70113401D02*
X81534000Y-70113401D01*
X80609489Y-71996347D02*
X80609489Y-71037912D01*
X81017489Y-129755489D02*
X81017489Y-112356489D01*
X78232000Y-106159000D02*
X78232000Y-107285000D01*
X78359000Y-95728000D02*
X79747489Y-94339511D01*
X78359000Y-97887000D02*
X80391499Y-99919499D01*
X85463000Y-63097000D02*
X84709000Y-63851000D01*
X77978000Y-109317000D02*
X77978000Y-107539000D01*
X79747489Y-94339511D02*
X79747489Y-77878789D01*
X78105000Y-64135000D02*
X79129511Y-63110489D01*
X80609489Y-71037912D02*
X81534000Y-70113401D01*
X81788000Y-130526000D02*
X81017489Y-129755489D01*
X84709000Y-65756000D02*
X85598000Y-66645000D01*
X79129511Y-63110489D02*
X83968489Y-63110489D01*
X81017489Y-112356489D02*
X77978000Y-109317000D01*
X77978000Y-107539000D02*
X78232000Y-107285000D01*
X79747489Y-77878789D02*
X80018511Y-77878789D01*
X83968489Y-63110489D02*
X84709000Y-63851000D01*
X80391499Y-99919499D02*
X80391499Y-101316000D01*
%TO.N,GND*%
X83185000Y-127021878D02*
X83185000Y-122779000D01*
X84328000Y-136241000D02*
X83566000Y-136241000D01*
X80899000Y-106523000D02*
X80899000Y-105126000D01*
X83312000Y-136241000D02*
X82169000Y-137384000D01*
X82169000Y-137384000D02*
X82169000Y-138908000D01*
X82042000Y-121636000D02*
X83293511Y-120384489D01*
X82587489Y-127619389D02*
X83185000Y-127021878D01*
X83293511Y-113743511D02*
X78486000Y-108936000D01*
X78486000Y-108936000D02*
X80899000Y-106523000D01*
X83293511Y-120384489D02*
X83293511Y-113743511D01*
X86106000Y-134082000D02*
X82587489Y-130563489D01*
X83185000Y-122779000D02*
X82042000Y-121636000D01*
X82587489Y-130563489D02*
X82587489Y-127619389D01*
X86487000Y-134082000D02*
X84328000Y-136241000D01*
%TO.N,Net-(Q1-Pad1)*%
X80137000Y-128143000D02*
X80049489Y-128230511D01*
X86614000Y-91410000D02*
X85873000Y-90669000D01*
X85725000Y-124841000D02*
X83634520Y-126931480D01*
X78359000Y-102967000D02*
X80399402Y-102967000D01*
X80049489Y-158901489D02*
X84644000Y-163496000D01*
X86614000Y-96752402D02*
X86614000Y-91410000D01*
X82076511Y-107498389D02*
X84346489Y-109768367D01*
X84346489Y-120541489D02*
X85979000Y-122174000D01*
X82076511Y-101507511D02*
X82076511Y-107498389D01*
X85873000Y-90669000D02*
X85344000Y-90669000D01*
X80399402Y-102967000D02*
X81967701Y-101398701D01*
X83634520Y-126931480D02*
X83634520Y-127693480D01*
X80049489Y-128230511D02*
X80049489Y-158901489D01*
X81967701Y-101398701D02*
X86614000Y-96752402D01*
X84346489Y-109768367D02*
X84346489Y-120541489D01*
X83634520Y-127693480D02*
X83439000Y-127889000D01*
X81967701Y-101398701D02*
X82076511Y-101507511D01*
%TO.N,Net-(D1-Pad2)*%
X84544001Y-103619999D02*
X85344000Y-102820000D01*
X84544001Y-108136001D02*
X84544001Y-103619999D01*
X85979000Y-109571000D02*
X84544001Y-108136001D01*
%TO.N,Net-(Q2-Pad1)*%
X79991511Y-115287511D02*
X78867000Y-114163000D01*
X79991511Y-117717489D02*
X79991511Y-115287511D01*
X79610511Y-127623489D02*
X79610511Y-118098489D01*
X78232000Y-129002000D02*
X79610511Y-127623489D01*
X79610511Y-118098489D02*
X79991511Y-117717489D01*
%TO.N,Net-(Q3-Pad3)*%
X84036511Y-129799509D02*
X84036511Y-129166489D01*
X83564020Y-130272000D02*
X84036511Y-129799509D01*
X86976511Y-127967511D02*
X86976511Y-125047010D01*
X84036511Y-129166489D02*
X85235489Y-127967511D01*
X86976511Y-125047010D02*
X83946501Y-122017000D01*
X85235489Y-127967511D02*
X86976511Y-127967511D01*
%TO.N,Net-(Q3-Pad1)*%
X85598000Y-126843000D02*
X83312000Y-129129000D01*
X85852000Y-126843000D02*
X85598000Y-126843000D01*
%TD*%
M02*
