%TF.GenerationSoftware,KiCad,Pcbnew,(6.0.2)*%
%TF.CreationDate,2022-03-04T11:59:17-06:00*%
%TF.ProjectId,rev1,72657631-2e6b-4696-9361-645f70636258,rev?*%
%TF.SameCoordinates,Original*%
%TF.FileFunction,Copper,L1,Top*%
%TF.FilePolarity,Positive*%
%FSLAX46Y46*%
G04 Gerber Fmt 4.6, Leading zero omitted, Abs format (unit mm)*
G04 Created by KiCad (PCBNEW (6.0.2)) date 2022-03-04 11:59:17*
%MOMM*%
%LPD*%
G01*
G04 APERTURE LIST*
G04 Aperture macros list*
%AMRoundRect*
0 Rectangle with rounded corners*
0 $1 Rounding radius*
0 $2 $3 $4 $5 $6 $7 $8 $9 X,Y pos of 4 corners*
0 Add a 4 corners polygon primitive as box body*
4,1,4,$2,$3,$4,$5,$6,$7,$8,$9,$2,$3,0*
0 Add four circle primitives for the rounded corners*
1,1,$1+$1,$2,$3*
1,1,$1+$1,$4,$5*
1,1,$1+$1,$6,$7*
1,1,$1+$1,$8,$9*
0 Add four rect primitives between the rounded corners*
20,1,$1+$1,$2,$3,$4,$5,0*
20,1,$1+$1,$4,$5,$6,$7,0*
20,1,$1+$1,$6,$7,$8,$9,0*
20,1,$1+$1,$8,$9,$2,$3,0*%
G04 Aperture macros list end*
%TA.AperFunction,SMDPad,CuDef*%
%ADD10RoundRect,0.250000X0.250000X0.475000X-0.250000X0.475000X-0.250000X-0.475000X0.250000X-0.475000X0*%
%TD*%
%TA.AperFunction,SMDPad,CuDef*%
%ADD11RoundRect,0.250000X0.475000X-0.250000X0.475000X0.250000X-0.475000X0.250000X-0.475000X-0.250000X0*%
%TD*%
%TA.AperFunction,SMDPad,CuDef*%
%ADD12RoundRect,0.250000X-0.475000X0.250000X-0.475000X-0.250000X0.475000X-0.250000X0.475000X0.250000X0*%
%TD*%
%TA.AperFunction,SMDPad,CuDef*%
%ADD13RoundRect,0.250000X-0.250000X-0.475000X0.250000X-0.475000X0.250000X0.475000X-0.250000X0.475000X0*%
%TD*%
%TA.AperFunction,SMDPad,CuDef*%
%ADD14RoundRect,0.250000X-0.625000X0.375000X-0.625000X-0.375000X0.625000X-0.375000X0.625000X0.375000X0*%
%TD*%
%TA.AperFunction,SMDPad,CuDef*%
%ADD15R,0.450000X1.380000*%
%TD*%
%TA.AperFunction,SMDPad,CuDef*%
%ADD16R,1.650000X1.300000*%
%TD*%
%TA.AperFunction,SMDPad,CuDef*%
%ADD17R,1.000000X1.900000*%
%TD*%
%TA.AperFunction,SMDPad,CuDef*%
%ADD18R,1.425000X1.550000*%
%TD*%
%TA.AperFunction,SMDPad,CuDef*%
%ADD19R,1.800000X1.900000*%
%TD*%
%TA.AperFunction,ComponentPad*%
%ADD20R,1.700000X1.700000*%
%TD*%
%TA.AperFunction,ComponentPad*%
%ADD21O,1.700000X1.700000*%
%TD*%
%TA.AperFunction,SMDPad,CuDef*%
%ADD22RoundRect,0.250000X-0.450000X0.262500X-0.450000X-0.262500X0.450000X-0.262500X0.450000X0.262500X0*%
%TD*%
%TA.AperFunction,SMDPad,CuDef*%
%ADD23RoundRect,0.250000X0.450000X-0.262500X0.450000X0.262500X-0.450000X0.262500X-0.450000X-0.262500X0*%
%TD*%
%TA.AperFunction,SMDPad,CuDef*%
%ADD24RoundRect,0.250000X0.262500X0.450000X-0.262500X0.450000X-0.262500X-0.450000X0.262500X-0.450000X0*%
%TD*%
%TA.AperFunction,SMDPad,CuDef*%
%ADD25R,1.400000X1.200000*%
%TD*%
%TA.AperFunction,SMDPad,CuDef*%
%ADD26RoundRect,0.150000X-0.150000X0.650000X-0.150000X-0.650000X0.150000X-0.650000X0.150000X0.650000X0*%
%TD*%
%TA.AperFunction,SMDPad,CuDef*%
%ADD27R,1.500000X1.500000*%
%TD*%
%TA.AperFunction,SMDPad,CuDef*%
%ADD28RoundRect,0.250000X-0.262500X-0.450000X0.262500X-0.450000X0.262500X0.450000X-0.262500X0.450000X0*%
%TD*%
%TA.AperFunction,SMDPad,CuDef*%
%ADD29RoundRect,0.243750X-0.243750X-0.456250X0.243750X-0.456250X0.243750X0.456250X-0.243750X0.456250X0*%
%TD*%
%TA.AperFunction,SMDPad,CuDef*%
%ADD30R,1.500000X2.000000*%
%TD*%
%TA.AperFunction,SMDPad,CuDef*%
%ADD31R,3.800000X2.000000*%
%TD*%
%TA.AperFunction,SMDPad,CuDef*%
%ADD32R,0.812800X0.177800*%
%TD*%
%TA.AperFunction,SMDPad,CuDef*%
%ADD33R,0.177800X0.812800*%
%TD*%
%TA.AperFunction,SMDPad,CuDef*%
%ADD34R,3.200400X3.200400*%
%TD*%
%TA.AperFunction,ComponentPad*%
%ADD35C,1.700000*%
%TD*%
%TA.AperFunction,SMDPad,CuDef*%
%ADD36RoundRect,0.150000X0.150000X-0.800000X0.150000X0.800000X-0.150000X0.800000X-0.150000X-0.800000X0*%
%TD*%
%TA.AperFunction,SMDPad,CuDef*%
%ADD37RoundRect,0.150000X0.837500X0.150000X-0.837500X0.150000X-0.837500X-0.150000X0.837500X-0.150000X0*%
%TD*%
%TA.AperFunction,ComponentPad*%
%ADD38RoundRect,0.250000X0.750000X1.550000X-0.750000X1.550000X-0.750000X-1.550000X0.750000X-1.550000X0*%
%TD*%
%TA.AperFunction,ComponentPad*%
%ADD39O,2.000000X3.600000*%
%TD*%
%TA.AperFunction,ViaPad*%
%ADD40C,0.800000*%
%TD*%
%TA.AperFunction,Conductor*%
%ADD41C,0.304800*%
%TD*%
%TA.AperFunction,Conductor*%
%ADD42C,0.152400*%
%TD*%
%TA.AperFunction,Conductor*%
%ADD43C,0.609600*%
%TD*%
%TA.AperFunction,Conductor*%
%ADD44C,0.250000*%
%TD*%
%TA.AperFunction,Conductor*%
%ADD45C,0.709600*%
%TD*%
%TA.AperFunction,Conductor*%
%ADD46C,0.228600*%
%TD*%
%TA.AperFunction,Conductor*%
%ADD47C,0.203200*%
%TD*%
G04 APERTURE END LIST*
D10*
%TO.P,C2,1*%
%TO.N,XI*%
X193981400Y-107760220D03*
%TO.P,C2,2*%
%TO.N,GND*%
X192081400Y-107760220D03*
%TD*%
%TO.P,C3,1*%
%TO.N,Net-(C3-Pad1)*%
X193988940Y-109810000D03*
%TO.P,C3,2*%
%TO.N,GND*%
X192088940Y-109810000D03*
%TD*%
D11*
%TO.P,C1,1*%
%TO.N,Net-(C1-Pad1)*%
X189559180Y-129855760D03*
%TO.P,C1,2*%
%TO.N,GND*%
X189559180Y-127955760D03*
%TD*%
D12*
%TO.P,C7,1*%
%TO.N,+1V1*%
X196528940Y-127912580D03*
%TO.P,C7,2*%
%TO.N,GND*%
X196528940Y-129812580D03*
%TD*%
D13*
%TO.P,C4,1*%
%TO.N,+3V3*%
X188634540Y-123757140D03*
%TO.P,C4,2*%
%TO.N,GND*%
X190534540Y-123757140D03*
%TD*%
D10*
%TO.P,C9,1*%
%TO.N,Net-(C9-Pad1)*%
X190557400Y-126002500D03*
%TO.P,C9,2*%
%TO.N,GND*%
X188657400Y-126002500D03*
%TD*%
%TO.P,C5,1*%
%TO.N,+3V3*%
X190600000Y-116950000D03*
%TO.P,C5,2*%
%TO.N,GND*%
X188700000Y-116950000D03*
%TD*%
D13*
%TO.P,C6,1*%
%TO.N,+3V3*%
X202939820Y-123632680D03*
%TO.P,C6,2*%
%TO.N,GND*%
X204839820Y-123632680D03*
%TD*%
D11*
%TO.P,C8,1*%
%TO.N,+3V3*%
X204814420Y-131999520D03*
%TO.P,C8,2*%
%TO.N,GND*%
X204814420Y-130099520D03*
%TD*%
D10*
%TO.P,C10,1*%
%TO.N,+3V3*%
X195299580Y-113043420D03*
%TO.P,C10,2*%
%TO.N,GND*%
X193399580Y-113043420D03*
%TD*%
D12*
%TO.P,C11,1*%
%TO.N,+3V3*%
X206650000Y-122450000D03*
%TO.P,C11,2*%
%TO.N,GND*%
X206650000Y-124350000D03*
%TD*%
D14*
%TO.P,D6,1,K*%
%TO.N,Net-(C1-Pad1)*%
X185574920Y-135016500D03*
%TO.P,D6,2,A*%
%TO.N,Net-(D6-Pad2)*%
X185574920Y-137816500D03*
%TD*%
D15*
%TO.P,J2,1,VBUS*%
%TO.N,Net-(J2-Pad1)*%
X190815260Y-133024420D03*
%TO.P,J2,2,D-*%
%TO.N,Net-(J2-Pad2)*%
X191465260Y-133024420D03*
%TO.P,J2,3,D+*%
%TO.N,Net-(J2-Pad3)*%
X192115260Y-133024420D03*
%TO.P,J2,4,ID*%
%TO.N,unconnected-(J2-Pad4)*%
X192765260Y-133024420D03*
%TO.P,J2,5,GND*%
%TO.N,GND*%
X193415260Y-133024420D03*
D16*
%TO.P,J2,6,Shield*%
X195490260Y-135684420D03*
X188740260Y-135684420D03*
D17*
X193665260Y-135684420D03*
D18*
X194602760Y-133109420D03*
D19*
X190965260Y-135684420D03*
D18*
X189627760Y-133109420D03*
%TD*%
D20*
%TO.P,J16,1,Pin_1*%
%TO.N,SWCLK*%
X189394080Y-108560320D03*
D21*
%TO.P,J16,2,Pin_2*%
%TO.N,GND*%
X186854080Y-108560320D03*
%TO.P,J16,3,Pin_3*%
%TO.N,SWDIO*%
X184314080Y-108560320D03*
%TD*%
D22*
%TO.P,R11,1*%
%TO.N,USB_DP*%
X194354700Y-127972260D03*
%TO.P,R11,2*%
%TO.N,Net-(J2-Pad3)*%
X194354700Y-129797260D03*
%TD*%
%TO.P,R12,1*%
%TO.N,USB_DM*%
X192355720Y-127972260D03*
%TO.P,R12,2*%
%TO.N,Net-(J2-Pad2)*%
X192355720Y-129797260D03*
%TD*%
%TO.P,R18,1*%
%TO.N,Net-(D6-Pad2)*%
X183179700Y-134589780D03*
%TO.P,R18,2*%
%TO.N,GPIO24*%
X183179700Y-136414780D03*
%TD*%
D23*
%TO.P,R19,1*%
%TO.N,GPIO24*%
X181086740Y-136414780D03*
%TO.P,R19,2*%
%TO.N,GND*%
X181086740Y-134589780D03*
%TD*%
D24*
%TO.P,R47,1*%
%TO.N,Net-(R47-Pad1)*%
X191662500Y-111800000D03*
%TO.P,R47,2*%
%TO.N,+3V3*%
X189837500Y-111800000D03*
%TD*%
D22*
%TO.P,R50,1*%
%TO.N,+3V3*%
X204799180Y-126643840D03*
%TO.P,R50,2*%
%TO.N,QSPI_SS*%
X204799180Y-128468840D03*
%TD*%
D25*
%TO.P,Y1,1,1*%
%TO.N,XI*%
X198050400Y-108037280D03*
%TO.P,Y1,2,2*%
%TO.N,unconnected-(Y1-Pad2)*%
X195850400Y-108037280D03*
%TO.P,Y1,3,3*%
%TO.N,Net-(C3-Pad1)*%
X195850400Y-109637280D03*
%TO.P,Y1,4,4*%
%TO.N,unconnected-(Y1-Pad4)*%
X198050400Y-109637280D03*
%TD*%
D26*
%TO.P,U5,1,~{CS}*%
%TO.N,QSPI_SS*%
X202675740Y-128223360D03*
%TO.P,U5,2,DO(IO1)*%
%TO.N,QSPI_SD1*%
X201405740Y-128223360D03*
%TO.P,U5,3,IO2*%
%TO.N,QSPI_SD2*%
X200135740Y-128223360D03*
%TO.P,U5,4,GND*%
%TO.N,GND*%
X198865740Y-128223360D03*
%TO.P,U5,5,DI(IO0)*%
%TO.N,QSPI_SD0*%
X198865740Y-135423360D03*
%TO.P,U5,6,CLK*%
%TO.N,QSPI_SCLK*%
X200135740Y-135423360D03*
%TO.P,U5,7,IO3*%
%TO.N,QSPI_SD3*%
X201405740Y-135423360D03*
%TO.P,U5,8,VCC*%
%TO.N,+3V3*%
X202675740Y-135423360D03*
%TD*%
D27*
%TO.P,SW1,1,1*%
%TO.N,GND*%
X208515200Y-109352800D03*
%TO.P,SW1,2,2*%
%TO.N,Net-(R49-Pad2)*%
X200715200Y-109352800D03*
%TD*%
D28*
%TO.P,R5,1*%
%TO.N,Net-(D4-Pad2)*%
X185158880Y-121425000D03*
%TO.P,R5,2*%
%TO.N,GPIO28*%
X186983880Y-121425000D03*
%TD*%
%TO.P,R4,1*%
%TO.N,Net-(D3-Pad2)*%
X185162500Y-119444920D03*
%TO.P,R4,2*%
%TO.N,GPIO27*%
X186987500Y-119444920D03*
%TD*%
%TO.P,R3,1*%
%TO.N,Net-(D2-Pad2)*%
X185158840Y-117450000D03*
%TO.P,R3,2*%
%TO.N,GPIO26*%
X186983840Y-117450000D03*
%TD*%
D29*
%TO.P,D3,1,K*%
%TO.N,GND*%
X181680960Y-119439840D03*
%TO.P,D3,2,A*%
%TO.N,Net-(D3-Pad2)*%
X183555960Y-119439840D03*
%TD*%
%TO.P,D2,1,K*%
%TO.N,GND*%
X181675000Y-117450000D03*
%TO.P,D2,2,A*%
%TO.N,Net-(D2-Pad2)*%
X183550000Y-117450000D03*
%TD*%
D30*
%TO.P,U2,1,GND*%
%TO.N,GND*%
X181400000Y-132275000D03*
D31*
%TO.P,U2,2,VO*%
%TO.N,+3V3*%
X183700000Y-125975000D03*
D30*
X183700000Y-132275000D03*
%TO.P,U2,3,VI*%
%TO.N,Net-(C1-Pad1)*%
X186000000Y-132275000D03*
%TD*%
D23*
%TO.P,R49,1*%
%TO.N,QSPI_SS*%
X200679300Y-114296920D03*
%TO.P,R49,2*%
%TO.N,Net-(R49-Pad2)*%
X200679300Y-112471920D03*
%TD*%
D29*
%TO.P,D4,1,K*%
%TO.N,GND*%
X181687500Y-121419920D03*
%TO.P,D4,2,A*%
%TO.N,Net-(D4-Pad2)*%
X183562500Y-121419920D03*
%TD*%
D22*
%TO.P,R51,1*%
%TO.N,+3V3*%
X192343020Y-124399760D03*
%TO.P,R51,2*%
%TO.N,Net-(C9-Pad1)*%
X192343020Y-126224760D03*
%TD*%
D32*
%TO.P,U4,1,IOVDD*%
%TO.N,+3V3*%
X199863960Y-122029940D03*
%TO.P,U4,2,GPIO0*%
%TO.N,GPIO0*%
X199863960Y-121623540D03*
%TO.P,U4,3,GPIO1*%
%TO.N,GPIO1*%
X199863960Y-121217140D03*
%TO.P,U4,4,GPIO2*%
%TO.N,GPIO2*%
X199863960Y-120810740D03*
%TO.P,U4,5,GPIO3*%
%TO.N,GPIO3*%
X199863960Y-120404340D03*
%TO.P,U4,6,GPIO4*%
%TO.N,DET_1*%
X199863960Y-119997940D03*
%TO.P,U4,7,GPIO5*%
%TO.N,GPIO5*%
X199863960Y-119591540D03*
%TO.P,U4,8,GPIO6*%
%TO.N,GPIO6*%
X199863960Y-119185140D03*
%TO.P,U4,9,GPIO7*%
%TO.N,GPIO7*%
X199863960Y-118778740D03*
%TO.P,U4,10,IOVDD*%
%TO.N,+3V3*%
X199863960Y-118372340D03*
%TO.P,U4,11,GPIO8*%
%TO.N,DET_2*%
X199863960Y-117965940D03*
%TO.P,U4,12,GPIO9*%
%TO.N,GPIO9*%
X199863960Y-117559540D03*
%TO.P,U4,13,GPIO10*%
%TO.N,GPIO10*%
X199863960Y-117153140D03*
%TO.P,U4,14,GPIO11*%
%TO.N,GPIO11*%
X199863960Y-116746740D03*
D33*
%TO.P,U4,15,GPIO12*%
%TO.N,DET_3*%
X199101960Y-115984740D03*
%TO.P,U4,16,GPIO13*%
%TO.N,GPIO13*%
X198695560Y-115984740D03*
%TO.P,U4,17,GPIO14*%
%TO.N,GPIO14*%
X198289160Y-115984740D03*
%TO.P,U4,18,GPIO15*%
%TO.N,GPIO15*%
X197882760Y-115984740D03*
%TO.P,U4,19,TESTEN*%
%TO.N,GND*%
X197476360Y-115984740D03*
%TO.P,U4,20,XIN*%
%TO.N,XI*%
X197069960Y-115984740D03*
%TO.P,U4,21,XOUT*%
%TO.N,XO*%
X196663560Y-115984740D03*
%TO.P,U4,22,IOVDD*%
%TO.N,+3V3*%
X196257160Y-115984740D03*
%TO.P,U4,23,DVDD*%
%TO.N,+1V1*%
X195850760Y-115984740D03*
%TO.P,U4,24,SWCLK*%
%TO.N,SWCLK*%
X195444360Y-115984740D03*
%TO.P,U4,25,SWDIO*%
%TO.N,SWDIO*%
X195037960Y-115984740D03*
%TO.P,U4,26,RUN*%
%TO.N,Net-(R47-Pad1)*%
X194631560Y-115984740D03*
%TO.P,U4,27,GPIO16*%
%TO.N,DET_4*%
X194225160Y-115984740D03*
%TO.P,U4,28,GPIO17*%
%TO.N,GPIO17*%
X193818760Y-115984740D03*
D32*
%TO.P,U4,29,GPIO18*%
%TO.N,GPIO18*%
X193056760Y-116746740D03*
%TO.P,U4,30,GPIO19*%
%TO.N,GPIO19*%
X193056760Y-117153140D03*
%TO.P,U4,31,GPIO20*%
%TO.N,DET_5*%
X193056760Y-117559540D03*
%TO.P,U4,32,GPIO21*%
%TO.N,GPIO21*%
X193056760Y-117965940D03*
%TO.P,U4,33,IOVDD*%
%TO.N,+3V3*%
X193056760Y-118372340D03*
%TO.P,U4,34,GPIO22*%
%TO.N,DET_A*%
X193056760Y-118778740D03*
%TO.P,U4,35,GPIO23*%
%TO.N,DET_B*%
X193056760Y-119185140D03*
%TO.P,U4,36,GPIO24*%
%TO.N,GPIO24*%
X193056760Y-119591540D03*
%TO.P,U4,37,GPIO25*%
%TO.N,GPIO25*%
X193056760Y-119997940D03*
%TO.P,U4,38,GPIO26/ADC0*%
%TO.N,GPIO26*%
X193056760Y-120404340D03*
%TO.P,U4,39,GPIO27/ADC1*%
%TO.N,GPIO27*%
X193056760Y-120810740D03*
%TO.P,U4,40,GPIO28/ADC2*%
%TO.N,GPIO28*%
X193056760Y-121217140D03*
%TO.P,U4,41,GPIO29/ADC3*%
%TO.N,GPIO29*%
X193056760Y-121623540D03*
%TO.P,U4,42,IOVDD*%
%TO.N,+3V3*%
X193056760Y-122029940D03*
D33*
%TO.P,U4,43,ADC_AVDD*%
%TO.N,Net-(C9-Pad1)*%
X193818760Y-122791940D03*
%TO.P,U4,44,VREG_VIN*%
%TO.N,+3V3*%
X194225160Y-122791940D03*
%TO.P,U4,45,VREG_VOUT*%
%TO.N,+1V1*%
X194631560Y-122791940D03*
%TO.P,U4,46,USB_DM*%
%TO.N,USB_DM*%
X195037960Y-122791940D03*
%TO.P,U4,47,USB_DP*%
%TO.N,USB_DP*%
X195444360Y-122791940D03*
%TO.P,U4,48,USB_VDD*%
%TO.N,+3V3*%
X195850760Y-122791940D03*
%TO.P,U4,49,IOVDD*%
X196257160Y-122791940D03*
%TO.P,U4,50,DVDD*%
%TO.N,+1V1*%
X196663560Y-122791940D03*
%TO.P,U4,51,QSPI_SD3*%
%TO.N,QSPI_SD3*%
X197069960Y-122791940D03*
%TO.P,U4,52,QSPI_SCLK*%
%TO.N,QSPI_SCLK*%
X197476360Y-122791940D03*
%TO.P,U4,53,QSPI_SD0*%
%TO.N,QSPI_SD0*%
X197882760Y-122791940D03*
%TO.P,U4,54,QSPI_SD2*%
%TO.N,QSPI_SD2*%
X198289160Y-122791940D03*
%TO.P,U4,55,QSPI_SD1*%
%TO.N,QSPI_SD1*%
X198695560Y-122791940D03*
%TO.P,U4,56,QSPI_SS_N*%
%TO.N,QSPI_SS*%
X199101960Y-122791940D03*
D34*
%TO.P,U4,57,GND*%
%TO.N,GND*%
X196460360Y-119388340D03*
%TD*%
D29*
%TO.P,D1,1,K*%
%TO.N,GND*%
X181694880Y-115468900D03*
%TO.P,D1,2,A*%
%TO.N,Net-(D1-Pad2)*%
X183569880Y-115468900D03*
%TD*%
D28*
%TO.P,R2,1*%
%TO.N,Net-(D1-Pad2)*%
X185172620Y-115468900D03*
%TO.P,R2,2*%
%TO.N,GPIO25*%
X186997620Y-115468900D03*
%TD*%
D23*
%TO.P,R48,1*%
%TO.N,XO*%
X197456040Y-113430780D03*
%TO.P,R48,2*%
%TO.N,Net-(C3-Pad1)*%
X197456040Y-111605780D03*
%TD*%
D35*
%TO.P,J14,1,Pin_1*%
%TO.N,GND*%
X208185000Y-134575000D03*
%TD*%
D28*
%TO.P,R31,1*%
%TO.N,Net-(J10-Pad1)*%
X130137500Y-130700000D03*
%TO.P,R31,2*%
%TO.N,NoEffect*%
X131962500Y-130700000D03*
%TD*%
D20*
%TO.P,J15,1,Pin_1*%
%TO.N,PI_DAC_L*%
X132275000Y-101700000D03*
D21*
%TO.P,J15,2,Pin_2*%
%TO.N,GND*%
X134815000Y-101700000D03*
%TO.P,J15,3,Pin_3*%
%TO.N,PI_DAC_R*%
X137355000Y-101700000D03*
%TD*%
D20*
%TO.P,J18,1,Pin_1*%
%TO.N,TRIG_A*%
X159310000Y-107600000D03*
D21*
%TO.P,J18,2,Pin_2*%
X161850000Y-107600000D03*
%TO.P,J18,3,Pin_3*%
%TO.N,SDL_A*%
X159310000Y-110140000D03*
%TO.P,J18,4,Pin_4*%
X161850000Y-110140000D03*
%TO.P,J18,5,Pin_5*%
%TO.N,SDA_A*%
X159310000Y-112680000D03*
%TO.P,J18,6,Pin_6*%
X161850000Y-112680000D03*
%TO.P,J18,7,Pin_7*%
%TO.N,DET_A*%
X159310000Y-115220000D03*
%TO.P,J18,8,Pin_8*%
X161850000Y-115220000D03*
%TO.P,J18,9,Pin_9*%
%TO.N,5V*%
X159310000Y-117760000D03*
%TO.P,J18,10,Pin_10*%
X161850000Y-117760000D03*
%TO.P,J18,11,Pin_11*%
%TO.N,GND*%
X159310000Y-120300000D03*
%TO.P,J18,12,Pin_12*%
X161850000Y-120300000D03*
%TO.P,J18,13,Pin_13*%
%TO.N,-12V*%
X159310000Y-122840000D03*
%TO.P,J18,14,Pin_14*%
X161850000Y-122840000D03*
%TO.P,J18,15,Pin_15*%
%TO.N,+12V*%
X159310000Y-125380000D03*
%TO.P,J18,16,Pin_16*%
X161850000Y-125380000D03*
%TO.P,J18,17,Pin_17*%
%TO.N,GND*%
X159310000Y-127920000D03*
%TO.P,J18,18,Pin_18*%
X161850000Y-127920000D03*
%TO.P,J18,19,Pin_19*%
%TO.N,A_IN_A*%
X159310000Y-130460000D03*
%TO.P,J18,20,Pin_20*%
X161850000Y-130460000D03*
%TO.P,J18,21,Pin_21*%
%TO.N,A_OUT_R_A*%
X159310000Y-133000000D03*
%TO.P,J18,22,Pin_22*%
X161850000Y-133000000D03*
%TO.P,J18,23,Pin_23*%
%TO.N,A_OUT_L_A*%
X159310000Y-135540000D03*
%TO.P,J18,24,Pin_24*%
X161850000Y-135540000D03*
%TD*%
D28*
%TO.P,R20,1*%
%TO.N,Net-(J7-Pad3)*%
X139777500Y-141150000D03*
%TO.P,R20,2*%
%TO.N,Net-(R20-Pad2)*%
X141602500Y-141150000D03*
%TD*%
%TO.P,R6,1*%
%TO.N,Net-(D5-Pad2)*%
X185162500Y-123400000D03*
%TO.P,R6,2*%
%TO.N,GPIO29*%
X186987500Y-123400000D03*
%TD*%
%TO.P,R1,1*%
%TO.N,GPIO2*%
X202962500Y-121650000D03*
%TO.P,R1,2*%
%TO.N,+3V3*%
X204787500Y-121650000D03*
%TD*%
%TO.P,R10,1*%
%TO.N,GPIO10*%
X206387500Y-115625000D03*
%TO.P,R10,2*%
%TO.N,+3V3*%
X208212500Y-115625000D03*
%TD*%
%TO.P,R40,1*%
%TO.N,A_OUT_R_B*%
X149807500Y-119670000D03*
%TO.P,R40,2*%
%TO.N,Net-(R39-Pad2)*%
X151632500Y-119670000D03*
%TD*%
D22*
%TO.P,R27,1*%
%TO.N,Net-(J9-Pad2)*%
X147900000Y-138667500D03*
%TO.P,R27,2*%
%TO.N,Net-(R21-Pad2)*%
X147900000Y-140492500D03*
%TD*%
D24*
%TO.P,R37,1*%
%TO.N,A_OUT_L_A*%
X151332500Y-121660000D03*
%TO.P,R37,2*%
%TO.N,Net-(R35-Pad2)*%
X149507500Y-121660000D03*
%TD*%
D28*
%TO.P,R34,1*%
%TO.N,Net-(J11-Pad1)*%
X130137500Y-128740000D03*
%TO.P,R34,2*%
%TO.N,NoEffect*%
X131962500Y-128740000D03*
%TD*%
D23*
%TO.P,R16,1*%
%TO.N,GPIO18*%
X190250000Y-105912500D03*
%TO.P,R16,2*%
%TO.N,+3V3*%
X190250000Y-104087500D03*
%TD*%
D20*
%TO.P,J7,1,Pin_1*%
%TO.N,Net-(J7-Pad1)*%
X134600000Y-135740000D03*
D21*
%TO.P,J7,2,Pin_2*%
%TO.N,Net-(J7-Pad2)*%
X134600000Y-133200000D03*
%TO.P,J7,3,Pin_3*%
%TO.N,Net-(J7-Pad3)*%
X134600000Y-130660000D03*
%TO.P,J7,4,Pin_4*%
%TO.N,A_OUT_L_1*%
X134600000Y-128120000D03*
%TD*%
D23*
%TO.P,R46,1*%
%TO.N,Net-(R21-Pad2)*%
X133810000Y-141152500D03*
%TO.P,R46,2*%
%TO.N,A_IN_B*%
X133810000Y-139327500D03*
%TD*%
D20*
%TO.P,J5,1,Pin_1*%
%TO.N,GPIO9*%
X246615000Y-107615000D03*
D21*
%TO.P,J5,2,Pin_2*%
X249155000Y-107615000D03*
%TO.P,J5,3,Pin_3*%
%TO.N,GPIO7*%
X246615000Y-110155000D03*
%TO.P,J5,4,Pin_4*%
X249155000Y-110155000D03*
%TO.P,J5,5,Pin_5*%
%TO.N,GPIO6*%
X246615000Y-112695000D03*
%TO.P,J5,6,Pin_6*%
X249155000Y-112695000D03*
%TO.P,J5,7,Pin_7*%
%TO.N,DET_2*%
X246615000Y-115235000D03*
%TO.P,J5,8,Pin_8*%
X249155000Y-115235000D03*
%TO.P,J5,9,Pin_9*%
%TO.N,5V*%
X246615000Y-117775000D03*
%TO.P,J5,10,Pin_10*%
X249155000Y-117775000D03*
%TO.P,J5,11,Pin_11*%
%TO.N,GND*%
X246615000Y-120315000D03*
%TO.P,J5,12,Pin_12*%
X249155000Y-120315000D03*
%TO.P,J5,13,Pin_13*%
%TO.N,-12V*%
X246615000Y-122855000D03*
%TO.P,J5,14,Pin_14*%
X249155000Y-122855000D03*
%TO.P,J5,15,Pin_15*%
%TO.N,+12V*%
X246615000Y-125395000D03*
%TO.P,J5,16,Pin_16*%
X249155000Y-125395000D03*
%TO.P,J5,17,Pin_17*%
%TO.N,GND*%
X246615000Y-127935000D03*
%TO.P,J5,18,Pin_18*%
X249155000Y-127935000D03*
%TO.P,J5,19,Pin_19*%
%TO.N,A_IN_2*%
X246615000Y-130475000D03*
%TO.P,J5,20,Pin_20*%
X249155000Y-130475000D03*
%TO.P,J5,21,Pin_21*%
%TO.N,A_OUT_R_2*%
X246615000Y-133015000D03*
%TO.P,J5,22,Pin_22*%
X249155000Y-133015000D03*
%TO.P,J5,23,Pin_23*%
%TO.N,A_OUT_L_2*%
X246615000Y-135555000D03*
%TO.P,J5,24,Pin_24*%
X249155000Y-135555000D03*
%TD*%
D23*
%TO.P,R36,1*%
%TO.N,A_OUT_L_B*%
X137450000Y-136772500D03*
%TO.P,R36,2*%
%TO.N,Net-(R35-Pad2)*%
X137450000Y-134947500D03*
%TD*%
D24*
%TO.P,R41,1*%
%TO.N,A_OUT_R_A*%
X156602500Y-106080000D03*
%TO.P,R41,2*%
%TO.N,Net-(R39-Pad2)*%
X154777500Y-106080000D03*
%TD*%
D20*
%TO.P,J8,1,Pin_1*%
%TO.N,Net-(J8-Pad1)*%
X124100000Y-122250000D03*
D21*
%TO.P,J8,2,Pin_2*%
%TO.N,Net-(J8-Pad2)*%
X124100000Y-124790000D03*
%TO.P,J8,3,Pin_3*%
%TO.N,Net-(J8-Pad3)*%
X124100000Y-127330000D03*
%TO.P,J8,4,Pin_4*%
%TO.N,A_OUT_L_2*%
X124100000Y-129870000D03*
%TD*%
D22*
%TO.P,R33,1*%
%TO.N,Net-(J11-Pad2)*%
X152100000Y-138667500D03*
%TO.P,R33,2*%
%TO.N,Net-(R21-Pad2)*%
X152100000Y-140492500D03*
%TD*%
D36*
%TO.P,U3,1*%
%TO.N,Net-(J17-Pad1)*%
X150415000Y-115310000D03*
%TO.P,U3,2,-*%
%TO.N,Net-(R35-Pad2)*%
X151685000Y-115310000D03*
%TO.P,U3,3,+*%
%TO.N,GND*%
X152955000Y-115310000D03*
%TO.P,U3,4,V-*%
%TO.N,-12V*%
X154225000Y-115310000D03*
%TO.P,U3,5,+*%
%TO.N,GND*%
X154225000Y-108310000D03*
%TO.P,U3,6,-*%
%TO.N,Net-(R39-Pad2)*%
X152955000Y-108310000D03*
%TO.P,U3,7*%
%TO.N,Net-(J17-Pad3)*%
X151685000Y-108310000D03*
%TO.P,U3,8,V+*%
%TO.N,+12V*%
X150415000Y-108310000D03*
%TD*%
D20*
%TO.P,J11,1,Pin_1*%
%TO.N,Net-(J11-Pad1)*%
X134610000Y-105580000D03*
D21*
%TO.P,J11,2,Pin_2*%
%TO.N,Net-(J11-Pad2)*%
X134610000Y-108120000D03*
%TO.P,J11,3,Pin_3*%
%TO.N,Net-(J11-Pad3)*%
X134610000Y-110660000D03*
%TO.P,J11,4,Pin_4*%
%TO.N,A_OUT_L_5*%
X134610000Y-113200000D03*
%TD*%
D22*
%TO.P,R24,1*%
%TO.N,Net-(J8-Pad2)*%
X150060000Y-138667500D03*
%TO.P,R24,2*%
%TO.N,Net-(R21-Pad2)*%
X150060000Y-140492500D03*
%TD*%
D24*
%TO.P,R43,1*%
%TO.N,Net-(R35-Pad2)*%
X151602500Y-117630000D03*
%TO.P,R43,2*%
%TO.N,Net-(J17-Pad1)*%
X149777500Y-117630000D03*
%TD*%
D28*
%TO.P,R7,1*%
%TO.N,GPIO3*%
X206387500Y-120600000D03*
%TO.P,R7,2*%
%TO.N,+3V3*%
X208212500Y-120600000D03*
%TD*%
%TO.P,R28,1*%
%TO.N,Net-(J9-Pad1)*%
X130127500Y-132670000D03*
%TO.P,R28,2*%
%TO.N,NoEffect*%
X131952500Y-132670000D03*
%TD*%
D23*
%TO.P,R14,1*%
%TO.N,GPIO14*%
X200675000Y-106462500D03*
%TO.P,R14,2*%
%TO.N,+3V3*%
X200675000Y-104637500D03*
%TD*%
D20*
%TO.P,J12,1,Pin_1*%
%TO.N,GPIO17*%
X215715000Y-107875000D03*
D21*
%TO.P,J12,2,Pin_2*%
X218255000Y-107875000D03*
%TO.P,J12,3,Pin_3*%
%TO.N,GPIO15*%
X215715000Y-110415000D03*
%TO.P,J12,4,Pin_4*%
X218255000Y-110415000D03*
%TO.P,J12,5,Pin_5*%
%TO.N,GPIO14*%
X215715000Y-112955000D03*
%TO.P,J12,6,Pin_6*%
X218255000Y-112955000D03*
%TO.P,J12,7,Pin_7*%
%TO.N,DET_4*%
X215715000Y-115495000D03*
%TO.P,J12,8,Pin_8*%
X218255000Y-115495000D03*
%TO.P,J12,9,Pin_9*%
%TO.N,5V*%
X215715000Y-118035000D03*
%TO.P,J12,10,Pin_10*%
X218255000Y-118035000D03*
%TO.P,J12,11,Pin_11*%
%TO.N,GND*%
X215715000Y-120575000D03*
%TO.P,J12,12,Pin_12*%
X218255000Y-120575000D03*
%TO.P,J12,13,Pin_13*%
%TO.N,-12V*%
X215715000Y-123115000D03*
%TO.P,J12,14,Pin_14*%
X218255000Y-123115000D03*
%TO.P,J12,15,Pin_15*%
%TO.N,+12V*%
X215715000Y-125655000D03*
%TO.P,J12,16,Pin_16*%
X218255000Y-125655000D03*
%TO.P,J12,17,Pin_17*%
%TO.N,GND*%
X215715000Y-128195000D03*
%TO.P,J12,18,Pin_18*%
X218255000Y-128195000D03*
%TO.P,J12,19,Pin_19*%
%TO.N,A_IN_4*%
X215715000Y-130735000D03*
%TO.P,J12,20,Pin_20*%
X218255000Y-130735000D03*
%TO.P,J12,21,Pin_21*%
%TO.N,A_OUT_R_4*%
X215715000Y-133275000D03*
%TO.P,J12,22,Pin_22*%
X218255000Y-133275000D03*
%TO.P,J12,23,Pin_23*%
%TO.N,A_OUT_L_4*%
X215715000Y-135815000D03*
%TO.P,J12,24,Pin_24*%
X218255000Y-135815000D03*
%TD*%
D24*
%TO.P,R39,1*%
%TO.N,NO_OUT_R*%
X156602500Y-104120000D03*
%TO.P,R39,2*%
%TO.N,Net-(R39-Pad2)*%
X154777500Y-104120000D03*
%TD*%
D28*
%TO.P,R9,1*%
%TO.N,GPIO7*%
X206387500Y-117600000D03*
%TO.P,R9,2*%
%TO.N,+3V3*%
X208212500Y-117600000D03*
%TD*%
D37*
%TO.P,U1,1*%
%TO.N,A_IN_A*%
X156092500Y-134830000D03*
%TO.P,U1,2,-*%
%TO.N,Net-(R20-Pad2)*%
X156092500Y-133560000D03*
%TO.P,U1,3,+*%
%TO.N,GND*%
X156092500Y-132290000D03*
%TO.P,U1,4,V+*%
%TO.N,+12V*%
X156092500Y-131020000D03*
%TO.P,U1,5,+*%
%TO.N,GND*%
X156092500Y-129750000D03*
%TO.P,U1,6,-*%
%TO.N,Net-(R21-Pad2)*%
X156092500Y-128480000D03*
%TO.P,U1,7*%
%TO.N,A_IN_B*%
X156092500Y-127210000D03*
%TO.P,U1,8*%
%TO.N,NO_OUT_L*%
X149167500Y-127210000D03*
%TO.P,U1,9,-*%
X149167500Y-128480000D03*
%TO.P,U1,10,+*%
%TO.N,NoEffect*%
X149167500Y-129750000D03*
%TO.P,U1,11,V-*%
%TO.N,-12V*%
X149167500Y-131020000D03*
%TO.P,U1,12,+*%
%TO.N,NoEffect*%
X149167500Y-132290000D03*
%TO.P,U1,13,-*%
%TO.N,NO_OUT_R*%
X149167500Y-133560000D03*
%TO.P,U1,14*%
X149167500Y-134830000D03*
%TD*%
D20*
%TO.P,J3,1,Pin_1*%
%TO.N,5V*%
X199980000Y-138720000D03*
D21*
%TO.P,J3,2,Pin_2*%
%TO.N,Net-(D6-Pad2)*%
X202520000Y-138720000D03*
%TO.P,J3,3,Pin_3*%
%TO.N,Net-(J2-Pad1)*%
X205060000Y-138720000D03*
%TD*%
D24*
%TO.P,R35,1*%
%TO.N,NO_OUT_L*%
X151472500Y-123990000D03*
%TO.P,R35,2*%
%TO.N,Net-(R35-Pad2)*%
X149647500Y-123990000D03*
%TD*%
D28*
%TO.P,R25,1*%
%TO.N,Net-(J8-Pad1)*%
X130125000Y-134650000D03*
%TO.P,R25,2*%
%TO.N,NoEffect*%
X131950000Y-134650000D03*
%TD*%
%TO.P,R26,1*%
%TO.N,Net-(J9-Pad3)*%
X154247500Y-122070000D03*
%TO.P,R26,2*%
%TO.N,Net-(R20-Pad2)*%
X156072500Y-122070000D03*
%TD*%
D20*
%TO.P,J6,1,Pin_1*%
%TO.N,GPIO13*%
X230330000Y-107700000D03*
D21*
%TO.P,J6,2,Pin_2*%
X232870000Y-107700000D03*
%TO.P,J6,3,Pin_3*%
%TO.N,GPIO11*%
X230330000Y-110240000D03*
%TO.P,J6,4,Pin_4*%
X232870000Y-110240000D03*
%TO.P,J6,5,Pin_5*%
%TO.N,GPIO10*%
X230330000Y-112780000D03*
%TO.P,J6,6,Pin_6*%
X232870000Y-112780000D03*
%TO.P,J6,7,Pin_7*%
%TO.N,DET_3*%
X230330000Y-115320000D03*
%TO.P,J6,8,Pin_8*%
X232870000Y-115320000D03*
%TO.P,J6,9,Pin_9*%
%TO.N,5V*%
X230330000Y-117860000D03*
%TO.P,J6,10,Pin_10*%
X232870000Y-117860000D03*
%TO.P,J6,11,Pin_11*%
%TO.N,GND*%
X230330000Y-120400000D03*
%TO.P,J6,12,Pin_12*%
X232870000Y-120400000D03*
%TO.P,J6,13,Pin_13*%
%TO.N,-12V*%
X230330000Y-122940000D03*
%TO.P,J6,14,Pin_14*%
X232870000Y-122940000D03*
%TO.P,J6,15,Pin_15*%
%TO.N,+12V*%
X230330000Y-125480000D03*
%TO.P,J6,16,Pin_16*%
X232870000Y-125480000D03*
%TO.P,J6,17,Pin_17*%
%TO.N,GND*%
X230330000Y-128020000D03*
%TO.P,J6,18,Pin_18*%
X232870000Y-128020000D03*
%TO.P,J6,19,Pin_19*%
%TO.N,A_IN_3*%
X230330000Y-130560000D03*
%TO.P,J6,20,Pin_20*%
X232870000Y-130560000D03*
%TO.P,J6,21,Pin_21*%
%TO.N,A_OUT_R_3*%
X230330000Y-133100000D03*
%TO.P,J6,22,Pin_22*%
X232870000Y-133100000D03*
%TO.P,J6,23,Pin_23*%
%TO.N,A_OUT_L_3*%
X230330000Y-135640000D03*
%TO.P,J6,24,Pin_24*%
X232870000Y-135640000D03*
%TD*%
D20*
%TO.P,J9,1,Pin_1*%
%TO.N,Net-(J9-Pad1)*%
X134610000Y-116858000D03*
D21*
%TO.P,J9,2,Pin_2*%
%TO.N,Net-(J9-Pad2)*%
X134610000Y-119398000D03*
%TO.P,J9,3,Pin_3*%
%TO.N,Net-(J9-Pad3)*%
X134610000Y-121938000D03*
%TO.P,J9,4,Pin_4*%
%TO.N,A_OUT_L_3*%
X134610000Y-124478000D03*
%TD*%
D23*
%TO.P,R13,1*%
%TO.N,GPIO11*%
X202650000Y-114287500D03*
%TO.P,R13,2*%
%TO.N,+3V3*%
X202650000Y-112462500D03*
%TD*%
D29*
%TO.P,D5,1,K*%
%TO.N,GND*%
X181687500Y-123400000D03*
%TO.P,D5,2,A*%
%TO.N,Net-(D5-Pad2)*%
X183562500Y-123400000D03*
%TD*%
D22*
%TO.P,R21,1*%
%TO.N,Net-(J7-Pad2)*%
X131820000Y-139330000D03*
%TO.P,R21,2*%
%TO.N,Net-(R21-Pad2)*%
X131820000Y-141155000D03*
%TD*%
D20*
%TO.P,J19,1,Pin_1*%
%TO.N,TRIG_B*%
X142990000Y-107470000D03*
D21*
%TO.P,J19,2,Pin_2*%
X145530000Y-107470000D03*
%TO.P,J19,3,Pin_3*%
%TO.N,SDL_B*%
X142990000Y-110010000D03*
%TO.P,J19,4,Pin_4*%
X145530000Y-110010000D03*
%TO.P,J19,5,Pin_5*%
%TO.N,SDA_B*%
X142990000Y-112550000D03*
%TO.P,J19,6,Pin_6*%
X145530000Y-112550000D03*
%TO.P,J19,7,Pin_7*%
%TO.N,DET_B*%
X142990000Y-115090000D03*
%TO.P,J19,8,Pin_8*%
X145530000Y-115090000D03*
%TO.P,J19,9,Pin_9*%
%TO.N,5V*%
X142990000Y-117630000D03*
%TO.P,J19,10,Pin_10*%
X145530000Y-117630000D03*
%TO.P,J19,11,Pin_11*%
%TO.N,GND*%
X142990000Y-120170000D03*
%TO.P,J19,12,Pin_12*%
X145530000Y-120170000D03*
%TO.P,J19,13,Pin_13*%
%TO.N,-12V*%
X142990000Y-122710000D03*
%TO.P,J19,14,Pin_14*%
X145530000Y-122710000D03*
%TO.P,J19,15,Pin_15*%
%TO.N,+12V*%
X142990000Y-125250000D03*
%TO.P,J19,16,Pin_16*%
X145530000Y-125250000D03*
%TO.P,J19,17,Pin_17*%
%TO.N,GND*%
X142990000Y-127790000D03*
%TO.P,J19,18,Pin_18*%
X145530000Y-127790000D03*
%TO.P,J19,19,Pin_19*%
%TO.N,A_IN_B*%
X142990000Y-130330000D03*
%TO.P,J19,20,Pin_20*%
X145530000Y-130330000D03*
%TO.P,J19,21,Pin_21*%
%TO.N,A_OUT_R_B*%
X142990000Y-132870000D03*
%TO.P,J19,22,Pin_22*%
X145530000Y-132870000D03*
%TO.P,J19,23,Pin_23*%
%TO.N,A_OUT_L_B*%
X142990000Y-135410000D03*
%TO.P,J19,24,Pin_24*%
X145530000Y-135410000D03*
%TD*%
D23*
%TO.P,R15,1*%
%TO.N,GPIO15*%
X198700000Y-106312500D03*
%TO.P,R15,2*%
%TO.N,+3V3*%
X198700000Y-104487500D03*
%TD*%
D28*
%TO.P,R23,1*%
%TO.N,Net-(J8-Pad3)*%
X154207500Y-120020000D03*
%TO.P,R23,2*%
%TO.N,Net-(R20-Pad2)*%
X156032500Y-120020000D03*
%TD*%
%TO.P,R29,1*%
%TO.N,Net-(J10-Pad3)*%
X138027500Y-139160000D03*
%TO.P,R29,2*%
%TO.N,Net-(R20-Pad2)*%
X139852500Y-139160000D03*
%TD*%
D24*
%TO.P,R44,1*%
%TO.N,Net-(R39-Pad2)*%
X151182500Y-105770000D03*
%TO.P,R44,2*%
%TO.N,Net-(J17-Pad3)*%
X149357500Y-105770000D03*
%TD*%
D22*
%TO.P,R42,1*%
%TO.N,PI_DAC_R*%
X152980000Y-104447500D03*
%TO.P,R42,2*%
%TO.N,Net-(R39-Pad2)*%
X152980000Y-106272500D03*
%TD*%
D28*
%TO.P,R38,1*%
%TO.N,PI_DAC_L*%
X153957500Y-117590000D03*
%TO.P,R38,2*%
%TO.N,Net-(R35-Pad2)*%
X155782500Y-117590000D03*
%TD*%
%TO.P,R30,1*%
%TO.N,Net-(J10-Pad2)*%
X154287500Y-124170000D03*
%TO.P,R30,2*%
%TO.N,Net-(R21-Pad2)*%
X156112500Y-124170000D03*
%TD*%
%TO.P,R8,1*%
%TO.N,GPIO6*%
X202962500Y-118625000D03*
%TO.P,R8,2*%
%TO.N,+3V3*%
X204787500Y-118625000D03*
%TD*%
D20*
%TO.P,J4,1,Pin_1*%
%TO.N,GPIO5*%
X263145000Y-107455000D03*
D21*
%TO.P,J4,2,Pin_2*%
X265685000Y-107455000D03*
%TO.P,J4,3,Pin_3*%
%TO.N,GPIO3*%
X263145000Y-109995000D03*
%TO.P,J4,4,Pin_4*%
X265685000Y-109995000D03*
%TO.P,J4,5,Pin_5*%
%TO.N,GPIO2*%
X263145000Y-112535000D03*
%TO.P,J4,6,Pin_6*%
X265685000Y-112535000D03*
%TO.P,J4,7,Pin_7*%
%TO.N,DET_1*%
X263145000Y-115075000D03*
%TO.P,J4,8,Pin_8*%
X265685000Y-115075000D03*
%TO.P,J4,9,Pin_9*%
%TO.N,5V*%
X263145000Y-117615000D03*
%TO.P,J4,10,Pin_10*%
X265685000Y-117615000D03*
%TO.P,J4,11,Pin_11*%
%TO.N,GND*%
X263145000Y-120155000D03*
%TO.P,J4,12,Pin_12*%
X265685000Y-120155000D03*
%TO.P,J4,13,Pin_13*%
%TO.N,-12V*%
X263145000Y-122695000D03*
%TO.P,J4,14,Pin_14*%
X265685000Y-122695000D03*
%TO.P,J4,15,Pin_15*%
%TO.N,+12V*%
X263145000Y-125235000D03*
%TO.P,J4,16,Pin_16*%
X265685000Y-125235000D03*
%TO.P,J4,17,Pin_17*%
%TO.N,GND*%
X263145000Y-127775000D03*
%TO.P,J4,18,Pin_18*%
X265685000Y-127775000D03*
%TO.P,J4,19,Pin_19*%
%TO.N,A_IN_1*%
X263145000Y-130315000D03*
%TO.P,J4,20,Pin_20*%
X265685000Y-130315000D03*
%TO.P,J4,21,Pin_21*%
%TO.N,A_OUT_R_1*%
X263145000Y-132855000D03*
%TO.P,J4,22,Pin_22*%
X265685000Y-132855000D03*
%TO.P,J4,23,Pin_23*%
%TO.N,A_OUT_L_1*%
X263145000Y-135395000D03*
%TO.P,J4,24,Pin_24*%
X265685000Y-135395000D03*
%TD*%
D20*
%TO.P,J1,1,VBUS*%
%TO.N,5V*%
X163900000Y-97320000D03*
D21*
%TO.P,J1,2,D-*%
%TO.N,unconnected-(J1-Pad2)*%
X166440000Y-97320000D03*
%TO.P,J1,3,D+*%
%TO.N,unconnected-(J1-Pad3)*%
X168980000Y-97320000D03*
%TO.P,J1,4,GND*%
%TO.N,GND*%
X171520000Y-97320000D03*
%TD*%
D24*
%TO.P,R32,1*%
%TO.N,Net-(J11-Pad3)*%
X143292500Y-139180000D03*
%TO.P,R32,2*%
%TO.N,Net-(R20-Pad2)*%
X141467500Y-139180000D03*
%TD*%
D20*
%TO.P,J17,1,Pin_1*%
%TO.N,Net-(J17-Pad1)*%
X150115000Y-100750000D03*
D21*
%TO.P,J17,2,Pin_2*%
%TO.N,GND*%
X152655000Y-100750000D03*
%TO.P,J17,3,Pin_3*%
%TO.N,Net-(J17-Pad3)*%
X155195000Y-100750000D03*
%TD*%
D38*
%TO.P,J20,1,Pin_1*%
%TO.N,5V*%
X204100000Y-97737500D03*
D39*
%TO.P,J20,2,Pin_2*%
%TO.N,GND*%
X196600000Y-97737500D03*
%TO.P,J20,3,Pin_3*%
%TO.N,-12V*%
X189100000Y-97737500D03*
%TO.P,J20,4,Pin_4*%
%TO.N,+12V*%
X181600000Y-97737500D03*
%TD*%
D23*
%TO.P,R17,1*%
%TO.N,GPIO19*%
X192275000Y-105937500D03*
%TO.P,R17,2*%
%TO.N,+3V3*%
X192275000Y-104112500D03*
%TD*%
D28*
%TO.P,R22,1*%
%TO.N,Net-(J7-Pad1)*%
X130127500Y-136600000D03*
%TO.P,R22,2*%
%TO.N,NoEffect*%
X131952500Y-136600000D03*
%TD*%
D23*
%TO.P,R45,1*%
%TO.N,Net-(R20-Pad2)*%
X155040000Y-140732500D03*
%TO.P,R45,2*%
%TO.N,A_IN_A*%
X155040000Y-138907500D03*
%TD*%
D20*
%TO.P,J13,1,Pin_1*%
%TO.N,GPIO21*%
X173400000Y-107600000D03*
D21*
%TO.P,J13,2,Pin_2*%
X175940000Y-107600000D03*
%TO.P,J13,3,Pin_3*%
%TO.N,GPIO19*%
X173400000Y-110140000D03*
%TO.P,J13,4,Pin_4*%
X175940000Y-110140000D03*
%TO.P,J13,5,Pin_5*%
%TO.N,GPIO18*%
X173400000Y-112680000D03*
%TO.P,J13,6,Pin_6*%
X175940000Y-112680000D03*
%TO.P,J13,7,Pin_7*%
%TO.N,DET_5*%
X173400000Y-115220000D03*
%TO.P,J13,8,Pin_8*%
X175940000Y-115220000D03*
%TO.P,J13,9,Pin_9*%
%TO.N,5V*%
X173400000Y-117760000D03*
%TO.P,J13,10,Pin_10*%
X175940000Y-117760000D03*
%TO.P,J13,11,Pin_11*%
%TO.N,GND*%
X173400000Y-120300000D03*
%TO.P,J13,12,Pin_12*%
X175940000Y-120300000D03*
%TO.P,J13,13,Pin_13*%
%TO.N,-12V*%
X173400000Y-122840000D03*
%TO.P,J13,14,Pin_14*%
X175940000Y-122840000D03*
%TO.P,J13,15,Pin_15*%
%TO.N,+12V*%
X173400000Y-125380000D03*
%TO.P,J13,16,Pin_16*%
X175940000Y-125380000D03*
%TO.P,J13,17,Pin_17*%
%TO.N,GND*%
X173400000Y-127920000D03*
%TO.P,J13,18,Pin_18*%
X175940000Y-127920000D03*
%TO.P,J13,19,Pin_19*%
%TO.N,A_IN_5*%
X173400000Y-130460000D03*
%TO.P,J13,20,Pin_20*%
X175940000Y-130460000D03*
%TO.P,J13,21,Pin_21*%
%TO.N,A_OUT_R_5*%
X173400000Y-133000000D03*
%TO.P,J13,22,Pin_22*%
X175940000Y-133000000D03*
%TO.P,J13,23,Pin_23*%
%TO.N,A_OUT_L_5*%
X173400000Y-135540000D03*
%TO.P,J13,24,Pin_24*%
X175940000Y-135540000D03*
%TD*%
D20*
%TO.P,J10,1,Pin_1*%
%TO.N,Net-(J10-Pad1)*%
X124120000Y-110940000D03*
D21*
%TO.P,J10,2,Pin_2*%
%TO.N,Net-(J10-Pad2)*%
X124120000Y-113480000D03*
%TO.P,J10,3,Pin_3*%
%TO.N,Net-(J10-Pad3)*%
X124120000Y-116020000D03*
%TO.P,J10,4,Pin_4*%
%TO.N,A_OUT_L_4*%
X124120000Y-118560000D03*
%TD*%
D40*
%TO.N,GND*%
X187732920Y-134260040D03*
X207700000Y-111100000D03*
X203094840Y-130071580D03*
X155410000Y-108120000D03*
X193333620Y-111651500D03*
X148680000Y-103630000D03*
X156230000Y-112700000D03*
X181361060Y-130312420D03*
X198500000Y-117950000D03*
X195900000Y-133560000D03*
X183230000Y-105400000D03*
X157360000Y-116697700D03*
X196460360Y-119388340D03*
X198400000Y-121316140D03*
X188811274Y-119269454D03*
X173180000Y-103750000D03*
X204855060Y-125108420D03*
X191969640Y-123109440D03*
%TO.N,+1V1*%
X195712383Y-114526444D03*
X194474080Y-124674080D03*
X196594354Y-125332566D03*
%TO.N,+3V3*%
X209050000Y-117700000D03*
X190875000Y-118150000D03*
X203725000Y-112555800D03*
X209075000Y-120425000D03*
X191375000Y-113297369D03*
%TO.N,Net-(D6-Pad2)*%
X197030000Y-132990000D03*
X194790000Y-131300000D03*
%TO.N,Net-(J2-Pad1)*%
X192500000Y-134425000D03*
X192469082Y-137102263D03*
%TO.N,SWCLK*%
X194060952Y-117018991D03*
%TO.N,SWDIO*%
X194148933Y-114247380D03*
%TO.N,GPIO24*%
X184467670Y-133874741D03*
X189400000Y-120077170D03*
%TO.N,QSPI_SS*%
X200610720Y-123386300D03*
X200194831Y-115289393D03*
%TO.N,GPIO2*%
X212740000Y-127000000D03*
X221650000Y-126830000D03*
X201640000Y-121660000D03*
%TO.N,GPIO3*%
X217190000Y-119390000D03*
X261450000Y-118930000D03*
%TO.N,GPIO5*%
X213710000Y-117180000D03*
X245320000Y-114080000D03*
%TO.N,GPIO19*%
X186282802Y-112907802D03*
X182454380Y-112907802D03*
X189050000Y-105075000D03*
%TO.N,GPIO21*%
X180575000Y-114575700D03*
X188165293Y-115159707D03*
%TO.N,QSPI_SCLK*%
X197857360Y-131923240D03*
X198053566Y-124879194D03*
%TO.N,QSPI_SD0*%
X198868906Y-125694534D03*
X198263760Y-133584400D03*
%TO.N,5V*%
X168360000Y-103700000D03*
X222930000Y-100310000D03*
X234160000Y-100340000D03*
X170410000Y-101610000D03*
X258850000Y-113750000D03*
X222885000Y-139065000D03*
%TO.N,GPIO10*%
X211520000Y-121400000D03*
X224200000Y-124340000D03*
X221930700Y-124320000D03*
X211500000Y-111180000D03*
X234910000Y-115620000D03*
%TO.N,DET_1*%
X236080000Y-116580000D03*
%TO.N,-12V*%
X167030000Y-121520000D03*
X233370000Y-104730000D03*
X240110000Y-124380000D03*
X170080000Y-105850000D03*
X156780000Y-111640000D03*
%TO.N,+12V*%
X165900000Y-124420000D03*
X242290000Y-106120000D03*
X168600000Y-114350000D03*
X160590000Y-129240000D03*
X242740000Y-124280000D03*
X230120000Y-101630000D03*
X168500000Y-124320000D03*
X242160000Y-101760000D03*
X198628000Y-100330000D03*
%TO.N,A_OUT_L_1*%
X153330000Y-102150000D03*
X145730000Y-102660000D03*
X136500000Y-118360000D03*
X133140000Y-104020000D03*
X136560000Y-120550000D03*
X133190000Y-108990000D03*
%TO.N,GPIO9*%
X205275500Y-115925428D03*
X235820000Y-111590000D03*
X213500000Y-112400000D03*
X212530000Y-111000000D03*
X207483248Y-113231500D03*
%TO.N,GPIO7*%
X236150000Y-113860000D03*
%TO.N,GPIO6*%
X243834300Y-121720000D03*
X203675500Y-118650000D03*
X220450000Y-121980000D03*
X243790000Y-112940000D03*
X212980000Y-122250000D03*
%TO.N,DET_2*%
X213490563Y-129140563D03*
X212400000Y-113684300D03*
X208374300Y-113684300D03*
X221930700Y-129610000D03*
X205240000Y-116924300D03*
X247800000Y-129260000D03*
%TO.N,A_OUT_L_2*%
X177140000Y-103520000D03*
X177990000Y-100004300D03*
X133330000Y-99580000D03*
%TO.N,GPIO13*%
X206795700Y-110180917D03*
X210400000Y-110070000D03*
%TO.N,DET_3*%
X206260000Y-114325500D03*
X202220669Y-116198711D03*
X198863260Y-116985440D03*
X228040000Y-113180000D03*
X204140000Y-115850000D03*
%TO.N,A_OUT_L_3*%
X158550000Y-98465700D03*
X236580000Y-107620000D03*
X127010000Y-110670000D03*
X200860000Y-99450000D03*
X144150000Y-103070000D03*
%TO.N,Net-(J7-Pad1)*%
X128900000Y-136640000D03*
%TO.N,Net-(J8-Pad2)*%
X127190000Y-133430000D03*
X149310000Y-137600000D03*
X129540000Y-139000000D03*
%TO.N,Net-(J8-Pad3)*%
X152533913Y-121046300D03*
X129320000Y-112480000D03*
%TO.N,Net-(J9-Pad1)*%
X131530000Y-119540000D03*
X133020000Y-118130000D03*
%TO.N,Net-(J9-Pad3)*%
X153100000Y-121935700D03*
X148251847Y-121935430D03*
X144260000Y-124080000D03*
%TO.N,Net-(J10-Pad1)*%
X128525700Y-123700000D03*
%TO.N,Net-(J10-Pad2)*%
X152960000Y-124050000D03*
X130680000Y-114890000D03*
%TO.N,Net-(J10-Pad3)*%
X133130000Y-130270000D03*
X133543780Y-134327083D03*
%TO.N,A_OUT_L_4*%
X126365000Y-129540000D03*
X126365000Y-125730000D03*
%TO.N,Net-(J11-Pad1)*%
X130170000Y-122080000D03*
X132230000Y-117390000D03*
%TO.N,Net-(J11-Pad2)*%
X146860000Y-137030000D03*
X150760000Y-136350000D03*
X138960000Y-118490000D03*
X139010000Y-120390000D03*
%TO.N,Net-(J11-Pad3)*%
X138012571Y-120454350D03*
X137961796Y-118540929D03*
%TO.N,A_OUT_L_5*%
X148190000Y-141604500D03*
%TO.N,GPIO17*%
X197641982Y-105343266D03*
%TO.N,DET_4*%
X188513576Y-110480000D03*
%TO.N,DET_5*%
X182575000Y-113900000D03*
%TO.N,PI_DAC_L*%
X156490000Y-114690000D03*
%TO.N,PI_DAC_R*%
X147180000Y-102850000D03*
X151850000Y-103700000D03*
%TO.N,Net-(J17-Pad3)*%
X150580000Y-104200000D03*
%TO.N,DET_A*%
X189650000Y-117906301D03*
%TO.N,A_IN_A*%
X154570000Y-134270000D03*
%TO.N,A_OUT_R_A*%
X164300000Y-133210000D03*
%TO.N,A_OUT_L_A*%
X166870000Y-123744300D03*
X157190000Y-121090000D03*
X163430000Y-123940000D03*
X155159385Y-121060594D03*
%TO.N,DET_B*%
X162864300Y-119020000D03*
X158070000Y-119020000D03*
X190407297Y-119517297D03*
%TO.N,A_IN_B*%
X135320000Y-139930000D03*
X135830000Y-138000000D03*
X136250000Y-135850000D03*
X153162000Y-126492000D03*
X147066000Y-126492000D03*
%TO.N,A_OUT_R_B*%
X140475700Y-132430000D03*
%TO.N,A_OUT_L_B*%
X138870000Y-136840000D03*
%TO.N,GPIO14*%
X200022661Y-110747200D03*
X202100000Y-110700000D03*
%TO.N,Net-(R21-Pad2)*%
X137700000Y-141260000D03*
X153570000Y-137930000D03*
X153340000Y-140950000D03*
X144270000Y-141230000D03*
%TO.N,NoEffect*%
X147220000Y-132330000D03*
X137023058Y-132700048D03*
%TO.N,Net-(R35-Pad2)*%
X137580000Y-133530000D03*
X155800000Y-115930000D03*
X151250000Y-113650000D03*
X141340000Y-133340000D03*
%TO.N,NO_OUT_R*%
X152880000Y-134830000D03*
X164090000Y-134390000D03*
%TO.N,GPIO15*%
X212834300Y-108910000D03*
X199678053Y-105550000D03*
X211980000Y-107100000D03*
%TO.N,GPIO18*%
X182480699Y-111908646D03*
X179750000Y-112050000D03*
%TD*%
D41*
%TO.N,GND*%
X192081400Y-107760220D02*
X192081400Y-109802460D01*
D42*
X197476360Y-118372340D02*
X196460360Y-119388340D01*
D43*
X145530000Y-127790000D02*
X142990000Y-127790000D01*
X181583100Y-113495540D02*
X181550080Y-113462520D01*
D41*
X191969640Y-123109440D02*
X190554860Y-123777460D01*
D43*
X195900000Y-133560000D02*
X195053340Y-133560000D01*
X194602760Y-133109420D02*
X194602760Y-134796920D01*
D44*
X151480489Y-101924511D02*
X152655000Y-100750000D01*
D42*
X152960000Y-115305000D02*
X152960000Y-110190000D01*
X156092500Y-129750000D02*
X155772942Y-129750000D01*
D41*
X190554860Y-123777460D02*
X190534540Y-123757140D01*
D43*
X188740260Y-135684420D02*
X188740260Y-135267380D01*
D42*
X194602760Y-133109420D02*
X193500260Y-133109420D01*
D41*
X189650540Y-124641140D02*
X190534540Y-123757140D01*
D43*
X173400000Y-127920000D02*
X172045689Y-126565689D01*
X196401940Y-131310240D02*
X194602760Y-133109420D01*
D41*
X204839820Y-125093180D02*
X204855060Y-125108420D01*
D42*
X154829280Y-130693662D02*
X154829280Y-132019280D01*
X155772942Y-129750000D02*
X154829280Y-130693662D01*
D45*
X183230000Y-105400000D02*
X174830000Y-105400000D01*
D43*
X181666010Y-115392500D02*
X181666010Y-117437200D01*
D42*
X157360000Y-119265601D02*
X158394399Y-120300000D01*
D43*
X194602760Y-134796920D02*
X195490260Y-135684420D01*
X181647330Y-121351620D02*
X181647330Y-119365100D01*
D42*
X155512942Y-112470000D02*
X156000000Y-112470000D01*
D43*
X159310000Y-127920000D02*
X161850000Y-127920000D01*
D42*
X197476360Y-115984740D02*
X197476360Y-118372340D01*
D43*
X181732960Y-109136334D02*
X183663775Y-107205519D01*
D42*
X156000000Y-112470000D02*
X156230000Y-112700000D01*
D43*
X183663775Y-107205519D02*
X185499279Y-107205519D01*
D45*
X174830000Y-105400000D02*
X173180000Y-103750000D01*
D42*
X158394399Y-120300000D02*
X159310000Y-120300000D01*
X154225000Y-108925000D02*
X154225000Y-108310000D01*
X155100000Y-132290000D02*
X156092500Y-132290000D01*
D43*
X172045689Y-121654311D02*
X173400000Y-120300000D01*
X198500000Y-117950000D02*
X197898700Y-117950000D01*
D42*
X152955000Y-115310000D02*
X152960000Y-115305000D01*
X206650000Y-124350000D02*
X205557140Y-124350000D01*
X156092500Y-132290000D02*
X158139425Y-132290000D01*
D43*
X190965260Y-135684420D02*
X193665260Y-135684420D01*
X181680960Y-119439840D02*
X176800160Y-119439840D01*
D44*
X150385489Y-101924511D02*
X151480489Y-101924511D01*
D41*
X192088940Y-109810000D02*
X192088940Y-110406820D01*
D42*
X152955000Y-115027942D02*
X155512942Y-112470000D01*
D43*
X193333620Y-112977460D02*
X193399580Y-113043420D01*
D41*
X198400000Y-121316140D02*
X198388160Y-121316140D01*
D43*
X181666250Y-119431100D02*
X181666250Y-117437440D01*
X185499279Y-107205519D02*
X186854080Y-108560320D01*
D41*
X192088940Y-110406820D02*
X193333620Y-111651500D01*
D42*
X162975711Y-129045711D02*
X161850000Y-127920000D01*
D45*
X183230000Y-105400000D02*
X183230000Y-106771744D01*
D43*
X196401940Y-131310240D02*
X196401940Y-129939580D01*
D41*
X188811274Y-119269454D02*
X188811274Y-117061274D01*
D42*
X154829280Y-132019280D02*
X155100000Y-132290000D01*
D43*
X181400000Y-130351360D02*
X181361060Y-130312420D01*
D45*
X183230000Y-106771744D02*
X183663775Y-107205519D01*
D42*
X193500260Y-133109420D02*
X193415260Y-133024420D01*
X205557140Y-124350000D02*
X204839820Y-123632680D01*
D41*
X188657400Y-127053980D02*
X189559180Y-127955760D01*
D42*
X162316286Y-131585711D02*
X162975711Y-130926286D01*
D43*
X175940000Y-127920000D02*
X173400000Y-127920000D01*
X181086740Y-134589780D02*
X181086740Y-132588260D01*
D42*
X157360000Y-116697700D02*
X157360000Y-119265601D01*
D43*
X172045689Y-126565689D02*
X172045689Y-121654311D01*
D42*
X152955000Y-115310000D02*
X152955000Y-115027942D01*
D43*
X181086740Y-132588260D02*
X181400000Y-132275000D01*
X203094840Y-130071580D02*
X204786480Y-130071580D01*
X197898700Y-117950000D02*
X196460360Y-119388340D01*
X188740260Y-133996920D02*
X189627760Y-133109420D01*
X181583100Y-115507220D02*
X181583100Y-113495540D01*
X181550080Y-113462520D02*
X181550080Y-111417820D01*
X159310000Y-120300000D02*
X161850000Y-120300000D01*
X188740260Y-135267380D02*
X187732920Y-134260040D01*
D42*
X158843714Y-131585711D02*
X162316286Y-131585711D01*
D43*
X196528940Y-129812580D02*
X197276520Y-129812580D01*
D42*
X162975711Y-130926286D02*
X162975711Y-129045711D01*
D41*
X189650540Y-125009360D02*
X188657400Y-126002500D01*
D42*
X158139425Y-132290000D02*
X158843714Y-131585711D01*
D43*
X193333620Y-111651500D02*
X193333620Y-112977460D01*
X196401940Y-129939580D02*
X196528940Y-129812580D01*
X181687500Y-121419920D02*
X181687500Y-123400000D01*
X188740260Y-135684420D02*
X188740260Y-133996920D01*
X181740580Y-115390140D02*
X181733200Y-115382760D01*
D44*
X155410000Y-108120000D02*
X154415000Y-108120000D01*
D41*
X189650540Y-124641140D02*
X189650540Y-125009360D01*
X204839820Y-123632680D02*
X204839820Y-125093180D01*
X198388160Y-121316140D02*
X196460360Y-119388340D01*
D44*
X148680000Y-103630000D02*
X150385489Y-101924511D01*
D43*
X142990000Y-120170000D02*
X145530000Y-120170000D01*
X181400000Y-132275000D02*
X181400000Y-130351360D01*
X190965260Y-135684420D02*
X188740260Y-135684420D01*
D41*
X188657400Y-126002500D02*
X188657400Y-127053980D01*
X192081400Y-109802460D02*
X192088940Y-109810000D01*
D43*
X195053340Y-133560000D02*
X194602760Y-133109420D01*
X197276520Y-129812580D02*
X198865740Y-128223360D01*
D42*
X152960000Y-110190000D02*
X154225000Y-108925000D01*
D44*
X154415000Y-108120000D02*
X154225000Y-108310000D01*
D43*
X176800160Y-119439840D02*
X175940000Y-120300000D01*
D41*
X188811274Y-117061274D02*
X188700000Y-116950000D01*
D43*
X207700000Y-110168000D02*
X208515200Y-109352800D01*
X181732960Y-111344160D02*
X181732960Y-109136334D01*
X207700000Y-111100000D02*
X207700000Y-110168000D01*
X195490260Y-135684420D02*
X193665260Y-135684420D01*
D42*
%TO.N,XI*%
X197144204Y-115165680D02*
X197177816Y-115165680D01*
X199026111Y-108161571D02*
X199026601Y-108161081D01*
X198450000Y-110975000D02*
X199026111Y-110398889D01*
X198450000Y-113892800D02*
X198450000Y-110975000D01*
X197177816Y-115165680D02*
X197177816Y-114272184D01*
X198123800Y-114219000D02*
X198450000Y-113892800D01*
X197069960Y-115239924D02*
X197144204Y-115165680D01*
X199026111Y-110398889D02*
X199026111Y-108161571D01*
X199026601Y-108161081D02*
X198902800Y-108037280D01*
X197069960Y-115984740D02*
X197069960Y-115239924D01*
X198902800Y-108037280D02*
X198050400Y-108037280D01*
X197231000Y-114219000D02*
X198123800Y-114219000D01*
X194580541Y-107161079D02*
X193981400Y-107760220D01*
X197177816Y-114272184D02*
X197231000Y-114219000D01*
X197174199Y-107161079D02*
X194580541Y-107161079D01*
X198050400Y-108037280D02*
X197174199Y-107161079D01*
D41*
%TO.N,Net-(C1-Pad1)*%
X189559180Y-129855760D02*
X186589900Y-129855760D01*
X186000000Y-134591420D02*
X185574920Y-135016500D01*
X186000000Y-132275000D02*
X186000000Y-134591420D01*
X186440960Y-130004700D02*
X186440960Y-132321120D01*
X186589900Y-129855760D02*
X186440960Y-130004700D01*
D42*
%TO.N,Net-(C3-Pad1)*%
X197456040Y-111605780D02*
X197456040Y-111242920D01*
X193988940Y-109810000D02*
X195677680Y-109810000D01*
X197456040Y-111242920D02*
X195850400Y-109637280D01*
X195677680Y-109810000D02*
X195850400Y-109637280D01*
%TO.N,+1V1*%
X196663560Y-125263360D02*
X196594354Y-125332566D01*
X196594354Y-127847166D02*
X196528940Y-127912580D01*
X196663560Y-122791940D02*
X196663560Y-125263360D01*
X196594354Y-125332566D02*
X196594354Y-127847166D01*
X194631560Y-124516600D02*
X194474080Y-124674080D01*
X195850760Y-114664821D02*
X195712383Y-114526444D01*
X195850760Y-115984740D02*
X195850760Y-114664821D01*
X194631560Y-122791940D02*
X194631560Y-124516600D01*
D46*
%TO.N,+3V3*%
X196257160Y-115984740D02*
X196257160Y-117367840D01*
X199143259Y-121963881D02*
X199143259Y-118438399D01*
D42*
X207187500Y-118625000D02*
X208212500Y-117600000D01*
D41*
X192722041Y-123470593D02*
X192722041Y-122748287D01*
D46*
X191838304Y-118372340D02*
X191370482Y-117904518D01*
X191977260Y-122029940D02*
X191454670Y-122552530D01*
X193881112Y-118243217D02*
X193840525Y-118243217D01*
X193731741Y-122071239D02*
X193098059Y-122071239D01*
D41*
X202675740Y-135423360D02*
X203633320Y-135423360D01*
D46*
X194225160Y-122137298D02*
X194225160Y-122791940D01*
D42*
X200863940Y-104637500D02*
X200675000Y-104637500D01*
D46*
X195784701Y-122071239D02*
X194453761Y-122071239D01*
D41*
X203633320Y-135423360D02*
X204814420Y-134242260D01*
X204814420Y-134242260D02*
X204814420Y-131999520D01*
X192343020Y-124399760D02*
X192343020Y-123849614D01*
D46*
X194650000Y-117474329D02*
X194437164Y-117687164D01*
D41*
X192343020Y-123849614D02*
X192722041Y-123470593D01*
D46*
X195958118Y-122029940D02*
X195850760Y-122137298D01*
D41*
X205891830Y-127736490D02*
X204799180Y-126643840D01*
X203282800Y-123975660D02*
X202939820Y-123632680D01*
X191704043Y-122357039D02*
X191616851Y-122444231D01*
D46*
X189673850Y-122717830D02*
X188634540Y-123757140D01*
X199209318Y-122029940D02*
X199143259Y-121963881D01*
D42*
X204787500Y-118625000D02*
X207187500Y-118625000D01*
D47*
X200473560Y-122029940D02*
X202076300Y-123632680D01*
D41*
X203282800Y-125367500D02*
X203522840Y-125367500D01*
D46*
X195850760Y-122791940D02*
X195850760Y-122137298D01*
D47*
X196257160Y-115984740D02*
X196257160Y-115020037D01*
D46*
X196364518Y-122029940D02*
X196257160Y-122137298D01*
D42*
X204861780Y-121575720D02*
X204787500Y-121650000D01*
D41*
X205891830Y-130922110D02*
X205891830Y-127736490D01*
D46*
X193098059Y-122071239D02*
X193056760Y-122029940D01*
D42*
X202650000Y-112462500D02*
X203631700Y-112462500D01*
D47*
X202939820Y-123632680D02*
X202939820Y-123497680D01*
D41*
X191616851Y-122444231D02*
X191663841Y-122397241D01*
D42*
X201650720Y-105424280D02*
X200863940Y-104637500D01*
D43*
X186416680Y-125975000D02*
X188634540Y-123757140D01*
D46*
X194291219Y-122071239D02*
X194225160Y-122137298D01*
D42*
X192650000Y-104487500D02*
X192275000Y-104112500D01*
D47*
X202939820Y-123497680D02*
X204787500Y-121650000D01*
D46*
X193056760Y-122029940D02*
X191977260Y-122029940D01*
D43*
X183700000Y-132275000D02*
X183700000Y-125975000D01*
D41*
X192330793Y-122357039D02*
X191704043Y-122357039D01*
D46*
X193840525Y-118243217D02*
X193711402Y-118372340D01*
X199209318Y-118372340D02*
X199863960Y-118372340D01*
X196257160Y-122137298D02*
X196257160Y-122791940D01*
D41*
X192722041Y-122748287D02*
X192330793Y-122357039D01*
D42*
X206650000Y-122450000D02*
X207236780Y-121863220D01*
D46*
X191370482Y-117904518D02*
X190600000Y-117134036D01*
D47*
X196257160Y-115020037D02*
X196413984Y-114863213D01*
D46*
X194453761Y-117703761D02*
X194453761Y-122071239D01*
D42*
X202775711Y-107925711D02*
X201650720Y-106800720D01*
X198700000Y-104487500D02*
X198850000Y-104637500D01*
D46*
X190600000Y-117134036D02*
X190600000Y-116950000D01*
X199143259Y-118438399D02*
X199209318Y-118372340D01*
D41*
X203282800Y-125367500D02*
X203282800Y-123975660D01*
D42*
X208212500Y-120600000D02*
X207236780Y-121575720D01*
D41*
X203522840Y-125367500D02*
X204799180Y-126643840D01*
D47*
X202076300Y-123632680D02*
X202939820Y-123632680D01*
X199863960Y-122029940D02*
X200473560Y-122029940D01*
X196413984Y-114863213D02*
X196413984Y-114157824D01*
D42*
X190875000Y-118150000D02*
X191125000Y-118150000D01*
X208312500Y-117700000D02*
X208212500Y-117600000D01*
D46*
X194437164Y-117687164D02*
X193881112Y-118243217D01*
D42*
X189877631Y-111800000D02*
X191375000Y-113297369D01*
X209050000Y-117700000D02*
X208312500Y-117700000D01*
D43*
X183700000Y-125975000D02*
X186416680Y-125975000D01*
D46*
X194437164Y-117687164D02*
X194453761Y-117703761D01*
D44*
X190275000Y-104112500D02*
X190250000Y-104087500D01*
D42*
X202650000Y-112462500D02*
X202775711Y-112336789D01*
X208212500Y-117600000D02*
X208212500Y-115625000D01*
X191125000Y-118150000D02*
X191370482Y-117904518D01*
D46*
X194453761Y-122071239D02*
X194291219Y-122071239D01*
X193056760Y-118372340D02*
X193711402Y-118372340D01*
D42*
X207236780Y-121863220D02*
X207236780Y-121575720D01*
D46*
X194291219Y-122071239D02*
X193731741Y-122071239D01*
X190225110Y-122717830D02*
X189673850Y-122717830D01*
D44*
X192275000Y-104112500D02*
X190275000Y-104112500D01*
D46*
X196257160Y-117367840D02*
X196150671Y-117474329D01*
X199863960Y-122029940D02*
X196364518Y-122029940D01*
D42*
X198850000Y-104637500D02*
X200675000Y-104637500D01*
D46*
X195850760Y-122137298D02*
X195784701Y-122071239D01*
X191454670Y-122552530D02*
X190390410Y-122552530D01*
X190390410Y-122552530D02*
X190225110Y-122717830D01*
D42*
X208900000Y-120600000D02*
X209075000Y-120425000D01*
X202775711Y-112336789D02*
X202775711Y-107925711D01*
D46*
X196150671Y-117474329D02*
X194650000Y-117474329D01*
X193056760Y-118372340D02*
X191838304Y-118372340D01*
D42*
X207236780Y-121575720D02*
X204861780Y-121575720D01*
X201650720Y-106800720D02*
X201650720Y-105424280D01*
X208212500Y-120600000D02*
X208900000Y-120600000D01*
D41*
X202682100Y-112450320D02*
X202660500Y-112471920D01*
D46*
X196364518Y-122029940D02*
X195958118Y-122029940D01*
D42*
X203631700Y-112462500D02*
X203725000Y-112555800D01*
X198700000Y-104487500D02*
X192650000Y-104487500D01*
D41*
X204814420Y-131999520D02*
X205891830Y-130922110D01*
D47*
X196413984Y-114157824D02*
X195299580Y-113043420D01*
D42*
%TO.N,Net-(C9-Pad1)*%
X192120760Y-126002500D02*
X192343020Y-126224760D01*
X193818760Y-124380696D02*
X193818760Y-122791940D01*
X190557400Y-126002500D02*
X192120760Y-126002500D01*
X192343020Y-125856436D02*
X193818760Y-124380696D01*
X192343020Y-126224760D02*
X192343020Y-125856436D01*
%TO.N,Net-(D1-Pad2)*%
X185172620Y-115468900D02*
X183569880Y-115468900D01*
%TO.N,Net-(D2-Pad2)*%
X185142470Y-117412200D02*
X185147550Y-117417280D01*
X183541010Y-117412200D02*
X185142470Y-117412200D01*
%TO.N,Net-(D3-Pad2)*%
X185150090Y-119431100D02*
X183541250Y-119431100D01*
%TO.N,Net-(D4-Pad2)*%
X183548630Y-121425000D02*
X185151370Y-121425000D01*
%TO.N,Net-(D5-Pad2)*%
X183562500Y-123400000D02*
X185162500Y-123400000D01*
D44*
%TO.N,Net-(D6-Pad2)*%
X189810000Y-130890000D02*
X190820000Y-130890000D01*
X195420240Y-130669760D02*
X194790000Y-131300000D01*
X195420240Y-128960240D02*
X195420240Y-130669760D01*
X197030000Y-132990000D02*
X197030000Y-133291986D01*
X191667747Y-128960240D02*
X195420240Y-128960240D01*
X201290000Y-137490000D02*
X202520000Y-138720000D01*
X185509018Y-137750598D02*
X185574920Y-137816500D01*
X197539249Y-133801235D02*
X197539249Y-135567941D01*
X186774440Y-133925560D02*
X189810000Y-130890000D01*
X186473500Y-137816500D02*
X186774440Y-137515560D01*
X199111308Y-137140000D02*
X201290000Y-137140000D01*
X185509018Y-136919098D02*
X185509018Y-137750598D01*
X185574920Y-137816500D02*
X186473500Y-137816500D01*
X201290000Y-137140000D02*
X201290000Y-137490000D01*
X197539249Y-135567941D02*
X199111308Y-137140000D01*
X190820000Y-129807987D02*
X191667747Y-128960240D01*
X186774440Y-137515560D02*
X186774440Y-133925560D01*
X185509018Y-136919098D02*
X183179700Y-134589780D01*
X190820000Y-130890000D02*
X190820000Y-129807987D01*
X197030000Y-133291986D02*
X197539249Y-133801235D01*
D42*
%TO.N,Net-(J2-Pad1)*%
X198490000Y-139510000D02*
X198490000Y-138050000D01*
X198825711Y-139845711D02*
X198490000Y-139510000D01*
X205060000Y-138720000D02*
X203934289Y-139845711D01*
X190815260Y-133024420D02*
X190815260Y-134140260D01*
X203934289Y-139845711D02*
X198825711Y-139845711D01*
X190815260Y-134140260D02*
X191100000Y-134425000D01*
X198490000Y-138050000D02*
X197542263Y-137102263D01*
X191100000Y-134425000D02*
X192500000Y-134425000D01*
X197542263Y-137102263D02*
X192469082Y-137102263D01*
%TO.N,SWCLK*%
X195309344Y-117018991D02*
X194060952Y-117018991D01*
X195407367Y-116920968D02*
X195309344Y-117018991D01*
X195444360Y-115984740D02*
X195444360Y-116883975D01*
X195444360Y-116883975D02*
X195407367Y-116920968D01*
%TO.N,SWDIO*%
X195037960Y-115306695D02*
X195037960Y-115136407D01*
X195037960Y-115984740D02*
X195037960Y-115306695D01*
X195037960Y-115136407D02*
X194148933Y-114247380D01*
%TO.N,XO*%
X196791794Y-114095026D02*
X197456040Y-113430780D01*
X196663560Y-115984740D02*
X196663560Y-115147941D01*
X196663560Y-115147941D02*
X196791794Y-115019707D01*
X196791794Y-115019707D02*
X196791794Y-114095026D01*
%TO.N,USB_DP*%
X195502691Y-124097411D02*
X195444360Y-124039080D01*
X194354700Y-127972260D02*
X194354700Y-126591780D01*
X195444360Y-124039080D02*
X195444360Y-122791940D01*
X194354700Y-126591780D02*
X195502691Y-125443789D01*
X195502691Y-125443789D02*
X195502691Y-124097411D01*
%TO.N,USB_DM*%
X195150281Y-125177699D02*
X193658830Y-126669150D01*
X195037960Y-124237182D02*
X195150281Y-124349503D01*
X195150281Y-124349503D02*
X195150281Y-125177699D01*
X195037960Y-122791940D02*
X195037960Y-124237182D01*
X193658830Y-126669150D02*
X192355720Y-127972260D01*
%TO.N,GPIO24*%
X189400000Y-120077170D02*
X189723780Y-120400950D01*
D44*
X183179700Y-136414780D02*
X181086740Y-136414780D01*
D42*
X190479230Y-120400950D02*
X191288640Y-119591540D01*
X182203490Y-135438570D02*
X182203490Y-133826090D01*
X191288640Y-119591540D02*
X193056760Y-119591540D01*
X184263229Y-133670300D02*
X184467670Y-133874741D01*
X182359280Y-133670300D02*
X184263229Y-133670300D01*
X189723780Y-120400950D02*
X190479230Y-120400950D01*
X183179700Y-136414780D02*
X182203490Y-135438570D01*
X182203490Y-133826090D02*
X182359280Y-133670300D01*
%TO.N,Net-(J2-Pad2)*%
X191465260Y-133024420D02*
X191465260Y-130687720D01*
X191465260Y-130687720D02*
X192355720Y-129797260D01*
%TO.N,QSPI_SS*%
X199101960Y-122791940D02*
X202675740Y-126365720D01*
X200016360Y-122791940D02*
X200610720Y-123386300D01*
X202675740Y-126365720D02*
X202675740Y-128223360D01*
X200194831Y-115289393D02*
X200194831Y-114781389D01*
X200194831Y-114781389D02*
X200679300Y-114296920D01*
X202921220Y-128468840D02*
X202675740Y-128223360D01*
X204799180Y-128468840D02*
X202921220Y-128468840D01*
X199101960Y-122791940D02*
X200016360Y-122791940D01*
%TO.N,GPIO2*%
X201650000Y-121650000D02*
X201640000Y-121660000D01*
X202962500Y-121650000D02*
X201650000Y-121650000D01*
X212740000Y-127000000D02*
X221480000Y-127000000D01*
X221480000Y-127000000D02*
X221650000Y-126830000D01*
X202123240Y-120810740D02*
X202962500Y-121650000D01*
X199863960Y-120810740D02*
X202123240Y-120810740D01*
%TO.N,GPIO3*%
X199863960Y-120404340D02*
X206191840Y-120404340D01*
X261450000Y-118930000D02*
X261450000Y-111690000D01*
X217110000Y-119300000D02*
X217190000Y-119380000D01*
X206756520Y-120600000D02*
X208056520Y-119300000D01*
X206387500Y-120600000D02*
X206756520Y-120600000D01*
X261450000Y-111690000D02*
X263145000Y-109995000D01*
X208056520Y-119300000D02*
X217110000Y-119300000D01*
X217190000Y-119380000D02*
X217190000Y-119390000D01*
X206191840Y-120404340D02*
X206387500Y-120600000D01*
%TO.N,Net-(J2-Pad3)*%
X192115260Y-132036700D02*
X194354700Y-129797260D01*
X192115260Y-133024420D02*
X192115260Y-132036700D01*
%TO.N,GPIO5*%
X201224433Y-119646020D02*
X205353980Y-119646020D01*
X211750000Y-117630000D02*
X212090000Y-117290000D01*
X205727640Y-119272360D02*
X206122360Y-119272360D01*
X207783060Y-118578080D02*
X210801920Y-118578080D01*
X206122360Y-119272360D02*
X206360000Y-119034720D01*
X210801920Y-118578080D02*
X210900000Y-118480000D01*
X256520000Y-114080000D02*
X263145000Y-107455000D01*
X201278913Y-119591540D02*
X201224433Y-119646020D01*
X210900000Y-118480000D02*
X211750000Y-117630000D01*
X212200000Y-117180000D02*
X213710000Y-117180000D01*
X207326420Y-119034720D02*
X207783060Y-118578080D01*
X199863960Y-119591540D02*
X201278913Y-119591540D01*
X206360000Y-119034720D02*
X207326420Y-119034720D01*
X205353980Y-119646020D02*
X205727640Y-119272360D01*
X212090000Y-117290000D02*
X212200000Y-117180000D01*
X245320000Y-114080000D02*
X256520000Y-114080000D01*
%TO.N,GPIO19*%
X187938080Y-113548080D02*
X188095770Y-113548080D01*
X187913403Y-112907802D02*
X187913403Y-113523403D01*
X192416438Y-117153140D02*
X193056760Y-117153140D01*
X186282802Y-112907802D02*
X187913403Y-112907802D01*
X175940000Y-110140000D02*
X173400000Y-110140000D01*
X191867480Y-115028840D02*
X192325000Y-115486360D01*
X187913403Y-113523403D02*
X187938080Y-113548080D01*
X189504890Y-114499289D02*
X190034441Y-115028840D01*
X190034441Y-115028840D02*
X191867480Y-115028840D01*
X188095770Y-113548080D02*
X189046979Y-114499289D01*
X189050000Y-105075000D02*
X191412500Y-105075000D01*
X189046979Y-114499289D02*
X189504890Y-114499289D01*
X192325000Y-117061702D02*
X192416438Y-117153140D01*
X191412500Y-105075000D02*
X192275000Y-105937500D01*
X186282802Y-112907802D02*
X182454380Y-112907802D01*
X192325000Y-115486360D02*
X192325000Y-117061702D01*
%TO.N,GPIO21*%
X191983476Y-117965940D02*
X191498080Y-117480544D01*
X180575000Y-108675000D02*
X179500000Y-107600000D01*
X175940000Y-107600000D02*
X173400000Y-107600000D01*
X179500000Y-107600000D02*
X175940000Y-107600000D01*
X191498080Y-117480544D02*
X191498080Y-115951422D01*
X188856297Y-115850711D02*
X188165293Y-115159707D01*
X180575000Y-114575700D02*
X180575000Y-108675000D01*
X191397369Y-115850711D02*
X188856297Y-115850711D01*
X191498080Y-115951422D02*
X191397369Y-115850711D01*
X193056760Y-117965940D02*
X191983476Y-117965940D01*
%TO.N,GPIO26*%
X188778249Y-121104790D02*
X187775720Y-120102261D01*
X187775720Y-118241880D02*
X186983840Y-117450000D01*
X190821607Y-121104790D02*
X188778249Y-121104790D01*
X187775720Y-120102261D02*
X187775720Y-118241880D01*
X191522057Y-120404340D02*
X190821607Y-121104790D01*
X193056760Y-120404340D02*
X191522057Y-120404340D01*
%TO.N,GPIO27*%
X186987500Y-119962500D02*
X186987500Y-119444920D01*
X188482200Y-121457200D02*
X186987500Y-119962500D01*
X190967580Y-121457200D02*
X188482200Y-121457200D01*
X191614040Y-120810740D02*
X190967580Y-121457200D01*
X193056760Y-120810740D02*
X191614040Y-120810740D01*
%TO.N,GPIO28*%
X193056760Y-121217140D02*
X191713100Y-121217140D01*
X191713100Y-121217140D02*
X191121280Y-121808960D01*
X191121280Y-121808960D02*
X191121280Y-121809610D01*
X191121280Y-121809610D02*
X187368490Y-121809610D01*
X187368490Y-121809610D02*
X186983880Y-121425000D01*
%TO.N,GPIO29*%
X186987500Y-123400000D02*
X186987500Y-123212500D01*
X191267050Y-122161530D02*
X191805040Y-121623540D01*
X191805040Y-121623540D02*
X193056760Y-121623540D01*
X186987500Y-123212500D02*
X188038470Y-122161530D01*
X188038470Y-122161530D02*
X191267050Y-122161530D01*
%TO.N,QSPI_SD3*%
X197069960Y-122791940D02*
X197069960Y-124851880D01*
X197069960Y-124851880D02*
X199559530Y-127341450D01*
X201405740Y-132233120D02*
X201405740Y-135423360D01*
X199559530Y-127341450D02*
X199559530Y-130386910D01*
X199559530Y-130386910D02*
X201405740Y-132233120D01*
%TO.N,QSPI_SCLK*%
X200135740Y-134201620D02*
X200135740Y-135423360D01*
X197476360Y-122791940D02*
X197476360Y-124301988D01*
X197476360Y-124301988D02*
X198053566Y-124879194D01*
X197857360Y-131923240D02*
X200135740Y-134201620D01*
%TO.N,QSPI_SD0*%
X198865740Y-134186380D02*
X198865740Y-135423360D01*
X198263760Y-133584400D02*
X198865740Y-134186380D01*
X198868906Y-124693756D02*
X198868906Y-125694534D01*
X197882760Y-123707610D02*
X198868906Y-124693756D01*
X197882760Y-122791940D02*
X197882760Y-123707610D01*
%TO.N,QSPI_SD2*%
X198289160Y-123615628D02*
X200135740Y-125462208D01*
X200135740Y-125462208D02*
X200135740Y-128223360D01*
X198289160Y-122791940D02*
X198289160Y-123615628D01*
%TO.N,QSPI_SD1*%
X201405740Y-126233826D02*
X201405740Y-128223360D01*
X198695560Y-122791940D02*
X198695560Y-123523646D01*
X198695560Y-123523646D02*
X201405740Y-126233826D01*
D45*
%TO.N,5V*%
X170410000Y-101610000D02*
X170939480Y-102139480D01*
X171390000Y-115750000D02*
X173400000Y-117760000D01*
D43*
X234160000Y-100340000D02*
X222960000Y-100340000D01*
X145530000Y-117630000D02*
X142990000Y-117630000D01*
D45*
X171390000Y-104680000D02*
X169340000Y-104680000D01*
X199698020Y-102139480D02*
X204100000Y-97737500D01*
D43*
X254825000Y-117775000D02*
X258850000Y-113750000D01*
X222960000Y-100340000D02*
X222930000Y-100310000D01*
D45*
X170939480Y-102139480D02*
X199698020Y-102139480D01*
X169340000Y-104680000D02*
X168360000Y-103700000D01*
D43*
X159310000Y-117760000D02*
X161850000Y-117760000D01*
D45*
X222885000Y-122665000D02*
X218255000Y-118035000D01*
D43*
X175940000Y-117760000D02*
X173400000Y-117760000D01*
D45*
X171390000Y-104680000D02*
X171390000Y-115750000D01*
D43*
X249155000Y-117775000D02*
X254825000Y-117775000D01*
D45*
X222885000Y-139065000D02*
X222885000Y-122665000D01*
D42*
%TO.N,GPIO10*%
X211520000Y-121745601D02*
X214094399Y-124320000D01*
X204415720Y-115075720D02*
X205838220Y-115075720D01*
X234810000Y-115720000D02*
X234910000Y-115620000D01*
X205838220Y-115075720D02*
X206387500Y-115625000D01*
X200555095Y-116951185D02*
X200555095Y-116880095D01*
X210910000Y-112168080D02*
X210910000Y-111770000D01*
X224200000Y-124340000D02*
X233061997Y-124340000D01*
X234810000Y-122591997D02*
X234810000Y-119590000D01*
X211520000Y-121400000D02*
X211520000Y-121745601D01*
X210910000Y-111770000D02*
X211500000Y-111180000D01*
X233061997Y-124340000D02*
X234810000Y-122591997D01*
X202359470Y-115075720D02*
X204415720Y-115075720D01*
X204415720Y-115075720D02*
X204415720Y-114814280D01*
X207061920Y-112168080D02*
X210910000Y-112168080D01*
X234810000Y-119590000D02*
X234810000Y-115720000D01*
X214094399Y-124320000D02*
X221930700Y-124320000D01*
X204415720Y-114814280D02*
X207061920Y-112168080D01*
X200353140Y-117153140D02*
X200555095Y-116951185D01*
X200555095Y-116880095D02*
X202359470Y-115075720D01*
X199863960Y-117153140D02*
X200353140Y-117153140D01*
%TO.N,GPIO11*%
X211836709Y-105790000D02*
X230610000Y-105790000D01*
X210454289Y-111154289D02*
X209724289Y-110424289D01*
X204280190Y-114287500D02*
X206791979Y-111775711D01*
X230610000Y-105790000D02*
X231744289Y-106924289D01*
X209724289Y-110424289D02*
X209724289Y-107902420D01*
X199863960Y-116746740D02*
X200190760Y-116746740D01*
X200190760Y-116746740D02*
X202650000Y-114287500D01*
X231744289Y-109114289D02*
X232870000Y-110240000D01*
X210454289Y-111775711D02*
X210454289Y-111154289D01*
X209724289Y-107902420D02*
X211836709Y-105790000D01*
X231744289Y-106924289D02*
X231744289Y-109114289D01*
X202650000Y-114287500D02*
X204280190Y-114287500D01*
X206791979Y-111775711D02*
X210454289Y-111775711D01*
%TO.N,DET_1*%
X211850000Y-118930000D02*
X212450000Y-118330000D01*
X233995711Y-115044289D02*
X233995711Y-116405711D01*
X205907240Y-119624280D02*
X207234550Y-119624280D01*
X233780711Y-116620711D02*
X215339289Y-116620711D01*
X207234550Y-119624280D02*
X207928830Y-118930000D01*
X235720000Y-114740000D02*
X234300000Y-114740000D01*
X235720000Y-116220000D02*
X235720000Y-114740000D01*
X212450000Y-118330000D02*
X212900000Y-118330000D01*
X236080000Y-116580000D02*
X235720000Y-116220000D01*
X233995711Y-116405711D02*
X233780711Y-116620711D01*
X199863960Y-119997940D02*
X205533580Y-119997940D01*
X207928830Y-118930000D02*
X211850000Y-118930000D01*
X205533580Y-119997940D02*
X205907240Y-119624280D01*
X234300000Y-114740000D02*
X233995711Y-115044289D01*
X215339289Y-116620711D02*
X213630000Y-118330000D01*
X213630000Y-118330000D02*
X212900000Y-118330000D01*
D43*
%TO.N,-12V*%
X145530000Y-122710000D02*
X142990000Y-122710000D01*
D45*
X170070000Y-105860000D02*
X170080000Y-105850000D01*
D42*
X149167500Y-131020000D02*
X148731789Y-131455711D01*
D43*
X175940000Y-122840000D02*
X173400000Y-122840000D01*
D45*
X167030000Y-105860000D02*
X167030000Y-121520000D01*
D42*
X141864289Y-130796286D02*
X141864289Y-123835711D01*
D45*
X239600000Y-104730000D02*
X240250000Y-105380000D01*
D44*
X157150000Y-113960000D02*
X157150000Y-112010000D01*
D45*
X240250000Y-124240000D02*
X240110000Y-124380000D01*
D42*
X141864289Y-123835711D02*
X142990000Y-122710000D01*
D44*
X157150000Y-112010000D02*
X156780000Y-111640000D01*
D45*
X240250000Y-105380000D02*
X240250000Y-124240000D01*
D42*
X148731789Y-131455711D02*
X142523714Y-131455711D01*
D45*
X233370000Y-104730000D02*
X239600000Y-104730000D01*
D44*
X155569511Y-113965489D02*
X157144511Y-113965489D01*
D45*
X167030000Y-105860000D02*
X170070000Y-105860000D01*
D42*
X142523714Y-131455711D02*
X141864289Y-130796286D01*
D44*
X157144511Y-113965489D02*
X157150000Y-113960000D01*
X154225000Y-115310000D02*
X155569511Y-113965489D01*
D45*
%TO.N,+12V*%
X184192500Y-100330000D02*
X181600000Y-97737500D01*
D42*
X150219280Y-103452240D02*
X150801520Y-102870000D01*
X160620000Y-102870000D02*
X165900000Y-108150000D01*
D45*
X168600000Y-124220000D02*
X168500000Y-124320000D01*
X242290000Y-123830000D02*
X242740000Y-124280000D01*
X230120000Y-101630000D02*
X242030000Y-101630000D01*
X242030000Y-101630000D02*
X242160000Y-101760000D01*
D42*
X150415000Y-108310000D02*
X148569280Y-106464280D01*
X157158003Y-131020000D02*
X158938003Y-129240000D01*
D43*
X175940000Y-125380000D02*
X173400000Y-125380000D01*
D42*
X156092500Y-131020000D02*
X157158003Y-131020000D01*
X165900000Y-108150000D02*
X165900000Y-124420000D01*
D45*
X242290000Y-106120000D02*
X242290000Y-123830000D01*
D42*
X150801520Y-102870000D02*
X160620000Y-102870000D01*
X148569280Y-105102240D02*
X150219280Y-103452240D01*
D45*
X198628000Y-100330000D02*
X184192500Y-100330000D01*
D42*
X158938003Y-129240000D02*
X160590000Y-129240000D01*
D45*
X168600000Y-114350000D02*
X168600000Y-124220000D01*
D42*
X148569280Y-106464280D02*
X148569280Y-105102240D01*
D43*
X142990000Y-125250000D02*
X145530000Y-125250000D01*
D42*
%TO.N,A_OUT_L_1*%
X267720000Y-105010000D02*
X267720000Y-133360000D01*
X136500000Y-113498003D02*
X134787708Y-111785711D01*
X220610000Y-102670000D02*
X220650000Y-102630000D01*
X136500000Y-118360000D02*
X136500000Y-113498003D01*
X220650000Y-102630000D02*
X265340000Y-102630000D01*
X134600000Y-128120000D02*
X133484289Y-127004289D01*
X134135711Y-111785711D02*
X133190000Y-110840000D01*
X133484289Y-120895711D02*
X133830000Y-120550000D01*
X144370000Y-104020000D02*
X145730000Y-102660000D01*
X265340000Y-102630000D02*
X267720000Y-105010000D01*
X133140000Y-104020000D02*
X144370000Y-104020000D01*
X134787708Y-111785711D02*
X134135711Y-111785711D01*
X160397690Y-102150000D02*
X161017690Y-102770000D01*
X220510000Y-102770000D02*
X220650000Y-102630000D01*
X133830000Y-120550000D02*
X136560000Y-120550000D01*
X161017690Y-102770000D02*
X220510000Y-102770000D01*
X220560000Y-102670000D02*
X220610000Y-102670000D01*
X133190000Y-110840000D02*
X133190000Y-108990000D01*
X153330000Y-102150000D02*
X160397690Y-102150000D01*
X133484289Y-123625711D02*
X133484289Y-120895711D01*
X267720000Y-133360000D02*
X265685000Y-135395000D01*
X133484289Y-127004289D02*
X133484289Y-123625711D01*
%TO.N,GPIO9*%
X207706159Y-113008589D02*
X212771411Y-113008589D01*
X229210000Y-111520000D02*
X229210000Y-111540000D01*
X213470000Y-111000000D02*
X215270000Y-109200000D01*
X202263060Y-116873080D02*
X204200000Y-116873080D01*
X204327848Y-116873080D02*
X205275500Y-115925428D01*
X213380000Y-112400000D02*
X213500000Y-112400000D01*
X213130000Y-112650000D02*
X213380000Y-112400000D01*
X229210000Y-111540000D02*
X235540000Y-111540000D01*
X207483248Y-113231500D02*
X207706159Y-113008589D01*
X201576600Y-117559540D02*
X202263060Y-116873080D01*
X215270000Y-109200000D02*
X226890000Y-109200000D01*
X226890000Y-109200000D02*
X229210000Y-111520000D01*
X204200000Y-116873080D02*
X204327848Y-116873080D01*
X235770000Y-111540000D02*
X235820000Y-111590000D01*
X235540000Y-111540000D02*
X235770000Y-111540000D01*
X199863960Y-117559540D02*
X201576600Y-117559540D01*
X212530000Y-111000000D02*
X213470000Y-111000000D01*
X212771411Y-113008589D02*
X213130000Y-112650000D01*
%TO.N,GPIO7*%
X201875000Y-118256520D02*
X201875000Y-118833220D01*
X207424280Y-117135720D02*
X207424280Y-114724280D01*
X200358220Y-118833220D02*
X200300000Y-118775000D01*
X236104289Y-113905711D02*
X236150000Y-113860000D01*
X201875000Y-118833220D02*
X200358220Y-118833220D01*
X206387500Y-117600000D02*
X202531520Y-117600000D01*
X206960000Y-117600000D02*
X207424280Y-117135720D01*
X218896286Y-113905711D02*
X236104289Y-113905711D01*
X206387500Y-117600000D02*
X206960000Y-117600000D01*
X202531520Y-117600000D02*
X201875000Y-118256520D01*
X207788560Y-114360000D02*
X218441997Y-114360000D01*
X218441997Y-114360000D02*
X218896286Y-113905711D01*
X207424280Y-114724280D02*
X207788560Y-114360000D01*
%TO.N,GPIO6*%
X212980000Y-122250000D02*
X213240711Y-121989289D01*
X213240711Y-121989289D02*
X220440711Y-121989289D01*
X202962500Y-118625000D02*
X203650500Y-118625000D01*
X243834300Y-121720000D02*
X243790000Y-121675700D01*
X220440711Y-121989289D02*
X220450000Y-121980000D01*
X243790000Y-121675700D02*
X243790000Y-112940000D01*
X203650500Y-118625000D02*
X203675500Y-118650000D01*
X202702360Y-119185140D02*
X202962500Y-118925000D01*
X199863960Y-119185140D02*
X202702360Y-119185140D01*
%TO.N,DET_2*%
X202408830Y-117225000D02*
X204225000Y-117225000D01*
X208530000Y-113840000D02*
X211440000Y-113840000D01*
X204225000Y-117225000D02*
X204939300Y-117225000D01*
X211440000Y-113840000D02*
X212244300Y-113840000D01*
X199863960Y-117965940D02*
X201667890Y-117965940D01*
X247800000Y-116590000D02*
X249155000Y-115235000D01*
X201667890Y-117965940D02*
X202408830Y-117225000D01*
X247800000Y-129260000D02*
X247800000Y-116590000D01*
X204939300Y-117225000D02*
X205240000Y-116924300D01*
X215100563Y-129629437D02*
X215120711Y-129609289D01*
X221929989Y-129609289D02*
X221930700Y-129610000D01*
X215100563Y-129140563D02*
X215100563Y-129629437D01*
X215120711Y-129609289D02*
X221929989Y-129609289D01*
X212244300Y-113840000D02*
X212400000Y-113684300D01*
X213490563Y-129140563D02*
X215100563Y-129140563D01*
X208374300Y-113684300D02*
X208530000Y-113840000D01*
%TO.N,A_OUT_L_2*%
X243440000Y-104050000D02*
X244510000Y-105120000D01*
X157480000Y-97790000D02*
X160680000Y-97790000D01*
X243400000Y-104010000D02*
X243440000Y-104050000D01*
X134330000Y-98580000D02*
X156690000Y-98580000D01*
X244510000Y-105120000D02*
X244510000Y-133450000D01*
X133330000Y-99580000D02*
X134330000Y-98580000D01*
X162500000Y-95970000D02*
X176240000Y-95970000D01*
X177140000Y-103520000D02*
X176760000Y-103140000D01*
X176240000Y-95970000D02*
X177990000Y-97720000D01*
X156690000Y-98580000D02*
X157480000Y-97790000D01*
X160680000Y-97790000D02*
X162500000Y-95970000D01*
X177990000Y-97720000D02*
X177990000Y-100004300D01*
X243204300Y-103140000D02*
X243400000Y-103335700D01*
X244510000Y-133450000D02*
X246615000Y-135555000D01*
X176760000Y-103140000D02*
X243204300Y-103140000D01*
X243400000Y-103335700D02*
X243400000Y-104010000D01*
%TO.N,GPIO13*%
X199319200Y-115302629D02*
X199575000Y-115558429D01*
X205160000Y-112910000D02*
X206795700Y-111274300D01*
X202050000Y-113260000D02*
X204810000Y-113260000D01*
X198695560Y-115344418D02*
X198737349Y-115302629D01*
X204810000Y-113260000D02*
X205160000Y-112910000D01*
X228904399Y-106274399D02*
X230330000Y-107700000D01*
X198800000Y-115302629D02*
X199319200Y-115302629D01*
X199575000Y-115558429D02*
X199575000Y-116382129D01*
X210400000Y-110070000D02*
X211160000Y-110070000D01*
X200057681Y-116382129D02*
X201674280Y-114765530D01*
X211160000Y-106964399D02*
X211850000Y-106274399D01*
X201674280Y-114765530D02*
X201674280Y-113635720D01*
X206795700Y-111274300D02*
X206795700Y-110180917D01*
X211160000Y-110070000D02*
X211160000Y-106964399D01*
X199575000Y-116382129D02*
X200057681Y-116382129D01*
X211850000Y-106274399D02*
X228904399Y-106274399D01*
X198695560Y-115984740D02*
X198695560Y-115344418D01*
X201674280Y-113635720D02*
X202050000Y-113260000D01*
%TO.N,DET_3*%
X213005601Y-111480000D02*
X214000000Y-111480000D01*
X207239147Y-112520000D02*
X211965601Y-112520000D01*
X211965601Y-112520000D02*
X213005601Y-111480000D01*
X214349289Y-111829289D02*
X226689289Y-111829289D01*
X199101960Y-115984740D02*
X199101960Y-116746740D01*
X226689289Y-111829289D02*
X228040000Y-113180000D01*
X214000000Y-111480000D02*
X214349289Y-111829289D01*
X206260000Y-114325500D02*
X206260000Y-113499147D01*
X204120000Y-116070000D02*
X204120000Y-115870000D01*
X202349380Y-116070000D02*
X204120000Y-116070000D01*
X199101960Y-116746740D02*
X198863260Y-116985440D01*
X202220669Y-116198711D02*
X202349380Y-116070000D01*
X206260000Y-113499147D02*
X207239147Y-112520000D01*
X204120000Y-115870000D02*
X204140000Y-115850000D01*
%TO.N,A_OUT_L_3*%
X132350000Y-105330000D02*
X132400000Y-105280000D01*
X179680000Y-101280000D02*
X199030000Y-101280000D01*
X127010000Y-110670000D02*
X132160000Y-105520000D01*
X179080000Y-100680000D02*
X179680000Y-101280000D01*
X132290000Y-105390000D02*
X132350000Y-105330000D01*
X132160000Y-105520000D02*
X132290000Y-105390000D01*
X236860000Y-131650000D02*
X232870000Y-135640000D01*
X236860000Y-107900000D02*
X236860000Y-131650000D01*
X132400000Y-103110000D02*
X132440000Y-103070000D01*
X160755700Y-98465700D02*
X161900000Y-99610000D01*
X158550000Y-98465700D02*
X160755700Y-98465700D01*
X161900000Y-99610000D02*
X162970000Y-100680000D01*
X162970000Y-100680000D02*
X179080000Y-100680000D01*
X199030000Y-101280000D02*
X200860000Y-99450000D01*
X132400000Y-105280000D02*
X132400000Y-103110000D01*
X236580000Y-107620000D02*
X236860000Y-107900000D01*
X132440000Y-103070000D02*
X144150000Y-103070000D01*
%TO.N,Net-(J7-Pad1)*%
X128900000Y-136640000D02*
X130087500Y-136640000D01*
X130087500Y-136640000D02*
X130127500Y-136600000D01*
%TO.N,Net-(J7-Pad2)*%
X132868080Y-137311920D02*
X131820000Y-138360000D01*
X134600000Y-133200000D02*
X132976160Y-133200000D01*
X132976160Y-133753840D02*
X132868080Y-133861920D01*
X131820000Y-138360000D02*
X131820000Y-139330000D01*
X132868080Y-133861920D02*
X132868080Y-137311920D01*
X132976160Y-133200000D02*
X132976160Y-133753840D01*
%TO.N,Net-(J7-Pad3)*%
X139790000Y-134480000D02*
X135970000Y-130660000D01*
X138815720Y-140188220D02*
X138815720Y-137939542D01*
X135970000Y-130660000D02*
X134600000Y-130660000D01*
X138815720Y-137939542D02*
X139790000Y-136965262D01*
X139790000Y-136965262D02*
X139790000Y-134480000D01*
X139777500Y-141150000D02*
X138815720Y-140188220D01*
%TO.N,Net-(J8-Pad1)*%
X122974289Y-123375711D02*
X124100000Y-122250000D01*
X130125000Y-134650000D02*
X126705000Y-131230000D01*
X126705000Y-131230000D02*
X123868003Y-131230000D01*
X122974289Y-130336286D02*
X122974289Y-123375711D01*
X123868003Y-131230000D02*
X122974289Y-130336286D01*
%TO.N,Net-(J8-Pad2)*%
X129540000Y-139000000D02*
X127190000Y-136650000D01*
X150060000Y-138350000D02*
X149310000Y-137600000D01*
X150060000Y-138667500D02*
X150060000Y-138350000D01*
X127190000Y-136650000D02*
X127190000Y-133430000D01*
%TO.N,Net-(J8-Pad3)*%
X153560213Y-120020000D02*
X154207500Y-120020000D01*
X129320000Y-112480000D02*
X129194289Y-112354289D01*
X129194289Y-112354289D02*
X123653714Y-112354289D01*
X152533913Y-121046300D02*
X153560213Y-120020000D01*
X125225711Y-121257708D02*
X125225711Y-126204289D01*
X122740000Y-113268003D02*
X122740000Y-118771997D01*
X122740000Y-118771997D02*
X125225711Y-121257708D01*
X125225711Y-126204289D02*
X124100000Y-127330000D01*
X123653714Y-112354289D02*
X122740000Y-113268003D01*
%TO.N,Net-(J9-Pad1)*%
X127850000Y-130392500D02*
X127850000Y-123220000D01*
X133020000Y-118130000D02*
X134292000Y-116858000D01*
X127850000Y-123220000D02*
X131530000Y-119540000D01*
X134292000Y-116858000D02*
X134610000Y-116858000D01*
X130127500Y-132670000D02*
X127850000Y-130392500D01*
%TO.N,Net-(J9-Pad2)*%
X139598000Y-119398000D02*
X134610000Y-119398000D01*
X147608971Y-133528971D02*
X147017942Y-134120000D01*
X139910000Y-119710000D02*
X139598000Y-119398000D01*
X147900000Y-133820000D02*
X147608971Y-133528971D01*
X147017942Y-134120000D02*
X141100000Y-134120000D01*
X139800000Y-119820000D02*
X139910000Y-119710000D01*
X147900000Y-138667500D02*
X147900000Y-133820000D01*
X141100000Y-134120000D02*
X139800000Y-132820000D01*
X139800000Y-132820000D02*
X139800000Y-119820000D01*
%TO.N,Net-(J9-Pad3)*%
X154247500Y-122070000D02*
X153234300Y-122070000D01*
X153234300Y-122070000D02*
X153100000Y-121935700D01*
X145951997Y-124080000D02*
X144260000Y-124080000D01*
X148251847Y-121935430D02*
X146611997Y-123575280D01*
X146611997Y-123575280D02*
X146611997Y-124740000D01*
X146611997Y-124740000D02*
X145951997Y-124080000D01*
%TO.N,Net-(J10-Pad1)*%
X130137500Y-130700000D02*
X128525700Y-129088200D01*
X128525700Y-129088200D02*
X128525700Y-123700000D01*
%TO.N,Net-(J10-Pad2)*%
X130680000Y-114890000D02*
X129270000Y-113480000D01*
X154167500Y-124050000D02*
X154287500Y-124170000D01*
X129270000Y-113480000D02*
X124120000Y-113480000D01*
X152960000Y-124050000D02*
X154167500Y-124050000D01*
%TO.N,Net-(J10-Pad3)*%
X136128578Y-139520000D02*
X137667500Y-139520000D01*
X129580000Y-116020000D02*
X124120000Y-116020000D01*
X133120000Y-119560000D02*
X129580000Y-116020000D01*
X136128578Y-139520000D02*
X133220000Y-136611422D01*
X133220000Y-134650863D02*
X133220000Y-136611422D01*
X133130000Y-130270000D02*
X133130000Y-119570000D01*
X133130000Y-119570000D02*
X133120000Y-119560000D01*
X137667500Y-139520000D02*
X138027500Y-139160000D01*
X133543780Y-134327083D02*
X133220000Y-134650863D01*
%TO.N,A_OUT_L_4*%
X126365000Y-125730000D02*
X126365000Y-129540000D01*
%TO.N,Net-(J11-Pad1)*%
X134610000Y-106528003D02*
X134610000Y-105580000D01*
X130137500Y-122112500D02*
X130170000Y-122080000D01*
X132230000Y-108908003D02*
X134610000Y-106528003D01*
X132230000Y-117390000D02*
X132230000Y-108908003D01*
X130137500Y-128740000D02*
X130137500Y-122112500D01*
%TO.N,Net-(J11-Pad2)*%
X139330000Y-132950000D02*
X139010000Y-132630000D01*
X138960000Y-112470000D02*
X134610000Y-108120000D01*
X146000000Y-137030000D02*
X145960000Y-137070000D01*
X152100000Y-137690000D02*
X150760000Y-136350000D01*
X139010000Y-132630000D02*
X139010000Y-120390000D01*
X145960000Y-137070000D02*
X141510000Y-137070000D01*
X141260000Y-134880000D02*
X139330000Y-132950000D01*
X141510000Y-137070000D02*
X141260000Y-136820000D01*
X141260000Y-136820000D02*
X141260000Y-134880000D01*
X138960000Y-118490000D02*
X138960000Y-112470000D01*
X152100000Y-138667500D02*
X152100000Y-137690000D01*
X146860000Y-137030000D02*
X146000000Y-137030000D01*
%TO.N,Net-(J11-Pad3)*%
X140980110Y-137495711D02*
X140350000Y-136865601D01*
X140350000Y-136865601D02*
X140350000Y-134480000D01*
X138012571Y-132142571D02*
X138012571Y-120454350D01*
X138010000Y-118492725D02*
X138010000Y-114060000D01*
X138010000Y-114060000D02*
X134610000Y-110660000D01*
X143354289Y-137495711D02*
X140980110Y-137495711D01*
X140350000Y-134480000D02*
X138012571Y-132142571D01*
X143292500Y-137557500D02*
X143354289Y-137495711D01*
X143292500Y-139180000D02*
X143292500Y-137557500D01*
X137961796Y-118540929D02*
X138010000Y-118492725D01*
%TO.N,A_OUT_L_5*%
X175940000Y-135540000D02*
X173400000Y-135540000D01*
X158560000Y-141820000D02*
X148405500Y-141820000D01*
X158620000Y-141760000D02*
X158560000Y-141820000D01*
X161230000Y-139150000D02*
X158620000Y-141760000D01*
X173400000Y-135540000D02*
X169790000Y-139150000D01*
X148405500Y-141820000D02*
X148190000Y-141604500D01*
X169790000Y-139150000D02*
X161230000Y-139150000D01*
%TO.N,GPIO17*%
X192049020Y-114325000D02*
X190475000Y-114325000D01*
X188163969Y-109686031D02*
X190716031Y-109686031D01*
X191022062Y-106730000D02*
X196490000Y-106730000D01*
X196490000Y-106730000D02*
X197760000Y-105460000D01*
X189338519Y-113795449D02*
X188640000Y-113096930D01*
X190716031Y-107036031D02*
X191022062Y-106730000D01*
X190475000Y-114325000D02*
X189945449Y-113795449D01*
X187837876Y-110012124D02*
X188163969Y-109686031D01*
X197758716Y-105460000D02*
X197641982Y-105343266D01*
X188640000Y-112490000D02*
X187837876Y-111687876D01*
X190716031Y-109686031D02*
X190716031Y-107036031D01*
X197760000Y-105460000D02*
X197758716Y-105460000D01*
X189945449Y-113795449D02*
X189338519Y-113795449D01*
X188640000Y-113096930D02*
X188640000Y-112490000D01*
X192104020Y-114270000D02*
X192049020Y-114325000D01*
X193818760Y-115984740D02*
X192104020Y-114270000D01*
X187837876Y-111687876D02*
X187837876Y-110012124D01*
%TO.N,DET_4*%
X189605720Y-112775720D02*
X189347640Y-112775720D01*
X190290000Y-113460000D02*
X189605720Y-112775720D01*
X190390000Y-113460000D02*
X190290000Y-113460000D01*
X188991920Y-112420000D02*
X188991920Y-110958344D01*
X191828985Y-113798985D02*
X191654890Y-113973080D01*
X192188975Y-113798985D02*
X191828985Y-113798985D01*
X193634339Y-115302629D02*
X193634339Y-115244349D01*
X188991920Y-110958344D02*
X188513576Y-110480000D01*
X189347640Y-112775720D02*
X188991920Y-112420000D01*
X194225160Y-115984740D02*
X194225160Y-115489968D01*
X194225160Y-115489968D02*
X194010192Y-115275000D01*
X191654890Y-113973080D02*
X190903080Y-113973080D01*
X193634339Y-115244349D02*
X192188975Y-113798985D01*
X194010192Y-115275000D02*
X193982563Y-115302629D01*
X190903080Y-113973080D02*
X190390000Y-113460000D01*
X193982563Y-115302629D02*
X193634339Y-115302629D01*
%TO.N,DET_5*%
X189430760Y-115380760D02*
X189225000Y-115175000D01*
X193056101Y-117600839D02*
X192116757Y-117600839D01*
X193056760Y-117559540D02*
X193056760Y-117600180D01*
X187950000Y-113900000D02*
X182575000Y-113900000D01*
X173400000Y-115220000D02*
X175940000Y-115220000D01*
X189225000Y-115175000D02*
X187950000Y-113900000D01*
X191850000Y-117334082D02*
X191850000Y-115509050D01*
X191721710Y-115380760D02*
X189430760Y-115380760D01*
X192116757Y-117600839D02*
X191850000Y-117334082D01*
X193056760Y-117600180D02*
X193056101Y-117600839D01*
X191850000Y-115509050D02*
X191721710Y-115380760D01*
%TO.N,A_IN_5*%
X175940000Y-130460000D02*
X173400000Y-130460000D01*
%TO.N,A_OUT_R_5*%
X175940000Y-133000000D02*
X173400000Y-133000000D01*
D44*
%TO.N,PI_DAC_L*%
X156490000Y-114690000D02*
X156490000Y-115450000D01*
X154982020Y-118614520D02*
X156285480Y-118614520D01*
X156490000Y-115450000D02*
X156619520Y-115579520D01*
X153957500Y-117590000D02*
X154982020Y-118614520D01*
X156619520Y-118280480D02*
X156619520Y-115579520D01*
X156285480Y-118614520D02*
X156619520Y-118280480D01*
%TO.N,PI_DAC_R*%
X137355000Y-101700000D02*
X146030000Y-101700000D01*
X146030000Y-101700000D02*
X147180000Y-102850000D01*
X152980000Y-104447500D02*
X152597500Y-104447500D01*
X152597500Y-104447500D02*
X151850000Y-103700000D01*
%TO.N,Net-(J17-Pad1)*%
X150115000Y-100750000D02*
X148168560Y-102696440D01*
D42*
X146910000Y-111340000D02*
X150415000Y-114845000D01*
X148168560Y-102696440D02*
X148168560Y-102821440D01*
D44*
X149777500Y-115947500D02*
X150415000Y-115310000D01*
D42*
X150415000Y-114845000D02*
X150415000Y-115310000D01*
X148168560Y-102821440D02*
X146910000Y-104080000D01*
D44*
X149777500Y-117630000D02*
X149777500Y-115947500D01*
D42*
X146910000Y-104080000D02*
X146910000Y-111340000D01*
%TO.N,Net-(J17-Pad3)*%
X151685000Y-107395000D02*
X151685000Y-108310000D01*
X151035720Y-106745720D02*
X151685000Y-107395000D01*
X149357500Y-105422500D02*
X150580000Y-104200000D01*
X150333220Y-106745720D02*
X151035720Y-106745720D01*
X149357500Y-105770000D02*
X149357500Y-105422500D01*
X149357500Y-105770000D02*
X150333220Y-106745720D01*
D43*
%TO.N,TRIG_A*%
X159310000Y-107600000D02*
X161850000Y-107600000D01*
%TO.N,SDL_A*%
X159310000Y-110140000D02*
X161850000Y-110140000D01*
%TO.N,SDA_A*%
X159310000Y-112680000D02*
X161850000Y-112680000D01*
D42*
%TO.N,DET_A*%
X191154890Y-118825711D02*
X190595110Y-118825711D01*
X189675700Y-117906301D02*
X189650000Y-117906301D01*
X190595110Y-118825711D02*
X189675700Y-117906301D01*
X191201861Y-118778740D02*
X191154890Y-118825711D01*
X193056760Y-118778740D02*
X191201861Y-118778740D01*
D43*
X159310000Y-115220000D02*
X161850000Y-115220000D01*
D42*
%TO.N,A_IN_A*%
X156092500Y-134830000D02*
X155130000Y-134830000D01*
X155040000Y-135882500D02*
X156092500Y-134830000D01*
D43*
X159310000Y-130460000D02*
X161850000Y-130460000D01*
D42*
X155040000Y-138907500D02*
X155040000Y-135882500D01*
X155130000Y-134830000D02*
X154570000Y-134270000D01*
%TO.N,A_OUT_R_A*%
X164230000Y-108388003D02*
X164230000Y-133140000D01*
X161921997Y-106080000D02*
X164230000Y-108388003D01*
X156602500Y-106080000D02*
X161921997Y-106080000D01*
X164230000Y-133140000D02*
X164300000Y-133210000D01*
D43*
X161850000Y-133000000D02*
X159310000Y-133000000D01*
D42*
%TO.N,A_OUT_L_A*%
X165620000Y-126210000D02*
X165620000Y-135140000D01*
X152848220Y-123045720D02*
X154734280Y-123045720D01*
X166870000Y-124960000D02*
X165620000Y-126210000D01*
X166870000Y-123744300D02*
X166870000Y-124960000D01*
X154734280Y-123045720D02*
X155159385Y-122620615D01*
X165620000Y-135140000D02*
X165220000Y-135540000D01*
X157190000Y-121090000D02*
X157750000Y-120530000D01*
X165220000Y-135540000D02*
X161850000Y-135540000D01*
X163540000Y-123830000D02*
X163430000Y-123940000D01*
D44*
X158960000Y-121650000D02*
X163540000Y-121650000D01*
D43*
X159310000Y-135540000D02*
X161850000Y-135540000D01*
D42*
X163540000Y-121650000D02*
X163540000Y-123830000D01*
X157750000Y-120530000D02*
X157750000Y-120440000D01*
X151432500Y-121630000D02*
X152848220Y-123045720D01*
D44*
X157750000Y-120440000D02*
X158960000Y-121650000D01*
D42*
X155159385Y-122620615D02*
X155159385Y-121060594D01*
D43*
%TO.N,TRIG_B*%
X145530000Y-107470000D02*
X142990000Y-107470000D01*
%TO.N,SDL_B*%
X142990000Y-110010000D02*
X145530000Y-110010000D01*
%TO.N,SDA_B*%
X145530000Y-112550000D02*
X142990000Y-112550000D01*
D42*
%TO.N,DET_B*%
X190739454Y-119185140D02*
X190407297Y-119517297D01*
X193056760Y-119185140D02*
X190739454Y-119185140D01*
X158650000Y-119020000D02*
X158070000Y-119020000D01*
D43*
X142990000Y-115090000D02*
X145530000Y-115090000D01*
D42*
X162864300Y-119020000D02*
X158650000Y-119020000D01*
%TO.N,A_IN_B*%
X133810000Y-139327500D02*
X134717500Y-139327500D01*
X146655711Y-128114289D02*
X146655711Y-129204289D01*
D43*
X142990000Y-130330000D02*
X145530000Y-130330000D01*
D42*
X134717500Y-139327500D02*
X135320000Y-139930000D01*
X136250000Y-135850000D02*
X136250000Y-137580000D01*
X136250000Y-137580000D02*
X135830000Y-138000000D01*
X155374500Y-126492000D02*
X153162000Y-126492000D01*
X156092500Y-127210000D02*
X155516780Y-126634280D01*
X147066000Y-127704000D02*
X146655711Y-128114289D01*
X146655711Y-129204289D02*
X145530000Y-130330000D01*
X147066000Y-126492000D02*
X147066000Y-127704000D01*
X155516780Y-126634280D02*
X155374500Y-126492000D01*
%TO.N,A_OUT_R_B*%
X146830000Y-116790000D02*
X146927500Y-116790000D01*
X140475700Y-132430000D02*
X140490000Y-132415700D01*
X140490000Y-118538003D02*
X142538003Y-116490000D01*
D43*
X145530000Y-132870000D02*
X142990000Y-132870000D01*
D42*
X146927500Y-116790000D02*
X149807500Y-119670000D01*
X142538003Y-116490000D02*
X146530000Y-116490000D01*
X146530000Y-116490000D02*
X146830000Y-116790000D01*
X140490000Y-132415700D02*
X140490000Y-118538003D01*
D43*
%TO.N,A_OUT_L_B*%
X142990000Y-135410000D02*
X145530000Y-135410000D01*
D42*
X138802500Y-136772500D02*
X138870000Y-136840000D01*
X137450000Y-136772500D02*
X138802500Y-136772500D01*
%TO.N,GPIO25*%
X190625000Y-120752870D02*
X188924019Y-120752870D01*
X188924019Y-120752870D02*
X188135574Y-119964425D01*
X187825000Y-115775000D02*
X187825000Y-117793470D01*
X188135574Y-118104044D02*
X188135574Y-119964425D01*
X187518900Y-115468900D02*
X187825000Y-115775000D01*
X186997620Y-115468900D02*
X187518900Y-115468900D01*
X191379930Y-119997940D02*
X190625000Y-120752870D01*
X193056760Y-119997940D02*
X191379930Y-119997940D01*
X187825000Y-117793470D02*
X188135574Y-118104044D01*
%TO.N,GPIO14*%
X199153840Y-111266540D02*
X199673180Y-110747200D01*
X198289160Y-115049020D02*
X199153840Y-114184340D01*
X198289160Y-115984740D02*
X198289160Y-115253128D01*
X199673180Y-110747200D02*
X200022661Y-110747200D01*
X199153840Y-114184340D02*
X199153840Y-111325000D01*
X199153840Y-111325000D02*
X199153840Y-111266540D01*
X202100000Y-107887500D02*
X200675000Y-106462500D01*
X202100000Y-110700000D02*
X202100000Y-107887500D01*
X198289160Y-115253128D02*
X198289160Y-115049020D01*
%TO.N,Net-(R20-Pad2)*%
X156032500Y-121920000D02*
X155992500Y-121880000D01*
X162291997Y-124230000D02*
X157690000Y-124230000D01*
X156092500Y-133560000D02*
X156786780Y-134254280D01*
X154011780Y-139704280D02*
X144225720Y-139704280D01*
X163327631Y-125265634D02*
X162291997Y-124230000D01*
X162850000Y-134280000D02*
X163327631Y-133802369D01*
X155567230Y-139836250D02*
X157694280Y-137709200D01*
X155992500Y-121880000D02*
X155992500Y-119890000D01*
X156786780Y-134254280D02*
X157694280Y-134254280D01*
X141467500Y-139180000D02*
X139872500Y-139180000D01*
X154143750Y-139836250D02*
X155567230Y-139836250D01*
X157690000Y-123577500D02*
X156032500Y-121920000D01*
X155040000Y-140732500D02*
X154143750Y-139836250D01*
X163327631Y-133802369D02*
X163327631Y-125265634D01*
X144225720Y-139704280D02*
X142780000Y-141150000D01*
X142780000Y-141150000D02*
X141602500Y-141150000D01*
X154143750Y-139836250D02*
X154011780Y-139704280D01*
X157694280Y-134254280D02*
X162824280Y-134254280D01*
X141467500Y-139180000D02*
X141467500Y-141015000D01*
X141467500Y-141015000D02*
X141602500Y-141150000D01*
X139872500Y-139180000D02*
X139852500Y-139160000D01*
X157690000Y-124230000D02*
X157690000Y-123577500D01*
X157694280Y-137709200D02*
X157694280Y-134254280D01*
X162824280Y-134254280D02*
X162850000Y-134280000D01*
%TO.N,Net-(R21-Pad2)*%
X156112500Y-125632500D02*
X156112500Y-124170000D01*
X133810000Y-141152500D02*
X133917500Y-141260000D01*
X152100000Y-140492500D02*
X152882500Y-140492500D01*
X144270000Y-141230000D02*
X147162500Y-141230000D01*
X133917500Y-141260000D02*
X137700000Y-141260000D01*
X152100000Y-140492500D02*
X150060000Y-140492500D01*
X156092500Y-128480000D02*
X156412058Y-128480000D01*
X153570000Y-137930000D02*
X153570000Y-130682942D01*
X133810000Y-141152500D02*
X131822500Y-141152500D01*
X153570000Y-130682942D02*
X155772942Y-128480000D01*
X157355720Y-126875720D02*
X156112500Y-125632500D01*
X131822500Y-141152500D02*
X131820000Y-141155000D01*
X155772942Y-128480000D02*
X156092500Y-128480000D01*
X156412058Y-128480000D02*
X157355720Y-127536338D01*
X147162500Y-141230000D02*
X147900000Y-140492500D01*
X147900000Y-140492500D02*
X150060000Y-140492500D01*
X152882500Y-140492500D02*
X153340000Y-140950000D01*
X157355720Y-127536338D02*
X157355720Y-126875720D01*
%TO.N,NoEffect*%
X149487058Y-132290000D02*
X150430720Y-131346338D01*
X132555711Y-132074289D02*
X131950000Y-132680000D01*
X147260000Y-132290000D02*
X147220000Y-132330000D01*
X131950000Y-132680000D02*
X131950000Y-134630000D01*
X149167500Y-132290000D02*
X147260000Y-132290000D01*
X149560000Y-129750000D02*
X149167500Y-129750000D01*
X150430720Y-130620720D02*
X149560000Y-129750000D01*
X131950000Y-130705000D02*
X131950000Y-128730000D01*
X150430720Y-131346338D02*
X150430720Y-130620720D01*
X131950000Y-134630000D02*
X131950000Y-136580000D01*
X136054289Y-132074289D02*
X136680048Y-132700048D01*
X131950000Y-130705000D02*
X131950000Y-132680000D01*
X136054289Y-132074289D02*
X132555711Y-132074289D01*
X149167500Y-132290000D02*
X149487058Y-132290000D01*
X136680048Y-132700048D02*
X137023058Y-132700048D01*
%TO.N,NO_OUT_L*%
X149167500Y-125696000D02*
X149098000Y-125626500D01*
X149167500Y-128480000D02*
X149167500Y-127210000D01*
X149836000Y-125626500D02*
X151472500Y-123990000D01*
X149167500Y-127210000D02*
X149167500Y-125696000D01*
X149098000Y-125626500D02*
X149836000Y-125626500D01*
%TO.N,Net-(R35-Pad2)*%
X142812292Y-121295711D02*
X141080000Y-123028003D01*
X148350000Y-120980000D02*
X148034289Y-121295711D01*
X151685000Y-117547500D02*
X151602500Y-117630000D01*
X149000000Y-121630000D02*
X149607500Y-121630000D01*
D44*
X150644520Y-120715480D02*
X149710000Y-121650000D01*
D42*
X149000000Y-121630000D02*
X148350000Y-120980000D01*
D44*
X151250000Y-114875000D02*
X151685000Y-115310000D01*
D42*
X151685000Y-115310000D02*
X151685000Y-117547500D01*
X141080000Y-129970000D02*
X141170000Y-130060000D01*
D44*
X155782500Y-115947500D02*
X155800000Y-115930000D01*
D42*
X137450000Y-133660000D02*
X137580000Y-133530000D01*
D44*
X150644520Y-118587980D02*
X150644520Y-120715480D01*
D42*
X141170000Y-130060000D02*
X141170000Y-133170000D01*
X137450000Y-134947500D02*
X137450000Y-133660000D01*
X149647500Y-123990000D02*
X149647500Y-121670000D01*
D44*
X151602500Y-117630000D02*
X150644520Y-118587980D01*
D42*
X148034289Y-121295711D02*
X142812292Y-121295711D01*
D44*
X155782500Y-117590000D02*
X155782500Y-115947500D01*
D42*
X141170000Y-133170000D02*
X141340000Y-133340000D01*
D44*
X151250000Y-113650000D02*
X151250000Y-114875000D01*
D42*
X141080000Y-123028003D02*
X141080000Y-129970000D01*
%TO.N,NO_OUT_R*%
X164540000Y-134390000D02*
X164090000Y-134390000D01*
X165160000Y-133770000D02*
X164540000Y-134390000D01*
X160370000Y-104120000D02*
X160880000Y-104120000D01*
X149167500Y-134830000D02*
X152880000Y-134830000D01*
X165160000Y-108400000D02*
X165160000Y-133770000D01*
X149167500Y-133560000D02*
X149167500Y-134830000D01*
X160880000Y-104120000D02*
X165160000Y-108400000D01*
X156602500Y-104120000D02*
X160370000Y-104120000D01*
%TO.N,Net-(R39-Pad2)*%
X152955000Y-106297500D02*
X152980000Y-106272500D01*
D44*
X151632500Y-119670000D02*
X152608448Y-118694052D01*
D42*
X154585000Y-106272500D02*
X154777500Y-106080000D01*
X152955000Y-108310000D02*
X152955000Y-106297500D01*
D44*
X152608448Y-118694052D02*
X152608448Y-116584520D01*
D42*
X151685000Y-106272500D02*
X151182500Y-105770000D01*
D44*
X152330480Y-116306552D02*
X152330480Y-108934520D01*
D42*
X152980000Y-106272500D02*
X151685000Y-106272500D01*
X154777500Y-104120000D02*
X154777500Y-106080000D01*
D44*
X152330480Y-108934520D02*
X152955000Y-108310000D01*
X152608448Y-116584520D02*
X152330480Y-116306552D01*
D42*
X152980000Y-106272500D02*
X154585000Y-106272500D01*
%TO.N,Net-(R47-Pad1)*%
X192185060Y-112322560D02*
X191662500Y-111800000D01*
X194598540Y-115984740D02*
X194631560Y-115984740D01*
X193810760Y-114923080D02*
X194155962Y-114923080D01*
X194590261Y-115976461D02*
X194598540Y-115984740D01*
X192185060Y-113297380D02*
X192185060Y-112322560D01*
X192185060Y-113297380D02*
X193810760Y-114923080D01*
X194590261Y-115357379D02*
X194590261Y-115976461D01*
X194155962Y-114923080D02*
X194590261Y-115357379D01*
%TO.N,Net-(R49-Pad2)*%
X200715200Y-112436020D02*
X200679300Y-112471920D01*
X200715200Y-109352800D02*
X200715200Y-112436020D01*
%TO.N,GPIO15*%
X211980000Y-108055700D02*
X212834300Y-108910000D01*
X197882760Y-115984740D02*
X197882760Y-114957730D01*
X197882760Y-114957730D02*
X198801920Y-114038570D01*
X199525000Y-107137500D02*
X198700000Y-106312500D01*
X198801920Y-114038570D02*
X198801920Y-111120770D01*
X211980000Y-107100000D02*
X211980000Y-108055700D01*
X199525000Y-108125000D02*
X199525000Y-107137500D01*
X199378031Y-108271969D02*
X199525000Y-108125000D01*
X199378031Y-110544659D02*
X199378031Y-108271969D01*
X198915553Y-106312500D02*
X199678053Y-105550000D01*
X198801920Y-111120770D02*
X199378031Y-110544659D01*
X198700000Y-106312500D02*
X198915553Y-106312500D01*
%TO.N,GPIO18*%
X187485956Y-109714044D02*
X188268369Y-108931631D01*
X189192749Y-114147369D02*
X188287690Y-113242310D01*
X188133192Y-112555882D02*
X187485956Y-111908646D01*
X193056760Y-115720430D02*
X192013250Y-114676920D01*
X187485956Y-111908646D02*
X187485956Y-109714044D01*
X188287690Y-112784399D02*
X188131645Y-112628354D01*
X190254230Y-114676920D02*
X189724679Y-114147369D01*
X188287690Y-113242310D02*
X188287690Y-112784399D01*
X189790478Y-105912500D02*
X190250000Y-105912500D01*
X175940000Y-112680000D02*
X173400000Y-112680000D01*
X192013250Y-114676920D02*
X190254230Y-114676920D01*
X179120000Y-112680000D02*
X175940000Y-112680000D01*
X188268369Y-108931631D02*
X188268369Y-107434609D01*
X187485956Y-111908646D02*
X182480699Y-111908646D01*
X189724679Y-114147369D02*
X189192749Y-114147369D01*
X193056760Y-116746740D02*
X193056760Y-115720430D01*
X179750000Y-112050000D02*
X179120000Y-112680000D01*
X188268369Y-107434609D02*
X189790478Y-105912500D01*
%TD*%
M02*
