%TF.GenerationSoftware,KiCad,Pcbnew,(6.0.2)*%
%TF.CreationDate,2022-03-04T11:59:17-06:00*%
%TF.ProjectId,rev1,72657631-2e6b-4696-9361-645f70636258,rev?*%
%TF.SameCoordinates,Original*%
%TF.FileFunction,Paste,Top*%
%TF.FilePolarity,Positive*%
%FSLAX46Y46*%
G04 Gerber Fmt 4.6, Leading zero omitted, Abs format (unit mm)*
G04 Created by KiCad (PCBNEW (6.0.2)) date 2022-03-04 11:59:17*
%MOMM*%
%LPD*%
G01*
G04 APERTURE LIST*
G04 Aperture macros list*
%AMRoundRect*
0 Rectangle with rounded corners*
0 $1 Rounding radius*
0 $2 $3 $4 $5 $6 $7 $8 $9 X,Y pos of 4 corners*
0 Add a 4 corners polygon primitive as box body*
4,1,4,$2,$3,$4,$5,$6,$7,$8,$9,$2,$3,0*
0 Add four circle primitives for the rounded corners*
1,1,$1+$1,$2,$3*
1,1,$1+$1,$4,$5*
1,1,$1+$1,$6,$7*
1,1,$1+$1,$8,$9*
0 Add four rect primitives between the rounded corners*
20,1,$1+$1,$2,$3,$4,$5,0*
20,1,$1+$1,$4,$5,$6,$7,0*
20,1,$1+$1,$6,$7,$8,$9,0*
20,1,$1+$1,$8,$9,$2,$3,0*%
G04 Aperture macros list end*
%ADD10C,0.100000*%
%ADD11RoundRect,0.250000X0.250000X0.475000X-0.250000X0.475000X-0.250000X-0.475000X0.250000X-0.475000X0*%
%ADD12RoundRect,0.250000X0.475000X-0.250000X0.475000X0.250000X-0.475000X0.250000X-0.475000X-0.250000X0*%
%ADD13RoundRect,0.250000X-0.475000X0.250000X-0.475000X-0.250000X0.475000X-0.250000X0.475000X0.250000X0*%
%ADD14RoundRect,0.250000X-0.250000X-0.475000X0.250000X-0.475000X0.250000X0.475000X-0.250000X0.475000X0*%
%ADD15RoundRect,0.250000X-0.625000X0.375000X-0.625000X-0.375000X0.625000X-0.375000X0.625000X0.375000X0*%
%ADD16R,0.450000X1.380000*%
%ADD17R,1.650000X1.300000*%
%ADD18R,1.000000X1.900000*%
%ADD19R,1.425000X1.550000*%
%ADD20R,1.800000X1.900000*%
%ADD21RoundRect,0.250000X-0.450000X0.262500X-0.450000X-0.262500X0.450000X-0.262500X0.450000X0.262500X0*%
%ADD22RoundRect,0.250000X0.450000X-0.262500X0.450000X0.262500X-0.450000X0.262500X-0.450000X-0.262500X0*%
%ADD23RoundRect,0.250000X0.262500X0.450000X-0.262500X0.450000X-0.262500X-0.450000X0.262500X-0.450000X0*%
%ADD24R,1.400000X1.200000*%
%ADD25RoundRect,0.150000X-0.150000X0.650000X-0.150000X-0.650000X0.150000X-0.650000X0.150000X0.650000X0*%
%ADD26R,1.500000X1.500000*%
%ADD27RoundRect,0.250000X-0.262500X-0.450000X0.262500X-0.450000X0.262500X0.450000X-0.262500X0.450000X0*%
%ADD28RoundRect,0.243750X-0.243750X-0.456250X0.243750X-0.456250X0.243750X0.456250X-0.243750X0.456250X0*%
%ADD29R,1.500000X2.000000*%
%ADD30R,3.800000X2.000000*%
%ADD31R,0.812800X0.177800*%
%ADD32R,0.177800X0.812800*%
%ADD33RoundRect,0.150000X0.150000X-0.800000X0.150000X0.800000X-0.150000X0.800000X-0.150000X-0.800000X0*%
%ADD34RoundRect,0.150000X0.837500X0.150000X-0.837500X0.150000X-0.837500X-0.150000X0.837500X-0.150000X0*%
G04 APERTURE END LIST*
D10*
%TO.C,U4*%
X197960560Y-119288340D02*
X197960560Y-117888140D01*
X197960560Y-117888140D02*
X196560360Y-117888140D01*
X196560360Y-117888140D02*
X196560360Y-119288340D01*
X196560360Y-119288340D02*
X197960560Y-119288340D01*
G36*
X197960560Y-119288340D02*
G01*
X196560360Y-119288340D01*
X196560360Y-117888140D01*
X197960560Y-117888140D01*
X197960560Y-119288340D01*
G37*
X197960560Y-119288340D02*
X196560360Y-119288340D01*
X196560360Y-117888140D01*
X197960560Y-117888140D01*
X197960560Y-119288340D01*
X196360360Y-119288340D02*
X196360360Y-117888140D01*
X196360360Y-117888140D02*
X194960160Y-117888140D01*
X194960160Y-117888140D02*
X194960160Y-119288340D01*
X194960160Y-119288340D02*
X196360360Y-119288340D01*
G36*
X196360360Y-119288340D02*
G01*
X194960160Y-119288340D01*
X194960160Y-117888140D01*
X196360360Y-117888140D01*
X196360360Y-119288340D01*
G37*
X196360360Y-119288340D02*
X194960160Y-119288340D01*
X194960160Y-117888140D01*
X196360360Y-117888140D01*
X196360360Y-119288340D01*
X196360360Y-120888540D02*
X196360360Y-119488340D01*
X196360360Y-119488340D02*
X194960160Y-119488340D01*
X194960160Y-119488340D02*
X194960160Y-120888540D01*
X194960160Y-120888540D02*
X196360360Y-120888540D01*
G36*
X196360360Y-120888540D02*
G01*
X194960160Y-120888540D01*
X194960160Y-119488340D01*
X196360360Y-119488340D01*
X196360360Y-120888540D01*
G37*
X196360360Y-120888540D02*
X194960160Y-120888540D01*
X194960160Y-119488340D01*
X196360360Y-119488340D01*
X196360360Y-120888540D01*
X197960560Y-120888540D02*
X197960560Y-119488340D01*
X197960560Y-119488340D02*
X196560360Y-119488340D01*
X196560360Y-119488340D02*
X196560360Y-120888540D01*
X196560360Y-120888540D02*
X197960560Y-120888540D01*
G36*
X197960560Y-120888540D02*
G01*
X196560360Y-120888540D01*
X196560360Y-119488340D01*
X197960560Y-119488340D01*
X197960560Y-120888540D01*
G37*
X197960560Y-120888540D02*
X196560360Y-120888540D01*
X196560360Y-119488340D01*
X197960560Y-119488340D01*
X197960560Y-120888540D01*
%TD*%
D11*
%TO.C,C2*%
X193981400Y-107760220D03*
X192081400Y-107760220D03*
%TD*%
%TO.C,C3*%
X193988940Y-109810000D03*
X192088940Y-109810000D03*
%TD*%
D12*
%TO.C,C1*%
X189559180Y-129855760D03*
X189559180Y-127955760D03*
%TD*%
D13*
%TO.C,C7*%
X196528940Y-127912580D03*
X196528940Y-129812580D03*
%TD*%
D14*
%TO.C,C4*%
X188634540Y-123757140D03*
X190534540Y-123757140D03*
%TD*%
D11*
%TO.C,C9*%
X190557400Y-126002500D03*
X188657400Y-126002500D03*
%TD*%
%TO.C,C5*%
X190600000Y-116950000D03*
X188700000Y-116950000D03*
%TD*%
D14*
%TO.C,C6*%
X202939820Y-123632680D03*
X204839820Y-123632680D03*
%TD*%
D12*
%TO.C,C8*%
X204814420Y-131999520D03*
X204814420Y-130099520D03*
%TD*%
D11*
%TO.C,C10*%
X195299580Y-113043420D03*
X193399580Y-113043420D03*
%TD*%
D13*
%TO.C,C11*%
X206650000Y-122450000D03*
X206650000Y-124350000D03*
%TD*%
D15*
%TO.C,D6*%
X185574920Y-135016500D03*
X185574920Y-137816500D03*
%TD*%
D16*
%TO.C,J2*%
X190815260Y-133024420D03*
X191465260Y-133024420D03*
X192115260Y-133024420D03*
X192765260Y-133024420D03*
X193415260Y-133024420D03*
D17*
X195490260Y-135684420D03*
X188740260Y-135684420D03*
D18*
X193665260Y-135684420D03*
D19*
X194602760Y-133109420D03*
D20*
X190965260Y-135684420D03*
D19*
X189627760Y-133109420D03*
%TD*%
D21*
%TO.C,R11*%
X194354700Y-127972260D03*
X194354700Y-129797260D03*
%TD*%
%TO.C,R12*%
X192355720Y-127972260D03*
X192355720Y-129797260D03*
%TD*%
%TO.C,R18*%
X183179700Y-134589780D03*
X183179700Y-136414780D03*
%TD*%
D22*
%TO.C,R19*%
X181086740Y-136414780D03*
X181086740Y-134589780D03*
%TD*%
D23*
%TO.C,R47*%
X191662500Y-111800000D03*
X189837500Y-111800000D03*
%TD*%
D21*
%TO.C,R50*%
X204799180Y-126643840D03*
X204799180Y-128468840D03*
%TD*%
D24*
%TO.C,Y1*%
X198050400Y-108037280D03*
X195850400Y-108037280D03*
X195850400Y-109637280D03*
X198050400Y-109637280D03*
%TD*%
D25*
%TO.C,U5*%
X202675740Y-128223360D03*
X201405740Y-128223360D03*
X200135740Y-128223360D03*
X198865740Y-128223360D03*
X198865740Y-135423360D03*
X200135740Y-135423360D03*
X201405740Y-135423360D03*
X202675740Y-135423360D03*
%TD*%
D26*
%TO.C,SW1*%
X208515200Y-109352800D03*
X200715200Y-109352800D03*
%TD*%
D27*
%TO.C,R5*%
X185158880Y-121425000D03*
X186983880Y-121425000D03*
%TD*%
%TO.C,R4*%
X185162500Y-119444920D03*
X186987500Y-119444920D03*
%TD*%
%TO.C,R3*%
X185158840Y-117450000D03*
X186983840Y-117450000D03*
%TD*%
D28*
%TO.C,D3*%
X181680960Y-119439840D03*
X183555960Y-119439840D03*
%TD*%
%TO.C,D2*%
X181675000Y-117450000D03*
X183550000Y-117450000D03*
%TD*%
D29*
%TO.C,U2*%
X181400000Y-132275000D03*
D30*
X183700000Y-125975000D03*
D29*
X183700000Y-132275000D03*
X186000000Y-132275000D03*
%TD*%
D22*
%TO.C,R49*%
X200679300Y-114296920D03*
X200679300Y-112471920D03*
%TD*%
D28*
%TO.C,D4*%
X181687500Y-121419920D03*
X183562500Y-121419920D03*
%TD*%
D21*
%TO.C,R51*%
X192343020Y-124399760D03*
X192343020Y-126224760D03*
%TD*%
D31*
%TO.C,U4*%
X199863960Y-122029940D03*
X199863960Y-121623540D03*
X199863960Y-121217140D03*
X199863960Y-120810740D03*
X199863960Y-120404340D03*
X199863960Y-119997940D03*
X199863960Y-119591540D03*
X199863960Y-119185140D03*
X199863960Y-118778740D03*
X199863960Y-118372340D03*
X199863960Y-117965940D03*
X199863960Y-117559540D03*
X199863960Y-117153140D03*
X199863960Y-116746740D03*
D32*
X199101960Y-115984740D03*
X198695560Y-115984740D03*
X198289160Y-115984740D03*
X197882760Y-115984740D03*
X197476360Y-115984740D03*
X197069960Y-115984740D03*
X196663560Y-115984740D03*
X196257160Y-115984740D03*
X195850760Y-115984740D03*
X195444360Y-115984740D03*
X195037960Y-115984740D03*
X194631560Y-115984740D03*
X194225160Y-115984740D03*
X193818760Y-115984740D03*
D31*
X193056760Y-116746740D03*
X193056760Y-117153140D03*
X193056760Y-117559540D03*
X193056760Y-117965940D03*
X193056760Y-118372340D03*
X193056760Y-118778740D03*
X193056760Y-119185140D03*
X193056760Y-119591540D03*
X193056760Y-119997940D03*
X193056760Y-120404340D03*
X193056760Y-120810740D03*
X193056760Y-121217140D03*
X193056760Y-121623540D03*
X193056760Y-122029940D03*
D32*
X193818760Y-122791940D03*
X194225160Y-122791940D03*
X194631560Y-122791940D03*
X195037960Y-122791940D03*
X195444360Y-122791940D03*
X195850760Y-122791940D03*
X196257160Y-122791940D03*
X196663560Y-122791940D03*
X197069960Y-122791940D03*
X197476360Y-122791940D03*
X197882760Y-122791940D03*
X198289160Y-122791940D03*
X198695560Y-122791940D03*
X199101960Y-122791940D03*
%TD*%
D28*
%TO.C,D1*%
X181694880Y-115468900D03*
X183569880Y-115468900D03*
%TD*%
D27*
%TO.C,R2*%
X185172620Y-115468900D03*
X186997620Y-115468900D03*
%TD*%
D22*
%TO.C,R48*%
X197456040Y-113430780D03*
X197456040Y-111605780D03*
%TD*%
D27*
%TO.C,R31*%
X130137500Y-130700000D03*
X131962500Y-130700000D03*
%TD*%
%TO.C,R20*%
X139777500Y-141150000D03*
X141602500Y-141150000D03*
%TD*%
%TO.C,R6*%
X185162500Y-123400000D03*
X186987500Y-123400000D03*
%TD*%
%TO.C,R1*%
X202962500Y-121650000D03*
X204787500Y-121650000D03*
%TD*%
%TO.C,R10*%
X206387500Y-115625000D03*
X208212500Y-115625000D03*
%TD*%
%TO.C,R40*%
X149807500Y-119670000D03*
X151632500Y-119670000D03*
%TD*%
D21*
%TO.C,R27*%
X147900000Y-138667500D03*
X147900000Y-140492500D03*
%TD*%
D23*
%TO.C,R37*%
X151332500Y-121660000D03*
X149507500Y-121660000D03*
%TD*%
D27*
%TO.C,R34*%
X130137500Y-128740000D03*
X131962500Y-128740000D03*
%TD*%
D22*
%TO.C,R16*%
X190250000Y-105912500D03*
X190250000Y-104087500D03*
%TD*%
%TO.C,R46*%
X133810000Y-141152500D03*
X133810000Y-139327500D03*
%TD*%
%TO.C,R36*%
X137450000Y-136772500D03*
X137450000Y-134947500D03*
%TD*%
D23*
%TO.C,R41*%
X156602500Y-106080000D03*
X154777500Y-106080000D03*
%TD*%
D21*
%TO.C,R33*%
X152100000Y-138667500D03*
X152100000Y-140492500D03*
%TD*%
D33*
%TO.C,U3*%
X150415000Y-115310000D03*
X151685000Y-115310000D03*
X152955000Y-115310000D03*
X154225000Y-115310000D03*
X154225000Y-108310000D03*
X152955000Y-108310000D03*
X151685000Y-108310000D03*
X150415000Y-108310000D03*
%TD*%
D21*
%TO.C,R24*%
X150060000Y-138667500D03*
X150060000Y-140492500D03*
%TD*%
D23*
%TO.C,R43*%
X151602500Y-117630000D03*
X149777500Y-117630000D03*
%TD*%
D27*
%TO.C,R7*%
X206387500Y-120600000D03*
X208212500Y-120600000D03*
%TD*%
%TO.C,R28*%
X130127500Y-132670000D03*
X131952500Y-132670000D03*
%TD*%
D22*
%TO.C,R14*%
X200675000Y-106462500D03*
X200675000Y-104637500D03*
%TD*%
D23*
%TO.C,R39*%
X156602500Y-104120000D03*
X154777500Y-104120000D03*
%TD*%
D27*
%TO.C,R9*%
X206387500Y-117600000D03*
X208212500Y-117600000D03*
%TD*%
D34*
%TO.C,U1*%
X156092500Y-134830000D03*
X156092500Y-133560000D03*
X156092500Y-132290000D03*
X156092500Y-131020000D03*
X156092500Y-129750000D03*
X156092500Y-128480000D03*
X156092500Y-127210000D03*
X149167500Y-127210000D03*
X149167500Y-128480000D03*
X149167500Y-129750000D03*
X149167500Y-131020000D03*
X149167500Y-132290000D03*
X149167500Y-133560000D03*
X149167500Y-134830000D03*
%TD*%
D23*
%TO.C,R35*%
X151472500Y-123990000D03*
X149647500Y-123990000D03*
%TD*%
D27*
%TO.C,R25*%
X130125000Y-134650000D03*
X131950000Y-134650000D03*
%TD*%
%TO.C,R26*%
X154247500Y-122070000D03*
X156072500Y-122070000D03*
%TD*%
D22*
%TO.C,R13*%
X202650000Y-114287500D03*
X202650000Y-112462500D03*
%TD*%
D28*
%TO.C,D5*%
X181687500Y-123400000D03*
X183562500Y-123400000D03*
%TD*%
D21*
%TO.C,R21*%
X131820000Y-139330000D03*
X131820000Y-141155000D03*
%TD*%
D22*
%TO.C,R15*%
X198700000Y-106312500D03*
X198700000Y-104487500D03*
%TD*%
D27*
%TO.C,R23*%
X154207500Y-120020000D03*
X156032500Y-120020000D03*
%TD*%
%TO.C,R29*%
X138027500Y-139160000D03*
X139852500Y-139160000D03*
%TD*%
D23*
%TO.C,R44*%
X151182500Y-105770000D03*
X149357500Y-105770000D03*
%TD*%
D21*
%TO.C,R42*%
X152980000Y-104447500D03*
X152980000Y-106272500D03*
%TD*%
D27*
%TO.C,R38*%
X153957500Y-117590000D03*
X155782500Y-117590000D03*
%TD*%
%TO.C,R30*%
X154287500Y-124170000D03*
X156112500Y-124170000D03*
%TD*%
%TO.C,R8*%
X202962500Y-118625000D03*
X204787500Y-118625000D03*
%TD*%
D23*
%TO.C,R32*%
X143292500Y-139180000D03*
X141467500Y-139180000D03*
%TD*%
D22*
%TO.C,R17*%
X192275000Y-105937500D03*
X192275000Y-104112500D03*
%TD*%
D27*
%TO.C,R22*%
X130127500Y-136600000D03*
X131952500Y-136600000D03*
%TD*%
D22*
%TO.C,R45*%
X155040000Y-140732500D03*
X155040000Y-138907500D03*
%TD*%
M02*
