%TF.GenerationSoftware,KiCad,Pcbnew,(6.0.2)*%
%TF.CreationDate,2022-04-01T15:45:15-05:00*%
%TF.ProjectId,bassDrum,62617373-4472-4756-9d2e-6b696361645f,rev?*%
%TF.SameCoordinates,Original*%
%TF.FileFunction,Copper,L1,Top*%
%TF.FilePolarity,Positive*%
%FSLAX46Y46*%
G04 Gerber Fmt 4.6, Leading zero omitted, Abs format (unit mm)*
G04 Created by KiCad (PCBNEW (6.0.2)) date 2022-04-01 15:45:15*
%MOMM*%
%LPD*%
G01*
G04 APERTURE LIST*
G04 Aperture macros list*
%AMRoundRect*
0 Rectangle with rounded corners*
0 $1 Rounding radius*
0 $2 $3 $4 $5 $6 $7 $8 $9 X,Y pos of 4 corners*
0 Add a 4 corners polygon primitive as box body*
4,1,4,$2,$3,$4,$5,$6,$7,$8,$9,$2,$3,0*
0 Add four circle primitives for the rounded corners*
1,1,$1+$1,$2,$3*
1,1,$1+$1,$4,$5*
1,1,$1+$1,$6,$7*
1,1,$1+$1,$8,$9*
0 Add four rect primitives between the rounded corners*
20,1,$1+$1,$2,$3,$4,$5,0*
20,1,$1+$1,$4,$5,$6,$7,0*
20,1,$1+$1,$6,$7,$8,$9,0*
20,1,$1+$1,$8,$9,$2,$3,0*%
G04 Aperture macros list end*
%TA.AperFunction,SMDPad,CuDef*%
%ADD10R,1.400000X0.300000*%
%TD*%
%TA.AperFunction,SMDPad,CuDef*%
%ADD11RoundRect,0.150000X-0.800000X-0.150000X0.800000X-0.150000X0.800000X0.150000X-0.800000X0.150000X0*%
%TD*%
%TA.AperFunction,ComponentPad*%
%ADD12O,1.600000X1.600000*%
%TD*%
%TA.AperFunction,ComponentPad*%
%ADD13R,1.600000X1.600000*%
%TD*%
%TA.AperFunction,SMDPad,CuDef*%
%ADD14RoundRect,0.243750X-0.456250X0.243750X-0.456250X-0.243750X0.456250X-0.243750X0.456250X0.243750X0*%
%TD*%
%TA.AperFunction,SMDPad,CuDef*%
%ADD15RoundRect,0.243750X0.243750X0.456250X-0.243750X0.456250X-0.243750X-0.456250X0.243750X-0.456250X0*%
%TD*%
%TA.AperFunction,SMDPad,CuDef*%
%ADD16RoundRect,0.243750X-0.243750X-0.456250X0.243750X-0.456250X0.243750X0.456250X-0.243750X0.456250X0*%
%TD*%
%TA.AperFunction,ComponentPad*%
%ADD17R,1.500000X1.050000*%
%TD*%
%TA.AperFunction,ComponentPad*%
%ADD18O,1.500000X1.050000*%
%TD*%
%TA.AperFunction,ComponentPad*%
%ADD19O,1.700000X1.700000*%
%TD*%
%TA.AperFunction,ComponentPad*%
%ADD20R,1.700000X1.700000*%
%TD*%
%TA.AperFunction,ComponentPad*%
%ADD21O,2.200000X2.200000*%
%TD*%
%TA.AperFunction,ComponentPad*%
%ADD22R,2.200000X2.200000*%
%TD*%
%TA.AperFunction,ViaPad*%
%ADD23C,0.800000*%
%TD*%
%TA.AperFunction,Conductor*%
%ADD24C,0.152400*%
%TD*%
G04 APERTURE END LIST*
D10*
%TO.P,U4,10*%
%TO.N,5V*%
X147361000Y-99076000D03*
%TO.P,U4,9*%
%TO.N,MasterA1*%
X147361000Y-99576000D03*
%TO.P,U4,8*%
%TO.N,A_OUT_L*%
X147361000Y-100076000D03*
%TO.P,U4,7*%
%TO.N,GND*%
X147361000Y-100576000D03*
%TO.P,U4,6*%
%TO.N,Net-(U4-Pad6)*%
X147361000Y-101076000D03*
%TO.P,U4,5*%
%TO.N,Net-(U4-Pad5)*%
X142961000Y-101076000D03*
%TO.P,U4,4*%
%TO.N,GND*%
X142961000Y-100576000D03*
%TO.P,U4,3*%
%TO.N,SDA*%
X142961000Y-100076000D03*
%TO.P,U4,2*%
%TO.N,SCL*%
X142961000Y-99576000D03*
%TO.P,U4,1*%
%TO.N,MasterA0*%
X142961000Y-99076000D03*
%TD*%
D11*
%TO.P,U3,8*%
%TO.N,+12V*%
X142692000Y-106857800D03*
%TO.P,U3,7*%
%TO.N,Net-(U3-Pad6)*%
X142692000Y-108127800D03*
%TO.P,U3,6*%
X142692000Y-109397800D03*
%TO.P,U3,5*%
%TO.N,GND*%
X142692000Y-110667800D03*
%TO.P,U3,4*%
%TO.N,-12V*%
X135692000Y-110667800D03*
%TO.P,U3,3*%
%TO.N,BassOUT*%
X135692000Y-109397800D03*
%TO.P,U3,2*%
%TO.N,Net-(R16-Pad1)*%
X135692000Y-108127800D03*
%TO.P,U3,1*%
%TO.N,Net-(C9-Pad2)*%
X135692000Y-106857800D03*
%TD*%
D10*
%TO.P,U2,10*%
%TO.N,5V*%
X139446000Y-99076000D03*
%TO.P,U2,9*%
%TO.N,A1*%
X139446000Y-99576000D03*
%TO.P,U2,8*%
%TO.N,P0Out*%
X139446000Y-100076000D03*
%TO.P,U2,7*%
%TO.N,P0In*%
X139446000Y-100576000D03*
%TO.P,U2,6*%
%TO.N,P1In*%
X139446000Y-101076000D03*
%TO.P,U2,5*%
%TO.N,P1Out*%
X135046000Y-101076000D03*
%TO.P,U2,4*%
%TO.N,GND*%
X135046000Y-100576000D03*
%TO.P,U2,3*%
%TO.N,SDA*%
X135046000Y-100076000D03*
%TO.P,U2,2*%
%TO.N,SCL*%
X135046000Y-99576000D03*
%TO.P,U2,1*%
%TO.N,A0*%
X135046000Y-99076000D03*
%TD*%
D11*
%TO.P,U1,8*%
%TO.N,+12V*%
X129738000Y-106883200D03*
%TO.P,U1,7*%
%TO.N,Net-(U1-Pad6)*%
X129738000Y-108153200D03*
%TO.P,U1,6*%
X129738000Y-109423200D03*
%TO.P,U1,5*%
%TO.N,GND*%
X129738000Y-110693200D03*
%TO.P,U1,4*%
%TO.N,-12V*%
X122738000Y-110693200D03*
%TO.P,U1,3*%
%TO.N,Net-(C2-Pad2)*%
X122738000Y-109423200D03*
%TO.P,U1,2*%
%TO.N,Net-(C3-Pad1)*%
X122738000Y-108153200D03*
%TO.P,U1,1*%
%TO.N,Net-(C4-Pad2)*%
X122738000Y-106883200D03*
%TD*%
D12*
%TO.P,SW2,8*%
%TO.N,A0*%
X146050000Y-86868000D03*
%TO.P,SW2,4*%
%TO.N,5V*%
X138430000Y-79248000D03*
%TO.P,SW2,7*%
%TO.N,A1*%
X143510000Y-86868000D03*
%TO.P,SW2,3*%
%TO.N,5V*%
X140970000Y-79248000D03*
%TO.P,SW2,6*%
%TO.N,MasterA0*%
X140970000Y-86868000D03*
%TO.P,SW2,2*%
%TO.N,5V*%
X143510000Y-79248000D03*
%TO.P,SW2,5*%
%TO.N,MasterA1*%
X138430000Y-86868000D03*
D13*
%TO.P,SW2,1*%
%TO.N,5V*%
X146050000Y-79248000D03*
%TD*%
D14*
%TO.P,R20,2*%
%TO.N,GND*%
X140589000Y-92045000D03*
%TO.P,R20,1*%
%TO.N,MasterA0*%
X140589000Y-90170000D03*
%TD*%
%TO.P,R19,2*%
%TO.N,GND*%
X137795000Y-92045000D03*
%TO.P,R19,1*%
%TO.N,MasterA1*%
X137795000Y-90170000D03*
%TD*%
D15*
%TO.P,R17,2*%
%TO.N,GND*%
X153065000Y-100076000D03*
%TO.P,R17,1*%
%TO.N,Net-(R16-Pad1)*%
X154940000Y-100076000D03*
%TD*%
%TO.P,R16,2*%
%TO.N,Net-(C9-Pad2)*%
X157431500Y-97409000D03*
%TO.P,R16,1*%
%TO.N,Net-(R16-Pad1)*%
X159306500Y-97409000D03*
%TD*%
D16*
%TO.P,R15,2*%
%TO.N,Net-(C9-Pad1)*%
X159306500Y-102616000D03*
%TO.P,R15,1*%
%TO.N,Net-(J5-Pad3)*%
X157431500Y-102616000D03*
%TD*%
D14*
%TO.P,R14,2*%
%TO.N,GND*%
X145923000Y-92045000D03*
%TO.P,R14,1*%
%TO.N,A0*%
X145923000Y-90170000D03*
%TD*%
%TO.P,R13,2*%
%TO.N,GND*%
X143129000Y-92045000D03*
%TO.P,R13,1*%
%TO.N,A1*%
X143129000Y-90170000D03*
%TD*%
D16*
%TO.P,R11,2*%
%TO.N,Net-(C4-Pad2)*%
X128778000Y-99060000D03*
%TO.P,R11,1*%
%TO.N,Net-(C6-Pad2)*%
X126903000Y-99060000D03*
%TD*%
%TO.P,R10,2*%
%TO.N,P1In*%
X128778000Y-88646000D03*
%TO.P,R10,1*%
%TO.N,Net-(C5-Pad2)*%
X126903000Y-88646000D03*
%TD*%
%TO.P,R9,2*%
%TO.N,Net-(C5-Pad1)*%
X124430000Y-88646000D03*
%TO.P,R9,1*%
%TO.N,Net-(C4-Pad2)*%
X122555000Y-88646000D03*
%TD*%
%TO.P,R8,2*%
%TO.N,Net-(C3-Pad1)*%
X128778000Y-93980000D03*
%TO.P,R8,1*%
%TO.N,Net-(C5-Pad1)*%
X126903000Y-93980000D03*
%TD*%
%TO.P,R7,2*%
%TO.N,Net-(C3-Pad1)*%
X128778000Y-96520000D03*
%TO.P,R7,1*%
%TO.N,Net-(C4-Pad2)*%
X126903000Y-96520000D03*
%TD*%
%TO.P,R6,2*%
%TO.N,P0In*%
X124430000Y-96520000D03*
%TO.P,R6,1*%
%TO.N,Net-(C3-Pad2)*%
X122555000Y-96520000D03*
%TD*%
%TO.P,R5,2*%
%TO.N,Net-(C2-Pad1)*%
X159306500Y-92583000D03*
%TO.P,R5,1*%
%TO.N,+12V*%
X157431500Y-92583000D03*
%TD*%
%TO.P,R4,2*%
%TO.N,GND*%
X154940000Y-90170000D03*
%TO.P,R4,1*%
%TO.N,Net-(Q1-Pad1)*%
X153065000Y-90170000D03*
%TD*%
%TO.P,R3,2*%
%TO.N,Net-(Q1-Pad3)*%
X159306500Y-87884000D03*
%TO.P,R3,1*%
%TO.N,+12V*%
X157431500Y-87884000D03*
%TD*%
%TO.P,R2,2*%
%TO.N,Net-(C1-Pad1)*%
X159306500Y-90170000D03*
%TO.P,R2,1*%
%TO.N,+12V*%
X157431500Y-90170000D03*
%TD*%
%TO.P,R1,2*%
%TO.N,Net-(C1-Pad1)*%
X154940000Y-87884000D03*
%TO.P,R1,1*%
%TO.N,TRIG*%
X153065000Y-87884000D03*
%TD*%
D17*
%TO.P,Q2,1*%
%TO.N,Net-(Q1-Pad1)*%
X155803600Y-107899200D03*
D18*
%TO.P,Q2,3*%
%TO.N,Net-(C2-Pad1)*%
X155803600Y-110439200D03*
%TO.P,Q2,2*%
%TO.N,Net-(Q1-Pad3)*%
X155803600Y-109169200D03*
%TD*%
D17*
%TO.P,Q1,1*%
%TO.N,Net-(Q1-Pad1)*%
X148818600Y-107899200D03*
D18*
%TO.P,Q1,3*%
%TO.N,Net-(Q1-Pad3)*%
X148818600Y-110439200D03*
%TO.P,Q1,2*%
%TO.N,Net-(C1-Pad1)*%
X148818600Y-109169200D03*
%TD*%
D19*
%TO.P,J5,3*%
%TO.N,Net-(J5-Pad3)*%
X132689600Y-85090000D03*
%TO.P,J5,2*%
%TO.N,A_OUT_L*%
X132689600Y-82550000D03*
D20*
%TO.P,J5,1*%
%TO.N,GND*%
X132689600Y-80010000D03*
%TD*%
D19*
%TO.P,J3,3*%
%TO.N,Net-(J3-Pad3)*%
X127355600Y-85090000D03*
%TO.P,J3,2*%
%TO.N,P1Out*%
X127355600Y-82550000D03*
D20*
%TO.P,J3,1*%
%TO.N,GND*%
X127355600Y-80010000D03*
%TD*%
D19*
%TO.P,J2,3*%
%TO.N,Net-(J2-Pad3)*%
X122428000Y-85090000D03*
%TO.P,J2,2*%
%TO.N,P0Out*%
X122428000Y-82550000D03*
D20*
%TO.P,J2,1*%
%TO.N,GND*%
X122428000Y-80010000D03*
%TD*%
D19*
%TO.P,J1,24*%
%TO.N,TRIG*%
X117434400Y-108031200D03*
%TO.P,J1,23*%
X114894400Y-108031200D03*
%TO.P,J1,22*%
%TO.N,SDA*%
X117434400Y-105491200D03*
%TO.P,J1,21*%
X114894400Y-105491200D03*
%TO.P,J1,20*%
%TO.N,SCL*%
X117434400Y-102951200D03*
%TO.P,J1,19*%
X114894400Y-102951200D03*
%TO.P,J1,18*%
%TO.N,DET*%
X117434400Y-100411200D03*
%TO.P,J1,17*%
X114894400Y-100411200D03*
%TO.P,J1,16*%
%TO.N,5V*%
X117434400Y-97871200D03*
%TO.P,J1,15*%
X114894400Y-97871200D03*
%TO.P,J1,14*%
%TO.N,GND*%
X117434400Y-95331200D03*
%TO.P,J1,13*%
X114894400Y-95331200D03*
%TO.P,J1,12*%
%TO.N,-12V*%
X117434400Y-92791200D03*
%TO.P,J1,11*%
X114894400Y-92791200D03*
%TO.P,J1,10*%
%TO.N,+12V*%
X117434400Y-90251200D03*
%TO.P,J1,9*%
X114894400Y-90251200D03*
%TO.P,J1,8*%
%TO.N,GND*%
X117434400Y-87711200D03*
%TO.P,J1,7*%
X114894400Y-87711200D03*
%TO.P,J1,6*%
%TO.N,A_IN*%
X117434400Y-85171200D03*
%TO.P,J1,5*%
X114894400Y-85171200D03*
%TO.P,J1,4*%
%TO.N,A_OUT_R*%
X117434400Y-82631200D03*
%TO.P,J1,3*%
X114894400Y-82631200D03*
%TO.P,J1,2*%
%TO.N,A_OUT_L*%
X117434400Y-80091200D03*
D20*
%TO.P,J1,1*%
X114894400Y-80091200D03*
%TD*%
D21*
%TO.P,D1,2*%
%TO.N,GND*%
X159004000Y-79883000D03*
D22*
%TO.P,D1,1*%
%TO.N,Net-(C1-Pad1)*%
X151384000Y-79883000D03*
%TD*%
D15*
%TO.P,C12,2*%
%TO.N,-12V*%
X153065000Y-94996000D03*
%TO.P,C12,1*%
%TO.N,GND*%
X154940000Y-94996000D03*
%TD*%
%TO.P,C11,2*%
%TO.N,+12V*%
X157431500Y-85598000D03*
%TO.P,C11,1*%
%TO.N,GND*%
X159306500Y-85598000D03*
%TD*%
%TO.P,C9,2*%
%TO.N,Net-(C9-Pad2)*%
X157431500Y-100076000D03*
%TO.P,C9,1*%
%TO.N,Net-(C9-Pad1)*%
X159306500Y-100076000D03*
%TD*%
%TO.P,C8,2*%
%TO.N,-12V*%
X153065000Y-92583000D03*
%TO.P,C8,1*%
%TO.N,GND*%
X154940000Y-92583000D03*
%TD*%
D16*
%TO.P,C7,2*%
%TO.N,+12V*%
X154940000Y-97409000D03*
%TO.P,C7,1*%
%TO.N,GND*%
X153065000Y-97409000D03*
%TD*%
D15*
%TO.P,C6,2*%
%TO.N,Net-(C6-Pad2)*%
X122555000Y-99060000D03*
%TO.P,C6,1*%
%TO.N,BassOUT*%
X124430000Y-99060000D03*
%TD*%
D16*
%TO.P,C5,2*%
%TO.N,Net-(C5-Pad2)*%
X128778000Y-91440000D03*
%TO.P,C5,1*%
%TO.N,Net-(C5-Pad1)*%
X126903000Y-91440000D03*
%TD*%
%TO.P,C4,2*%
%TO.N,Net-(C4-Pad2)*%
X124430000Y-91440000D03*
%TO.P,C4,1*%
%TO.N,Net-(C3-Pad2)*%
X122555000Y-91440000D03*
%TD*%
D15*
%TO.P,C3,2*%
%TO.N,Net-(C3-Pad2)*%
X122555000Y-93980000D03*
%TO.P,C3,1*%
%TO.N,Net-(C3-Pad1)*%
X124430000Y-93980000D03*
%TD*%
%TO.P,C2,2*%
%TO.N,Net-(C2-Pad2)*%
X157431500Y-94996000D03*
%TO.P,C2,1*%
%TO.N,Net-(C2-Pad1)*%
X159306500Y-94996000D03*
%TD*%
D16*
%TO.P,C1,2*%
%TO.N,GND*%
X154940000Y-85598000D03*
%TO.P,C1,1*%
%TO.N,Net-(C1-Pad1)*%
X153065000Y-85598000D03*
%TD*%
D23*
%TO.N,Net-(C1-Pad1)*%
X155854400Y-87934800D03*
X160680400Y-89458800D03*
%TO.N,GND*%
X151155400Y-102235000D03*
X153389082Y-101318921D03*
X145999200Y-101396800D03*
X142265400Y-102031800D03*
X133146800Y-101127000D03*
%TO.N,Net-(C2-Pad2)*%
X127000000Y-107559400D03*
X144272000Y-103378000D03*
X147696546Y-103246546D03*
X156379910Y-96164400D03*
%TO.N,Net-(C2-Pad1)*%
X160629600Y-96316800D03*
%TO.N,Net-(C3-Pad1)*%
X124968680Y-107424160D03*
X129849254Y-96058346D03*
%TO.N,Net-(C4-Pad2)*%
X125374400Y-92557600D03*
X125628400Y-96062800D03*
X122732800Y-105562400D03*
X124053600Y-102311200D03*
X125609996Y-99576228D03*
X130352800Y-98856800D03*
%TO.N,A_OUT_L*%
X135671000Y-94386400D03*
%TO.N,+12V*%
X131470400Y-107442000D03*
X139090400Y-107492800D03*
X119837200Y-101346000D03*
X147624800Y-104800400D03*
X154025600Y-98856800D03*
%TO.N,-12V*%
X120650000Y-110642400D03*
X151739600Y-95961200D03*
X137414000Y-110693200D03*
X124256800Y-111328200D03*
X133045200Y-111302800D03*
%TO.N,5V*%
X138684000Y-97840800D03*
X147218400Y-98247200D03*
X118653000Y-96875600D03*
X122072400Y-97790000D03*
X130200400Y-97231200D03*
X132943600Y-95859600D03*
%TO.N,SDA*%
X131299958Y-100612380D03*
X137094276Y-99787000D03*
X140760471Y-100088604D03*
%TO.N,SCL*%
X130759200Y-99771200D03*
X136346002Y-99110800D03*
X140970000Y-99110800D03*
%TO.N,TRIG*%
X128727200Y-102870000D03*
X145135600Y-100228400D03*
X145592800Y-97790000D03*
%TO.N,P0Out*%
X129235200Y-87274400D03*
%TO.N,P1Out*%
X136347200Y-101076200D03*
%TO.N,P1In*%
X138480800Y-101752400D03*
X129743200Y-90119200D03*
%TO.N,A1*%
X139192000Y-95062600D03*
X142218175Y-91013170D03*
%TO.N,A0*%
X137464800Y-95605600D03*
X136296400Y-96774000D03*
X135077200Y-97790000D03*
X144119600Y-95758000D03*
%TO.N,BassOUT*%
X133400800Y-106527600D03*
X130403600Y-104343200D03*
%TO.N,Net-(C9-Pad2)*%
X155549600Y-101939800D03*
X145186400Y-106172000D03*
%TO.N,Net-(J5-Pad3)*%
X137023400Y-88696800D03*
X149555200Y-95961200D03*
%TO.N,Net-(R16-Pad1)*%
X158800800Y-98653600D03*
X155448000Y-98907600D03*
X154381200Y-101193600D03*
X145948400Y-107797600D03*
%TO.N,MasterA1*%
X148259800Y-91389200D03*
X148133155Y-93573955D03*
%TO.N,MasterA0*%
X140695054Y-95321746D03*
X141532246Y-93678646D03*
X139192000Y-93167200D03*
X139242800Y-89484200D03*
%TD*%
D24*
%TO.N,Net-(C1-Pad1)*%
X151384000Y-83917000D02*
X153065000Y-85598000D01*
X151384000Y-79883000D02*
X151384000Y-83917000D01*
X154940000Y-87473000D02*
X154940000Y-87884000D01*
X153065000Y-85598000D02*
X154940000Y-87473000D01*
X154940000Y-87884000D02*
X155803600Y-87884000D01*
X155803600Y-87884000D02*
X155854400Y-87934800D01*
X159969200Y-90170000D02*
X159306500Y-90170000D01*
X160680400Y-89458800D02*
X159969200Y-90170000D01*
X152761438Y-109169200D02*
X157689038Y-104241600D01*
X148818600Y-109169200D02*
X152761438Y-109169200D01*
X159116236Y-104241600D02*
X161391600Y-101966236D01*
X157689038Y-104241600D02*
X159116236Y-104241600D01*
X161391600Y-92255100D02*
X159306500Y-90170000D01*
X161391600Y-101966236D02*
X161391600Y-92255100D01*
%TO.N,GND*%
X137795000Y-92045000D02*
X145923000Y-92045000D01*
X147361000Y-100576000D02*
X149496400Y-100576000D01*
X149496400Y-100576000D02*
X151155400Y-102235000D01*
X153389082Y-100400082D02*
X153065000Y-100076000D01*
X153389082Y-101318921D02*
X153389082Y-100400082D01*
X145999200Y-101085400D02*
X145999200Y-101396800D01*
X147361000Y-100576000D02*
X146508600Y-100576000D01*
X146508600Y-100576000D02*
X145999200Y-101085400D01*
X141865401Y-100824437D02*
X142113838Y-100576000D01*
X142113838Y-100576000D02*
X142961000Y-100576000D01*
X141865401Y-101631801D02*
X141865401Y-100824437D01*
X142265400Y-102031800D02*
X141865401Y-101631801D01*
X135046000Y-100576000D02*
X133697800Y-100576000D01*
X133697800Y-100576000D02*
X133146800Y-101127000D01*
X129738000Y-110693200D02*
X129738000Y-112288200D01*
X153065000Y-100076000D02*
X153065000Y-97409000D01*
X153503210Y-91606790D02*
X151877610Y-91606790D01*
X154940000Y-90170000D02*
X153503210Y-91606790D01*
X156530601Y-88579399D02*
X154940000Y-90170000D01*
X156530601Y-87188601D02*
X156530601Y-88579399D01*
X154940000Y-85598000D02*
X156530601Y-87188601D01*
%TO.N,Net-(C2-Pad2)*%
X122738000Y-109423200D02*
X125136200Y-109423200D01*
X125136200Y-109423200D02*
X127000000Y-107559400D01*
X144272000Y-103378000D02*
X147565092Y-103378000D01*
X147565092Y-103378000D02*
X147696546Y-103246546D01*
X157431500Y-95112810D02*
X157431500Y-94996000D01*
X156379910Y-96164400D02*
X157431500Y-95112810D01*
%TO.N,Net-(C2-Pad1)*%
X159308800Y-94996000D02*
X159306500Y-94996000D01*
X160629600Y-96316800D02*
X159308800Y-94996000D01*
X159306500Y-94996000D02*
X159306500Y-92583000D01*
%TO.N,Net-(C3-Pad2)*%
X122555000Y-91440000D02*
X122555000Y-93980000D01*
X122555000Y-93980000D02*
X122555000Y-96520000D01*
%TO.N,Net-(C3-Pad1)*%
X127801790Y-94956210D02*
X128778000Y-93980000D01*
X125406210Y-94956210D02*
X127801790Y-94956210D01*
X124430000Y-93980000D02*
X125406210Y-94956210D01*
X128778000Y-93980000D02*
X128778000Y-96520000D01*
X122738000Y-108153200D02*
X124239640Y-108153200D01*
X124239640Y-108153200D02*
X124968680Y-107424160D01*
X129239654Y-96058346D02*
X128778000Y-96520000D01*
X129849254Y-96058346D02*
X129239654Y-96058346D01*
%TO.N,Net-(C4-Pad2)*%
X122555000Y-89565000D02*
X124430000Y-91440000D01*
X122555000Y-88646000D02*
X122555000Y-89565000D01*
X124430000Y-91440000D02*
X124430000Y-91613200D01*
X124430000Y-91613200D02*
X125374400Y-92557600D01*
X126445800Y-96062800D02*
X126903000Y-96520000D01*
X125628400Y-96062800D02*
X126445800Y-96062800D01*
X128778000Y-98395000D02*
X128778000Y-99060000D01*
X126903000Y-96520000D02*
X128778000Y-98395000D01*
X122738000Y-106883200D02*
X122738000Y-105567600D01*
X122738000Y-105567600D02*
X122732800Y-105562400D01*
X124053600Y-102311200D02*
X125609996Y-100754804D01*
X125609996Y-100754804D02*
X125609996Y-99576228D01*
X128981200Y-98856800D02*
X128778000Y-99060000D01*
X130352800Y-98856800D02*
X128981200Y-98856800D01*
%TO.N,Net-(C5-Pad1)*%
X126903000Y-91119000D02*
X126903000Y-91440000D01*
X124430000Y-88646000D02*
X126903000Y-91119000D01*
X126903000Y-91440000D02*
X126903000Y-93980000D01*
%TO.N,Net-(C5-Pad2)*%
X126903000Y-89565000D02*
X128778000Y-91440000D01*
X126903000Y-88646000D02*
X126903000Y-89565000D01*
%TO.N,A_OUT_L*%
X146405600Y-100076000D02*
X147361000Y-100076000D01*
X143052800Y-96723200D02*
X146405600Y-100076000D01*
X143052800Y-96723200D02*
X142341600Y-96012000D01*
X142341600Y-96012000D02*
X140716000Y-94386400D01*
X140716000Y-94386400D02*
X135671000Y-94386400D01*
%TO.N,+12V*%
X157431500Y-90170000D02*
X157431500Y-87884000D01*
X157431500Y-87884000D02*
X157431500Y-85598000D01*
X157431500Y-90170000D02*
X157431500Y-92583000D01*
X155703710Y-94310790D02*
X157431500Y-92583000D01*
X155703710Y-96645290D02*
X155703710Y-94310790D01*
X154940000Y-97409000D02*
X155703710Y-96645290D01*
X129738000Y-106883200D02*
X130347600Y-107492800D01*
X130347600Y-107492800D02*
X131419600Y-107492800D01*
X131419600Y-107492800D02*
X131470400Y-107442000D01*
X142666600Y-106883200D02*
X142692000Y-106857800D01*
X139090400Y-107492800D02*
X139700000Y-106883200D01*
X139700000Y-106883200D02*
X142666600Y-106883200D01*
X125374400Y-106883200D02*
X129738000Y-106883200D01*
X119837200Y-101346000D02*
X125374400Y-106883200D01*
X142692000Y-106857800D02*
X145567400Y-106857800D01*
X145567400Y-106857800D02*
X147624800Y-104800400D01*
X154940000Y-97942400D02*
X154940000Y-97409000D01*
X154025600Y-98856800D02*
X154940000Y-97942400D01*
%TO.N,-12V*%
X122738000Y-110693200D02*
X123398400Y-111353600D01*
X122687200Y-110642400D02*
X122738000Y-110693200D01*
X120650000Y-110642400D02*
X122687200Y-110642400D01*
X153065000Y-94996000D02*
X153065000Y-92583000D01*
X153065000Y-94996000D02*
X152099800Y-95961200D01*
X152099800Y-95961200D02*
X151739600Y-95961200D01*
X135717400Y-110693200D02*
X135692000Y-110667800D01*
X137414000Y-110693200D02*
X135717400Y-110693200D01*
X123398400Y-111353600D02*
X124231400Y-111353600D01*
X124231400Y-111353600D02*
X124256800Y-111328200D01*
X133045200Y-111302800D02*
X133654800Y-110693200D01*
X135666600Y-110693200D02*
X135692000Y-110667800D01*
X133654800Y-110693200D02*
X135666600Y-110693200D01*
%TO.N,5V*%
X139446000Y-98602800D02*
X139446000Y-99076000D01*
X138684000Y-97840800D02*
X139446000Y-98602800D01*
X147218400Y-98933400D02*
X147361000Y-99076000D01*
X147218400Y-98247200D02*
X147218400Y-98933400D01*
X118653000Y-96875600D02*
X121158000Y-96875600D01*
X121158000Y-96875600D02*
X122072400Y-97790000D01*
X130200400Y-97231200D02*
X131572000Y-95859600D01*
X131572000Y-95859600D02*
X132943600Y-95859600D01*
%TO.N,SDA*%
X131299958Y-100612380D02*
X131299958Y-100500442D01*
X131724400Y-100076000D02*
X135046000Y-100076000D01*
X131299958Y-100500442D02*
X131724400Y-100076000D01*
X135046000Y-100076000D02*
X136805276Y-100076000D01*
X136805276Y-100076000D02*
X137094276Y-99787000D01*
X142948396Y-100088604D02*
X142961000Y-100076000D01*
X140760471Y-100088604D02*
X142948396Y-100088604D01*
%TO.N,SCL*%
X130954400Y-99576000D02*
X135046000Y-99576000D01*
X130759200Y-99771200D02*
X130954400Y-99576000D01*
X135046000Y-99576000D02*
X135880802Y-99576000D01*
X135880802Y-99576000D02*
X136346002Y-99110800D01*
X141435200Y-99576000D02*
X142961000Y-99576000D01*
X140970000Y-99110800D02*
X141435200Y-99576000D01*
%TO.N,TRIG*%
X142514162Y-102870000D02*
X145084800Y-100299362D01*
X128727200Y-102870000D02*
X142514162Y-102870000D01*
X145084800Y-100299362D02*
X145084800Y-100279200D01*
X145084800Y-100279200D02*
X145135600Y-100228400D01*
X152866818Y-87884000D02*
X153065000Y-87884000D01*
X145592800Y-95158018D02*
X152866818Y-87884000D01*
X145592800Y-97790000D02*
X145592800Y-95158018D01*
%TO.N,P0Out*%
X130419401Y-92111347D02*
X138384054Y-100076000D01*
X130419401Y-88458601D02*
X130419401Y-92111347D01*
X138384054Y-100076000D02*
X139446000Y-100076000D01*
X129235200Y-87274400D02*
X130419401Y-88458601D01*
%TO.N,P1Out*%
X135046000Y-101076000D02*
X136347000Y-101076000D01*
X136347000Y-101076000D02*
X136347200Y-101076200D01*
%TO.N,Net-(Q1-Pad1)*%
X151079200Y-90170000D02*
X153065000Y-90170000D01*
X148878999Y-92370201D02*
X151079200Y-90170000D01*
X152806400Y-102209600D02*
X148878999Y-98282199D01*
X148818600Y-104673400D02*
X149504400Y-103987600D01*
X152806400Y-103047800D02*
X152806400Y-102209600D01*
X148818600Y-107899200D02*
X148818600Y-104673400D01*
X149504400Y-103987600D02*
X151866600Y-103987600D01*
X148878999Y-98282199D02*
X148878999Y-92370201D01*
X151866600Y-103987600D02*
X152806400Y-103047800D01*
%TO.N,Net-(Q1-Pad3)*%
X155803600Y-109169200D02*
X155600400Y-109169200D01*
X154330400Y-110439200D02*
X148818600Y-110439200D01*
X155600400Y-109169200D02*
X154330400Y-110439200D01*
X156779436Y-109169200D02*
X155803600Y-109169200D01*
X159306500Y-87884000D02*
X160106378Y-87884000D01*
X162356800Y-103591836D02*
X156779436Y-109169200D01*
X162356800Y-90134422D02*
X162356800Y-103591836D01*
X160106378Y-87884000D02*
X162356800Y-90134422D01*
%TO.N,P0In*%
X128014290Y-99731626D02*
X130085864Y-101803200D01*
X125018800Y-96520000D02*
X126582590Y-98083790D01*
X126582590Y-98083790D02*
X127362126Y-98083790D01*
X124430000Y-96520000D02*
X125018800Y-96520000D01*
X127362126Y-98083790D02*
X128014290Y-98735954D01*
X128014290Y-98735954D02*
X128014290Y-99731626D01*
X138598838Y-100576000D02*
X139446000Y-100576000D01*
X137371638Y-101803200D02*
X138598838Y-100576000D01*
X130085864Y-101803200D02*
X137371638Y-101803200D01*
%TO.N,P1In*%
X139446000Y-101076000D02*
X139157200Y-101076000D01*
X139157200Y-101076000D02*
X138480800Y-101752400D01*
X128778000Y-89154000D02*
X128778000Y-88646000D01*
X129743200Y-90119200D02*
X128778000Y-89154000D01*
%TO.N,A1*%
X143129000Y-87249000D02*
X143510000Y-86868000D01*
X143129000Y-90170000D02*
X143129000Y-87249000D01*
X138007799Y-96246801D02*
X139192000Y-95062600D01*
X138007799Y-98990199D02*
X138007799Y-96246801D01*
X139446000Y-99576000D02*
X138593600Y-99576000D01*
X138593600Y-99576000D02*
X138007799Y-98990199D01*
X142285830Y-91013170D02*
X143129000Y-90170000D01*
X142218175Y-91013170D02*
X142285830Y-91013170D01*
%TO.N,A0*%
X145923000Y-86995000D02*
X146050000Y-86868000D01*
X145923000Y-90170000D02*
X145923000Y-86995000D01*
X137464800Y-95605600D02*
X136296400Y-96774000D01*
X135077200Y-99044800D02*
X135046000Y-99076000D01*
X135077200Y-97790000D02*
X135077200Y-99044800D01*
X146899210Y-91146210D02*
X145923000Y-90170000D01*
X146899210Y-92978390D02*
X146899210Y-91146210D01*
X144119600Y-95758000D02*
X146899210Y-92978390D01*
%TO.N,Net-(U1-Pad6)*%
X129738000Y-108153200D02*
X129738000Y-109423200D01*
%TO.N,BassOUT*%
X133400800Y-108056600D02*
X133400800Y-106527600D01*
X135692000Y-109397800D02*
X134742000Y-109397800D01*
X134742000Y-109397800D02*
X133400800Y-108056600D01*
X124430000Y-99060000D02*
X121920000Y-101570000D01*
X121920000Y-101570000D02*
X121920000Y-102514400D01*
X123748800Y-104343200D02*
X130403600Y-104343200D01*
X121920000Y-102514400D02*
X123748800Y-104343200D01*
%TO.N,Net-(U3-Pad6)*%
X142692000Y-108127800D02*
X142692000Y-109397800D01*
%TO.N,Net-(C6-Pad2)*%
X125926790Y-98083790D02*
X126903000Y-99060000D01*
X123531210Y-98083790D02*
X125926790Y-98083790D01*
X122555000Y-99060000D02*
X123531210Y-98083790D01*
%TO.N,Net-(C9-Pad2)*%
X157431500Y-100076000D02*
X157431500Y-97409000D01*
X157431500Y-100076000D02*
X155567700Y-101939800D01*
X155567700Y-101939800D02*
X155549600Y-101939800D01*
X136377800Y-106172000D02*
X135692000Y-106857800D01*
X145186400Y-106172000D02*
X136377800Y-106172000D01*
%TO.N,Net-(C9-Pad1)*%
X159306500Y-102616000D02*
X159306500Y-100076000D01*
%TO.N,Net-(J5-Pad3)*%
X132689600Y-85090000D02*
X136296400Y-88696800D01*
X136296400Y-88696800D02*
X137023400Y-88696800D01*
X149555200Y-98001536D02*
X149555200Y-95961200D01*
X149555200Y-98460018D02*
X149555200Y-98001536D01*
X157431500Y-102616000D02*
X153711182Y-102616000D01*
X153711182Y-102616000D02*
X149555200Y-98460018D01*
%TO.N,Net-(R16-Pad1)*%
X159306500Y-97409000D02*
X159306500Y-98147900D01*
X159306500Y-98147900D02*
X158800800Y-98653600D01*
X155448000Y-99568000D02*
X154940000Y-100076000D01*
X155448000Y-98907600D02*
X155448000Y-99568000D01*
X154940000Y-100076000D02*
X154940000Y-100634800D01*
X154940000Y-100634800D02*
X154381200Y-101193600D01*
X135992000Y-108427800D02*
X135692000Y-108127800D01*
X140032388Y-107551590D02*
X139156178Y-108427800D01*
X145702390Y-107551590D02*
X140032388Y-107551590D01*
X139156178Y-108427800D02*
X135992000Y-108427800D01*
X145948400Y-107797600D02*
X145702390Y-107551590D01*
%TO.N,MasterA1*%
X137795000Y-87503000D02*
X138430000Y-86868000D01*
X137795000Y-90170000D02*
X137795000Y-87503000D01*
X137795000Y-88450222D02*
X140453423Y-85791799D01*
X148259800Y-87485022D02*
X148259800Y-91389200D01*
X137795000Y-90170000D02*
X137795000Y-88450222D01*
X140453423Y-85791799D02*
X146566577Y-85791799D01*
X146566577Y-85791799D02*
X148259800Y-87485022D01*
X148208162Y-99576000D02*
X147361000Y-99576000D01*
X148337201Y-99446961D02*
X148208162Y-99576000D01*
X148337201Y-93778001D02*
X148337201Y-99446961D01*
X148133155Y-93573955D02*
X148337201Y-93778001D01*
%TO.N,MasterA0*%
X140589000Y-87249000D02*
X140970000Y-86868000D01*
X140589000Y-90170000D02*
X140589000Y-87249000D01*
X142961000Y-99076000D02*
X142961000Y-97587692D01*
X142961000Y-97587692D02*
X140695054Y-95321746D01*
X140589000Y-90384773D02*
X140589000Y-90170000D01*
X141532246Y-93678646D02*
X139703446Y-93678646D01*
X139703446Y-93678646D02*
X139192000Y-93167200D01*
X139928600Y-90170000D02*
X140589000Y-90170000D01*
X139242800Y-89484200D02*
X139928600Y-90170000D01*
%TD*%
%TA.AperFunction,Conductor*%
%TO.N,GND*%
G36*
X163264121Y-76728002D02*
G01*
X163310614Y-76781658D01*
X163322000Y-76834000D01*
X163322000Y-113031000D01*
X163301998Y-113099121D01*
X163248342Y-113145614D01*
X163196000Y-113157000D01*
X106679000Y-113157000D01*
X106610879Y-113136998D01*
X106564386Y-113083342D01*
X106553000Y-113031000D01*
X106553000Y-107997895D01*
X113531651Y-107997895D01*
X113531948Y-108003048D01*
X113531948Y-108003051D01*
X113541856Y-108174879D01*
X113544510Y-108220915D01*
X113545647Y-108225961D01*
X113545648Y-108225967D01*
X113565167Y-108312577D01*
X113593622Y-108438839D01*
X113677666Y-108645816D01*
X113717002Y-108710007D01*
X113791691Y-108831888D01*
X113794387Y-108836288D01*
X113940650Y-109005138D01*
X114112526Y-109147832D01*
X114305400Y-109260538D01*
X114514092Y-109340230D01*
X114519160Y-109341261D01*
X114519163Y-109341262D01*
X114599748Y-109357657D01*
X114732997Y-109384767D01*
X114738172Y-109384957D01*
X114738174Y-109384957D01*
X114951073Y-109392764D01*
X114951077Y-109392764D01*
X114956237Y-109392953D01*
X114961357Y-109392297D01*
X114961359Y-109392297D01*
X115172688Y-109365225D01*
X115172689Y-109365225D01*
X115177816Y-109364568D01*
X115182766Y-109363083D01*
X115386829Y-109301861D01*
X115386834Y-109301859D01*
X115391784Y-109300374D01*
X115592394Y-109202096D01*
X115774260Y-109072373D01*
X115932496Y-108914689D01*
X115991994Y-108831889D01*
X116062853Y-108733277D01*
X116064176Y-108734228D01*
X116111045Y-108691057D01*
X116180980Y-108678825D01*
X116246426Y-108706344D01*
X116274275Y-108738194D01*
X116280097Y-108747694D01*
X116334387Y-108836288D01*
X116480650Y-109005138D01*
X116652526Y-109147832D01*
X116845400Y-109260538D01*
X117054092Y-109340230D01*
X117059160Y-109341261D01*
X117059163Y-109341262D01*
X117139748Y-109357657D01*
X117272997Y-109384767D01*
X117278172Y-109384957D01*
X117278174Y-109384957D01*
X117491073Y-109392764D01*
X117491077Y-109392764D01*
X117496237Y-109392953D01*
X117501357Y-109392297D01*
X117501359Y-109392297D01*
X117712688Y-109365225D01*
X117712689Y-109365225D01*
X117717816Y-109364568D01*
X117722766Y-109363083D01*
X117926829Y-109301861D01*
X117926834Y-109301859D01*
X117931784Y-109300374D01*
X118132394Y-109202096D01*
X118314260Y-109072373D01*
X118472496Y-108914689D01*
X118531994Y-108831889D01*
X118599835Y-108737477D01*
X118602853Y-108733277D01*
X118608007Y-108722850D01*
X118699536Y-108537653D01*
X118699537Y-108537651D01*
X118701830Y-108533011D01*
X118757698Y-108349128D01*
X118765265Y-108324223D01*
X118765265Y-108324221D01*
X118766770Y-108319269D01*
X118795929Y-108097790D01*
X118796104Y-108090626D01*
X118797474Y-108034565D01*
X118797474Y-108034561D01*
X118797556Y-108031200D01*
X118779252Y-107808561D01*
X118724831Y-107591902D01*
X118635754Y-107387040D01*
X118556019Y-107263788D01*
X118517222Y-107203817D01*
X118517220Y-107203814D01*
X118514414Y-107199477D01*
X118364070Y-107034251D01*
X118360019Y-107031052D01*
X118360015Y-107031048D01*
X118192814Y-106899000D01*
X118192810Y-106898998D01*
X118188759Y-106895798D01*
X118147453Y-106872996D01*
X118097484Y-106822564D01*
X118082712Y-106753121D01*
X118107828Y-106686716D01*
X118135180Y-106660109D01*
X118186936Y-106623192D01*
X118314260Y-106532373D01*
X118358532Y-106488256D01*
X118468835Y-106378337D01*
X118472496Y-106374689D01*
X118503607Y-106331394D01*
X118599835Y-106197477D01*
X118602853Y-106193277D01*
X118609757Y-106179309D01*
X118699536Y-105997653D01*
X118699537Y-105997651D01*
X118701830Y-105993011D01*
X118766770Y-105779269D01*
X118795929Y-105557790D01*
X118797556Y-105491200D01*
X118779252Y-105268561D01*
X118724831Y-105051902D01*
X118635754Y-104847040D01*
X118574486Y-104752334D01*
X118517222Y-104663817D01*
X118517220Y-104663814D01*
X118514414Y-104659477D01*
X118364070Y-104494251D01*
X118360019Y-104491052D01*
X118360015Y-104491048D01*
X118192814Y-104359000D01*
X118192810Y-104358998D01*
X118188759Y-104355798D01*
X118147453Y-104332996D01*
X118097484Y-104282564D01*
X118082712Y-104213121D01*
X118107828Y-104146716D01*
X118135180Y-104120109D01*
X118179003Y-104088850D01*
X118314260Y-103992373D01*
X118472496Y-103834689D01*
X118479818Y-103824500D01*
X118599835Y-103657477D01*
X118602853Y-103653277D01*
X118620238Y-103618102D01*
X118699536Y-103457653D01*
X118699537Y-103457651D01*
X118701830Y-103453011D01*
X118752322Y-103286824D01*
X118765265Y-103244223D01*
X118765265Y-103244221D01*
X118766770Y-103239269D01*
X118795929Y-103017790D01*
X118796512Y-102993949D01*
X118797474Y-102954565D01*
X118797474Y-102954561D01*
X118797556Y-102951200D01*
X118779252Y-102728561D01*
X118724831Y-102511902D01*
X118635754Y-102307040D01*
X118596306Y-102246062D01*
X118517222Y-102123817D01*
X118517220Y-102123814D01*
X118514414Y-102119477D01*
X118364070Y-101954251D01*
X118360019Y-101951052D01*
X118360015Y-101951048D01*
X118192814Y-101819000D01*
X118192810Y-101818998D01*
X118188759Y-101815798D01*
X118147453Y-101792996D01*
X118097484Y-101742564D01*
X118082712Y-101673121D01*
X118107828Y-101606716D01*
X118135180Y-101580109D01*
X118188318Y-101542206D01*
X118314260Y-101452373D01*
X118321568Y-101445091D01*
X118468835Y-101298337D01*
X118472496Y-101294689D01*
X118476111Y-101289659D01*
X118599835Y-101117477D01*
X118602853Y-101113277D01*
X118621178Y-101076200D01*
X118699536Y-100917653D01*
X118699537Y-100917651D01*
X118701830Y-100913011D01*
X118747409Y-100762992D01*
X118765265Y-100704223D01*
X118765265Y-100704221D01*
X118766770Y-100699269D01*
X118795929Y-100477790D01*
X118796267Y-100463944D01*
X118797474Y-100414565D01*
X118797474Y-100414561D01*
X118797556Y-100411200D01*
X118779252Y-100188561D01*
X118724831Y-99971902D01*
X118635754Y-99767040D01*
X118596306Y-99706062D01*
X118517222Y-99583817D01*
X118517220Y-99583814D01*
X118514414Y-99579477D01*
X118364070Y-99414251D01*
X118360019Y-99411052D01*
X118360015Y-99411048D01*
X118192814Y-99279000D01*
X118192810Y-99278998D01*
X118188759Y-99275798D01*
X118147453Y-99252996D01*
X118097484Y-99202564D01*
X118082712Y-99133121D01*
X118107828Y-99066716D01*
X118135180Y-99040109D01*
X118179003Y-99008850D01*
X118314260Y-98912373D01*
X118323808Y-98902859D01*
X118427193Y-98799834D01*
X118472496Y-98754689D01*
X118503607Y-98711394D01*
X118599835Y-98577477D01*
X118602853Y-98573277D01*
X118610184Y-98558445D01*
X118699536Y-98377653D01*
X118699537Y-98377651D01*
X118701830Y-98373011D01*
X118741373Y-98242860D01*
X118765265Y-98164223D01*
X118765265Y-98164221D01*
X118766770Y-98159269D01*
X118795929Y-97937790D01*
X118796401Y-97918483D01*
X118797521Y-97872641D01*
X118819181Y-97805029D01*
X118873956Y-97759861D01*
X118897285Y-97752473D01*
X118928824Y-97745769D01*
X118928833Y-97745766D01*
X118935288Y-97744394D01*
X119013291Y-97709665D01*
X119103722Y-97669403D01*
X119103724Y-97669402D01*
X119109752Y-97666718D01*
X119116106Y-97662102D01*
X119192449Y-97606635D01*
X119264253Y-97554466D01*
X119311504Y-97501988D01*
X119371947Y-97464750D01*
X119405138Y-97460300D01*
X120863620Y-97460300D01*
X120931741Y-97480302D01*
X120952715Y-97497205D01*
X121124637Y-97669127D01*
X121158663Y-97731439D01*
X121160852Y-97771392D01*
X121158896Y-97790000D01*
X121159586Y-97796565D01*
X121171712Y-97911933D01*
X121178858Y-97979928D01*
X121237873Y-98161556D01*
X121241176Y-98167278D01*
X121241177Y-98167279D01*
X121269567Y-98216451D01*
X121333360Y-98326944D01*
X121337778Y-98331851D01*
X121337779Y-98331852D01*
X121448163Y-98454446D01*
X121461147Y-98468866D01*
X121507061Y-98502224D01*
X121550415Y-98558445D01*
X121559000Y-98604160D01*
X121559001Y-99090963D01*
X121559001Y-99566230D01*
X121569884Y-99671129D01*
X121572063Y-99677660D01*
X121572064Y-99677665D01*
X121621490Y-99825811D01*
X121625398Y-99837526D01*
X121717703Y-99986689D01*
X121841847Y-100110617D01*
X121991171Y-100202661D01*
X121998119Y-100204965D01*
X121998122Y-100204967D01*
X122149738Y-100255256D01*
X122208098Y-100295687D01*
X122235335Y-100361251D01*
X122222801Y-100431133D01*
X122199166Y-100463944D01*
X121539497Y-101123613D01*
X121527106Y-101134480D01*
X121502987Y-101152987D01*
X121454415Y-101216288D01*
X121409266Y-101275127D01*
X121406108Y-101282752D01*
X121406106Y-101282755D01*
X121400195Y-101297027D01*
X121400194Y-101297030D01*
X121350350Y-101417363D01*
X121349272Y-101425551D01*
X121336428Y-101523117D01*
X121335743Y-101528317D01*
X121330255Y-101570000D01*
X121331847Y-101582096D01*
X121334222Y-101600133D01*
X121335300Y-101616579D01*
X121335300Y-101713020D01*
X121315298Y-101781141D01*
X121261642Y-101827634D01*
X121191368Y-101837738D01*
X121126788Y-101808244D01*
X121120205Y-101802115D01*
X120784963Y-101466873D01*
X120750937Y-101404561D01*
X120748748Y-101364605D01*
X120749281Y-101359541D01*
X120750704Y-101346000D01*
X120749686Y-101336316D01*
X120731432Y-101162635D01*
X120731432Y-101162633D01*
X120730742Y-101156072D01*
X120671727Y-100974444D01*
X120661886Y-100957398D01*
X120630106Y-100902355D01*
X120576240Y-100809056D01*
X120558780Y-100789664D01*
X120452875Y-100672045D01*
X120452874Y-100672044D01*
X120448453Y-100667134D01*
X120327167Y-100579014D01*
X120299294Y-100558763D01*
X120299293Y-100558762D01*
X120293952Y-100554882D01*
X120287924Y-100552198D01*
X120287922Y-100552197D01*
X120125519Y-100479891D01*
X120125518Y-100479891D01*
X120119488Y-100477206D01*
X120010073Y-100453949D01*
X119939144Y-100438872D01*
X119939139Y-100438872D01*
X119932687Y-100437500D01*
X119741713Y-100437500D01*
X119735261Y-100438872D01*
X119735256Y-100438872D01*
X119664327Y-100453949D01*
X119554912Y-100477206D01*
X119548882Y-100479891D01*
X119548881Y-100479891D01*
X119386478Y-100552197D01*
X119386476Y-100552198D01*
X119380448Y-100554882D01*
X119375107Y-100558762D01*
X119375106Y-100558763D01*
X119347233Y-100579014D01*
X119225947Y-100667134D01*
X119221526Y-100672044D01*
X119221525Y-100672045D01*
X119115621Y-100789664D01*
X119098160Y-100809056D01*
X119044294Y-100902355D01*
X119012515Y-100957398D01*
X119002673Y-100974444D01*
X118943658Y-101156072D01*
X118942968Y-101162633D01*
X118942968Y-101162635D01*
X118924714Y-101336316D01*
X118923696Y-101346000D01*
X118924386Y-101352562D01*
X118924386Y-101352565D01*
X118942312Y-101523117D01*
X118943658Y-101535928D01*
X119002673Y-101717556D01*
X119005976Y-101723278D01*
X119005977Y-101723279D01*
X119013692Y-101736642D01*
X119098160Y-101882944D01*
X119102578Y-101887851D01*
X119102579Y-101887852D01*
X119221525Y-102019955D01*
X119225947Y-102024866D01*
X119234803Y-102031300D01*
X119350910Y-102115657D01*
X119380448Y-102137118D01*
X119386476Y-102139802D01*
X119386478Y-102139803D01*
X119547832Y-102211642D01*
X119554912Y-102214794D01*
X119639736Y-102232824D01*
X119735256Y-102253128D01*
X119735261Y-102253128D01*
X119741713Y-102254500D01*
X119866620Y-102254500D01*
X119934741Y-102274502D01*
X119955715Y-102291405D01*
X122264137Y-104599828D01*
X122298163Y-104662140D01*
X122293098Y-104732956D01*
X122249103Y-104790858D01*
X122221037Y-104811250D01*
X122128096Y-104878776D01*
X122121547Y-104883534D01*
X121993760Y-105025456D01*
X121898273Y-105190844D01*
X121839258Y-105372472D01*
X121819296Y-105562400D01*
X121819986Y-105568965D01*
X121837593Y-105736482D01*
X121839258Y-105752328D01*
X121872178Y-105853645D01*
X121895223Y-105924569D01*
X121897251Y-105995536D01*
X121860588Y-106056334D01*
X121810542Y-106084502D01*
X121682014Y-106121842D01*
X121682009Y-106121844D01*
X121674399Y-106124055D01*
X121667572Y-106128092D01*
X121667573Y-106128092D01*
X121538020Y-106204709D01*
X121538017Y-106204711D01*
X121531193Y-106208747D01*
X121413547Y-106326393D01*
X121409511Y-106333217D01*
X121409509Y-106333220D01*
X121382827Y-106378337D01*
X121328855Y-106469599D01*
X121282438Y-106629369D01*
X121281934Y-106635774D01*
X121281933Y-106635779D01*
X121279862Y-106662096D01*
X121279500Y-106666698D01*
X121279500Y-107099702D01*
X121279693Y-107102150D01*
X121279693Y-107102158D01*
X121281563Y-107125911D01*
X121282438Y-107137031D01*
X121301841Y-107203817D01*
X121325230Y-107284322D01*
X121328855Y-107296801D01*
X121413547Y-107440007D01*
X121416229Y-107442689D01*
X121441502Y-107507061D01*
X121427600Y-107576684D01*
X121417428Y-107592512D01*
X121413547Y-107596393D01*
X121328855Y-107739599D01*
X121326644Y-107747210D01*
X121326643Y-107747212D01*
X121320185Y-107769442D01*
X121282438Y-107899369D01*
X121281934Y-107905774D01*
X121281933Y-107905779D01*
X121279952Y-107930956D01*
X121279500Y-107936698D01*
X121279500Y-108369702D01*
X121279693Y-108372150D01*
X121279693Y-108372158D01*
X121281483Y-108394891D01*
X121282438Y-108407031D01*
X121300958Y-108470779D01*
X121326643Y-108559186D01*
X121328855Y-108566801D01*
X121413547Y-108710007D01*
X121416229Y-108712689D01*
X121441502Y-108777061D01*
X121427600Y-108846684D01*
X121417428Y-108862512D01*
X121413547Y-108866393D01*
X121328855Y-109009599D01*
X121326644Y-109017210D01*
X121326643Y-109017212D01*
X121311676Y-109068729D01*
X121282438Y-109169369D01*
X121281934Y-109175774D01*
X121281933Y-109175779D01*
X121279862Y-109202096D01*
X121279500Y-109206698D01*
X121279500Y-109639702D01*
X121279693Y-109642150D01*
X121279693Y-109642158D01*
X121279995Y-109645988D01*
X121282438Y-109677031D01*
X121284232Y-109683207D01*
X121284233Y-109683211D01*
X121291506Y-109708245D01*
X121291303Y-109779241D01*
X121252749Y-109838857D01*
X121188084Y-109868165D01*
X121117839Y-109857860D01*
X121110777Y-109854206D01*
X121106752Y-109851282D01*
X121100722Y-109848597D01*
X120938319Y-109776291D01*
X120938318Y-109776291D01*
X120932288Y-109773606D01*
X120838887Y-109753753D01*
X120751944Y-109735272D01*
X120751939Y-109735272D01*
X120745487Y-109733900D01*
X120554513Y-109733900D01*
X120548061Y-109735272D01*
X120548056Y-109735272D01*
X120461113Y-109753753D01*
X120367712Y-109773606D01*
X120361682Y-109776291D01*
X120361681Y-109776291D01*
X120199278Y-109848597D01*
X120199276Y-109848598D01*
X120193248Y-109851282D01*
X120187907Y-109855162D01*
X120187906Y-109855163D01*
X120166721Y-109870555D01*
X120038747Y-109963534D01*
X120034326Y-109968444D01*
X120034325Y-109968445D01*
X119953960Y-110057700D01*
X119910960Y-110105456D01*
X119815473Y-110270844D01*
X119756458Y-110452472D01*
X119755768Y-110459033D01*
X119755768Y-110459035D01*
X119751119Y-110503272D01*
X119736496Y-110642400D01*
X119737186Y-110648965D01*
X119750073Y-110771574D01*
X119756458Y-110832328D01*
X119815473Y-111013956D01*
X119818776Y-111019678D01*
X119818777Y-111019679D01*
X119824127Y-111028945D01*
X119910960Y-111179344D01*
X119915378Y-111184251D01*
X119915379Y-111184252D01*
X120028031Y-111309365D01*
X120038747Y-111321266D01*
X120129152Y-111386949D01*
X120187246Y-111429157D01*
X120193248Y-111433518D01*
X120199276Y-111436202D01*
X120199278Y-111436203D01*
X120346388Y-111501700D01*
X120367712Y-111511194D01*
X120461113Y-111531047D01*
X120548056Y-111549528D01*
X120548061Y-111549528D01*
X120554513Y-111550900D01*
X120745487Y-111550900D01*
X120751939Y-111549528D01*
X120751944Y-111549528D01*
X120838888Y-111531047D01*
X120932288Y-111511194D01*
X120953612Y-111501700D01*
X121100722Y-111436203D01*
X121100724Y-111436202D01*
X121106752Y-111433518D01*
X121112755Y-111429157D01*
X121170848Y-111386949D01*
X121261253Y-111321266D01*
X121278327Y-111302303D01*
X121338772Y-111265063D01*
X121409755Y-111266414D01*
X121461058Y-111297518D01*
X121531193Y-111367653D01*
X121538017Y-111371689D01*
X121538020Y-111371691D01*
X121623846Y-111422448D01*
X121674399Y-111452345D01*
X121682010Y-111454556D01*
X121682012Y-111454557D01*
X121695667Y-111458524D01*
X121834169Y-111498762D01*
X121840574Y-111499266D01*
X121840579Y-111499267D01*
X121869042Y-111501507D01*
X121869050Y-111501507D01*
X121871498Y-111501700D01*
X122667418Y-111501700D01*
X122735539Y-111521702D01*
X122756513Y-111538604D01*
X122952017Y-111734107D01*
X122962886Y-111746501D01*
X122981387Y-111770613D01*
X123012051Y-111794142D01*
X123012052Y-111794143D01*
X123103528Y-111864334D01*
X123245763Y-111923250D01*
X123398400Y-111943346D01*
X123428538Y-111939378D01*
X123444985Y-111938300D01*
X123527532Y-111938300D01*
X123595653Y-111958302D01*
X123621164Y-111979985D01*
X123645547Y-112007066D01*
X123744643Y-112079064D01*
X123768784Y-112096603D01*
X123800048Y-112119318D01*
X123806076Y-112122002D01*
X123806078Y-112122003D01*
X123917462Y-112171594D01*
X123974512Y-112196994D01*
X124067912Y-112216847D01*
X124154856Y-112235328D01*
X124154861Y-112235328D01*
X124161313Y-112236700D01*
X124352287Y-112236700D01*
X124358739Y-112235328D01*
X124358744Y-112235328D01*
X124445687Y-112216847D01*
X124539088Y-112196994D01*
X124596138Y-112171594D01*
X124707522Y-112122003D01*
X124707524Y-112122002D01*
X124713552Y-112119318D01*
X124744817Y-112096603D01*
X124768957Y-112079064D01*
X124868053Y-112007066D01*
X124926397Y-111942268D01*
X124991421Y-111870052D01*
X124991422Y-111870051D01*
X124995840Y-111865144D01*
X125091327Y-111699756D01*
X125150342Y-111518128D01*
X125152142Y-111501007D01*
X125169614Y-111334765D01*
X125170304Y-111328200D01*
X125153818Y-111171341D01*
X125151032Y-111144835D01*
X125151032Y-111144833D01*
X125150342Y-111138272D01*
X125092116Y-110959071D01*
X128286456Y-110959071D01*
X128327107Y-111098990D01*
X128333352Y-111113421D01*
X128409911Y-111242878D01*
X128419551Y-111255304D01*
X128525896Y-111361649D01*
X128538322Y-111371289D01*
X128667779Y-111447848D01*
X128682210Y-111454093D01*
X128828065Y-111496469D01*
X128840667Y-111498770D01*
X128869084Y-111501007D01*
X128874014Y-111501200D01*
X129465885Y-111501200D01*
X129481124Y-111496725D01*
X129482329Y-111495335D01*
X129484000Y-111487652D01*
X129484000Y-111483084D01*
X129992000Y-111483084D01*
X129996475Y-111498323D01*
X129997865Y-111499528D01*
X130005548Y-111501199D01*
X130601984Y-111501199D01*
X130606920Y-111501005D01*
X130635336Y-111498770D01*
X130647931Y-111496470D01*
X130793790Y-111454093D01*
X130808221Y-111447848D01*
X130937678Y-111371289D01*
X130950104Y-111361649D01*
X131056449Y-111255304D01*
X131066089Y-111242878D01*
X131142648Y-111113421D01*
X131148893Y-111098990D01*
X131187939Y-110964595D01*
X131187899Y-110950494D01*
X131180630Y-110947200D01*
X130010115Y-110947200D01*
X129994876Y-110951675D01*
X129993671Y-110953065D01*
X129992000Y-110960748D01*
X129992000Y-111483084D01*
X129484000Y-111483084D01*
X129484000Y-110965315D01*
X129479525Y-110950076D01*
X129478135Y-110948871D01*
X129470452Y-110947200D01*
X128301122Y-110947200D01*
X128287591Y-110951173D01*
X128286456Y-110959071D01*
X125092116Y-110959071D01*
X125091327Y-110956644D01*
X125085875Y-110947200D01*
X125024926Y-110841635D01*
X124995840Y-110791256D01*
X124868053Y-110649334D01*
X124713552Y-110537082D01*
X124707524Y-110534398D01*
X124707522Y-110534397D01*
X124545119Y-110462091D01*
X124545118Y-110462091D01*
X124539088Y-110459406D01*
X124428530Y-110435906D01*
X124358744Y-110421072D01*
X124358739Y-110421072D01*
X124352287Y-110419700D01*
X124282452Y-110419700D01*
X124214331Y-110399698D01*
X124167838Y-110346042D01*
X124161455Y-110328854D01*
X124149356Y-110287210D01*
X124147145Y-110279599D01*
X124098909Y-110198037D01*
X124081450Y-110129224D01*
X124103966Y-110061892D01*
X124159311Y-110017423D01*
X124207363Y-110007900D01*
X125089622Y-110007900D01*
X125106069Y-110008978D01*
X125136200Y-110012945D01*
X125174519Y-110007900D01*
X125174524Y-110007900D01*
X125280649Y-109993928D01*
X125288837Y-109992850D01*
X125389413Y-109951190D01*
X125423445Y-109937094D01*
X125423447Y-109937093D01*
X125431073Y-109933934D01*
X125480768Y-109895801D01*
X125553213Y-109840213D01*
X125558239Y-109833663D01*
X125558243Y-109833659D01*
X125571723Y-109816091D01*
X125582591Y-109803699D01*
X126881485Y-108504805D01*
X126943797Y-108470779D01*
X126970580Y-108467900D01*
X127095487Y-108467900D01*
X127101939Y-108466528D01*
X127101944Y-108466528D01*
X127209691Y-108443625D01*
X127282288Y-108428194D01*
X127288319Y-108425509D01*
X127450722Y-108353203D01*
X127450724Y-108353202D01*
X127456752Y-108350518D01*
X127476889Y-108335888D01*
X127560469Y-108275163D01*
X127611253Y-108238266D01*
X127631529Y-108215747D01*
X127734621Y-108101252D01*
X127734622Y-108101251D01*
X127739040Y-108096344D01*
X127834527Y-107930956D01*
X127893542Y-107749328D01*
X127911262Y-107580729D01*
X127938275Y-107515073D01*
X127996497Y-107474443D01*
X128036572Y-107467900D01*
X128268637Y-107467900D01*
X128336758Y-107487902D01*
X128383251Y-107541558D01*
X128393355Y-107611832D01*
X128377092Y-107658036D01*
X128328855Y-107739599D01*
X128326644Y-107747210D01*
X128326643Y-107747212D01*
X128320185Y-107769442D01*
X128282438Y-107899369D01*
X128281934Y-107905774D01*
X128281933Y-107905779D01*
X128279952Y-107930956D01*
X128279500Y-107936698D01*
X128279500Y-108369702D01*
X128279693Y-108372150D01*
X128279693Y-108372158D01*
X128281483Y-108394891D01*
X128282438Y-108407031D01*
X128300958Y-108470779D01*
X128326643Y-108559186D01*
X128328855Y-108566801D01*
X128413547Y-108710007D01*
X128416229Y-108712689D01*
X128441502Y-108777061D01*
X128427600Y-108846684D01*
X128417428Y-108862512D01*
X128413547Y-108866393D01*
X128328855Y-109009599D01*
X128326644Y-109017210D01*
X128326643Y-109017212D01*
X128311676Y-109068729D01*
X128282438Y-109169369D01*
X128281934Y-109175774D01*
X128281933Y-109175779D01*
X128279862Y-109202096D01*
X128279500Y-109206698D01*
X128279500Y-109639702D01*
X128279693Y-109642150D01*
X128279693Y-109642158D01*
X128279995Y-109645988D01*
X128282438Y-109677031D01*
X128301902Y-109744028D01*
X128319265Y-109803790D01*
X128328855Y-109836801D01*
X128332892Y-109843627D01*
X128394486Y-109947776D01*
X128413547Y-109980007D01*
X128416487Y-109982947D01*
X128441820Y-110047466D01*
X128427921Y-110117089D01*
X128415874Y-110135836D01*
X128409910Y-110143524D01*
X128333352Y-110272979D01*
X128327107Y-110287410D01*
X128288061Y-110421805D01*
X128288101Y-110435906D01*
X128295370Y-110439200D01*
X131174878Y-110439200D01*
X131188409Y-110435227D01*
X131189544Y-110427329D01*
X131148893Y-110287410D01*
X131142648Y-110272979D01*
X131066089Y-110143523D01*
X131060129Y-110135840D01*
X131034180Y-110069756D01*
X131048078Y-110000133D01*
X131058421Y-109984039D01*
X131062453Y-109980007D01*
X131147145Y-109836801D01*
X131156736Y-109803790D01*
X131174098Y-109744028D01*
X131193562Y-109677031D01*
X131196006Y-109645988D01*
X131196307Y-109642158D01*
X131196307Y-109642150D01*
X131196500Y-109639702D01*
X131196500Y-109206698D01*
X131196138Y-109202096D01*
X131194067Y-109175779D01*
X131194066Y-109175774D01*
X131193562Y-109169369D01*
X131164324Y-109068729D01*
X131149357Y-109017212D01*
X131149356Y-109017210D01*
X131147145Y-109009599D01*
X131062453Y-108866393D01*
X131059771Y-108863711D01*
X131034498Y-108799339D01*
X131048400Y-108729716D01*
X131058572Y-108713888D01*
X131062453Y-108710007D01*
X131147145Y-108566801D01*
X131149357Y-108559188D01*
X131149358Y-108559186D01*
X131186912Y-108429921D01*
X131225125Y-108370085D01*
X131289621Y-108340407D01*
X131334106Y-108341827D01*
X131368447Y-108349127D01*
X131368460Y-108349128D01*
X131374913Y-108350500D01*
X131565887Y-108350500D01*
X131572339Y-108349128D01*
X131572344Y-108349128D01*
X131660036Y-108330488D01*
X131752688Y-108310794D01*
X131758719Y-108308109D01*
X131921122Y-108235803D01*
X131921124Y-108235802D01*
X131927152Y-108233118D01*
X131936995Y-108225967D01*
X132007311Y-108174879D01*
X132081653Y-108120866D01*
X132162389Y-108031200D01*
X132205021Y-107983852D01*
X132205022Y-107983851D01*
X132209440Y-107978944D01*
X132304927Y-107813556D01*
X132363942Y-107631928D01*
X132366492Y-107607672D01*
X132383214Y-107448565D01*
X132383904Y-107442000D01*
X132374522Y-107352738D01*
X132364632Y-107258635D01*
X132364632Y-107258633D01*
X132363942Y-107252072D01*
X132304927Y-107070444D01*
X132209440Y-106905056D01*
X132198859Y-106893304D01*
X132086075Y-106768045D01*
X132086074Y-106768044D01*
X132081653Y-106763134D01*
X131976473Y-106686716D01*
X131932494Y-106654763D01*
X131932493Y-106654762D01*
X131927152Y-106650882D01*
X131921124Y-106648198D01*
X131921122Y-106648197D01*
X131758719Y-106575891D01*
X131758718Y-106575891D01*
X131752688Y-106573206D01*
X131649262Y-106551222D01*
X131572344Y-106534872D01*
X131572339Y-106534872D01*
X131565887Y-106533500D01*
X131374913Y-106533500D01*
X131368461Y-106534872D01*
X131368456Y-106534872D01*
X131316952Y-106545820D01*
X131291538Y-106551222D01*
X131220748Y-106545820D01*
X131164116Y-106503003D01*
X131149707Y-106478019D01*
X131149355Y-106477205D01*
X131147145Y-106469599D01*
X131093173Y-106378337D01*
X131066491Y-106333220D01*
X131066489Y-106333217D01*
X131062453Y-106326393D01*
X130944807Y-106208747D01*
X130937983Y-106204711D01*
X130937980Y-106204709D01*
X130808427Y-106128092D01*
X130808428Y-106128092D01*
X130801601Y-106124055D01*
X130793990Y-106121844D01*
X130793988Y-106121843D01*
X130722344Y-106101029D01*
X130641831Y-106077638D01*
X130635426Y-106077134D01*
X130635421Y-106077133D01*
X130606958Y-106074893D01*
X130606950Y-106074893D01*
X130604502Y-106074700D01*
X128871498Y-106074700D01*
X128869050Y-106074893D01*
X128869042Y-106074893D01*
X128840579Y-106077133D01*
X128840574Y-106077134D01*
X128834169Y-106077638D01*
X128753656Y-106101029D01*
X128682012Y-106121843D01*
X128682010Y-106121844D01*
X128674399Y-106124055D01*
X128667572Y-106128092D01*
X128667573Y-106128092D01*
X128538020Y-106204709D01*
X128538017Y-106204711D01*
X128531193Y-106208747D01*
X128478345Y-106261595D01*
X128416033Y-106295621D01*
X128389250Y-106298500D01*
X125668781Y-106298500D01*
X125600660Y-106278498D01*
X125579686Y-106261595D01*
X124461086Y-105142995D01*
X124427060Y-105080683D01*
X124432125Y-105009868D01*
X124474672Y-104953032D01*
X124541192Y-104928221D01*
X124550181Y-104927900D01*
X129651462Y-104927900D01*
X129719583Y-104947902D01*
X129745093Y-104969585D01*
X129792347Y-105022066D01*
X129946848Y-105134318D01*
X129952876Y-105137002D01*
X129952878Y-105137003D01*
X130115281Y-105209309D01*
X130121312Y-105211994D01*
X130209730Y-105230788D01*
X130301656Y-105250328D01*
X130301661Y-105250328D01*
X130308113Y-105251700D01*
X130499087Y-105251700D01*
X130505539Y-105250328D01*
X130505544Y-105250328D01*
X130597470Y-105230788D01*
X130685888Y-105211994D01*
X130691919Y-105209309D01*
X130854322Y-105137003D01*
X130854324Y-105137002D01*
X130860352Y-105134318D01*
X131014853Y-105022066D01*
X131062103Y-104969590D01*
X131138221Y-104885052D01*
X131138222Y-104885051D01*
X131142640Y-104880144D01*
X131227619Y-104732956D01*
X131234823Y-104720479D01*
X131234824Y-104720478D01*
X131238127Y-104714756D01*
X131297142Y-104533128D01*
X131303911Y-104468730D01*
X131316414Y-104349765D01*
X131317104Y-104343200D01*
X131311145Y-104286500D01*
X131297832Y-104159835D01*
X131297832Y-104159833D01*
X131297142Y-104153272D01*
X131238127Y-103971644D01*
X131142640Y-103806256D01*
X131126561Y-103788398D01*
X131015462Y-103665010D01*
X130984744Y-103601003D01*
X130993509Y-103530549D01*
X131038972Y-103476018D01*
X131109098Y-103454700D01*
X142467584Y-103454700D01*
X142484031Y-103455778D01*
X142514162Y-103459745D01*
X142552481Y-103454700D01*
X142552486Y-103454700D01*
X142658611Y-103440728D01*
X142666799Y-103439650D01*
X142778152Y-103393526D01*
X142809035Y-103380734D01*
X142860512Y-103341234D01*
X142931175Y-103287013D01*
X142936201Y-103280463D01*
X142936205Y-103280459D01*
X142949685Y-103262891D01*
X142960553Y-103250499D01*
X143178443Y-103032609D01*
X143240755Y-102998583D01*
X143311570Y-103003648D01*
X143368406Y-103046195D01*
X143393217Y-103112715D01*
X143387371Y-103160639D01*
X143380498Y-103181791D01*
X143380496Y-103181798D01*
X143378458Y-103188072D01*
X143377768Y-103194633D01*
X143377768Y-103194635D01*
X143363010Y-103335047D01*
X143358496Y-103378000D01*
X143359186Y-103384565D01*
X143376943Y-103553510D01*
X143378458Y-103567928D01*
X143437473Y-103749556D01*
X143440776Y-103755278D01*
X143440777Y-103755279D01*
X143457065Y-103783490D01*
X143532960Y-103914944D01*
X143537378Y-103919851D01*
X143537379Y-103919852D01*
X143643457Y-104037664D01*
X143660747Y-104056866D01*
X143815248Y-104169118D01*
X143821276Y-104171802D01*
X143821278Y-104171803D01*
X143958404Y-104232855D01*
X143989712Y-104246794D01*
X144083112Y-104266647D01*
X144170056Y-104285128D01*
X144170061Y-104285128D01*
X144176513Y-104286500D01*
X144367487Y-104286500D01*
X144373939Y-104285128D01*
X144373944Y-104285128D01*
X144460887Y-104266647D01*
X144554288Y-104246794D01*
X144585596Y-104232855D01*
X144722722Y-104171803D01*
X144722724Y-104171802D01*
X144728752Y-104169118D01*
X144883253Y-104056866D01*
X144930504Y-104004388D01*
X144990947Y-103967150D01*
X145024138Y-103962700D01*
X146873562Y-103962700D01*
X146941683Y-103982702D01*
X146988176Y-104036358D01*
X146998280Y-104106632D01*
X146967198Y-104173010D01*
X146900763Y-104246794D01*
X146885760Y-104263456D01*
X146790273Y-104428844D01*
X146731258Y-104610472D01*
X146730568Y-104617033D01*
X146730568Y-104617035D01*
X146716876Y-104747308D01*
X146711296Y-104800400D01*
X146713134Y-104817880D01*
X146713252Y-104819005D01*
X146700481Y-104888844D01*
X146677037Y-104921273D01*
X146037243Y-105561067D01*
X145974931Y-105595093D01*
X145904116Y-105590028D01*
X145854513Y-105556284D01*
X145797653Y-105493134D01*
X145643152Y-105380882D01*
X145637124Y-105378198D01*
X145637122Y-105378197D01*
X145474719Y-105305891D01*
X145474718Y-105305891D01*
X145468688Y-105303206D01*
X145375288Y-105283353D01*
X145288344Y-105264872D01*
X145288339Y-105264872D01*
X145281887Y-105263500D01*
X145090913Y-105263500D01*
X145084461Y-105264872D01*
X145084456Y-105264872D01*
X144997513Y-105283353D01*
X144904112Y-105303206D01*
X144898082Y-105305891D01*
X144898081Y-105305891D01*
X144735678Y-105378197D01*
X144735676Y-105378198D01*
X144729648Y-105380882D01*
X144575147Y-105493134D01*
X144527896Y-105545612D01*
X144467453Y-105582850D01*
X144434262Y-105587300D01*
X136424386Y-105587300D01*
X136407939Y-105586222D01*
X136385988Y-105583332D01*
X136377800Y-105582254D01*
X136225163Y-105602350D01*
X136082928Y-105661266D01*
X136013132Y-105714822D01*
X135960787Y-105754987D01*
X135955765Y-105761532D01*
X135942280Y-105779106D01*
X135931412Y-105791497D01*
X135710514Y-106012395D01*
X135648202Y-106046421D01*
X135621419Y-106049300D01*
X134825498Y-106049300D01*
X134823050Y-106049493D01*
X134823042Y-106049493D01*
X134794579Y-106051733D01*
X134794574Y-106051734D01*
X134788169Y-106052238D01*
X134702479Y-106077133D01*
X134636012Y-106096443D01*
X134636010Y-106096444D01*
X134628399Y-106098655D01*
X134608844Y-106110220D01*
X134492020Y-106179309D01*
X134492017Y-106179311D01*
X134485193Y-106183347D01*
X134448689Y-106219851D01*
X134386377Y-106253877D01*
X134315562Y-106248812D01*
X134258726Y-106206265D01*
X134239760Y-106169688D01*
X134237369Y-106162329D01*
X134235327Y-106156044D01*
X134215581Y-106121842D01*
X134194022Y-106084502D01*
X134139840Y-105990656D01*
X134012053Y-105848734D01*
X133857552Y-105736482D01*
X133851524Y-105733798D01*
X133851522Y-105733797D01*
X133689119Y-105661491D01*
X133689118Y-105661491D01*
X133683088Y-105658806D01*
X133571354Y-105635056D01*
X133502744Y-105620472D01*
X133502739Y-105620472D01*
X133496287Y-105619100D01*
X133305313Y-105619100D01*
X133298861Y-105620472D01*
X133298856Y-105620472D01*
X133230246Y-105635056D01*
X133118512Y-105658806D01*
X133112482Y-105661491D01*
X133112481Y-105661491D01*
X132950078Y-105733797D01*
X132950076Y-105733798D01*
X132944048Y-105736482D01*
X132789547Y-105848734D01*
X132661760Y-105990656D01*
X132607578Y-106084502D01*
X132586020Y-106121842D01*
X132566273Y-106156044D01*
X132507258Y-106337672D01*
X132506568Y-106344233D01*
X132506568Y-106344235D01*
X132494109Y-106462778D01*
X132487296Y-106527600D01*
X132487986Y-106534165D01*
X132504020Y-106686716D01*
X132507258Y-106717528D01*
X132566273Y-106899156D01*
X132661760Y-107064544D01*
X132666178Y-107069451D01*
X132666179Y-107069452D01*
X132691193Y-107097233D01*
X132759719Y-107173338D01*
X132783736Y-107200012D01*
X132814453Y-107264019D01*
X132816100Y-107284322D01*
X132816100Y-108010022D01*
X132815022Y-108026469D01*
X132811055Y-108056600D01*
X132816100Y-108094919D01*
X132816100Y-108094921D01*
X132831150Y-108209237D01*
X132858458Y-108275163D01*
X132890066Y-108351473D01*
X132895092Y-108358022D01*
X132895092Y-108358023D01*
X132908289Y-108375221D01*
X132917593Y-108387346D01*
X132983787Y-108473613D01*
X132990337Y-108478639D01*
X132990341Y-108478643D01*
X133007909Y-108492123D01*
X133020301Y-108502991D01*
X134241200Y-109723890D01*
X134273102Y-109777831D01*
X134282855Y-109811401D01*
X134299894Y-109840213D01*
X134346111Y-109918361D01*
X134363571Y-109987177D01*
X134341054Y-110054508D01*
X134285710Y-110098978D01*
X134237658Y-110108500D01*
X133701386Y-110108500D01*
X133684939Y-110107422D01*
X133662988Y-110104532D01*
X133654800Y-110103454D01*
X133502163Y-110123550D01*
X133359928Y-110182466D01*
X133297485Y-110230380D01*
X133237787Y-110276187D01*
X133232765Y-110282732D01*
X133219280Y-110300306D01*
X133208412Y-110312697D01*
X133163714Y-110357395D01*
X133101402Y-110391421D01*
X133074619Y-110394300D01*
X132949713Y-110394300D01*
X132943261Y-110395672D01*
X132943256Y-110395672D01*
X132873470Y-110410506D01*
X132762912Y-110434006D01*
X132756882Y-110436691D01*
X132756881Y-110436691D01*
X132594478Y-110508997D01*
X132594476Y-110508998D01*
X132588448Y-110511682D01*
X132583107Y-110515562D01*
X132583106Y-110515563D01*
X132553488Y-110537082D01*
X132433947Y-110623934D01*
X132429526Y-110628844D01*
X132429525Y-110628845D01*
X132365669Y-110699765D01*
X132306160Y-110765856D01*
X132270149Y-110828229D01*
X132216126Y-110921800D01*
X132210673Y-110931244D01*
X132151658Y-111112872D01*
X132150968Y-111119433D01*
X132150968Y-111119435D01*
X132137994Y-111242878D01*
X132131696Y-111302800D01*
X132132386Y-111309365D01*
X132149859Y-111475607D01*
X132151658Y-111492728D01*
X132210673Y-111674356D01*
X132306160Y-111839744D01*
X132310578Y-111844651D01*
X132310579Y-111844652D01*
X132412910Y-111958302D01*
X132433947Y-111981666D01*
X132588448Y-112093918D01*
X132594476Y-112096602D01*
X132594478Y-112096603D01*
X132651528Y-112122003D01*
X132762912Y-112171594D01*
X132856313Y-112191447D01*
X132943256Y-112209928D01*
X132943261Y-112209928D01*
X132949713Y-112211300D01*
X133140687Y-112211300D01*
X133147139Y-112209928D01*
X133147144Y-112209928D01*
X133234088Y-112191447D01*
X133327488Y-112171594D01*
X133438872Y-112122003D01*
X133495922Y-112096603D01*
X133495924Y-112096602D01*
X133501952Y-112093918D01*
X133656453Y-111981666D01*
X133677490Y-111958302D01*
X133779821Y-111844652D01*
X133779822Y-111844651D01*
X133784240Y-111839744D01*
X133879727Y-111674356D01*
X133938742Y-111492728D01*
X133940542Y-111475607D01*
X133945373Y-111429637D01*
X133949462Y-111390729D01*
X133976475Y-111325073D01*
X134034696Y-111284443D01*
X134074772Y-111277900D01*
X134368650Y-111277900D01*
X134436771Y-111297902D01*
X134457745Y-111314805D01*
X134485193Y-111342253D01*
X134492017Y-111346289D01*
X134492020Y-111346291D01*
X134567163Y-111390730D01*
X134628399Y-111426945D01*
X134636010Y-111429156D01*
X134636012Y-111429157D01*
X134688231Y-111444328D01*
X134788169Y-111473362D01*
X134794574Y-111473866D01*
X134794579Y-111473867D01*
X134823042Y-111476107D01*
X134823050Y-111476107D01*
X134825498Y-111476300D01*
X136558502Y-111476300D01*
X136560950Y-111476107D01*
X136560958Y-111476107D01*
X136589421Y-111473867D01*
X136589426Y-111473866D01*
X136595831Y-111473362D01*
X136695769Y-111444328D01*
X136747988Y-111429157D01*
X136747990Y-111429156D01*
X136755601Y-111426945D01*
X136762423Y-111422910D01*
X136765597Y-111421537D01*
X136836059Y-111412841D01*
X136889696Y-111435239D01*
X136920918Y-111457923D01*
X136945947Y-111476107D01*
X136957248Y-111484318D01*
X136963276Y-111487002D01*
X136963278Y-111487003D01*
X137106794Y-111550900D01*
X137131712Y-111561994D01*
X137225112Y-111581847D01*
X137312056Y-111600328D01*
X137312061Y-111600328D01*
X137318513Y-111601700D01*
X137509487Y-111601700D01*
X137515939Y-111600328D01*
X137515944Y-111600328D01*
X137602888Y-111581847D01*
X137696288Y-111561994D01*
X137721206Y-111550900D01*
X137864722Y-111487003D01*
X137864724Y-111487002D01*
X137870752Y-111484318D01*
X137882054Y-111476107D01*
X137969131Y-111412841D01*
X138025253Y-111372066D01*
X138034277Y-111362044D01*
X138148621Y-111235052D01*
X138148622Y-111235051D01*
X138153040Y-111230144D01*
X138248527Y-111064756D01*
X138291119Y-110933671D01*
X141240456Y-110933671D01*
X141281107Y-111073590D01*
X141287352Y-111088021D01*
X141363911Y-111217478D01*
X141373551Y-111229904D01*
X141479896Y-111336249D01*
X141492322Y-111345889D01*
X141621779Y-111422448D01*
X141636210Y-111428693D01*
X141782065Y-111471069D01*
X141794667Y-111473370D01*
X141823084Y-111475607D01*
X141828014Y-111475800D01*
X142419885Y-111475800D01*
X142435124Y-111471325D01*
X142436329Y-111469935D01*
X142438000Y-111462252D01*
X142438000Y-111457684D01*
X142946000Y-111457684D01*
X142950475Y-111472923D01*
X142951865Y-111474128D01*
X142959548Y-111475799D01*
X143555984Y-111475799D01*
X143560920Y-111475605D01*
X143589336Y-111473370D01*
X143601931Y-111471070D01*
X143747790Y-111428693D01*
X143762221Y-111422448D01*
X143891678Y-111345889D01*
X143904104Y-111336249D01*
X144010449Y-111229904D01*
X144020089Y-111217478D01*
X144096648Y-111088021D01*
X144102893Y-111073590D01*
X144141939Y-110939195D01*
X144141899Y-110925094D01*
X144134630Y-110921800D01*
X142964115Y-110921800D01*
X142948876Y-110926275D01*
X142947671Y-110927665D01*
X142946000Y-110935348D01*
X142946000Y-111457684D01*
X142438000Y-111457684D01*
X142438000Y-110939915D01*
X142433525Y-110924676D01*
X142432135Y-110923471D01*
X142424452Y-110921800D01*
X141255122Y-110921800D01*
X141241591Y-110925773D01*
X141240456Y-110933671D01*
X138291119Y-110933671D01*
X138307542Y-110883128D01*
X138312222Y-110838606D01*
X138326814Y-110699765D01*
X138327504Y-110693200D01*
X138321475Y-110635835D01*
X138308232Y-110509835D01*
X138308232Y-110509833D01*
X138307542Y-110503272D01*
X138248527Y-110321644D01*
X138243362Y-110312697D01*
X138168172Y-110182466D01*
X138153040Y-110156256D01*
X138134658Y-110135840D01*
X138029675Y-110019245D01*
X138029674Y-110019244D01*
X138025253Y-110014334D01*
X137870752Y-109902082D01*
X137864724Y-109899398D01*
X137864722Y-109899397D01*
X137702319Y-109827091D01*
X137702318Y-109827091D01*
X137696288Y-109824406D01*
X137599298Y-109803790D01*
X137515944Y-109786072D01*
X137515939Y-109786072D01*
X137509487Y-109784700D01*
X137318513Y-109784700D01*
X137298613Y-109788930D01*
X137227822Y-109783530D01*
X137171188Y-109740714D01*
X137146693Y-109674077D01*
X137147972Y-109651663D01*
X137147562Y-109651631D01*
X137150307Y-109616758D01*
X137150307Y-109616750D01*
X137150500Y-109614302D01*
X137150500Y-109181298D01*
X137150307Y-109178842D01*
X137150307Y-109178839D01*
X137147910Y-109148385D01*
X137162507Y-109078905D01*
X137212349Y-109028346D01*
X137273522Y-109012500D01*
X139109600Y-109012500D01*
X139126047Y-109013578D01*
X139156178Y-109017545D01*
X139194497Y-109012500D01*
X139194502Y-109012500D01*
X139300627Y-108998528D01*
X139308815Y-108997450D01*
X139409391Y-108955790D01*
X139451051Y-108938534D01*
X139518125Y-108887066D01*
X139573191Y-108844813D01*
X139578217Y-108838263D01*
X139578221Y-108838259D01*
X139591701Y-108820691D01*
X139602569Y-108808299D01*
X140237673Y-108173195D01*
X140299985Y-108139169D01*
X140326768Y-108136290D01*
X141107500Y-108136290D01*
X141175621Y-108156292D01*
X141222114Y-108209948D01*
X141233500Y-108262290D01*
X141233500Y-108344302D01*
X141233693Y-108346750D01*
X141233693Y-108346758D01*
X141235305Y-108367233D01*
X141236438Y-108381631D01*
X141251593Y-108433796D01*
X141280418Y-108533011D01*
X141282855Y-108541401D01*
X141367547Y-108684607D01*
X141370229Y-108687289D01*
X141395502Y-108751661D01*
X141381600Y-108821284D01*
X141371428Y-108837112D01*
X141367547Y-108840993D01*
X141282855Y-108984199D01*
X141236438Y-109143969D01*
X141235934Y-109150374D01*
X141235933Y-109150379D01*
X141233693Y-109178842D01*
X141233500Y-109181298D01*
X141233500Y-109614302D01*
X141233693Y-109616750D01*
X141233693Y-109616758D01*
X141235305Y-109637233D01*
X141236438Y-109651631D01*
X141261777Y-109738850D01*
X141280601Y-109803641D01*
X141282855Y-109811401D01*
X141367547Y-109954607D01*
X141370487Y-109957547D01*
X141395820Y-110022066D01*
X141381921Y-110091689D01*
X141369874Y-110110436D01*
X141363910Y-110118124D01*
X141287352Y-110247579D01*
X141281107Y-110262010D01*
X141242061Y-110396405D01*
X141242101Y-110410506D01*
X141249370Y-110413800D01*
X144128878Y-110413800D01*
X144142409Y-110409827D01*
X144143544Y-110401929D01*
X144102893Y-110262010D01*
X144096648Y-110247579D01*
X144020089Y-110118123D01*
X144014129Y-110110440D01*
X143988180Y-110044356D01*
X144002078Y-109974733D01*
X144012421Y-109958639D01*
X144016453Y-109954607D01*
X144101145Y-109811401D01*
X144103400Y-109803641D01*
X144122223Y-109738850D01*
X144147562Y-109651631D01*
X144148696Y-109637233D01*
X144150307Y-109616758D01*
X144150307Y-109616750D01*
X144150500Y-109614302D01*
X144150500Y-109181298D01*
X144150307Y-109178842D01*
X144148067Y-109150379D01*
X144148066Y-109150374D01*
X144147562Y-109143969D01*
X144101145Y-108984199D01*
X144016453Y-108840993D01*
X144013771Y-108838311D01*
X143988498Y-108773939D01*
X144002400Y-108704316D01*
X144012572Y-108688488D01*
X144016453Y-108684607D01*
X144101145Y-108541401D01*
X144103583Y-108533011D01*
X144132407Y-108433796D01*
X144147562Y-108381631D01*
X144148696Y-108367233D01*
X144150307Y-108346758D01*
X144150307Y-108346750D01*
X144150500Y-108344302D01*
X144150500Y-108262290D01*
X144170502Y-108194169D01*
X144224158Y-108147676D01*
X144276500Y-108136290D01*
X145022152Y-108136290D01*
X145090273Y-108156292D01*
X145131271Y-108199290D01*
X145209360Y-108334544D01*
X145213778Y-108339451D01*
X145213779Y-108339452D01*
X145329434Y-108467900D01*
X145337147Y-108476466D01*
X145432977Y-108546091D01*
X145473099Y-108575241D01*
X145491648Y-108588718D01*
X145497676Y-108591402D01*
X145497678Y-108591403D01*
X145629784Y-108650220D01*
X145666112Y-108666394D01*
X145751797Y-108684607D01*
X145846456Y-108704728D01*
X145846461Y-108704728D01*
X145852913Y-108706100D01*
X146043887Y-108706100D01*
X146050339Y-108704728D01*
X146050344Y-108704728D01*
X146145003Y-108684607D01*
X146230688Y-108666394D01*
X146267016Y-108650220D01*
X146399122Y-108591403D01*
X146399124Y-108591402D01*
X146405152Y-108588718D01*
X146423702Y-108575241D01*
X146463823Y-108546091D01*
X146559653Y-108476466D01*
X146567366Y-108467900D01*
X146683021Y-108339452D01*
X146683022Y-108339451D01*
X146687440Y-108334544D01*
X146782927Y-108169156D01*
X146841942Y-107987528D01*
X146847285Y-107936698D01*
X146861214Y-107804165D01*
X146861904Y-107797600D01*
X146857138Y-107752254D01*
X146842632Y-107614235D01*
X146842632Y-107614233D01*
X146841942Y-107607672D01*
X146782927Y-107426044D01*
X146687440Y-107260656D01*
X146581690Y-107143208D01*
X146564075Y-107123645D01*
X146564074Y-107123644D01*
X146559653Y-107118734D01*
X146432096Y-107026058D01*
X146388743Y-106969835D01*
X146382668Y-106899099D01*
X146417063Y-106835027D01*
X147506285Y-105745805D01*
X147568597Y-105711779D01*
X147595380Y-105708900D01*
X147720287Y-105708900D01*
X147726739Y-105707528D01*
X147726744Y-105707528D01*
X147813688Y-105689047D01*
X147907088Y-105669194D01*
X147913115Y-105666511D01*
X147913123Y-105666508D01*
X148056652Y-105602605D01*
X148127019Y-105593171D01*
X148191316Y-105623278D01*
X148229129Y-105683367D01*
X148233900Y-105717712D01*
X148233900Y-106739700D01*
X148213898Y-106807821D01*
X148160242Y-106854314D01*
X148107900Y-106865700D01*
X148020466Y-106865700D01*
X147958284Y-106872455D01*
X147821895Y-106923585D01*
X147705339Y-107010939D01*
X147617985Y-107127495D01*
X147566855Y-107263884D01*
X147560100Y-107326066D01*
X147560100Y-108472334D01*
X147566855Y-108534516D01*
X147571194Y-108546091D01*
X147614832Y-108662496D01*
X147614834Y-108662499D01*
X147617985Y-108670905D01*
X147623373Y-108678094D01*
X147623506Y-108678337D01*
X147638676Y-108747694D01*
X147633352Y-108776107D01*
X147576310Y-108960380D01*
X147575666Y-108966505D01*
X147575666Y-108966506D01*
X147555768Y-109155822D01*
X147555124Y-109161950D01*
X147556885Y-109181298D01*
X147567515Y-109298095D01*
X147573494Y-109363796D01*
X147575232Y-109369702D01*
X147575233Y-109369706D01*
X147582075Y-109392953D01*
X147630719Y-109558229D01*
X147633572Y-109563686D01*
X147633573Y-109563689D01*
X147658742Y-109611833D01*
X147724523Y-109737660D01*
X147724523Y-109737662D01*
X147724619Y-109737845D01*
X147724584Y-109737863D01*
X147744489Y-109803641D01*
X147729329Y-109864609D01*
X147636244Y-110036765D01*
X147608401Y-110126711D01*
X147600775Y-110151348D01*
X147576310Y-110230380D01*
X147575666Y-110236505D01*
X147575666Y-110236506D01*
X147556267Y-110421072D01*
X147555124Y-110431950D01*
X147573494Y-110633796D01*
X147575232Y-110639702D01*
X147575233Y-110639706D01*
X147592910Y-110699765D01*
X147630719Y-110828229D01*
X147633572Y-110833686D01*
X147633573Y-110833689D01*
X147636144Y-110838606D01*
X147724619Y-111007845D01*
X147728479Y-111012645D01*
X147728479Y-111012646D01*
X147738148Y-111024672D01*
X147851619Y-111165801D01*
X148006881Y-111296081D01*
X148012273Y-111299045D01*
X148012277Y-111299048D01*
X148144415Y-111371691D01*
X148184491Y-111393723D01*
X148377684Y-111455007D01*
X148383801Y-111455693D01*
X148383805Y-111455694D01*
X148457948Y-111464010D01*
X148535417Y-111472700D01*
X149094604Y-111472700D01*
X149245313Y-111457923D01*
X149439342Y-111399342D01*
X149618298Y-111304190D01*
X149650533Y-111277900D01*
X149770587Y-111179985D01*
X149775363Y-111176090D01*
X149863472Y-111069585D01*
X149922305Y-111029847D01*
X149960556Y-111023900D01*
X154283822Y-111023900D01*
X154300269Y-111024978D01*
X154330400Y-111028945D01*
X154368719Y-111023900D01*
X154368724Y-111023900D01*
X154474849Y-111009928D01*
X154483037Y-111008850D01*
X154490664Y-111005691D01*
X154490667Y-111005690D01*
X154566374Y-110974331D01*
X154636964Y-110966742D01*
X154700451Y-110998522D01*
X154712788Y-111011788D01*
X154832754Y-111160995D01*
X154832759Y-111161000D01*
X154836619Y-111165801D01*
X154991881Y-111296081D01*
X154997273Y-111299045D01*
X154997277Y-111299048D01*
X155129415Y-111371691D01*
X155169491Y-111393723D01*
X155362684Y-111455007D01*
X155368801Y-111455693D01*
X155368805Y-111455694D01*
X155442948Y-111464010D01*
X155520417Y-111472700D01*
X156079604Y-111472700D01*
X156230313Y-111457923D01*
X156424342Y-111399342D01*
X156603298Y-111304190D01*
X156635533Y-111277900D01*
X156755587Y-111179985D01*
X156760363Y-111176090D01*
X156772851Y-111160995D01*
X156885627Y-111024672D01*
X156885629Y-111024669D01*
X156889556Y-111019922D01*
X156985956Y-110841635D01*
X157029872Y-110699765D01*
X157044068Y-110653907D01*
X157044069Y-110653904D01*
X157045890Y-110648020D01*
X157047906Y-110628845D01*
X157066432Y-110452578D01*
X157066432Y-110452577D01*
X157067076Y-110446450D01*
X157056289Y-110327929D01*
X157049265Y-110250743D01*
X157049264Y-110250740D01*
X157048706Y-110244604D01*
X157044909Y-110231700D01*
X156993220Y-110056080D01*
X156991481Y-110050171D01*
X156987551Y-110042652D01*
X156910940Y-109896108D01*
X156897106Y-109826472D01*
X156923117Y-109760411D01*
X156974384Y-109721324D01*
X157005960Y-109708245D01*
X157043556Y-109692672D01*
X157066680Y-109683094D01*
X157074309Y-109679934D01*
X157119548Y-109645221D01*
X157126739Y-109639703D01*
X157189895Y-109591242D01*
X157196449Y-109586213D01*
X157201475Y-109579663D01*
X157201479Y-109579659D01*
X157214959Y-109562091D01*
X157225827Y-109549699D01*
X162737307Y-104038220D01*
X162749699Y-104027352D01*
X162767263Y-104013875D01*
X162773813Y-104008849D01*
X162780404Y-104000260D01*
X162809804Y-103961944D01*
X162862505Y-103893263D01*
X162867534Y-103886709D01*
X162926450Y-103744473D01*
X162946546Y-103591836D01*
X162942578Y-103561698D01*
X162941500Y-103545251D01*
X162941500Y-90181000D01*
X162942578Y-90164553D01*
X162945467Y-90142610D01*
X162946545Y-90134422D01*
X162939999Y-90084700D01*
X162926450Y-89981785D01*
X162869330Y-89843885D01*
X162867534Y-89839549D01*
X162797342Y-89748073D01*
X162773813Y-89717409D01*
X162749693Y-89698901D01*
X162737303Y-89688034D01*
X160552765Y-87503497D01*
X160541897Y-87491105D01*
X160537629Y-87485543D01*
X160523391Y-87466987D01*
X160511089Y-87457547D01*
X160433297Y-87397856D01*
X160407804Y-87378294D01*
X160407802Y-87378293D01*
X160401251Y-87373266D01*
X160370231Y-87360417D01*
X160364816Y-87358174D01*
X160309535Y-87313625D01*
X160291804Y-87272808D01*
X160291616Y-87272871D01*
X160290903Y-87270735D01*
X160236102Y-87106474D01*
X160143797Y-86957311D01*
X160019653Y-86833383D01*
X160020864Y-86832170D01*
X159985036Y-86781642D01*
X159981799Y-86710720D01*
X160017421Y-86649306D01*
X160025333Y-86642437D01*
X160139051Y-86528521D01*
X160148063Y-86517110D01*
X160232365Y-86380346D01*
X160238509Y-86367168D01*
X160289227Y-86214260D01*
X160292093Y-86200894D01*
X160301672Y-86107399D01*
X160302000Y-86100984D01*
X160302000Y-85870115D01*
X160297525Y-85854876D01*
X160296135Y-85853671D01*
X160288452Y-85852000D01*
X159178500Y-85852000D01*
X159110379Y-85831998D01*
X159063886Y-85778342D01*
X159052500Y-85726000D01*
X159052500Y-85325885D01*
X159560500Y-85325885D01*
X159564975Y-85341124D01*
X159566365Y-85342329D01*
X159574048Y-85344000D01*
X160283884Y-85344000D01*
X160299123Y-85339525D01*
X160300328Y-85338135D01*
X160301999Y-85330452D01*
X160301999Y-85095067D01*
X160301662Y-85088548D01*
X160291834Y-84993830D01*
X160288942Y-84980436D01*
X160237964Y-84827635D01*
X160231790Y-84814457D01*
X160147256Y-84677851D01*
X160138220Y-84666450D01*
X160024521Y-84552949D01*
X160013110Y-84543937D01*
X159876346Y-84459635D01*
X159863168Y-84453491D01*
X159710260Y-84402773D01*
X159696894Y-84399907D01*
X159603399Y-84390328D01*
X159596984Y-84390000D01*
X159578615Y-84390000D01*
X159563376Y-84394475D01*
X159562171Y-84395865D01*
X159560500Y-84403548D01*
X159560500Y-85325885D01*
X159052500Y-85325885D01*
X159052500Y-84408116D01*
X159048025Y-84392877D01*
X159046635Y-84391672D01*
X159038952Y-84390001D01*
X159016067Y-84390001D01*
X159009548Y-84390338D01*
X158914830Y-84400166D01*
X158901436Y-84403058D01*
X158748635Y-84454036D01*
X158735457Y-84460210D01*
X158598851Y-84544744D01*
X158587450Y-84553780D01*
X158473949Y-84667479D01*
X158468206Y-84674751D01*
X158410289Y-84715814D01*
X158339366Y-84719046D01*
X158277954Y-84683421D01*
X158272160Y-84676746D01*
X158268797Y-84671311D01*
X158144653Y-84547383D01*
X157995329Y-84455339D01*
X157988380Y-84453034D01*
X157835366Y-84402281D01*
X157835364Y-84402281D01*
X157828835Y-84400115D01*
X157725231Y-84389500D01*
X157433766Y-84389500D01*
X157137770Y-84389501D01*
X157032871Y-84400384D01*
X157026340Y-84402563D01*
X157026335Y-84402564D01*
X156909654Y-84441492D01*
X156866474Y-84455898D01*
X156717311Y-84548203D01*
X156593383Y-84672347D01*
X156501339Y-84821671D01*
X156499034Y-84828619D01*
X156499034Y-84828620D01*
X156448679Y-84980436D01*
X156446115Y-84988165D01*
X156435500Y-85091769D01*
X156435501Y-86104230D01*
X156446384Y-86209129D01*
X156448563Y-86215660D01*
X156448564Y-86215665D01*
X156483152Y-86319338D01*
X156501898Y-86375526D01*
X156594203Y-86524689D01*
X156599385Y-86529862D01*
X156718347Y-86648617D01*
X156717033Y-86649933D01*
X156752562Y-86700048D01*
X156755792Y-86770971D01*
X156720165Y-86832382D01*
X156719945Y-86832573D01*
X156717311Y-86834203D01*
X156593383Y-86958347D01*
X156589543Y-86964577D01*
X156589542Y-86964578D01*
X156508479Y-87096087D01*
X156501339Y-87107671D01*
X156499821Y-87106735D01*
X156459048Y-87153043D01*
X156390771Y-87172505D01*
X156322665Y-87150078D01*
X156322211Y-87150864D01*
X156318443Y-87148688D01*
X156317710Y-87148447D01*
X156311152Y-87143682D01*
X156305124Y-87140998D01*
X156305122Y-87140997D01*
X156142719Y-87068691D01*
X156142718Y-87068691D01*
X156136688Y-87066006D01*
X156035398Y-87044476D01*
X155956344Y-87027672D01*
X155956339Y-87027672D01*
X155949887Y-87026300D01*
X155890191Y-87026300D01*
X155822070Y-87006298D01*
X155783046Y-86966602D01*
X155777297Y-86957311D01*
X155653153Y-86833383D01*
X155654364Y-86832170D01*
X155618536Y-86781642D01*
X155615299Y-86710720D01*
X155650921Y-86649306D01*
X155658833Y-86642437D01*
X155772551Y-86528521D01*
X155781563Y-86517110D01*
X155865865Y-86380346D01*
X155872009Y-86367168D01*
X155922727Y-86214260D01*
X155925593Y-86200894D01*
X155935172Y-86107399D01*
X155935500Y-86100984D01*
X155935500Y-85870115D01*
X155931025Y-85854876D01*
X155929635Y-85853671D01*
X155921952Y-85852000D01*
X154812000Y-85852000D01*
X154743879Y-85831998D01*
X154697386Y-85778342D01*
X154686000Y-85726000D01*
X154686000Y-85325885D01*
X155194000Y-85325885D01*
X155198475Y-85341124D01*
X155199865Y-85342329D01*
X155207548Y-85344000D01*
X155917384Y-85344000D01*
X155932623Y-85339525D01*
X155933828Y-85338135D01*
X155935499Y-85330452D01*
X155935499Y-85095067D01*
X155935162Y-85088548D01*
X155925334Y-84993830D01*
X155922442Y-84980436D01*
X155871464Y-84827635D01*
X155865290Y-84814457D01*
X155780756Y-84677851D01*
X155771720Y-84666450D01*
X155658021Y-84552949D01*
X155646610Y-84543937D01*
X155509846Y-84459635D01*
X155496668Y-84453491D01*
X155343760Y-84402773D01*
X155330394Y-84399907D01*
X155236899Y-84390328D01*
X155230484Y-84390000D01*
X155212115Y-84390000D01*
X155196876Y-84394475D01*
X155195671Y-84395865D01*
X155194000Y-84403548D01*
X155194000Y-85325885D01*
X154686000Y-85325885D01*
X154686000Y-84408116D01*
X154681525Y-84392877D01*
X154680135Y-84391672D01*
X154672452Y-84390001D01*
X154649567Y-84390001D01*
X154643048Y-84390338D01*
X154548330Y-84400166D01*
X154534936Y-84403058D01*
X154382135Y-84454036D01*
X154368957Y-84460210D01*
X154232351Y-84544744D01*
X154220950Y-84553780D01*
X154107449Y-84667479D01*
X154101706Y-84674751D01*
X154043789Y-84715814D01*
X153972866Y-84719046D01*
X153911454Y-84683421D01*
X153905660Y-84676746D01*
X153902297Y-84671311D01*
X153778153Y-84547383D01*
X153628829Y-84455339D01*
X153621880Y-84453034D01*
X153468866Y-84402281D01*
X153468864Y-84402281D01*
X153462335Y-84400115D01*
X153358731Y-84389500D01*
X153067266Y-84389500D01*
X152771270Y-84389501D01*
X152760867Y-84390580D01*
X152751324Y-84391570D01*
X152681503Y-84378704D01*
X152649228Y-84355338D01*
X152005605Y-83711715D01*
X151971579Y-83649403D01*
X151968700Y-83622620D01*
X151968700Y-81617500D01*
X151988702Y-81549379D01*
X152042358Y-81502886D01*
X152094700Y-81491500D01*
X152532134Y-81491500D01*
X152594316Y-81484745D01*
X152730705Y-81433615D01*
X152847261Y-81346261D01*
X152934615Y-81229705D01*
X152985745Y-81093316D01*
X152992500Y-81031134D01*
X152992500Y-80150431D01*
X157414512Y-80150431D01*
X157468817Y-80376624D01*
X157471866Y-80386009D01*
X157564936Y-80610700D01*
X157569417Y-80619494D01*
X157696496Y-80826867D01*
X157702289Y-80834840D01*
X157860249Y-81019787D01*
X157867213Y-81026751D01*
X158052160Y-81184711D01*
X158060133Y-81190504D01*
X158267506Y-81317583D01*
X158276300Y-81322064D01*
X158500991Y-81415134D01*
X158510376Y-81418183D01*
X158732385Y-81471483D01*
X158746470Y-81470778D01*
X158750000Y-81461899D01*
X158750000Y-81457597D01*
X159258000Y-81457597D01*
X159261973Y-81471128D01*
X159271431Y-81472488D01*
X159497624Y-81418183D01*
X159507009Y-81415134D01*
X159731700Y-81322064D01*
X159740494Y-81317583D01*
X159947867Y-81190504D01*
X159955840Y-81184711D01*
X160140787Y-81026751D01*
X160147751Y-81019787D01*
X160305711Y-80834840D01*
X160311504Y-80826867D01*
X160438583Y-80619494D01*
X160443064Y-80610700D01*
X160536134Y-80386009D01*
X160539183Y-80376624D01*
X160592483Y-80154615D01*
X160591778Y-80140530D01*
X160582899Y-80137000D01*
X159276115Y-80137000D01*
X159260876Y-80141475D01*
X159259671Y-80142865D01*
X159258000Y-80150548D01*
X159258000Y-81457597D01*
X158750000Y-81457597D01*
X158750000Y-80155115D01*
X158745525Y-80139876D01*
X158744135Y-80138671D01*
X158736452Y-80137000D01*
X157429403Y-80137000D01*
X157415872Y-80140973D01*
X157414512Y-80150431D01*
X152992500Y-80150431D01*
X152992500Y-79611385D01*
X157415517Y-79611385D01*
X157416222Y-79625470D01*
X157425101Y-79629000D01*
X158731885Y-79629000D01*
X158747124Y-79624525D01*
X158748329Y-79623135D01*
X158750000Y-79615452D01*
X158750000Y-79610885D01*
X159258000Y-79610885D01*
X159262475Y-79626124D01*
X159263865Y-79627329D01*
X159271548Y-79629000D01*
X160578597Y-79629000D01*
X160592128Y-79625027D01*
X160593488Y-79615569D01*
X160539183Y-79389376D01*
X160536134Y-79379991D01*
X160443064Y-79155300D01*
X160438583Y-79146506D01*
X160311504Y-78939133D01*
X160305711Y-78931160D01*
X160147751Y-78746213D01*
X160140787Y-78739249D01*
X159955840Y-78581289D01*
X159947867Y-78575496D01*
X159740494Y-78448417D01*
X159731700Y-78443936D01*
X159507009Y-78350866D01*
X159497624Y-78347817D01*
X159275615Y-78294517D01*
X159261530Y-78295222D01*
X159258000Y-78304101D01*
X159258000Y-79610885D01*
X158750000Y-79610885D01*
X158750000Y-78308403D01*
X158746027Y-78294872D01*
X158736569Y-78293512D01*
X158510376Y-78347817D01*
X158500991Y-78350866D01*
X158276300Y-78443936D01*
X158267506Y-78448417D01*
X158060133Y-78575496D01*
X158052160Y-78581289D01*
X157867213Y-78739249D01*
X157860249Y-78746213D01*
X157702289Y-78931160D01*
X157696496Y-78939133D01*
X157569417Y-79146506D01*
X157564936Y-79155300D01*
X157471866Y-79379991D01*
X157468817Y-79389376D01*
X157415517Y-79611385D01*
X152992500Y-79611385D01*
X152992500Y-78734866D01*
X152985745Y-78672684D01*
X152934615Y-78536295D01*
X152847261Y-78419739D01*
X152730705Y-78332385D01*
X152594316Y-78281255D01*
X152532134Y-78274500D01*
X150235866Y-78274500D01*
X150173684Y-78281255D01*
X150037295Y-78332385D01*
X149920739Y-78419739D01*
X149833385Y-78536295D01*
X149782255Y-78672684D01*
X149775500Y-78734866D01*
X149775500Y-81031134D01*
X149782255Y-81093316D01*
X149833385Y-81229705D01*
X149920739Y-81346261D01*
X150037295Y-81433615D01*
X150173684Y-81484745D01*
X150235866Y-81491500D01*
X150673300Y-81491500D01*
X150741421Y-81511502D01*
X150787914Y-81565158D01*
X150799300Y-81617500D01*
X150799300Y-83870422D01*
X150798222Y-83886869D01*
X150794255Y-83917000D01*
X150795333Y-83925188D01*
X150799300Y-83955319D01*
X150799300Y-83955321D01*
X150810317Y-84039000D01*
X150814350Y-84069637D01*
X150848398Y-84151835D01*
X150873266Y-84211873D01*
X150888816Y-84232138D01*
X150966987Y-84334013D01*
X150973537Y-84339039D01*
X150973541Y-84339043D01*
X150991109Y-84352523D01*
X151003501Y-84363391D01*
X152032095Y-85391985D01*
X152066121Y-85454297D01*
X152069000Y-85481080D01*
X152069001Y-85792077D01*
X152069001Y-86104230D01*
X152079884Y-86209129D01*
X152082063Y-86215660D01*
X152082064Y-86215665D01*
X152116652Y-86319338D01*
X152135398Y-86375526D01*
X152227703Y-86524689D01*
X152232885Y-86529862D01*
X152351847Y-86648617D01*
X152350533Y-86649933D01*
X152386062Y-86700048D01*
X152389292Y-86770971D01*
X152353665Y-86832382D01*
X152353445Y-86832573D01*
X152350811Y-86834203D01*
X152226883Y-86958347D01*
X152223043Y-86964577D01*
X152223042Y-86964578D01*
X152220305Y-86969018D01*
X152134839Y-87107671D01*
X152132534Y-87114619D01*
X152132534Y-87114620D01*
X152088282Y-87248036D01*
X152079615Y-87274165D01*
X152069000Y-87377769D01*
X152069000Y-87802738D01*
X152048998Y-87870859D01*
X152032095Y-87891833D01*
X149127234Y-90796694D01*
X149064922Y-90830720D01*
X148994107Y-90825655D01*
X148944503Y-90791909D01*
X148944230Y-90791605D01*
X148876864Y-90716788D01*
X148846146Y-90652781D01*
X148844500Y-90632478D01*
X148844500Y-87531601D01*
X148845578Y-87515155D01*
X148848467Y-87493210D01*
X148849545Y-87485022D01*
X148843334Y-87437839D01*
X148835014Y-87374644D01*
X148834833Y-87373266D01*
X148829450Y-87332385D01*
X148805432Y-87274400D01*
X148770534Y-87190149D01*
X148737856Y-87147562D01*
X148718059Y-87121763D01*
X148676813Y-87068009D01*
X148670263Y-87062983D01*
X148670259Y-87062979D01*
X148652691Y-87049499D01*
X148640299Y-87038631D01*
X147012964Y-85411296D01*
X147002096Y-85398904D01*
X146988616Y-85381336D01*
X146983590Y-85374786D01*
X146905963Y-85315222D01*
X146861450Y-85281065D01*
X146802144Y-85256500D01*
X146764985Y-85241108D01*
X146726843Y-85225309D01*
X146719214Y-85222149D01*
X146711026Y-85221071D01*
X146604901Y-85207099D01*
X146604896Y-85207099D01*
X146566577Y-85202054D01*
X146558389Y-85203132D01*
X146536444Y-85206021D01*
X146519998Y-85207099D01*
X140500009Y-85207099D01*
X140483562Y-85206021D01*
X140461611Y-85203131D01*
X140453423Y-85202053D01*
X140445235Y-85203131D01*
X140428154Y-85205380D01*
X140300786Y-85222149D01*
X140158550Y-85281065D01*
X140114037Y-85315222D01*
X140036410Y-85374786D01*
X140031384Y-85381336D01*
X140031380Y-85381340D01*
X140017900Y-85398908D01*
X140007032Y-85411300D01*
X139504510Y-85913822D01*
X139442198Y-85947848D01*
X139371383Y-85942783D01*
X139326320Y-85913822D01*
X139274300Y-85861802D01*
X139269792Y-85858645D01*
X139269789Y-85858643D01*
X139174723Y-85792077D01*
X139086749Y-85730477D01*
X139081767Y-85728154D01*
X139081762Y-85728151D01*
X138884225Y-85636039D01*
X138884224Y-85636039D01*
X138879243Y-85633716D01*
X138873935Y-85632294D01*
X138873933Y-85632293D01*
X138663402Y-85575881D01*
X138663400Y-85575881D01*
X138658087Y-85574457D01*
X138430000Y-85554502D01*
X138201913Y-85574457D01*
X138196600Y-85575881D01*
X138196598Y-85575881D01*
X137986067Y-85632293D01*
X137986065Y-85632294D01*
X137980757Y-85633716D01*
X137975776Y-85636039D01*
X137975775Y-85636039D01*
X137778238Y-85728151D01*
X137778233Y-85728154D01*
X137773251Y-85730477D01*
X137685277Y-85792077D01*
X137590211Y-85858643D01*
X137590208Y-85858645D01*
X137585700Y-85861802D01*
X137423802Y-86023700D01*
X137420645Y-86028208D01*
X137420643Y-86028211D01*
X137395627Y-86063938D01*
X137292477Y-86211251D01*
X137290154Y-86216233D01*
X137290151Y-86216238D01*
X137202488Y-86404234D01*
X137195716Y-86418757D01*
X137194294Y-86424065D01*
X137194293Y-86424067D01*
X137149389Y-86591651D01*
X137136457Y-86639913D01*
X137116502Y-86868000D01*
X137136457Y-87096087D01*
X137137881Y-87101400D01*
X137137881Y-87101402D01*
X137183810Y-87272808D01*
X137195716Y-87317243D01*
X137198039Y-87322224D01*
X137198039Y-87322225D01*
X137206705Y-87340809D01*
X137217432Y-87410505D01*
X137211239Y-87457547D01*
X137210300Y-87464679D01*
X137205255Y-87503000D01*
X137206333Y-87511188D01*
X137209222Y-87533133D01*
X137210300Y-87549579D01*
X137210300Y-87662300D01*
X137190298Y-87730421D01*
X137136642Y-87776914D01*
X137084300Y-87788300D01*
X136927913Y-87788300D01*
X136921461Y-87789672D01*
X136921456Y-87789672D01*
X136836498Y-87807731D01*
X136741112Y-87828006D01*
X136735082Y-87830691D01*
X136735081Y-87830691D01*
X136572678Y-87902997D01*
X136572676Y-87902998D01*
X136566648Y-87905682D01*
X136561307Y-87909562D01*
X136561306Y-87909563D01*
X136517903Y-87941097D01*
X136451035Y-87964956D01*
X136381883Y-87948875D01*
X136354747Y-87928256D01*
X134024737Y-85598247D01*
X133990712Y-85535935D01*
X133993273Y-85472524D01*
X134011875Y-85411296D01*
X134021970Y-85378069D01*
X134051129Y-85156590D01*
X134052756Y-85090000D01*
X134034452Y-84867361D01*
X133980031Y-84650702D01*
X133890954Y-84445840D01*
X133832406Y-84355338D01*
X133772422Y-84262617D01*
X133772420Y-84262614D01*
X133769614Y-84258277D01*
X133619270Y-84093051D01*
X133615219Y-84089852D01*
X133615215Y-84089848D01*
X133448014Y-83957800D01*
X133448010Y-83957798D01*
X133443959Y-83954598D01*
X133402653Y-83931796D01*
X133352684Y-83881364D01*
X133337912Y-83811921D01*
X133363028Y-83745516D01*
X133390380Y-83718909D01*
X133451418Y-83675371D01*
X133569460Y-83591173D01*
X133727696Y-83433489D01*
X133787194Y-83350689D01*
X133855035Y-83256277D01*
X133858053Y-83252077D01*
X133861148Y-83245816D01*
X133954736Y-83056453D01*
X133954737Y-83056451D01*
X133957030Y-83051811D01*
X133995794Y-82924223D01*
X134020465Y-82843023D01*
X134020465Y-82843021D01*
X134021970Y-82838069D01*
X134051129Y-82616590D01*
X134052756Y-82550000D01*
X134034452Y-82327361D01*
X133980031Y-82110702D01*
X133890954Y-81905840D01*
X133822145Y-81799477D01*
X133772422Y-81722617D01*
X133772420Y-81722614D01*
X133769614Y-81718277D01*
X133766140Y-81714459D01*
X133766133Y-81714450D01*
X133622035Y-81556088D01*
X133590983Y-81492242D01*
X133599379Y-81421744D01*
X133644556Y-81366976D01*
X133671000Y-81353307D01*
X133777652Y-81313325D01*
X133793249Y-81304786D01*
X133895324Y-81228285D01*
X133907885Y-81215724D01*
X133984386Y-81113649D01*
X133992924Y-81098054D01*
X134038078Y-80977606D01*
X134041705Y-80962351D01*
X134047231Y-80911486D01*
X134047600Y-80904672D01*
X134047600Y-80282115D01*
X134043125Y-80266876D01*
X134041735Y-80265671D01*
X134034052Y-80264000D01*
X131349716Y-80264000D01*
X131334477Y-80268475D01*
X131333272Y-80269865D01*
X131331601Y-80277548D01*
X131331601Y-80904669D01*
X131331971Y-80911490D01*
X131337495Y-80962352D01*
X131341121Y-80977604D01*
X131386276Y-81098054D01*
X131394814Y-81113649D01*
X131471315Y-81215724D01*
X131483876Y-81228285D01*
X131585951Y-81304786D01*
X131601546Y-81313324D01*
X131710427Y-81354142D01*
X131767191Y-81396784D01*
X131791891Y-81463345D01*
X131776683Y-81532694D01*
X131757291Y-81559175D01*
X131679319Y-81640768D01*
X131630229Y-81692138D01*
X131504343Y-81876680D01*
X131410288Y-82079305D01*
X131350589Y-82294570D01*
X131326851Y-82516695D01*
X131327148Y-82521848D01*
X131327148Y-82521851D01*
X131337293Y-82697790D01*
X131339710Y-82739715D01*
X131340847Y-82744761D01*
X131340848Y-82744767D01*
X131356845Y-82815747D01*
X131388822Y-82957639D01*
X131427061Y-83051811D01*
X131461918Y-83137653D01*
X131472866Y-83164616D01*
X131589587Y-83355088D01*
X131735850Y-83523938D01*
X131907726Y-83666632D01*
X131917551Y-83672373D01*
X131981045Y-83709476D01*
X132029769Y-83761114D01*
X132042840Y-83830897D01*
X132016109Y-83896669D01*
X131975655Y-83930027D01*
X131963207Y-83936507D01*
X131959074Y-83939610D01*
X131959071Y-83939612D01*
X131788700Y-84067530D01*
X131784565Y-84070635D01*
X131780993Y-84074373D01*
X131643333Y-84218426D01*
X131630229Y-84232138D01*
X131504343Y-84416680D01*
X131488603Y-84450590D01*
X131440704Y-84553780D01*
X131410288Y-84619305D01*
X131350589Y-84834570D01*
X131326851Y-85056695D01*
X131327148Y-85061848D01*
X131327148Y-85061851D01*
X131337293Y-85237790D01*
X131339710Y-85279715D01*
X131340847Y-85284761D01*
X131340848Y-85284767D01*
X131362990Y-85383015D01*
X131388822Y-85497639D01*
X131443499Y-85632293D01*
X131461918Y-85677653D01*
X131472866Y-85704616D01*
X131475565Y-85709020D01*
X131574284Y-85870115D01*
X131589587Y-85895088D01*
X131735850Y-86063938D01*
X131883210Y-86186279D01*
X131902476Y-86202273D01*
X131907726Y-86206632D01*
X132100600Y-86319338D01*
X132105425Y-86321180D01*
X132105426Y-86321181D01*
X132160197Y-86342096D01*
X132309292Y-86399030D01*
X132314360Y-86400061D01*
X132314363Y-86400062D01*
X132421612Y-86421882D01*
X132528197Y-86443567D01*
X132533372Y-86443757D01*
X132533374Y-86443757D01*
X132746273Y-86451564D01*
X132746277Y-86451564D01*
X132751437Y-86451753D01*
X132756557Y-86451097D01*
X132756559Y-86451097D01*
X132967888Y-86424025D01*
X132967889Y-86424025D01*
X132973016Y-86423368D01*
X132977967Y-86421883D01*
X132977970Y-86421882D01*
X133072516Y-86393517D01*
X133143511Y-86393101D01*
X133197818Y-86425108D01*
X134525328Y-87752619D01*
X135850016Y-89077307D01*
X135860883Y-89089698D01*
X135879387Y-89113813D01*
X135910051Y-89137342D01*
X136001527Y-89207534D01*
X136052699Y-89228730D01*
X136060195Y-89231835D01*
X136087901Y-89243311D01*
X136143763Y-89266450D01*
X136151951Y-89267528D01*
X136258076Y-89281500D01*
X136258081Y-89281500D01*
X136290592Y-89285780D01*
X136355518Y-89314503D01*
X136367780Y-89326391D01*
X136412147Y-89375666D01*
X136417489Y-89379547D01*
X136417491Y-89379549D01*
X136561306Y-89484037D01*
X136566648Y-89487918D01*
X136572678Y-89490603D01*
X136578401Y-89493907D01*
X136577566Y-89495354D01*
X136625301Y-89535924D01*
X136645953Y-89603850D01*
X136639552Y-89644722D01*
X136597115Y-89772665D01*
X136586500Y-89876269D01*
X136586501Y-90463730D01*
X136597384Y-90568629D01*
X136599563Y-90575160D01*
X136599564Y-90575165D01*
X136638224Y-90691042D01*
X136652898Y-90735026D01*
X136745203Y-90884189D01*
X136750385Y-90889362D01*
X136772118Y-90911057D01*
X136869347Y-91008117D01*
X136872587Y-91010114D01*
X136912814Y-91066852D01*
X136916047Y-91137775D01*
X136880422Y-91199187D01*
X136871922Y-91206566D01*
X136863448Y-91213282D01*
X136749949Y-91326979D01*
X136740937Y-91338390D01*
X136656635Y-91475154D01*
X136650491Y-91488332D01*
X136599773Y-91641240D01*
X136596907Y-91654606D01*
X136587328Y-91748101D01*
X136587000Y-91754516D01*
X136587000Y-91772885D01*
X136591475Y-91788124D01*
X136592865Y-91789329D01*
X136600548Y-91791000D01*
X138984884Y-91791000D01*
X139000123Y-91786525D01*
X139001328Y-91785135D01*
X139002999Y-91777452D01*
X139002999Y-91754567D01*
X139002662Y-91748048D01*
X138992834Y-91653330D01*
X138989942Y-91639936D01*
X138938964Y-91487135D01*
X138932790Y-91473957D01*
X138848256Y-91337351D01*
X138839220Y-91325950D01*
X138725521Y-91212449D01*
X138718249Y-91206706D01*
X138677186Y-91148789D01*
X138673954Y-91077866D01*
X138709579Y-91016454D01*
X138716254Y-91010660D01*
X138721689Y-91007297D01*
X138845617Y-90883153D01*
X138937661Y-90733829D01*
X138945454Y-90710334D01*
X138990719Y-90573866D01*
X138990719Y-90573864D01*
X138992885Y-90567335D01*
X138998845Y-90509167D01*
X138999427Y-90503487D01*
X139026269Y-90437760D01*
X139084384Y-90396978D01*
X139137946Y-90391021D01*
X139140851Y-90391326D01*
X139147313Y-90392700D01*
X139259528Y-90392700D01*
X139327649Y-90412702D01*
X139374142Y-90466358D01*
X139384855Y-90505697D01*
X139391384Y-90568629D01*
X139393563Y-90575160D01*
X139393564Y-90575165D01*
X139432224Y-90691042D01*
X139446898Y-90735026D01*
X139539203Y-90884189D01*
X139544385Y-90889362D01*
X139566118Y-90911057D01*
X139663347Y-91008117D01*
X139666587Y-91010114D01*
X139706814Y-91066852D01*
X139710047Y-91137775D01*
X139674422Y-91199187D01*
X139665922Y-91206566D01*
X139657448Y-91213282D01*
X139543949Y-91326979D01*
X139534937Y-91338390D01*
X139450635Y-91475154D01*
X139444491Y-91488332D01*
X139393773Y-91641240D01*
X139390907Y-91654606D01*
X139381328Y-91748101D01*
X139381000Y-91754516D01*
X139381000Y-91772885D01*
X139385475Y-91788124D01*
X139386865Y-91789329D01*
X139394548Y-91791000D01*
X140717000Y-91791000D01*
X140785121Y-91811002D01*
X140831614Y-91864658D01*
X140843000Y-91917000D01*
X140843000Y-92173000D01*
X140822998Y-92241121D01*
X140769342Y-92287614D01*
X140717000Y-92299000D01*
X139490328Y-92299000D01*
X139464131Y-92296247D01*
X139293944Y-92260072D01*
X139293939Y-92260072D01*
X139287487Y-92258700D01*
X139096513Y-92258700D01*
X139090061Y-92260072D01*
X139090056Y-92260072D01*
X138919869Y-92296247D01*
X138893672Y-92299000D01*
X138067115Y-92299000D01*
X138051876Y-92303475D01*
X138050671Y-92304865D01*
X138049000Y-92312548D01*
X138049000Y-93022384D01*
X138053475Y-93037623D01*
X138054865Y-93038828D01*
X138062548Y-93040499D01*
X138153186Y-93040499D01*
X138221307Y-93060501D01*
X138267800Y-93114157D01*
X138278770Y-93164589D01*
X138278496Y-93167200D01*
X138279186Y-93173765D01*
X138288160Y-93259144D01*
X138298458Y-93357128D01*
X138357473Y-93538756D01*
X138390109Y-93595282D01*
X138400165Y-93612700D01*
X138416903Y-93681695D01*
X138393683Y-93748787D01*
X138337876Y-93792674D01*
X138291046Y-93801700D01*
X136423138Y-93801700D01*
X136355017Y-93781698D01*
X136329507Y-93760015D01*
X136282253Y-93707534D01*
X136173398Y-93628446D01*
X136133094Y-93599163D01*
X136133093Y-93599162D01*
X136127752Y-93595282D01*
X136121724Y-93592598D01*
X136121722Y-93592597D01*
X135959319Y-93520291D01*
X135959318Y-93520291D01*
X135953288Y-93517606D01*
X135838830Y-93493277D01*
X135772944Y-93479272D01*
X135772939Y-93479272D01*
X135766487Y-93477900D01*
X135575513Y-93477900D01*
X135569061Y-93479272D01*
X135569056Y-93479272D01*
X135503170Y-93493277D01*
X135388712Y-93517606D01*
X135382682Y-93520291D01*
X135382681Y-93520291D01*
X135220278Y-93592597D01*
X135220276Y-93592598D01*
X135214248Y-93595282D01*
X135208907Y-93599162D01*
X135208906Y-93599163D01*
X135168602Y-93628446D01*
X135059747Y-93707534D01*
X135055326Y-93712444D01*
X135055325Y-93712445D01*
X134947342Y-93832373D01*
X134931960Y-93849456D01*
X134836473Y-94014844D01*
X134777458Y-94196472D01*
X134776768Y-94203033D01*
X134776768Y-94203035D01*
X134771128Y-94256700D01*
X134757496Y-94386400D01*
X134758186Y-94392965D01*
X134776460Y-94566828D01*
X134777458Y-94576328D01*
X134836473Y-94757956D01*
X134931960Y-94923344D01*
X134936378Y-94928251D01*
X134936379Y-94928252D01*
X135049668Y-95054072D01*
X135059747Y-95065266D01*
X135122171Y-95110620D01*
X135200318Y-95167397D01*
X135214248Y-95177518D01*
X135220276Y-95180202D01*
X135220278Y-95180203D01*
X135377046Y-95250000D01*
X135388712Y-95255194D01*
X135481421Y-95274900D01*
X135569056Y-95293528D01*
X135569061Y-95293528D01*
X135575513Y-95294900D01*
X135766487Y-95294900D01*
X135772939Y-95293528D01*
X135772944Y-95293528D01*
X135860579Y-95274900D01*
X135953288Y-95255194D01*
X135964954Y-95250000D01*
X136121722Y-95180203D01*
X136121724Y-95180202D01*
X136127752Y-95177518D01*
X136141683Y-95167397D01*
X136219829Y-95110620D01*
X136282253Y-95065266D01*
X136329504Y-95012788D01*
X136389947Y-94975550D01*
X136423138Y-94971100D01*
X136563846Y-94971100D01*
X136631967Y-94991102D01*
X136678460Y-95044758D01*
X136688564Y-95115032D01*
X136672965Y-95160099D01*
X136630273Y-95234044D01*
X136571258Y-95415672D01*
X136570568Y-95422233D01*
X136570568Y-95422235D01*
X136553575Y-95583921D01*
X136551296Y-95605600D01*
X136551986Y-95612161D01*
X136553252Y-95624205D01*
X136540481Y-95694044D01*
X136517037Y-95726473D01*
X136414915Y-95828595D01*
X136352603Y-95862621D01*
X136325820Y-95865500D01*
X136200913Y-95865500D01*
X136194461Y-95866872D01*
X136194456Y-95866872D01*
X136122313Y-95882207D01*
X136014112Y-95905206D01*
X136008082Y-95907891D01*
X136008081Y-95907891D01*
X135845678Y-95980197D01*
X135845676Y-95980198D01*
X135839648Y-95982882D01*
X135834307Y-95986762D01*
X135834306Y-95986763D01*
X135805069Y-96008005D01*
X135685147Y-96095134D01*
X135680726Y-96100044D01*
X135680725Y-96100045D01*
X135558382Y-96235921D01*
X135497936Y-96273161D01*
X135426953Y-96271809D01*
X135375651Y-96240706D01*
X131470377Y-92335433D01*
X136587001Y-92335433D01*
X136587338Y-92341952D01*
X136597166Y-92436670D01*
X136600058Y-92450064D01*
X136651036Y-92602865D01*
X136657210Y-92616043D01*
X136741744Y-92752649D01*
X136750780Y-92764050D01*
X136864479Y-92877551D01*
X136875890Y-92886563D01*
X137012654Y-92970865D01*
X137025832Y-92977009D01*
X137178740Y-93027727D01*
X137192106Y-93030593D01*
X137285601Y-93040172D01*
X137292016Y-93040500D01*
X137522885Y-93040500D01*
X137538124Y-93036025D01*
X137539329Y-93034635D01*
X137541000Y-93026952D01*
X137541000Y-92317115D01*
X137536525Y-92301876D01*
X137535135Y-92300671D01*
X137527452Y-92299000D01*
X136605116Y-92299000D01*
X136589877Y-92303475D01*
X136588672Y-92304865D01*
X136587001Y-92312548D01*
X136587001Y-92335433D01*
X131470377Y-92335433D01*
X131041006Y-91906062D01*
X131006980Y-91843750D01*
X131004101Y-91816967D01*
X131004101Y-88505179D01*
X131005179Y-88488732D01*
X131008068Y-88466789D01*
X131009146Y-88458601D01*
X131001685Y-88401928D01*
X130989051Y-88305964D01*
X130947420Y-88205458D01*
X130930135Y-88163728D01*
X130911751Y-88139769D01*
X130882987Y-88102284D01*
X130882986Y-88102283D01*
X130881205Y-88099961D01*
X130836414Y-88041588D01*
X130829864Y-88036562D01*
X130829860Y-88036558D01*
X130812292Y-88023078D01*
X130799900Y-88012210D01*
X130182963Y-87395273D01*
X130148937Y-87332961D01*
X130146748Y-87293005D01*
X130148014Y-87280962D01*
X130148704Y-87274400D01*
X130139849Y-87190149D01*
X130129432Y-87091035D01*
X130129432Y-87091033D01*
X130128742Y-87084472D01*
X130069727Y-86902844D01*
X129974240Y-86737456D01*
X129928013Y-86686115D01*
X129850875Y-86600445D01*
X129850874Y-86600444D01*
X129846453Y-86595534D01*
X129691952Y-86483282D01*
X129685924Y-86480598D01*
X129685922Y-86480597D01*
X129523519Y-86408291D01*
X129523518Y-86408291D01*
X129517488Y-86405606D01*
X129424088Y-86385753D01*
X129337144Y-86367272D01*
X129337139Y-86367272D01*
X129330687Y-86365900D01*
X129139713Y-86365900D01*
X129133261Y-86367272D01*
X129133256Y-86367272D01*
X129046312Y-86385753D01*
X128952912Y-86405606D01*
X128946882Y-86408291D01*
X128946881Y-86408291D01*
X128784478Y-86480597D01*
X128784476Y-86480598D01*
X128778448Y-86483282D01*
X128623947Y-86595534D01*
X128619526Y-86600444D01*
X128619525Y-86600445D01*
X128542388Y-86686115D01*
X128496160Y-86737456D01*
X128400673Y-86902844D01*
X128341658Y-87084472D01*
X128340968Y-87091033D01*
X128340968Y-87091035D01*
X128330551Y-87190149D01*
X128321696Y-87274400D01*
X128322386Y-87280962D01*
X128322386Y-87280965D01*
X128330737Y-87360417D01*
X128317965Y-87430255D01*
X128269463Y-87482102D01*
X128245304Y-87493111D01*
X128219927Y-87501578D01*
X128219925Y-87501579D01*
X128212974Y-87503898D01*
X128063811Y-87596203D01*
X127939883Y-87720347D01*
X127938081Y-87723270D01*
X127881471Y-87763408D01*
X127810548Y-87766642D01*
X127749136Y-87731018D01*
X127743584Y-87724622D01*
X127740297Y-87719311D01*
X127616153Y-87595383D01*
X127466829Y-87503339D01*
X127459880Y-87501034D01*
X127306866Y-87450281D01*
X127306864Y-87450281D01*
X127300335Y-87448115D01*
X127196731Y-87437500D01*
X126905266Y-87437500D01*
X126609270Y-87437501D01*
X126504371Y-87448384D01*
X126497840Y-87450563D01*
X126497835Y-87450564D01*
X126365211Y-87494811D01*
X126337974Y-87503898D01*
X126188811Y-87596203D01*
X126064883Y-87720347D01*
X125972839Y-87869671D01*
X125970534Y-87876619D01*
X125970534Y-87876620D01*
X125925561Y-88012210D01*
X125917615Y-88036165D01*
X125907000Y-88139769D01*
X125907001Y-88640089D01*
X125907001Y-88991921D01*
X125886999Y-89060042D01*
X125833343Y-89106535D01*
X125763069Y-89116639D01*
X125698489Y-89087146D01*
X125691906Y-89081016D01*
X125462905Y-88852015D01*
X125428879Y-88789703D01*
X125426000Y-88762920D01*
X125425999Y-88143037D01*
X125425999Y-88139770D01*
X125415116Y-88034871D01*
X125412937Y-88028340D01*
X125412936Y-88028335D01*
X125361920Y-87875422D01*
X125359602Y-87868474D01*
X125267297Y-87719311D01*
X125143153Y-87595383D01*
X124993829Y-87503339D01*
X124986880Y-87501034D01*
X124833866Y-87450281D01*
X124833864Y-87450281D01*
X124827335Y-87448115D01*
X124723731Y-87437500D01*
X124432266Y-87437500D01*
X124136270Y-87437501D01*
X124031371Y-87448384D01*
X124024840Y-87450563D01*
X124024835Y-87450564D01*
X123892211Y-87494811D01*
X123864974Y-87503898D01*
X123715811Y-87596203D01*
X123591883Y-87720347D01*
X123590081Y-87723270D01*
X123533471Y-87763408D01*
X123462548Y-87766642D01*
X123401136Y-87731018D01*
X123395584Y-87724622D01*
X123392297Y-87719311D01*
X123268153Y-87595383D01*
X123118829Y-87503339D01*
X123111880Y-87501034D01*
X122958866Y-87450281D01*
X122958864Y-87450281D01*
X122952335Y-87448115D01*
X122848731Y-87437500D01*
X122557266Y-87437500D01*
X122261270Y-87437501D01*
X122156371Y-87448384D01*
X122149840Y-87450563D01*
X122149835Y-87450564D01*
X122017211Y-87494811D01*
X121989974Y-87503898D01*
X121840811Y-87596203D01*
X121716883Y-87720347D01*
X121624839Y-87869671D01*
X121622534Y-87876619D01*
X121622534Y-87876620D01*
X121577561Y-88012210D01*
X121569615Y-88036165D01*
X121559000Y-88139769D01*
X121559001Y-89152230D01*
X121569884Y-89257129D01*
X121572063Y-89263660D01*
X121572064Y-89263665D01*
X121615438Y-89393671D01*
X121625398Y-89423526D01*
X121717703Y-89572689D01*
X121841847Y-89696617D01*
X121848077Y-89700457D01*
X121848078Y-89700458D01*
X121875578Y-89717409D01*
X121977940Y-89780505D01*
X121988165Y-89786808D01*
X122038458Y-89845851D01*
X122044266Y-89859873D01*
X122049293Y-89866424D01*
X122049294Y-89866426D01*
X122056848Y-89876270D01*
X122131746Y-89973879D01*
X122137987Y-89982013D01*
X122144533Y-89987036D01*
X122144536Y-89987039D01*
X122162109Y-90000523D01*
X122174501Y-90011391D01*
X122199055Y-90035945D01*
X122233081Y-90098257D01*
X122228016Y-90169072D01*
X122185469Y-90225908D01*
X122149836Y-90244564D01*
X122008057Y-90291865D01*
X121989974Y-90297898D01*
X121840811Y-90390203D01*
X121716883Y-90514347D01*
X121624839Y-90663671D01*
X121622534Y-90670619D01*
X121622534Y-90670620D01*
X121580255Y-90798088D01*
X121569615Y-90830165D01*
X121559000Y-90933769D01*
X121559001Y-91946230D01*
X121569884Y-92051129D01*
X121572063Y-92057660D01*
X121572064Y-92057665D01*
X121600865Y-92143992D01*
X121625398Y-92217526D01*
X121717703Y-92366689D01*
X121841847Y-92490617D01*
X121848079Y-92494458D01*
X121848081Y-92494460D01*
X121910415Y-92532883D01*
X121957909Y-92585655D01*
X121970300Y-92640143D01*
X121970300Y-92779871D01*
X121950298Y-92847992D01*
X121910604Y-92887014D01*
X121840811Y-92930203D01*
X121716883Y-93054347D01*
X121624839Y-93203671D01*
X121622534Y-93210619D01*
X121622534Y-93210620D01*
X121575117Y-93353578D01*
X121569615Y-93370165D01*
X121559000Y-93473769D01*
X121559001Y-94486230D01*
X121569884Y-94591129D01*
X121572063Y-94597660D01*
X121572064Y-94597665D01*
X121609925Y-94711148D01*
X121625398Y-94757526D01*
X121717703Y-94906689D01*
X121841847Y-95030617D01*
X121848079Y-95034458D01*
X121848081Y-95034460D01*
X121910415Y-95072883D01*
X121957909Y-95125655D01*
X121970300Y-95180143D01*
X121970300Y-95319871D01*
X121950298Y-95387992D01*
X121910604Y-95427014D01*
X121840811Y-95470203D01*
X121716883Y-95594347D01*
X121713043Y-95600577D01*
X121713042Y-95600578D01*
X121709802Y-95605835D01*
X121624839Y-95743671D01*
X121622534Y-95750619D01*
X121622534Y-95750620D01*
X121585061Y-95863598D01*
X121569615Y-95910165D01*
X121559000Y-96013769D01*
X121559000Y-96220253D01*
X121538998Y-96288374D01*
X121485342Y-96334867D01*
X121415068Y-96344971D01*
X121384782Y-96336662D01*
X121318266Y-96309110D01*
X121310637Y-96305950D01*
X121302449Y-96304872D01*
X121196324Y-96290900D01*
X121196319Y-96290900D01*
X121158000Y-96285855D01*
X121149812Y-96286933D01*
X121127867Y-96289822D01*
X121111421Y-96290900D01*
X119405138Y-96290900D01*
X119337017Y-96270898D01*
X119311507Y-96249215D01*
X119264253Y-96196734D01*
X119109752Y-96084482D01*
X119103724Y-96081798D01*
X119103722Y-96081797D01*
X118941319Y-96009491D01*
X118941318Y-96009491D01*
X118935288Y-96006806D01*
X118800165Y-95978085D01*
X118737693Y-95944357D01*
X118703371Y-95882207D01*
X118705805Y-95818209D01*
X118764777Y-95624110D01*
X118766955Y-95614037D01*
X118768386Y-95603162D01*
X118766175Y-95588978D01*
X118753017Y-95585200D01*
X113577625Y-95585200D01*
X113564094Y-95589173D01*
X113562657Y-95599166D01*
X113592965Y-95733646D01*
X113596045Y-95743475D01*
X113676170Y-95940803D01*
X113680813Y-95949994D01*
X113792094Y-96131588D01*
X113798177Y-96139899D01*
X113937613Y-96300867D01*
X113944980Y-96308083D01*
X114108834Y-96444116D01*
X114117281Y-96450031D01*
X114186369Y-96490403D01*
X114235093Y-96542042D01*
X114248164Y-96611825D01*
X114221433Y-96677596D01*
X114180984Y-96710952D01*
X114168007Y-96717707D01*
X114163874Y-96720810D01*
X114163871Y-96720812D01*
X114016627Y-96831366D01*
X113989365Y-96851835D01*
X113985793Y-96855573D01*
X113844966Y-97002940D01*
X113835029Y-97013338D01*
X113832120Y-97017603D01*
X113832114Y-97017611D01*
X113790430Y-97078718D01*
X113709143Y-97197880D01*
X113673797Y-97274027D01*
X113618818Y-97392470D01*
X113615088Y-97400505D01*
X113555389Y-97615770D01*
X113531651Y-97837895D01*
X113531948Y-97843048D01*
X113531948Y-97843051D01*
X113542460Y-98025366D01*
X113544510Y-98060915D01*
X113545647Y-98065961D01*
X113545648Y-98065967D01*
X113568481Y-98167283D01*
X113593622Y-98278839D01*
X113652669Y-98424255D01*
X113672151Y-98472233D01*
X113677666Y-98485816D01*
X113715310Y-98547246D01*
X113791691Y-98671888D01*
X113794387Y-98676288D01*
X113940650Y-98845138D01*
X114112526Y-98987832D01*
X114172271Y-99022744D01*
X114185845Y-99030676D01*
X114234569Y-99082314D01*
X114247640Y-99152097D01*
X114220909Y-99217869D01*
X114180455Y-99251227D01*
X114168007Y-99257707D01*
X114163874Y-99260810D01*
X114163871Y-99260812D01*
X113993500Y-99388730D01*
X113989365Y-99391835D01*
X113835029Y-99553338D01*
X113832120Y-99557603D01*
X113832114Y-99557611D01*
X113799311Y-99605699D01*
X113709143Y-99737880D01*
X113693403Y-99771790D01*
X113635531Y-99896465D01*
X113615088Y-99940505D01*
X113555389Y-100155770D01*
X113554840Y-100160907D01*
X113553856Y-100170113D01*
X113531651Y-100377895D01*
X113531948Y-100383048D01*
X113531948Y-100383051D01*
X113542699Y-100569511D01*
X113544510Y-100600915D01*
X113545647Y-100605961D01*
X113545648Y-100605967D01*
X113565519Y-100694139D01*
X113593622Y-100818839D01*
X113648794Y-100954713D01*
X113675109Y-101019518D01*
X113677666Y-101025816D01*
X113719761Y-101094509D01*
X113791691Y-101211888D01*
X113794387Y-101216288D01*
X113940650Y-101385138D01*
X114112526Y-101527832D01*
X114176399Y-101565156D01*
X114185845Y-101570676D01*
X114234569Y-101622314D01*
X114247640Y-101692097D01*
X114220909Y-101757869D01*
X114180455Y-101791227D01*
X114168007Y-101797707D01*
X114163874Y-101800810D01*
X114163871Y-101800812D01*
X113993500Y-101928730D01*
X113989365Y-101931835D01*
X113960567Y-101961970D01*
X113861613Y-102065520D01*
X113835029Y-102093338D01*
X113832120Y-102097603D01*
X113832114Y-102097611D01*
X113823820Y-102109770D01*
X113709143Y-102277880D01*
X113683531Y-102333056D01*
X113627975Y-102452743D01*
X113615088Y-102480505D01*
X113555389Y-102695770D01*
X113531651Y-102917895D01*
X113531948Y-102923048D01*
X113531948Y-102923051D01*
X113542884Y-103112715D01*
X113544510Y-103140915D01*
X113545647Y-103145961D01*
X113545648Y-103145967D01*
X113569206Y-103250499D01*
X113593622Y-103358839D01*
X113677666Y-103565816D01*
X113728419Y-103648638D01*
X113791691Y-103751888D01*
X113794387Y-103756288D01*
X113940650Y-103925138D01*
X114112526Y-104067832D01*
X114123886Y-104074470D01*
X114185845Y-104110676D01*
X114234569Y-104162314D01*
X114247640Y-104232097D01*
X114220909Y-104297869D01*
X114180455Y-104331227D01*
X114168007Y-104337707D01*
X114163874Y-104340810D01*
X114163871Y-104340812D01*
X113999563Y-104464178D01*
X113989365Y-104471835D01*
X113985793Y-104475573D01*
X113840184Y-104627944D01*
X113835029Y-104633338D01*
X113832120Y-104637603D01*
X113832114Y-104637611D01*
X113814360Y-104663638D01*
X113709143Y-104817880D01*
X113680876Y-104878776D01*
X113620026Y-105009868D01*
X113615088Y-105020505D01*
X113555389Y-105235770D01*
X113531651Y-105457895D01*
X113531948Y-105463048D01*
X113531948Y-105463051D01*
X113539451Y-105593171D01*
X113544510Y-105680915D01*
X113545647Y-105685961D01*
X113545648Y-105685967D01*
X113557907Y-105740363D01*
X113593622Y-105898839D01*
X113633227Y-105996374D01*
X113665110Y-106074893D01*
X113677666Y-106105816D01*
X113716807Y-106169688D01*
X113791691Y-106291888D01*
X113794387Y-106296288D01*
X113940650Y-106465138D01*
X114112526Y-106607832D01*
X114160352Y-106635779D01*
X114185845Y-106650676D01*
X114234569Y-106702314D01*
X114247640Y-106772097D01*
X114220909Y-106837869D01*
X114180455Y-106871227D01*
X114168007Y-106877707D01*
X114163874Y-106880810D01*
X114163871Y-106880812D01*
X113993500Y-107008730D01*
X113989365Y-107011835D01*
X113835029Y-107173338D01*
X113832120Y-107177603D01*
X113832114Y-107177611D01*
X113785603Y-107245794D01*
X113709143Y-107357880D01*
X113674585Y-107432329D01*
X113619990Y-107549945D01*
X113615088Y-107560505D01*
X113555389Y-107775770D01*
X113531651Y-107997895D01*
X106553000Y-107997895D01*
X106553000Y-92757895D01*
X113531651Y-92757895D01*
X113531948Y-92763048D01*
X113531948Y-92763051D01*
X113537411Y-92857790D01*
X113544510Y-92980915D01*
X113545647Y-92985961D01*
X113545648Y-92985967D01*
X113564821Y-93071041D01*
X113593622Y-93198839D01*
X113631861Y-93293011D01*
X113656455Y-93353578D01*
X113677666Y-93405816D01*
X113717315Y-93470517D01*
X113791691Y-93591888D01*
X113794387Y-93596288D01*
X113940650Y-93765138D01*
X114112526Y-93907832D01*
X114172280Y-93942749D01*
X114186355Y-93950974D01*
X114235079Y-94002612D01*
X114248150Y-94072395D01*
X114221419Y-94138167D01*
X114180962Y-94171527D01*
X114172857Y-94175746D01*
X114164138Y-94181236D01*
X113993833Y-94309105D01*
X113986126Y-94315948D01*
X113838990Y-94469917D01*
X113832504Y-94477927D01*
X113712498Y-94653849D01*
X113707400Y-94662823D01*
X113617738Y-94855983D01*
X113614175Y-94865670D01*
X113558789Y-95065383D01*
X113560312Y-95073807D01*
X113572692Y-95077200D01*
X118752744Y-95077200D01*
X118766275Y-95073227D01*
X118767580Y-95064147D01*
X118725614Y-94897075D01*
X118722294Y-94887324D01*
X118637372Y-94692014D01*
X118632505Y-94682939D01*
X118516826Y-94504126D01*
X118510536Y-94495957D01*
X118367206Y-94338440D01*
X118359673Y-94331415D01*
X118192539Y-94199422D01*
X118183956Y-94193720D01*
X118147002Y-94173320D01*
X118097031Y-94122887D01*
X118082259Y-94053445D01*
X118107375Y-93987039D01*
X118134727Y-93960432D01*
X118161213Y-93941540D01*
X118314260Y-93832373D01*
X118345041Y-93801700D01*
X118418341Y-93728655D01*
X118472496Y-93674689D01*
X118531994Y-93591889D01*
X118599835Y-93497477D01*
X118602853Y-93493277D01*
X118610880Y-93477037D01*
X118699536Y-93297653D01*
X118699537Y-93297651D01*
X118701830Y-93293011D01*
X118762755Y-93092483D01*
X118765265Y-93084223D01*
X118765265Y-93084221D01*
X118766770Y-93079269D01*
X118795929Y-92857790D01*
X118796106Y-92850548D01*
X118797474Y-92794565D01*
X118797474Y-92794561D01*
X118797556Y-92791200D01*
X118779252Y-92568561D01*
X118724831Y-92351902D01*
X118635754Y-92147040D01*
X118588210Y-92073548D01*
X118517222Y-91963817D01*
X118517220Y-91963814D01*
X118514414Y-91959477D01*
X118364070Y-91794251D01*
X118360019Y-91791052D01*
X118360015Y-91791048D01*
X118192814Y-91659000D01*
X118192810Y-91658998D01*
X118188759Y-91655798D01*
X118147453Y-91632996D01*
X118097484Y-91582564D01*
X118082712Y-91513121D01*
X118107828Y-91446716D01*
X118135180Y-91420109D01*
X118196336Y-91376487D01*
X118314260Y-91292373D01*
X118472496Y-91134689D01*
X118496085Y-91101862D01*
X118599835Y-90957477D01*
X118602853Y-90953277D01*
X118605696Y-90947526D01*
X118699536Y-90757653D01*
X118699537Y-90757651D01*
X118701830Y-90753011D01*
X118743737Y-90615079D01*
X118765265Y-90544223D01*
X118765265Y-90544221D01*
X118766770Y-90539269D01*
X118795929Y-90317790D01*
X118797212Y-90265293D01*
X118797474Y-90254565D01*
X118797474Y-90254561D01*
X118797556Y-90251200D01*
X118779252Y-90028561D01*
X118724831Y-89811902D01*
X118635754Y-89607040D01*
X118562565Y-89493907D01*
X118517222Y-89423817D01*
X118517220Y-89423814D01*
X118514414Y-89419477D01*
X118364070Y-89254251D01*
X118360019Y-89251052D01*
X118360015Y-89251048D01*
X118192814Y-89119000D01*
X118192810Y-89118998D01*
X118188759Y-89115798D01*
X118146969Y-89092729D01*
X118096998Y-89042297D01*
X118082226Y-88972854D01*
X118107342Y-88906448D01*
X118134694Y-88879841D01*
X118309728Y-88754992D01*
X118317600Y-88748339D01*
X118468452Y-88598012D01*
X118475130Y-88590165D01*
X118599403Y-88417220D01*
X118604713Y-88408383D01*
X118699070Y-88217467D01*
X118702869Y-88207872D01*
X118764777Y-88004110D01*
X118766955Y-87994037D01*
X118768386Y-87983162D01*
X118766175Y-87968978D01*
X118753017Y-87965200D01*
X113577625Y-87965200D01*
X113564094Y-87969173D01*
X113562657Y-87979166D01*
X113592965Y-88113646D01*
X113596045Y-88123475D01*
X113676170Y-88320803D01*
X113680813Y-88329994D01*
X113792094Y-88511588D01*
X113798177Y-88519899D01*
X113937613Y-88680867D01*
X113944980Y-88688083D01*
X114108834Y-88824116D01*
X114117281Y-88830031D01*
X114186369Y-88870403D01*
X114235093Y-88922042D01*
X114248164Y-88991825D01*
X114221433Y-89057596D01*
X114180984Y-89090952D01*
X114168007Y-89097707D01*
X114163874Y-89100810D01*
X114163871Y-89100812D01*
X114017514Y-89210700D01*
X113989365Y-89231835D01*
X113964294Y-89258070D01*
X113841605Y-89386457D01*
X113835029Y-89393338D01*
X113832120Y-89397603D01*
X113832114Y-89397611D01*
X113819804Y-89415657D01*
X113709143Y-89577880D01*
X113670770Y-89660548D01*
X113621759Y-89766134D01*
X113615088Y-89780505D01*
X113555389Y-89995770D01*
X113531651Y-90217895D01*
X113531948Y-90223048D01*
X113531948Y-90223051D01*
X113542883Y-90412702D01*
X113544510Y-90440915D01*
X113545647Y-90445961D01*
X113545648Y-90445967D01*
X113554188Y-90483860D01*
X113593622Y-90658839D01*
X113677666Y-90865816D01*
X113717315Y-90930517D01*
X113791691Y-91051888D01*
X113794387Y-91056288D01*
X113940650Y-91225138D01*
X114112526Y-91367832D01*
X114142563Y-91385384D01*
X114185845Y-91410676D01*
X114234569Y-91462314D01*
X114247640Y-91532097D01*
X114220909Y-91597869D01*
X114180455Y-91631227D01*
X114168007Y-91637707D01*
X114163874Y-91640810D01*
X114163871Y-91640812D01*
X113993500Y-91768730D01*
X113989365Y-91771835D01*
X113971005Y-91791048D01*
X113861095Y-91906062D01*
X113835029Y-91933338D01*
X113832120Y-91937603D01*
X113832114Y-91937611D01*
X113801029Y-91983180D01*
X113709143Y-92117880D01*
X113683557Y-92173000D01*
X113617434Y-92315452D01*
X113615088Y-92320505D01*
X113555389Y-92535770D01*
X113531651Y-92757895D01*
X106553000Y-92757895D01*
X106553000Y-85137895D01*
X113531651Y-85137895D01*
X113531948Y-85143048D01*
X113531948Y-85143051D01*
X113543277Y-85339525D01*
X113544510Y-85360915D01*
X113545647Y-85365961D01*
X113545648Y-85365967D01*
X113555864Y-85411296D01*
X113593622Y-85578839D01*
X113677666Y-85785816D01*
X113719986Y-85854876D01*
X113791691Y-85971888D01*
X113794387Y-85976288D01*
X113940650Y-86145138D01*
X114112526Y-86287832D01*
X114161981Y-86316731D01*
X114186355Y-86330974D01*
X114235079Y-86382612D01*
X114248150Y-86452395D01*
X114221419Y-86518167D01*
X114180962Y-86551527D01*
X114172857Y-86555746D01*
X114164138Y-86561236D01*
X113993833Y-86689105D01*
X113986126Y-86695948D01*
X113838990Y-86849917D01*
X113832504Y-86857927D01*
X113712498Y-87033849D01*
X113707400Y-87042823D01*
X113617738Y-87235983D01*
X113614175Y-87245670D01*
X113558789Y-87445383D01*
X113560312Y-87453807D01*
X113572692Y-87457200D01*
X118752744Y-87457200D01*
X118766275Y-87453227D01*
X118767580Y-87444147D01*
X118725614Y-87277075D01*
X118722294Y-87267324D01*
X118637372Y-87072014D01*
X118632505Y-87062939D01*
X118516826Y-86884126D01*
X118510536Y-86875957D01*
X118367206Y-86718440D01*
X118359673Y-86711415D01*
X118192539Y-86579422D01*
X118183956Y-86573720D01*
X118147002Y-86553320D01*
X118097031Y-86502887D01*
X118082259Y-86433445D01*
X118107375Y-86367039D01*
X118134727Y-86340432D01*
X118167955Y-86316731D01*
X118314260Y-86212373D01*
X118324396Y-86202273D01*
X118419601Y-86107399D01*
X118472496Y-86054689D01*
X118528223Y-85977137D01*
X118599835Y-85877477D01*
X118602853Y-85873277D01*
X118606599Y-85865699D01*
X118699536Y-85677653D01*
X118699537Y-85677651D01*
X118701830Y-85673011D01*
X118755112Y-85497639D01*
X118765265Y-85464223D01*
X118765265Y-85464221D01*
X118766770Y-85459269D01*
X118795929Y-85237790D01*
X118796311Y-85222149D01*
X118797474Y-85174565D01*
X118797474Y-85174561D01*
X118797556Y-85171200D01*
X118788142Y-85056695D01*
X121065251Y-85056695D01*
X121065548Y-85061848D01*
X121065548Y-85061851D01*
X121075693Y-85237790D01*
X121078110Y-85279715D01*
X121079247Y-85284761D01*
X121079248Y-85284767D01*
X121101390Y-85383015D01*
X121127222Y-85497639D01*
X121181899Y-85632293D01*
X121200318Y-85677653D01*
X121211266Y-85704616D01*
X121213965Y-85709020D01*
X121312684Y-85870115D01*
X121327987Y-85895088D01*
X121474250Y-86063938D01*
X121621610Y-86186279D01*
X121640876Y-86202273D01*
X121646126Y-86206632D01*
X121839000Y-86319338D01*
X121843825Y-86321180D01*
X121843826Y-86321181D01*
X121898597Y-86342096D01*
X122047692Y-86399030D01*
X122052760Y-86400061D01*
X122052763Y-86400062D01*
X122160012Y-86421882D01*
X122266597Y-86443567D01*
X122271772Y-86443757D01*
X122271774Y-86443757D01*
X122484673Y-86451564D01*
X122484677Y-86451564D01*
X122489837Y-86451753D01*
X122494957Y-86451097D01*
X122494959Y-86451097D01*
X122706288Y-86424025D01*
X122706289Y-86424025D01*
X122711416Y-86423368D01*
X122761670Y-86408291D01*
X122920429Y-86360661D01*
X122920434Y-86360659D01*
X122925384Y-86359174D01*
X123125994Y-86260896D01*
X123307860Y-86131173D01*
X123466096Y-85973489D01*
X123488161Y-85942783D01*
X123593435Y-85796277D01*
X123596453Y-85792077D01*
X123599548Y-85785816D01*
X123693136Y-85596453D01*
X123693137Y-85596451D01*
X123695430Y-85591811D01*
X123734194Y-85464223D01*
X123758865Y-85383023D01*
X123758867Y-85383015D01*
X123760370Y-85378069D01*
X123789529Y-85156590D01*
X123791156Y-85090000D01*
X123788418Y-85056695D01*
X125992851Y-85056695D01*
X125993148Y-85061848D01*
X125993148Y-85061851D01*
X126003293Y-85237790D01*
X126005710Y-85279715D01*
X126006847Y-85284761D01*
X126006848Y-85284767D01*
X126028990Y-85383015D01*
X126054822Y-85497639D01*
X126109499Y-85632293D01*
X126127918Y-85677653D01*
X126138866Y-85704616D01*
X126141565Y-85709020D01*
X126240284Y-85870115D01*
X126255587Y-85895088D01*
X126401850Y-86063938D01*
X126549210Y-86186279D01*
X126568476Y-86202273D01*
X126573726Y-86206632D01*
X126766600Y-86319338D01*
X126771425Y-86321180D01*
X126771426Y-86321181D01*
X126826197Y-86342096D01*
X126975292Y-86399030D01*
X126980360Y-86400061D01*
X126980363Y-86400062D01*
X127087612Y-86421882D01*
X127194197Y-86443567D01*
X127199372Y-86443757D01*
X127199374Y-86443757D01*
X127412273Y-86451564D01*
X127412277Y-86451564D01*
X127417437Y-86451753D01*
X127422557Y-86451097D01*
X127422559Y-86451097D01*
X127633888Y-86424025D01*
X127633889Y-86424025D01*
X127639016Y-86423368D01*
X127689270Y-86408291D01*
X127848029Y-86360661D01*
X127848034Y-86360659D01*
X127852984Y-86359174D01*
X128053594Y-86260896D01*
X128235460Y-86131173D01*
X128393696Y-85973489D01*
X128415761Y-85942783D01*
X128521035Y-85796277D01*
X128524053Y-85792077D01*
X128527148Y-85785816D01*
X128620736Y-85596453D01*
X128620737Y-85596451D01*
X128623030Y-85591811D01*
X128661794Y-85464223D01*
X128686465Y-85383023D01*
X128686467Y-85383015D01*
X128687970Y-85378069D01*
X128717129Y-85156590D01*
X128718756Y-85090000D01*
X128700452Y-84867361D01*
X128646031Y-84650702D01*
X128556954Y-84445840D01*
X128498406Y-84355338D01*
X128438422Y-84262617D01*
X128438420Y-84262614D01*
X128435614Y-84258277D01*
X128285270Y-84093051D01*
X128281219Y-84089852D01*
X128281215Y-84089848D01*
X128114014Y-83957800D01*
X128114010Y-83957798D01*
X128109959Y-83954598D01*
X128068653Y-83931796D01*
X128018684Y-83881364D01*
X128003912Y-83811921D01*
X128029028Y-83745516D01*
X128056380Y-83718909D01*
X128117418Y-83675371D01*
X128235460Y-83591173D01*
X128393696Y-83433489D01*
X128453194Y-83350689D01*
X128521035Y-83256277D01*
X128524053Y-83252077D01*
X128527148Y-83245816D01*
X128620736Y-83056453D01*
X128620737Y-83056451D01*
X128623030Y-83051811D01*
X128661794Y-82924223D01*
X128686465Y-82843023D01*
X128686465Y-82843021D01*
X128687970Y-82838069D01*
X128717129Y-82616590D01*
X128718756Y-82550000D01*
X128700452Y-82327361D01*
X128646031Y-82110702D01*
X128556954Y-81905840D01*
X128488145Y-81799477D01*
X128438422Y-81722617D01*
X128438420Y-81722614D01*
X128435614Y-81718277D01*
X128432140Y-81714459D01*
X128432133Y-81714450D01*
X128288035Y-81556088D01*
X128256983Y-81492242D01*
X128265379Y-81421744D01*
X128310556Y-81366976D01*
X128337000Y-81353307D01*
X128443652Y-81313325D01*
X128459249Y-81304786D01*
X128561324Y-81228285D01*
X128573885Y-81215724D01*
X128650386Y-81113649D01*
X128658924Y-81098054D01*
X128704078Y-80977606D01*
X128707705Y-80962351D01*
X128713231Y-80911486D01*
X128713600Y-80904672D01*
X128713600Y-80282115D01*
X128709125Y-80266876D01*
X128707735Y-80265671D01*
X128700052Y-80264000D01*
X126015716Y-80264000D01*
X126000477Y-80268475D01*
X125999272Y-80269865D01*
X125997601Y-80277548D01*
X125997601Y-80904669D01*
X125997971Y-80911490D01*
X126003495Y-80962352D01*
X126007121Y-80977604D01*
X126052276Y-81098054D01*
X126060814Y-81113649D01*
X126137315Y-81215724D01*
X126149876Y-81228285D01*
X126251951Y-81304786D01*
X126267546Y-81313324D01*
X126376427Y-81354142D01*
X126433191Y-81396784D01*
X126457891Y-81463345D01*
X126442683Y-81532694D01*
X126423291Y-81559175D01*
X126345319Y-81640768D01*
X126296229Y-81692138D01*
X126170343Y-81876680D01*
X126076288Y-82079305D01*
X126016589Y-82294570D01*
X125992851Y-82516695D01*
X125993148Y-82521848D01*
X125993148Y-82521851D01*
X126003293Y-82697790D01*
X126005710Y-82739715D01*
X126006847Y-82744761D01*
X126006848Y-82744767D01*
X126022845Y-82815747D01*
X126054822Y-82957639D01*
X126093061Y-83051811D01*
X126127918Y-83137653D01*
X126138866Y-83164616D01*
X126255587Y-83355088D01*
X126401850Y-83523938D01*
X126573726Y-83666632D01*
X126583551Y-83672373D01*
X126647045Y-83709476D01*
X126695769Y-83761114D01*
X126708840Y-83830897D01*
X126682109Y-83896669D01*
X126641655Y-83930027D01*
X126629207Y-83936507D01*
X126625074Y-83939610D01*
X126625071Y-83939612D01*
X126454700Y-84067530D01*
X126450565Y-84070635D01*
X126446993Y-84074373D01*
X126309333Y-84218426D01*
X126296229Y-84232138D01*
X126170343Y-84416680D01*
X126154603Y-84450590D01*
X126106704Y-84553780D01*
X126076288Y-84619305D01*
X126016589Y-84834570D01*
X125992851Y-85056695D01*
X123788418Y-85056695D01*
X123772852Y-84867361D01*
X123718431Y-84650702D01*
X123629354Y-84445840D01*
X123570806Y-84355338D01*
X123510822Y-84262617D01*
X123510820Y-84262614D01*
X123508014Y-84258277D01*
X123357670Y-84093051D01*
X123353619Y-84089852D01*
X123353615Y-84089848D01*
X123186414Y-83957800D01*
X123186410Y-83957798D01*
X123182359Y-83954598D01*
X123141053Y-83931796D01*
X123091084Y-83881364D01*
X123076312Y-83811921D01*
X123101428Y-83745516D01*
X123128780Y-83718909D01*
X123189818Y-83675371D01*
X123307860Y-83591173D01*
X123466096Y-83433489D01*
X123525594Y-83350689D01*
X123593435Y-83256277D01*
X123596453Y-83252077D01*
X123599548Y-83245816D01*
X123693136Y-83056453D01*
X123693137Y-83056451D01*
X123695430Y-83051811D01*
X123734194Y-82924223D01*
X123758865Y-82843023D01*
X123758865Y-82843021D01*
X123760370Y-82838069D01*
X123789529Y-82616590D01*
X123791156Y-82550000D01*
X123772852Y-82327361D01*
X123718431Y-82110702D01*
X123629354Y-81905840D01*
X123560545Y-81799477D01*
X123510822Y-81722617D01*
X123510820Y-81722614D01*
X123508014Y-81718277D01*
X123504540Y-81714459D01*
X123504533Y-81714450D01*
X123360435Y-81556088D01*
X123329383Y-81492242D01*
X123337779Y-81421744D01*
X123382956Y-81366976D01*
X123409400Y-81353307D01*
X123516052Y-81313325D01*
X123531649Y-81304786D01*
X123633724Y-81228285D01*
X123646285Y-81215724D01*
X123722786Y-81113649D01*
X123731324Y-81098054D01*
X123776478Y-80977606D01*
X123780105Y-80962351D01*
X123785631Y-80911486D01*
X123786000Y-80904672D01*
X123786000Y-80282115D01*
X123781525Y-80266876D01*
X123780135Y-80265671D01*
X123772452Y-80264000D01*
X121088116Y-80264000D01*
X121072877Y-80268475D01*
X121071672Y-80269865D01*
X121070001Y-80277548D01*
X121070001Y-80904669D01*
X121070371Y-80911490D01*
X121075895Y-80962352D01*
X121079521Y-80977604D01*
X121124676Y-81098054D01*
X121133214Y-81113649D01*
X121209715Y-81215724D01*
X121222276Y-81228285D01*
X121324351Y-81304786D01*
X121339946Y-81313324D01*
X121448827Y-81354142D01*
X121505591Y-81396784D01*
X121530291Y-81463345D01*
X121515083Y-81532694D01*
X121495691Y-81559175D01*
X121417719Y-81640768D01*
X121368629Y-81692138D01*
X121242743Y-81876680D01*
X121148688Y-82079305D01*
X121088989Y-82294570D01*
X121065251Y-82516695D01*
X121065548Y-82521848D01*
X121065548Y-82521851D01*
X121075693Y-82697790D01*
X121078110Y-82739715D01*
X121079247Y-82744761D01*
X121079248Y-82744767D01*
X121095245Y-82815747D01*
X121127222Y-82957639D01*
X121165461Y-83051811D01*
X121200318Y-83137653D01*
X121211266Y-83164616D01*
X121327987Y-83355088D01*
X121474250Y-83523938D01*
X121646126Y-83666632D01*
X121655951Y-83672373D01*
X121719445Y-83709476D01*
X121768169Y-83761114D01*
X121781240Y-83830897D01*
X121754509Y-83896669D01*
X121714055Y-83930027D01*
X121701607Y-83936507D01*
X121697474Y-83939610D01*
X121697471Y-83939612D01*
X121527100Y-84067530D01*
X121522965Y-84070635D01*
X121519393Y-84074373D01*
X121381733Y-84218426D01*
X121368629Y-84232138D01*
X121242743Y-84416680D01*
X121227003Y-84450590D01*
X121179104Y-84553780D01*
X121148688Y-84619305D01*
X121088989Y-84834570D01*
X121065251Y-85056695D01*
X118788142Y-85056695D01*
X118779252Y-84948561D01*
X118724831Y-84731902D01*
X118635754Y-84527040D01*
X118583223Y-84445840D01*
X118517222Y-84343817D01*
X118517220Y-84343814D01*
X118514414Y-84339477D01*
X118364070Y-84174251D01*
X118360019Y-84171052D01*
X118360015Y-84171048D01*
X118192814Y-84039000D01*
X118192810Y-84038998D01*
X118188759Y-84035798D01*
X118147453Y-84012996D01*
X118097484Y-83962564D01*
X118082712Y-83893121D01*
X118107828Y-83826716D01*
X118135180Y-83800109D01*
X118189849Y-83761114D01*
X118314260Y-83672373D01*
X118337311Y-83649403D01*
X118459901Y-83527240D01*
X118472496Y-83514689D01*
X118528223Y-83437137D01*
X118599835Y-83337477D01*
X118602853Y-83333277D01*
X118623720Y-83291057D01*
X118699536Y-83137653D01*
X118699537Y-83137651D01*
X118701830Y-83133011D01*
X118755112Y-82957639D01*
X118765265Y-82924223D01*
X118765265Y-82924221D01*
X118766770Y-82919269D01*
X118795929Y-82697790D01*
X118797556Y-82631200D01*
X118779252Y-82408561D01*
X118724831Y-82191902D01*
X118635754Y-81987040D01*
X118583223Y-81905840D01*
X118517222Y-81803817D01*
X118517220Y-81803814D01*
X118514414Y-81799477D01*
X118364070Y-81634251D01*
X118360019Y-81631052D01*
X118360015Y-81631048D01*
X118192814Y-81499000D01*
X118192810Y-81498998D01*
X118188759Y-81495798D01*
X118147453Y-81472996D01*
X118097484Y-81422564D01*
X118082712Y-81353121D01*
X118107828Y-81286716D01*
X118135180Y-81260109D01*
X118189592Y-81221297D01*
X118314260Y-81132373D01*
X118472496Y-80974689D01*
X118602853Y-80793277D01*
X118688742Y-80619494D01*
X118699536Y-80597653D01*
X118699537Y-80597651D01*
X118701830Y-80593011D01*
X118766770Y-80379269D01*
X118795929Y-80157790D01*
X118796597Y-80130462D01*
X118797474Y-80094565D01*
X118797474Y-80094561D01*
X118797556Y-80091200D01*
X118779252Y-79868561D01*
X118746428Y-79737885D01*
X121070000Y-79737885D01*
X121074475Y-79753124D01*
X121075865Y-79754329D01*
X121083548Y-79756000D01*
X122155885Y-79756000D01*
X122171124Y-79751525D01*
X122172329Y-79750135D01*
X122174000Y-79742452D01*
X122174000Y-79737885D01*
X122682000Y-79737885D01*
X122686475Y-79753124D01*
X122687865Y-79754329D01*
X122695548Y-79756000D01*
X123767884Y-79756000D01*
X123783123Y-79751525D01*
X123784328Y-79750135D01*
X123785999Y-79742452D01*
X123785999Y-79737885D01*
X125997600Y-79737885D01*
X126002075Y-79753124D01*
X126003465Y-79754329D01*
X126011148Y-79756000D01*
X127083485Y-79756000D01*
X127098724Y-79751525D01*
X127099929Y-79750135D01*
X127101600Y-79742452D01*
X127101600Y-79737885D01*
X127609600Y-79737885D01*
X127614075Y-79753124D01*
X127615465Y-79754329D01*
X127623148Y-79756000D01*
X128695484Y-79756000D01*
X128710723Y-79751525D01*
X128711928Y-79750135D01*
X128713599Y-79742452D01*
X128713599Y-79737885D01*
X131331600Y-79737885D01*
X131336075Y-79753124D01*
X131337465Y-79754329D01*
X131345148Y-79756000D01*
X132417485Y-79756000D01*
X132432724Y-79751525D01*
X132433929Y-79750135D01*
X132435600Y-79742452D01*
X132435600Y-79737885D01*
X132943600Y-79737885D01*
X132948075Y-79753124D01*
X132949465Y-79754329D01*
X132957148Y-79756000D01*
X134029484Y-79756000D01*
X134044723Y-79751525D01*
X134045928Y-79750135D01*
X134047599Y-79742452D01*
X134047599Y-79248000D01*
X137116502Y-79248000D01*
X137136457Y-79476087D01*
X137137881Y-79481400D01*
X137137881Y-79481402D01*
X137182295Y-79647154D01*
X137195716Y-79697243D01*
X137198039Y-79702224D01*
X137198039Y-79702225D01*
X137290151Y-79899762D01*
X137290154Y-79899767D01*
X137292477Y-79904749D01*
X137423802Y-80092300D01*
X137585700Y-80254198D01*
X137590208Y-80257355D01*
X137590211Y-80257357D01*
X137619047Y-80277548D01*
X137773251Y-80385523D01*
X137778233Y-80387846D01*
X137778238Y-80387849D01*
X137975775Y-80479961D01*
X137980757Y-80482284D01*
X137986065Y-80483706D01*
X137986067Y-80483707D01*
X138196598Y-80540119D01*
X138196600Y-80540119D01*
X138201913Y-80541543D01*
X138430000Y-80561498D01*
X138658087Y-80541543D01*
X138663400Y-80540119D01*
X138663402Y-80540119D01*
X138873933Y-80483707D01*
X138873935Y-80483706D01*
X138879243Y-80482284D01*
X138884225Y-80479961D01*
X139081762Y-80387849D01*
X139081767Y-80387846D01*
X139086749Y-80385523D01*
X139240953Y-80277548D01*
X139269789Y-80257357D01*
X139269792Y-80257355D01*
X139274300Y-80254198D01*
X139436198Y-80092300D01*
X139567523Y-79904749D01*
X139569846Y-79899767D01*
X139569849Y-79899762D01*
X139585805Y-79865543D01*
X139632722Y-79812258D01*
X139700999Y-79792797D01*
X139768959Y-79813339D01*
X139814195Y-79865543D01*
X139830151Y-79899762D01*
X139830154Y-79899767D01*
X139832477Y-79904749D01*
X139963802Y-80092300D01*
X140125700Y-80254198D01*
X140130208Y-80257355D01*
X140130211Y-80257357D01*
X140159047Y-80277548D01*
X140313251Y-80385523D01*
X140318233Y-80387846D01*
X140318238Y-80387849D01*
X140515775Y-80479961D01*
X140520757Y-80482284D01*
X140526065Y-80483706D01*
X140526067Y-80483707D01*
X140736598Y-80540119D01*
X140736600Y-80540119D01*
X140741913Y-80541543D01*
X140970000Y-80561498D01*
X141198087Y-80541543D01*
X141203400Y-80540119D01*
X141203402Y-80540119D01*
X141413933Y-80483707D01*
X141413935Y-80483706D01*
X141419243Y-80482284D01*
X141424225Y-80479961D01*
X141621762Y-80387849D01*
X141621767Y-80387846D01*
X141626749Y-80385523D01*
X141780953Y-80277548D01*
X141809789Y-80257357D01*
X141809792Y-80257355D01*
X141814300Y-80254198D01*
X141976198Y-80092300D01*
X142107523Y-79904749D01*
X142109846Y-79899767D01*
X142109849Y-79899762D01*
X142125805Y-79865543D01*
X142172722Y-79812258D01*
X142240999Y-79792797D01*
X142308959Y-79813339D01*
X142354195Y-79865543D01*
X142370151Y-79899762D01*
X142370154Y-79899767D01*
X142372477Y-79904749D01*
X142503802Y-80092300D01*
X142665700Y-80254198D01*
X142670208Y-80257355D01*
X142670211Y-80257357D01*
X142699047Y-80277548D01*
X142853251Y-80385523D01*
X142858233Y-80387846D01*
X142858238Y-80387849D01*
X143055775Y-80479961D01*
X143060757Y-80482284D01*
X143066065Y-80483706D01*
X143066067Y-80483707D01*
X143276598Y-80540119D01*
X143276600Y-80540119D01*
X143281913Y-80541543D01*
X143510000Y-80561498D01*
X143738087Y-80541543D01*
X143743400Y-80540119D01*
X143743402Y-80540119D01*
X143953933Y-80483707D01*
X143953935Y-80483706D01*
X143959243Y-80482284D01*
X143964225Y-80479961D01*
X144161762Y-80387849D01*
X144161767Y-80387846D01*
X144166749Y-80385523D01*
X144320953Y-80277548D01*
X144349789Y-80257357D01*
X144349792Y-80257355D01*
X144354300Y-80254198D01*
X144516198Y-80092300D01*
X144519357Y-80087789D01*
X144522892Y-80083576D01*
X144524026Y-80084527D01*
X144574071Y-80044529D01*
X144644690Y-80037224D01*
X144708049Y-80069258D01*
X144744030Y-80130462D01*
X144747082Y-80147517D01*
X144748255Y-80158316D01*
X144799385Y-80294705D01*
X144886739Y-80411261D01*
X145003295Y-80498615D01*
X145139684Y-80549745D01*
X145201866Y-80556500D01*
X146898134Y-80556500D01*
X146960316Y-80549745D01*
X147096705Y-80498615D01*
X147213261Y-80411261D01*
X147300615Y-80294705D01*
X147351745Y-80158316D01*
X147358500Y-80096134D01*
X147358500Y-78399866D01*
X147351745Y-78337684D01*
X147300615Y-78201295D01*
X147213261Y-78084739D01*
X147096705Y-77997385D01*
X146960316Y-77946255D01*
X146898134Y-77939500D01*
X145201866Y-77939500D01*
X145139684Y-77946255D01*
X145003295Y-77997385D01*
X144886739Y-78084739D01*
X144799385Y-78201295D01*
X144748255Y-78337684D01*
X144747083Y-78348474D01*
X144746197Y-78350606D01*
X144745575Y-78353222D01*
X144745152Y-78353121D01*
X144719845Y-78414035D01*
X144661483Y-78454463D01*
X144590529Y-78456922D01*
X144529510Y-78420629D01*
X144522511Y-78411969D01*
X144519354Y-78408207D01*
X144516198Y-78403700D01*
X144354300Y-78241802D01*
X144349792Y-78238645D01*
X144349789Y-78238643D01*
X144271611Y-78183902D01*
X144166749Y-78110477D01*
X144161767Y-78108154D01*
X144161762Y-78108151D01*
X143964225Y-78016039D01*
X143964224Y-78016039D01*
X143959243Y-78013716D01*
X143953935Y-78012294D01*
X143953933Y-78012293D01*
X143743402Y-77955881D01*
X143743400Y-77955881D01*
X143738087Y-77954457D01*
X143510000Y-77934502D01*
X143281913Y-77954457D01*
X143276600Y-77955881D01*
X143276598Y-77955881D01*
X143066067Y-78012293D01*
X143066065Y-78012294D01*
X143060757Y-78013716D01*
X143055776Y-78016039D01*
X143055775Y-78016039D01*
X142858238Y-78108151D01*
X142858233Y-78108154D01*
X142853251Y-78110477D01*
X142748389Y-78183902D01*
X142670211Y-78238643D01*
X142670208Y-78238645D01*
X142665700Y-78241802D01*
X142503802Y-78403700D01*
X142372477Y-78591251D01*
X142370154Y-78596233D01*
X142370151Y-78596238D01*
X142354195Y-78630457D01*
X142307278Y-78683742D01*
X142239001Y-78703203D01*
X142171041Y-78682661D01*
X142125805Y-78630457D01*
X142109849Y-78596238D01*
X142109846Y-78596233D01*
X142107523Y-78591251D01*
X141976198Y-78403700D01*
X141814300Y-78241802D01*
X141809792Y-78238645D01*
X141809789Y-78238643D01*
X141731611Y-78183902D01*
X141626749Y-78110477D01*
X141621767Y-78108154D01*
X141621762Y-78108151D01*
X141424225Y-78016039D01*
X141424224Y-78016039D01*
X141419243Y-78013716D01*
X141413935Y-78012294D01*
X141413933Y-78012293D01*
X141203402Y-77955881D01*
X141203400Y-77955881D01*
X141198087Y-77954457D01*
X140970000Y-77934502D01*
X140741913Y-77954457D01*
X140736600Y-77955881D01*
X140736598Y-77955881D01*
X140526067Y-78012293D01*
X140526065Y-78012294D01*
X140520757Y-78013716D01*
X140515776Y-78016039D01*
X140515775Y-78016039D01*
X140318238Y-78108151D01*
X140318233Y-78108154D01*
X140313251Y-78110477D01*
X140208389Y-78183902D01*
X140130211Y-78238643D01*
X140130208Y-78238645D01*
X140125700Y-78241802D01*
X139963802Y-78403700D01*
X139832477Y-78591251D01*
X139830154Y-78596233D01*
X139830151Y-78596238D01*
X139814195Y-78630457D01*
X139767278Y-78683742D01*
X139699001Y-78703203D01*
X139631041Y-78682661D01*
X139585805Y-78630457D01*
X139569849Y-78596238D01*
X139569846Y-78596233D01*
X139567523Y-78591251D01*
X139436198Y-78403700D01*
X139274300Y-78241802D01*
X139269792Y-78238645D01*
X139269789Y-78238643D01*
X139191611Y-78183902D01*
X139086749Y-78110477D01*
X139081767Y-78108154D01*
X139081762Y-78108151D01*
X138884225Y-78016039D01*
X138884224Y-78016039D01*
X138879243Y-78013716D01*
X138873935Y-78012294D01*
X138873933Y-78012293D01*
X138663402Y-77955881D01*
X138663400Y-77955881D01*
X138658087Y-77954457D01*
X138430000Y-77934502D01*
X138201913Y-77954457D01*
X138196600Y-77955881D01*
X138196598Y-77955881D01*
X137986067Y-78012293D01*
X137986065Y-78012294D01*
X137980757Y-78013716D01*
X137975776Y-78016039D01*
X137975775Y-78016039D01*
X137778238Y-78108151D01*
X137778233Y-78108154D01*
X137773251Y-78110477D01*
X137668389Y-78183902D01*
X137590211Y-78238643D01*
X137590208Y-78238645D01*
X137585700Y-78241802D01*
X137423802Y-78403700D01*
X137292477Y-78591251D01*
X137290154Y-78596233D01*
X137290151Y-78596238D01*
X137207601Y-78773269D01*
X137195716Y-78798757D01*
X137136457Y-79019913D01*
X137116502Y-79248000D01*
X134047599Y-79248000D01*
X134047599Y-79115331D01*
X134047229Y-79108510D01*
X134041705Y-79057648D01*
X134038079Y-79042396D01*
X133992924Y-78921946D01*
X133984386Y-78906351D01*
X133907885Y-78804276D01*
X133895324Y-78791715D01*
X133793249Y-78715214D01*
X133777654Y-78706676D01*
X133657206Y-78661522D01*
X133641951Y-78657895D01*
X133591086Y-78652369D01*
X133584272Y-78652000D01*
X132961715Y-78652000D01*
X132946476Y-78656475D01*
X132945271Y-78657865D01*
X132943600Y-78665548D01*
X132943600Y-79737885D01*
X132435600Y-79737885D01*
X132435600Y-78670116D01*
X132431125Y-78654877D01*
X132429735Y-78653672D01*
X132422052Y-78652001D01*
X131794931Y-78652001D01*
X131788110Y-78652371D01*
X131737248Y-78657895D01*
X131721996Y-78661521D01*
X131601546Y-78706676D01*
X131585951Y-78715214D01*
X131483876Y-78791715D01*
X131471315Y-78804276D01*
X131394814Y-78906351D01*
X131386276Y-78921946D01*
X131341122Y-79042394D01*
X131337495Y-79057649D01*
X131331969Y-79108514D01*
X131331600Y-79115328D01*
X131331600Y-79737885D01*
X128713599Y-79737885D01*
X128713599Y-79115331D01*
X128713229Y-79108510D01*
X128707705Y-79057648D01*
X128704079Y-79042396D01*
X128658924Y-78921946D01*
X128650386Y-78906351D01*
X128573885Y-78804276D01*
X128561324Y-78791715D01*
X128459249Y-78715214D01*
X128443654Y-78706676D01*
X128323206Y-78661522D01*
X128307951Y-78657895D01*
X128257086Y-78652369D01*
X128250272Y-78652000D01*
X127627715Y-78652000D01*
X127612476Y-78656475D01*
X127611271Y-78657865D01*
X127609600Y-78665548D01*
X127609600Y-79737885D01*
X127101600Y-79737885D01*
X127101600Y-78670116D01*
X127097125Y-78654877D01*
X127095735Y-78653672D01*
X127088052Y-78652001D01*
X126460931Y-78652001D01*
X126454110Y-78652371D01*
X126403248Y-78657895D01*
X126387996Y-78661521D01*
X126267546Y-78706676D01*
X126251951Y-78715214D01*
X126149876Y-78791715D01*
X126137315Y-78804276D01*
X126060814Y-78906351D01*
X126052276Y-78921946D01*
X126007122Y-79042394D01*
X126003495Y-79057649D01*
X125997969Y-79108514D01*
X125997600Y-79115328D01*
X125997600Y-79737885D01*
X123785999Y-79737885D01*
X123785999Y-79115331D01*
X123785629Y-79108510D01*
X123780105Y-79057648D01*
X123776479Y-79042396D01*
X123731324Y-78921946D01*
X123722786Y-78906351D01*
X123646285Y-78804276D01*
X123633724Y-78791715D01*
X123531649Y-78715214D01*
X123516054Y-78706676D01*
X123395606Y-78661522D01*
X123380351Y-78657895D01*
X123329486Y-78652369D01*
X123322672Y-78652000D01*
X122700115Y-78652000D01*
X122684876Y-78656475D01*
X122683671Y-78657865D01*
X122682000Y-78665548D01*
X122682000Y-79737885D01*
X122174000Y-79737885D01*
X122174000Y-78670116D01*
X122169525Y-78654877D01*
X122168135Y-78653672D01*
X122160452Y-78652001D01*
X121533331Y-78652001D01*
X121526510Y-78652371D01*
X121475648Y-78657895D01*
X121460396Y-78661521D01*
X121339946Y-78706676D01*
X121324351Y-78715214D01*
X121222276Y-78791715D01*
X121209715Y-78804276D01*
X121133214Y-78906351D01*
X121124676Y-78921946D01*
X121079522Y-79042394D01*
X121075895Y-79057649D01*
X121070369Y-79108514D01*
X121070000Y-79115328D01*
X121070000Y-79737885D01*
X118746428Y-79737885D01*
X118724831Y-79651902D01*
X118635754Y-79447040D01*
X118514414Y-79259477D01*
X118364070Y-79094251D01*
X118360019Y-79091052D01*
X118360015Y-79091048D01*
X118192814Y-78959000D01*
X118192810Y-78958998D01*
X118188759Y-78955798D01*
X117993189Y-78847838D01*
X117988320Y-78846114D01*
X117988316Y-78846112D01*
X117787487Y-78774995D01*
X117787483Y-78774994D01*
X117782612Y-78773269D01*
X117777519Y-78772362D01*
X117777516Y-78772361D01*
X117567773Y-78735000D01*
X117567767Y-78734999D01*
X117562684Y-78734094D01*
X117488852Y-78733192D01*
X117344481Y-78731428D01*
X117344479Y-78731428D01*
X117339311Y-78731365D01*
X117118491Y-78765155D01*
X116906156Y-78834557D01*
X116875843Y-78850337D01*
X116720584Y-78931160D01*
X116708007Y-78937707D01*
X116703874Y-78940810D01*
X116703871Y-78940812D01*
X116568574Y-79042396D01*
X116529365Y-79071835D01*
X116472937Y-79130884D01*
X116448683Y-79156264D01*
X116387159Y-79191694D01*
X116316246Y-79188237D01*
X116258460Y-79146991D01*
X116239607Y-79113443D01*
X116198167Y-79002903D01*
X116195015Y-78994495D01*
X116107661Y-78877939D01*
X115991105Y-78790585D01*
X115854716Y-78739455D01*
X115792534Y-78732700D01*
X113996266Y-78732700D01*
X113934084Y-78739455D01*
X113797695Y-78790585D01*
X113681139Y-78877939D01*
X113593785Y-78994495D01*
X113542655Y-79130884D01*
X113535900Y-79193066D01*
X113535900Y-80989334D01*
X113542655Y-81051516D01*
X113593785Y-81187905D01*
X113681139Y-81304461D01*
X113797695Y-81391815D01*
X113806104Y-81394967D01*
X113806105Y-81394968D01*
X113914851Y-81435735D01*
X113971616Y-81478376D01*
X113996316Y-81544938D01*
X113981109Y-81614287D01*
X113961716Y-81640768D01*
X113887647Y-81718277D01*
X113835029Y-81773338D01*
X113709143Y-81957880D01*
X113693403Y-81991790D01*
X113640410Y-82105954D01*
X113615088Y-82160505D01*
X113555389Y-82375770D01*
X113531651Y-82597895D01*
X113531948Y-82603048D01*
X113531948Y-82603051D01*
X113537411Y-82697790D01*
X113544510Y-82820915D01*
X113545647Y-82825961D01*
X113545648Y-82825967D01*
X113549492Y-82843023D01*
X113593622Y-83038839D01*
X113677666Y-83245816D01*
X113728419Y-83328638D01*
X113791691Y-83431888D01*
X113794387Y-83436288D01*
X113940650Y-83605138D01*
X114112526Y-83747832D01*
X114135256Y-83761114D01*
X114185845Y-83790676D01*
X114234569Y-83842314D01*
X114247640Y-83912097D01*
X114220909Y-83977869D01*
X114180455Y-84011227D01*
X114168007Y-84017707D01*
X114163874Y-84020810D01*
X114163871Y-84020812D01*
X113993500Y-84148730D01*
X113989365Y-84151835D01*
X113985793Y-84155573D01*
X113887647Y-84258277D01*
X113835029Y-84313338D01*
X113832120Y-84317603D01*
X113832114Y-84317611D01*
X113776312Y-84399414D01*
X113709143Y-84497880D01*
X113687764Y-84543937D01*
X113625604Y-84677851D01*
X113615088Y-84700505D01*
X113555389Y-84915770D01*
X113531651Y-85137895D01*
X106553000Y-85137895D01*
X106553000Y-76834000D01*
X106573002Y-76765879D01*
X106626658Y-76719386D01*
X106679000Y-76708000D01*
X163196000Y-76708000D01*
X163264121Y-76728002D01*
G37*
%TD.AperFunction*%
%TA.AperFunction,Conductor*%
G36*
X149134381Y-99364925D02*
G01*
X149140963Y-99371053D01*
X150663958Y-100894049D01*
X152184795Y-102414886D01*
X152218821Y-102477198D01*
X152221700Y-102503981D01*
X152221700Y-102753420D01*
X152201698Y-102821541D01*
X152184795Y-102842515D01*
X151661315Y-103365995D01*
X151599003Y-103400021D01*
X151572220Y-103402900D01*
X149550986Y-103402900D01*
X149534539Y-103401822D01*
X149512588Y-103398932D01*
X149504400Y-103397854D01*
X149351763Y-103417950D01*
X149209528Y-103476866D01*
X149130337Y-103537631D01*
X149087387Y-103570587D01*
X149082364Y-103577133D01*
X149068883Y-103594702D01*
X149058016Y-103607093D01*
X148750166Y-103914944D01*
X148475643Y-104189467D01*
X148413330Y-104223492D01*
X148342515Y-104218428D01*
X148292914Y-104184685D01*
X148251306Y-104138475D01*
X148220591Y-104074470D01*
X148229356Y-104004017D01*
X148270884Y-103952233D01*
X148307799Y-103925412D01*
X148313322Y-103919278D01*
X148431167Y-103788398D01*
X148431168Y-103788397D01*
X148435586Y-103783490D01*
X148513443Y-103648638D01*
X148527769Y-103623825D01*
X148527770Y-103623824D01*
X148531073Y-103618102D01*
X148590088Y-103436474D01*
X148595947Y-103380734D01*
X148609360Y-103253111D01*
X148610050Y-103246546D01*
X148602164Y-103171512D01*
X148590778Y-103063181D01*
X148590778Y-103063179D01*
X148590088Y-103056618D01*
X148531073Y-102874990D01*
X148515574Y-102848144D01*
X148459839Y-102751610D01*
X148435586Y-102709602D01*
X148414907Y-102686635D01*
X148312221Y-102572591D01*
X148312220Y-102572590D01*
X148307799Y-102567680D01*
X148194684Y-102485497D01*
X148158640Y-102459309D01*
X148158639Y-102459308D01*
X148153298Y-102455428D01*
X148147270Y-102452744D01*
X148147268Y-102452743D01*
X147984865Y-102380437D01*
X147984864Y-102380437D01*
X147978834Y-102377752D01*
X147885433Y-102357899D01*
X147798490Y-102339418D01*
X147798485Y-102339418D01*
X147792033Y-102338046D01*
X147601059Y-102338046D01*
X147594607Y-102339418D01*
X147594602Y-102339418D01*
X147507659Y-102357899D01*
X147414258Y-102377752D01*
X147408228Y-102380437D01*
X147408227Y-102380437D01*
X147245824Y-102452743D01*
X147245822Y-102452744D01*
X147239794Y-102455428D01*
X147234453Y-102459308D01*
X147234452Y-102459309D01*
X147198408Y-102485497D01*
X147085293Y-102567680D01*
X147080872Y-102572590D01*
X147080871Y-102572591D01*
X146978186Y-102686635D01*
X146957506Y-102709602D01*
X146949458Y-102723542D01*
X146945556Y-102730300D01*
X146894174Y-102779293D01*
X146836437Y-102793300D01*
X145024138Y-102793300D01*
X144956017Y-102773298D01*
X144930507Y-102751615D01*
X144883253Y-102699134D01*
X144728752Y-102586882D01*
X144722724Y-102584198D01*
X144722722Y-102584197D01*
X144560319Y-102511891D01*
X144560318Y-102511891D01*
X144554288Y-102509206D01*
X144442747Y-102485497D01*
X144373944Y-102470872D01*
X144373939Y-102470872D01*
X144367487Y-102469500D01*
X144176513Y-102469500D01*
X144170061Y-102470872D01*
X144170056Y-102470872D01*
X144040215Y-102498471D01*
X143969424Y-102493069D01*
X143912792Y-102450252D01*
X143888298Y-102383614D01*
X143903719Y-102314313D01*
X143924923Y-102286129D01*
X145037247Y-101173805D01*
X145099559Y-101139779D01*
X145126342Y-101136900D01*
X145231087Y-101136900D01*
X145237539Y-101135528D01*
X145237544Y-101135528D01*
X145324488Y-101117047D01*
X145417888Y-101097194D01*
X145465042Y-101076200D01*
X145586322Y-101022203D01*
X145586324Y-101022202D01*
X145592352Y-101019518D01*
X145608397Y-101007861D01*
X145681548Y-100954713D01*
X145746853Y-100907266D01*
X145795241Y-100853526D01*
X145870221Y-100770252D01*
X145870222Y-100770251D01*
X145874640Y-100765344D01*
X145912760Y-100699318D01*
X145917882Y-100690447D01*
X145969265Y-100641454D01*
X146038978Y-100628018D01*
X146104889Y-100654404D01*
X146146071Y-100712237D01*
X146153001Y-100753447D01*
X146153001Y-100770670D01*
X146153370Y-100777488D01*
X146156909Y-100810067D01*
X146156909Y-100837280D01*
X146152500Y-100877866D01*
X146152500Y-101274134D01*
X146159255Y-101336316D01*
X146210385Y-101472705D01*
X146297739Y-101589261D01*
X146414295Y-101676615D01*
X146550684Y-101727745D01*
X146612866Y-101734500D01*
X148109134Y-101734500D01*
X148171316Y-101727745D01*
X148307705Y-101676615D01*
X148424261Y-101589261D01*
X148511615Y-101472705D01*
X148562745Y-101336316D01*
X148569500Y-101274134D01*
X148569500Y-100877866D01*
X148565091Y-100837280D01*
X148565091Y-100810065D01*
X148568631Y-100777481D01*
X148569000Y-100770672D01*
X148569000Y-100744115D01*
X148564525Y-100728876D01*
X148538830Y-100706611D01*
X148539288Y-100706082D01*
X148526900Y-100699318D01*
X148511792Y-100679160D01*
X148511614Y-100679294D01*
X148505733Y-100671446D01*
X148490832Y-100651564D01*
X148465985Y-100585057D01*
X148481039Y-100515675D01*
X148490832Y-100500436D01*
X148506231Y-100479889D01*
X148511614Y-100472706D01*
X148511903Y-100472922D01*
X148558065Y-100426861D01*
X148563418Y-100424647D01*
X148567328Y-100420135D01*
X148568999Y-100412452D01*
X148568999Y-100381330D01*
X148568630Y-100374509D01*
X148565091Y-100341930D01*
X148565091Y-100314716D01*
X148566427Y-100302426D01*
X148569500Y-100274134D01*
X148569500Y-100097870D01*
X148589502Y-100029749D01*
X148613052Y-100004150D01*
X148612783Y-100003881D01*
X148618626Y-99998038D01*
X148625175Y-99993013D01*
X148630823Y-99985653D01*
X148643678Y-99968899D01*
X148654546Y-99956506D01*
X148717708Y-99893345D01*
X148730099Y-99882478D01*
X148747668Y-99868997D01*
X148754214Y-99863974D01*
X148777744Y-99833309D01*
X148847935Y-99741834D01*
X148906851Y-99599598D01*
X148926947Y-99446961D01*
X148929637Y-99447315D01*
X148945871Y-99392028D01*
X148999527Y-99345535D01*
X149069801Y-99335431D01*
X149134381Y-99364925D01*
G37*
%TD.AperFunction*%
%TA.AperFunction,Conductor*%
G36*
X141697120Y-100693306D02*
G01*
X141743613Y-100746962D01*
X141754262Y-100785698D01*
X141756909Y-100810067D01*
X141756909Y-100837280D01*
X141752500Y-100877866D01*
X141752500Y-101274134D01*
X141759255Y-101336316D01*
X141810385Y-101472705D01*
X141897739Y-101589261D01*
X142014295Y-101676615D01*
X142150684Y-101727745D01*
X142212866Y-101734500D01*
X142518582Y-101734500D01*
X142586703Y-101754502D01*
X142633196Y-101808158D01*
X142643300Y-101878432D01*
X142613806Y-101943012D01*
X142607677Y-101949595D01*
X142308877Y-102248395D01*
X142246565Y-102282421D01*
X142219782Y-102285300D01*
X139436327Y-102285300D01*
X139368206Y-102265298D01*
X139321713Y-102211642D01*
X139311609Y-102141368D01*
X139316494Y-102120363D01*
X139318024Y-102115657D01*
X139374342Y-101942328D01*
X139380568Y-101883093D01*
X139384327Y-101847329D01*
X139411341Y-101781672D01*
X139469562Y-101741043D01*
X139509637Y-101734500D01*
X140194134Y-101734500D01*
X140256316Y-101727745D01*
X140392705Y-101676615D01*
X140509261Y-101589261D01*
X140596615Y-101472705D01*
X140647745Y-101336316D01*
X140654500Y-101274134D01*
X140654500Y-101123104D01*
X140674502Y-101054983D01*
X140728158Y-101008490D01*
X140780500Y-100997104D01*
X140855958Y-100997104D01*
X140862410Y-100995732D01*
X140862415Y-100995732D01*
X140962564Y-100974444D01*
X141042759Y-100957398D01*
X141078105Y-100941661D01*
X141211193Y-100882407D01*
X141211195Y-100882406D01*
X141217223Y-100879722D01*
X141371724Y-100767470D01*
X141418975Y-100714992D01*
X141479418Y-100677754D01*
X141512609Y-100673304D01*
X141628999Y-100673304D01*
X141697120Y-100693306D01*
G37*
%TD.AperFunction*%
%TA.AperFunction,Conductor*%
G36*
X133780805Y-100680702D02*
G01*
X133827298Y-100734358D01*
X133837100Y-100774186D01*
X133838001Y-100774088D01*
X133841909Y-100810067D01*
X133841909Y-100837280D01*
X133837500Y-100877866D01*
X133837500Y-101092500D01*
X133817498Y-101160621D01*
X133763842Y-101207114D01*
X133711500Y-101218500D01*
X132217298Y-101218500D01*
X132149177Y-101198498D01*
X132102684Y-101144842D01*
X132092580Y-101074568D01*
X132108178Y-101029501D01*
X132108922Y-101028212D01*
X132134485Y-100983936D01*
X132193500Y-100802308D01*
X132194466Y-100793123D01*
X132196525Y-100773528D01*
X132223539Y-100707872D01*
X132281761Y-100667243D01*
X132321835Y-100660700D01*
X133712684Y-100660700D01*
X133780805Y-100680702D01*
G37*
%TD.AperFunction*%
%TA.AperFunction,Conductor*%
G36*
X152048397Y-90774702D02*
G01*
X152094890Y-90828358D01*
X152099798Y-90840819D01*
X152135398Y-90947526D01*
X152227703Y-91096689D01*
X152351847Y-91220617D01*
X152358077Y-91224457D01*
X152358078Y-91224458D01*
X152359181Y-91225138D01*
X152420580Y-91262984D01*
X152430719Y-91269234D01*
X152478212Y-91322006D01*
X152489636Y-91392077D01*
X152461362Y-91457201D01*
X152430907Y-91483638D01*
X152350811Y-91533203D01*
X152345638Y-91538385D01*
X152311443Y-91572640D01*
X152226883Y-91657347D01*
X152223043Y-91663577D01*
X152223042Y-91663578D01*
X152205836Y-91691491D01*
X152134839Y-91806671D01*
X152132534Y-91813619D01*
X152132534Y-91813620D01*
X152082179Y-91965436D01*
X152079615Y-91973165D01*
X152069000Y-92076769D01*
X152069001Y-93089230D01*
X152079884Y-93194129D01*
X152082063Y-93200660D01*
X152082064Y-93200665D01*
X152112873Y-93293011D01*
X152135398Y-93360526D01*
X152227703Y-93509689D01*
X152351847Y-93633617D01*
X152358079Y-93637458D01*
X152358081Y-93637460D01*
X152420415Y-93675883D01*
X152467909Y-93728655D01*
X152480300Y-93783143D01*
X152480300Y-93795871D01*
X152460298Y-93863992D01*
X152420604Y-93903014D01*
X152350811Y-93946203D01*
X152226883Y-94070347D01*
X152134839Y-94219671D01*
X152132534Y-94226619D01*
X152132534Y-94226620D01*
X152083857Y-94373377D01*
X152079615Y-94386165D01*
X152069000Y-94489769D01*
X152069001Y-94763757D01*
X152069001Y-94946823D01*
X152048999Y-95014944D01*
X151995344Y-95061437D01*
X151925070Y-95071541D01*
X151916803Y-95070069D01*
X151841551Y-95054073D01*
X151841542Y-95054072D01*
X151835087Y-95052700D01*
X151644113Y-95052700D01*
X151637661Y-95054072D01*
X151637656Y-95054072D01*
X151550712Y-95072553D01*
X151457312Y-95092406D01*
X151451282Y-95095091D01*
X151451281Y-95095091D01*
X151288878Y-95167397D01*
X151288876Y-95167398D01*
X151282848Y-95170082D01*
X151277507Y-95173962D01*
X151277506Y-95173963D01*
X151268868Y-95180239D01*
X151128347Y-95282334D01*
X151123926Y-95287244D01*
X151123925Y-95287245D01*
X151031221Y-95390204D01*
X151000560Y-95424256D01*
X150971041Y-95475385D01*
X150917528Y-95568072D01*
X150905073Y-95589644D01*
X150846058Y-95771272D01*
X150845368Y-95777833D01*
X150845368Y-95777835D01*
X150829600Y-95927861D01*
X150826096Y-95961200D01*
X150826786Y-95967765D01*
X150844748Y-96138661D01*
X150846058Y-96151128D01*
X150905073Y-96332756D01*
X151000560Y-96498144D01*
X151004978Y-96503051D01*
X151004979Y-96503052D01*
X151122536Y-96633612D01*
X151128347Y-96640066D01*
X151199321Y-96691632D01*
X151249920Y-96728394D01*
X151282848Y-96752318D01*
X151288876Y-96755002D01*
X151288878Y-96755003D01*
X151451281Y-96827309D01*
X151457312Y-96829994D01*
X151550712Y-96849847D01*
X151637656Y-96868328D01*
X151637661Y-96868328D01*
X151644113Y-96869700D01*
X151835087Y-96869700D01*
X151841542Y-96868328D01*
X151841551Y-96868327D01*
X151917302Y-96852225D01*
X151988093Y-96857626D01*
X152044726Y-96900442D01*
X152069220Y-96967080D01*
X152069500Y-96975471D01*
X152069500Y-97136885D01*
X152073975Y-97152124D01*
X152075365Y-97153329D01*
X152083048Y-97155000D01*
X153193000Y-97155000D01*
X153261121Y-97175002D01*
X153307614Y-97228658D01*
X153319000Y-97281000D01*
X153319000Y-97537000D01*
X153298998Y-97605121D01*
X153245342Y-97651614D01*
X153193000Y-97663000D01*
X152087616Y-97663000D01*
X152072377Y-97667475D01*
X152071172Y-97668865D01*
X152069501Y-97676548D01*
X152069501Y-97911933D01*
X152069838Y-97918452D01*
X152079666Y-98013170D01*
X152082558Y-98026564D01*
X152133536Y-98179365D01*
X152139710Y-98192543D01*
X152224244Y-98329149D01*
X152233280Y-98340550D01*
X152346979Y-98454051D01*
X152358390Y-98463063D01*
X152495154Y-98547365D01*
X152508332Y-98553509D01*
X152661240Y-98604227D01*
X152674606Y-98607093D01*
X152771299Y-98617000D01*
X152771218Y-98617787D01*
X152835030Y-98640123D01*
X152878722Y-98696083D01*
X152885224Y-98766781D01*
X152852471Y-98829772D01*
X152790863Y-98865055D01*
X152771287Y-98867876D01*
X152771300Y-98868001D01*
X152768142Y-98868329D01*
X152768091Y-98868336D01*
X152768051Y-98868338D01*
X152673330Y-98878166D01*
X152659936Y-98881058D01*
X152507135Y-98932036D01*
X152493957Y-98938210D01*
X152357351Y-99022744D01*
X152345950Y-99031780D01*
X152232449Y-99145479D01*
X152223437Y-99156890D01*
X152139135Y-99293654D01*
X152132991Y-99306832D01*
X152082273Y-99459740D01*
X152079407Y-99473106D01*
X152069828Y-99566601D01*
X152069500Y-99573016D01*
X152069500Y-99843238D01*
X152049498Y-99911359D01*
X151995842Y-99957852D01*
X151925568Y-99967956D01*
X151860988Y-99938462D01*
X151854405Y-99932333D01*
X150176805Y-98254733D01*
X150142779Y-98192421D01*
X150139900Y-98165638D01*
X150139900Y-96717922D01*
X150159902Y-96649801D01*
X150172264Y-96633612D01*
X150289821Y-96503052D01*
X150289822Y-96503051D01*
X150294240Y-96498144D01*
X150389727Y-96332756D01*
X150448742Y-96151128D01*
X150450053Y-96138661D01*
X150468014Y-95967765D01*
X150468704Y-95961200D01*
X150465200Y-95927861D01*
X150449432Y-95777835D01*
X150449432Y-95777833D01*
X150448742Y-95771272D01*
X150389727Y-95589644D01*
X150377273Y-95568072D01*
X150323759Y-95475385D01*
X150294240Y-95424256D01*
X150263580Y-95390204D01*
X150170875Y-95287245D01*
X150170874Y-95287244D01*
X150166453Y-95282334D01*
X150025932Y-95180239D01*
X150017294Y-95173963D01*
X150017293Y-95173962D01*
X150011952Y-95170082D01*
X150005924Y-95167398D01*
X150005922Y-95167397D01*
X149843519Y-95095091D01*
X149843518Y-95095091D01*
X149837488Y-95092406D01*
X149744088Y-95072553D01*
X149657144Y-95054072D01*
X149657139Y-95054072D01*
X149650687Y-95052700D01*
X149589699Y-95052700D01*
X149521578Y-95032698D01*
X149475085Y-94979042D01*
X149463699Y-94926700D01*
X149463699Y-92664581D01*
X149483701Y-92596460D01*
X149500604Y-92575486D01*
X151284485Y-90791605D01*
X151346797Y-90757579D01*
X151373580Y-90754700D01*
X151980276Y-90754700D01*
X152048397Y-90774702D01*
G37*
%TD.AperFunction*%
%TA.AperFunction,Conductor*%
G36*
X144848959Y-87433339D02*
G01*
X144894195Y-87485543D01*
X144910151Y-87519762D01*
X144910153Y-87519765D01*
X144912477Y-87524749D01*
X144966138Y-87601385D01*
X145008792Y-87662300D01*
X145043802Y-87712300D01*
X145205700Y-87874198D01*
X145284572Y-87929425D01*
X145328899Y-87984881D01*
X145338300Y-88032637D01*
X145338300Y-89085276D01*
X145318298Y-89153397D01*
X145264642Y-89199890D01*
X145252181Y-89204798D01*
X145145474Y-89240398D01*
X144996311Y-89332703D01*
X144872383Y-89456847D01*
X144780339Y-89606171D01*
X144778034Y-89613119D01*
X144778034Y-89613120D01*
X144760141Y-89667067D01*
X144725115Y-89772665D01*
X144714500Y-89876269D01*
X144714501Y-90463730D01*
X144725384Y-90568629D01*
X144727563Y-90575160D01*
X144727564Y-90575165D01*
X144766224Y-90691042D01*
X144780898Y-90735026D01*
X144873203Y-90884189D01*
X144878385Y-90889362D01*
X144900118Y-90911057D01*
X144997347Y-91008117D01*
X145000587Y-91010114D01*
X145040814Y-91066852D01*
X145044047Y-91137775D01*
X145008422Y-91199187D01*
X144999922Y-91206566D01*
X144991448Y-91213282D01*
X144877949Y-91326979D01*
X144868937Y-91338390D01*
X144784635Y-91475154D01*
X144778491Y-91488332D01*
X144727773Y-91641240D01*
X144724907Y-91654606D01*
X144715328Y-91748101D01*
X144715000Y-91754516D01*
X144715000Y-91772885D01*
X144719475Y-91788124D01*
X144720865Y-91789329D01*
X144728548Y-91791000D01*
X146051000Y-91791000D01*
X146119121Y-91811002D01*
X146165614Y-91864658D01*
X146177000Y-91917000D01*
X146177000Y-92173000D01*
X146156998Y-92241121D01*
X146103342Y-92287614D01*
X146051000Y-92299000D01*
X144733116Y-92299000D01*
X144717877Y-92303475D01*
X144716672Y-92304865D01*
X144715001Y-92312548D01*
X144715001Y-92335433D01*
X144715338Y-92341952D01*
X144725166Y-92436670D01*
X144728058Y-92450064D01*
X144779036Y-92602865D01*
X144785210Y-92616043D01*
X144869744Y-92752649D01*
X144878780Y-92764050D01*
X144992479Y-92877551D01*
X145003890Y-92886563D01*
X145140654Y-92970865D01*
X145153832Y-92977009D01*
X145306740Y-93027727D01*
X145320106Y-93030593D01*
X145413601Y-93040172D01*
X145420016Y-93040500D01*
X145706020Y-93040500D01*
X145774141Y-93060502D01*
X145820634Y-93114158D01*
X145830738Y-93184432D01*
X145801244Y-93249012D01*
X145795115Y-93255595D01*
X144238115Y-94812595D01*
X144175803Y-94846621D01*
X144149020Y-94849500D01*
X144024113Y-94849500D01*
X144017661Y-94850872D01*
X144017656Y-94850872D01*
X143930712Y-94869353D01*
X143837312Y-94889206D01*
X143831282Y-94891891D01*
X143831281Y-94891891D01*
X143668878Y-94964197D01*
X143668876Y-94964198D01*
X143662848Y-94966882D01*
X143657507Y-94970762D01*
X143657506Y-94970763D01*
X143646111Y-94979042D01*
X143508347Y-95079134D01*
X143503926Y-95084044D01*
X143503925Y-95084045D01*
X143399776Y-95199715D01*
X143380560Y-95221056D01*
X143349473Y-95274900D01*
X143289094Y-95379480D01*
X143285073Y-95386444D01*
X143226058Y-95568072D01*
X143225368Y-95574633D01*
X143225368Y-95574635D01*
X143218431Y-95640642D01*
X143206096Y-95758000D01*
X143203378Y-95757714D01*
X143186784Y-95814227D01*
X143133128Y-95860720D01*
X143062854Y-95870824D01*
X142998274Y-95841330D01*
X142991691Y-95835201D01*
X142782146Y-95625656D01*
X142782143Y-95625652D01*
X141867639Y-94711148D01*
X141833613Y-94648836D01*
X141838678Y-94578021D01*
X141881225Y-94521185D01*
X141905486Y-94506946D01*
X141982965Y-94472451D01*
X141982972Y-94472447D01*
X141988998Y-94469764D01*
X142143499Y-94357512D01*
X142158436Y-94340923D01*
X142266867Y-94220498D01*
X142266868Y-94220497D01*
X142271286Y-94215590D01*
X142355142Y-94070347D01*
X142363469Y-94055925D01*
X142363470Y-94055924D01*
X142366773Y-94050202D01*
X142425788Y-93868574D01*
X142427197Y-93855174D01*
X142445060Y-93685211D01*
X142445750Y-93678646D01*
X142440432Y-93628051D01*
X142426478Y-93495281D01*
X142426478Y-93495279D01*
X142425788Y-93488718D01*
X142366773Y-93307090D01*
X142358645Y-93293011D01*
X142301555Y-93194129D01*
X142298337Y-93188555D01*
X142281599Y-93119561D01*
X142304819Y-93052469D01*
X142360626Y-93008582D01*
X142431301Y-93001833D01*
X142447123Y-93005963D01*
X142512739Y-93027727D01*
X142526106Y-93030593D01*
X142619601Y-93040172D01*
X142626016Y-93040500D01*
X142856885Y-93040500D01*
X142872124Y-93036025D01*
X142873329Y-93034635D01*
X142875000Y-93026952D01*
X142875000Y-93022384D01*
X143383000Y-93022384D01*
X143387475Y-93037623D01*
X143388865Y-93038828D01*
X143396548Y-93040499D01*
X143631933Y-93040499D01*
X143638452Y-93040162D01*
X143733170Y-93030334D01*
X143746564Y-93027442D01*
X143899365Y-92976464D01*
X143912543Y-92970290D01*
X144049149Y-92885756D01*
X144060550Y-92876720D01*
X144174051Y-92763021D01*
X144183063Y-92751610D01*
X144267365Y-92614846D01*
X144273509Y-92601668D01*
X144324227Y-92448760D01*
X144327093Y-92435394D01*
X144336672Y-92341899D01*
X144337000Y-92335484D01*
X144337000Y-92317115D01*
X144332525Y-92301876D01*
X144331135Y-92300671D01*
X144323452Y-92299000D01*
X143401115Y-92299000D01*
X143385876Y-92303475D01*
X143384671Y-92304865D01*
X143383000Y-92312548D01*
X143383000Y-93022384D01*
X142875000Y-93022384D01*
X142875000Y-91917000D01*
X142895002Y-91848879D01*
X142948658Y-91802386D01*
X143001000Y-91791000D01*
X144318884Y-91791000D01*
X144334123Y-91786525D01*
X144335328Y-91785135D01*
X144336999Y-91777452D01*
X144336999Y-91754567D01*
X144336662Y-91748048D01*
X144326834Y-91653330D01*
X144323942Y-91639936D01*
X144272964Y-91487135D01*
X144266790Y-91473957D01*
X144182256Y-91337351D01*
X144173220Y-91325950D01*
X144059521Y-91212449D01*
X144052249Y-91206706D01*
X144011186Y-91148789D01*
X144007954Y-91077866D01*
X144043579Y-91016454D01*
X144050254Y-91010660D01*
X144055689Y-91007297D01*
X144179617Y-90883153D01*
X144271661Y-90733829D01*
X144279454Y-90710334D01*
X144324719Y-90573866D01*
X144324719Y-90573864D01*
X144326885Y-90567335D01*
X144337500Y-90463731D01*
X144337499Y-89876270D01*
X144326616Y-89771371D01*
X144324437Y-89764840D01*
X144324436Y-89764835D01*
X144273420Y-89611922D01*
X144271102Y-89604974D01*
X144178797Y-89455811D01*
X144054653Y-89331883D01*
X143905329Y-89239839D01*
X143871837Y-89228730D01*
X143800032Y-89204913D01*
X143741673Y-89164482D01*
X143714436Y-89098918D01*
X143713700Y-89085320D01*
X143713700Y-88264761D01*
X143733702Y-88196640D01*
X143787358Y-88150147D01*
X143807088Y-88143054D01*
X143807152Y-88143037D01*
X143959243Y-88102284D01*
X144040452Y-88064416D01*
X144161762Y-88007849D01*
X144161767Y-88007846D01*
X144166749Y-88005523D01*
X144303794Y-87909563D01*
X144349789Y-87877357D01*
X144349792Y-87877355D01*
X144354300Y-87874198D01*
X144516198Y-87712300D01*
X144551209Y-87662300D01*
X144593862Y-87601385D01*
X144647523Y-87524749D01*
X144649847Y-87519765D01*
X144649849Y-87519762D01*
X144665805Y-87485543D01*
X144712722Y-87432258D01*
X144780999Y-87412797D01*
X144848959Y-87433339D01*
G37*
%TD.AperFunction*%
%TA.AperFunction,Conductor*%
G36*
X156496452Y-88682335D02*
G01*
X156541638Y-88725745D01*
X156594203Y-88810689D01*
X156599384Y-88815861D01*
X156599385Y-88815862D01*
X156718347Y-88934617D01*
X156717033Y-88935933D01*
X156752562Y-88986048D01*
X156755792Y-89056971D01*
X156720165Y-89118382D01*
X156719945Y-89118573D01*
X156717311Y-89120203D01*
X156593383Y-89244347D01*
X156501339Y-89393671D01*
X156499034Y-89400619D01*
X156499034Y-89400620D01*
X156448679Y-89552436D01*
X156446115Y-89560165D01*
X156435500Y-89663769D01*
X156435501Y-90676230D01*
X156446384Y-90781129D01*
X156448563Y-90787660D01*
X156448564Y-90787665D01*
X156480767Y-90884189D01*
X156501898Y-90947526D01*
X156594203Y-91096689D01*
X156718347Y-91220617D01*
X156724579Y-91224458D01*
X156724581Y-91224460D01*
X156786915Y-91262883D01*
X156834409Y-91315655D01*
X156846800Y-91370143D01*
X156846800Y-91382871D01*
X156826798Y-91450992D01*
X156787104Y-91490014D01*
X156717311Y-91533203D01*
X156712138Y-91538385D01*
X156677943Y-91572640D01*
X156593383Y-91657347D01*
X156589543Y-91663577D01*
X156589542Y-91663578D01*
X156572336Y-91691491D01*
X156501339Y-91806671D01*
X156499034Y-91813619D01*
X156499034Y-91813620D01*
X156448679Y-91965436D01*
X156446115Y-91973165D01*
X156435500Y-92076769D01*
X156435501Y-92412773D01*
X156435501Y-92699919D01*
X156415499Y-92768040D01*
X156398596Y-92789014D01*
X156150595Y-93037015D01*
X156088283Y-93071041D01*
X156017468Y-93065976D01*
X155960632Y-93023429D01*
X155935821Y-92956909D01*
X155935500Y-92947920D01*
X155935500Y-92855115D01*
X155931025Y-92839876D01*
X155929635Y-92838671D01*
X155921952Y-92837000D01*
X155212115Y-92837000D01*
X155196876Y-92841475D01*
X155195671Y-92842865D01*
X155194000Y-92850548D01*
X155194000Y-93988383D01*
X155184409Y-94036599D01*
X155134060Y-94158153D01*
X155121597Y-94252821D01*
X155113965Y-94310790D01*
X155115043Y-94318978D01*
X155117932Y-94340923D01*
X155119010Y-94357369D01*
X155119010Y-95124000D01*
X155099008Y-95192121D01*
X155045352Y-95238614D01*
X154993010Y-95250000D01*
X154812000Y-95250000D01*
X154743879Y-95229998D01*
X154697386Y-95176342D01*
X154686000Y-95124000D01*
X154686000Y-92310885D01*
X155194000Y-92310885D01*
X155198475Y-92326124D01*
X155199865Y-92327329D01*
X155207548Y-92329000D01*
X155917384Y-92329000D01*
X155932623Y-92324525D01*
X155933828Y-92323135D01*
X155935499Y-92315452D01*
X155935499Y-92080067D01*
X155935162Y-92073548D01*
X155925334Y-91978830D01*
X155922442Y-91965436D01*
X155871464Y-91812635D01*
X155865290Y-91799457D01*
X155780756Y-91662851D01*
X155771720Y-91651450D01*
X155658021Y-91537949D01*
X155646610Y-91528937D01*
X155573329Y-91483766D01*
X155525836Y-91430994D01*
X155514412Y-91360922D01*
X155542686Y-91295798D01*
X155573142Y-91269361D01*
X155647655Y-91223251D01*
X155659050Y-91214220D01*
X155772551Y-91100521D01*
X155781563Y-91089110D01*
X155865865Y-90952346D01*
X155872009Y-90939168D01*
X155922727Y-90786260D01*
X155925593Y-90772894D01*
X155935172Y-90679399D01*
X155935500Y-90672984D01*
X155935500Y-90442115D01*
X155931025Y-90426876D01*
X155929635Y-90425671D01*
X155921952Y-90424000D01*
X155212115Y-90424000D01*
X155196876Y-90428475D01*
X155195671Y-90429865D01*
X155194000Y-90437548D01*
X155194000Y-92310885D01*
X154686000Y-92310885D01*
X154686000Y-90042000D01*
X154706002Y-89973879D01*
X154759658Y-89927386D01*
X154812000Y-89916000D01*
X155917384Y-89916000D01*
X155932623Y-89911525D01*
X155933828Y-89910135D01*
X155935499Y-89902452D01*
X155935499Y-89667067D01*
X155935162Y-89660548D01*
X155925334Y-89565830D01*
X155922442Y-89552436D01*
X155871464Y-89399635D01*
X155865290Y-89386457D01*
X155780756Y-89249851D01*
X155771720Y-89238450D01*
X155652841Y-89119778D01*
X155654130Y-89118487D01*
X155618530Y-89068263D01*
X155615306Y-88997340D01*
X155650937Y-88935932D01*
X155651429Y-88935505D01*
X155654189Y-88933797D01*
X155659316Y-88928661D01*
X155659323Y-88928655D01*
X155707611Y-88880282D01*
X155769894Y-88846203D01*
X155796784Y-88843300D01*
X155949887Y-88843300D01*
X155956339Y-88841928D01*
X155956344Y-88841928D01*
X156043288Y-88823447D01*
X156136688Y-88803594D01*
X156147047Y-88798982D01*
X156305122Y-88728603D01*
X156305124Y-88728602D01*
X156311152Y-88725918D01*
X156360433Y-88690113D01*
X156427300Y-88666255D01*
X156496452Y-88682335D01*
G37*
%TD.AperFunction*%
%TD*%
M02*
