%TF.GenerationSoftware,KiCad,Pcbnew,(6.0.2)*%
%TF.CreationDate,2022-04-01T15:45:15-05:00*%
%TF.ProjectId,bassDrum,62617373-4472-4756-9d2e-6b696361645f,rev?*%
%TF.SameCoordinates,Original*%
%TF.FileFunction,Paste,Top*%
%TF.FilePolarity,Positive*%
%FSLAX46Y46*%
G04 Gerber Fmt 4.6, Leading zero omitted, Abs format (unit mm)*
G04 Created by KiCad (PCBNEW (6.0.2)) date 2022-04-01 15:45:15*
%MOMM*%
%LPD*%
G01*
G04 APERTURE LIST*
G04 Aperture macros list*
%AMRoundRect*
0 Rectangle with rounded corners*
0 $1 Rounding radius*
0 $2 $3 $4 $5 $6 $7 $8 $9 X,Y pos of 4 corners*
0 Add a 4 corners polygon primitive as box body*
4,1,4,$2,$3,$4,$5,$6,$7,$8,$9,$2,$3,0*
0 Add four circle primitives for the rounded corners*
1,1,$1+$1,$2,$3*
1,1,$1+$1,$4,$5*
1,1,$1+$1,$6,$7*
1,1,$1+$1,$8,$9*
0 Add four rect primitives between the rounded corners*
20,1,$1+$1,$2,$3,$4,$5,0*
20,1,$1+$1,$4,$5,$6,$7,0*
20,1,$1+$1,$6,$7,$8,$9,0*
20,1,$1+$1,$8,$9,$2,$3,0*%
G04 Aperture macros list end*
%ADD10R,1.400000X0.300000*%
%ADD11RoundRect,0.150000X-0.800000X-0.150000X0.800000X-0.150000X0.800000X0.150000X-0.800000X0.150000X0*%
%ADD12RoundRect,0.243750X-0.456250X0.243750X-0.456250X-0.243750X0.456250X-0.243750X0.456250X0.243750X0*%
%ADD13RoundRect,0.243750X0.243750X0.456250X-0.243750X0.456250X-0.243750X-0.456250X0.243750X-0.456250X0*%
%ADD14RoundRect,0.243750X-0.243750X-0.456250X0.243750X-0.456250X0.243750X0.456250X-0.243750X0.456250X0*%
G04 APERTURE END LIST*
D10*
%TO.C,U4*%
X147361000Y-99076000D03*
X147361000Y-99576000D03*
X147361000Y-100076000D03*
X147361000Y-100576000D03*
X147361000Y-101076000D03*
X142961000Y-101076000D03*
X142961000Y-100576000D03*
X142961000Y-100076000D03*
X142961000Y-99576000D03*
X142961000Y-99076000D03*
%TD*%
D11*
%TO.C,U3*%
X142692000Y-106857800D03*
X142692000Y-108127800D03*
X142692000Y-109397800D03*
X142692000Y-110667800D03*
X135692000Y-110667800D03*
X135692000Y-109397800D03*
X135692000Y-108127800D03*
X135692000Y-106857800D03*
%TD*%
D10*
%TO.C,U2*%
X139446000Y-99076000D03*
X139446000Y-99576000D03*
X139446000Y-100076000D03*
X139446000Y-100576000D03*
X139446000Y-101076000D03*
X135046000Y-101076000D03*
X135046000Y-100576000D03*
X135046000Y-100076000D03*
X135046000Y-99576000D03*
X135046000Y-99076000D03*
%TD*%
D11*
%TO.C,U1*%
X129738000Y-106883200D03*
X129738000Y-108153200D03*
X129738000Y-109423200D03*
X129738000Y-110693200D03*
X122738000Y-110693200D03*
X122738000Y-109423200D03*
X122738000Y-108153200D03*
X122738000Y-106883200D03*
%TD*%
D12*
%TO.C,R20*%
X140589000Y-92045000D03*
X140589000Y-90170000D03*
%TD*%
%TO.C,R19*%
X137795000Y-92045000D03*
X137795000Y-90170000D03*
%TD*%
D13*
%TO.C,R17*%
X153065000Y-100076000D03*
X154940000Y-100076000D03*
%TD*%
%TO.C,R16*%
X157431500Y-97409000D03*
X159306500Y-97409000D03*
%TD*%
D14*
%TO.C,R15*%
X159306500Y-102616000D03*
X157431500Y-102616000D03*
%TD*%
D12*
%TO.C,R14*%
X145923000Y-92045000D03*
X145923000Y-90170000D03*
%TD*%
%TO.C,R13*%
X143129000Y-92045000D03*
X143129000Y-90170000D03*
%TD*%
D14*
%TO.C,R11*%
X128778000Y-99060000D03*
X126903000Y-99060000D03*
%TD*%
%TO.C,R10*%
X128778000Y-88646000D03*
X126903000Y-88646000D03*
%TD*%
%TO.C,R9*%
X124430000Y-88646000D03*
X122555000Y-88646000D03*
%TD*%
%TO.C,R8*%
X128778000Y-93980000D03*
X126903000Y-93980000D03*
%TD*%
%TO.C,R7*%
X128778000Y-96520000D03*
X126903000Y-96520000D03*
%TD*%
%TO.C,R6*%
X124430000Y-96520000D03*
X122555000Y-96520000D03*
%TD*%
%TO.C,R5*%
X159306500Y-92583000D03*
X157431500Y-92583000D03*
%TD*%
%TO.C,R4*%
X154940000Y-90170000D03*
X153065000Y-90170000D03*
%TD*%
%TO.C,R3*%
X159306500Y-87884000D03*
X157431500Y-87884000D03*
%TD*%
%TO.C,R2*%
X159306500Y-90170000D03*
X157431500Y-90170000D03*
%TD*%
%TO.C,R1*%
X154940000Y-87884000D03*
X153065000Y-87884000D03*
%TD*%
D13*
%TO.C,C12*%
X153065000Y-94996000D03*
X154940000Y-94996000D03*
%TD*%
%TO.C,C11*%
X157431500Y-85598000D03*
X159306500Y-85598000D03*
%TD*%
%TO.C,C9*%
X157431500Y-100076000D03*
X159306500Y-100076000D03*
%TD*%
%TO.C,C8*%
X153065000Y-92583000D03*
X154940000Y-92583000D03*
%TD*%
D14*
%TO.C,C7*%
X154940000Y-97409000D03*
X153065000Y-97409000D03*
%TD*%
D13*
%TO.C,C6*%
X122555000Y-99060000D03*
X124430000Y-99060000D03*
%TD*%
D14*
%TO.C,C5*%
X128778000Y-91440000D03*
X126903000Y-91440000D03*
%TD*%
%TO.C,C4*%
X124430000Y-91440000D03*
X122555000Y-91440000D03*
%TD*%
D13*
%TO.C,C3*%
X122555000Y-93980000D03*
X124430000Y-93980000D03*
%TD*%
%TO.C,C2*%
X157431500Y-94996000D03*
X159306500Y-94996000D03*
%TD*%
D14*
%TO.C,C1*%
X154940000Y-85598000D03*
X153065000Y-85598000D03*
%TD*%
M02*
