%TF.GenerationSoftware,KiCad,Pcbnew,(6.0.2)*%
%TF.CreationDate,2022-04-01T15:45:15-05:00*%
%TF.ProjectId,bassDrum,62617373-4472-4756-9d2e-6b696361645f,rev?*%
%TF.SameCoordinates,Original*%
%TF.FileFunction,Soldermask,Bot*%
%TF.FilePolarity,Negative*%
%FSLAX46Y46*%
G04 Gerber Fmt 4.6, Leading zero omitted, Abs format (unit mm)*
G04 Created by KiCad (PCBNEW (6.0.2)) date 2022-04-01 15:45:15*
%MOMM*%
%LPD*%
G01*
G04 APERTURE LIST*
G04 Aperture macros list*
%AMRoundRect*
0 Rectangle with rounded corners*
0 $1 Rounding radius*
0 $2 $3 $4 $5 $6 $7 $8 $9 X,Y pos of 4 corners*
0 Add a 4 corners polygon primitive as box body*
4,1,4,$2,$3,$4,$5,$6,$7,$8,$9,$2,$3,0*
0 Add four circle primitives for the rounded corners*
1,1,$1+$1,$2,$3*
1,1,$1+$1,$4,$5*
1,1,$1+$1,$6,$7*
1,1,$1+$1,$8,$9*
0 Add four rect primitives between the rounded corners*
20,1,$1+$1,$2,$3,$4,$5,0*
20,1,$1+$1,$4,$5,$6,$7,0*
20,1,$1+$1,$6,$7,$8,$9,0*
20,1,$1+$1,$8,$9,$2,$3,0*%
G04 Aperture macros list end*
%ADD10O,1.700000X1.700000*%
%ADD11RoundRect,0.050000X-0.800000X0.800000X-0.800000X-0.800000X0.800000X-0.800000X0.800000X0.800000X0*%
%ADD12RoundRect,0.050000X-0.750000X0.525000X-0.750000X-0.525000X0.750000X-0.525000X0.750000X0.525000X0*%
%ADD13O,1.600000X1.150000*%
%ADD14O,1.800000X1.800000*%
%ADD15RoundRect,0.050000X-0.850000X-0.850000X0.850000X-0.850000X0.850000X0.850000X-0.850000X0.850000X0*%
%ADD16O,2.300000X2.300000*%
%ADD17RoundRect,0.050000X-1.100000X-1.100000X1.100000X-1.100000X1.100000X1.100000X-1.100000X1.100000X0*%
G04 APERTURE END LIST*
D10*
%TO.C,SW2*%
X146050000Y-86868000D03*
X138430000Y-79248000D03*
X143510000Y-86868000D03*
X140970000Y-79248000D03*
X140970000Y-86868000D03*
X143510000Y-79248000D03*
X138430000Y-86868000D03*
D11*
X146050000Y-79248000D03*
%TD*%
D12*
%TO.C,Q2*%
X155803600Y-107899200D03*
D13*
X155803600Y-110439200D03*
X155803600Y-109169200D03*
%TD*%
D12*
%TO.C,Q1*%
X148818600Y-107899200D03*
D13*
X148818600Y-110439200D03*
X148818600Y-109169200D03*
%TD*%
D14*
%TO.C,J5*%
X132689600Y-85090000D03*
X132689600Y-82550000D03*
D15*
X132689600Y-80010000D03*
%TD*%
D14*
%TO.C,J3*%
X127355600Y-85090000D03*
X127355600Y-82550000D03*
D15*
X127355600Y-80010000D03*
%TD*%
D14*
%TO.C,J2*%
X122428000Y-85090000D03*
X122428000Y-82550000D03*
D15*
X122428000Y-80010000D03*
%TD*%
D14*
%TO.C,J1*%
X117434400Y-108031200D03*
X114894400Y-108031200D03*
X117434400Y-105491200D03*
X114894400Y-105491200D03*
X117434400Y-102951200D03*
X114894400Y-102951200D03*
X117434400Y-100411200D03*
X114894400Y-100411200D03*
X117434400Y-97871200D03*
X114894400Y-97871200D03*
X117434400Y-95331200D03*
X114894400Y-95331200D03*
X117434400Y-92791200D03*
X114894400Y-92791200D03*
X117434400Y-90251200D03*
X114894400Y-90251200D03*
X117434400Y-87711200D03*
X114894400Y-87711200D03*
X117434400Y-85171200D03*
X114894400Y-85171200D03*
X117434400Y-82631200D03*
X114894400Y-82631200D03*
X117434400Y-80091200D03*
D15*
X114894400Y-80091200D03*
%TD*%
D16*
%TO.C,D1*%
X159004000Y-79883000D03*
D17*
X151384000Y-79883000D03*
%TD*%
M02*
