M48
; DRILL file {KiCad (6.0.2)} date Fri Apr  1 15:45:25 2022
; FORMAT={-:-/ absolute / inch / decimal}
; #@! TF.CreationDate,2022-04-01T15:45:25-05:00
; #@! TF.GenerationSoftware,Kicad,Pcbnew,(6.0.2)
; #@! TF.FileFunction,MixedPlating,1,2
FMAT,2
INCH
; #@! TA.AperFunction,Plated,PTH,ViaDrill
T1C0.0157
; #@! TA.AperFunction,Plated,PTH,ComponentDrill
T2C0.0295
; #@! TA.AperFunction,Plated,PTH,ComponentDrill
T3C0.0315
; #@! TA.AperFunction,Plated,PTH,ComponentDrill
T4C0.0394
; #@! TA.AperFunction,Plated,PTH,ComponentDrill
T5C0.0433
%
G90
G05
T1
X4.6714Y-3.814
X4.718Y-3.99
X4.75Y-4.356
X4.806Y-3.85
X4.832Y-4.156
X4.884Y-4.028
X4.892Y-4.383
X4.92Y-4.2293
X4.936Y-3.644
X4.9453Y-3.9203
X4.946Y-3.782
X5.0Y-4.2346
X5.068Y-4.05
X5.088Y-3.436
X5.108Y-3.548
X5.1122Y-3.7818
X5.126Y-3.828
X5.132Y-3.892
X5.134Y-4.108
X5.148Y-3.928
X5.1693Y-3.9611
X5.176Y-4.23
X5.234Y-3.774
X5.238Y-4.382
X5.242Y-3.9814
X5.252Y-4.194
X5.318Y-3.85
X5.3414Y-3.716
X5.366Y-3.81
X5.368Y-3.902
X5.368Y-3.9794
X5.3946Y-3.492
X5.3974Y-3.9286
X5.41Y-4.358
X5.412Y-3.764
X5.452Y-4.006
X5.46Y-3.852
X5.476Y-4.232
X5.48Y-3.668
X5.48Y-3.7426
X5.482Y-3.523
X5.5392Y-3.7528
X5.5418Y-3.9405
X5.55Y-3.902
X5.5721Y-3.6881
X5.5991Y-3.5832
X5.601Y-4.017
X5.674Y-3.77
X5.68Y-4.07
X5.714Y-3.946
X5.716Y-4.18
X5.732Y-3.85
X5.746Y-4.244
X5.748Y-3.992
X5.796Y-3.868
X5.812Y-4.126
X5.8148Y-4.0648
X5.832Y-3.684
X5.837Y-3.598
X5.888Y-3.778
X5.951Y-4.025
X5.974Y-3.778
X6.0389Y-3.9889
X6.064Y-3.892
X6.078Y-3.984
X6.12Y-3.894
X6.124Y-4.0134
X6.136Y-3.462
X6.1567Y-3.786
X6.252Y-3.884
X6.324Y-3.792
X6.326Y-3.522
T2
X5.859Y-4.248
X5.859Y-4.298
X5.859Y-4.348
X6.134Y-4.248
X6.134Y-4.298
X6.134Y-4.348
T3
X5.45Y-3.12
X5.45Y-3.42
X5.55Y-3.12
X5.55Y-3.42
X5.65Y-3.12
X5.65Y-3.42
X5.75Y-3.12
X5.75Y-3.42
T4
X4.5234Y-3.1532
X4.5234Y-3.2532
X4.5234Y-3.3532
X4.5234Y-3.4532
X4.5234Y-3.5532
X4.5234Y-3.6532
X4.5234Y-3.7532
X4.5234Y-3.8532
X4.5234Y-3.9532
X4.5234Y-4.0532
X4.5234Y-4.1532
X4.5234Y-4.2532
X4.6234Y-3.1532
X4.6234Y-3.2532
X4.6234Y-3.3532
X4.6234Y-3.4532
X4.6234Y-3.5532
X4.6234Y-3.6532
X4.6234Y-3.7532
X4.6234Y-3.8532
X4.6234Y-3.9532
X4.6234Y-4.0532
X4.6234Y-4.1532
X4.6234Y-4.2532
X4.82Y-3.15
X4.82Y-3.25
X4.82Y-3.35
X5.014Y-3.15
X5.014Y-3.25
X5.014Y-3.35
X5.224Y-3.15
X5.224Y-3.25
X5.224Y-3.35
T5
X5.96Y-3.145
X6.26Y-3.145
T0
M30
