%TF.GenerationSoftware,KiCad,Pcbnew,(6.0.2)*%
%TF.CreationDate,2022-04-01T15:45:15-05:00*%
%TF.ProjectId,bassDrum,62617373-4472-4756-9d2e-6b696361645f,rev?*%
%TF.SameCoordinates,Original*%
%TF.FileFunction,Soldermask,Top*%
%TF.FilePolarity,Negative*%
%FSLAX46Y46*%
G04 Gerber Fmt 4.6, Leading zero omitted, Abs format (unit mm)*
G04 Created by KiCad (PCBNEW (6.0.2)) date 2022-04-01 15:45:15*
%MOMM*%
%LPD*%
G01*
G04 APERTURE LIST*
G04 Aperture macros list*
%AMRoundRect*
0 Rectangle with rounded corners*
0 $1 Rounding radius*
0 $2 $3 $4 $5 $6 $7 $8 $9 X,Y pos of 4 corners*
0 Add a 4 corners polygon primitive as box body*
4,1,4,$2,$3,$4,$5,$6,$7,$8,$9,$2,$3,0*
0 Add four circle primitives for the rounded corners*
1,1,$1+$1,$2,$3*
1,1,$1+$1,$4,$5*
1,1,$1+$1,$6,$7*
1,1,$1+$1,$8,$9*
0 Add four rect primitives between the rounded corners*
20,1,$1+$1,$2,$3,$4,$5,0*
20,1,$1+$1,$4,$5,$6,$7,0*
20,1,$1+$1,$6,$7,$8,$9,0*
20,1,$1+$1,$8,$9,$2,$3,0*%
G04 Aperture macros list end*
%ADD10RoundRect,0.050000X-0.700000X-0.150000X0.700000X-0.150000X0.700000X0.150000X-0.700000X0.150000X0*%
%ADD11RoundRect,0.200000X-0.800000X-0.150000X0.800000X-0.150000X0.800000X0.150000X-0.800000X0.150000X0*%
%ADD12O,1.700000X1.700000*%
%ADD13RoundRect,0.050000X-0.800000X0.800000X-0.800000X-0.800000X0.800000X-0.800000X0.800000X0.800000X0*%
%ADD14RoundRect,0.293750X-0.456250X0.243750X-0.456250X-0.243750X0.456250X-0.243750X0.456250X0.243750X0*%
%ADD15RoundRect,0.293750X0.243750X0.456250X-0.243750X0.456250X-0.243750X-0.456250X0.243750X-0.456250X0*%
%ADD16RoundRect,0.293750X-0.243750X-0.456250X0.243750X-0.456250X0.243750X0.456250X-0.243750X0.456250X0*%
%ADD17RoundRect,0.050000X-0.750000X0.525000X-0.750000X-0.525000X0.750000X-0.525000X0.750000X0.525000X0*%
%ADD18O,1.600000X1.150000*%
%ADD19O,1.800000X1.800000*%
%ADD20RoundRect,0.050000X-0.850000X-0.850000X0.850000X-0.850000X0.850000X0.850000X-0.850000X0.850000X0*%
%ADD21O,2.300000X2.300000*%
%ADD22RoundRect,0.050000X-1.100000X-1.100000X1.100000X-1.100000X1.100000X1.100000X-1.100000X1.100000X0*%
G04 APERTURE END LIST*
D10*
%TO.C,U4*%
X147361000Y-99076000D03*
X147361000Y-99576000D03*
X147361000Y-100076000D03*
X147361000Y-100576000D03*
X147361000Y-101076000D03*
X142961000Y-101076000D03*
X142961000Y-100576000D03*
X142961000Y-100076000D03*
X142961000Y-99576000D03*
X142961000Y-99076000D03*
%TD*%
D11*
%TO.C,U3*%
X142692000Y-106857800D03*
X142692000Y-108127800D03*
X142692000Y-109397800D03*
X142692000Y-110667800D03*
X135692000Y-110667800D03*
X135692000Y-109397800D03*
X135692000Y-108127800D03*
X135692000Y-106857800D03*
%TD*%
D10*
%TO.C,U2*%
X139446000Y-99076000D03*
X139446000Y-99576000D03*
X139446000Y-100076000D03*
X139446000Y-100576000D03*
X139446000Y-101076000D03*
X135046000Y-101076000D03*
X135046000Y-100576000D03*
X135046000Y-100076000D03*
X135046000Y-99576000D03*
X135046000Y-99076000D03*
%TD*%
D11*
%TO.C,U1*%
X129738000Y-106883200D03*
X129738000Y-108153200D03*
X129738000Y-109423200D03*
X129738000Y-110693200D03*
X122738000Y-110693200D03*
X122738000Y-109423200D03*
X122738000Y-108153200D03*
X122738000Y-106883200D03*
%TD*%
D12*
%TO.C,SW2*%
X146050000Y-86868000D03*
X138430000Y-79248000D03*
X143510000Y-86868000D03*
X140970000Y-79248000D03*
X140970000Y-86868000D03*
X143510000Y-79248000D03*
X138430000Y-86868000D03*
D13*
X146050000Y-79248000D03*
%TD*%
D14*
%TO.C,R20*%
X140589000Y-92045000D03*
X140589000Y-90170000D03*
%TD*%
%TO.C,R19*%
X137795000Y-92045000D03*
X137795000Y-90170000D03*
%TD*%
D15*
%TO.C,R17*%
X153065000Y-100076000D03*
X154940000Y-100076000D03*
%TD*%
%TO.C,R16*%
X157431500Y-97409000D03*
X159306500Y-97409000D03*
%TD*%
D16*
%TO.C,R15*%
X159306500Y-102616000D03*
X157431500Y-102616000D03*
%TD*%
D14*
%TO.C,R14*%
X145923000Y-92045000D03*
X145923000Y-90170000D03*
%TD*%
%TO.C,R13*%
X143129000Y-92045000D03*
X143129000Y-90170000D03*
%TD*%
D16*
%TO.C,R11*%
X128778000Y-99060000D03*
X126903000Y-99060000D03*
%TD*%
%TO.C,R10*%
X128778000Y-88646000D03*
X126903000Y-88646000D03*
%TD*%
%TO.C,R9*%
X124430000Y-88646000D03*
X122555000Y-88646000D03*
%TD*%
%TO.C,R8*%
X128778000Y-93980000D03*
X126903000Y-93980000D03*
%TD*%
%TO.C,R7*%
X128778000Y-96520000D03*
X126903000Y-96520000D03*
%TD*%
%TO.C,R6*%
X124430000Y-96520000D03*
X122555000Y-96520000D03*
%TD*%
%TO.C,R5*%
X159306500Y-92583000D03*
X157431500Y-92583000D03*
%TD*%
%TO.C,R4*%
X154940000Y-90170000D03*
X153065000Y-90170000D03*
%TD*%
%TO.C,R3*%
X159306500Y-87884000D03*
X157431500Y-87884000D03*
%TD*%
%TO.C,R2*%
X159306500Y-90170000D03*
X157431500Y-90170000D03*
%TD*%
%TO.C,R1*%
X154940000Y-87884000D03*
X153065000Y-87884000D03*
%TD*%
D17*
%TO.C,Q2*%
X155803600Y-107899200D03*
D18*
X155803600Y-110439200D03*
X155803600Y-109169200D03*
%TD*%
D17*
%TO.C,Q1*%
X148818600Y-107899200D03*
D18*
X148818600Y-110439200D03*
X148818600Y-109169200D03*
%TD*%
D19*
%TO.C,J5*%
X132689600Y-85090000D03*
X132689600Y-82550000D03*
D20*
X132689600Y-80010000D03*
%TD*%
D19*
%TO.C,J3*%
X127355600Y-85090000D03*
X127355600Y-82550000D03*
D20*
X127355600Y-80010000D03*
%TD*%
D19*
%TO.C,J2*%
X122428000Y-85090000D03*
X122428000Y-82550000D03*
D20*
X122428000Y-80010000D03*
%TD*%
D19*
%TO.C,J1*%
X117434400Y-108031200D03*
X114894400Y-108031200D03*
X117434400Y-105491200D03*
X114894400Y-105491200D03*
X117434400Y-102951200D03*
X114894400Y-102951200D03*
X117434400Y-100411200D03*
X114894400Y-100411200D03*
X117434400Y-97871200D03*
X114894400Y-97871200D03*
X117434400Y-95331200D03*
X114894400Y-95331200D03*
X117434400Y-92791200D03*
X114894400Y-92791200D03*
X117434400Y-90251200D03*
X114894400Y-90251200D03*
X117434400Y-87711200D03*
X114894400Y-87711200D03*
X117434400Y-85171200D03*
X114894400Y-85171200D03*
X117434400Y-82631200D03*
X114894400Y-82631200D03*
X117434400Y-80091200D03*
D20*
X114894400Y-80091200D03*
%TD*%
D21*
%TO.C,D1*%
X159004000Y-79883000D03*
D22*
X151384000Y-79883000D03*
%TD*%
D15*
%TO.C,C12*%
X153065000Y-94996000D03*
X154940000Y-94996000D03*
%TD*%
%TO.C,C11*%
X157431500Y-85598000D03*
X159306500Y-85598000D03*
%TD*%
%TO.C,C9*%
X157431500Y-100076000D03*
X159306500Y-100076000D03*
%TD*%
%TO.C,C8*%
X153065000Y-92583000D03*
X154940000Y-92583000D03*
%TD*%
D16*
%TO.C,C7*%
X154940000Y-97409000D03*
X153065000Y-97409000D03*
%TD*%
D15*
%TO.C,C6*%
X122555000Y-99060000D03*
X124430000Y-99060000D03*
%TD*%
D16*
%TO.C,C5*%
X128778000Y-91440000D03*
X126903000Y-91440000D03*
%TD*%
%TO.C,C4*%
X124430000Y-91440000D03*
X122555000Y-91440000D03*
%TD*%
D15*
%TO.C,C3*%
X122555000Y-93980000D03*
X124430000Y-93980000D03*
%TD*%
%TO.C,C2*%
X157431500Y-94996000D03*
X159306500Y-94996000D03*
%TD*%
D16*
%TO.C,C1*%
X154940000Y-85598000D03*
X153065000Y-85598000D03*
%TD*%
M02*
