%TF.GenerationSoftware,KiCad,Pcbnew,(6.0.2)*%
%TF.CreationDate,2022-04-01T15:45:15-05:00*%
%TF.ProjectId,bassDrum,62617373-4472-4756-9d2e-6b696361645f,rev?*%
%TF.SameCoordinates,Original*%
%TF.FileFunction,Copper,L2,Bot*%
%TF.FilePolarity,Positive*%
%FSLAX46Y46*%
G04 Gerber Fmt 4.6, Leading zero omitted, Abs format (unit mm)*
G04 Created by KiCad (PCBNEW (6.0.2)) date 2022-04-01 15:45:15*
%MOMM*%
%LPD*%
G01*
G04 APERTURE LIST*
%TA.AperFunction,ComponentPad*%
%ADD10O,1.600000X1.600000*%
%TD*%
%TA.AperFunction,ComponentPad*%
%ADD11R,1.600000X1.600000*%
%TD*%
%TA.AperFunction,ComponentPad*%
%ADD12R,1.500000X1.050000*%
%TD*%
%TA.AperFunction,ComponentPad*%
%ADD13O,1.500000X1.050000*%
%TD*%
%TA.AperFunction,ComponentPad*%
%ADD14O,1.700000X1.700000*%
%TD*%
%TA.AperFunction,ComponentPad*%
%ADD15R,1.700000X1.700000*%
%TD*%
%TA.AperFunction,ComponentPad*%
%ADD16O,2.200000X2.200000*%
%TD*%
%TA.AperFunction,ComponentPad*%
%ADD17R,2.200000X2.200000*%
%TD*%
%TA.AperFunction,ViaPad*%
%ADD18C,0.800000*%
%TD*%
%TA.AperFunction,Conductor*%
%ADD19C,0.152400*%
%TD*%
%TA.AperFunction,Conductor*%
%ADD20C,0.304800*%
%TD*%
G04 APERTURE END LIST*
D10*
%TO.P,SW2,8*%
%TO.N,A0*%
X146050000Y-86868000D03*
%TO.P,SW2,4*%
%TO.N,5V*%
X138430000Y-79248000D03*
%TO.P,SW2,7*%
%TO.N,A1*%
X143510000Y-86868000D03*
%TO.P,SW2,3*%
%TO.N,5V*%
X140970000Y-79248000D03*
%TO.P,SW2,6*%
%TO.N,MasterA0*%
X140970000Y-86868000D03*
%TO.P,SW2,2*%
%TO.N,5V*%
X143510000Y-79248000D03*
%TO.P,SW2,5*%
%TO.N,MasterA1*%
X138430000Y-86868000D03*
D11*
%TO.P,SW2,1*%
%TO.N,5V*%
X146050000Y-79248000D03*
%TD*%
D12*
%TO.P,Q2,1*%
%TO.N,Net-(Q1-Pad1)*%
X155803600Y-107899200D03*
D13*
%TO.P,Q2,3*%
%TO.N,Net-(C2-Pad1)*%
X155803600Y-110439200D03*
%TO.P,Q2,2*%
%TO.N,Net-(Q1-Pad3)*%
X155803600Y-109169200D03*
%TD*%
D12*
%TO.P,Q1,1*%
%TO.N,Net-(Q1-Pad1)*%
X148818600Y-107899200D03*
D13*
%TO.P,Q1,3*%
%TO.N,Net-(Q1-Pad3)*%
X148818600Y-110439200D03*
%TO.P,Q1,2*%
%TO.N,Net-(C1-Pad1)*%
X148818600Y-109169200D03*
%TD*%
D14*
%TO.P,J5,3*%
%TO.N,Net-(J5-Pad3)*%
X132689600Y-85090000D03*
%TO.P,J5,2*%
%TO.N,A_OUT_L*%
X132689600Y-82550000D03*
D15*
%TO.P,J5,1*%
%TO.N,GND*%
X132689600Y-80010000D03*
%TD*%
D14*
%TO.P,J3,3*%
%TO.N,Net-(J3-Pad3)*%
X127355600Y-85090000D03*
%TO.P,J3,2*%
%TO.N,P1Out*%
X127355600Y-82550000D03*
D15*
%TO.P,J3,1*%
%TO.N,GND*%
X127355600Y-80010000D03*
%TD*%
D14*
%TO.P,J2,3*%
%TO.N,Net-(J2-Pad3)*%
X122428000Y-85090000D03*
%TO.P,J2,2*%
%TO.N,P0Out*%
X122428000Y-82550000D03*
D15*
%TO.P,J2,1*%
%TO.N,GND*%
X122428000Y-80010000D03*
%TD*%
D14*
%TO.P,J1,24*%
%TO.N,TRIG*%
X117434400Y-108031200D03*
%TO.P,J1,23*%
X114894400Y-108031200D03*
%TO.P,J1,22*%
%TO.N,SDA*%
X117434400Y-105491200D03*
%TO.P,J1,21*%
X114894400Y-105491200D03*
%TO.P,J1,20*%
%TO.N,SCL*%
X117434400Y-102951200D03*
%TO.P,J1,19*%
X114894400Y-102951200D03*
%TO.P,J1,18*%
%TO.N,DET*%
X117434400Y-100411200D03*
%TO.P,J1,17*%
X114894400Y-100411200D03*
%TO.P,J1,16*%
%TO.N,5V*%
X117434400Y-97871200D03*
%TO.P,J1,15*%
X114894400Y-97871200D03*
%TO.P,J1,14*%
%TO.N,GND*%
X117434400Y-95331200D03*
%TO.P,J1,13*%
X114894400Y-95331200D03*
%TO.P,J1,12*%
%TO.N,-12V*%
X117434400Y-92791200D03*
%TO.P,J1,11*%
X114894400Y-92791200D03*
%TO.P,J1,10*%
%TO.N,+12V*%
X117434400Y-90251200D03*
%TO.P,J1,9*%
X114894400Y-90251200D03*
%TO.P,J1,8*%
%TO.N,GND*%
X117434400Y-87711200D03*
%TO.P,J1,7*%
X114894400Y-87711200D03*
%TO.P,J1,6*%
%TO.N,A_IN*%
X117434400Y-85171200D03*
%TO.P,J1,5*%
X114894400Y-85171200D03*
%TO.P,J1,4*%
%TO.N,A_OUT_R*%
X117434400Y-82631200D03*
%TO.P,J1,3*%
X114894400Y-82631200D03*
%TO.P,J1,2*%
%TO.N,A_OUT_L*%
X117434400Y-80091200D03*
D15*
%TO.P,J1,1*%
X114894400Y-80091200D03*
%TD*%
D16*
%TO.P,D1,2*%
%TO.N,GND*%
X159004000Y-79883000D03*
D17*
%TO.P,D1,1*%
%TO.N,Net-(C1-Pad1)*%
X151384000Y-79883000D03*
%TD*%
D18*
%TO.N,Net-(C1-Pad1)*%
X155854400Y-87934800D03*
X160680400Y-89458800D03*
%TO.N,GND*%
X151155400Y-102235000D03*
X153389082Y-101318921D03*
X145999200Y-101396800D03*
X142265400Y-102031800D03*
X133146800Y-101127000D03*
%TO.N,Net-(C2-Pad2)*%
X127000000Y-107559400D03*
X144272000Y-103378000D03*
X147696546Y-103246546D03*
X156379910Y-96164400D03*
%TO.N,Net-(C2-Pad1)*%
X160629600Y-96316800D03*
%TO.N,Net-(C3-Pad1)*%
X124968680Y-107424160D03*
X129849254Y-96058346D03*
%TO.N,Net-(C4-Pad2)*%
X125374400Y-92557600D03*
X125628400Y-96062800D03*
X122732800Y-105562400D03*
X124053600Y-102311200D03*
X125609996Y-99576228D03*
X130352800Y-98856800D03*
%TO.N,A_OUT_L*%
X135671000Y-94386400D03*
%TO.N,+12V*%
X131470400Y-107442000D03*
X139090400Y-107492800D03*
X119837200Y-101346000D03*
X147624800Y-104800400D03*
X154025600Y-98856800D03*
%TO.N,-12V*%
X120650000Y-110642400D03*
X151739600Y-95961200D03*
X137414000Y-110693200D03*
X124256800Y-111328200D03*
X133045200Y-111302800D03*
%TO.N,5V*%
X138684000Y-97840800D03*
X147218400Y-98247200D03*
X118653000Y-96875600D03*
X122072400Y-97790000D03*
X130200400Y-97231200D03*
X132943600Y-95859600D03*
%TO.N,SDA*%
X131299958Y-100612380D03*
X137094276Y-99787000D03*
X140760471Y-100088604D03*
%TO.N,SCL*%
X130759200Y-99771200D03*
X136346002Y-99110800D03*
X140970000Y-99110800D03*
%TO.N,TRIG*%
X128727200Y-102870000D03*
X145135600Y-100228400D03*
X145592800Y-97790000D03*
%TO.N,P0Out*%
X129235200Y-87274400D03*
%TO.N,P1Out*%
X136347200Y-101076200D03*
%TO.N,P1In*%
X138480800Y-101752400D03*
X129743200Y-90119200D03*
%TO.N,A1*%
X139192000Y-95062600D03*
X142218175Y-91013170D03*
%TO.N,A0*%
X137464800Y-95605600D03*
X136296400Y-96774000D03*
X135077200Y-97790000D03*
X144119600Y-95758000D03*
%TO.N,BassOUT*%
X133400800Y-106527600D03*
X130403600Y-104343200D03*
%TO.N,Net-(C9-Pad2)*%
X155549600Y-101939800D03*
X145186400Y-106172000D03*
%TO.N,Net-(J5-Pad3)*%
X137023400Y-88696800D03*
X149555200Y-95961200D03*
%TO.N,Net-(R16-Pad1)*%
X158800800Y-98653600D03*
X155448000Y-98907600D03*
X154381200Y-101193600D03*
X145948400Y-107797600D03*
%TO.N,MasterA1*%
X148259800Y-91389200D03*
X148133155Y-93573955D03*
%TO.N,MasterA0*%
X140695054Y-95321746D03*
X141532246Y-93678646D03*
X139192000Y-93167200D03*
X139242800Y-89484200D03*
%TD*%
D19*
%TO.N,Net-(C1-Pad1)*%
X155854400Y-87934800D02*
X156972000Y-89052400D01*
X156972000Y-89052400D02*
X160274000Y-89052400D01*
X160274000Y-89052400D02*
X160680400Y-89458800D01*
%TO.N,GND*%
X151155400Y-102235000D02*
X152071479Y-101318921D01*
X152071479Y-101318921D02*
X153389082Y-101318921D01*
X145999200Y-101396800D02*
X142900400Y-101396800D01*
X142900400Y-101396800D02*
X142265400Y-102031800D01*
X141868599Y-102428601D02*
X142265400Y-102031800D01*
X133882716Y-102428601D02*
X141868599Y-102428601D01*
X133146800Y-101692685D02*
X133882716Y-102428601D01*
X133146800Y-101127000D02*
X133146800Y-101692685D01*
%TO.N,Net-(C2-Pad2)*%
X130368022Y-103378000D02*
X144272000Y-103378000D01*
X127000000Y-107559400D02*
X127000000Y-106746022D01*
X127000000Y-106746022D02*
X130368022Y-103378000D01*
X147696546Y-103246546D02*
X154778692Y-96164400D01*
X154778692Y-96164400D02*
X156379910Y-96164400D01*
%TO.N,Net-(C2-Pad1)*%
X160629600Y-106515600D02*
X160629600Y-96316800D01*
X155803600Y-110439200D02*
X156706000Y-110439200D01*
X156706000Y-110439200D02*
X160629600Y-106515600D01*
%TO.N,Net-(C3-Pad1)*%
X125534365Y-107424160D02*
X131976159Y-100982366D01*
X130028324Y-96058346D02*
X129849254Y-96058346D01*
X124968680Y-107424160D02*
X125534365Y-107424160D01*
X131976159Y-98006181D02*
X130028324Y-96058346D01*
X131976159Y-100982366D02*
X131976159Y-98006181D01*
%TO.N,Net-(C4-Pad2)*%
X125374400Y-92557600D02*
X125374400Y-95808800D01*
X125374400Y-95808800D02*
X125628400Y-96062800D01*
X122732800Y-105562400D02*
X122732800Y-103632000D01*
X122732800Y-103632000D02*
X124053600Y-102311200D01*
X125609996Y-99576228D02*
X129633372Y-99576228D01*
X129633372Y-99576228D02*
X130352800Y-98856800D01*
%TO.N,A_OUT_L*%
X132689600Y-82550000D02*
X128727200Y-78587600D01*
X128727200Y-78587600D02*
X120853200Y-78587600D01*
X119349600Y-80091200D02*
X117434400Y-80091200D01*
X120853200Y-78587600D02*
X119349600Y-80091200D01*
X117434400Y-80091200D02*
X114894400Y-80091200D01*
X132689600Y-82550000D02*
X131563399Y-83676201D01*
X131563399Y-83676201D02*
X131563399Y-91837799D01*
X134112000Y-94386400D02*
X131563399Y-91837799D01*
X135671000Y-94386400D02*
X134112000Y-94386400D01*
%TO.N,A_OUT_R*%
X114894400Y-82631200D02*
X117434400Y-82631200D01*
%TO.N,A_IN*%
X114894400Y-85171200D02*
X117434400Y-85171200D01*
%TO.N,+12V*%
X131470400Y-107442000D02*
X139039600Y-107442000D01*
X139039600Y-107442000D02*
X139090400Y-107492800D01*
X114894400Y-90251200D02*
X117434400Y-90251200D01*
X117434400Y-90251200D02*
X119329200Y-92146000D01*
X119329200Y-92146000D02*
X119329200Y-100838000D01*
X119329200Y-100838000D02*
X119837200Y-101346000D01*
X147624800Y-104800400D02*
X153568400Y-98856800D01*
X153568400Y-98856800D02*
X154025600Y-98856800D01*
D20*
%TO.N,-12V*%
X117434400Y-92791200D02*
X114218800Y-92791200D01*
D19*
X114894400Y-92791200D02*
X113284000Y-94401600D01*
X113284000Y-108087578D02*
X115178422Y-109982000D01*
X113284000Y-94401600D02*
X113284000Y-108087578D01*
X115178422Y-109982000D02*
X119989600Y-109982000D01*
X119989600Y-109982000D02*
X120650000Y-110642400D01*
X151739600Y-98247200D02*
X151739600Y-95961200D01*
X137414000Y-110693200D02*
X139293600Y-110693200D01*
X139293600Y-110693200D02*
X151739600Y-98247200D01*
X124256800Y-111328200D02*
X133019800Y-111328200D01*
X133019800Y-111328200D02*
X133045200Y-111302800D01*
D20*
%TO.N,5V*%
X138430000Y-79248000D02*
X140970000Y-79248000D01*
X140970000Y-79248000D02*
X143510000Y-79248000D01*
X143510000Y-79248000D02*
X146050000Y-79248000D01*
D19*
X138430000Y-79248000D02*
X136347200Y-81330800D01*
X136347200Y-81330800D02*
X136347200Y-95504000D01*
X136347200Y-95504000D02*
X138684000Y-97840800D01*
X114894400Y-97871200D02*
X117434400Y-97871200D01*
X117434400Y-97871200D02*
X118430000Y-96875600D01*
X118430000Y-96875600D02*
X118653000Y-96875600D01*
X122072400Y-97790000D02*
X129641600Y-97790000D01*
X129641600Y-97790000D02*
X130200400Y-97231200D01*
X135991600Y-95859600D02*
X136347200Y-95504000D01*
X132943600Y-95859600D02*
X135991600Y-95859600D01*
X139903200Y-96621600D02*
X138684000Y-97840800D01*
X147218400Y-98247200D02*
X145592800Y-96621600D01*
X145592800Y-96621600D02*
X139903200Y-96621600D01*
%TO.N,DET*%
X114894400Y-100411200D02*
X117434400Y-100411200D01*
%TO.N,SDA*%
X114894400Y-105491200D02*
X117434400Y-105491200D01*
X117434400Y-105491200D02*
X117978000Y-105491200D01*
X117978000Y-105491200D02*
X122174000Y-101295200D01*
X122174000Y-101295200D02*
X130617138Y-101295200D01*
X130617138Y-101295200D02*
X131299958Y-100612380D01*
X137094276Y-99787000D02*
X140458867Y-99787000D01*
X140458867Y-99787000D02*
X140760471Y-100088604D01*
%TO.N,SCL*%
X114894400Y-102951200D02*
X117434400Y-102951200D01*
X117434400Y-102951200D02*
X119603600Y-102951200D01*
X119603600Y-102951200D02*
X121970800Y-100584000D01*
X121970800Y-100584000D02*
X129946400Y-100584000D01*
X129946400Y-100584000D02*
X130759200Y-99771200D01*
X136346002Y-99110800D02*
X140970000Y-99110800D01*
%TO.N,TRIG*%
X114894400Y-108031200D02*
X117434400Y-108031200D01*
X117434400Y-108031200D02*
X118717641Y-106747959D01*
X124849241Y-106747959D02*
X128727200Y-102870000D01*
X118717641Y-106747959D02*
X124849241Y-106747959D01*
X145135600Y-100228400D02*
X145592800Y-99771200D01*
X145592800Y-99771200D02*
X145592800Y-97790000D01*
%TO.N,P0Out*%
X122428000Y-82550000D02*
X127152400Y-87274400D01*
X127152400Y-87274400D02*
X129235200Y-87274400D01*
%TO.N,P1Out*%
X130419401Y-95148401D02*
X130419401Y-85613801D01*
X130419401Y-85613801D02*
X127355600Y-82550000D01*
X136347200Y-101076200D02*
X130419401Y-95148401D01*
%TO.N,Net-(Q1-Pad1)*%
X148818600Y-107899200D02*
X155803600Y-107899200D01*
%TO.N,P1In*%
X138480800Y-101752400D02*
X134213600Y-101752400D01*
X134213600Y-101752400D02*
X134213600Y-99466400D01*
X129743200Y-94996000D02*
X129743200Y-90119200D01*
X134213600Y-99466400D02*
X129743200Y-94996000D01*
%TO.N,A1*%
X139192000Y-95062600D02*
X142218175Y-92036425D01*
X142218175Y-92036425D02*
X142218175Y-91013170D01*
%TO.N,A0*%
X138017199Y-96157999D02*
X137464800Y-95605600D01*
X144119600Y-95758000D02*
X143719601Y-96157999D01*
X143719601Y-96157999D02*
X138017199Y-96157999D01*
X136296400Y-96774000D02*
X135280400Y-97790000D01*
X135280400Y-97790000D02*
X135077200Y-97790000D01*
%TO.N,BassOUT*%
X133400800Y-106527600D02*
X132588000Y-106527600D01*
X132588000Y-106527600D02*
X130403600Y-104343200D01*
%TO.N,Net-(C9-Pad2)*%
X155549600Y-101939800D02*
X151317400Y-106172000D01*
X151317400Y-106172000D02*
X145186400Y-106172000D01*
%TO.N,Net-(J5-Pad3)*%
X137023400Y-88696800D02*
X142290800Y-88696800D01*
X142290800Y-88696800D02*
X149555200Y-95961200D01*
%TO.N,Net-(R16-Pad1)*%
X158800800Y-98653600D02*
X155702000Y-98653600D01*
X155702000Y-98653600D02*
X155448000Y-98907600D01*
X147221590Y-106524410D02*
X145948400Y-107797600D01*
X155804178Y-101193600D02*
X156225801Y-101615223D01*
X151965768Y-106524410D02*
X147221590Y-106524410D01*
X154381200Y-101193600D02*
X155804178Y-101193600D01*
X156225801Y-102264377D02*
X151965768Y-106524410D01*
X156225801Y-101615223D02*
X156225801Y-102264377D01*
%TO.N,MasterA1*%
X148259800Y-91389200D02*
X148259800Y-93447310D01*
X148259800Y-93447310D02*
X148133155Y-93573955D01*
%TO.N,MasterA0*%
X140695054Y-95321746D02*
X141532246Y-94484554D01*
X141532246Y-94484554D02*
X141532246Y-93678646D01*
X139192000Y-93167200D02*
X139192000Y-89535000D01*
X139192000Y-89535000D02*
X139242800Y-89484200D01*
%TD*%
M02*
