%TF.GenerationSoftware,KiCad,Pcbnew,(6.0.2)*%
%TF.CreationDate,2022-04-01T15:45:15-05:00*%
%TF.ProjectId,bassDrum,62617373-4472-4756-9d2e-6b696361645f,rev?*%
%TF.SameCoordinates,Original*%
%TF.FileFunction,Legend,Top*%
%TF.FilePolarity,Positive*%
%FSLAX46Y46*%
G04 Gerber Fmt 4.6, Leading zero omitted, Abs format (unit mm)*
G04 Created by KiCad (PCBNEW (6.0.2)) date 2022-04-01 15:45:15*
%MOMM*%
%LPD*%
G01*
G04 APERTURE LIST*
%ADD10C,0.150000*%
%ADD11C,0.120000*%
G04 APERTURE END LIST*
D10*
X109601190Y-107402380D02*
X110172619Y-107402380D01*
X109886904Y-108402380D02*
X109886904Y-107402380D01*
X111077380Y-108402380D02*
X110744047Y-107926190D01*
X110505952Y-108402380D02*
X110505952Y-107402380D01*
X110886904Y-107402380D01*
X110982142Y-107450000D01*
X111029761Y-107497619D01*
X111077380Y-107592857D01*
X111077380Y-107735714D01*
X111029761Y-107830952D01*
X110982142Y-107878571D01*
X110886904Y-107926190D01*
X110505952Y-107926190D01*
X111505952Y-108402380D02*
X111505952Y-107402380D01*
X112505952Y-107450000D02*
X112410714Y-107402380D01*
X112267857Y-107402380D01*
X112125000Y-107450000D01*
X112029761Y-107545238D01*
X111982142Y-107640476D01*
X111934523Y-107830952D01*
X111934523Y-107973809D01*
X111982142Y-108164285D01*
X112029761Y-108259523D01*
X112125000Y-108354761D01*
X112267857Y-108402380D01*
X112363095Y-108402380D01*
X112505952Y-108354761D01*
X112553571Y-108307142D01*
X112553571Y-107973809D01*
X112363095Y-107973809D01*
X109910714Y-105814761D02*
X110053571Y-105862380D01*
X110291666Y-105862380D01*
X110386904Y-105814761D01*
X110434523Y-105767142D01*
X110482142Y-105671904D01*
X110482142Y-105576666D01*
X110434523Y-105481428D01*
X110386904Y-105433809D01*
X110291666Y-105386190D01*
X110101190Y-105338571D01*
X110005952Y-105290952D01*
X109958333Y-105243333D01*
X109910714Y-105148095D01*
X109910714Y-105052857D01*
X109958333Y-104957619D01*
X110005952Y-104910000D01*
X110101190Y-104862380D01*
X110339285Y-104862380D01*
X110482142Y-104910000D01*
X110910714Y-105862380D02*
X110910714Y-104862380D01*
X111148809Y-104862380D01*
X111291666Y-104910000D01*
X111386904Y-105005238D01*
X111434523Y-105100476D01*
X111482142Y-105290952D01*
X111482142Y-105433809D01*
X111434523Y-105624285D01*
X111386904Y-105719523D01*
X111291666Y-105814761D01*
X111148809Y-105862380D01*
X110910714Y-105862380D01*
X111863095Y-105576666D02*
X112339285Y-105576666D01*
X111767857Y-105862380D02*
X112101190Y-104862380D01*
X112434523Y-105862380D01*
X109934523Y-103274761D02*
X110077380Y-103322380D01*
X110315476Y-103322380D01*
X110410714Y-103274761D01*
X110458333Y-103227142D01*
X110505952Y-103131904D01*
X110505952Y-103036666D01*
X110458333Y-102941428D01*
X110410714Y-102893809D01*
X110315476Y-102846190D01*
X110125000Y-102798571D01*
X110029761Y-102750952D01*
X109982142Y-102703333D01*
X109934523Y-102608095D01*
X109934523Y-102512857D01*
X109982142Y-102417619D01*
X110029761Y-102370000D01*
X110125000Y-102322380D01*
X110363095Y-102322380D01*
X110505952Y-102370000D01*
X111505952Y-103227142D02*
X111458333Y-103274761D01*
X111315476Y-103322380D01*
X111220238Y-103322380D01*
X111077380Y-103274761D01*
X110982142Y-103179523D01*
X110934523Y-103084285D01*
X110886904Y-102893809D01*
X110886904Y-102750952D01*
X110934523Y-102560476D01*
X110982142Y-102465238D01*
X111077380Y-102370000D01*
X111220238Y-102322380D01*
X111315476Y-102322380D01*
X111458333Y-102370000D01*
X111505952Y-102417619D01*
X112410714Y-103322380D02*
X111934523Y-103322380D01*
X111934523Y-102322380D01*
X110029761Y-100782380D02*
X110029761Y-99782380D01*
X110267857Y-99782380D01*
X110410714Y-99830000D01*
X110505952Y-99925238D01*
X110553571Y-100020476D01*
X110601190Y-100210952D01*
X110601190Y-100353809D01*
X110553571Y-100544285D01*
X110505952Y-100639523D01*
X110410714Y-100734761D01*
X110267857Y-100782380D01*
X110029761Y-100782380D01*
X111029761Y-100258571D02*
X111363095Y-100258571D01*
X111505952Y-100782380D02*
X111029761Y-100782380D01*
X111029761Y-99782380D01*
X111505952Y-99782380D01*
X111791666Y-99782380D02*
X112363095Y-99782380D01*
X112077380Y-100782380D02*
X112077380Y-99782380D01*
X111569523Y-97242380D02*
X111093333Y-97242380D01*
X111045714Y-97718571D01*
X111093333Y-97670952D01*
X111188571Y-97623333D01*
X111426666Y-97623333D01*
X111521904Y-97670952D01*
X111569523Y-97718571D01*
X111617142Y-97813809D01*
X111617142Y-98051904D01*
X111569523Y-98147142D01*
X111521904Y-98194761D01*
X111426666Y-98242380D01*
X111188571Y-98242380D01*
X111093333Y-98194761D01*
X111045714Y-98147142D01*
X111902857Y-97242380D02*
X112236190Y-98242380D01*
X112569523Y-97242380D01*
X110363095Y-94750000D02*
X110267857Y-94702380D01*
X110125000Y-94702380D01*
X109982142Y-94750000D01*
X109886904Y-94845238D01*
X109839285Y-94940476D01*
X109791666Y-95130952D01*
X109791666Y-95273809D01*
X109839285Y-95464285D01*
X109886904Y-95559523D01*
X109982142Y-95654761D01*
X110125000Y-95702380D01*
X110220238Y-95702380D01*
X110363095Y-95654761D01*
X110410714Y-95607142D01*
X110410714Y-95273809D01*
X110220238Y-95273809D01*
X110839285Y-95702380D02*
X110839285Y-94702380D01*
X111410714Y-95702380D01*
X111410714Y-94702380D01*
X111886904Y-95702380D02*
X111886904Y-94702380D01*
X112125000Y-94702380D01*
X112267857Y-94750000D01*
X112363095Y-94845238D01*
X112410714Y-94940476D01*
X112458333Y-95130952D01*
X112458333Y-95273809D01*
X112410714Y-95464285D01*
X112363095Y-95559523D01*
X112267857Y-95654761D01*
X112125000Y-95702380D01*
X111886904Y-95702380D01*
X108728095Y-92781428D02*
X109490000Y-92781428D01*
X110490000Y-93162380D02*
X109918571Y-93162380D01*
X110204285Y-93162380D02*
X110204285Y-92162380D01*
X110109047Y-92305238D01*
X110013809Y-92400476D01*
X109918571Y-92448095D01*
X110870952Y-92257619D02*
X110918571Y-92210000D01*
X111013809Y-92162380D01*
X111251904Y-92162380D01*
X111347142Y-92210000D01*
X111394761Y-92257619D01*
X111442380Y-92352857D01*
X111442380Y-92448095D01*
X111394761Y-92590952D01*
X110823333Y-93162380D01*
X111442380Y-93162380D01*
X111728095Y-92162380D02*
X112061428Y-93162380D01*
X112394761Y-92162380D01*
X108728095Y-90241428D02*
X109490000Y-90241428D01*
X109109047Y-90622380D02*
X109109047Y-89860476D01*
X110490000Y-90622380D02*
X109918571Y-90622380D01*
X110204285Y-90622380D02*
X110204285Y-89622380D01*
X110109047Y-89765238D01*
X110013809Y-89860476D01*
X109918571Y-89908095D01*
X110870952Y-89717619D02*
X110918571Y-89670000D01*
X111013809Y-89622380D01*
X111251904Y-89622380D01*
X111347142Y-89670000D01*
X111394761Y-89717619D01*
X111442380Y-89812857D01*
X111442380Y-89908095D01*
X111394761Y-90050952D01*
X110823333Y-90622380D01*
X111442380Y-90622380D01*
X111728095Y-89622380D02*
X112061428Y-90622380D01*
X112394761Y-89622380D01*
X110363095Y-87130000D02*
X110267857Y-87082380D01*
X110125000Y-87082380D01*
X109982142Y-87130000D01*
X109886904Y-87225238D01*
X109839285Y-87320476D01*
X109791666Y-87510952D01*
X109791666Y-87653809D01*
X109839285Y-87844285D01*
X109886904Y-87939523D01*
X109982142Y-88034761D01*
X110125000Y-88082380D01*
X110220238Y-88082380D01*
X110363095Y-88034761D01*
X110410714Y-87987142D01*
X110410714Y-87653809D01*
X110220238Y-87653809D01*
X110839285Y-88082380D02*
X110839285Y-87082380D01*
X111410714Y-88082380D01*
X111410714Y-87082380D01*
X111886904Y-88082380D02*
X111886904Y-87082380D01*
X112125000Y-87082380D01*
X112267857Y-87130000D01*
X112363095Y-87225238D01*
X112410714Y-87320476D01*
X112458333Y-87510952D01*
X112458333Y-87653809D01*
X112410714Y-87844285D01*
X112363095Y-87939523D01*
X112267857Y-88034761D01*
X112125000Y-88082380D01*
X111886904Y-88082380D01*
X109744047Y-85256666D02*
X110220238Y-85256666D01*
X109648809Y-85542380D02*
X109982142Y-84542380D01*
X110315476Y-85542380D01*
X110410714Y-85637619D02*
X111172619Y-85637619D01*
X111410714Y-85542380D02*
X111410714Y-84542380D01*
X111886904Y-85542380D02*
X111886904Y-84542380D01*
X112458333Y-85542380D01*
X112458333Y-84542380D01*
X106926428Y-82716666D02*
X107402619Y-82716666D01*
X106831190Y-83002380D02*
X107164523Y-82002380D01*
X107497857Y-83002380D01*
X107593095Y-83097619D02*
X108355000Y-83097619D01*
X108783571Y-82002380D02*
X108974047Y-82002380D01*
X109069285Y-82050000D01*
X109164523Y-82145238D01*
X109212142Y-82335714D01*
X109212142Y-82669047D01*
X109164523Y-82859523D01*
X109069285Y-82954761D01*
X108974047Y-83002380D01*
X108783571Y-83002380D01*
X108688333Y-82954761D01*
X108593095Y-82859523D01*
X108545476Y-82669047D01*
X108545476Y-82335714D01*
X108593095Y-82145238D01*
X108688333Y-82050000D01*
X108783571Y-82002380D01*
X109640714Y-82002380D02*
X109640714Y-82811904D01*
X109688333Y-82907142D01*
X109735952Y-82954761D01*
X109831190Y-83002380D01*
X110021666Y-83002380D01*
X110116904Y-82954761D01*
X110164523Y-82907142D01*
X110212142Y-82811904D01*
X110212142Y-82002380D01*
X110545476Y-82002380D02*
X111116904Y-82002380D01*
X110831190Y-83002380D02*
X110831190Y-82002380D01*
X111212142Y-83097619D02*
X111974047Y-83097619D01*
X112783571Y-83002380D02*
X112450238Y-82526190D01*
X112212142Y-83002380D02*
X112212142Y-82002380D01*
X112593095Y-82002380D01*
X112688333Y-82050000D01*
X112735952Y-82097619D01*
X112783571Y-82192857D01*
X112783571Y-82335714D01*
X112735952Y-82430952D01*
X112688333Y-82478571D01*
X112593095Y-82526190D01*
X112212142Y-82526190D01*
X107021666Y-80176666D02*
X107497857Y-80176666D01*
X106926428Y-80462380D02*
X107259761Y-79462380D01*
X107593095Y-80462380D01*
X107688333Y-80557619D02*
X108450238Y-80557619D01*
X108878809Y-79462380D02*
X109069285Y-79462380D01*
X109164523Y-79510000D01*
X109259761Y-79605238D01*
X109307380Y-79795714D01*
X109307380Y-80129047D01*
X109259761Y-80319523D01*
X109164523Y-80414761D01*
X109069285Y-80462380D01*
X108878809Y-80462380D01*
X108783571Y-80414761D01*
X108688333Y-80319523D01*
X108640714Y-80129047D01*
X108640714Y-79795714D01*
X108688333Y-79605238D01*
X108783571Y-79510000D01*
X108878809Y-79462380D01*
X109735952Y-79462380D02*
X109735952Y-80271904D01*
X109783571Y-80367142D01*
X109831190Y-80414761D01*
X109926428Y-80462380D01*
X110116904Y-80462380D01*
X110212142Y-80414761D01*
X110259761Y-80367142D01*
X110307380Y-80271904D01*
X110307380Y-79462380D01*
X110640714Y-79462380D02*
X111212142Y-79462380D01*
X110926428Y-80462380D02*
X110926428Y-79462380D01*
X111307380Y-80557619D02*
X112069285Y-80557619D01*
X112783571Y-80462380D02*
X112307380Y-80462380D01*
X112307380Y-79462380D01*
%TO.C,U4*%
X144399095Y-96928380D02*
X144399095Y-97737904D01*
X144446714Y-97833142D01*
X144494333Y-97880761D01*
X144589571Y-97928380D01*
X144780047Y-97928380D01*
X144875285Y-97880761D01*
X144922904Y-97833142D01*
X144970523Y-97737904D01*
X144970523Y-96928380D01*
X145875285Y-97261714D02*
X145875285Y-97928380D01*
X145637190Y-96880761D02*
X145399095Y-97595047D01*
X146018142Y-97595047D01*
%TO.C,U3*%
X138430095Y-104165180D02*
X138430095Y-104974704D01*
X138477714Y-105069942D01*
X138525333Y-105117561D01*
X138620571Y-105165180D01*
X138811047Y-105165180D01*
X138906285Y-105117561D01*
X138953904Y-105069942D01*
X139001523Y-104974704D01*
X139001523Y-104165180D01*
X139382476Y-104165180D02*
X140001523Y-104165180D01*
X139668190Y-104546133D01*
X139811047Y-104546133D01*
X139906285Y-104593752D01*
X139953904Y-104641371D01*
X140001523Y-104736609D01*
X140001523Y-104974704D01*
X139953904Y-105069942D01*
X139906285Y-105117561D01*
X139811047Y-105165180D01*
X139525333Y-105165180D01*
X139430095Y-105117561D01*
X139382476Y-105069942D01*
%TO.C,U2*%
X136484095Y-96928380D02*
X136484095Y-97737904D01*
X136531714Y-97833142D01*
X136579333Y-97880761D01*
X136674571Y-97928380D01*
X136865047Y-97928380D01*
X136960285Y-97880761D01*
X137007904Y-97833142D01*
X137055523Y-97737904D01*
X137055523Y-96928380D01*
X137484095Y-97023619D02*
X137531714Y-96976000D01*
X137626952Y-96928380D01*
X137865047Y-96928380D01*
X137960285Y-96976000D01*
X138007904Y-97023619D01*
X138055523Y-97118857D01*
X138055523Y-97214095D01*
X138007904Y-97356952D01*
X137436476Y-97928380D01*
X138055523Y-97928380D01*
%TO.C,U1*%
X125476095Y-104190580D02*
X125476095Y-105000104D01*
X125523714Y-105095342D01*
X125571333Y-105142961D01*
X125666571Y-105190580D01*
X125857047Y-105190580D01*
X125952285Y-105142961D01*
X125999904Y-105095342D01*
X126047523Y-105000104D01*
X126047523Y-104190580D01*
X127047523Y-105190580D02*
X126476095Y-105190580D01*
X126761809Y-105190580D02*
X126761809Y-104190580D01*
X126666571Y-104333438D01*
X126571333Y-104428676D01*
X126476095Y-104476295D01*
%TO.C,SW2*%
X149564761Y-84391333D02*
X149612380Y-84248476D01*
X149612380Y-84010380D01*
X149564761Y-83915142D01*
X149517142Y-83867523D01*
X149421904Y-83819904D01*
X149326666Y-83819904D01*
X149231428Y-83867523D01*
X149183809Y-83915142D01*
X149136190Y-84010380D01*
X149088571Y-84200857D01*
X149040952Y-84296095D01*
X148993333Y-84343714D01*
X148898095Y-84391333D01*
X148802857Y-84391333D01*
X148707619Y-84343714D01*
X148660000Y-84296095D01*
X148612380Y-84200857D01*
X148612380Y-83962761D01*
X148660000Y-83819904D01*
X148612380Y-83486571D02*
X149612380Y-83248476D01*
X148898095Y-83058000D01*
X149612380Y-82867523D01*
X148612380Y-82629428D01*
X148707619Y-82296095D02*
X148660000Y-82248476D01*
X148612380Y-82153238D01*
X148612380Y-81915142D01*
X148660000Y-81819904D01*
X148707619Y-81772285D01*
X148802857Y-81724666D01*
X148898095Y-81724666D01*
X149040952Y-81772285D01*
X149612380Y-82343714D01*
X149612380Y-81724666D01*
%TO.C,R20*%
X141041380Y-95052357D02*
X140565190Y-95385690D01*
X141041380Y-95623785D02*
X140041380Y-95623785D01*
X140041380Y-95242833D01*
X140089000Y-95147595D01*
X140136619Y-95099976D01*
X140231857Y-95052357D01*
X140374714Y-95052357D01*
X140469952Y-95099976D01*
X140517571Y-95147595D01*
X140565190Y-95242833D01*
X140565190Y-95623785D01*
X140136619Y-94671404D02*
X140089000Y-94623785D01*
X140041380Y-94528547D01*
X140041380Y-94290452D01*
X140089000Y-94195214D01*
X140136619Y-94147595D01*
X140231857Y-94099976D01*
X140327095Y-94099976D01*
X140469952Y-94147595D01*
X141041380Y-94719023D01*
X141041380Y-94099976D01*
X140041380Y-93480928D02*
X140041380Y-93385690D01*
X140089000Y-93290452D01*
X140136619Y-93242833D01*
X140231857Y-93195214D01*
X140422333Y-93147595D01*
X140660428Y-93147595D01*
X140850904Y-93195214D01*
X140946142Y-93242833D01*
X140993761Y-93290452D01*
X141041380Y-93385690D01*
X141041380Y-93480928D01*
X140993761Y-93576166D01*
X140946142Y-93623785D01*
X140850904Y-93671404D01*
X140660428Y-93719023D01*
X140422333Y-93719023D01*
X140231857Y-93671404D01*
X140136619Y-93623785D01*
X140089000Y-93576166D01*
X140041380Y-93480928D01*
%TO.C,R19*%
X138247380Y-95130857D02*
X137771190Y-95464190D01*
X138247380Y-95702285D02*
X137247380Y-95702285D01*
X137247380Y-95321333D01*
X137295000Y-95226095D01*
X137342619Y-95178476D01*
X137437857Y-95130857D01*
X137580714Y-95130857D01*
X137675952Y-95178476D01*
X137723571Y-95226095D01*
X137771190Y-95321333D01*
X137771190Y-95702285D01*
X138247380Y-94178476D02*
X138247380Y-94749904D01*
X138247380Y-94464190D02*
X137247380Y-94464190D01*
X137390238Y-94559428D01*
X137485476Y-94654666D01*
X137533095Y-94749904D01*
X138247380Y-93702285D02*
X138247380Y-93511809D01*
X138199761Y-93416571D01*
X138152142Y-93368952D01*
X138009285Y-93273714D01*
X137818809Y-93226095D01*
X137437857Y-93226095D01*
X137342619Y-93273714D01*
X137295000Y-93321333D01*
X137247380Y-93416571D01*
X137247380Y-93607047D01*
X137295000Y-93702285D01*
X137342619Y-93749904D01*
X137437857Y-93797523D01*
X137675952Y-93797523D01*
X137771190Y-93749904D01*
X137818809Y-93702285D01*
X137866428Y-93607047D01*
X137866428Y-93416571D01*
X137818809Y-93321333D01*
X137771190Y-93273714D01*
X137675952Y-93226095D01*
%TO.C,R17*%
X150136142Y-100528380D02*
X149802809Y-100052190D01*
X149564714Y-100528380D02*
X149564714Y-99528380D01*
X149945666Y-99528380D01*
X150040904Y-99576000D01*
X150088523Y-99623619D01*
X150136142Y-99718857D01*
X150136142Y-99861714D01*
X150088523Y-99956952D01*
X150040904Y-100004571D01*
X149945666Y-100052190D01*
X149564714Y-100052190D01*
X151088523Y-100528380D02*
X150517095Y-100528380D01*
X150802809Y-100528380D02*
X150802809Y-99528380D01*
X150707571Y-99671238D01*
X150612333Y-99766476D01*
X150517095Y-99814095D01*
X151421857Y-99528380D02*
X152088523Y-99528380D01*
X151659952Y-100528380D01*
%TO.C,R16*%
X160949642Y-97861380D02*
X160616309Y-97385190D01*
X160378214Y-97861380D02*
X160378214Y-96861380D01*
X160759166Y-96861380D01*
X160854404Y-96909000D01*
X160902023Y-96956619D01*
X160949642Y-97051857D01*
X160949642Y-97194714D01*
X160902023Y-97289952D01*
X160854404Y-97337571D01*
X160759166Y-97385190D01*
X160378214Y-97385190D01*
X161902023Y-97861380D02*
X161330595Y-97861380D01*
X161616309Y-97861380D02*
X161616309Y-96861380D01*
X161521071Y-97004238D01*
X161425833Y-97099476D01*
X161330595Y-97147095D01*
X162759166Y-96861380D02*
X162568690Y-96861380D01*
X162473452Y-96909000D01*
X162425833Y-96956619D01*
X162330595Y-97099476D01*
X162282976Y-97289952D01*
X162282976Y-97670904D01*
X162330595Y-97766142D01*
X162378214Y-97813761D01*
X162473452Y-97861380D01*
X162663928Y-97861380D01*
X162759166Y-97813761D01*
X162806785Y-97766142D01*
X162854404Y-97670904D01*
X162854404Y-97432809D01*
X162806785Y-97337571D01*
X162759166Y-97289952D01*
X162663928Y-97242333D01*
X162473452Y-97242333D01*
X162378214Y-97289952D01*
X162330595Y-97337571D01*
X162282976Y-97432809D01*
%TO.C,R15*%
X161028142Y-102941380D02*
X160694809Y-102465190D01*
X160456714Y-102941380D02*
X160456714Y-101941380D01*
X160837666Y-101941380D01*
X160932904Y-101989000D01*
X160980523Y-102036619D01*
X161028142Y-102131857D01*
X161028142Y-102274714D01*
X160980523Y-102369952D01*
X160932904Y-102417571D01*
X160837666Y-102465190D01*
X160456714Y-102465190D01*
X161980523Y-102941380D02*
X161409095Y-102941380D01*
X161694809Y-102941380D02*
X161694809Y-101941380D01*
X161599571Y-102084238D01*
X161504333Y-102179476D01*
X161409095Y-102227095D01*
X162885285Y-101941380D02*
X162409095Y-101941380D01*
X162361476Y-102417571D01*
X162409095Y-102369952D01*
X162504333Y-102322333D01*
X162742428Y-102322333D01*
X162837666Y-102369952D01*
X162885285Y-102417571D01*
X162932904Y-102512809D01*
X162932904Y-102750904D01*
X162885285Y-102846142D01*
X162837666Y-102893761D01*
X162742428Y-102941380D01*
X162504333Y-102941380D01*
X162409095Y-102893761D01*
X162361476Y-102846142D01*
%TO.C,R14*%
X146375380Y-95052357D02*
X145899190Y-95385690D01*
X146375380Y-95623785D02*
X145375380Y-95623785D01*
X145375380Y-95242833D01*
X145423000Y-95147595D01*
X145470619Y-95099976D01*
X145565857Y-95052357D01*
X145708714Y-95052357D01*
X145803952Y-95099976D01*
X145851571Y-95147595D01*
X145899190Y-95242833D01*
X145899190Y-95623785D01*
X146375380Y-94099976D02*
X146375380Y-94671404D01*
X146375380Y-94385690D02*
X145375380Y-94385690D01*
X145518238Y-94480928D01*
X145613476Y-94576166D01*
X145661095Y-94671404D01*
X145708714Y-93242833D02*
X146375380Y-93242833D01*
X145327761Y-93480928D02*
X146042047Y-93719023D01*
X146042047Y-93099976D01*
%TO.C,R13*%
X143581380Y-94973857D02*
X143105190Y-95307190D01*
X143581380Y-95545285D02*
X142581380Y-95545285D01*
X142581380Y-95164333D01*
X142629000Y-95069095D01*
X142676619Y-95021476D01*
X142771857Y-94973857D01*
X142914714Y-94973857D01*
X143009952Y-95021476D01*
X143057571Y-95069095D01*
X143105190Y-95164333D01*
X143105190Y-95545285D01*
X143581380Y-94021476D02*
X143581380Y-94592904D01*
X143581380Y-94307190D02*
X142581380Y-94307190D01*
X142724238Y-94402428D01*
X142819476Y-94497666D01*
X142867095Y-94592904D01*
X142581380Y-93688142D02*
X142581380Y-93069095D01*
X142962333Y-93402428D01*
X142962333Y-93259571D01*
X143009952Y-93164333D01*
X143057571Y-93116714D01*
X143152809Y-93069095D01*
X143390904Y-93069095D01*
X143486142Y-93116714D01*
X143533761Y-93164333D01*
X143581380Y-93259571D01*
X143581380Y-93545285D01*
X143533761Y-93640523D01*
X143486142Y-93688142D01*
%TO.C,R11*%
X130294142Y-99385380D02*
X129960809Y-98909190D01*
X129722714Y-99385380D02*
X129722714Y-98385380D01*
X130103666Y-98385380D01*
X130198904Y-98433000D01*
X130246523Y-98480619D01*
X130294142Y-98575857D01*
X130294142Y-98718714D01*
X130246523Y-98813952D01*
X130198904Y-98861571D01*
X130103666Y-98909190D01*
X129722714Y-98909190D01*
X131246523Y-99385380D02*
X130675095Y-99385380D01*
X130960809Y-99385380D02*
X130960809Y-98385380D01*
X130865571Y-98528238D01*
X130770333Y-98623476D01*
X130675095Y-98671095D01*
X132198904Y-99385380D02*
X131627476Y-99385380D01*
X131913190Y-99385380D02*
X131913190Y-98385380D01*
X131817952Y-98528238D01*
X131722714Y-98623476D01*
X131627476Y-98671095D01*
%TO.C,R10*%
X130324142Y-89098380D02*
X129990809Y-88622190D01*
X129752714Y-89098380D02*
X129752714Y-88098380D01*
X130133666Y-88098380D01*
X130228904Y-88146000D01*
X130276523Y-88193619D01*
X130324142Y-88288857D01*
X130324142Y-88431714D01*
X130276523Y-88526952D01*
X130228904Y-88574571D01*
X130133666Y-88622190D01*
X129752714Y-88622190D01*
X131276523Y-89098380D02*
X130705095Y-89098380D01*
X130990809Y-89098380D02*
X130990809Y-88098380D01*
X130895571Y-88241238D01*
X130800333Y-88336476D01*
X130705095Y-88384095D01*
X131895571Y-88098380D02*
X131990809Y-88098380D01*
X132086047Y-88146000D01*
X132133666Y-88193619D01*
X132181285Y-88288857D01*
X132228904Y-88479333D01*
X132228904Y-88717428D01*
X132181285Y-88907904D01*
X132133666Y-89003142D01*
X132086047Y-89050761D01*
X131990809Y-89098380D01*
X131895571Y-89098380D01*
X131800333Y-89050761D01*
X131752714Y-89003142D01*
X131705095Y-88907904D01*
X131657476Y-88717428D01*
X131657476Y-88479333D01*
X131705095Y-88288857D01*
X131752714Y-88193619D01*
X131800333Y-88146000D01*
X131895571Y-88098380D01*
%TO.C,R9*%
X120531833Y-89225380D02*
X120198500Y-88749190D01*
X119960404Y-89225380D02*
X119960404Y-88225380D01*
X120341357Y-88225380D01*
X120436595Y-88273000D01*
X120484214Y-88320619D01*
X120531833Y-88415857D01*
X120531833Y-88558714D01*
X120484214Y-88653952D01*
X120436595Y-88701571D01*
X120341357Y-88749190D01*
X119960404Y-88749190D01*
X121008023Y-89225380D02*
X121198500Y-89225380D01*
X121293738Y-89177761D01*
X121341357Y-89130142D01*
X121436595Y-88987285D01*
X121484214Y-88796809D01*
X121484214Y-88415857D01*
X121436595Y-88320619D01*
X121388976Y-88273000D01*
X121293738Y-88225380D01*
X121103261Y-88225380D01*
X121008023Y-88273000D01*
X120960404Y-88320619D01*
X120912785Y-88415857D01*
X120912785Y-88653952D01*
X120960404Y-88749190D01*
X121008023Y-88796809D01*
X121103261Y-88844428D01*
X121293738Y-88844428D01*
X121388976Y-88796809D01*
X121436595Y-88749190D01*
X121484214Y-88653952D01*
%TO.C,R8*%
X130292333Y-94432380D02*
X129959000Y-93956190D01*
X129720904Y-94432380D02*
X129720904Y-93432380D01*
X130101857Y-93432380D01*
X130197095Y-93480000D01*
X130244714Y-93527619D01*
X130292333Y-93622857D01*
X130292333Y-93765714D01*
X130244714Y-93860952D01*
X130197095Y-93908571D01*
X130101857Y-93956190D01*
X129720904Y-93956190D01*
X130863761Y-93860952D02*
X130768523Y-93813333D01*
X130720904Y-93765714D01*
X130673285Y-93670476D01*
X130673285Y-93622857D01*
X130720904Y-93527619D01*
X130768523Y-93480000D01*
X130863761Y-93432380D01*
X131054238Y-93432380D01*
X131149476Y-93480000D01*
X131197095Y-93527619D01*
X131244714Y-93622857D01*
X131244714Y-93670476D01*
X131197095Y-93765714D01*
X131149476Y-93813333D01*
X131054238Y-93860952D01*
X130863761Y-93860952D01*
X130768523Y-93908571D01*
X130720904Y-93956190D01*
X130673285Y-94051428D01*
X130673285Y-94241904D01*
X130720904Y-94337142D01*
X130768523Y-94384761D01*
X130863761Y-94432380D01*
X131054238Y-94432380D01*
X131149476Y-94384761D01*
X131197095Y-94337142D01*
X131244714Y-94241904D01*
X131244714Y-94051428D01*
X131197095Y-93956190D01*
X131149476Y-93908571D01*
X131054238Y-93860952D01*
%TO.C,R7*%
X130389333Y-96972380D02*
X130056000Y-96496190D01*
X129817904Y-96972380D02*
X129817904Y-95972380D01*
X130198857Y-95972380D01*
X130294095Y-96020000D01*
X130341714Y-96067619D01*
X130389333Y-96162857D01*
X130389333Y-96305714D01*
X130341714Y-96400952D01*
X130294095Y-96448571D01*
X130198857Y-96496190D01*
X129817904Y-96496190D01*
X130722666Y-95972380D02*
X131389333Y-95972380D01*
X130960761Y-96972380D01*
%TO.C,R6*%
X120531833Y-96972380D02*
X120198500Y-96496190D01*
X119960404Y-96972380D02*
X119960404Y-95972380D01*
X120341357Y-95972380D01*
X120436595Y-96020000D01*
X120484214Y-96067619D01*
X120531833Y-96162857D01*
X120531833Y-96305714D01*
X120484214Y-96400952D01*
X120436595Y-96448571D01*
X120341357Y-96496190D01*
X119960404Y-96496190D01*
X121388976Y-95972380D02*
X121198500Y-95972380D01*
X121103261Y-96020000D01*
X121055642Y-96067619D01*
X120960404Y-96210476D01*
X120912785Y-96400952D01*
X120912785Y-96781904D01*
X120960404Y-96877142D01*
X121008023Y-96924761D01*
X121103261Y-96972380D01*
X121293738Y-96972380D01*
X121388976Y-96924761D01*
X121436595Y-96877142D01*
X121484214Y-96781904D01*
X121484214Y-96543809D01*
X121436595Y-96448571D01*
X121388976Y-96400952D01*
X121293738Y-96353333D01*
X121103261Y-96353333D01*
X121008023Y-96400952D01*
X120960404Y-96448571D01*
X120912785Y-96543809D01*
%TO.C,R5*%
X161171833Y-93035380D02*
X160838500Y-92559190D01*
X160600404Y-93035380D02*
X160600404Y-92035380D01*
X160981357Y-92035380D01*
X161076595Y-92083000D01*
X161124214Y-92130619D01*
X161171833Y-92225857D01*
X161171833Y-92368714D01*
X161124214Y-92463952D01*
X161076595Y-92511571D01*
X160981357Y-92559190D01*
X160600404Y-92559190D01*
X162076595Y-92035380D02*
X161600404Y-92035380D01*
X161552785Y-92511571D01*
X161600404Y-92463952D01*
X161695642Y-92416333D01*
X161933738Y-92416333D01*
X162028976Y-92463952D01*
X162076595Y-92511571D01*
X162124214Y-92606809D01*
X162124214Y-92844904D01*
X162076595Y-92940142D01*
X162028976Y-92987761D01*
X161933738Y-93035380D01*
X161695642Y-93035380D01*
X161600404Y-92987761D01*
X161552785Y-92940142D01*
%TO.C,R4*%
X150963333Y-90622380D02*
X150630000Y-90146190D01*
X150391904Y-90622380D02*
X150391904Y-89622380D01*
X150772857Y-89622380D01*
X150868095Y-89670000D01*
X150915714Y-89717619D01*
X150963333Y-89812857D01*
X150963333Y-89955714D01*
X150915714Y-90050952D01*
X150868095Y-90098571D01*
X150772857Y-90146190D01*
X150391904Y-90146190D01*
X151820476Y-89955714D02*
X151820476Y-90622380D01*
X151582380Y-89574761D02*
X151344285Y-90289047D01*
X151963333Y-90289047D01*
%TO.C,R3*%
X160996333Y-88336380D02*
X160663000Y-87860190D01*
X160424904Y-88336380D02*
X160424904Y-87336380D01*
X160805857Y-87336380D01*
X160901095Y-87384000D01*
X160948714Y-87431619D01*
X160996333Y-87526857D01*
X160996333Y-87669714D01*
X160948714Y-87764952D01*
X160901095Y-87812571D01*
X160805857Y-87860190D01*
X160424904Y-87860190D01*
X161329666Y-87336380D02*
X161948714Y-87336380D01*
X161615380Y-87717333D01*
X161758238Y-87717333D01*
X161853476Y-87764952D01*
X161901095Y-87812571D01*
X161948714Y-87907809D01*
X161948714Y-88145904D01*
X161901095Y-88241142D01*
X161853476Y-88288761D01*
X161758238Y-88336380D01*
X161472523Y-88336380D01*
X161377285Y-88288761D01*
X161329666Y-88241142D01*
%TO.C,R2*%
X161074833Y-90622380D02*
X160741500Y-90146190D01*
X160503404Y-90622380D02*
X160503404Y-89622380D01*
X160884357Y-89622380D01*
X160979595Y-89670000D01*
X161027214Y-89717619D01*
X161074833Y-89812857D01*
X161074833Y-89955714D01*
X161027214Y-90050952D01*
X160979595Y-90098571D01*
X160884357Y-90146190D01*
X160503404Y-90146190D01*
X161455785Y-89717619D02*
X161503404Y-89670000D01*
X161598642Y-89622380D01*
X161836738Y-89622380D01*
X161931976Y-89670000D01*
X161979595Y-89717619D01*
X162027214Y-89812857D01*
X162027214Y-89908095D01*
X161979595Y-90050952D01*
X161408166Y-90622380D01*
X162027214Y-90622380D01*
%TO.C,R1*%
X150963333Y-88336380D02*
X150630000Y-87860190D01*
X150391904Y-88336380D02*
X150391904Y-87336380D01*
X150772857Y-87336380D01*
X150868095Y-87384000D01*
X150915714Y-87431619D01*
X150963333Y-87526857D01*
X150963333Y-87669714D01*
X150915714Y-87764952D01*
X150868095Y-87812571D01*
X150772857Y-87860190D01*
X150391904Y-87860190D01*
X151915714Y-88336380D02*
X151344285Y-88336380D01*
X151630000Y-88336380D02*
X151630000Y-87336380D01*
X151534761Y-87479238D01*
X151439523Y-87574476D01*
X151344285Y-87622095D01*
%TO.C,Q2*%
X159911219Y-109264438D02*
X159863600Y-109359676D01*
X159768361Y-109454914D01*
X159625504Y-109597771D01*
X159577885Y-109693009D01*
X159577885Y-109788247D01*
X159815980Y-109740628D02*
X159768361Y-109835866D01*
X159673123Y-109931104D01*
X159482647Y-109978723D01*
X159149314Y-109978723D01*
X158958838Y-109931104D01*
X158863600Y-109835866D01*
X158815980Y-109740628D01*
X158815980Y-109550152D01*
X158863600Y-109454914D01*
X158958838Y-109359676D01*
X159149314Y-109312057D01*
X159482647Y-109312057D01*
X159673123Y-109359676D01*
X159768361Y-109454914D01*
X159815980Y-109550152D01*
X159815980Y-109740628D01*
X158911219Y-108931104D02*
X158863600Y-108883485D01*
X158815980Y-108788247D01*
X158815980Y-108550152D01*
X158863600Y-108454914D01*
X158911219Y-108407295D01*
X159006457Y-108359676D01*
X159101695Y-108359676D01*
X159244552Y-108407295D01*
X159815980Y-108978723D01*
X159815980Y-108359676D01*
%TO.C,Q1*%
X152926219Y-109264438D02*
X152878600Y-109359676D01*
X152783361Y-109454914D01*
X152640504Y-109597771D01*
X152592885Y-109693009D01*
X152592885Y-109788247D01*
X152830980Y-109740628D02*
X152783361Y-109835866D01*
X152688123Y-109931104D01*
X152497647Y-109978723D01*
X152164314Y-109978723D01*
X151973838Y-109931104D01*
X151878600Y-109835866D01*
X151830980Y-109740628D01*
X151830980Y-109550152D01*
X151878600Y-109454914D01*
X151973838Y-109359676D01*
X152164314Y-109312057D01*
X152497647Y-109312057D01*
X152688123Y-109359676D01*
X152783361Y-109454914D01*
X152830980Y-109550152D01*
X152830980Y-109740628D01*
X152830980Y-108359676D02*
X152830980Y-108931104D01*
X152830980Y-108645390D02*
X151830980Y-108645390D01*
X151973838Y-108740628D01*
X152069076Y-108835866D01*
X152116695Y-108931104D01*
%TO.C,J5*%
X132356266Y-77132380D02*
X132356266Y-77846666D01*
X132308647Y-77989523D01*
X132213409Y-78084761D01*
X132070552Y-78132380D01*
X131975314Y-78132380D01*
X133308647Y-77132380D02*
X132832457Y-77132380D01*
X132784838Y-77608571D01*
X132832457Y-77560952D01*
X132927695Y-77513333D01*
X133165790Y-77513333D01*
X133261028Y-77560952D01*
X133308647Y-77608571D01*
X133356266Y-77703809D01*
X133356266Y-77941904D01*
X133308647Y-78037142D01*
X133261028Y-78084761D01*
X133165790Y-78132380D01*
X132927695Y-78132380D01*
X132832457Y-78084761D01*
X132784838Y-78037142D01*
%TO.C,J3*%
X127022266Y-77132380D02*
X127022266Y-77846666D01*
X126974647Y-77989523D01*
X126879409Y-78084761D01*
X126736552Y-78132380D01*
X126641314Y-78132380D01*
X127403219Y-77132380D02*
X128022266Y-77132380D01*
X127688933Y-77513333D01*
X127831790Y-77513333D01*
X127927028Y-77560952D01*
X127974647Y-77608571D01*
X128022266Y-77703809D01*
X128022266Y-77941904D01*
X127974647Y-78037142D01*
X127927028Y-78084761D01*
X127831790Y-78132380D01*
X127546076Y-78132380D01*
X127450838Y-78084761D01*
X127403219Y-78037142D01*
%TO.C,J2*%
X122094666Y-77132380D02*
X122094666Y-77846666D01*
X122047047Y-77989523D01*
X121951809Y-78084761D01*
X121808952Y-78132380D01*
X121713714Y-78132380D01*
X122523238Y-77227619D02*
X122570857Y-77180000D01*
X122666095Y-77132380D01*
X122904190Y-77132380D01*
X122999428Y-77180000D01*
X123047047Y-77227619D01*
X123094666Y-77322857D01*
X123094666Y-77418095D01*
X123047047Y-77560952D01*
X122475619Y-78132380D01*
X123094666Y-78132380D01*
%TO.C,J1*%
X115831066Y-77213580D02*
X115831066Y-77927866D01*
X115783447Y-78070723D01*
X115688209Y-78165961D01*
X115545352Y-78213580D01*
X115450114Y-78213580D01*
X116831066Y-78213580D02*
X116259638Y-78213580D01*
X116545352Y-78213580D02*
X116545352Y-77213580D01*
X116450114Y-77356438D01*
X116354876Y-77451676D01*
X116259638Y-77499295D01*
%TO.C,D1*%
X154963904Y-78074780D02*
X154963904Y-77074780D01*
X155202000Y-77074780D01*
X155344857Y-77122400D01*
X155440095Y-77217638D01*
X155487714Y-77312876D01*
X155535333Y-77503352D01*
X155535333Y-77646209D01*
X155487714Y-77836685D01*
X155440095Y-77931923D01*
X155344857Y-78027161D01*
X155202000Y-78074780D01*
X154963904Y-78074780D01*
X156487714Y-78074780D02*
X155916285Y-78074780D01*
X156202000Y-78074780D02*
X156202000Y-77074780D01*
X156106761Y-77217638D01*
X156011523Y-77312876D01*
X155916285Y-77360495D01*
X151122095Y-78023980D02*
X151122095Y-77023980D01*
X151693523Y-78023980D02*
X151264952Y-77452552D01*
X151693523Y-77023980D02*
X151122095Y-77595409D01*
%TO.C,C12*%
X149979142Y-95353142D02*
X149931523Y-95400761D01*
X149788666Y-95448380D01*
X149693428Y-95448380D01*
X149550571Y-95400761D01*
X149455333Y-95305523D01*
X149407714Y-95210285D01*
X149360095Y-95019809D01*
X149360095Y-94876952D01*
X149407714Y-94686476D01*
X149455333Y-94591238D01*
X149550571Y-94496000D01*
X149693428Y-94448380D01*
X149788666Y-94448380D01*
X149931523Y-94496000D01*
X149979142Y-94543619D01*
X150931523Y-95448380D02*
X150360095Y-95448380D01*
X150645809Y-95448380D02*
X150645809Y-94448380D01*
X150550571Y-94591238D01*
X150455333Y-94686476D01*
X150360095Y-94734095D01*
X151312476Y-94543619D02*
X151360095Y-94496000D01*
X151455333Y-94448380D01*
X151693428Y-94448380D01*
X151788666Y-94496000D01*
X151836285Y-94543619D01*
X151883904Y-94638857D01*
X151883904Y-94734095D01*
X151836285Y-94876952D01*
X151264857Y-95448380D01*
X151883904Y-95448380D01*
%TO.C,C11*%
X160852642Y-85955142D02*
X160805023Y-86002761D01*
X160662166Y-86050380D01*
X160566928Y-86050380D01*
X160424071Y-86002761D01*
X160328833Y-85907523D01*
X160281214Y-85812285D01*
X160233595Y-85621809D01*
X160233595Y-85478952D01*
X160281214Y-85288476D01*
X160328833Y-85193238D01*
X160424071Y-85098000D01*
X160566928Y-85050380D01*
X160662166Y-85050380D01*
X160805023Y-85098000D01*
X160852642Y-85145619D01*
X161805023Y-86050380D02*
X161233595Y-86050380D01*
X161519309Y-86050380D02*
X161519309Y-85050380D01*
X161424071Y-85193238D01*
X161328833Y-85288476D01*
X161233595Y-85336095D01*
X162757404Y-86050380D02*
X162185976Y-86050380D01*
X162471690Y-86050380D02*
X162471690Y-85050380D01*
X162376452Y-85193238D01*
X162281214Y-85288476D01*
X162185976Y-85336095D01*
%TO.C,C9*%
X161044833Y-100433142D02*
X160997214Y-100480761D01*
X160854357Y-100528380D01*
X160759119Y-100528380D01*
X160616261Y-100480761D01*
X160521023Y-100385523D01*
X160473404Y-100290285D01*
X160425785Y-100099809D01*
X160425785Y-99956952D01*
X160473404Y-99766476D01*
X160521023Y-99671238D01*
X160616261Y-99576000D01*
X160759119Y-99528380D01*
X160854357Y-99528380D01*
X160997214Y-99576000D01*
X161044833Y-99623619D01*
X161521023Y-100528380D02*
X161711500Y-100528380D01*
X161806738Y-100480761D01*
X161854357Y-100433142D01*
X161949595Y-100290285D01*
X161997214Y-100099809D01*
X161997214Y-99718857D01*
X161949595Y-99623619D01*
X161901976Y-99576000D01*
X161806738Y-99528380D01*
X161616261Y-99528380D01*
X161521023Y-99576000D01*
X161473404Y-99623619D01*
X161425785Y-99718857D01*
X161425785Y-99956952D01*
X161473404Y-100052190D01*
X161521023Y-100099809D01*
X161616261Y-100147428D01*
X161806738Y-100147428D01*
X161901976Y-100099809D01*
X161949595Y-100052190D01*
X161997214Y-99956952D01*
%TO.C,C8*%
X150866333Y-92940142D02*
X150818714Y-92987761D01*
X150675857Y-93035380D01*
X150580619Y-93035380D01*
X150437761Y-92987761D01*
X150342523Y-92892523D01*
X150294904Y-92797285D01*
X150247285Y-92606809D01*
X150247285Y-92463952D01*
X150294904Y-92273476D01*
X150342523Y-92178238D01*
X150437761Y-92083000D01*
X150580619Y-92035380D01*
X150675857Y-92035380D01*
X150818714Y-92083000D01*
X150866333Y-92130619D01*
X151437761Y-92463952D02*
X151342523Y-92416333D01*
X151294904Y-92368714D01*
X151247285Y-92273476D01*
X151247285Y-92225857D01*
X151294904Y-92130619D01*
X151342523Y-92083000D01*
X151437761Y-92035380D01*
X151628238Y-92035380D01*
X151723476Y-92083000D01*
X151771095Y-92130619D01*
X151818714Y-92225857D01*
X151818714Y-92273476D01*
X151771095Y-92368714D01*
X151723476Y-92416333D01*
X151628238Y-92463952D01*
X151437761Y-92463952D01*
X151342523Y-92511571D01*
X151294904Y-92559190D01*
X151247285Y-92654428D01*
X151247285Y-92844904D01*
X151294904Y-92940142D01*
X151342523Y-92987761D01*
X151437761Y-93035380D01*
X151628238Y-93035380D01*
X151723476Y-92987761D01*
X151771095Y-92940142D01*
X151818714Y-92844904D01*
X151818714Y-92654428D01*
X151771095Y-92559190D01*
X151723476Y-92511571D01*
X151628238Y-92463952D01*
%TO.C,C7*%
X150963333Y-97766142D02*
X150915714Y-97813761D01*
X150772857Y-97861380D01*
X150677619Y-97861380D01*
X150534761Y-97813761D01*
X150439523Y-97718523D01*
X150391904Y-97623285D01*
X150344285Y-97432809D01*
X150344285Y-97289952D01*
X150391904Y-97099476D01*
X150439523Y-97004238D01*
X150534761Y-96909000D01*
X150677619Y-96861380D01*
X150772857Y-96861380D01*
X150915714Y-96909000D01*
X150963333Y-96956619D01*
X151296666Y-96861380D02*
X151963333Y-96861380D01*
X151534761Y-97861380D01*
%TO.C,C6*%
X120356333Y-99417142D02*
X120308714Y-99464761D01*
X120165857Y-99512380D01*
X120070619Y-99512380D01*
X119927761Y-99464761D01*
X119832523Y-99369523D01*
X119784904Y-99274285D01*
X119737285Y-99083809D01*
X119737285Y-98940952D01*
X119784904Y-98750476D01*
X119832523Y-98655238D01*
X119927761Y-98560000D01*
X120070619Y-98512380D01*
X120165857Y-98512380D01*
X120308714Y-98560000D01*
X120356333Y-98607619D01*
X121213476Y-98512380D02*
X121023000Y-98512380D01*
X120927761Y-98560000D01*
X120880142Y-98607619D01*
X120784904Y-98750476D01*
X120737285Y-98940952D01*
X120737285Y-99321904D01*
X120784904Y-99417142D01*
X120832523Y-99464761D01*
X120927761Y-99512380D01*
X121118238Y-99512380D01*
X121213476Y-99464761D01*
X121261095Y-99417142D01*
X121308714Y-99321904D01*
X121308714Y-99083809D01*
X121261095Y-98988571D01*
X121213476Y-98940952D01*
X121118238Y-98893333D01*
X120927761Y-98893333D01*
X120832523Y-98940952D01*
X120784904Y-98988571D01*
X120737285Y-99083809D01*
%TO.C,C5*%
X130389333Y-91797142D02*
X130341714Y-91844761D01*
X130198857Y-91892380D01*
X130103619Y-91892380D01*
X129960761Y-91844761D01*
X129865523Y-91749523D01*
X129817904Y-91654285D01*
X129770285Y-91463809D01*
X129770285Y-91320952D01*
X129817904Y-91130476D01*
X129865523Y-91035238D01*
X129960761Y-90940000D01*
X130103619Y-90892380D01*
X130198857Y-90892380D01*
X130341714Y-90940000D01*
X130389333Y-90987619D01*
X131294095Y-90892380D02*
X130817904Y-90892380D01*
X130770285Y-91368571D01*
X130817904Y-91320952D01*
X130913142Y-91273333D01*
X131151238Y-91273333D01*
X131246476Y-91320952D01*
X131294095Y-91368571D01*
X131341714Y-91463809D01*
X131341714Y-91701904D01*
X131294095Y-91797142D01*
X131246476Y-91844761D01*
X131151238Y-91892380D01*
X130913142Y-91892380D01*
X130817904Y-91844761D01*
X130770285Y-91797142D01*
%TO.C,C4*%
X120531833Y-91924142D02*
X120484214Y-91971761D01*
X120341357Y-92019380D01*
X120246119Y-92019380D01*
X120103261Y-91971761D01*
X120008023Y-91876523D01*
X119960404Y-91781285D01*
X119912785Y-91590809D01*
X119912785Y-91447952D01*
X119960404Y-91257476D01*
X120008023Y-91162238D01*
X120103261Y-91067000D01*
X120246119Y-91019380D01*
X120341357Y-91019380D01*
X120484214Y-91067000D01*
X120531833Y-91114619D01*
X121388976Y-91352714D02*
X121388976Y-92019380D01*
X121150880Y-90971761D02*
X120912785Y-91686047D01*
X121531833Y-91686047D01*
%TO.C,C3*%
X120658833Y-94337142D02*
X120611214Y-94384761D01*
X120468357Y-94432380D01*
X120373119Y-94432380D01*
X120230261Y-94384761D01*
X120135023Y-94289523D01*
X120087404Y-94194285D01*
X120039785Y-94003809D01*
X120039785Y-93860952D01*
X120087404Y-93670476D01*
X120135023Y-93575238D01*
X120230261Y-93480000D01*
X120373119Y-93432380D01*
X120468357Y-93432380D01*
X120611214Y-93480000D01*
X120658833Y-93527619D01*
X120992166Y-93432380D02*
X121611214Y-93432380D01*
X121277880Y-93813333D01*
X121420738Y-93813333D01*
X121515976Y-93860952D01*
X121563595Y-93908571D01*
X121611214Y-94003809D01*
X121611214Y-94241904D01*
X121563595Y-94337142D01*
X121515976Y-94384761D01*
X121420738Y-94432380D01*
X121135023Y-94432380D01*
X121039785Y-94384761D01*
X120992166Y-94337142D01*
%TO.C,C2*%
X160996333Y-95353142D02*
X160948714Y-95400761D01*
X160805857Y-95448380D01*
X160710619Y-95448380D01*
X160567761Y-95400761D01*
X160472523Y-95305523D01*
X160424904Y-95210285D01*
X160377285Y-95019809D01*
X160377285Y-94876952D01*
X160424904Y-94686476D01*
X160472523Y-94591238D01*
X160567761Y-94496000D01*
X160710619Y-94448380D01*
X160805857Y-94448380D01*
X160948714Y-94496000D01*
X160996333Y-94543619D01*
X161377285Y-94543619D02*
X161424904Y-94496000D01*
X161520142Y-94448380D01*
X161758238Y-94448380D01*
X161853476Y-94496000D01*
X161901095Y-94543619D01*
X161948714Y-94638857D01*
X161948714Y-94734095D01*
X161901095Y-94876952D01*
X161329666Y-95448380D01*
X161948714Y-95448380D01*
%TO.C,C1*%
X150963333Y-85955142D02*
X150915714Y-86002761D01*
X150772857Y-86050380D01*
X150677619Y-86050380D01*
X150534761Y-86002761D01*
X150439523Y-85907523D01*
X150391904Y-85812285D01*
X150344285Y-85621809D01*
X150344285Y-85478952D01*
X150391904Y-85288476D01*
X150439523Y-85193238D01*
X150534761Y-85098000D01*
X150677619Y-85050380D01*
X150772857Y-85050380D01*
X150915714Y-85098000D01*
X150963333Y-85145619D01*
X151915714Y-86050380D02*
X151344285Y-86050380D01*
X151630000Y-86050380D02*
X151630000Y-85050380D01*
X151534761Y-85193238D01*
X151439523Y-85288476D01*
X151344285Y-85336095D01*
%TO.C,U4*%
X143486000Y-98401000D02*
X143486000Y-98626000D01*
X146836000Y-98401000D02*
X146836000Y-98701000D01*
X146836000Y-101751000D02*
X146836000Y-101451000D01*
X143486000Y-101751000D02*
X143486000Y-101451000D01*
X143486000Y-98401000D02*
X146836000Y-98401000D01*
X143486000Y-101751000D02*
X146836000Y-101751000D01*
X143486000Y-98626000D02*
X142261000Y-98626000D01*
D11*
%TO.C,U3*%
X139192000Y-111972800D02*
X141952000Y-111972800D01*
X141952000Y-111972800D02*
X141952000Y-111227800D01*
X139192000Y-111972800D02*
X136432000Y-111972800D01*
X136432000Y-111972800D02*
X136432000Y-111227800D01*
X139192000Y-105552800D02*
X141952000Y-105552800D01*
X141952000Y-105552800D02*
X141952000Y-106297800D01*
X139192000Y-105552800D02*
X136432000Y-105552800D01*
X136432000Y-105552800D02*
X136432000Y-106297800D01*
X136432000Y-106297800D02*
X134742000Y-106297800D01*
D10*
%TO.C,U2*%
X135571000Y-98401000D02*
X135571000Y-98626000D01*
X138921000Y-98401000D02*
X138921000Y-98701000D01*
X138921000Y-101751000D02*
X138921000Y-101451000D01*
X135571000Y-101751000D02*
X135571000Y-101451000D01*
X135571000Y-98401000D02*
X138921000Y-98401000D01*
X135571000Y-101751000D02*
X138921000Y-101751000D01*
X135571000Y-98626000D02*
X134346000Y-98626000D01*
D11*
%TO.C,U1*%
X126238000Y-111998200D02*
X128998000Y-111998200D01*
X128998000Y-111998200D02*
X128998000Y-111253200D01*
X126238000Y-111998200D02*
X123478000Y-111998200D01*
X123478000Y-111998200D02*
X123478000Y-111253200D01*
X126238000Y-105578200D02*
X128998000Y-105578200D01*
X128998000Y-105578200D02*
X128998000Y-106323200D01*
X126238000Y-105578200D02*
X123478000Y-105578200D01*
X123478000Y-105578200D02*
X123478000Y-106323200D01*
X123478000Y-106323200D02*
X121788000Y-106323200D01*
%TO.C,SW2*%
X148160000Y-79648000D02*
X148160000Y-86469000D01*
X136320000Y-79648000D02*
X136320000Y-86469000D01*
X148160000Y-79648000D02*
X147090000Y-79648000D01*
X145010000Y-79648000D02*
X144499000Y-79648000D01*
X142520000Y-79648000D02*
X141959000Y-79648000D01*
X139980000Y-79648000D02*
X139419000Y-79648000D01*
X137440000Y-79648000D02*
X136320000Y-79648000D01*
X137440000Y-86469000D02*
X136320000Y-86469000D01*
X139980000Y-86469000D02*
X139419000Y-86469000D01*
X142520000Y-86469000D02*
X141959000Y-86469000D01*
X148160000Y-86469000D02*
X147040000Y-86469000D01*
X145060000Y-86469000D02*
X144499000Y-86469000D01*
X148400000Y-79408000D02*
X148400000Y-80791000D01*
X148400000Y-79408000D02*
X147090000Y-79408000D01*
X146685000Y-81248000D02*
X145415000Y-81248000D01*
X145415000Y-81248000D02*
X145415000Y-84868000D01*
X145415000Y-84868000D02*
X146685000Y-84868000D01*
X146685000Y-84868000D02*
X146685000Y-81248000D01*
X146565000Y-81248000D02*
X146565000Y-82454667D01*
X146445000Y-81248000D02*
X146445000Y-82454667D01*
X146325000Y-81248000D02*
X146325000Y-82454667D01*
X146205000Y-81248000D02*
X146205000Y-82454667D01*
X146085000Y-81248000D02*
X146085000Y-82454667D01*
X145965000Y-81248000D02*
X145965000Y-82454667D01*
X145845000Y-81248000D02*
X145845000Y-82454667D01*
X145725000Y-81248000D02*
X145725000Y-82454667D01*
X145605000Y-81248000D02*
X145605000Y-82454667D01*
X145485000Y-81248000D02*
X145485000Y-82454667D01*
X146685000Y-82454667D02*
X145415000Y-82454667D01*
X144145000Y-81248000D02*
X142875000Y-81248000D01*
X142875000Y-81248000D02*
X142875000Y-84868000D01*
X142875000Y-84868000D02*
X144145000Y-84868000D01*
X144145000Y-84868000D02*
X144145000Y-81248000D01*
X144025000Y-81248000D02*
X144025000Y-82454667D01*
X143905000Y-81248000D02*
X143905000Y-82454667D01*
X143785000Y-81248000D02*
X143785000Y-82454667D01*
X143665000Y-81248000D02*
X143665000Y-82454667D01*
X143545000Y-81248000D02*
X143545000Y-82454667D01*
X143425000Y-81248000D02*
X143425000Y-82454667D01*
X143305000Y-81248000D02*
X143305000Y-82454667D01*
X143185000Y-81248000D02*
X143185000Y-82454667D01*
X143065000Y-81248000D02*
X143065000Y-82454667D01*
X142945000Y-81248000D02*
X142945000Y-82454667D01*
X144145000Y-82454667D02*
X142875000Y-82454667D01*
X141605000Y-81248000D02*
X140335000Y-81248000D01*
X140335000Y-81248000D02*
X140335000Y-84868000D01*
X140335000Y-84868000D02*
X141605000Y-84868000D01*
X141605000Y-84868000D02*
X141605000Y-81248000D01*
X141485000Y-81248000D02*
X141485000Y-82454667D01*
X141365000Y-81248000D02*
X141365000Y-82454667D01*
X141245000Y-81248000D02*
X141245000Y-82454667D01*
X141125000Y-81248000D02*
X141125000Y-82454667D01*
X141005000Y-81248000D02*
X141005000Y-82454667D01*
X140885000Y-81248000D02*
X140885000Y-82454667D01*
X140765000Y-81248000D02*
X140765000Y-82454667D01*
X140645000Y-81248000D02*
X140645000Y-82454667D01*
X140525000Y-81248000D02*
X140525000Y-82454667D01*
X140405000Y-81248000D02*
X140405000Y-82454667D01*
X141605000Y-82454667D02*
X140335000Y-82454667D01*
X139065000Y-81248000D02*
X137795000Y-81248000D01*
X137795000Y-81248000D02*
X137795000Y-84868000D01*
X137795000Y-84868000D02*
X139065000Y-84868000D01*
X139065000Y-84868000D02*
X139065000Y-81248000D01*
X138945000Y-81248000D02*
X138945000Y-82454667D01*
X138825000Y-81248000D02*
X138825000Y-82454667D01*
X138705000Y-81248000D02*
X138705000Y-82454667D01*
X138585000Y-81248000D02*
X138585000Y-82454667D01*
X138465000Y-81248000D02*
X138465000Y-82454667D01*
X138345000Y-81248000D02*
X138345000Y-82454667D01*
X138225000Y-81248000D02*
X138225000Y-82454667D01*
X138105000Y-81248000D02*
X138105000Y-82454667D01*
X137985000Y-81248000D02*
X137985000Y-82454667D01*
X137865000Y-81248000D02*
X137865000Y-82454667D01*
X139065000Y-82454667D02*
X137795000Y-82454667D01*
%TO.C,R20*%
X141299000Y-90848922D02*
X141299000Y-91366078D01*
X139879000Y-90848922D02*
X139879000Y-91366078D01*
%TO.C,R19*%
X138505000Y-90848922D02*
X138505000Y-91366078D01*
X137085000Y-90848922D02*
X137085000Y-91366078D01*
%TO.C,R17*%
X154261078Y-100786000D02*
X153743922Y-100786000D01*
X154261078Y-99366000D02*
X153743922Y-99366000D01*
%TO.C,R16*%
X158627578Y-98119000D02*
X158110422Y-98119000D01*
X158627578Y-96699000D02*
X158110422Y-96699000D01*
%TO.C,R15*%
X158110422Y-101906000D02*
X158627578Y-101906000D01*
X158110422Y-103326000D02*
X158627578Y-103326000D01*
%TO.C,R14*%
X146633000Y-90848922D02*
X146633000Y-91366078D01*
X145213000Y-90848922D02*
X145213000Y-91366078D01*
%TO.C,R13*%
X143839000Y-90848922D02*
X143839000Y-91366078D01*
X142419000Y-90848922D02*
X142419000Y-91366078D01*
%TO.C,R11*%
X127581922Y-98350000D02*
X128099078Y-98350000D01*
X127581922Y-99770000D02*
X128099078Y-99770000D01*
%TO.C,R10*%
X127581922Y-87936000D02*
X128099078Y-87936000D01*
X127581922Y-89356000D02*
X128099078Y-89356000D01*
%TO.C,R9*%
X123233922Y-87936000D02*
X123751078Y-87936000D01*
X123233922Y-89356000D02*
X123751078Y-89356000D01*
%TO.C,R8*%
X127581922Y-93270000D02*
X128099078Y-93270000D01*
X127581922Y-94690000D02*
X128099078Y-94690000D01*
%TO.C,R7*%
X127581922Y-95810000D02*
X128099078Y-95810000D01*
X127581922Y-97230000D02*
X128099078Y-97230000D01*
%TO.C,R6*%
X123233922Y-95810000D02*
X123751078Y-95810000D01*
X123233922Y-97230000D02*
X123751078Y-97230000D01*
%TO.C,R5*%
X158110422Y-91873000D02*
X158627578Y-91873000D01*
X158110422Y-93293000D02*
X158627578Y-93293000D01*
%TO.C,R4*%
X153743922Y-89460000D02*
X154261078Y-89460000D01*
X153743922Y-90880000D02*
X154261078Y-90880000D01*
%TO.C,R3*%
X158110422Y-87174000D02*
X158627578Y-87174000D01*
X158110422Y-88594000D02*
X158627578Y-88594000D01*
%TO.C,R2*%
X158110422Y-89460000D02*
X158627578Y-89460000D01*
X158110422Y-90880000D02*
X158627578Y-90880000D01*
%TO.C,R1*%
X153743922Y-87174000D02*
X154261078Y-87174000D01*
X153743922Y-88594000D02*
X154261078Y-88594000D01*
%TO.C,Q2*%
X153965122Y-111007678D02*
G75*
G03*
X158403600Y-109169200I1838478J1838478D01*
G01*
X158403601Y-109169200D02*
G75*
G03*
X153965122Y-107330722I-2600001J0D01*
G01*
X153953600Y-107369200D02*
X153953600Y-110969200D01*
%TO.C,Q1*%
X146980122Y-111007678D02*
G75*
G03*
X151418600Y-109169200I1838478J1838478D01*
G01*
X151418601Y-109169200D02*
G75*
G03*
X146980122Y-107330722I-2600001J0D01*
G01*
X146968600Y-107369200D02*
X146968600Y-110969200D01*
%TO.C,J5*%
X131359600Y-86420000D02*
X134019600Y-86420000D01*
X131359600Y-81280000D02*
X131359600Y-86420000D01*
X134019600Y-81280000D02*
X134019600Y-86420000D01*
X131359600Y-81280000D02*
X134019600Y-81280000D01*
X131359600Y-80010000D02*
X131359600Y-78680000D01*
X131359600Y-78680000D02*
X132689600Y-78680000D01*
%TO.C,J3*%
X126025600Y-86420000D02*
X128685600Y-86420000D01*
X126025600Y-81280000D02*
X126025600Y-86420000D01*
X128685600Y-81280000D02*
X128685600Y-86420000D01*
X126025600Y-81280000D02*
X128685600Y-81280000D01*
X126025600Y-80010000D02*
X126025600Y-78680000D01*
X126025600Y-78680000D02*
X127355600Y-78680000D01*
%TO.C,J2*%
X121098000Y-86420000D02*
X123758000Y-86420000D01*
X121098000Y-81280000D02*
X121098000Y-86420000D01*
X123758000Y-81280000D02*
X123758000Y-86420000D01*
X121098000Y-81280000D02*
X123758000Y-81280000D01*
X121098000Y-80010000D02*
X121098000Y-78680000D01*
X121098000Y-78680000D02*
X122428000Y-78680000D01*
%TO.C,J1*%
X113564400Y-109361200D02*
X118764400Y-109361200D01*
X113564400Y-81361200D02*
X113564400Y-109361200D01*
X118764400Y-78761200D02*
X118764400Y-109361200D01*
X113564400Y-81361200D02*
X116164400Y-81361200D01*
X116164400Y-81361200D02*
X116164400Y-78761200D01*
X116164400Y-78761200D02*
X118764400Y-78761200D01*
X113564400Y-80091200D02*
X113564400Y-78761200D01*
X113564400Y-78761200D02*
X114894400Y-78761200D01*
%TO.C,D1*%
X152474000Y-78543000D02*
X152474000Y-78413000D01*
X152474000Y-78413000D02*
X157914000Y-78413000D01*
X157914000Y-78413000D02*
X157914000Y-78543000D01*
X152474000Y-81223000D02*
X152474000Y-81353000D01*
X152474000Y-81353000D02*
X157914000Y-81353000D01*
X157914000Y-81353000D02*
X157914000Y-81223000D01*
X153374000Y-78413000D02*
X153374000Y-81353000D01*
X153494000Y-78413000D02*
X153494000Y-81353000D01*
X153254000Y-78413000D02*
X153254000Y-81353000D01*
%TO.C,C12*%
X154261078Y-95706000D02*
X153743922Y-95706000D01*
X154261078Y-94286000D02*
X153743922Y-94286000D01*
%TO.C,C11*%
X158627578Y-86308000D02*
X158110422Y-86308000D01*
X158627578Y-84888000D02*
X158110422Y-84888000D01*
%TO.C,C9*%
X158627578Y-100786000D02*
X158110422Y-100786000D01*
X158627578Y-99366000D02*
X158110422Y-99366000D01*
%TO.C,C8*%
X154261078Y-93293000D02*
X153743922Y-93293000D01*
X154261078Y-91873000D02*
X153743922Y-91873000D01*
%TO.C,C7*%
X153743922Y-96699000D02*
X154261078Y-96699000D01*
X153743922Y-98119000D02*
X154261078Y-98119000D01*
%TO.C,C6*%
X123751078Y-99770000D02*
X123233922Y-99770000D01*
X123751078Y-98350000D02*
X123233922Y-98350000D01*
%TO.C,C5*%
X127581922Y-90730000D02*
X128099078Y-90730000D01*
X127581922Y-92150000D02*
X128099078Y-92150000D01*
%TO.C,C4*%
X123233922Y-90730000D02*
X123751078Y-90730000D01*
X123233922Y-92150000D02*
X123751078Y-92150000D01*
%TO.C,C3*%
X123751078Y-94690000D02*
X123233922Y-94690000D01*
X123751078Y-93270000D02*
X123233922Y-93270000D01*
%TO.C,C2*%
X158627578Y-95706000D02*
X158110422Y-95706000D01*
X158627578Y-94286000D02*
X158110422Y-94286000D01*
%TO.C,C1*%
X153743922Y-84888000D02*
X154261078Y-84888000D01*
X153743922Y-86308000D02*
X154261078Y-86308000D01*
%TD*%
M02*
