%TF.GenerationSoftware,KiCad,Pcbnew,(6.0.2)*%
%TF.CreationDate,2022-03-04T11:59:50-06:00*%
%TF.ProjectId,rev1,72657631-2e6b-4696-9361-645f70636258,rev?*%
%TF.SameCoordinates,Original*%
%TF.FileFunction,Legend,Top*%
%TF.FilePolarity,Positive*%
%FSLAX46Y46*%
G04 Gerber Fmt 4.6, Leading zero omitted, Abs format (unit mm)*
G04 Created by KiCad (PCBNEW (6.0.2)) date 2022-03-04 11:59:50*
%MOMM*%
%LPD*%
G01*
G04 APERTURE LIST*
%ADD10C,0.300000*%
%ADD11C,0.150000*%
%ADD12C,0.120000*%
%ADD13C,0.100000*%
G04 APERTURE END LIST*
D10*
X209949991Y-131325331D02*
X210092848Y-131325331D01*
X210235705Y-131396760D01*
X210307134Y-131468188D01*
X210378562Y-131611045D01*
X210449991Y-131896760D01*
X210449991Y-132253902D01*
X210378562Y-132539617D01*
X210307134Y-132682474D01*
X210235705Y-132753902D01*
X210092848Y-132825331D01*
X209949991Y-132825331D01*
X209807134Y-132753902D01*
X209735705Y-132682474D01*
X209664277Y-132539617D01*
X209592848Y-132253902D01*
X209592848Y-131896760D01*
X209664277Y-131611045D01*
X209735705Y-131468188D01*
X209807134Y-131396760D01*
X209949991Y-131325331D01*
D11*
X210252844Y-133968320D02*
X210157606Y-133920700D01*
X210014749Y-133920700D01*
X209871892Y-133968320D01*
X209776654Y-134063558D01*
X209729035Y-134158796D01*
X209681416Y-134349272D01*
X209681416Y-134492129D01*
X209729035Y-134682605D01*
X209776654Y-134777843D01*
X209871892Y-134873081D01*
X210014749Y-134920700D01*
X210109987Y-134920700D01*
X210252844Y-134873081D01*
X210300463Y-134825462D01*
X210300463Y-134492129D01*
X210109987Y-134492129D01*
%TO.C,C2*%
X193187273Y-105501162D02*
X193139654Y-105548781D01*
X192996797Y-105596400D01*
X192901559Y-105596400D01*
X192758701Y-105548781D01*
X192663463Y-105453543D01*
X192615844Y-105358305D01*
X192568225Y-105167829D01*
X192568225Y-105024972D01*
X192615844Y-104834496D01*
X192663463Y-104739258D01*
X192758701Y-104644020D01*
X192901559Y-104596400D01*
X192996797Y-104596400D01*
X193139654Y-104644020D01*
X193187273Y-104691639D01*
X193568225Y-104691639D02*
X193615844Y-104644020D01*
X193711082Y-104596400D01*
X193949178Y-104596400D01*
X194044416Y-104644020D01*
X194092035Y-104691639D01*
X194139654Y-104786877D01*
X194139654Y-104882115D01*
X194092035Y-105024972D01*
X193520606Y-105596400D01*
X194139654Y-105596400D01*
%TO.C,C3*%
X187003333Y-111697142D02*
X186955714Y-111744761D01*
X186812857Y-111792380D01*
X186717619Y-111792380D01*
X186574761Y-111744761D01*
X186479523Y-111649523D01*
X186431904Y-111554285D01*
X186384285Y-111363809D01*
X186384285Y-111220952D01*
X186431904Y-111030476D01*
X186479523Y-110935238D01*
X186574761Y-110840000D01*
X186717619Y-110792380D01*
X186812857Y-110792380D01*
X186955714Y-110840000D01*
X187003333Y-110887619D01*
X187336666Y-110792380D02*
X187955714Y-110792380D01*
X187622380Y-111173333D01*
X187765238Y-111173333D01*
X187860476Y-111220952D01*
X187908095Y-111268571D01*
X187955714Y-111363809D01*
X187955714Y-111601904D01*
X187908095Y-111697142D01*
X187860476Y-111744761D01*
X187765238Y-111792380D01*
X187479523Y-111792380D01*
X187384285Y-111744761D01*
X187336666Y-111697142D01*
%TO.C,C1*%
X189336633Y-131609822D02*
X189289014Y-131657441D01*
X189146157Y-131705060D01*
X189050919Y-131705060D01*
X188908061Y-131657441D01*
X188812823Y-131562203D01*
X188765204Y-131466965D01*
X188717585Y-131276489D01*
X188717585Y-131133632D01*
X188765204Y-130943156D01*
X188812823Y-130847918D01*
X188908061Y-130752680D01*
X189050919Y-130705060D01*
X189146157Y-130705060D01*
X189289014Y-130752680D01*
X189336633Y-130800299D01*
X190289014Y-131705060D02*
X189717585Y-131705060D01*
X190003300Y-131705060D02*
X190003300Y-130705060D01*
X189908061Y-130847918D01*
X189812823Y-130943156D01*
X189717585Y-130990775D01*
%TO.C,C7*%
X196580713Y-131658082D02*
X196533094Y-131705701D01*
X196390237Y-131753320D01*
X196294999Y-131753320D01*
X196152141Y-131705701D01*
X196056903Y-131610463D01*
X196009284Y-131515225D01*
X195961665Y-131324749D01*
X195961665Y-131181892D01*
X196009284Y-130991416D01*
X196056903Y-130896178D01*
X196152141Y-130800940D01*
X196294999Y-130753320D01*
X196390237Y-130753320D01*
X196533094Y-130800940D01*
X196580713Y-130848559D01*
X196914046Y-130753320D02*
X197580713Y-130753320D01*
X197152141Y-131753320D01*
%TO.C,C4*%
X189417873Y-122434282D02*
X189370254Y-122481901D01*
X189227397Y-122529520D01*
X189132159Y-122529520D01*
X188989301Y-122481901D01*
X188894063Y-122386663D01*
X188846444Y-122291425D01*
X188798825Y-122100949D01*
X188798825Y-121958092D01*
X188846444Y-121767616D01*
X188894063Y-121672378D01*
X188989301Y-121577140D01*
X189132159Y-121529520D01*
X189227397Y-121529520D01*
X189370254Y-121577140D01*
X189417873Y-121624759D01*
X190275016Y-121862854D02*
X190275016Y-122529520D01*
X190036920Y-121481901D02*
X189798825Y-122196187D01*
X190417873Y-122196187D01*
%TO.C,C9*%
X178393333Y-126357142D02*
X178345714Y-126404761D01*
X178202857Y-126452380D01*
X178107619Y-126452380D01*
X177964761Y-126404761D01*
X177869523Y-126309523D01*
X177821904Y-126214285D01*
X177774285Y-126023809D01*
X177774285Y-125880952D01*
X177821904Y-125690476D01*
X177869523Y-125595238D01*
X177964761Y-125500000D01*
X178107619Y-125452380D01*
X178202857Y-125452380D01*
X178345714Y-125500000D01*
X178393333Y-125547619D01*
X178869523Y-126452380D02*
X179060000Y-126452380D01*
X179155238Y-126404761D01*
X179202857Y-126357142D01*
X179298095Y-126214285D01*
X179345714Y-126023809D01*
X179345714Y-125642857D01*
X179298095Y-125547619D01*
X179250476Y-125500000D01*
X179155238Y-125452380D01*
X178964761Y-125452380D01*
X178869523Y-125500000D01*
X178821904Y-125547619D01*
X178774285Y-125642857D01*
X178774285Y-125880952D01*
X178821904Y-125976190D01*
X178869523Y-126023809D01*
X178964761Y-126071428D01*
X179155238Y-126071428D01*
X179250476Y-126023809D01*
X179298095Y-125976190D01*
X179345714Y-125880952D01*
%TO.C,C5*%
X189483333Y-118987142D02*
X189435714Y-119034761D01*
X189292857Y-119082380D01*
X189197619Y-119082380D01*
X189054761Y-119034761D01*
X188959523Y-118939523D01*
X188911904Y-118844285D01*
X188864285Y-118653809D01*
X188864285Y-118510952D01*
X188911904Y-118320476D01*
X188959523Y-118225238D01*
X189054761Y-118130000D01*
X189197619Y-118082380D01*
X189292857Y-118082380D01*
X189435714Y-118130000D01*
X189483333Y-118177619D01*
X190388095Y-118082380D02*
X189911904Y-118082380D01*
X189864285Y-118558571D01*
X189911904Y-118510952D01*
X190007142Y-118463333D01*
X190245238Y-118463333D01*
X190340476Y-118510952D01*
X190388095Y-118558571D01*
X190435714Y-118653809D01*
X190435714Y-118891904D01*
X190388095Y-118987142D01*
X190340476Y-119034761D01*
X190245238Y-119082380D01*
X190007142Y-119082380D01*
X189911904Y-119034761D01*
X189864285Y-118987142D01*
%TO.C,C6*%
X208783333Y-123227142D02*
X208735714Y-123274761D01*
X208592857Y-123322380D01*
X208497619Y-123322380D01*
X208354761Y-123274761D01*
X208259523Y-123179523D01*
X208211904Y-123084285D01*
X208164285Y-122893809D01*
X208164285Y-122750952D01*
X208211904Y-122560476D01*
X208259523Y-122465238D01*
X208354761Y-122370000D01*
X208497619Y-122322380D01*
X208592857Y-122322380D01*
X208735714Y-122370000D01*
X208783333Y-122417619D01*
X209640476Y-122322380D02*
X209450000Y-122322380D01*
X209354761Y-122370000D01*
X209307142Y-122417619D01*
X209211904Y-122560476D01*
X209164285Y-122750952D01*
X209164285Y-123131904D01*
X209211904Y-123227142D01*
X209259523Y-123274761D01*
X209354761Y-123322380D01*
X209545238Y-123322380D01*
X209640476Y-123274761D01*
X209688095Y-123227142D01*
X209735714Y-123131904D01*
X209735714Y-122893809D01*
X209688095Y-122798571D01*
X209640476Y-122750952D01*
X209545238Y-122703333D01*
X209354761Y-122703333D01*
X209259523Y-122750952D01*
X209211904Y-122798571D01*
X209164285Y-122893809D01*
%TO.C,C8*%
X206085962Y-133926326D02*
X206133581Y-133973945D01*
X206181200Y-134116802D01*
X206181200Y-134212040D01*
X206133581Y-134354898D01*
X206038343Y-134450136D01*
X205943105Y-134497755D01*
X205752629Y-134545374D01*
X205609772Y-134545374D01*
X205419296Y-134497755D01*
X205324058Y-134450136D01*
X205228820Y-134354898D01*
X205181200Y-134212040D01*
X205181200Y-134116802D01*
X205228820Y-133973945D01*
X205276439Y-133926326D01*
X205609772Y-133354898D02*
X205562153Y-133450136D01*
X205514534Y-133497755D01*
X205419296Y-133545374D01*
X205371677Y-133545374D01*
X205276439Y-133497755D01*
X205228820Y-133450136D01*
X205181200Y-133354898D01*
X205181200Y-133164421D01*
X205228820Y-133069183D01*
X205276439Y-133021564D01*
X205371677Y-132973945D01*
X205419296Y-132973945D01*
X205514534Y-133021564D01*
X205562153Y-133069183D01*
X205609772Y-133164421D01*
X205609772Y-133354898D01*
X205657391Y-133450136D01*
X205705010Y-133497755D01*
X205800248Y-133545374D01*
X205990724Y-133545374D01*
X206085962Y-133497755D01*
X206133581Y-133450136D01*
X206181200Y-133354898D01*
X206181200Y-133164421D01*
X206133581Y-133069183D01*
X206085962Y-133021564D01*
X205990724Y-132973945D01*
X205800248Y-132973945D01*
X205705010Y-133021564D01*
X205657391Y-133069183D01*
X205609772Y-133164421D01*
%TO.C,C10*%
X190592722Y-113817122D02*
X190545103Y-113864741D01*
X190402246Y-113912360D01*
X190307008Y-113912360D01*
X190164151Y-113864741D01*
X190068913Y-113769503D01*
X190021294Y-113674265D01*
X189973675Y-113483789D01*
X189973675Y-113340932D01*
X190021294Y-113150456D01*
X190068913Y-113055218D01*
X190164151Y-112959980D01*
X190307008Y-112912360D01*
X190402246Y-112912360D01*
X190545103Y-112959980D01*
X190592722Y-113007599D01*
X191545103Y-113912360D02*
X190973675Y-113912360D01*
X191259389Y-113912360D02*
X191259389Y-112912360D01*
X191164151Y-113055218D01*
X191068913Y-113150456D01*
X190973675Y-113198075D01*
X192164151Y-112912360D02*
X192259389Y-112912360D01*
X192354627Y-112959980D01*
X192402246Y-113007599D01*
X192449865Y-113102837D01*
X192497484Y-113293313D01*
X192497484Y-113531408D01*
X192449865Y-113721884D01*
X192402246Y-113817122D01*
X192354627Y-113864741D01*
X192259389Y-113912360D01*
X192164151Y-113912360D01*
X192068913Y-113864741D01*
X192021294Y-113817122D01*
X191973675Y-113721884D01*
X191926056Y-113531408D01*
X191926056Y-113293313D01*
X191973675Y-113102837D01*
X192021294Y-113007599D01*
X192068913Y-112959980D01*
X192164151Y-112912360D01*
%TO.C,C11*%
X209847142Y-120937142D02*
X209799523Y-120984761D01*
X209656666Y-121032380D01*
X209561428Y-121032380D01*
X209418571Y-120984761D01*
X209323333Y-120889523D01*
X209275714Y-120794285D01*
X209228095Y-120603809D01*
X209228095Y-120460952D01*
X209275714Y-120270476D01*
X209323333Y-120175238D01*
X209418571Y-120080000D01*
X209561428Y-120032380D01*
X209656666Y-120032380D01*
X209799523Y-120080000D01*
X209847142Y-120127619D01*
X210799523Y-121032380D02*
X210228095Y-121032380D01*
X210513809Y-121032380D02*
X210513809Y-120032380D01*
X210418571Y-120175238D01*
X210323333Y-120270476D01*
X210228095Y-120318095D01*
X211751904Y-121032380D02*
X211180476Y-121032380D01*
X211466190Y-121032380D02*
X211466190Y-120032380D01*
X211370952Y-120175238D01*
X211275714Y-120270476D01*
X211180476Y-120318095D01*
%TO.C,D6*%
X184292480Y-139074375D02*
X183292480Y-139074375D01*
X183292480Y-138836280D01*
X183340100Y-138693422D01*
X183435338Y-138598184D01*
X183530576Y-138550565D01*
X183721052Y-138502946D01*
X183863909Y-138502946D01*
X184054385Y-138550565D01*
X184149623Y-138598184D01*
X184244861Y-138693422D01*
X184292480Y-138836280D01*
X184292480Y-139074375D01*
X183292480Y-137645803D02*
X183292480Y-137836280D01*
X183340100Y-137931518D01*
X183387719Y-137979137D01*
X183530576Y-138074375D01*
X183721052Y-138121994D01*
X184102004Y-138121994D01*
X184197242Y-138074375D01*
X184244861Y-138026756D01*
X184292480Y-137931518D01*
X184292480Y-137741041D01*
X184244861Y-137645803D01*
X184197242Y-137598184D01*
X184102004Y-137550565D01*
X183863909Y-137550565D01*
X183768671Y-137598184D01*
X183721052Y-137645803D01*
X183673433Y-137741041D01*
X183673433Y-137931518D01*
X183721052Y-138026756D01*
X183768671Y-138074375D01*
X183863909Y-138121994D01*
%TO.C,J2*%
X196916966Y-135447240D02*
X196916966Y-136161526D01*
X196869347Y-136304383D01*
X196774109Y-136399621D01*
X196631252Y-136447240D01*
X196536014Y-136447240D01*
X197345538Y-135542479D02*
X197393157Y-135494860D01*
X197488395Y-135447240D01*
X197726490Y-135447240D01*
X197821728Y-135494860D01*
X197869347Y-135542479D01*
X197916966Y-135637717D01*
X197916966Y-135732955D01*
X197869347Y-135875812D01*
X197297919Y-136447240D01*
X197916966Y-136447240D01*
%TO.C,J16*%
X181353460Y-109230143D02*
X182067746Y-109230143D01*
X182210603Y-109277762D01*
X182305841Y-109373000D01*
X182353460Y-109515858D01*
X182353460Y-109611096D01*
X182353460Y-108230143D02*
X182353460Y-108801572D01*
X182353460Y-108515858D02*
X181353460Y-108515858D01*
X181496318Y-108611096D01*
X181591556Y-108706334D01*
X181639175Y-108801572D01*
X181353460Y-107373000D02*
X181353460Y-107563477D01*
X181401080Y-107658715D01*
X181448699Y-107706334D01*
X181591556Y-107801572D01*
X181782032Y-107849191D01*
X182162984Y-107849191D01*
X182258222Y-107801572D01*
X182305841Y-107753953D01*
X182353460Y-107658715D01*
X182353460Y-107468239D01*
X182305841Y-107373000D01*
X182258222Y-107325381D01*
X182162984Y-107277762D01*
X181924889Y-107277762D01*
X181829651Y-107325381D01*
X181782032Y-107373000D01*
X181734413Y-107468239D01*
X181734413Y-107658715D01*
X181782032Y-107753953D01*
X181829651Y-107801572D01*
X181924889Y-107849191D01*
%TO.C,R11*%
X193851542Y-131705060D02*
X193518209Y-131228870D01*
X193280114Y-131705060D02*
X193280114Y-130705060D01*
X193661066Y-130705060D01*
X193756304Y-130752680D01*
X193803923Y-130800299D01*
X193851542Y-130895537D01*
X193851542Y-131038394D01*
X193803923Y-131133632D01*
X193756304Y-131181251D01*
X193661066Y-131228870D01*
X193280114Y-131228870D01*
X194803923Y-131705060D02*
X194232495Y-131705060D01*
X194518209Y-131705060D02*
X194518209Y-130705060D01*
X194422971Y-130847918D01*
X194327733Y-130943156D01*
X194232495Y-130990775D01*
X195756304Y-131705060D02*
X195184876Y-131705060D01*
X195470590Y-131705060D02*
X195470590Y-130705060D01*
X195375352Y-130847918D01*
X195280114Y-130943156D01*
X195184876Y-130990775D01*
%TO.C,R12*%
X191725562Y-131720300D02*
X191392229Y-131244110D01*
X191154134Y-131720300D02*
X191154134Y-130720300D01*
X191535086Y-130720300D01*
X191630324Y-130767920D01*
X191677943Y-130815539D01*
X191725562Y-130910777D01*
X191725562Y-131053634D01*
X191677943Y-131148872D01*
X191630324Y-131196491D01*
X191535086Y-131244110D01*
X191154134Y-131244110D01*
X192677943Y-131720300D02*
X192106515Y-131720300D01*
X192392229Y-131720300D02*
X192392229Y-130720300D01*
X192296991Y-130863158D01*
X192201753Y-130958396D01*
X192106515Y-131006015D01*
X193058896Y-130815539D02*
X193106515Y-130767920D01*
X193201753Y-130720300D01*
X193439848Y-130720300D01*
X193535086Y-130767920D01*
X193582705Y-130815539D01*
X193630324Y-130910777D01*
X193630324Y-131006015D01*
X193582705Y-131148872D01*
X193011277Y-131720300D01*
X193630324Y-131720300D01*
%TO.C,R18*%
X183235840Y-138775937D02*
X182759650Y-139109270D01*
X183235840Y-139347365D02*
X182235840Y-139347365D01*
X182235840Y-138966413D01*
X182283460Y-138871175D01*
X182331079Y-138823556D01*
X182426317Y-138775937D01*
X182569174Y-138775937D01*
X182664412Y-138823556D01*
X182712031Y-138871175D01*
X182759650Y-138966413D01*
X182759650Y-139347365D01*
X183235840Y-137823556D02*
X183235840Y-138394984D01*
X183235840Y-138109270D02*
X182235840Y-138109270D01*
X182378698Y-138204508D01*
X182473936Y-138299746D01*
X182521555Y-138394984D01*
X182664412Y-137252127D02*
X182616793Y-137347365D01*
X182569174Y-137394984D01*
X182473936Y-137442603D01*
X182426317Y-137442603D01*
X182331079Y-137394984D01*
X182283460Y-137347365D01*
X182235840Y-137252127D01*
X182235840Y-137061651D01*
X182283460Y-136966413D01*
X182331079Y-136918794D01*
X182426317Y-136871175D01*
X182473936Y-136871175D01*
X182569174Y-136918794D01*
X182616793Y-136966413D01*
X182664412Y-137061651D01*
X182664412Y-137252127D01*
X182712031Y-137347365D01*
X182759650Y-137394984D01*
X182854888Y-137442603D01*
X183045364Y-137442603D01*
X183140602Y-137394984D01*
X183188221Y-137347365D01*
X183235840Y-137252127D01*
X183235840Y-137061651D01*
X183188221Y-136966413D01*
X183140602Y-136918794D01*
X183045364Y-136871175D01*
X182854888Y-136871175D01*
X182759650Y-136918794D01*
X182712031Y-136966413D01*
X182664412Y-137061651D01*
%TO.C,R19*%
X181937900Y-138758157D02*
X181461710Y-139091490D01*
X181937900Y-139329585D02*
X180937900Y-139329585D01*
X180937900Y-138948633D01*
X180985520Y-138853395D01*
X181033139Y-138805776D01*
X181128377Y-138758157D01*
X181271234Y-138758157D01*
X181366472Y-138805776D01*
X181414091Y-138853395D01*
X181461710Y-138948633D01*
X181461710Y-139329585D01*
X181937900Y-137805776D02*
X181937900Y-138377204D01*
X181937900Y-138091490D02*
X180937900Y-138091490D01*
X181080758Y-138186728D01*
X181175996Y-138281966D01*
X181223615Y-138377204D01*
X181937900Y-137329585D02*
X181937900Y-137139109D01*
X181890281Y-137043871D01*
X181842662Y-136996252D01*
X181699805Y-136901014D01*
X181509329Y-136853395D01*
X181128377Y-136853395D01*
X181033139Y-136901014D01*
X180985520Y-136948633D01*
X180937900Y-137043871D01*
X180937900Y-137234347D01*
X180985520Y-137329585D01*
X181033139Y-137377204D01*
X181128377Y-137424823D01*
X181366472Y-137424823D01*
X181461710Y-137377204D01*
X181509329Y-137329585D01*
X181556948Y-137234347D01*
X181556948Y-137043871D01*
X181509329Y-136948633D01*
X181461710Y-136901014D01*
X181366472Y-136853395D01*
%TO.C,R47*%
X190107142Y-113902380D02*
X189773809Y-113426190D01*
X189535714Y-113902380D02*
X189535714Y-112902380D01*
X189916666Y-112902380D01*
X190011904Y-112950000D01*
X190059523Y-112997619D01*
X190107142Y-113092857D01*
X190107142Y-113235714D01*
X190059523Y-113330952D01*
X190011904Y-113378571D01*
X189916666Y-113426190D01*
X189535714Y-113426190D01*
X190964285Y-113235714D02*
X190964285Y-113902380D01*
X190726190Y-112854761D02*
X190488095Y-113569047D01*
X191107142Y-113569047D01*
X191392857Y-112902380D02*
X192059523Y-112902380D01*
X191630952Y-113902380D01*
%TO.C,R50*%
X201877942Y-127023840D02*
X201544609Y-126547650D01*
X201306514Y-127023840D02*
X201306514Y-126023840D01*
X201687466Y-126023840D01*
X201782704Y-126071460D01*
X201830323Y-126119079D01*
X201877942Y-126214317D01*
X201877942Y-126357174D01*
X201830323Y-126452412D01*
X201782704Y-126500031D01*
X201687466Y-126547650D01*
X201306514Y-126547650D01*
X202782704Y-126023840D02*
X202306514Y-126023840D01*
X202258895Y-126500031D01*
X202306514Y-126452412D01*
X202401752Y-126404793D01*
X202639847Y-126404793D01*
X202735085Y-126452412D01*
X202782704Y-126500031D01*
X202830323Y-126595269D01*
X202830323Y-126833364D01*
X202782704Y-126928602D01*
X202735085Y-126976221D01*
X202639847Y-127023840D01*
X202401752Y-127023840D01*
X202306514Y-126976221D01*
X202258895Y-126928602D01*
X203449371Y-126023840D02*
X203544609Y-126023840D01*
X203639847Y-126071460D01*
X203687466Y-126119079D01*
X203735085Y-126214317D01*
X203782704Y-126404793D01*
X203782704Y-126642888D01*
X203735085Y-126833364D01*
X203687466Y-126928602D01*
X203639847Y-126976221D01*
X203544609Y-127023840D01*
X203449371Y-127023840D01*
X203354133Y-126976221D01*
X203306514Y-126928602D01*
X203258895Y-126833364D01*
X203211276Y-126642888D01*
X203211276Y-126404793D01*
X203258895Y-126214317D01*
X203306514Y-126119079D01*
X203354133Y-126071460D01*
X203449371Y-126023840D01*
%TO.C,Y1*%
X199542709Y-107490030D02*
X199542709Y-107966220D01*
X199209376Y-106966220D02*
X199542709Y-107490030D01*
X199876042Y-106966220D01*
X200733185Y-107966220D02*
X200161757Y-107966220D01*
X200447471Y-107966220D02*
X200447471Y-106966220D01*
X200352233Y-107109078D01*
X200256995Y-107204316D01*
X200161757Y-107251935D01*
%TO.C,U5*%
X201993500Y-133863704D02*
X202803024Y-133863704D01*
X202898262Y-133816085D01*
X202945881Y-133768466D01*
X202993500Y-133673228D01*
X202993500Y-133482752D01*
X202945881Y-133387514D01*
X202898262Y-133339895D01*
X202803024Y-133292276D01*
X201993500Y-133292276D01*
X201993500Y-132339895D02*
X201993500Y-132816085D01*
X202469691Y-132863704D01*
X202422072Y-132816085D01*
X202374453Y-132720847D01*
X202374453Y-132482752D01*
X202422072Y-132387514D01*
X202469691Y-132339895D01*
X202564929Y-132292276D01*
X202803024Y-132292276D01*
X202898262Y-132339895D01*
X202945881Y-132387514D01*
X202993500Y-132482752D01*
X202993500Y-132720847D01*
X202945881Y-132816085D01*
X202898262Y-132863704D01*
%TO.C,SW1*%
X203963686Y-109160661D02*
X204106543Y-109208280D01*
X204344639Y-109208280D01*
X204439877Y-109160661D01*
X204487496Y-109113042D01*
X204535115Y-109017804D01*
X204535115Y-108922566D01*
X204487496Y-108827328D01*
X204439877Y-108779709D01*
X204344639Y-108732090D01*
X204154162Y-108684471D01*
X204058924Y-108636852D01*
X204011305Y-108589233D01*
X203963686Y-108493995D01*
X203963686Y-108398757D01*
X204011305Y-108303519D01*
X204058924Y-108255900D01*
X204154162Y-108208280D01*
X204392258Y-108208280D01*
X204535115Y-108255900D01*
X204868448Y-108208280D02*
X205106543Y-109208280D01*
X205297020Y-108493995D01*
X205487496Y-109208280D01*
X205725591Y-108208280D01*
X206630353Y-109208280D02*
X206058924Y-109208280D01*
X206344639Y-109208280D02*
X206344639Y-108208280D01*
X206249400Y-108351138D01*
X206154162Y-108446376D01*
X206058924Y-108493995D01*
%TO.C,R5*%
X188912713Y-121592900D02*
X188579380Y-121116710D01*
X188341284Y-121592900D02*
X188341284Y-120592900D01*
X188722237Y-120592900D01*
X188817475Y-120640520D01*
X188865094Y-120688139D01*
X188912713Y-120783377D01*
X188912713Y-120926234D01*
X188865094Y-121021472D01*
X188817475Y-121069091D01*
X188722237Y-121116710D01*
X188341284Y-121116710D01*
X189817475Y-120592900D02*
X189341284Y-120592900D01*
X189293665Y-121069091D01*
X189341284Y-121021472D01*
X189436522Y-120973853D01*
X189674618Y-120973853D01*
X189769856Y-121021472D01*
X189817475Y-121069091D01*
X189865094Y-121164329D01*
X189865094Y-121402424D01*
X189817475Y-121497662D01*
X189769856Y-121545281D01*
X189674618Y-121592900D01*
X189436522Y-121592900D01*
X189341284Y-121545281D01*
X189293665Y-121497662D01*
%TO.C,R4*%
X188454253Y-119522580D02*
X188120920Y-119046390D01*
X187882824Y-119522580D02*
X187882824Y-118522580D01*
X188263777Y-118522580D01*
X188359015Y-118570200D01*
X188406634Y-118617819D01*
X188454253Y-118713057D01*
X188454253Y-118855914D01*
X188406634Y-118951152D01*
X188359015Y-118998771D01*
X188263777Y-119046390D01*
X187882824Y-119046390D01*
X189311396Y-118855914D02*
X189311396Y-119522580D01*
X189073300Y-118474961D02*
X188835205Y-119189247D01*
X189454253Y-119189247D01*
%TO.C,R3*%
X188830680Y-117540466D02*
X188354490Y-117873800D01*
X188830680Y-118111895D02*
X187830680Y-118111895D01*
X187830680Y-117730942D01*
X187878300Y-117635704D01*
X187925919Y-117588085D01*
X188021157Y-117540466D01*
X188164014Y-117540466D01*
X188259252Y-117588085D01*
X188306871Y-117635704D01*
X188354490Y-117730942D01*
X188354490Y-118111895D01*
X187830680Y-117207133D02*
X187830680Y-116588085D01*
X188211633Y-116921419D01*
X188211633Y-116778561D01*
X188259252Y-116683323D01*
X188306871Y-116635704D01*
X188402109Y-116588085D01*
X188640204Y-116588085D01*
X188735442Y-116635704D01*
X188783061Y-116683323D01*
X188830680Y-116778561D01*
X188830680Y-117064276D01*
X188783061Y-117159514D01*
X188735442Y-117207133D01*
%TO.C,D3*%
X179261864Y-119699180D02*
X179261864Y-118699180D01*
X179499960Y-118699180D01*
X179642817Y-118746800D01*
X179738055Y-118842038D01*
X179785674Y-118937276D01*
X179833293Y-119127752D01*
X179833293Y-119270609D01*
X179785674Y-119461085D01*
X179738055Y-119556323D01*
X179642817Y-119651561D01*
X179499960Y-119699180D01*
X179261864Y-119699180D01*
X180166626Y-118699180D02*
X180785674Y-118699180D01*
X180452340Y-119080133D01*
X180595198Y-119080133D01*
X180690436Y-119127752D01*
X180738055Y-119175371D01*
X180785674Y-119270609D01*
X180785674Y-119508704D01*
X180738055Y-119603942D01*
X180690436Y-119651561D01*
X180595198Y-119699180D01*
X180309483Y-119699180D01*
X180214245Y-119651561D01*
X180166626Y-119603942D01*
%TO.C,D2*%
X178991904Y-117852380D02*
X178991904Y-116852380D01*
X179230000Y-116852380D01*
X179372857Y-116900000D01*
X179468095Y-116995238D01*
X179515714Y-117090476D01*
X179563333Y-117280952D01*
X179563333Y-117423809D01*
X179515714Y-117614285D01*
X179468095Y-117709523D01*
X179372857Y-117804761D01*
X179230000Y-117852380D01*
X178991904Y-117852380D01*
X179944285Y-116947619D02*
X179991904Y-116900000D01*
X180087142Y-116852380D01*
X180325238Y-116852380D01*
X180420476Y-116900000D01*
X180468095Y-116947619D01*
X180515714Y-117042857D01*
X180515714Y-117138095D01*
X180468095Y-117280952D01*
X179896666Y-117852380D01*
X180515714Y-117852380D01*
%TO.C,U2*%
X181364620Y-129237904D02*
X182174144Y-129237904D01*
X182269382Y-129190285D01*
X182317001Y-129142666D01*
X182364620Y-129047428D01*
X182364620Y-128856952D01*
X182317001Y-128761714D01*
X182269382Y-128714095D01*
X182174144Y-128666476D01*
X181364620Y-128666476D01*
X181459859Y-128237904D02*
X181412240Y-128190285D01*
X181364620Y-128095047D01*
X181364620Y-127856952D01*
X181412240Y-127761714D01*
X181459859Y-127714095D01*
X181555097Y-127666476D01*
X181650335Y-127666476D01*
X181793192Y-127714095D01*
X182364620Y-128285523D01*
X182364620Y-127666476D01*
%TO.C,R49*%
X199584820Y-113356077D02*
X199108630Y-113689410D01*
X199584820Y-113927505D02*
X198584820Y-113927505D01*
X198584820Y-113546553D01*
X198632440Y-113451315D01*
X198680059Y-113403696D01*
X198775297Y-113356077D01*
X198918154Y-113356077D01*
X199013392Y-113403696D01*
X199061011Y-113451315D01*
X199108630Y-113546553D01*
X199108630Y-113927505D01*
X198918154Y-112498934D02*
X199584820Y-112498934D01*
X198537201Y-112737029D02*
X199251487Y-112975124D01*
X199251487Y-112356077D01*
X199584820Y-111927505D02*
X199584820Y-111737029D01*
X199537201Y-111641791D01*
X199489582Y-111594172D01*
X199346725Y-111498934D01*
X199156249Y-111451315D01*
X198775297Y-111451315D01*
X198680059Y-111498934D01*
X198632440Y-111546553D01*
X198584820Y-111641791D01*
X198584820Y-111832267D01*
X198632440Y-111927505D01*
X198680059Y-111975124D01*
X198775297Y-112022743D01*
X199013392Y-112022743D01*
X199108630Y-111975124D01*
X199156249Y-111927505D01*
X199203868Y-111832267D01*
X199203868Y-111641791D01*
X199156249Y-111546553D01*
X199108630Y-111498934D01*
X199013392Y-111451315D01*
%TO.C,D4*%
X178431904Y-122382380D02*
X178431904Y-121382380D01*
X178670000Y-121382380D01*
X178812857Y-121430000D01*
X178908095Y-121525238D01*
X178955714Y-121620476D01*
X179003333Y-121810952D01*
X179003333Y-121953809D01*
X178955714Y-122144285D01*
X178908095Y-122239523D01*
X178812857Y-122334761D01*
X178670000Y-122382380D01*
X178431904Y-122382380D01*
X179860476Y-121715714D02*
X179860476Y-122382380D01*
X179622380Y-121334761D02*
X179384285Y-122049047D01*
X180003333Y-122049047D01*
%TO.C,R51*%
X194445400Y-125955117D02*
X193969210Y-126288450D01*
X194445400Y-126526545D02*
X193445400Y-126526545D01*
X193445400Y-126145593D01*
X193493020Y-126050355D01*
X193540639Y-126002736D01*
X193635877Y-125955117D01*
X193778734Y-125955117D01*
X193873972Y-126002736D01*
X193921591Y-126050355D01*
X193969210Y-126145593D01*
X193969210Y-126526545D01*
X193445400Y-125050355D02*
X193445400Y-125526545D01*
X193921591Y-125574164D01*
X193873972Y-125526545D01*
X193826353Y-125431307D01*
X193826353Y-125193212D01*
X193873972Y-125097974D01*
X193921591Y-125050355D01*
X194016829Y-125002736D01*
X194254924Y-125002736D01*
X194350162Y-125050355D01*
X194397781Y-125097974D01*
X194445400Y-125193212D01*
X194445400Y-125431307D01*
X194397781Y-125526545D01*
X194350162Y-125574164D01*
X194445400Y-124050355D02*
X194445400Y-124621783D01*
X194445400Y-124336069D02*
X193445400Y-124336069D01*
X193588258Y-124431307D01*
X193683496Y-124526545D01*
X193731115Y-124621783D01*
%TO.C,U4*%
X195698455Y-118840720D02*
X195698455Y-119650244D01*
X195746074Y-119745482D01*
X195793693Y-119793101D01*
X195888931Y-119840720D01*
X196079407Y-119840720D01*
X196174645Y-119793101D01*
X196222264Y-119745482D01*
X196269883Y-119650244D01*
X196269883Y-118840720D01*
X197174645Y-119174054D02*
X197174645Y-119840720D01*
X196936550Y-118793101D02*
X196698455Y-119507387D01*
X197317502Y-119507387D01*
X194365121Y-119840720D02*
X194031788Y-119364530D01*
X193793693Y-119840720D02*
X193793693Y-118840720D01*
X194174645Y-118840720D01*
X194269883Y-118888340D01*
X194317502Y-118935959D01*
X194365121Y-119031197D01*
X194365121Y-119174054D01*
X194317502Y-119269292D01*
X194269883Y-119316911D01*
X194174645Y-119364530D01*
X193793693Y-119364530D01*
X194793693Y-119840720D02*
X194793693Y-118840720D01*
X195174645Y-118840720D01*
X195269883Y-118888340D01*
X195317502Y-118935959D01*
X195365121Y-119031197D01*
X195365121Y-119174054D01*
X195317502Y-119269292D01*
X195269883Y-119316911D01*
X195174645Y-119364530D01*
X194793693Y-119364530D01*
X195746074Y-118935959D02*
X195793693Y-118888340D01*
X195888931Y-118840720D01*
X196127026Y-118840720D01*
X196222264Y-118888340D01*
X196269883Y-118935959D01*
X196317502Y-119031197D01*
X196317502Y-119126435D01*
X196269883Y-119269292D01*
X195698455Y-119840720D01*
X196317502Y-119840720D01*
X196936550Y-118840720D02*
X197031788Y-118840720D01*
X197127026Y-118888340D01*
X197174645Y-118935959D01*
X197222264Y-119031197D01*
X197269883Y-119221673D01*
X197269883Y-119459768D01*
X197222264Y-119650244D01*
X197174645Y-119745482D01*
X197127026Y-119793101D01*
X197031788Y-119840720D01*
X196936550Y-119840720D01*
X196841312Y-119793101D01*
X196793693Y-119745482D01*
X196746074Y-119650244D01*
X196698455Y-119459768D01*
X196698455Y-119221673D01*
X196746074Y-119031197D01*
X196793693Y-118935959D01*
X196841312Y-118888340D01*
X196936550Y-118840720D01*
X198127026Y-119174054D02*
X198127026Y-119840720D01*
X197888931Y-118793101D02*
X197650836Y-119507387D01*
X198269883Y-119507387D01*
X198841312Y-118840720D02*
X198936550Y-118840720D01*
X199031788Y-118888340D01*
X199079407Y-118935959D01*
X199127026Y-119031197D01*
X199174645Y-119221673D01*
X199174645Y-119459768D01*
X199127026Y-119650244D01*
X199079407Y-119745482D01*
X199031788Y-119793101D01*
X198936550Y-119840720D01*
X198841312Y-119840720D01*
X198746074Y-119793101D01*
X198698455Y-119745482D01*
X198650836Y-119650244D01*
X198603217Y-119459768D01*
X198603217Y-119221673D01*
X198650836Y-119031197D01*
X198698455Y-118935959D01*
X198746074Y-118888340D01*
X198841312Y-118840720D01*
X200905360Y-121685520D02*
X200905360Y-121923616D01*
X200667264Y-121828378D02*
X200905360Y-121923616D01*
X201143455Y-121828378D01*
X200762502Y-122114092D02*
X200905360Y-121923616D01*
X201048217Y-122114092D01*
X200905360Y-121685520D02*
X200905360Y-121923616D01*
X200667264Y-121828378D02*
X200905360Y-121923616D01*
X201143455Y-121828378D01*
X200762502Y-122114092D02*
X200905360Y-121923616D01*
X201048217Y-122114092D01*
%TO.C,D1*%
X179031904Y-115912380D02*
X179031904Y-114912380D01*
X179270000Y-114912380D01*
X179412857Y-114960000D01*
X179508095Y-115055238D01*
X179555714Y-115150476D01*
X179603333Y-115340952D01*
X179603333Y-115483809D01*
X179555714Y-115674285D01*
X179508095Y-115769523D01*
X179412857Y-115864761D01*
X179270000Y-115912380D01*
X179031904Y-115912380D01*
X180555714Y-115912380D02*
X179984285Y-115912380D01*
X180270000Y-115912380D02*
X180270000Y-114912380D01*
X180174761Y-115055238D01*
X180079523Y-115150476D01*
X179984285Y-115198095D01*
%TO.C,R2*%
X188878740Y-115635566D02*
X188402550Y-115968900D01*
X188878740Y-116206995D02*
X187878740Y-116206995D01*
X187878740Y-115826042D01*
X187926360Y-115730804D01*
X187973979Y-115683185D01*
X188069217Y-115635566D01*
X188212074Y-115635566D01*
X188307312Y-115683185D01*
X188354931Y-115730804D01*
X188402550Y-115826042D01*
X188402550Y-116206995D01*
X187973979Y-115254614D02*
X187926360Y-115206995D01*
X187878740Y-115111757D01*
X187878740Y-114873661D01*
X187926360Y-114778423D01*
X187973979Y-114730804D01*
X188069217Y-114683185D01*
X188164455Y-114683185D01*
X188307312Y-114730804D01*
X188878740Y-115302233D01*
X188878740Y-114683185D01*
%TO.C,R48*%
X194407142Y-111932380D02*
X194073809Y-111456190D01*
X193835714Y-111932380D02*
X193835714Y-110932380D01*
X194216666Y-110932380D01*
X194311904Y-110980000D01*
X194359523Y-111027619D01*
X194407142Y-111122857D01*
X194407142Y-111265714D01*
X194359523Y-111360952D01*
X194311904Y-111408571D01*
X194216666Y-111456190D01*
X193835714Y-111456190D01*
X195264285Y-111265714D02*
X195264285Y-111932380D01*
X195026190Y-110884761D02*
X194788095Y-111599047D01*
X195407142Y-111599047D01*
X195930952Y-111360952D02*
X195835714Y-111313333D01*
X195788095Y-111265714D01*
X195740476Y-111170476D01*
X195740476Y-111122857D01*
X195788095Y-111027619D01*
X195835714Y-110980000D01*
X195930952Y-110932380D01*
X196121428Y-110932380D01*
X196216666Y-110980000D01*
X196264285Y-111027619D01*
X196311904Y-111122857D01*
X196311904Y-111170476D01*
X196264285Y-111265714D01*
X196216666Y-111313333D01*
X196121428Y-111360952D01*
X195930952Y-111360952D01*
X195835714Y-111408571D01*
X195788095Y-111456190D01*
X195740476Y-111551428D01*
X195740476Y-111741904D01*
X195788095Y-111837142D01*
X195835714Y-111884761D01*
X195930952Y-111932380D01*
X196121428Y-111932380D01*
X196216666Y-111884761D01*
X196264285Y-111837142D01*
X196311904Y-111741904D01*
X196311904Y-111551428D01*
X196264285Y-111456190D01*
X196216666Y-111408571D01*
X196121428Y-111360952D01*
%TO.C,J14*%
X207375476Y-131697380D02*
X207375476Y-132411666D01*
X207327857Y-132554523D01*
X207232619Y-132649761D01*
X207089761Y-132697380D01*
X206994523Y-132697380D01*
X208375476Y-132697380D02*
X207804047Y-132697380D01*
X208089761Y-132697380D02*
X208089761Y-131697380D01*
X207994523Y-131840238D01*
X207899285Y-131935476D01*
X207804047Y-131983095D01*
X209232619Y-132030714D02*
X209232619Y-132697380D01*
X208994523Y-131649761D02*
X208756428Y-132364047D01*
X209375476Y-132364047D01*
%TO.C,R31*%
X130407142Y-129502380D02*
X130073809Y-129026190D01*
X129835714Y-129502380D02*
X129835714Y-128502380D01*
X130216666Y-128502380D01*
X130311904Y-128550000D01*
X130359523Y-128597619D01*
X130407142Y-128692857D01*
X130407142Y-128835714D01*
X130359523Y-128930952D01*
X130311904Y-128978571D01*
X130216666Y-129026190D01*
X129835714Y-129026190D01*
X130740476Y-128502380D02*
X131359523Y-128502380D01*
X131026190Y-128883333D01*
X131169047Y-128883333D01*
X131264285Y-128930952D01*
X131311904Y-128978571D01*
X131359523Y-129073809D01*
X131359523Y-129311904D01*
X131311904Y-129407142D01*
X131264285Y-129454761D01*
X131169047Y-129502380D01*
X130883333Y-129502380D01*
X130788095Y-129454761D01*
X130740476Y-129407142D01*
X132311904Y-129502380D02*
X131740476Y-129502380D01*
X132026190Y-129502380D02*
X132026190Y-128502380D01*
X131930952Y-128645238D01*
X131835714Y-128740476D01*
X131740476Y-128788095D01*
%TO.C,J15*%
X128592380Y-102299523D02*
X129306666Y-102299523D01*
X129449523Y-102347142D01*
X129544761Y-102442380D01*
X129592380Y-102585238D01*
X129592380Y-102680476D01*
X129592380Y-101299523D02*
X129592380Y-101870952D01*
X129592380Y-101585238D02*
X128592380Y-101585238D01*
X128735238Y-101680476D01*
X128830476Y-101775714D01*
X128878095Y-101870952D01*
X128592380Y-100394761D02*
X128592380Y-100870952D01*
X129068571Y-100918571D01*
X129020952Y-100870952D01*
X128973333Y-100775714D01*
X128973333Y-100537619D01*
X129020952Y-100442380D01*
X129068571Y-100394761D01*
X129163809Y-100347142D01*
X129401904Y-100347142D01*
X129497142Y-100394761D01*
X129544761Y-100442380D01*
X129592380Y-100537619D01*
X129592380Y-100775714D01*
X129544761Y-100870952D01*
X129497142Y-100918571D01*
%TO.C,J18*%
X159770476Y-104722380D02*
X159770476Y-105436666D01*
X159722857Y-105579523D01*
X159627619Y-105674761D01*
X159484761Y-105722380D01*
X159389523Y-105722380D01*
X160770476Y-105722380D02*
X160199047Y-105722380D01*
X160484761Y-105722380D02*
X160484761Y-104722380D01*
X160389523Y-104865238D01*
X160294285Y-104960476D01*
X160199047Y-105008095D01*
X161341904Y-105150952D02*
X161246666Y-105103333D01*
X161199047Y-105055714D01*
X161151428Y-104960476D01*
X161151428Y-104912857D01*
X161199047Y-104817619D01*
X161246666Y-104770000D01*
X161341904Y-104722380D01*
X161532380Y-104722380D01*
X161627619Y-104770000D01*
X161675238Y-104817619D01*
X161722857Y-104912857D01*
X161722857Y-104960476D01*
X161675238Y-105055714D01*
X161627619Y-105103333D01*
X161532380Y-105150952D01*
X161341904Y-105150952D01*
X161246666Y-105198571D01*
X161199047Y-105246190D01*
X161151428Y-105341428D01*
X161151428Y-105531904D01*
X161199047Y-105627142D01*
X161246666Y-105674761D01*
X161341904Y-105722380D01*
X161532380Y-105722380D01*
X161627619Y-105674761D01*
X161675238Y-105627142D01*
X161722857Y-105531904D01*
X161722857Y-105341428D01*
X161675238Y-105246190D01*
X161627619Y-105198571D01*
X161532380Y-105150952D01*
%TO.C,R20*%
X140047142Y-139952380D02*
X139713809Y-139476190D01*
X139475714Y-139952380D02*
X139475714Y-138952380D01*
X139856666Y-138952380D01*
X139951904Y-139000000D01*
X139999523Y-139047619D01*
X140047142Y-139142857D01*
X140047142Y-139285714D01*
X139999523Y-139380952D01*
X139951904Y-139428571D01*
X139856666Y-139476190D01*
X139475714Y-139476190D01*
X140428095Y-139047619D02*
X140475714Y-139000000D01*
X140570952Y-138952380D01*
X140809047Y-138952380D01*
X140904285Y-139000000D01*
X140951904Y-139047619D01*
X140999523Y-139142857D01*
X140999523Y-139238095D01*
X140951904Y-139380952D01*
X140380476Y-139952380D01*
X140999523Y-139952380D01*
X141618571Y-138952380D02*
X141713809Y-138952380D01*
X141809047Y-139000000D01*
X141856666Y-139047619D01*
X141904285Y-139142857D01*
X141951904Y-139333333D01*
X141951904Y-139571428D01*
X141904285Y-139761904D01*
X141856666Y-139857142D01*
X141809047Y-139904761D01*
X141713809Y-139952380D01*
X141618571Y-139952380D01*
X141523333Y-139904761D01*
X141475714Y-139857142D01*
X141428095Y-139761904D01*
X141380476Y-139571428D01*
X141380476Y-139333333D01*
X141428095Y-139142857D01*
X141475714Y-139047619D01*
X141523333Y-139000000D01*
X141618571Y-138952380D01*
%TO.C,R6*%
X178863333Y-120972380D02*
X178530000Y-120496190D01*
X178291904Y-120972380D02*
X178291904Y-119972380D01*
X178672857Y-119972380D01*
X178768095Y-120020000D01*
X178815714Y-120067619D01*
X178863333Y-120162857D01*
X178863333Y-120305714D01*
X178815714Y-120400952D01*
X178768095Y-120448571D01*
X178672857Y-120496190D01*
X178291904Y-120496190D01*
X179720476Y-119972380D02*
X179530000Y-119972380D01*
X179434761Y-120020000D01*
X179387142Y-120067619D01*
X179291904Y-120210476D01*
X179244285Y-120400952D01*
X179244285Y-120781904D01*
X179291904Y-120877142D01*
X179339523Y-120924761D01*
X179434761Y-120972380D01*
X179625238Y-120972380D01*
X179720476Y-120924761D01*
X179768095Y-120877142D01*
X179815714Y-120781904D01*
X179815714Y-120543809D01*
X179768095Y-120448571D01*
X179720476Y-120400952D01*
X179625238Y-120353333D01*
X179434761Y-120353333D01*
X179339523Y-120400952D01*
X179291904Y-120448571D01*
X179244285Y-120543809D01*
%TO.C,R1*%
X201353333Y-120452380D02*
X201020000Y-119976190D01*
X200781904Y-120452380D02*
X200781904Y-119452380D01*
X201162857Y-119452380D01*
X201258095Y-119500000D01*
X201305714Y-119547619D01*
X201353333Y-119642857D01*
X201353333Y-119785714D01*
X201305714Y-119880952D01*
X201258095Y-119928571D01*
X201162857Y-119976190D01*
X200781904Y-119976190D01*
X202305714Y-120452380D02*
X201734285Y-120452380D01*
X202020000Y-120452380D02*
X202020000Y-119452380D01*
X201924761Y-119595238D01*
X201829523Y-119690476D01*
X201734285Y-119738095D01*
%TO.C,R10*%
X206657142Y-114427380D02*
X206323809Y-113951190D01*
X206085714Y-114427380D02*
X206085714Y-113427380D01*
X206466666Y-113427380D01*
X206561904Y-113475000D01*
X206609523Y-113522619D01*
X206657142Y-113617857D01*
X206657142Y-113760714D01*
X206609523Y-113855952D01*
X206561904Y-113903571D01*
X206466666Y-113951190D01*
X206085714Y-113951190D01*
X207609523Y-114427380D02*
X207038095Y-114427380D01*
X207323809Y-114427380D02*
X207323809Y-113427380D01*
X207228571Y-113570238D01*
X207133333Y-113665476D01*
X207038095Y-113713095D01*
X208228571Y-113427380D02*
X208323809Y-113427380D01*
X208419047Y-113475000D01*
X208466666Y-113522619D01*
X208514285Y-113617857D01*
X208561904Y-113808333D01*
X208561904Y-114046428D01*
X208514285Y-114236904D01*
X208466666Y-114332142D01*
X208419047Y-114379761D01*
X208323809Y-114427380D01*
X208228571Y-114427380D01*
X208133333Y-114379761D01*
X208085714Y-114332142D01*
X208038095Y-114236904D01*
X207990476Y-114046428D01*
X207990476Y-113808333D01*
X208038095Y-113617857D01*
X208085714Y-113522619D01*
X208133333Y-113475000D01*
X208228571Y-113427380D01*
%TO.C,R40*%
X150077142Y-118472380D02*
X149743809Y-117996190D01*
X149505714Y-118472380D02*
X149505714Y-117472380D01*
X149886666Y-117472380D01*
X149981904Y-117520000D01*
X150029523Y-117567619D01*
X150077142Y-117662857D01*
X150077142Y-117805714D01*
X150029523Y-117900952D01*
X149981904Y-117948571D01*
X149886666Y-117996190D01*
X149505714Y-117996190D01*
X150934285Y-117805714D02*
X150934285Y-118472380D01*
X150696190Y-117424761D02*
X150458095Y-118139047D01*
X151077142Y-118139047D01*
X151648571Y-117472380D02*
X151743809Y-117472380D01*
X151839047Y-117520000D01*
X151886666Y-117567619D01*
X151934285Y-117662857D01*
X151981904Y-117853333D01*
X151981904Y-118091428D01*
X151934285Y-118281904D01*
X151886666Y-118377142D01*
X151839047Y-118424761D01*
X151743809Y-118472380D01*
X151648571Y-118472380D01*
X151553333Y-118424761D01*
X151505714Y-118377142D01*
X151458095Y-118281904D01*
X151410476Y-118091428D01*
X151410476Y-117853333D01*
X151458095Y-117662857D01*
X151505714Y-117567619D01*
X151553333Y-117520000D01*
X151648571Y-117472380D01*
%TO.C,R27*%
X150002380Y-140222857D02*
X149526190Y-140556190D01*
X150002380Y-140794285D02*
X149002380Y-140794285D01*
X149002380Y-140413333D01*
X149050000Y-140318095D01*
X149097619Y-140270476D01*
X149192857Y-140222857D01*
X149335714Y-140222857D01*
X149430952Y-140270476D01*
X149478571Y-140318095D01*
X149526190Y-140413333D01*
X149526190Y-140794285D01*
X149097619Y-139841904D02*
X149050000Y-139794285D01*
X149002380Y-139699047D01*
X149002380Y-139460952D01*
X149050000Y-139365714D01*
X149097619Y-139318095D01*
X149192857Y-139270476D01*
X149288095Y-139270476D01*
X149430952Y-139318095D01*
X150002380Y-139889523D01*
X150002380Y-139270476D01*
X149002380Y-138937142D02*
X149002380Y-138270476D01*
X150002380Y-138699047D01*
%TO.C,R37*%
X149777142Y-123762380D02*
X149443809Y-123286190D01*
X149205714Y-123762380D02*
X149205714Y-122762380D01*
X149586666Y-122762380D01*
X149681904Y-122810000D01*
X149729523Y-122857619D01*
X149777142Y-122952857D01*
X149777142Y-123095714D01*
X149729523Y-123190952D01*
X149681904Y-123238571D01*
X149586666Y-123286190D01*
X149205714Y-123286190D01*
X150110476Y-122762380D02*
X150729523Y-122762380D01*
X150396190Y-123143333D01*
X150539047Y-123143333D01*
X150634285Y-123190952D01*
X150681904Y-123238571D01*
X150729523Y-123333809D01*
X150729523Y-123571904D01*
X150681904Y-123667142D01*
X150634285Y-123714761D01*
X150539047Y-123762380D01*
X150253333Y-123762380D01*
X150158095Y-123714761D01*
X150110476Y-123667142D01*
X151062857Y-122762380D02*
X151729523Y-122762380D01*
X151300952Y-123762380D01*
%TO.C,R34*%
X130407142Y-127542380D02*
X130073809Y-127066190D01*
X129835714Y-127542380D02*
X129835714Y-126542380D01*
X130216666Y-126542380D01*
X130311904Y-126590000D01*
X130359523Y-126637619D01*
X130407142Y-126732857D01*
X130407142Y-126875714D01*
X130359523Y-126970952D01*
X130311904Y-127018571D01*
X130216666Y-127066190D01*
X129835714Y-127066190D01*
X130740476Y-126542380D02*
X131359523Y-126542380D01*
X131026190Y-126923333D01*
X131169047Y-126923333D01*
X131264285Y-126970952D01*
X131311904Y-127018571D01*
X131359523Y-127113809D01*
X131359523Y-127351904D01*
X131311904Y-127447142D01*
X131264285Y-127494761D01*
X131169047Y-127542380D01*
X130883333Y-127542380D01*
X130788095Y-127494761D01*
X130740476Y-127447142D01*
X132216666Y-126875714D02*
X132216666Y-127542380D01*
X131978571Y-126494761D02*
X131740476Y-127209047D01*
X132359523Y-127209047D01*
%TO.C,R16*%
X189052380Y-105642857D02*
X188576190Y-105976190D01*
X189052380Y-106214285D02*
X188052380Y-106214285D01*
X188052380Y-105833333D01*
X188100000Y-105738095D01*
X188147619Y-105690476D01*
X188242857Y-105642857D01*
X188385714Y-105642857D01*
X188480952Y-105690476D01*
X188528571Y-105738095D01*
X188576190Y-105833333D01*
X188576190Y-106214285D01*
X189052380Y-104690476D02*
X189052380Y-105261904D01*
X189052380Y-104976190D02*
X188052380Y-104976190D01*
X188195238Y-105071428D01*
X188290476Y-105166666D01*
X188338095Y-105261904D01*
X188052380Y-103833333D02*
X188052380Y-104023809D01*
X188100000Y-104119047D01*
X188147619Y-104166666D01*
X188290476Y-104261904D01*
X188480952Y-104309523D01*
X188861904Y-104309523D01*
X188957142Y-104261904D01*
X189004761Y-104214285D01*
X189052380Y-104119047D01*
X189052380Y-103928571D01*
X189004761Y-103833333D01*
X188957142Y-103785714D01*
X188861904Y-103738095D01*
X188623809Y-103738095D01*
X188528571Y-103785714D01*
X188480952Y-103833333D01*
X188433333Y-103928571D01*
X188433333Y-104119047D01*
X188480952Y-104214285D01*
X188528571Y-104261904D01*
X188623809Y-104309523D01*
%TO.C,J7*%
X134266666Y-137522380D02*
X134266666Y-138236666D01*
X134219047Y-138379523D01*
X134123809Y-138474761D01*
X133980952Y-138522380D01*
X133885714Y-138522380D01*
X134647619Y-137522380D02*
X135314285Y-137522380D01*
X134885714Y-138522380D01*
%TO.C,R46*%
X132612380Y-140882857D02*
X132136190Y-141216190D01*
X132612380Y-141454285D02*
X131612380Y-141454285D01*
X131612380Y-141073333D01*
X131660000Y-140978095D01*
X131707619Y-140930476D01*
X131802857Y-140882857D01*
X131945714Y-140882857D01*
X132040952Y-140930476D01*
X132088571Y-140978095D01*
X132136190Y-141073333D01*
X132136190Y-141454285D01*
X131945714Y-140025714D02*
X132612380Y-140025714D01*
X131564761Y-140263809D02*
X132279047Y-140501904D01*
X132279047Y-139882857D01*
X131612380Y-139073333D02*
X131612380Y-139263809D01*
X131660000Y-139359047D01*
X131707619Y-139406666D01*
X131850476Y-139501904D01*
X132040952Y-139549523D01*
X132421904Y-139549523D01*
X132517142Y-139501904D01*
X132564761Y-139454285D01*
X132612380Y-139359047D01*
X132612380Y-139168571D01*
X132564761Y-139073333D01*
X132517142Y-139025714D01*
X132421904Y-138978095D01*
X132183809Y-138978095D01*
X132088571Y-139025714D01*
X132040952Y-139073333D01*
X131993333Y-139168571D01*
X131993333Y-139359047D01*
X132040952Y-139454285D01*
X132088571Y-139501904D01*
X132183809Y-139549523D01*
%TO.C,J5*%
X247551666Y-104737380D02*
X247551666Y-105451666D01*
X247504047Y-105594523D01*
X247408809Y-105689761D01*
X247265952Y-105737380D01*
X247170714Y-105737380D01*
X248504047Y-104737380D02*
X248027857Y-104737380D01*
X247980238Y-105213571D01*
X248027857Y-105165952D01*
X248123095Y-105118333D01*
X248361190Y-105118333D01*
X248456428Y-105165952D01*
X248504047Y-105213571D01*
X248551666Y-105308809D01*
X248551666Y-105546904D01*
X248504047Y-105642142D01*
X248456428Y-105689761D01*
X248361190Y-105737380D01*
X248123095Y-105737380D01*
X248027857Y-105689761D01*
X247980238Y-105642142D01*
%TO.C,R36*%
X136252380Y-136502857D02*
X135776190Y-136836190D01*
X136252380Y-137074285D02*
X135252380Y-137074285D01*
X135252380Y-136693333D01*
X135300000Y-136598095D01*
X135347619Y-136550476D01*
X135442857Y-136502857D01*
X135585714Y-136502857D01*
X135680952Y-136550476D01*
X135728571Y-136598095D01*
X135776190Y-136693333D01*
X135776190Y-137074285D01*
X135252380Y-136169523D02*
X135252380Y-135550476D01*
X135633333Y-135883809D01*
X135633333Y-135740952D01*
X135680952Y-135645714D01*
X135728571Y-135598095D01*
X135823809Y-135550476D01*
X136061904Y-135550476D01*
X136157142Y-135598095D01*
X136204761Y-135645714D01*
X136252380Y-135740952D01*
X136252380Y-136026666D01*
X136204761Y-136121904D01*
X136157142Y-136169523D01*
X135252380Y-134693333D02*
X135252380Y-134883809D01*
X135300000Y-134979047D01*
X135347619Y-135026666D01*
X135490476Y-135121904D01*
X135680952Y-135169523D01*
X136061904Y-135169523D01*
X136157142Y-135121904D01*
X136204761Y-135074285D01*
X136252380Y-134979047D01*
X136252380Y-134788571D01*
X136204761Y-134693333D01*
X136157142Y-134645714D01*
X136061904Y-134598095D01*
X135823809Y-134598095D01*
X135728571Y-134645714D01*
X135680952Y-134693333D01*
X135633333Y-134788571D01*
X135633333Y-134979047D01*
X135680952Y-135074285D01*
X135728571Y-135121904D01*
X135823809Y-135169523D01*
%TO.C,R41*%
X155047142Y-108182380D02*
X154713809Y-107706190D01*
X154475714Y-108182380D02*
X154475714Y-107182380D01*
X154856666Y-107182380D01*
X154951904Y-107230000D01*
X154999523Y-107277619D01*
X155047142Y-107372857D01*
X155047142Y-107515714D01*
X154999523Y-107610952D01*
X154951904Y-107658571D01*
X154856666Y-107706190D01*
X154475714Y-107706190D01*
X155904285Y-107515714D02*
X155904285Y-108182380D01*
X155666190Y-107134761D02*
X155428095Y-107849047D01*
X156047142Y-107849047D01*
X156951904Y-108182380D02*
X156380476Y-108182380D01*
X156666190Y-108182380D02*
X156666190Y-107182380D01*
X156570952Y-107325238D01*
X156475714Y-107420476D01*
X156380476Y-107468095D01*
%TO.C,J8*%
X123766666Y-119372380D02*
X123766666Y-120086666D01*
X123719047Y-120229523D01*
X123623809Y-120324761D01*
X123480952Y-120372380D01*
X123385714Y-120372380D01*
X124385714Y-119800952D02*
X124290476Y-119753333D01*
X124242857Y-119705714D01*
X124195238Y-119610476D01*
X124195238Y-119562857D01*
X124242857Y-119467619D01*
X124290476Y-119420000D01*
X124385714Y-119372380D01*
X124576190Y-119372380D01*
X124671428Y-119420000D01*
X124719047Y-119467619D01*
X124766666Y-119562857D01*
X124766666Y-119610476D01*
X124719047Y-119705714D01*
X124671428Y-119753333D01*
X124576190Y-119800952D01*
X124385714Y-119800952D01*
X124290476Y-119848571D01*
X124242857Y-119896190D01*
X124195238Y-119991428D01*
X124195238Y-120181904D01*
X124242857Y-120277142D01*
X124290476Y-120324761D01*
X124385714Y-120372380D01*
X124576190Y-120372380D01*
X124671428Y-120324761D01*
X124719047Y-120277142D01*
X124766666Y-120181904D01*
X124766666Y-119991428D01*
X124719047Y-119896190D01*
X124671428Y-119848571D01*
X124576190Y-119800952D01*
%TO.C,R33*%
X154202380Y-140222857D02*
X153726190Y-140556190D01*
X154202380Y-140794285D02*
X153202380Y-140794285D01*
X153202380Y-140413333D01*
X153250000Y-140318095D01*
X153297619Y-140270476D01*
X153392857Y-140222857D01*
X153535714Y-140222857D01*
X153630952Y-140270476D01*
X153678571Y-140318095D01*
X153726190Y-140413333D01*
X153726190Y-140794285D01*
X153202380Y-139889523D02*
X153202380Y-139270476D01*
X153583333Y-139603809D01*
X153583333Y-139460952D01*
X153630952Y-139365714D01*
X153678571Y-139318095D01*
X153773809Y-139270476D01*
X154011904Y-139270476D01*
X154107142Y-139318095D01*
X154154761Y-139365714D01*
X154202380Y-139460952D01*
X154202380Y-139746666D01*
X154154761Y-139841904D01*
X154107142Y-139889523D01*
X153202380Y-138937142D02*
X153202380Y-138318095D01*
X153583333Y-138651428D01*
X153583333Y-138508571D01*
X153630952Y-138413333D01*
X153678571Y-138365714D01*
X153773809Y-138318095D01*
X154011904Y-138318095D01*
X154107142Y-138365714D01*
X154154761Y-138413333D01*
X154202380Y-138508571D01*
X154202380Y-138794285D01*
X154154761Y-138889523D01*
X154107142Y-138937142D01*
%TO.C,U3*%
X147722380Y-112571904D02*
X148531904Y-112571904D01*
X148627142Y-112524285D01*
X148674761Y-112476666D01*
X148722380Y-112381428D01*
X148722380Y-112190952D01*
X148674761Y-112095714D01*
X148627142Y-112048095D01*
X148531904Y-112000476D01*
X147722380Y-112000476D01*
X147722380Y-111619523D02*
X147722380Y-111000476D01*
X148103333Y-111333809D01*
X148103333Y-111190952D01*
X148150952Y-111095714D01*
X148198571Y-111048095D01*
X148293809Y-111000476D01*
X148531904Y-111000476D01*
X148627142Y-111048095D01*
X148674761Y-111095714D01*
X148722380Y-111190952D01*
X148722380Y-111476666D01*
X148674761Y-111571904D01*
X148627142Y-111619523D01*
%TO.C,J11*%
X129040476Y-103702380D02*
X129040476Y-104416666D01*
X128992857Y-104559523D01*
X128897619Y-104654761D01*
X128754761Y-104702380D01*
X128659523Y-104702380D01*
X130040476Y-104702380D02*
X129469047Y-104702380D01*
X129754761Y-104702380D02*
X129754761Y-103702380D01*
X129659523Y-103845238D01*
X129564285Y-103940476D01*
X129469047Y-103988095D01*
X130992857Y-104702380D02*
X130421428Y-104702380D01*
X130707142Y-104702380D02*
X130707142Y-103702380D01*
X130611904Y-103845238D01*
X130516666Y-103940476D01*
X130421428Y-103988095D01*
%TO.C,R24*%
X152162380Y-140222857D02*
X151686190Y-140556190D01*
X152162380Y-140794285D02*
X151162380Y-140794285D01*
X151162380Y-140413333D01*
X151210000Y-140318095D01*
X151257619Y-140270476D01*
X151352857Y-140222857D01*
X151495714Y-140222857D01*
X151590952Y-140270476D01*
X151638571Y-140318095D01*
X151686190Y-140413333D01*
X151686190Y-140794285D01*
X151257619Y-139841904D02*
X151210000Y-139794285D01*
X151162380Y-139699047D01*
X151162380Y-139460952D01*
X151210000Y-139365714D01*
X151257619Y-139318095D01*
X151352857Y-139270476D01*
X151448095Y-139270476D01*
X151590952Y-139318095D01*
X152162380Y-139889523D01*
X152162380Y-139270476D01*
X151495714Y-138413333D02*
X152162380Y-138413333D01*
X151114761Y-138651428D02*
X151829047Y-138889523D01*
X151829047Y-138270476D01*
%TO.C,R43*%
X150047142Y-119732380D02*
X149713809Y-119256190D01*
X149475714Y-119732380D02*
X149475714Y-118732380D01*
X149856666Y-118732380D01*
X149951904Y-118780000D01*
X149999523Y-118827619D01*
X150047142Y-118922857D01*
X150047142Y-119065714D01*
X149999523Y-119160952D01*
X149951904Y-119208571D01*
X149856666Y-119256190D01*
X149475714Y-119256190D01*
X150904285Y-119065714D02*
X150904285Y-119732380D01*
X150666190Y-118684761D02*
X150428095Y-119399047D01*
X151047142Y-119399047D01*
X151332857Y-118732380D02*
X151951904Y-118732380D01*
X151618571Y-119113333D01*
X151761428Y-119113333D01*
X151856666Y-119160952D01*
X151904285Y-119208571D01*
X151951904Y-119303809D01*
X151951904Y-119541904D01*
X151904285Y-119637142D01*
X151856666Y-119684761D01*
X151761428Y-119732380D01*
X151475714Y-119732380D01*
X151380476Y-119684761D01*
X151332857Y-119637142D01*
%TO.C,R7*%
X210283333Y-119452380D02*
X209950000Y-118976190D01*
X209711904Y-119452380D02*
X209711904Y-118452380D01*
X210092857Y-118452380D01*
X210188095Y-118500000D01*
X210235714Y-118547619D01*
X210283333Y-118642857D01*
X210283333Y-118785714D01*
X210235714Y-118880952D01*
X210188095Y-118928571D01*
X210092857Y-118976190D01*
X209711904Y-118976190D01*
X210616666Y-118452380D02*
X211283333Y-118452380D01*
X210854761Y-119452380D01*
%TO.C,R28*%
X130397142Y-131472380D02*
X130063809Y-130996190D01*
X129825714Y-131472380D02*
X129825714Y-130472380D01*
X130206666Y-130472380D01*
X130301904Y-130520000D01*
X130349523Y-130567619D01*
X130397142Y-130662857D01*
X130397142Y-130805714D01*
X130349523Y-130900952D01*
X130301904Y-130948571D01*
X130206666Y-130996190D01*
X129825714Y-130996190D01*
X130778095Y-130567619D02*
X130825714Y-130520000D01*
X130920952Y-130472380D01*
X131159047Y-130472380D01*
X131254285Y-130520000D01*
X131301904Y-130567619D01*
X131349523Y-130662857D01*
X131349523Y-130758095D01*
X131301904Y-130900952D01*
X130730476Y-131472380D01*
X131349523Y-131472380D01*
X131920952Y-130900952D02*
X131825714Y-130853333D01*
X131778095Y-130805714D01*
X131730476Y-130710476D01*
X131730476Y-130662857D01*
X131778095Y-130567619D01*
X131825714Y-130520000D01*
X131920952Y-130472380D01*
X132111428Y-130472380D01*
X132206666Y-130520000D01*
X132254285Y-130567619D01*
X132301904Y-130662857D01*
X132301904Y-130710476D01*
X132254285Y-130805714D01*
X132206666Y-130853333D01*
X132111428Y-130900952D01*
X131920952Y-130900952D01*
X131825714Y-130948571D01*
X131778095Y-130996190D01*
X131730476Y-131091428D01*
X131730476Y-131281904D01*
X131778095Y-131377142D01*
X131825714Y-131424761D01*
X131920952Y-131472380D01*
X132111428Y-131472380D01*
X132206666Y-131424761D01*
X132254285Y-131377142D01*
X132301904Y-131281904D01*
X132301904Y-131091428D01*
X132254285Y-130996190D01*
X132206666Y-130948571D01*
X132111428Y-130900952D01*
%TO.C,R14*%
X199477380Y-106192857D02*
X199001190Y-106526190D01*
X199477380Y-106764285D02*
X198477380Y-106764285D01*
X198477380Y-106383333D01*
X198525000Y-106288095D01*
X198572619Y-106240476D01*
X198667857Y-106192857D01*
X198810714Y-106192857D01*
X198905952Y-106240476D01*
X198953571Y-106288095D01*
X199001190Y-106383333D01*
X199001190Y-106764285D01*
X199477380Y-105240476D02*
X199477380Y-105811904D01*
X199477380Y-105526190D02*
X198477380Y-105526190D01*
X198620238Y-105621428D01*
X198715476Y-105716666D01*
X198763095Y-105811904D01*
X198810714Y-104383333D02*
X199477380Y-104383333D01*
X198429761Y-104621428D02*
X199144047Y-104859523D01*
X199144047Y-104240476D01*
%TO.C,J12*%
X216175476Y-104997380D02*
X216175476Y-105711666D01*
X216127857Y-105854523D01*
X216032619Y-105949761D01*
X215889761Y-105997380D01*
X215794523Y-105997380D01*
X217175476Y-105997380D02*
X216604047Y-105997380D01*
X216889761Y-105997380D02*
X216889761Y-104997380D01*
X216794523Y-105140238D01*
X216699285Y-105235476D01*
X216604047Y-105283095D01*
X217556428Y-105092619D02*
X217604047Y-105045000D01*
X217699285Y-104997380D01*
X217937380Y-104997380D01*
X218032619Y-105045000D01*
X218080238Y-105092619D01*
X218127857Y-105187857D01*
X218127857Y-105283095D01*
X218080238Y-105425952D01*
X217508809Y-105997380D01*
X218127857Y-105997380D01*
%TO.C,R39*%
X155047142Y-106222380D02*
X154713809Y-105746190D01*
X154475714Y-106222380D02*
X154475714Y-105222380D01*
X154856666Y-105222380D01*
X154951904Y-105270000D01*
X154999523Y-105317619D01*
X155047142Y-105412857D01*
X155047142Y-105555714D01*
X154999523Y-105650952D01*
X154951904Y-105698571D01*
X154856666Y-105746190D01*
X154475714Y-105746190D01*
X155380476Y-105222380D02*
X155999523Y-105222380D01*
X155666190Y-105603333D01*
X155809047Y-105603333D01*
X155904285Y-105650952D01*
X155951904Y-105698571D01*
X155999523Y-105793809D01*
X155999523Y-106031904D01*
X155951904Y-106127142D01*
X155904285Y-106174761D01*
X155809047Y-106222380D01*
X155523333Y-106222380D01*
X155428095Y-106174761D01*
X155380476Y-106127142D01*
X156475714Y-106222380D02*
X156666190Y-106222380D01*
X156761428Y-106174761D01*
X156809047Y-106127142D01*
X156904285Y-105984285D01*
X156951904Y-105793809D01*
X156951904Y-105412857D01*
X156904285Y-105317619D01*
X156856666Y-105270000D01*
X156761428Y-105222380D01*
X156570952Y-105222380D01*
X156475714Y-105270000D01*
X156428095Y-105317619D01*
X156380476Y-105412857D01*
X156380476Y-105650952D01*
X156428095Y-105746190D01*
X156475714Y-105793809D01*
X156570952Y-105841428D01*
X156761428Y-105841428D01*
X156856666Y-105793809D01*
X156904285Y-105746190D01*
X156951904Y-105650952D01*
%TO.C,R9*%
X210013333Y-116162380D02*
X209680000Y-115686190D01*
X209441904Y-116162380D02*
X209441904Y-115162380D01*
X209822857Y-115162380D01*
X209918095Y-115210000D01*
X209965714Y-115257619D01*
X210013333Y-115352857D01*
X210013333Y-115495714D01*
X209965714Y-115590952D01*
X209918095Y-115638571D01*
X209822857Y-115686190D01*
X209441904Y-115686190D01*
X210489523Y-116162380D02*
X210680000Y-116162380D01*
X210775238Y-116114761D01*
X210822857Y-116067142D01*
X210918095Y-115924285D01*
X210965714Y-115733809D01*
X210965714Y-115352857D01*
X210918095Y-115257619D01*
X210870476Y-115210000D01*
X210775238Y-115162380D01*
X210584761Y-115162380D01*
X210489523Y-115210000D01*
X210441904Y-115257619D01*
X210394285Y-115352857D01*
X210394285Y-115590952D01*
X210441904Y-115686190D01*
X210489523Y-115733809D01*
X210584761Y-115781428D01*
X210775238Y-115781428D01*
X210870476Y-115733809D01*
X210918095Y-115686190D01*
X210965714Y-115590952D01*
%TO.C,U1*%
X151868095Y-136522380D02*
X151868095Y-137331904D01*
X151915714Y-137427142D01*
X151963333Y-137474761D01*
X152058571Y-137522380D01*
X152249047Y-137522380D01*
X152344285Y-137474761D01*
X152391904Y-137427142D01*
X152439523Y-137331904D01*
X152439523Y-136522380D01*
X153439523Y-137522380D02*
X152868095Y-137522380D01*
X153153809Y-137522380D02*
X153153809Y-136522380D01*
X153058571Y-136665238D01*
X152963333Y-136760476D01*
X152868095Y-136808095D01*
%TO.C,J3*%
X197102380Y-139053333D02*
X197816666Y-139053333D01*
X197959523Y-139100952D01*
X198054761Y-139196190D01*
X198102380Y-139339047D01*
X198102380Y-139434285D01*
X197102380Y-138672380D02*
X197102380Y-138053333D01*
X197483333Y-138386666D01*
X197483333Y-138243809D01*
X197530952Y-138148571D01*
X197578571Y-138100952D01*
X197673809Y-138053333D01*
X197911904Y-138053333D01*
X198007142Y-138100952D01*
X198054761Y-138148571D01*
X198102380Y-138243809D01*
X198102380Y-138529523D01*
X198054761Y-138624761D01*
X198007142Y-138672380D01*
%TO.C,R35*%
X149917142Y-126092380D02*
X149583809Y-125616190D01*
X149345714Y-126092380D02*
X149345714Y-125092380D01*
X149726666Y-125092380D01*
X149821904Y-125140000D01*
X149869523Y-125187619D01*
X149917142Y-125282857D01*
X149917142Y-125425714D01*
X149869523Y-125520952D01*
X149821904Y-125568571D01*
X149726666Y-125616190D01*
X149345714Y-125616190D01*
X150250476Y-125092380D02*
X150869523Y-125092380D01*
X150536190Y-125473333D01*
X150679047Y-125473333D01*
X150774285Y-125520952D01*
X150821904Y-125568571D01*
X150869523Y-125663809D01*
X150869523Y-125901904D01*
X150821904Y-125997142D01*
X150774285Y-126044761D01*
X150679047Y-126092380D01*
X150393333Y-126092380D01*
X150298095Y-126044761D01*
X150250476Y-125997142D01*
X151774285Y-125092380D02*
X151298095Y-125092380D01*
X151250476Y-125568571D01*
X151298095Y-125520952D01*
X151393333Y-125473333D01*
X151631428Y-125473333D01*
X151726666Y-125520952D01*
X151774285Y-125568571D01*
X151821904Y-125663809D01*
X151821904Y-125901904D01*
X151774285Y-125997142D01*
X151726666Y-126044761D01*
X151631428Y-126092380D01*
X151393333Y-126092380D01*
X151298095Y-126044761D01*
X151250476Y-125997142D01*
%TO.C,R25*%
X130394642Y-133452380D02*
X130061309Y-132976190D01*
X129823214Y-133452380D02*
X129823214Y-132452380D01*
X130204166Y-132452380D01*
X130299404Y-132500000D01*
X130347023Y-132547619D01*
X130394642Y-132642857D01*
X130394642Y-132785714D01*
X130347023Y-132880952D01*
X130299404Y-132928571D01*
X130204166Y-132976190D01*
X129823214Y-132976190D01*
X130775595Y-132547619D02*
X130823214Y-132500000D01*
X130918452Y-132452380D01*
X131156547Y-132452380D01*
X131251785Y-132500000D01*
X131299404Y-132547619D01*
X131347023Y-132642857D01*
X131347023Y-132738095D01*
X131299404Y-132880952D01*
X130727976Y-133452380D01*
X131347023Y-133452380D01*
X132251785Y-132452380D02*
X131775595Y-132452380D01*
X131727976Y-132928571D01*
X131775595Y-132880952D01*
X131870833Y-132833333D01*
X132108928Y-132833333D01*
X132204166Y-132880952D01*
X132251785Y-132928571D01*
X132299404Y-133023809D01*
X132299404Y-133261904D01*
X132251785Y-133357142D01*
X132204166Y-133404761D01*
X132108928Y-133452380D01*
X131870833Y-133452380D01*
X131775595Y-133404761D01*
X131727976Y-133357142D01*
%TO.C,R26*%
X154517142Y-120872380D02*
X154183809Y-120396190D01*
X153945714Y-120872380D02*
X153945714Y-119872380D01*
X154326666Y-119872380D01*
X154421904Y-119920000D01*
X154469523Y-119967619D01*
X154517142Y-120062857D01*
X154517142Y-120205714D01*
X154469523Y-120300952D01*
X154421904Y-120348571D01*
X154326666Y-120396190D01*
X153945714Y-120396190D01*
X154898095Y-119967619D02*
X154945714Y-119920000D01*
X155040952Y-119872380D01*
X155279047Y-119872380D01*
X155374285Y-119920000D01*
X155421904Y-119967619D01*
X155469523Y-120062857D01*
X155469523Y-120158095D01*
X155421904Y-120300952D01*
X154850476Y-120872380D01*
X155469523Y-120872380D01*
X156326666Y-119872380D02*
X156136190Y-119872380D01*
X156040952Y-119920000D01*
X155993333Y-119967619D01*
X155898095Y-120110476D01*
X155850476Y-120300952D01*
X155850476Y-120681904D01*
X155898095Y-120777142D01*
X155945714Y-120824761D01*
X156040952Y-120872380D01*
X156231428Y-120872380D01*
X156326666Y-120824761D01*
X156374285Y-120777142D01*
X156421904Y-120681904D01*
X156421904Y-120443809D01*
X156374285Y-120348571D01*
X156326666Y-120300952D01*
X156231428Y-120253333D01*
X156040952Y-120253333D01*
X155945714Y-120300952D01*
X155898095Y-120348571D01*
X155850476Y-120443809D01*
%TO.C,J6*%
X231266666Y-104822380D02*
X231266666Y-105536666D01*
X231219047Y-105679523D01*
X231123809Y-105774761D01*
X230980952Y-105822380D01*
X230885714Y-105822380D01*
X232171428Y-104822380D02*
X231980952Y-104822380D01*
X231885714Y-104870000D01*
X231838095Y-104917619D01*
X231742857Y-105060476D01*
X231695238Y-105250952D01*
X231695238Y-105631904D01*
X231742857Y-105727142D01*
X231790476Y-105774761D01*
X231885714Y-105822380D01*
X232076190Y-105822380D01*
X232171428Y-105774761D01*
X232219047Y-105727142D01*
X232266666Y-105631904D01*
X232266666Y-105393809D01*
X232219047Y-105298571D01*
X232171428Y-105250952D01*
X232076190Y-105203333D01*
X231885714Y-105203333D01*
X231790476Y-105250952D01*
X231742857Y-105298571D01*
X231695238Y-105393809D01*
%TO.C,J9*%
X134276666Y-113980380D02*
X134276666Y-114694666D01*
X134229047Y-114837523D01*
X134133809Y-114932761D01*
X133990952Y-114980380D01*
X133895714Y-114980380D01*
X134800476Y-114980380D02*
X134990952Y-114980380D01*
X135086190Y-114932761D01*
X135133809Y-114885142D01*
X135229047Y-114742285D01*
X135276666Y-114551809D01*
X135276666Y-114170857D01*
X135229047Y-114075619D01*
X135181428Y-114028000D01*
X135086190Y-113980380D01*
X134895714Y-113980380D01*
X134800476Y-114028000D01*
X134752857Y-114075619D01*
X134705238Y-114170857D01*
X134705238Y-114408952D01*
X134752857Y-114504190D01*
X134800476Y-114551809D01*
X134895714Y-114599428D01*
X135086190Y-114599428D01*
X135181428Y-114551809D01*
X135229047Y-114504190D01*
X135276666Y-114408952D01*
%TO.C,R13*%
X205172380Y-113852857D02*
X204696190Y-114186190D01*
X205172380Y-114424285D02*
X204172380Y-114424285D01*
X204172380Y-114043333D01*
X204220000Y-113948095D01*
X204267619Y-113900476D01*
X204362857Y-113852857D01*
X204505714Y-113852857D01*
X204600952Y-113900476D01*
X204648571Y-113948095D01*
X204696190Y-114043333D01*
X204696190Y-114424285D01*
X205172380Y-112900476D02*
X205172380Y-113471904D01*
X205172380Y-113186190D02*
X204172380Y-113186190D01*
X204315238Y-113281428D01*
X204410476Y-113376666D01*
X204458095Y-113471904D01*
X204172380Y-112567142D02*
X204172380Y-111948095D01*
X204553333Y-112281428D01*
X204553333Y-112138571D01*
X204600952Y-112043333D01*
X204648571Y-111995714D01*
X204743809Y-111948095D01*
X204981904Y-111948095D01*
X205077142Y-111995714D01*
X205124761Y-112043333D01*
X205172380Y-112138571D01*
X205172380Y-112424285D01*
X205124761Y-112519523D01*
X205077142Y-112567142D01*
%TO.C,D5*%
X178261904Y-124012380D02*
X178261904Y-123012380D01*
X178500000Y-123012380D01*
X178642857Y-123060000D01*
X178738095Y-123155238D01*
X178785714Y-123250476D01*
X178833333Y-123440952D01*
X178833333Y-123583809D01*
X178785714Y-123774285D01*
X178738095Y-123869523D01*
X178642857Y-123964761D01*
X178500000Y-124012380D01*
X178261904Y-124012380D01*
X179738095Y-123012380D02*
X179261904Y-123012380D01*
X179214285Y-123488571D01*
X179261904Y-123440952D01*
X179357142Y-123393333D01*
X179595238Y-123393333D01*
X179690476Y-123440952D01*
X179738095Y-123488571D01*
X179785714Y-123583809D01*
X179785714Y-123821904D01*
X179738095Y-123917142D01*
X179690476Y-123964761D01*
X179595238Y-124012380D01*
X179357142Y-124012380D01*
X179261904Y-123964761D01*
X179214285Y-123917142D01*
%TO.C,R21*%
X133922380Y-140885357D02*
X133446190Y-141218690D01*
X133922380Y-141456785D02*
X132922380Y-141456785D01*
X132922380Y-141075833D01*
X132970000Y-140980595D01*
X133017619Y-140932976D01*
X133112857Y-140885357D01*
X133255714Y-140885357D01*
X133350952Y-140932976D01*
X133398571Y-140980595D01*
X133446190Y-141075833D01*
X133446190Y-141456785D01*
X133017619Y-140504404D02*
X132970000Y-140456785D01*
X132922380Y-140361547D01*
X132922380Y-140123452D01*
X132970000Y-140028214D01*
X133017619Y-139980595D01*
X133112857Y-139932976D01*
X133208095Y-139932976D01*
X133350952Y-139980595D01*
X133922380Y-140552023D01*
X133922380Y-139932976D01*
X133922380Y-138980595D02*
X133922380Y-139552023D01*
X133922380Y-139266309D02*
X132922380Y-139266309D01*
X133065238Y-139361547D01*
X133160476Y-139456785D01*
X133208095Y-139552023D01*
%TO.C,J19*%
X143450476Y-104592380D02*
X143450476Y-105306666D01*
X143402857Y-105449523D01*
X143307619Y-105544761D01*
X143164761Y-105592380D01*
X143069523Y-105592380D01*
X144450476Y-105592380D02*
X143879047Y-105592380D01*
X144164761Y-105592380D02*
X144164761Y-104592380D01*
X144069523Y-104735238D01*
X143974285Y-104830476D01*
X143879047Y-104878095D01*
X144926666Y-105592380D02*
X145117142Y-105592380D01*
X145212380Y-105544761D01*
X145260000Y-105497142D01*
X145355238Y-105354285D01*
X145402857Y-105163809D01*
X145402857Y-104782857D01*
X145355238Y-104687619D01*
X145307619Y-104640000D01*
X145212380Y-104592380D01*
X145021904Y-104592380D01*
X144926666Y-104640000D01*
X144879047Y-104687619D01*
X144831428Y-104782857D01*
X144831428Y-105020952D01*
X144879047Y-105116190D01*
X144926666Y-105163809D01*
X145021904Y-105211428D01*
X145212380Y-105211428D01*
X145307619Y-105163809D01*
X145355238Y-105116190D01*
X145402857Y-105020952D01*
%TO.C,R15*%
X197502380Y-106042857D02*
X197026190Y-106376190D01*
X197502380Y-106614285D02*
X196502380Y-106614285D01*
X196502380Y-106233333D01*
X196550000Y-106138095D01*
X196597619Y-106090476D01*
X196692857Y-106042857D01*
X196835714Y-106042857D01*
X196930952Y-106090476D01*
X196978571Y-106138095D01*
X197026190Y-106233333D01*
X197026190Y-106614285D01*
X197502380Y-105090476D02*
X197502380Y-105661904D01*
X197502380Y-105376190D02*
X196502380Y-105376190D01*
X196645238Y-105471428D01*
X196740476Y-105566666D01*
X196788095Y-105661904D01*
X196502380Y-104185714D02*
X196502380Y-104661904D01*
X196978571Y-104709523D01*
X196930952Y-104661904D01*
X196883333Y-104566666D01*
X196883333Y-104328571D01*
X196930952Y-104233333D01*
X196978571Y-104185714D01*
X197073809Y-104138095D01*
X197311904Y-104138095D01*
X197407142Y-104185714D01*
X197454761Y-104233333D01*
X197502380Y-104328571D01*
X197502380Y-104566666D01*
X197454761Y-104661904D01*
X197407142Y-104709523D01*
%TO.C,R23*%
X154477142Y-118822380D02*
X154143809Y-118346190D01*
X153905714Y-118822380D02*
X153905714Y-117822380D01*
X154286666Y-117822380D01*
X154381904Y-117870000D01*
X154429523Y-117917619D01*
X154477142Y-118012857D01*
X154477142Y-118155714D01*
X154429523Y-118250952D01*
X154381904Y-118298571D01*
X154286666Y-118346190D01*
X153905714Y-118346190D01*
X154858095Y-117917619D02*
X154905714Y-117870000D01*
X155000952Y-117822380D01*
X155239047Y-117822380D01*
X155334285Y-117870000D01*
X155381904Y-117917619D01*
X155429523Y-118012857D01*
X155429523Y-118108095D01*
X155381904Y-118250952D01*
X154810476Y-118822380D01*
X155429523Y-118822380D01*
X155762857Y-117822380D02*
X156381904Y-117822380D01*
X156048571Y-118203333D01*
X156191428Y-118203333D01*
X156286666Y-118250952D01*
X156334285Y-118298571D01*
X156381904Y-118393809D01*
X156381904Y-118631904D01*
X156334285Y-118727142D01*
X156286666Y-118774761D01*
X156191428Y-118822380D01*
X155905714Y-118822380D01*
X155810476Y-118774761D01*
X155762857Y-118727142D01*
%TO.C,R29*%
X138297142Y-137962380D02*
X137963809Y-137486190D01*
X137725714Y-137962380D02*
X137725714Y-136962380D01*
X138106666Y-136962380D01*
X138201904Y-137010000D01*
X138249523Y-137057619D01*
X138297142Y-137152857D01*
X138297142Y-137295714D01*
X138249523Y-137390952D01*
X138201904Y-137438571D01*
X138106666Y-137486190D01*
X137725714Y-137486190D01*
X138678095Y-137057619D02*
X138725714Y-137010000D01*
X138820952Y-136962380D01*
X139059047Y-136962380D01*
X139154285Y-137010000D01*
X139201904Y-137057619D01*
X139249523Y-137152857D01*
X139249523Y-137248095D01*
X139201904Y-137390952D01*
X138630476Y-137962380D01*
X139249523Y-137962380D01*
X139725714Y-137962380D02*
X139916190Y-137962380D01*
X140011428Y-137914761D01*
X140059047Y-137867142D01*
X140154285Y-137724285D01*
X140201904Y-137533809D01*
X140201904Y-137152857D01*
X140154285Y-137057619D01*
X140106666Y-137010000D01*
X140011428Y-136962380D01*
X139820952Y-136962380D01*
X139725714Y-137010000D01*
X139678095Y-137057619D01*
X139630476Y-137152857D01*
X139630476Y-137390952D01*
X139678095Y-137486190D01*
X139725714Y-137533809D01*
X139820952Y-137581428D01*
X140011428Y-137581428D01*
X140106666Y-137533809D01*
X140154285Y-137486190D01*
X140201904Y-137390952D01*
%TO.C,R44*%
X149627142Y-107872380D02*
X149293809Y-107396190D01*
X149055714Y-107872380D02*
X149055714Y-106872380D01*
X149436666Y-106872380D01*
X149531904Y-106920000D01*
X149579523Y-106967619D01*
X149627142Y-107062857D01*
X149627142Y-107205714D01*
X149579523Y-107300952D01*
X149531904Y-107348571D01*
X149436666Y-107396190D01*
X149055714Y-107396190D01*
X150484285Y-107205714D02*
X150484285Y-107872380D01*
X150246190Y-106824761D02*
X150008095Y-107539047D01*
X150627142Y-107539047D01*
X151436666Y-107205714D02*
X151436666Y-107872380D01*
X151198571Y-106824761D02*
X150960476Y-107539047D01*
X151579523Y-107539047D01*
%TO.C,R42*%
X155082380Y-106002857D02*
X154606190Y-106336190D01*
X155082380Y-106574285D02*
X154082380Y-106574285D01*
X154082380Y-106193333D01*
X154130000Y-106098095D01*
X154177619Y-106050476D01*
X154272857Y-106002857D01*
X154415714Y-106002857D01*
X154510952Y-106050476D01*
X154558571Y-106098095D01*
X154606190Y-106193333D01*
X154606190Y-106574285D01*
X154415714Y-105145714D02*
X155082380Y-105145714D01*
X154034761Y-105383809D02*
X154749047Y-105621904D01*
X154749047Y-105002857D01*
X154177619Y-104669523D02*
X154130000Y-104621904D01*
X154082380Y-104526666D01*
X154082380Y-104288571D01*
X154130000Y-104193333D01*
X154177619Y-104145714D01*
X154272857Y-104098095D01*
X154368095Y-104098095D01*
X154510952Y-104145714D01*
X155082380Y-104717142D01*
X155082380Y-104098095D01*
%TO.C,R38*%
X154227142Y-116392380D02*
X153893809Y-115916190D01*
X153655714Y-116392380D02*
X153655714Y-115392380D01*
X154036666Y-115392380D01*
X154131904Y-115440000D01*
X154179523Y-115487619D01*
X154227142Y-115582857D01*
X154227142Y-115725714D01*
X154179523Y-115820952D01*
X154131904Y-115868571D01*
X154036666Y-115916190D01*
X153655714Y-115916190D01*
X154560476Y-115392380D02*
X155179523Y-115392380D01*
X154846190Y-115773333D01*
X154989047Y-115773333D01*
X155084285Y-115820952D01*
X155131904Y-115868571D01*
X155179523Y-115963809D01*
X155179523Y-116201904D01*
X155131904Y-116297142D01*
X155084285Y-116344761D01*
X154989047Y-116392380D01*
X154703333Y-116392380D01*
X154608095Y-116344761D01*
X154560476Y-116297142D01*
X155750952Y-115820952D02*
X155655714Y-115773333D01*
X155608095Y-115725714D01*
X155560476Y-115630476D01*
X155560476Y-115582857D01*
X155608095Y-115487619D01*
X155655714Y-115440000D01*
X155750952Y-115392380D01*
X155941428Y-115392380D01*
X156036666Y-115440000D01*
X156084285Y-115487619D01*
X156131904Y-115582857D01*
X156131904Y-115630476D01*
X156084285Y-115725714D01*
X156036666Y-115773333D01*
X155941428Y-115820952D01*
X155750952Y-115820952D01*
X155655714Y-115868571D01*
X155608095Y-115916190D01*
X155560476Y-116011428D01*
X155560476Y-116201904D01*
X155608095Y-116297142D01*
X155655714Y-116344761D01*
X155750952Y-116392380D01*
X155941428Y-116392380D01*
X156036666Y-116344761D01*
X156084285Y-116297142D01*
X156131904Y-116201904D01*
X156131904Y-116011428D01*
X156084285Y-115916190D01*
X156036666Y-115868571D01*
X155941428Y-115820952D01*
%TO.C,R30*%
X154557142Y-122972380D02*
X154223809Y-122496190D01*
X153985714Y-122972380D02*
X153985714Y-121972380D01*
X154366666Y-121972380D01*
X154461904Y-122020000D01*
X154509523Y-122067619D01*
X154557142Y-122162857D01*
X154557142Y-122305714D01*
X154509523Y-122400952D01*
X154461904Y-122448571D01*
X154366666Y-122496190D01*
X153985714Y-122496190D01*
X154890476Y-121972380D02*
X155509523Y-121972380D01*
X155176190Y-122353333D01*
X155319047Y-122353333D01*
X155414285Y-122400952D01*
X155461904Y-122448571D01*
X155509523Y-122543809D01*
X155509523Y-122781904D01*
X155461904Y-122877142D01*
X155414285Y-122924761D01*
X155319047Y-122972380D01*
X155033333Y-122972380D01*
X154938095Y-122924761D01*
X154890476Y-122877142D01*
X156128571Y-121972380D02*
X156223809Y-121972380D01*
X156319047Y-122020000D01*
X156366666Y-122067619D01*
X156414285Y-122162857D01*
X156461904Y-122353333D01*
X156461904Y-122591428D01*
X156414285Y-122781904D01*
X156366666Y-122877142D01*
X156319047Y-122924761D01*
X156223809Y-122972380D01*
X156128571Y-122972380D01*
X156033333Y-122924761D01*
X155985714Y-122877142D01*
X155938095Y-122781904D01*
X155890476Y-122591428D01*
X155890476Y-122353333D01*
X155938095Y-122162857D01*
X155985714Y-122067619D01*
X156033333Y-122020000D01*
X156128571Y-121972380D01*
%TO.C,R8*%
X203873333Y-117262380D02*
X203540000Y-116786190D01*
X203301904Y-117262380D02*
X203301904Y-116262380D01*
X203682857Y-116262380D01*
X203778095Y-116310000D01*
X203825714Y-116357619D01*
X203873333Y-116452857D01*
X203873333Y-116595714D01*
X203825714Y-116690952D01*
X203778095Y-116738571D01*
X203682857Y-116786190D01*
X203301904Y-116786190D01*
X204444761Y-116690952D02*
X204349523Y-116643333D01*
X204301904Y-116595714D01*
X204254285Y-116500476D01*
X204254285Y-116452857D01*
X204301904Y-116357619D01*
X204349523Y-116310000D01*
X204444761Y-116262380D01*
X204635238Y-116262380D01*
X204730476Y-116310000D01*
X204778095Y-116357619D01*
X204825714Y-116452857D01*
X204825714Y-116500476D01*
X204778095Y-116595714D01*
X204730476Y-116643333D01*
X204635238Y-116690952D01*
X204444761Y-116690952D01*
X204349523Y-116738571D01*
X204301904Y-116786190D01*
X204254285Y-116881428D01*
X204254285Y-117071904D01*
X204301904Y-117167142D01*
X204349523Y-117214761D01*
X204444761Y-117262380D01*
X204635238Y-117262380D01*
X204730476Y-117214761D01*
X204778095Y-117167142D01*
X204825714Y-117071904D01*
X204825714Y-116881428D01*
X204778095Y-116786190D01*
X204730476Y-116738571D01*
X204635238Y-116690952D01*
%TO.C,J4*%
X264081666Y-104577380D02*
X264081666Y-105291666D01*
X264034047Y-105434523D01*
X263938809Y-105529761D01*
X263795952Y-105577380D01*
X263700714Y-105577380D01*
X264986428Y-104910714D02*
X264986428Y-105577380D01*
X264748333Y-104529761D02*
X264510238Y-105244047D01*
X265129285Y-105244047D01*
%TO.C,J1*%
X161022380Y-97653333D02*
X161736666Y-97653333D01*
X161879523Y-97700952D01*
X161974761Y-97796190D01*
X162022380Y-97939047D01*
X162022380Y-98034285D01*
X162022380Y-96653333D02*
X162022380Y-97224761D01*
X162022380Y-96939047D02*
X161022380Y-96939047D01*
X161165238Y-97034285D01*
X161260476Y-97129523D01*
X161308095Y-97224761D01*
%TO.C,R32*%
X141737142Y-141282380D02*
X141403809Y-140806190D01*
X141165714Y-141282380D02*
X141165714Y-140282380D01*
X141546666Y-140282380D01*
X141641904Y-140330000D01*
X141689523Y-140377619D01*
X141737142Y-140472857D01*
X141737142Y-140615714D01*
X141689523Y-140710952D01*
X141641904Y-140758571D01*
X141546666Y-140806190D01*
X141165714Y-140806190D01*
X142070476Y-140282380D02*
X142689523Y-140282380D01*
X142356190Y-140663333D01*
X142499047Y-140663333D01*
X142594285Y-140710952D01*
X142641904Y-140758571D01*
X142689523Y-140853809D01*
X142689523Y-141091904D01*
X142641904Y-141187142D01*
X142594285Y-141234761D01*
X142499047Y-141282380D01*
X142213333Y-141282380D01*
X142118095Y-141234761D01*
X142070476Y-141187142D01*
X143070476Y-140377619D02*
X143118095Y-140330000D01*
X143213333Y-140282380D01*
X143451428Y-140282380D01*
X143546666Y-140330000D01*
X143594285Y-140377619D01*
X143641904Y-140472857D01*
X143641904Y-140568095D01*
X143594285Y-140710952D01*
X143022857Y-141282380D01*
X143641904Y-141282380D01*
%TO.C,J17*%
X147237380Y-101559523D02*
X147951666Y-101559523D01*
X148094523Y-101607142D01*
X148189761Y-101702380D01*
X148237380Y-101845238D01*
X148237380Y-101940476D01*
X148237380Y-100559523D02*
X148237380Y-101130952D01*
X148237380Y-100845238D02*
X147237380Y-100845238D01*
X147380238Y-100940476D01*
X147475476Y-101035714D01*
X147523095Y-101130952D01*
X147237380Y-100226190D02*
X147237380Y-99559523D01*
X148237380Y-99988095D01*
%TO.C,J20*%
X192040476Y-100389880D02*
X192040476Y-101104166D01*
X191992857Y-101247023D01*
X191897619Y-101342261D01*
X191754761Y-101389880D01*
X191659523Y-101389880D01*
X192469047Y-100485119D02*
X192516666Y-100437500D01*
X192611904Y-100389880D01*
X192850000Y-100389880D01*
X192945238Y-100437500D01*
X192992857Y-100485119D01*
X193040476Y-100580357D01*
X193040476Y-100675595D01*
X192992857Y-100818452D01*
X192421428Y-101389880D01*
X193040476Y-101389880D01*
X193659523Y-100389880D02*
X193754761Y-100389880D01*
X193850000Y-100437500D01*
X193897619Y-100485119D01*
X193945238Y-100580357D01*
X193992857Y-100770833D01*
X193992857Y-101008928D01*
X193945238Y-101199404D01*
X193897619Y-101294642D01*
X193850000Y-101342261D01*
X193754761Y-101389880D01*
X193659523Y-101389880D01*
X193564285Y-101342261D01*
X193516666Y-101294642D01*
X193469047Y-101199404D01*
X193421428Y-101008928D01*
X193421428Y-100770833D01*
X193469047Y-100580357D01*
X193516666Y-100485119D01*
X193564285Y-100437500D01*
X193659523Y-100389880D01*
%TO.C,R17*%
X191077380Y-105667857D02*
X190601190Y-106001190D01*
X191077380Y-106239285D02*
X190077380Y-106239285D01*
X190077380Y-105858333D01*
X190125000Y-105763095D01*
X190172619Y-105715476D01*
X190267857Y-105667857D01*
X190410714Y-105667857D01*
X190505952Y-105715476D01*
X190553571Y-105763095D01*
X190601190Y-105858333D01*
X190601190Y-106239285D01*
X191077380Y-104715476D02*
X191077380Y-105286904D01*
X191077380Y-105001190D02*
X190077380Y-105001190D01*
X190220238Y-105096428D01*
X190315476Y-105191666D01*
X190363095Y-105286904D01*
X190077380Y-104382142D02*
X190077380Y-103715476D01*
X191077380Y-104144047D01*
%TO.C,R22*%
X130397142Y-135402380D02*
X130063809Y-134926190D01*
X129825714Y-135402380D02*
X129825714Y-134402380D01*
X130206666Y-134402380D01*
X130301904Y-134450000D01*
X130349523Y-134497619D01*
X130397142Y-134592857D01*
X130397142Y-134735714D01*
X130349523Y-134830952D01*
X130301904Y-134878571D01*
X130206666Y-134926190D01*
X129825714Y-134926190D01*
X130778095Y-134497619D02*
X130825714Y-134450000D01*
X130920952Y-134402380D01*
X131159047Y-134402380D01*
X131254285Y-134450000D01*
X131301904Y-134497619D01*
X131349523Y-134592857D01*
X131349523Y-134688095D01*
X131301904Y-134830952D01*
X130730476Y-135402380D01*
X131349523Y-135402380D01*
X131730476Y-134497619D02*
X131778095Y-134450000D01*
X131873333Y-134402380D01*
X132111428Y-134402380D01*
X132206666Y-134450000D01*
X132254285Y-134497619D01*
X132301904Y-134592857D01*
X132301904Y-134688095D01*
X132254285Y-134830952D01*
X131682857Y-135402380D01*
X132301904Y-135402380D01*
%TO.C,R45*%
X153842380Y-140462857D02*
X153366190Y-140796190D01*
X153842380Y-141034285D02*
X152842380Y-141034285D01*
X152842380Y-140653333D01*
X152890000Y-140558095D01*
X152937619Y-140510476D01*
X153032857Y-140462857D01*
X153175714Y-140462857D01*
X153270952Y-140510476D01*
X153318571Y-140558095D01*
X153366190Y-140653333D01*
X153366190Y-141034285D01*
X153175714Y-139605714D02*
X153842380Y-139605714D01*
X152794761Y-139843809D02*
X153509047Y-140081904D01*
X153509047Y-139462857D01*
X152842380Y-138605714D02*
X152842380Y-139081904D01*
X153318571Y-139129523D01*
X153270952Y-139081904D01*
X153223333Y-138986666D01*
X153223333Y-138748571D01*
X153270952Y-138653333D01*
X153318571Y-138605714D01*
X153413809Y-138558095D01*
X153651904Y-138558095D01*
X153747142Y-138605714D01*
X153794761Y-138653333D01*
X153842380Y-138748571D01*
X153842380Y-138986666D01*
X153794761Y-139081904D01*
X153747142Y-139129523D01*
%TO.C,J13*%
X173860476Y-104722380D02*
X173860476Y-105436666D01*
X173812857Y-105579523D01*
X173717619Y-105674761D01*
X173574761Y-105722380D01*
X173479523Y-105722380D01*
X174860476Y-105722380D02*
X174289047Y-105722380D01*
X174574761Y-105722380D02*
X174574761Y-104722380D01*
X174479523Y-104865238D01*
X174384285Y-104960476D01*
X174289047Y-105008095D01*
X175193809Y-104722380D02*
X175812857Y-104722380D01*
X175479523Y-105103333D01*
X175622380Y-105103333D01*
X175717619Y-105150952D01*
X175765238Y-105198571D01*
X175812857Y-105293809D01*
X175812857Y-105531904D01*
X175765238Y-105627142D01*
X175717619Y-105674761D01*
X175622380Y-105722380D01*
X175336666Y-105722380D01*
X175241428Y-105674761D01*
X175193809Y-105627142D01*
%TO.C,J10*%
X123310476Y-108062380D02*
X123310476Y-108776666D01*
X123262857Y-108919523D01*
X123167619Y-109014761D01*
X123024761Y-109062380D01*
X122929523Y-109062380D01*
X124310476Y-109062380D02*
X123739047Y-109062380D01*
X124024761Y-109062380D02*
X124024761Y-108062380D01*
X123929523Y-108205238D01*
X123834285Y-108300476D01*
X123739047Y-108348095D01*
X124929523Y-108062380D02*
X125024761Y-108062380D01*
X125120000Y-108110000D01*
X125167619Y-108157619D01*
X125215238Y-108252857D01*
X125262857Y-108443333D01*
X125262857Y-108681428D01*
X125215238Y-108871904D01*
X125167619Y-108967142D01*
X125120000Y-109014761D01*
X125024761Y-109062380D01*
X124929523Y-109062380D01*
X124834285Y-109014761D01*
X124786666Y-108967142D01*
X124739047Y-108871904D01*
X124691428Y-108681428D01*
X124691428Y-108443333D01*
X124739047Y-108252857D01*
X124786666Y-108157619D01*
X124834285Y-108110000D01*
X124929523Y-108062380D01*
D12*
%TO.C,C2*%
X193292652Y-108495220D02*
X192770148Y-108495220D01*
X193292652Y-107025220D02*
X192770148Y-107025220D01*
%TO.C,C3*%
X193300192Y-110545000D02*
X192777688Y-110545000D01*
X193300192Y-109075000D02*
X192777688Y-109075000D01*
%TO.C,C1*%
X188824180Y-129167012D02*
X188824180Y-128644508D01*
X190294180Y-129167012D02*
X190294180Y-128644508D01*
%TO.C,C7*%
X195793940Y-128601328D02*
X195793940Y-129123832D01*
X197263940Y-128601328D02*
X197263940Y-129123832D01*
%TO.C,C4*%
X189323288Y-124492140D02*
X189845792Y-124492140D01*
X189323288Y-123022140D02*
X189845792Y-123022140D01*
%TO.C,C9*%
X189868652Y-125267500D02*
X189346148Y-125267500D01*
X189868652Y-126737500D02*
X189346148Y-126737500D01*
%TO.C,C5*%
X189911252Y-117685000D02*
X189388748Y-117685000D01*
X189911252Y-116215000D02*
X189388748Y-116215000D01*
%TO.C,C6*%
X203628568Y-124367680D02*
X204151072Y-124367680D01*
X203628568Y-122897680D02*
X204151072Y-122897680D01*
%TO.C,C8*%
X204079420Y-131310772D02*
X204079420Y-130788268D01*
X205549420Y-131310772D02*
X205549420Y-130788268D01*
%TO.C,C10*%
X194610832Y-112308420D02*
X194088328Y-112308420D01*
X194610832Y-113778420D02*
X194088328Y-113778420D01*
%TO.C,C11*%
X205915000Y-123138748D02*
X205915000Y-123661252D01*
X207385000Y-123138748D02*
X207385000Y-123661252D01*
%TO.C,D6*%
X186709920Y-138016500D02*
X186709920Y-134131500D01*
X186709920Y-134131500D02*
X184439920Y-134131500D01*
X184439920Y-134131500D02*
X184439920Y-138016500D01*
%TO.C,J2*%
X188305260Y-132774420D02*
X188685260Y-132774420D01*
X188305260Y-134544420D02*
X188305260Y-132774420D01*
X195925260Y-132774420D02*
X195545260Y-132774420D01*
X195925260Y-132774420D02*
X195925260Y-134544420D01*
X188305260Y-137084420D02*
X188305260Y-136824420D01*
X195925260Y-136824420D02*
X195925260Y-137084420D01*
%TO.C,J16*%
X188124080Y-107230320D02*
X188124080Y-109890320D01*
X188124080Y-109890320D02*
X182984080Y-109890320D01*
X190724080Y-107230320D02*
X190724080Y-108560320D01*
X189394080Y-107230320D02*
X190724080Y-107230320D01*
X188124080Y-107230320D02*
X182984080Y-107230320D01*
X182984080Y-107230320D02*
X182984080Y-109890320D01*
%TO.C,R11*%
X193619700Y-128657696D02*
X193619700Y-129111824D01*
X195089700Y-128657696D02*
X195089700Y-129111824D01*
%TO.C,R12*%
X191620720Y-128657696D02*
X191620720Y-129111824D01*
X193090720Y-128657696D02*
X193090720Y-129111824D01*
%TO.C,R18*%
X182444700Y-135275216D02*
X182444700Y-135729344D01*
X183914700Y-135275216D02*
X183914700Y-135729344D01*
%TO.C,R19*%
X181821740Y-135729344D02*
X181821740Y-135275216D01*
X180351740Y-135729344D02*
X180351740Y-135275216D01*
%TO.C,R47*%
X190977064Y-112535000D02*
X190522936Y-112535000D01*
X190977064Y-111065000D02*
X190522936Y-111065000D01*
%TO.C,R50*%
X205534180Y-127329276D02*
X205534180Y-127783404D01*
X204064180Y-127329276D02*
X204064180Y-127783404D01*
%TO.C,Y1*%
X198950400Y-107237280D02*
X194950400Y-107237280D01*
X198950400Y-110437280D02*
X198950400Y-107237280D01*
%TO.C,U5*%
X203235740Y-129098360D02*
X203235740Y-127423360D01*
X203495740Y-131823360D02*
X203495740Y-134548360D01*
X203495740Y-134548360D02*
X203235740Y-134548360D01*
X203495740Y-129098360D02*
X203235740Y-129098360D01*
X198045740Y-129098360D02*
X198305740Y-129098360D01*
X203495740Y-131823360D02*
X203495740Y-129098360D01*
X198045740Y-131823360D02*
X198045740Y-129098360D01*
X198045740Y-134548360D02*
X198305740Y-134548360D01*
X198045740Y-131823360D02*
X198045740Y-134548360D01*
%TO.C,SW1*%
X201555200Y-111202800D02*
X201555200Y-107502800D01*
X207675200Y-107502800D02*
X207675200Y-111202800D01*
X201555200Y-107502800D02*
X207675200Y-107502800D01*
X207675200Y-111202800D02*
X201555200Y-111202800D01*
%TO.C,R5*%
X185844316Y-122160000D02*
X186298444Y-122160000D01*
X185844316Y-120690000D02*
X186298444Y-120690000D01*
%TO.C,R4*%
X185847936Y-118709920D02*
X186302064Y-118709920D01*
X185847936Y-120179920D02*
X186302064Y-120179920D01*
%TO.C,R3*%
X185844276Y-118185000D02*
X186298404Y-118185000D01*
X185844276Y-116715000D02*
X186298404Y-116715000D01*
%TO.C,D3*%
X183618460Y-118479840D02*
X180933460Y-118479840D01*
X180933460Y-118479840D02*
X180933460Y-120399840D01*
X180933460Y-120399840D02*
X183618460Y-120399840D01*
%TO.C,D2*%
X180927500Y-118410000D02*
X183612500Y-118410000D01*
X183612500Y-116490000D02*
X180927500Y-116490000D01*
X180927500Y-116490000D02*
X180927500Y-118410000D01*
%TO.C,U2*%
X180290000Y-133225000D02*
X180290000Y-127215000D01*
X180290000Y-127215000D02*
X181550000Y-127215000D01*
X187110000Y-127215000D02*
X185850000Y-127215000D01*
X187110000Y-130975000D02*
X187110000Y-127215000D01*
%TO.C,R49*%
X199944300Y-113611484D02*
X199944300Y-113157356D01*
X201414300Y-113611484D02*
X201414300Y-113157356D01*
%TO.C,D4*%
X183625000Y-120459920D02*
X180940000Y-120459920D01*
X180940000Y-122379920D02*
X183625000Y-122379920D01*
X180940000Y-120459920D02*
X180940000Y-122379920D01*
%TO.C,R51*%
X191608020Y-125085196D02*
X191608020Y-125539324D01*
X193078020Y-125085196D02*
X193078020Y-125539324D01*
%TO.C,U4*%
X200092560Y-115756140D02*
X199523600Y-115756140D01*
X199523600Y-123020540D02*
X200092560Y-123020540D01*
X192828160Y-123020540D02*
X193397120Y-123020540D01*
X192828160Y-115756140D02*
X192828160Y-116325100D01*
X192828160Y-122451580D02*
X192828160Y-123020540D01*
X200092560Y-116325100D02*
X200092560Y-115756140D01*
X193397120Y-115756140D02*
X192828160Y-115756140D01*
X200092560Y-123020540D02*
X200092560Y-122451580D01*
D13*
X196854060Y-123452340D02*
X196854060Y-123706340D01*
X196854060Y-123706340D02*
X196473060Y-123706340D01*
X196473060Y-123706340D02*
X196473060Y-123452340D01*
X196473060Y-123452340D02*
X196854060Y-123452340D01*
G36*
X196854060Y-123706340D02*
G01*
X196473060Y-123706340D01*
X196473060Y-123452340D01*
X196854060Y-123452340D01*
X196854060Y-123706340D01*
G37*
X196854060Y-123706340D02*
X196473060Y-123706340D01*
X196473060Y-123452340D01*
X196854060Y-123452340D01*
X196854060Y-123706340D01*
X192142360Y-117343640D02*
X192142360Y-116962640D01*
X192142360Y-116962640D02*
X192396360Y-116962640D01*
X192396360Y-116962640D02*
X192396360Y-117343640D01*
X192396360Y-117343640D02*
X192142360Y-117343640D01*
G36*
X192396360Y-117343640D02*
G01*
X192142360Y-117343640D01*
X192142360Y-116962640D01*
X192396360Y-116962640D01*
X192396360Y-117343640D01*
G37*
X192396360Y-117343640D02*
X192142360Y-117343640D01*
X192142360Y-116962640D01*
X192396360Y-116962640D01*
X192396360Y-117343640D01*
X197260460Y-115324340D02*
X197260460Y-115070340D01*
X197260460Y-115070340D02*
X196879460Y-115070340D01*
X196879460Y-115070340D02*
X196879460Y-115324340D01*
X196879460Y-115324340D02*
X197260460Y-115324340D01*
G36*
X197260460Y-115324340D02*
G01*
X196879460Y-115324340D01*
X196879460Y-115070340D01*
X197260460Y-115070340D01*
X197260460Y-115324340D01*
G37*
X197260460Y-115324340D02*
X196879460Y-115324340D01*
X196879460Y-115070340D01*
X197260460Y-115070340D01*
X197260460Y-115324340D01*
X192142360Y-121407640D02*
X192142360Y-121026640D01*
X192142360Y-121026640D02*
X192396360Y-121026640D01*
X192396360Y-121026640D02*
X192396360Y-121407640D01*
X192396360Y-121407640D02*
X192142360Y-121407640D01*
G36*
X192396360Y-121407640D02*
G01*
X192142360Y-121407640D01*
X192142360Y-121026640D01*
X192396360Y-121026640D01*
X192396360Y-121407640D01*
G37*
X192396360Y-121407640D02*
X192142360Y-121407640D01*
X192142360Y-121026640D01*
X192396360Y-121026640D01*
X192396360Y-121407640D01*
X200778360Y-118562840D02*
X200778360Y-118181840D01*
X200778360Y-118181840D02*
X200524360Y-118181840D01*
X200524360Y-118181840D02*
X200524360Y-118562840D01*
X200524360Y-118562840D02*
X200778360Y-118562840D01*
G36*
X200778360Y-118562840D02*
G01*
X200524360Y-118562840D01*
X200524360Y-118181840D01*
X200778360Y-118181840D01*
X200778360Y-118562840D01*
G37*
X200778360Y-118562840D02*
X200524360Y-118562840D01*
X200524360Y-118181840D01*
X200778360Y-118181840D01*
X200778360Y-118562840D01*
D12*
%TO.C,D1*%
X180947380Y-116428900D02*
X183632380Y-116428900D01*
X183632380Y-114508900D02*
X180947380Y-114508900D01*
X180947380Y-114508900D02*
X180947380Y-116428900D01*
%TO.C,R2*%
X185858056Y-114733900D02*
X186312184Y-114733900D01*
X185858056Y-116203900D02*
X186312184Y-116203900D01*
%TO.C,R48*%
X196721040Y-112745344D02*
X196721040Y-112291216D01*
X198191040Y-112745344D02*
X198191040Y-112291216D01*
%TO.C,J14*%
X206855000Y-135905000D02*
X209515000Y-135905000D01*
X206855000Y-134575000D02*
X206855000Y-133245000D01*
X209515000Y-135845000D02*
X209515000Y-135905000D01*
X206855000Y-133245000D02*
X208185000Y-133245000D01*
X206855000Y-135845000D02*
X209515000Y-135845000D01*
X206855000Y-135845000D02*
X206855000Y-135905000D01*
%TO.C,R31*%
X130822936Y-131435000D02*
X131277064Y-131435000D01*
X130822936Y-129965000D02*
X131277064Y-129965000D01*
%TO.C,J15*%
X130945000Y-103030000D02*
X130945000Y-101700000D01*
X133545000Y-103030000D02*
X138685000Y-103030000D01*
X132275000Y-103030000D02*
X130945000Y-103030000D01*
X133545000Y-103030000D02*
X133545000Y-100370000D01*
X133545000Y-100370000D02*
X138685000Y-100370000D01*
X138685000Y-103030000D02*
X138685000Y-100370000D01*
%TO.C,J18*%
X157980000Y-106270000D02*
X159310000Y-106270000D01*
X160580000Y-108870000D02*
X160580000Y-106270000D01*
X160580000Y-106270000D02*
X163180000Y-106270000D01*
X157980000Y-108870000D02*
X157980000Y-136870000D01*
X157980000Y-107600000D02*
X157980000Y-106270000D01*
X157980000Y-108870000D02*
X160580000Y-108870000D01*
X157980000Y-136870000D02*
X163180000Y-136870000D01*
X163180000Y-106270000D02*
X163180000Y-136870000D01*
%TO.C,R20*%
X140462936Y-141885000D02*
X140917064Y-141885000D01*
X140462936Y-140415000D02*
X140917064Y-140415000D01*
%TO.C,R6*%
X185847936Y-124135000D02*
X186302064Y-124135000D01*
X185847936Y-122665000D02*
X186302064Y-122665000D01*
%TO.C,R1*%
X203647936Y-120915000D02*
X204102064Y-120915000D01*
X203647936Y-122385000D02*
X204102064Y-122385000D01*
%TO.C,R10*%
X207072936Y-114890000D02*
X207527064Y-114890000D01*
X207072936Y-116360000D02*
X207527064Y-116360000D01*
%TO.C,R40*%
X150492936Y-118935000D02*
X150947064Y-118935000D01*
X150492936Y-120405000D02*
X150947064Y-120405000D01*
%TO.C,R27*%
X147165000Y-139352936D02*
X147165000Y-139807064D01*
X148635000Y-139352936D02*
X148635000Y-139807064D01*
%TO.C,R37*%
X150647064Y-122395000D02*
X150192936Y-122395000D01*
X150647064Y-120925000D02*
X150192936Y-120925000D01*
%TO.C,R34*%
X130822936Y-128005000D02*
X131277064Y-128005000D01*
X130822936Y-129475000D02*
X131277064Y-129475000D01*
%TO.C,R16*%
X190985000Y-105227064D02*
X190985000Y-104772936D01*
X189515000Y-105227064D02*
X189515000Y-104772936D01*
%TO.C,J7*%
X135930000Y-126790000D02*
X133270000Y-126790000D01*
X133270000Y-134470000D02*
X133270000Y-126790000D01*
X135930000Y-134470000D02*
X133270000Y-134470000D01*
X135930000Y-135740000D02*
X135930000Y-137070000D01*
X135930000Y-137070000D02*
X134600000Y-137070000D01*
X135930000Y-134470000D02*
X135930000Y-126790000D01*
%TO.C,R46*%
X134545000Y-140467064D02*
X134545000Y-140012936D01*
X133075000Y-140467064D02*
X133075000Y-140012936D01*
%TO.C,J5*%
X245285000Y-136885000D02*
X250485000Y-136885000D01*
X245285000Y-106285000D02*
X246615000Y-106285000D01*
X250485000Y-106285000D02*
X250485000Y-136885000D01*
X247885000Y-106285000D02*
X250485000Y-106285000D01*
X245285000Y-107615000D02*
X245285000Y-106285000D01*
X245285000Y-108885000D02*
X245285000Y-136885000D01*
X247885000Y-108885000D02*
X247885000Y-106285000D01*
X245285000Y-108885000D02*
X247885000Y-108885000D01*
%TO.C,R36*%
X138185000Y-136087064D02*
X138185000Y-135632936D01*
X136715000Y-136087064D02*
X136715000Y-135632936D01*
%TO.C,R41*%
X155917064Y-105345000D02*
X155462936Y-105345000D01*
X155917064Y-106815000D02*
X155462936Y-106815000D01*
%TO.C,J8*%
X122770000Y-131200000D02*
X125430000Y-131200000D01*
X122770000Y-122250000D02*
X122770000Y-120920000D01*
X125430000Y-123520000D02*
X125430000Y-131200000D01*
X122770000Y-123520000D02*
X122770000Y-131200000D01*
X122770000Y-123520000D02*
X125430000Y-123520000D01*
X122770000Y-120920000D02*
X124100000Y-120920000D01*
%TO.C,R33*%
X152835000Y-139352936D02*
X152835000Y-139807064D01*
X151365000Y-139352936D02*
X151365000Y-139807064D01*
%TO.C,U3*%
X155530000Y-114570000D02*
X154785000Y-114570000D01*
X149110000Y-111810000D02*
X149110000Y-109050000D01*
X155530000Y-109050000D02*
X154785000Y-109050000D01*
X155530000Y-111810000D02*
X155530000Y-114570000D01*
X149110000Y-114570000D02*
X149855000Y-114570000D01*
X149110000Y-109050000D02*
X149855000Y-109050000D01*
X149855000Y-114570000D02*
X149855000Y-116260000D01*
X155530000Y-111810000D02*
X155530000Y-109050000D01*
X149110000Y-111810000D02*
X149110000Y-114570000D01*
%TO.C,J11*%
X133280000Y-105580000D02*
X133280000Y-104250000D01*
X133280000Y-104250000D02*
X134610000Y-104250000D01*
X133280000Y-114530000D02*
X135940000Y-114530000D01*
X133280000Y-106850000D02*
X133280000Y-114530000D01*
X133280000Y-106850000D02*
X135940000Y-106850000D01*
X135940000Y-106850000D02*
X135940000Y-114530000D01*
%TO.C,R24*%
X150795000Y-139352936D02*
X150795000Y-139807064D01*
X149325000Y-139352936D02*
X149325000Y-139807064D01*
%TO.C,R43*%
X150917064Y-118365000D02*
X150462936Y-118365000D01*
X150917064Y-116895000D02*
X150462936Y-116895000D01*
%TO.C,R7*%
X207072936Y-121335000D02*
X207527064Y-121335000D01*
X207072936Y-119865000D02*
X207527064Y-119865000D01*
%TO.C,R28*%
X130812936Y-131935000D02*
X131267064Y-131935000D01*
X130812936Y-133405000D02*
X131267064Y-133405000D01*
%TO.C,R14*%
X201410000Y-105777064D02*
X201410000Y-105322936D01*
X199940000Y-105777064D02*
X199940000Y-105322936D01*
%TO.C,J12*%
X219585000Y-106545000D02*
X219585000Y-137145000D01*
X214385000Y-106545000D02*
X215715000Y-106545000D01*
X216985000Y-109145000D02*
X216985000Y-106545000D01*
X216985000Y-106545000D02*
X219585000Y-106545000D01*
X214385000Y-109145000D02*
X216985000Y-109145000D01*
X214385000Y-107875000D02*
X214385000Y-106545000D01*
X214385000Y-137145000D02*
X219585000Y-137145000D01*
X214385000Y-109145000D02*
X214385000Y-137145000D01*
%TO.C,R39*%
X155917064Y-103385000D02*
X155462936Y-103385000D01*
X155917064Y-104855000D02*
X155462936Y-104855000D01*
%TO.C,R9*%
X207072936Y-116865000D02*
X207527064Y-116865000D01*
X207072936Y-118335000D02*
X207527064Y-118335000D01*
%TO.C,U1*%
X152630000Y-125810000D02*
X155390000Y-125810000D01*
X149870000Y-125810000D02*
X149870000Y-126650000D01*
X149870000Y-136230000D02*
X149870000Y-135390000D01*
X152630000Y-125810000D02*
X149870000Y-125810000D01*
X155390000Y-136230000D02*
X155390000Y-135390000D01*
X155390000Y-135390000D02*
X157080000Y-135390000D01*
X155390000Y-125810000D02*
X155390000Y-126650000D01*
X152630000Y-136230000D02*
X155390000Y-136230000D01*
X152630000Y-136230000D02*
X149870000Y-136230000D01*
%TO.C,J3*%
X201250000Y-137390000D02*
X206390000Y-137390000D01*
X201250000Y-140050000D02*
X201250000Y-137390000D01*
X201250000Y-140050000D02*
X206390000Y-140050000D01*
X198650000Y-140050000D02*
X198650000Y-138720000D01*
X206390000Y-140050000D02*
X206390000Y-137390000D01*
X199980000Y-140050000D02*
X198650000Y-140050000D01*
%TO.C,R35*%
X150787064Y-124725000D02*
X150332936Y-124725000D01*
X150787064Y-123255000D02*
X150332936Y-123255000D01*
%TO.C,R25*%
X130810436Y-135385000D02*
X131264564Y-135385000D01*
X130810436Y-133915000D02*
X131264564Y-133915000D01*
%TO.C,R26*%
X154932936Y-122805000D02*
X155387064Y-122805000D01*
X154932936Y-121335000D02*
X155387064Y-121335000D01*
%TO.C,J6*%
X229000000Y-106370000D02*
X230330000Y-106370000D01*
X229000000Y-107700000D02*
X229000000Y-106370000D01*
X229000000Y-108970000D02*
X231600000Y-108970000D01*
X229000000Y-136970000D02*
X234200000Y-136970000D01*
X229000000Y-108970000D02*
X229000000Y-136970000D01*
X231600000Y-106370000D02*
X234200000Y-106370000D01*
X234200000Y-106370000D02*
X234200000Y-136970000D01*
X231600000Y-108970000D02*
X231600000Y-106370000D01*
%TO.C,J9*%
X135940000Y-118128000D02*
X135940000Y-125808000D01*
X133280000Y-118128000D02*
X133280000Y-125808000D01*
X133280000Y-116858000D02*
X133280000Y-115528000D01*
X133280000Y-118128000D02*
X135940000Y-118128000D01*
X133280000Y-125808000D02*
X135940000Y-125808000D01*
X133280000Y-115528000D02*
X134610000Y-115528000D01*
%TO.C,R13*%
X201915000Y-113602064D02*
X201915000Y-113147936D01*
X203385000Y-113602064D02*
X203385000Y-113147936D01*
%TO.C,D5*%
X183625000Y-122440000D02*
X180940000Y-122440000D01*
X180940000Y-122440000D02*
X180940000Y-124360000D01*
X180940000Y-124360000D02*
X183625000Y-124360000D01*
%TO.C,R21*%
X131085000Y-140015436D02*
X131085000Y-140469564D01*
X132555000Y-140015436D02*
X132555000Y-140469564D01*
%TO.C,J19*%
X146860000Y-106140000D02*
X146860000Y-136740000D01*
X144260000Y-106140000D02*
X146860000Y-106140000D01*
X144260000Y-108740000D02*
X144260000Y-106140000D01*
X141660000Y-136740000D02*
X146860000Y-136740000D01*
X141660000Y-108740000D02*
X141660000Y-136740000D01*
X141660000Y-108740000D02*
X144260000Y-108740000D01*
X141660000Y-106140000D02*
X142990000Y-106140000D01*
X141660000Y-107470000D02*
X141660000Y-106140000D01*
%TO.C,R15*%
X199435000Y-105627064D02*
X199435000Y-105172936D01*
X197965000Y-105627064D02*
X197965000Y-105172936D01*
%TO.C,R23*%
X154892936Y-119285000D02*
X155347064Y-119285000D01*
X154892936Y-120755000D02*
X155347064Y-120755000D01*
%TO.C,R29*%
X138712936Y-138425000D02*
X139167064Y-138425000D01*
X138712936Y-139895000D02*
X139167064Y-139895000D01*
%TO.C,R44*%
X150497064Y-106505000D02*
X150042936Y-106505000D01*
X150497064Y-105035000D02*
X150042936Y-105035000D01*
%TO.C,R42*%
X152245000Y-105132936D02*
X152245000Y-105587064D01*
X153715000Y-105132936D02*
X153715000Y-105587064D01*
%TO.C,R38*%
X154642936Y-116855000D02*
X155097064Y-116855000D01*
X154642936Y-118325000D02*
X155097064Y-118325000D01*
%TO.C,R30*%
X154972936Y-124905000D02*
X155427064Y-124905000D01*
X154972936Y-123435000D02*
X155427064Y-123435000D01*
%TO.C,R8*%
X203647936Y-119360000D02*
X204102064Y-119360000D01*
X203647936Y-117890000D02*
X204102064Y-117890000D01*
%TO.C,J4*%
X264415000Y-108725000D02*
X264415000Y-106125000D01*
X261815000Y-107455000D02*
X261815000Y-106125000D01*
X261815000Y-108725000D02*
X261815000Y-136725000D01*
X264415000Y-106125000D02*
X267015000Y-106125000D01*
X261815000Y-106125000D02*
X263145000Y-106125000D01*
X261815000Y-108725000D02*
X264415000Y-108725000D01*
X261815000Y-136725000D02*
X267015000Y-136725000D01*
X267015000Y-106125000D02*
X267015000Y-136725000D01*
%TO.C,J1*%
X172850000Y-98650000D02*
X172850000Y-95990000D01*
X165170000Y-95990000D02*
X172850000Y-95990000D01*
X165170000Y-98650000D02*
X165170000Y-95990000D01*
X162570000Y-98650000D02*
X162570000Y-97320000D01*
X163900000Y-98650000D02*
X162570000Y-98650000D01*
X165170000Y-98650000D02*
X172850000Y-98650000D01*
%TO.C,R32*%
X142607064Y-139915000D02*
X142152936Y-139915000D01*
X142607064Y-138445000D02*
X142152936Y-138445000D01*
%TO.C,J17*%
X156525000Y-102080000D02*
X156525000Y-99420000D01*
X150115000Y-102080000D02*
X148785000Y-102080000D01*
X148785000Y-102080000D02*
X148785000Y-100750000D01*
X151385000Y-102080000D02*
X156525000Y-102080000D01*
X151385000Y-99420000D02*
X156525000Y-99420000D01*
X151385000Y-102080000D02*
X151385000Y-99420000D01*
%TO.C,J20*%
X197350000Y-89127500D02*
X197600000Y-87627500D01*
X190100000Y-87627500D02*
X188100000Y-87627500D01*
X203100000Y-87627500D02*
X203350000Y-89127500D01*
X182350000Y-89127500D02*
X182600000Y-87627500D01*
X207960000Y-99847500D02*
X207960000Y-87627500D01*
X180600000Y-87627500D02*
X180850000Y-89127500D01*
X177740000Y-89127500D02*
X207960000Y-89127500D01*
X195850000Y-89127500D02*
X197350000Y-89127500D01*
X182600000Y-87627500D02*
X180600000Y-87627500D01*
X197600000Y-87627500D02*
X195600000Y-87627500D01*
X204100000Y-100047500D02*
X204400000Y-100647500D01*
X204400000Y-100647500D02*
X203800000Y-100647500D01*
X195600000Y-87627500D02*
X195850000Y-89127500D01*
X188100000Y-87627500D02*
X188350000Y-89127500D01*
X207960000Y-87627500D02*
X177740000Y-87627500D01*
X203800000Y-100647500D02*
X204100000Y-100047500D01*
X207960000Y-89127500D02*
X207960000Y-90927500D01*
X188350000Y-89127500D02*
X189850000Y-89127500D01*
X177740000Y-87627500D02*
X177740000Y-99847500D01*
X203350000Y-89127500D02*
X204850000Y-89127500D01*
X207960000Y-90927500D02*
X177740000Y-90927500D01*
X177740000Y-90927500D02*
X177740000Y-89127500D01*
X177740000Y-99847500D02*
X207960000Y-99847500D01*
X204850000Y-89127500D02*
X205100000Y-87627500D01*
X180850000Y-89127500D02*
X182350000Y-89127500D01*
X189850000Y-89127500D02*
X190100000Y-87627500D01*
X205100000Y-87627500D02*
X203100000Y-87627500D01*
%TO.C,R17*%
X193010000Y-105252064D02*
X193010000Y-104797936D01*
X191540000Y-105252064D02*
X191540000Y-104797936D01*
%TO.C,R22*%
X130812936Y-135865000D02*
X131267064Y-135865000D01*
X130812936Y-137335000D02*
X131267064Y-137335000D01*
%TO.C,R45*%
X154305000Y-140047064D02*
X154305000Y-139592936D01*
X155775000Y-140047064D02*
X155775000Y-139592936D01*
%TO.C,J13*%
X177270000Y-106270000D02*
X177270000Y-136870000D01*
X172070000Y-136870000D02*
X177270000Y-136870000D01*
X172070000Y-106270000D02*
X173400000Y-106270000D01*
X172070000Y-108870000D02*
X174670000Y-108870000D01*
X172070000Y-108870000D02*
X172070000Y-136870000D01*
X172070000Y-107600000D02*
X172070000Y-106270000D01*
X174670000Y-106270000D02*
X177270000Y-106270000D01*
X174670000Y-108870000D02*
X174670000Y-106270000D01*
%TO.C,J10*%
X122790000Y-119890000D02*
X125450000Y-119890000D01*
X122790000Y-110940000D02*
X122790000Y-109610000D01*
X122790000Y-109610000D02*
X124120000Y-109610000D01*
X125450000Y-112210000D02*
X125450000Y-119890000D01*
X122790000Y-112210000D02*
X122790000Y-119890000D01*
X122790000Y-112210000D02*
X125450000Y-112210000D01*
%TD*%
M02*
