M48
; DRILL file {KiCad (6.0.2)} date Fri Mar  4 12:00:34 2022
; FORMAT={-:-/ absolute / inch / decimal}
; #@! TF.CreationDate,2022-03-04T12:00:34-06:00
; #@! TF.GenerationSoftware,Kicad,Pcbnew,(6.0.2)
; #@! TF.FileFunction,MixedPlating,1,2
FMAT,2
INCH
; #@! TA.AperFunction,Plated,PTH,ViaDrill
T1C0.0157
; #@! TA.AperFunction,Plated,PTH,ComponentDrill
T2C0.0394
; #@! TA.AperFunction,Plated,PTH,ComponentDrill
T3C0.0551
%
G90
G05
T1
X4.975Y-4.95
X4.975Y-5.1
X5.0004Y-4.3571
X5.0075Y-5.2531
X5.0601Y-4.8701
X5.0748Y-5.3795
X5.0913Y-4.4283
X5.1Y-5.4724
X5.1248Y-4.8063
X5.1449Y-4.5232
X5.1783Y-4.7063
X5.2059Y-4.6217
X5.237Y-4.6508
X5.2413Y-5.1287
X5.2417Y-4.0953
X5.2437Y-4.2909
X5.2492Y-3.9205
X5.2576Y-5.2885
X5.3276Y-5.5091
X5.3476Y-5.4331
X5.3642Y-5.3484
X5.374Y-4.6598
X5.3764Y-4.7461
X5.3946Y-5.2244
X5.4165Y-5.2571
X5.4213Y-5.5614
X5.4316Y-4.667
X5.4336Y-4.7423
X5.4673Y-5.3874
X5.4709Y-4.665
X5.4728Y-4.7398
X5.5305Y-5.2138
X5.5646Y-5.2496
X5.6752Y-4.0579
X5.6795Y-4.885
X5.6799Y-5.5602
X5.7374Y-4.0417
X5.7819Y-5.3949
X5.79Y-4.98
X5.7945Y-4.0492
X5.7961Y-5.2098
X5.8343Y-5.575
X5.8367Y-4.8006
X5.8535Y-4.0799
X5.8783Y-5.4173
X5.9283Y-4.1024
X5.9354Y-5.3681
X5.9547Y-4.4744
X5.9783Y-4.0827
X6.0053Y-4.7656
X6.0189Y-5.3083
X6.022Y-4.8839
X6.0276Y-4.8006
X6.03Y-4.98
X6.0366Y-4.0217
X6.037Y-5.5492
X6.0461Y-5.4303
X6.0854Y-5.2862
X6.1086Y-4.7662
X6.1185Y-4.2567
X6.1339Y-4.5642
X6.1508Y-4.437
X6.161Y-4.5154
X6.1724Y-4.3953
X6.1886Y-4.7673
X6.1953Y-4.5944
X6.2232Y-4.6858
X6.2421Y-3.8766
X6.3224Y-5.0882
X6.412Y-4.6858
X6.4343Y-4.8795
X6.4602Y-5.2909
X6.4685Y-5.2445
X6.5315Y-4.8984
X6.5697Y-4.8718
X6.576Y-4.7843
X6.6283Y-4.0827
X6.6339Y-4.8945
X6.6378Y-4.502
X6.6961Y-4.1673
X6.7091Y-4.0004
X6.8181Y-4.0846
X6.974Y-4.0756
X7.0075Y-3.9372
X7.0768Y-4.4114
X7.1093Y-4.5109
X7.1402Y-5.1304
X7.1832Y-4.4452
X7.1843Y-4.4059
X7.188Y-4.4843
X7.2138Y-4.1496
X7.2625Y-5.2707
X7.334Y-4.4452
X7.3911Y-5.2858
X7.4081Y-4.5338
X7.4218Y-4.3496
X7.4335Y-4.6956
X7.4429Y-4.1368
X7.4567Y-4.7274
X7.4665Y-4.642
X7.4964Y-4.7054
X7.5148Y-4.6516
X7.5344Y-4.4605
X7.5579Y-4.8468
X7.5775Y-5.3977
X7.5787Y-5.2923
X7.6116Y-4.3957
X7.6402Y-4.607
X7.6437Y-4.4979
X7.6565Y-4.9084
X7.6689Y-5.1693
X7.7052Y-4.5089
X7.7126Y-5.2583
X7.7347Y-4.7003
X7.7399Y-4.9344
X7.7571Y-5.2358
X7.7812Y-4.1474
X7.7897Y-5.1938
X7.7974Y-4.9165
X7.8057Y-5.2592
X7.811Y-4.7762
X7.815Y-4.6437
X7.82Y-3.95
X7.8293Y-4.6057
X7.8295Y-4.9486
X7.8613Y-4.1555
X7.8749Y-4.3601
X7.8817Y-4.539
X7.8981Y-4.8577
X7.9079Y-3.9154
X7.9386Y-4.7898
X7.9567Y-4.3583
X7.9614Y-4.5748
X7.9959Y-5.1209
X8.0187Y-4.6713
X8.0207Y-4.4313
X8.037Y-4.561
X8.0652Y-4.9255
X8.0803Y-4.6033
X8.0817Y-4.564
X8.1205Y-4.501
X8.1416Y-4.3378
X8.1686Y-4.4579
X8.1772Y-4.374
X8.2037Y-4.4758
X8.2303Y-4.6339
X8.2313Y-4.7411
X8.2835Y-4.3335
X8.3268Y-4.3772
X8.3276Y-4.7795
X8.3457Y-4.2165
X8.3622Y-4.4758
X8.3673Y-4.3701
X8.3756Y-5.0
X8.3793Y-4.2878
X8.385Y-4.813
X8.4051Y-5.0843
X8.4055Y-4.4252
X8.4138Y-4.6134
X8.5508Y-4.7004
X8.6791Y-4.8024
X8.7264Y-4.9933
X8.7374Y-4.8945
X8.7374Y-5.1028
X8.775Y-5.475
X8.7768Y-3.9492
X8.8268Y-4.8953
X8.978Y-4.4559
X9.0598Y-4.0012
X9.1878Y-4.1232
X9.2189Y-3.9504
X9.2484Y-4.552
X9.2843Y-4.3933
X9.2945Y-4.5898
X9.2972Y-4.4827
X9.3142Y-4.237
X9.4531Y-4.8969
X9.5339Y-4.0063
X9.539Y-4.178
X9.5567Y-4.8929
X9.598Y-4.4465
X9.5998Y-4.7921
X9.6583Y-4.4913
X9.7559Y-5.089
X10.1909Y-4.4783
X10.2933Y-4.6823
T2
X4.8858Y-4.813
X4.8858Y-4.913
X4.8858Y-5.013
X4.8858Y-5.113
X4.8866Y-4.3677
X4.8866Y-4.4677
X4.8866Y-4.5677
X4.8866Y-4.6677
X5.2077Y-4.0039
X5.2992Y-5.0441
X5.2992Y-5.1441
X5.2992Y-5.2441
X5.2992Y-5.3441
X5.2996Y-4.1567
X5.2996Y-4.2567
X5.2996Y-4.3567
X5.2996Y-4.4567
X5.2996Y-4.6007
X5.2996Y-4.7007
X5.2996Y-4.8007
X5.2996Y-4.9007
X5.3077Y-4.0039
X5.4077Y-4.0039
X5.6295Y-4.2311
X5.6295Y-4.3311
X5.6295Y-4.4311
X5.6295Y-4.5311
X5.6295Y-4.6311
X5.6295Y-4.7311
X5.6295Y-4.8311
X5.6295Y-4.9311
X5.6295Y-5.0311
X5.6295Y-5.1311
X5.6295Y-5.2311
X5.6295Y-5.3311
X5.7295Y-4.2311
X5.7295Y-4.3311
X5.7295Y-4.4311
X5.7295Y-4.5311
X5.7295Y-4.6311
X5.7295Y-4.7311
X5.7295Y-4.8311
X5.7295Y-4.9311
X5.7295Y-5.0311
X5.7295Y-5.1311
X5.7295Y-5.2311
X5.7295Y-5.3311
X5.91Y-3.9665
X6.01Y-3.9665
X6.11Y-3.9665
X6.272Y-4.2362
X6.272Y-4.3362
X6.272Y-4.4362
X6.272Y-4.5362
X6.272Y-4.6362
X6.272Y-4.7362
X6.272Y-4.8362
X6.272Y-4.9362
X6.272Y-5.0362
X6.272Y-5.1362
X6.272Y-5.2362
X6.272Y-5.3362
X6.372Y-4.2362
X6.372Y-4.3362
X6.372Y-4.4362
X6.372Y-4.5362
X6.372Y-4.6362
X6.372Y-4.7362
X6.372Y-4.8362
X6.372Y-4.9362
X6.372Y-5.0362
X6.372Y-5.1362
X6.372Y-5.2362
X6.372Y-5.3362
X6.4528Y-3.8315
X6.5528Y-3.8315
X6.6528Y-3.8315
X6.7528Y-3.8315
X6.8268Y-4.2362
X6.8268Y-4.3362
X6.8268Y-4.4362
X6.8268Y-4.5362
X6.8268Y-4.6362
X6.8268Y-4.7362
X6.8268Y-4.8362
X6.8268Y-4.9362
X6.8268Y-5.0362
X6.8268Y-5.1362
X6.8268Y-5.2362
X6.8268Y-5.3362
X6.9268Y-4.2362
X6.9268Y-4.3362
X6.9268Y-4.4362
X6.9268Y-4.5362
X6.9268Y-4.6362
X6.9268Y-4.7362
X6.9268Y-4.8362
X6.9268Y-4.9362
X6.9268Y-5.0362
X6.9268Y-5.1362
X6.9268Y-5.2362
X6.9268Y-5.3362
X7.2565Y-4.274
X7.3565Y-4.274
X7.4565Y-4.274
X7.8732Y-5.4614
X7.9732Y-5.4614
X8.0732Y-5.4614
X8.1963Y-5.2982
X8.4927Y-4.247
X8.4927Y-4.347
X8.4927Y-4.447
X8.4927Y-4.547
X8.4927Y-4.647
X8.4927Y-4.747
X8.4927Y-4.847
X8.4927Y-4.947
X8.4927Y-5.047
X8.4927Y-5.147
X8.4927Y-5.247
X8.4927Y-5.347
X8.5927Y-4.247
X8.5927Y-4.347
X8.5927Y-4.447
X8.5927Y-4.547
X8.5927Y-4.647
X8.5927Y-4.747
X8.5927Y-4.847
X8.5927Y-4.947
X8.5927Y-5.047
X8.5927Y-5.147
X8.5927Y-5.247
X8.5927Y-5.347
X9.0681Y-4.2402
X9.0681Y-4.3402
X9.0681Y-4.4402
X9.0681Y-4.5402
X9.0681Y-4.6402
X9.0681Y-4.7402
X9.0681Y-4.8402
X9.0681Y-4.9402
X9.0681Y-5.0402
X9.0681Y-5.1402
X9.0681Y-5.2402
X9.0681Y-5.3402
X9.1681Y-4.2402
X9.1681Y-4.3402
X9.1681Y-4.4402
X9.1681Y-4.5402
X9.1681Y-4.6402
X9.1681Y-4.7402
X9.1681Y-4.8402
X9.1681Y-4.9402
X9.1681Y-5.0402
X9.1681Y-5.1402
X9.1681Y-5.2402
X9.1681Y-5.3402
X9.7093Y-4.2368
X9.7093Y-4.3368
X9.7093Y-4.4368
X9.7093Y-4.5368
X9.7093Y-4.6368
X9.7093Y-4.7368
X9.7093Y-4.8368
X9.7093Y-4.9368
X9.7093Y-5.0368
X9.7093Y-5.1368
X9.7093Y-5.2368
X9.7093Y-5.3368
X9.8093Y-4.2368
X9.8093Y-4.3368
X9.8093Y-4.4368
X9.8093Y-4.5368
X9.8093Y-4.6368
X9.8093Y-4.7368
X9.8093Y-4.8368
X9.8093Y-4.9368
X9.8093Y-5.0368
X9.8093Y-5.1368
X9.8093Y-5.2368
X9.8093Y-5.3368
X10.36Y-4.2305
X10.36Y-4.3305
X10.36Y-4.4305
X10.36Y-4.5305
X10.36Y-4.6305
X10.36Y-4.7305
X10.36Y-4.8305
X10.36Y-4.9305
X10.36Y-5.0305
X10.36Y-5.1305
X10.36Y-5.2305
X10.36Y-5.3305
X10.46Y-4.2305
X10.46Y-4.3305
X10.46Y-4.4305
X10.46Y-4.5305
X10.46Y-4.6305
X10.46Y-4.7305
X10.46Y-4.8305
X10.46Y-4.9305
X10.46Y-5.0305
X10.46Y-5.1305
X10.46Y-5.2305
X10.46Y-5.3305
T3
X7.1496Y-3.8479
X7.4449Y-3.8479
X7.7402Y-3.8479
X8.0354Y-3.8479
T0
M30
