%TF.GenerationSoftware,KiCad,Pcbnew,(6.0.2)*%
%TF.CreationDate,2022-03-04T11:59:50-06:00*%
%TF.ProjectId,rev1,72657631-2e6b-4696-9361-645f70636258,rev?*%
%TF.SameCoordinates,Original*%
%TF.FileFunction,Soldermask,Bot*%
%TF.FilePolarity,Negative*%
%FSLAX46Y46*%
G04 Gerber Fmt 4.6, Leading zero omitted, Abs format (unit mm)*
G04 Created by KiCad (PCBNEW (6.0.2)) date 2022-03-04 11:59:50*
%MOMM*%
%LPD*%
G01*
G04 APERTURE LIST*
G04 Aperture macros list*
%AMRoundRect*
0 Rectangle with rounded corners*
0 $1 Rounding radius*
0 $2 $3 $4 $5 $6 $7 $8 $9 X,Y pos of 4 corners*
0 Add a 4 corners polygon primitive as box body*
4,1,4,$2,$3,$4,$5,$6,$7,$8,$9,$2,$3,0*
0 Add four circle primitives for the rounded corners*
1,1,$1+$1,$2,$3*
1,1,$1+$1,$4,$5*
1,1,$1+$1,$6,$7*
1,1,$1+$1,$8,$9*
0 Add four rect primitives between the rounded corners*
20,1,$1+$1,$2,$3,$4,$5,0*
20,1,$1+$1,$4,$5,$6,$7,0*
20,1,$1+$1,$6,$7,$8,$9,0*
20,1,$1+$1,$8,$9,$2,$3,0*%
G04 Aperture macros list end*
%ADD10R,1.700000X1.700000*%
%ADD11O,1.700000X1.700000*%
%ADD12C,1.700000*%
%ADD13RoundRect,0.250000X0.750000X1.550000X-0.750000X1.550000X-0.750000X-1.550000X0.750000X-1.550000X0*%
%ADD14O,2.000000X3.600000*%
G04 APERTURE END LIST*
D10*
%TO.C,J16*%
X189394080Y-108560320D03*
D11*
X186854080Y-108560320D03*
X184314080Y-108560320D03*
%TD*%
D12*
%TO.C,J14*%
X208185000Y-134575000D03*
%TD*%
D10*
%TO.C,J15*%
X132275000Y-101700000D03*
D11*
X134815000Y-101700000D03*
X137355000Y-101700000D03*
%TD*%
D10*
%TO.C,J18*%
X159310000Y-107600000D03*
D11*
X161850000Y-107600000D03*
X159310000Y-110140000D03*
X161850000Y-110140000D03*
X159310000Y-112680000D03*
X161850000Y-112680000D03*
X159310000Y-115220000D03*
X161850000Y-115220000D03*
X159310000Y-117760000D03*
X161850000Y-117760000D03*
X159310000Y-120300000D03*
X161850000Y-120300000D03*
X159310000Y-122840000D03*
X161850000Y-122840000D03*
X159310000Y-125380000D03*
X161850000Y-125380000D03*
X159310000Y-127920000D03*
X161850000Y-127920000D03*
X159310000Y-130460000D03*
X161850000Y-130460000D03*
X159310000Y-133000000D03*
X161850000Y-133000000D03*
X159310000Y-135540000D03*
X161850000Y-135540000D03*
%TD*%
D10*
%TO.C,J7*%
X134600000Y-135740000D03*
D11*
X134600000Y-133200000D03*
X134600000Y-130660000D03*
X134600000Y-128120000D03*
%TD*%
D10*
%TO.C,J5*%
X246615000Y-107615000D03*
D11*
X249155000Y-107615000D03*
X246615000Y-110155000D03*
X249155000Y-110155000D03*
X246615000Y-112695000D03*
X249155000Y-112695000D03*
X246615000Y-115235000D03*
X249155000Y-115235000D03*
X246615000Y-117775000D03*
X249155000Y-117775000D03*
X246615000Y-120315000D03*
X249155000Y-120315000D03*
X246615000Y-122855000D03*
X249155000Y-122855000D03*
X246615000Y-125395000D03*
X249155000Y-125395000D03*
X246615000Y-127935000D03*
X249155000Y-127935000D03*
X246615000Y-130475000D03*
X249155000Y-130475000D03*
X246615000Y-133015000D03*
X249155000Y-133015000D03*
X246615000Y-135555000D03*
X249155000Y-135555000D03*
%TD*%
D10*
%TO.C,J8*%
X124100000Y-122250000D03*
D11*
X124100000Y-124790000D03*
X124100000Y-127330000D03*
X124100000Y-129870000D03*
%TD*%
D10*
%TO.C,J11*%
X134610000Y-105580000D03*
D11*
X134610000Y-108120000D03*
X134610000Y-110660000D03*
X134610000Y-113200000D03*
%TD*%
D10*
%TO.C,J12*%
X215715000Y-107875000D03*
D11*
X218255000Y-107875000D03*
X215715000Y-110415000D03*
X218255000Y-110415000D03*
X215715000Y-112955000D03*
X218255000Y-112955000D03*
X215715000Y-115495000D03*
X218255000Y-115495000D03*
X215715000Y-118035000D03*
X218255000Y-118035000D03*
X215715000Y-120575000D03*
X218255000Y-120575000D03*
X215715000Y-123115000D03*
X218255000Y-123115000D03*
X215715000Y-125655000D03*
X218255000Y-125655000D03*
X215715000Y-128195000D03*
X218255000Y-128195000D03*
X215715000Y-130735000D03*
X218255000Y-130735000D03*
X215715000Y-133275000D03*
X218255000Y-133275000D03*
X215715000Y-135815000D03*
X218255000Y-135815000D03*
%TD*%
D10*
%TO.C,J3*%
X199980000Y-138720000D03*
D11*
X202520000Y-138720000D03*
X205060000Y-138720000D03*
%TD*%
D10*
%TO.C,J6*%
X230330000Y-107700000D03*
D11*
X232870000Y-107700000D03*
X230330000Y-110240000D03*
X232870000Y-110240000D03*
X230330000Y-112780000D03*
X232870000Y-112780000D03*
X230330000Y-115320000D03*
X232870000Y-115320000D03*
X230330000Y-117860000D03*
X232870000Y-117860000D03*
X230330000Y-120400000D03*
X232870000Y-120400000D03*
X230330000Y-122940000D03*
X232870000Y-122940000D03*
X230330000Y-125480000D03*
X232870000Y-125480000D03*
X230330000Y-128020000D03*
X232870000Y-128020000D03*
X230330000Y-130560000D03*
X232870000Y-130560000D03*
X230330000Y-133100000D03*
X232870000Y-133100000D03*
X230330000Y-135640000D03*
X232870000Y-135640000D03*
%TD*%
D10*
%TO.C,J9*%
X134610000Y-116858000D03*
D11*
X134610000Y-119398000D03*
X134610000Y-121938000D03*
X134610000Y-124478000D03*
%TD*%
D10*
%TO.C,J19*%
X142990000Y-107470000D03*
D11*
X145530000Y-107470000D03*
X142990000Y-110010000D03*
X145530000Y-110010000D03*
X142990000Y-112550000D03*
X145530000Y-112550000D03*
X142990000Y-115090000D03*
X145530000Y-115090000D03*
X142990000Y-117630000D03*
X145530000Y-117630000D03*
X142990000Y-120170000D03*
X145530000Y-120170000D03*
X142990000Y-122710000D03*
X145530000Y-122710000D03*
X142990000Y-125250000D03*
X145530000Y-125250000D03*
X142990000Y-127790000D03*
X145530000Y-127790000D03*
X142990000Y-130330000D03*
X145530000Y-130330000D03*
X142990000Y-132870000D03*
X145530000Y-132870000D03*
X142990000Y-135410000D03*
X145530000Y-135410000D03*
%TD*%
D10*
%TO.C,J4*%
X263145000Y-107455000D03*
D11*
X265685000Y-107455000D03*
X263145000Y-109995000D03*
X265685000Y-109995000D03*
X263145000Y-112535000D03*
X265685000Y-112535000D03*
X263145000Y-115075000D03*
X265685000Y-115075000D03*
X263145000Y-117615000D03*
X265685000Y-117615000D03*
X263145000Y-120155000D03*
X265685000Y-120155000D03*
X263145000Y-122695000D03*
X265685000Y-122695000D03*
X263145000Y-125235000D03*
X265685000Y-125235000D03*
X263145000Y-127775000D03*
X265685000Y-127775000D03*
X263145000Y-130315000D03*
X265685000Y-130315000D03*
X263145000Y-132855000D03*
X265685000Y-132855000D03*
X263145000Y-135395000D03*
X265685000Y-135395000D03*
%TD*%
D10*
%TO.C,J1*%
X163900000Y-97320000D03*
D11*
X166440000Y-97320000D03*
X168980000Y-97320000D03*
X171520000Y-97320000D03*
%TD*%
D10*
%TO.C,J17*%
X150115000Y-100750000D03*
D11*
X152655000Y-100750000D03*
X155195000Y-100750000D03*
%TD*%
D13*
%TO.C,J20*%
X204100000Y-97737500D03*
D14*
X196600000Y-97737500D03*
X189100000Y-97737500D03*
X181600000Y-97737500D03*
%TD*%
D10*
%TO.C,J13*%
X173400000Y-107600000D03*
D11*
X175940000Y-107600000D03*
X173400000Y-110140000D03*
X175940000Y-110140000D03*
X173400000Y-112680000D03*
X175940000Y-112680000D03*
X173400000Y-115220000D03*
X175940000Y-115220000D03*
X173400000Y-117760000D03*
X175940000Y-117760000D03*
X173400000Y-120300000D03*
X175940000Y-120300000D03*
X173400000Y-122840000D03*
X175940000Y-122840000D03*
X173400000Y-125380000D03*
X175940000Y-125380000D03*
X173400000Y-127920000D03*
X175940000Y-127920000D03*
X173400000Y-130460000D03*
X175940000Y-130460000D03*
X173400000Y-133000000D03*
X175940000Y-133000000D03*
X173400000Y-135540000D03*
X175940000Y-135540000D03*
%TD*%
D10*
%TO.C,J10*%
X124120000Y-110940000D03*
D11*
X124120000Y-113480000D03*
X124120000Y-116020000D03*
X124120000Y-118560000D03*
%TD*%
M02*
