%TF.GenerationSoftware,KiCad,Pcbnew,(6.0.2)*%
%TF.CreationDate,2022-03-04T11:59:50-06:00*%
%TF.ProjectId,rev1,72657631-2e6b-4696-9361-645f70636258,rev?*%
%TF.SameCoordinates,Original*%
%TF.FileFunction,Legend,Bot*%
%TF.FilePolarity,Positive*%
%FSLAX46Y46*%
G04 Gerber Fmt 4.6, Leading zero omitted, Abs format (unit mm)*
G04 Created by KiCad (PCBNEW (6.0.2)) date 2022-03-04 11:59:50*
%MOMM*%
%LPD*%
G01*
G04 APERTURE LIST*
%ADD10C,0.150000*%
G04 APERTURE END LIST*
D10*
X128260476Y-132686666D02*
X127784285Y-132686666D01*
X128355714Y-132972380D02*
X128022380Y-131972380D01*
X127689047Y-132972380D01*
X127593809Y-133067619D02*
X126831904Y-133067619D01*
X126403333Y-131972380D02*
X126212857Y-131972380D01*
X126117619Y-132020000D01*
X126022380Y-132115238D01*
X125974761Y-132305714D01*
X125974761Y-132639047D01*
X126022380Y-132829523D01*
X126117619Y-132924761D01*
X126212857Y-132972380D01*
X126403333Y-132972380D01*
X126498571Y-132924761D01*
X126593809Y-132829523D01*
X126641428Y-132639047D01*
X126641428Y-132305714D01*
X126593809Y-132115238D01*
X126498571Y-132020000D01*
X126403333Y-131972380D01*
X125546190Y-131972380D02*
X125546190Y-132781904D01*
X125498571Y-132877142D01*
X125450952Y-132924761D01*
X125355714Y-132972380D01*
X125165238Y-132972380D01*
X125070000Y-132924761D01*
X125022380Y-132877142D01*
X124974761Y-132781904D01*
X124974761Y-131972380D01*
X124641428Y-131972380D02*
X124070000Y-131972380D01*
X124355714Y-132972380D02*
X124355714Y-131972380D01*
X123974761Y-133067619D02*
X123212857Y-133067619D01*
X122498571Y-132972380D02*
X122974761Y-132972380D01*
X122974761Y-131972380D01*
X122403333Y-133067619D02*
X121641428Y-133067619D01*
X121450952Y-132067619D02*
X121403333Y-132020000D01*
X121308095Y-131972380D01*
X121069999Y-131972380D01*
X120974761Y-132020000D01*
X120927142Y-132067619D01*
X120879523Y-132162857D01*
X120879523Y-132258095D01*
X120927142Y-132400952D01*
X121498571Y-132972380D01*
X120879523Y-132972380D01*
X266620285Y-104592380D02*
X266620285Y-103592380D01*
X266382190Y-103592380D01*
X266239333Y-103640000D01*
X266144095Y-103735238D01*
X266096476Y-103830476D01*
X266048857Y-104020952D01*
X266048857Y-104163809D01*
X266096476Y-104354285D01*
X266144095Y-104449523D01*
X266239333Y-104544761D01*
X266382190Y-104592380D01*
X266620285Y-104592380D01*
X265048857Y-104592380D02*
X265382190Y-104116190D01*
X265620285Y-104592380D02*
X265620285Y-103592380D01*
X265239333Y-103592380D01*
X265144095Y-103640000D01*
X265096476Y-103687619D01*
X265048857Y-103782857D01*
X265048857Y-103925714D01*
X265096476Y-104020952D01*
X265144095Y-104068571D01*
X265239333Y-104116190D01*
X265620285Y-104116190D01*
X264620285Y-103592380D02*
X264620285Y-104401904D01*
X264572666Y-104497142D01*
X264525047Y-104544761D01*
X264429809Y-104592380D01*
X264239333Y-104592380D01*
X264144095Y-104544761D01*
X264096476Y-104497142D01*
X264048857Y-104401904D01*
X264048857Y-103592380D01*
X263572666Y-104592380D02*
X263572666Y-103592380D01*
X263239333Y-104306666D01*
X262906000Y-103592380D01*
X262906000Y-104592380D01*
X261144095Y-104592380D02*
X261715523Y-104592380D01*
X261429809Y-104592380D02*
X261429809Y-103592380D01*
X261525047Y-103735238D01*
X261620285Y-103830476D01*
X261715523Y-103878095D01*
X233854285Y-105100380D02*
X233854285Y-104100380D01*
X233616190Y-104100380D01*
X233473333Y-104148000D01*
X233378095Y-104243238D01*
X233330476Y-104338476D01*
X233282857Y-104528952D01*
X233282857Y-104671809D01*
X233330476Y-104862285D01*
X233378095Y-104957523D01*
X233473333Y-105052761D01*
X233616190Y-105100380D01*
X233854285Y-105100380D01*
X232282857Y-105100380D02*
X232616190Y-104624190D01*
X232854285Y-105100380D02*
X232854285Y-104100380D01*
X232473333Y-104100380D01*
X232378095Y-104148000D01*
X232330476Y-104195619D01*
X232282857Y-104290857D01*
X232282857Y-104433714D01*
X232330476Y-104528952D01*
X232378095Y-104576571D01*
X232473333Y-104624190D01*
X232854285Y-104624190D01*
X231854285Y-104100380D02*
X231854285Y-104909904D01*
X231806666Y-105005142D01*
X231759047Y-105052761D01*
X231663809Y-105100380D01*
X231473333Y-105100380D01*
X231378095Y-105052761D01*
X231330476Y-105005142D01*
X231282857Y-104909904D01*
X231282857Y-104100380D01*
X230806666Y-105100380D02*
X230806666Y-104100380D01*
X230473333Y-104814666D01*
X230140000Y-104100380D01*
X230140000Y-105100380D01*
X228997142Y-104100380D02*
X228378095Y-104100380D01*
X228711428Y-104481333D01*
X228568571Y-104481333D01*
X228473333Y-104528952D01*
X228425714Y-104576571D01*
X228378095Y-104671809D01*
X228378095Y-104909904D01*
X228425714Y-105005142D01*
X228473333Y-105052761D01*
X228568571Y-105100380D01*
X228854285Y-105100380D01*
X228949523Y-105052761D01*
X228997142Y-105005142D01*
X219630285Y-105354380D02*
X219630285Y-104354380D01*
X219392190Y-104354380D01*
X219249333Y-104402000D01*
X219154095Y-104497238D01*
X219106476Y-104592476D01*
X219058857Y-104782952D01*
X219058857Y-104925809D01*
X219106476Y-105116285D01*
X219154095Y-105211523D01*
X219249333Y-105306761D01*
X219392190Y-105354380D01*
X219630285Y-105354380D01*
X218058857Y-105354380D02*
X218392190Y-104878190D01*
X218630285Y-105354380D02*
X218630285Y-104354380D01*
X218249333Y-104354380D01*
X218154095Y-104402000D01*
X218106476Y-104449619D01*
X218058857Y-104544857D01*
X218058857Y-104687714D01*
X218106476Y-104782952D01*
X218154095Y-104830571D01*
X218249333Y-104878190D01*
X218630285Y-104878190D01*
X217630285Y-104354380D02*
X217630285Y-105163904D01*
X217582666Y-105259142D01*
X217535047Y-105306761D01*
X217439809Y-105354380D01*
X217249333Y-105354380D01*
X217154095Y-105306761D01*
X217106476Y-105259142D01*
X217058857Y-105163904D01*
X217058857Y-104354380D01*
X216582666Y-105354380D02*
X216582666Y-104354380D01*
X216249333Y-105068666D01*
X215916000Y-104354380D01*
X215916000Y-105354380D01*
X214249333Y-104687714D02*
X214249333Y-105354380D01*
X214487428Y-104306761D02*
X214725523Y-105021047D01*
X214106476Y-105021047D01*
X250110285Y-105100380D02*
X250110285Y-104100380D01*
X249872190Y-104100380D01*
X249729333Y-104148000D01*
X249634095Y-104243238D01*
X249586476Y-104338476D01*
X249538857Y-104528952D01*
X249538857Y-104671809D01*
X249586476Y-104862285D01*
X249634095Y-104957523D01*
X249729333Y-105052761D01*
X249872190Y-105100380D01*
X250110285Y-105100380D01*
X248538857Y-105100380D02*
X248872190Y-104624190D01*
X249110285Y-105100380D02*
X249110285Y-104100380D01*
X248729333Y-104100380D01*
X248634095Y-104148000D01*
X248586476Y-104195619D01*
X248538857Y-104290857D01*
X248538857Y-104433714D01*
X248586476Y-104528952D01*
X248634095Y-104576571D01*
X248729333Y-104624190D01*
X249110285Y-104624190D01*
X248110285Y-104100380D02*
X248110285Y-104909904D01*
X248062666Y-105005142D01*
X248015047Y-105052761D01*
X247919809Y-105100380D01*
X247729333Y-105100380D01*
X247634095Y-105052761D01*
X247586476Y-105005142D01*
X247538857Y-104909904D01*
X247538857Y-104100380D01*
X247062666Y-105100380D02*
X247062666Y-104100380D01*
X246729333Y-104814666D01*
X246396000Y-104100380D01*
X246396000Y-105100380D01*
X245205523Y-104195619D02*
X245157904Y-104148000D01*
X245062666Y-104100380D01*
X244824571Y-104100380D01*
X244729333Y-104148000D01*
X244681714Y-104195619D01*
X244634095Y-104290857D01*
X244634095Y-104386095D01*
X244681714Y-104528952D01*
X245253142Y-105100380D01*
X244634095Y-105100380D01*
X164504285Y-104830571D02*
X164170952Y-104830571D01*
X164028095Y-105354380D02*
X164504285Y-105354380D01*
X164504285Y-104354380D01*
X164028095Y-104354380D01*
X163266190Y-104830571D02*
X163599523Y-104830571D01*
X163599523Y-105354380D02*
X163599523Y-104354380D01*
X163123333Y-104354380D01*
X162409047Y-104830571D02*
X162742380Y-104830571D01*
X162742380Y-105354380D02*
X162742380Y-104354380D01*
X162266190Y-104354380D01*
X161885238Y-104830571D02*
X161551904Y-104830571D01*
X161409047Y-105354380D02*
X161885238Y-105354380D01*
X161885238Y-104354380D01*
X161409047Y-104354380D01*
X160409047Y-105259142D02*
X160456666Y-105306761D01*
X160599523Y-105354380D01*
X160694761Y-105354380D01*
X160837619Y-105306761D01*
X160932857Y-105211523D01*
X160980476Y-105116285D01*
X161028095Y-104925809D01*
X161028095Y-104782952D01*
X160980476Y-104592476D01*
X160932857Y-104497238D01*
X160837619Y-104402000D01*
X160694761Y-104354380D01*
X160599523Y-104354380D01*
X160456666Y-104402000D01*
X160409047Y-104449619D01*
X160123333Y-104354380D02*
X159551904Y-104354380D01*
X159837619Y-105354380D02*
X159837619Y-104354380D01*
X158504285Y-105068666D02*
X158028095Y-105068666D01*
X158599523Y-105354380D02*
X158266190Y-104354380D01*
X157932857Y-105354380D01*
X127910476Y-108156666D02*
X127434285Y-108156666D01*
X128005714Y-108442380D02*
X127672380Y-107442380D01*
X127339047Y-108442380D01*
X127243809Y-108537619D02*
X126481904Y-108537619D01*
X126053333Y-107442380D02*
X125862857Y-107442380D01*
X125767619Y-107490000D01*
X125672380Y-107585238D01*
X125624761Y-107775714D01*
X125624761Y-108109047D01*
X125672380Y-108299523D01*
X125767619Y-108394761D01*
X125862857Y-108442380D01*
X126053333Y-108442380D01*
X126148571Y-108394761D01*
X126243809Y-108299523D01*
X126291428Y-108109047D01*
X126291428Y-107775714D01*
X126243809Y-107585238D01*
X126148571Y-107490000D01*
X126053333Y-107442380D01*
X125196190Y-107442380D02*
X125196190Y-108251904D01*
X125148571Y-108347142D01*
X125100952Y-108394761D01*
X125005714Y-108442380D01*
X124815238Y-108442380D01*
X124720000Y-108394761D01*
X124672380Y-108347142D01*
X124624761Y-108251904D01*
X124624761Y-107442380D01*
X124291428Y-107442380D02*
X123720000Y-107442380D01*
X124005714Y-108442380D02*
X124005714Y-107442380D01*
X123624761Y-108537619D02*
X122862857Y-108537619D01*
X122148571Y-108442380D02*
X122624761Y-108442380D01*
X122624761Y-107442380D01*
X122053333Y-108537619D02*
X121291428Y-108537619D01*
X120624761Y-107775714D02*
X120624761Y-108442380D01*
X120862857Y-107394761D02*
X121100952Y-108109047D01*
X120481904Y-108109047D01*
X131956666Y-117599523D02*
X131956666Y-118075714D01*
X132242380Y-117504285D02*
X131242380Y-117837619D01*
X132242380Y-118170952D01*
X132337619Y-118266190D02*
X132337619Y-119028095D01*
X131242380Y-119456666D02*
X131242380Y-119647142D01*
X131290000Y-119742380D01*
X131385238Y-119837619D01*
X131575714Y-119885238D01*
X131909047Y-119885238D01*
X132099523Y-119837619D01*
X132194761Y-119742380D01*
X132242380Y-119647142D01*
X132242380Y-119456666D01*
X132194761Y-119361428D01*
X132099523Y-119266190D01*
X131909047Y-119218571D01*
X131575714Y-119218571D01*
X131385238Y-119266190D01*
X131290000Y-119361428D01*
X131242380Y-119456666D01*
X131242380Y-120313809D02*
X132051904Y-120313809D01*
X132147142Y-120361428D01*
X132194761Y-120409047D01*
X132242380Y-120504285D01*
X132242380Y-120694761D01*
X132194761Y-120790000D01*
X132147142Y-120837619D01*
X132051904Y-120885238D01*
X131242380Y-120885238D01*
X131242380Y-121218571D02*
X131242380Y-121790000D01*
X132242380Y-121504285D02*
X131242380Y-121504285D01*
X132337619Y-121885238D02*
X132337619Y-122647142D01*
X132242380Y-123361428D02*
X132242380Y-122885238D01*
X131242380Y-122885238D01*
X132337619Y-123456666D02*
X132337619Y-124218571D01*
X131242380Y-124361428D02*
X131242380Y-124980476D01*
X131623333Y-124647142D01*
X131623333Y-124790000D01*
X131670952Y-124885238D01*
X131718571Y-124932857D01*
X131813809Y-124980476D01*
X132051904Y-124980476D01*
X132147142Y-124932857D01*
X132194761Y-124885238D01*
X132242380Y-124790000D01*
X132242380Y-124504285D01*
X132194761Y-124409047D01*
X132147142Y-124361428D01*
X147049714Y-104830571D02*
X146716380Y-104830571D01*
X146573523Y-105354380D02*
X147049714Y-105354380D01*
X147049714Y-104354380D01*
X146573523Y-104354380D01*
X145811619Y-104830571D02*
X146144952Y-104830571D01*
X146144952Y-105354380D02*
X146144952Y-104354380D01*
X145668761Y-104354380D01*
X144954476Y-104830571D02*
X145287809Y-104830571D01*
X145287809Y-105354380D02*
X145287809Y-104354380D01*
X144811619Y-104354380D01*
X144430666Y-104830571D02*
X144097333Y-104830571D01*
X143954476Y-105354380D02*
X144430666Y-105354380D01*
X144430666Y-104354380D01*
X143954476Y-104354380D01*
X142954476Y-105259142D02*
X143002095Y-105306761D01*
X143144952Y-105354380D01*
X143240190Y-105354380D01*
X143383047Y-105306761D01*
X143478285Y-105211523D01*
X143525904Y-105116285D01*
X143573523Y-104925809D01*
X143573523Y-104782952D01*
X143525904Y-104592476D01*
X143478285Y-104497238D01*
X143383047Y-104402000D01*
X143240190Y-104354380D01*
X143144952Y-104354380D01*
X143002095Y-104402000D01*
X142954476Y-104449619D01*
X142668761Y-104354380D02*
X142097333Y-104354380D01*
X142383047Y-105354380D02*
X142383047Y-104354380D01*
X140668761Y-104830571D02*
X140525904Y-104878190D01*
X140478285Y-104925809D01*
X140430666Y-105021047D01*
X140430666Y-105163904D01*
X140478285Y-105259142D01*
X140525904Y-105306761D01*
X140621142Y-105354380D01*
X141002095Y-105354380D01*
X141002095Y-104354380D01*
X140668761Y-104354380D01*
X140573523Y-104402000D01*
X140525904Y-104449619D01*
X140478285Y-104544857D01*
X140478285Y-104640095D01*
X140525904Y-104735333D01*
X140573523Y-104782952D01*
X140668761Y-104830571D01*
X141002095Y-104830571D01*
X138280476Y-138846666D02*
X137804285Y-138846666D01*
X138375714Y-139132380D02*
X138042380Y-138132380D01*
X137709047Y-139132380D01*
X137613809Y-139227619D02*
X136851904Y-139227619D01*
X136423333Y-138132380D02*
X136232857Y-138132380D01*
X136137619Y-138180000D01*
X136042380Y-138275238D01*
X135994761Y-138465714D01*
X135994761Y-138799047D01*
X136042380Y-138989523D01*
X136137619Y-139084761D01*
X136232857Y-139132380D01*
X136423333Y-139132380D01*
X136518571Y-139084761D01*
X136613809Y-138989523D01*
X136661428Y-138799047D01*
X136661428Y-138465714D01*
X136613809Y-138275238D01*
X136518571Y-138180000D01*
X136423333Y-138132380D01*
X135566190Y-138132380D02*
X135566190Y-138941904D01*
X135518571Y-139037142D01*
X135470952Y-139084761D01*
X135375714Y-139132380D01*
X135185238Y-139132380D01*
X135090000Y-139084761D01*
X135042380Y-139037142D01*
X134994761Y-138941904D01*
X134994761Y-138132380D01*
X134661428Y-138132380D02*
X134090000Y-138132380D01*
X134375714Y-139132380D02*
X134375714Y-138132380D01*
X133994761Y-139227619D02*
X133232857Y-139227619D01*
X132518571Y-139132380D02*
X132994761Y-139132380D01*
X132994761Y-138132380D01*
X132423333Y-139227619D02*
X131661428Y-139227619D01*
X130899523Y-139132380D02*
X131470952Y-139132380D01*
X131185238Y-139132380D02*
X131185238Y-138132380D01*
X131280476Y-138275238D01*
X131375714Y-138370476D01*
X131470952Y-138418095D01*
X161609523Y-95842380D02*
X161609523Y-96651904D01*
X161561904Y-96747142D01*
X161514285Y-96794761D01*
X161419047Y-96842380D01*
X161228571Y-96842380D01*
X161133333Y-96794761D01*
X161085714Y-96747142D01*
X161038095Y-96651904D01*
X161038095Y-95842380D01*
X160609523Y-96794761D02*
X160466666Y-96842380D01*
X160228571Y-96842380D01*
X160133333Y-96794761D01*
X160085714Y-96747142D01*
X160038095Y-96651904D01*
X160038095Y-96556666D01*
X160085714Y-96461428D01*
X160133333Y-96413809D01*
X160228571Y-96366190D01*
X160419047Y-96318571D01*
X160514285Y-96270952D01*
X160561904Y-96223333D01*
X160609523Y-96128095D01*
X160609523Y-96032857D01*
X160561904Y-95937619D01*
X160514285Y-95890000D01*
X160419047Y-95842380D01*
X160180952Y-95842380D01*
X160038095Y-95890000D01*
X159276190Y-96318571D02*
X159133333Y-96366190D01*
X159085714Y-96413809D01*
X159038095Y-96509047D01*
X159038095Y-96651904D01*
X159085714Y-96747142D01*
X159133333Y-96794761D01*
X159228571Y-96842380D01*
X159609523Y-96842380D01*
X159609523Y-95842380D01*
X159276190Y-95842380D01*
X159180952Y-95890000D01*
X159133333Y-95937619D01*
X159085714Y-96032857D01*
X159085714Y-96128095D01*
X159133333Y-96223333D01*
X159180952Y-96270952D01*
X159276190Y-96318571D01*
X159609523Y-96318571D01*
X158609523Y-96461428D02*
X157847619Y-96461428D01*
X157419047Y-96556666D02*
X156942857Y-96556666D01*
X157514285Y-96842380D02*
X157180952Y-95842380D01*
X156847619Y-96842380D01*
X131992666Y-106545523D02*
X131992666Y-107021714D01*
X132278380Y-106450285D02*
X131278380Y-106783619D01*
X132278380Y-107116952D01*
X132373619Y-107212190D02*
X132373619Y-107974095D01*
X131278380Y-108402666D02*
X131278380Y-108593142D01*
X131326000Y-108688380D01*
X131421238Y-108783619D01*
X131611714Y-108831238D01*
X131945047Y-108831238D01*
X132135523Y-108783619D01*
X132230761Y-108688380D01*
X132278380Y-108593142D01*
X132278380Y-108402666D01*
X132230761Y-108307428D01*
X132135523Y-108212190D01*
X131945047Y-108164571D01*
X131611714Y-108164571D01*
X131421238Y-108212190D01*
X131326000Y-108307428D01*
X131278380Y-108402666D01*
X131278380Y-109259809D02*
X132087904Y-109259809D01*
X132183142Y-109307428D01*
X132230761Y-109355047D01*
X132278380Y-109450285D01*
X132278380Y-109640761D01*
X132230761Y-109736000D01*
X132183142Y-109783619D01*
X132087904Y-109831238D01*
X131278380Y-109831238D01*
X131278380Y-110164571D02*
X131278380Y-110736000D01*
X132278380Y-110450285D02*
X131278380Y-110450285D01*
X132373619Y-110831238D02*
X132373619Y-111593142D01*
X132278380Y-112307428D02*
X132278380Y-111831238D01*
X131278380Y-111831238D01*
X132373619Y-112402666D02*
X132373619Y-113164571D01*
X131278380Y-113878857D02*
X131278380Y-113402666D01*
X131754571Y-113355047D01*
X131706952Y-113402666D01*
X131659333Y-113497904D01*
X131659333Y-113736000D01*
X131706952Y-113831238D01*
X131754571Y-113878857D01*
X131849809Y-113926476D01*
X132087904Y-113926476D01*
X132183142Y-113878857D01*
X132230761Y-113831238D01*
X132278380Y-113736000D01*
X132278380Y-113497904D01*
X132230761Y-113402666D01*
X132183142Y-113355047D01*
X176958285Y-105862380D02*
X176958285Y-104862380D01*
X176720190Y-104862380D01*
X176577333Y-104910000D01*
X176482095Y-105005238D01*
X176434476Y-105100476D01*
X176386857Y-105290952D01*
X176386857Y-105433809D01*
X176434476Y-105624285D01*
X176482095Y-105719523D01*
X176577333Y-105814761D01*
X176720190Y-105862380D01*
X176958285Y-105862380D01*
X175386857Y-105862380D02*
X175720190Y-105386190D01*
X175958285Y-105862380D02*
X175958285Y-104862380D01*
X175577333Y-104862380D01*
X175482095Y-104910000D01*
X175434476Y-104957619D01*
X175386857Y-105052857D01*
X175386857Y-105195714D01*
X175434476Y-105290952D01*
X175482095Y-105338571D01*
X175577333Y-105386190D01*
X175958285Y-105386190D01*
X174958285Y-104862380D02*
X174958285Y-105671904D01*
X174910666Y-105767142D01*
X174863047Y-105814761D01*
X174767809Y-105862380D01*
X174577333Y-105862380D01*
X174482095Y-105814761D01*
X174434476Y-105767142D01*
X174386857Y-105671904D01*
X174386857Y-104862380D01*
X173910666Y-105862380D02*
X173910666Y-104862380D01*
X173577333Y-105576666D01*
X173244000Y-104862380D01*
X173244000Y-105862380D01*
X171529714Y-104862380D02*
X172005904Y-104862380D01*
X172053523Y-105338571D01*
X172005904Y-105290952D01*
X171910666Y-105243333D01*
X171672571Y-105243333D01*
X171577333Y-105290952D01*
X171529714Y-105338571D01*
X171482095Y-105433809D01*
X171482095Y-105671904D01*
X171529714Y-105767142D01*
X171577333Y-105814761D01*
X171672571Y-105862380D01*
X171910666Y-105862380D01*
X172005904Y-105814761D01*
X172053523Y-105767142D01*
X136470476Y-99452380D02*
X136470476Y-98452380D01*
X136232380Y-98452380D01*
X136089523Y-98500000D01*
X135994285Y-98595238D01*
X135946666Y-98690476D01*
X135899047Y-98880952D01*
X135899047Y-99023809D01*
X135946666Y-99214285D01*
X135994285Y-99309523D01*
X136089523Y-99404761D01*
X136232380Y-99452380D01*
X136470476Y-99452380D01*
X135518095Y-99166666D02*
X135041904Y-99166666D01*
X135613333Y-99452380D02*
X135280000Y-98452380D01*
X134946666Y-99452380D01*
X134041904Y-99357142D02*
X134089523Y-99404761D01*
X134232380Y-99452380D01*
X134327619Y-99452380D01*
X134470476Y-99404761D01*
X134565714Y-99309523D01*
X134613333Y-99214285D01*
X134660952Y-99023809D01*
X134660952Y-98880952D01*
X134613333Y-98690476D01*
X134565714Y-98595238D01*
X134470476Y-98500000D01*
X134327619Y-98452380D01*
X134232380Y-98452380D01*
X134089523Y-98500000D01*
X134041904Y-98547619D01*
X154003333Y-97828571D02*
X154336666Y-97828571D01*
X154336666Y-98352380D02*
X154336666Y-97352380D01*
X153860476Y-97352380D01*
X153479523Y-98352380D02*
X153479523Y-97352380D01*
X152527142Y-98352380D02*
X153003333Y-98352380D01*
X153003333Y-97352380D01*
X152336666Y-97352380D02*
X151765238Y-97352380D01*
X152050952Y-98352380D02*
X152050952Y-97352380D01*
X151431904Y-97828571D02*
X151098571Y-97828571D01*
X150955714Y-98352380D02*
X151431904Y-98352380D01*
X151431904Y-97352380D01*
X150955714Y-97352380D01*
X149955714Y-98352380D02*
X150289047Y-97876190D01*
X150527142Y-98352380D02*
X150527142Y-97352380D01*
X150146190Y-97352380D01*
X150050952Y-97400000D01*
X150003333Y-97447619D01*
X149955714Y-97542857D01*
X149955714Y-97685714D01*
X150003333Y-97780952D01*
X150050952Y-97828571D01*
X150146190Y-97876190D01*
X150527142Y-97876190D01*
M02*
